M48
; DRILL file {KiCad 9.0.9} date 2026-07-03T09:12:11-0500
; FORMAT={-:-/ absolute / metric / decimal}
; #@! TF.CreationDate,2026-07-03T09:12:11-05:00
; #@! TF.GenerationSoftware,Kicad,Pcbnew,9.0.9
; #@! TF.FileFunction,MixedPlating,1,2
FMAT,2
METRIC
; #@! TA.AperFunction,Plated,PTH,ComponentDrill
T1C0.700
; #@! TA.AperFunction,Plated,PTH,ComponentDrill
T2C0.900
; #@! TA.AperFunction,Plated,PTH,ComponentDrill
T3C1.016
; #@! TA.AperFunction,NonPlated,NPTH,ComponentDrill
T4C0.500
; #@! TA.AperFunction,NonPlated,NPTH,ComponentDrill
T5C2.700
%
G90
G05
T1
X83.89Y-106.66
X84.39Y-86.8
X91.51Y-106.66
X92.01Y-86.8
X107.98Y-106.66
X108.48Y-86.8
X115.6Y-106.66
X116.1Y-86.8
X124.97Y-106.66
X125.47Y-86.8
X132.59Y-106.66
X133.09Y-86.8
X149.06Y-106.66
X149.56Y-86.8
X156.68Y-106.66
X157.18Y-86.8
T2
X84.39Y-77.135
X84.39Y-79.675
X87.168Y-131.778
X87.825Y-129.325
X112.2Y-64.2
X112.857Y-61.747
X115.6Y-113.785
X115.6Y-116.325
X125.47Y-77.135
X125.47Y-79.675
X128.243Y-131.778
X128.9Y-129.325
X153.28Y-64.2
X153.937Y-61.747
X156.68Y-113.785
X156.68Y-116.325
T3
X97.42Y-106.685
X97.42Y-109.225
X97.495Y-84.275
X97.495Y-86.815
X99.96Y-106.685
X99.96Y-109.225
X100.035Y-84.275
X100.035Y-86.815
X102.5Y-106.685
X102.5Y-109.225
X102.575Y-84.275
X102.575Y-86.815
X138.52Y-106.685
X138.52Y-109.225
X138.575Y-84.275
X138.575Y-86.815
X141.06Y-106.685
X141.06Y-109.225
X141.115Y-84.275
X141.115Y-86.815
X143.6Y-106.685
X143.6Y-109.225
X143.655Y-84.275
X143.655Y-86.815
T4
X86.27Y-96.0
X86.27Y-97.5
X87.02Y-96.0
X87.02Y-97.5
X87.77Y-96.0
X87.77Y-97.5
X112.17Y-96.0
X112.17Y-97.5
X112.92Y-96.0
X112.92Y-97.5
X113.67Y-96.0
X113.67Y-97.5
X119.76Y-88.73
X119.76Y-89.48
X119.76Y-90.23
X119.81Y-103.27
X119.81Y-104.02
X119.81Y-104.77
X121.26Y-88.73
X121.26Y-89.48
X121.26Y-90.23
X121.31Y-103.27
X121.31Y-104.02
X121.31Y-104.77
X127.35Y-96.0
X127.35Y-97.5
X128.1Y-96.0
X128.1Y-97.5
X128.85Y-96.0
X128.85Y-97.5
X153.25Y-96.0
X153.25Y-97.5
X154.0Y-96.0
X154.0Y-97.5
X154.75Y-96.0
X154.75Y-97.5
T5
X84.18Y-92.01
X115.78Y-101.49
X125.29Y-92.01
X156.89Y-101.49
M30
