G04 #@! TF.GenerationSoftware,KiCad,Pcbnew,9.0.9*
G04 #@! TF.CreationDate,2026-07-03T09:11:59-05:00*
G04 #@! TF.ProjectId,psycho_sao,70737963-686f-45f7-9361-6f2e6b696361,1*
G04 #@! TF.SameCoordinates,Original*
G04 #@! TF.FileFunction,Soldermask,Bot*
G04 #@! TF.FilePolarity,Negative*
%FSLAX46Y46*%
G04 Gerber Fmt 4.6, Leading zero omitted, Abs format (unit mm)*
G04 Created by KiCad (PCBNEW 9.0.9) date 2026-07-03 09:11:59*
%MOMM*%
%LPD*%
G01*
G04 APERTURE LIST*
G04 Aperture macros list*
%AMRotRect*
0 Rectangle, with rotation*
0 The origin of the aperture is its center*
0 $1 length*
0 $2 width*
0 $3 Rotation angle, in degrees counterclockwise*
0 Add horizontal line*
21,1,$1,$2,0,0,$3*%
G04 Aperture macros list end*
%ADD10C,0.000000*%
%ADD11C,2.700000*%
%ADD12R,1.800000X1.800000*%
%ADD13C,1.800000*%
%ADD14C,1.400000*%
%ADD15R,1.727200X1.727200*%
%ADD16C,1.727200*%
%ADD17O,1.727200X1.727200*%
%ADD18RotRect,1.800000X1.800000X255.000000*%
%ADD19RotRect,1.800000X1.800000X75.000000*%
%ADD20C,0.500000*%
G04 APERTURE END LIST*
D10*
G04 #@! TO.C,Psycho_BMask*
G36*
X105552137Y-111160419D02*
G01*
X106065060Y-111203440D01*
X106491732Y-111238109D01*
X106842469Y-111264625D01*
X107127588Y-111283184D01*
X107357407Y-111293981D01*
X107542243Y-111297214D01*
X107692413Y-111293080D01*
X107818235Y-111281774D01*
X107930025Y-111263493D01*
X108038101Y-111238434D01*
X108142451Y-111209752D01*
X108433245Y-111147078D01*
X108675510Y-111146909D01*
X108885094Y-111216197D01*
X109077847Y-111361894D01*
X109269619Y-111590953D01*
X109378456Y-111751926D01*
X109520462Y-111960259D01*
X109682108Y-112177574D01*
X109830335Y-112359577D01*
X109841479Y-112372252D01*
X109969645Y-112508024D01*
X110088204Y-112605305D01*
X110227836Y-112683615D01*
X110419220Y-112762477D01*
X110503902Y-112793746D01*
X110735909Y-112884360D01*
X110972717Y-112987098D01*
X111171557Y-113083168D01*
X111212405Y-113105092D01*
X111333220Y-113176993D01*
X111433537Y-113253195D01*
X111528840Y-113350833D01*
X111634614Y-113487044D01*
X111766344Y-113678967D01*
X111860845Y-113822720D01*
X112001409Y-114044766D01*
X112126415Y-114254299D01*
X112223680Y-114430050D01*
X112281021Y-114550753D01*
X112286297Y-114565401D01*
X112314176Y-114666384D01*
X112314372Y-114749746D01*
X112279409Y-114845468D01*
X112201813Y-114983528D01*
X112168151Y-115039252D01*
X111963458Y-115302932D01*
X111693095Y-115521520D01*
X111346533Y-115702384D01*
X111078091Y-115802331D01*
X110826920Y-115904107D01*
X110533976Y-116054467D01*
X110229965Y-116237608D01*
X110221038Y-116243416D01*
X110012551Y-116380853D01*
X109864491Y-116487418D01*
X109755964Y-116585028D01*
X109666082Y-116695596D01*
X109573951Y-116841037D01*
X109458865Y-117042943D01*
X109353399Y-117242509D01*
X109249501Y-117466236D01*
X109141202Y-117729098D01*
X109022531Y-118046066D01*
X108887519Y-118432115D01*
X108792465Y-118714290D01*
X108669545Y-119073826D01*
X108540162Y-119435868D01*
X108412094Y-119779804D01*
X108293114Y-120085022D01*
X108190998Y-120330909D01*
X108140732Y-120442072D01*
X107886730Y-120976259D01*
X107167811Y-121610065D01*
X106671943Y-122023162D01*
X106194098Y-122368096D01*
X105707204Y-122662520D01*
X105184187Y-122924091D01*
X105083160Y-122969470D01*
X104831318Y-123046161D01*
X104516960Y-123079134D01*
X104133389Y-123068361D01*
X103673908Y-123013814D01*
X103370839Y-122962267D01*
X102908068Y-122860089D01*
X102376832Y-122714395D01*
X101792287Y-122530714D01*
X101169594Y-122314578D01*
X100523911Y-122071516D01*
X99870395Y-121807059D01*
X99224205Y-121526737D01*
X98600500Y-121236082D01*
X98484620Y-121179571D01*
X98072325Y-120971673D01*
X97721926Y-120781742D01*
X97404836Y-120592936D01*
X97092469Y-120388412D01*
X96831663Y-120205668D01*
X96604360Y-120041918D01*
X96421960Y-119906212D01*
X96270006Y-119784482D01*
X96134040Y-119662663D01*
X95999607Y-119526687D01*
X95852249Y-119362488D01*
X95677509Y-119155998D01*
X95460930Y-118893152D01*
X95375473Y-118788789D01*
X94636593Y-117886027D01*
X94371655Y-117177136D01*
X94270611Y-116901717D01*
X94195481Y-116678668D01*
X94139610Y-116479901D01*
X94096343Y-116277329D01*
X94059027Y-116042864D01*
X94021006Y-115748419D01*
X94008469Y-115644198D01*
X93962862Y-115215654D01*
X93936678Y-114842263D01*
X93928029Y-114484603D01*
X93934867Y-114107858D01*
X93946783Y-113818187D01*
X93963018Y-113589206D01*
X93988588Y-113389985D01*
X94028506Y-113189591D01*
X94087790Y-112957092D01*
X94166733Y-112677896D01*
X94248494Y-112399156D01*
X94314330Y-112192789D01*
X94373965Y-112037676D01*
X94437122Y-111912696D01*
X94513525Y-111796732D01*
X94612898Y-111668663D01*
X94655491Y-111616354D01*
X94863337Y-111388186D01*
X95065548Y-111213534D01*
X95173566Y-111143740D01*
X95405000Y-111065000D01*
X99620720Y-111065000D01*
X103855000Y-111065000D01*
X105552137Y-111160419D01*
G37*
G36*
X140805000Y-111090000D02*
G01*
X145055000Y-111090000D01*
X146754427Y-111159846D01*
X147267350Y-111202867D01*
X147694022Y-111237536D01*
X148044759Y-111264052D01*
X148329878Y-111282611D01*
X148559697Y-111293408D01*
X148744533Y-111296641D01*
X148894704Y-111292507D01*
X149020525Y-111281201D01*
X149132315Y-111262920D01*
X149240391Y-111237861D01*
X149344742Y-111209179D01*
X149635535Y-111146505D01*
X149877800Y-111146336D01*
X150087384Y-111215624D01*
X150280137Y-111361321D01*
X150471909Y-111590380D01*
X150580746Y-111751353D01*
X150722752Y-111959686D01*
X150884398Y-112177001D01*
X151032625Y-112359004D01*
X151043769Y-112371679D01*
X151171935Y-112507451D01*
X151290494Y-112604732D01*
X151430127Y-112683042D01*
X151621510Y-112761904D01*
X151706192Y-112793173D01*
X151938199Y-112883787D01*
X152175007Y-112986525D01*
X152373847Y-113082595D01*
X152414695Y-113104519D01*
X152535510Y-113176420D01*
X152635827Y-113252622D01*
X152731130Y-113350260D01*
X152836904Y-113486471D01*
X152968634Y-113678394D01*
X153063135Y-113822147D01*
X153203699Y-114044193D01*
X153328705Y-114253726D01*
X153425970Y-114429477D01*
X153483312Y-114550180D01*
X153488587Y-114564828D01*
X153516466Y-114665811D01*
X153516662Y-114749173D01*
X153481699Y-114844895D01*
X153404103Y-114982955D01*
X153370441Y-115038679D01*
X153165748Y-115302359D01*
X152895385Y-115520947D01*
X152548823Y-115701811D01*
X152280381Y-115801758D01*
X152029210Y-115903534D01*
X151736266Y-116053894D01*
X151432255Y-116237035D01*
X151423328Y-116242843D01*
X151214841Y-116380280D01*
X151066781Y-116486845D01*
X150958254Y-116584455D01*
X150868372Y-116695023D01*
X150776242Y-116840464D01*
X150661155Y-117042370D01*
X150555689Y-117241936D01*
X150451791Y-117465663D01*
X150343492Y-117728525D01*
X150224821Y-118045493D01*
X150089809Y-118431542D01*
X149994755Y-118713717D01*
X149871835Y-119073253D01*
X149742453Y-119435295D01*
X149614384Y-119779231D01*
X149495404Y-120084449D01*
X149393288Y-120330336D01*
X149343022Y-120441499D01*
X149089020Y-120975686D01*
X148370101Y-121609492D01*
X147874233Y-122022589D01*
X147396388Y-122367523D01*
X146909494Y-122661947D01*
X146386477Y-122923518D01*
X146285450Y-122968897D01*
X146033608Y-123045588D01*
X145719250Y-123078561D01*
X145335679Y-123067788D01*
X144876199Y-123013241D01*
X144573129Y-122961694D01*
X144110358Y-122859516D01*
X143579122Y-122713822D01*
X142994578Y-122530141D01*
X142371884Y-122314005D01*
X141726201Y-122070943D01*
X141072685Y-121806486D01*
X140426495Y-121526164D01*
X139802790Y-121235509D01*
X139686910Y-121178998D01*
X139274615Y-120971100D01*
X138924216Y-120781169D01*
X138607126Y-120592363D01*
X138294759Y-120387839D01*
X138033953Y-120205095D01*
X137806650Y-120041345D01*
X137624250Y-119905639D01*
X137472296Y-119783909D01*
X137336330Y-119662090D01*
X137201897Y-119526114D01*
X137054539Y-119361915D01*
X136879799Y-119155425D01*
X136663220Y-118892579D01*
X136577763Y-118788216D01*
X135838884Y-117885454D01*
X135573945Y-117176563D01*
X135472901Y-116901144D01*
X135397771Y-116678095D01*
X135341900Y-116479328D01*
X135298633Y-116276756D01*
X135261317Y-116042291D01*
X135223296Y-115747846D01*
X135210759Y-115643625D01*
X135165152Y-115215081D01*
X135138968Y-114841690D01*
X135130319Y-114484030D01*
X135137157Y-114107285D01*
X135149073Y-113817614D01*
X135165309Y-113588633D01*
X135190878Y-113389412D01*
X135230796Y-113189018D01*
X135290080Y-112956519D01*
X135369023Y-112677323D01*
X135450784Y-112398583D01*
X135516620Y-112192216D01*
X135576255Y-112037103D01*
X135639412Y-111912123D01*
X135715815Y-111796159D01*
X135815188Y-111668090D01*
X135857781Y-111615781D01*
X136065627Y-111387613D01*
X136267838Y-111212961D01*
X136375856Y-111143167D01*
X136612394Y-111065000D01*
X140805000Y-111090000D01*
G37*
G36*
X95931373Y-70421874D02*
G01*
X96452617Y-70501713D01*
X97047271Y-70635490D01*
X97713769Y-70822884D01*
X98450542Y-71063574D01*
X99256023Y-71357239D01*
X99580933Y-71483103D01*
X100473832Y-71853594D01*
X101292023Y-72232908D01*
X102029486Y-72617963D01*
X102680204Y-73005675D01*
X103075282Y-73272995D01*
X103302585Y-73436745D01*
X103484986Y-73572451D01*
X103636940Y-73694180D01*
X103772905Y-73816000D01*
X103907338Y-73951976D01*
X104054696Y-74116175D01*
X104229437Y-74322665D01*
X104446016Y-74585511D01*
X104531472Y-74689874D01*
X105270352Y-75592636D01*
X105535290Y-76301527D01*
X105636334Y-76576946D01*
X105711465Y-76799995D01*
X105767336Y-76998762D01*
X105810602Y-77201334D01*
X105847918Y-77435799D01*
X105885939Y-77730244D01*
X105898476Y-77834465D01*
X105944084Y-78263009D01*
X105970267Y-78636400D01*
X105978916Y-78994060D01*
X105972079Y-79370805D01*
X105960162Y-79660476D01*
X105943927Y-79889457D01*
X105918358Y-80088678D01*
X105878439Y-80289072D01*
X105819156Y-80521571D01*
X105740212Y-80800767D01*
X105658451Y-81079507D01*
X105592615Y-81285874D01*
X105532980Y-81440987D01*
X105469824Y-81565967D01*
X105393421Y-81681931D01*
X105294048Y-81810000D01*
X105251455Y-81862309D01*
X105043608Y-82090477D01*
X104841397Y-82265129D01*
X104733380Y-82334923D01*
X104496842Y-82415000D01*
X100165043Y-82415000D01*
X99418224Y-82415000D01*
X98760335Y-82415000D01*
X98183360Y-82415000D01*
X97679283Y-82415000D01*
X97240088Y-82415000D01*
X96857758Y-82415000D01*
X96524277Y-82415000D01*
X96231630Y-82415000D01*
X95971799Y-82415000D01*
X95736768Y-82415000D01*
X95518522Y-82410288D01*
X95309045Y-82397842D01*
X95100319Y-82383200D01*
X94884328Y-82366166D01*
X94653058Y-82346548D01*
X94398490Y-82324152D01*
X94306335Y-82315970D01*
X93795546Y-82271224D01*
X93370519Y-82235854D01*
X93020547Y-82209659D01*
X92734919Y-82192443D01*
X92502926Y-82184007D01*
X92313859Y-82184152D01*
X92157007Y-82192681D01*
X92021663Y-82209395D01*
X91897115Y-82234096D01*
X91772656Y-82266585D01*
X91764494Y-82268911D01*
X91473700Y-82331585D01*
X91231436Y-82331754D01*
X91021851Y-82262466D01*
X90829098Y-82116769D01*
X90637327Y-81887709D01*
X90528489Y-81726737D01*
X90386483Y-81518404D01*
X90224837Y-81301089D01*
X90076611Y-81119086D01*
X90065467Y-81106411D01*
X89937301Y-80970639D01*
X89818741Y-80873358D01*
X89679109Y-80795048D01*
X89487725Y-80716186D01*
X89403043Y-80684917D01*
X89171036Y-80594303D01*
X88934229Y-80491565D01*
X88735388Y-80395495D01*
X88694540Y-80373571D01*
X88573725Y-80301669D01*
X88473409Y-80225468D01*
X88378106Y-80127830D01*
X88272332Y-79991619D01*
X88140602Y-79799696D01*
X88046100Y-79655943D01*
X87905537Y-79433897D01*
X87780531Y-79224364D01*
X87683265Y-79048613D01*
X87625924Y-78927910D01*
X87620648Y-78913262D01*
X87592769Y-78812279D01*
X87592574Y-78728917D01*
X87627537Y-78633195D01*
X87705133Y-78495135D01*
X87738795Y-78439411D01*
X87943487Y-78175731D01*
X88213851Y-77957143D01*
X88560412Y-77776279D01*
X88828854Y-77676332D01*
X89080026Y-77574556D01*
X89372969Y-77424196D01*
X89676980Y-77241054D01*
X89685908Y-77235247D01*
X89894394Y-77097810D01*
X90042455Y-76991245D01*
X90150981Y-76893635D01*
X90240864Y-76783067D01*
X90332994Y-76637626D01*
X90448080Y-76435720D01*
X90553547Y-76236154D01*
X90657445Y-76012427D01*
X90765744Y-75749565D01*
X90884414Y-75432597D01*
X91019426Y-75046548D01*
X91114480Y-74764373D01*
X91237401Y-74404837D01*
X91366783Y-74042795D01*
X91494852Y-73698859D01*
X91613832Y-73393641D01*
X91715948Y-73147754D01*
X91766214Y-73036591D01*
X92020215Y-72502404D01*
X92739134Y-71868598D01*
X93235003Y-71455501D01*
X93712847Y-71110567D01*
X94199741Y-70816143D01*
X94722759Y-70554572D01*
X94823785Y-70509193D01*
X95115390Y-70425293D01*
X95485108Y-70396293D01*
X95931373Y-70421874D01*
G37*
G36*
X137133663Y-70419895D02*
G01*
X137654907Y-70499734D01*
X138249562Y-70633511D01*
X138916059Y-70820905D01*
X139652832Y-71061595D01*
X140458313Y-71355260D01*
X140783223Y-71481124D01*
X141676122Y-71851615D01*
X142494313Y-72230929D01*
X143231776Y-72615984D01*
X143882494Y-73003696D01*
X144277572Y-73271016D01*
X144504875Y-73434766D01*
X144687276Y-73570472D01*
X144839230Y-73692201D01*
X144975195Y-73814021D01*
X145109628Y-73949997D01*
X145256987Y-74114196D01*
X145431727Y-74320686D01*
X145648306Y-74583532D01*
X145733762Y-74687895D01*
X146472642Y-75590657D01*
X146737580Y-76299548D01*
X146838624Y-76574967D01*
X146913755Y-76798016D01*
X146969626Y-76996783D01*
X147012892Y-77199355D01*
X147050208Y-77433820D01*
X147088229Y-77728265D01*
X147100767Y-77832486D01*
X147146374Y-78261030D01*
X147172557Y-78634421D01*
X147181206Y-78992081D01*
X147174369Y-79368826D01*
X147162452Y-79658497D01*
X147146217Y-79887478D01*
X147120648Y-80086699D01*
X147080729Y-80287093D01*
X147021446Y-80519592D01*
X146942502Y-80798788D01*
X146860741Y-81077528D01*
X146794905Y-81283895D01*
X146735271Y-81439008D01*
X146672114Y-81563988D01*
X146595711Y-81679952D01*
X146496338Y-81808021D01*
X146453745Y-81860330D01*
X146245898Y-82088498D01*
X146043687Y-82263150D01*
X145935670Y-82332944D01*
X145699132Y-82413021D01*
X141367333Y-82413021D01*
X140620514Y-82413021D01*
X139980000Y-82413021D01*
X139385650Y-82413021D01*
X138881573Y-82413021D01*
X138442378Y-82413021D01*
X138060048Y-82413021D01*
X137726567Y-82415000D01*
X137433920Y-82415000D01*
X137174089Y-82415000D01*
X136939058Y-82415000D01*
X136720812Y-82408309D01*
X136511335Y-82395863D01*
X136302609Y-82381221D01*
X136086619Y-82364187D01*
X135855348Y-82344569D01*
X135600781Y-82322173D01*
X135508625Y-82313991D01*
X134997836Y-82269245D01*
X134572809Y-82233875D01*
X134222837Y-82207680D01*
X133937209Y-82190464D01*
X133705216Y-82182028D01*
X133516149Y-82182173D01*
X133359297Y-82190702D01*
X133223953Y-82207416D01*
X133099405Y-82232117D01*
X132974946Y-82264606D01*
X132966784Y-82266932D01*
X132675990Y-82329606D01*
X132433726Y-82329775D01*
X132224141Y-82260487D01*
X132031388Y-82114790D01*
X131839617Y-81885730D01*
X131730779Y-81724758D01*
X131588774Y-81516425D01*
X131427127Y-81299110D01*
X131278901Y-81117107D01*
X131267757Y-81104432D01*
X131139591Y-80968660D01*
X131021031Y-80871379D01*
X130881399Y-80793069D01*
X130690015Y-80714207D01*
X130605334Y-80682938D01*
X130373326Y-80592324D01*
X130136519Y-80489586D01*
X129937678Y-80393516D01*
X129896830Y-80371592D01*
X129776015Y-80299690D01*
X129675699Y-80223489D01*
X129580396Y-80125851D01*
X129474622Y-79989640D01*
X129342892Y-79797717D01*
X129248390Y-79653964D01*
X129107827Y-79431918D01*
X128982821Y-79222385D01*
X128885555Y-79046634D01*
X128828214Y-78925931D01*
X128822938Y-78911283D01*
X128795059Y-78810300D01*
X128794864Y-78726938D01*
X128829827Y-78631216D01*
X128907423Y-78493156D01*
X128941085Y-78437432D01*
X129145777Y-78173752D01*
X129416141Y-77955164D01*
X129762702Y-77774300D01*
X130031144Y-77674353D01*
X130282316Y-77572577D01*
X130575259Y-77422217D01*
X130879270Y-77239075D01*
X130888198Y-77233268D01*
X131096684Y-77095831D01*
X131244745Y-76989266D01*
X131353271Y-76891656D01*
X131443154Y-76781088D01*
X131535284Y-76635647D01*
X131650370Y-76433741D01*
X131755837Y-76234175D01*
X131859735Y-76010448D01*
X131968034Y-75747586D01*
X132086704Y-75430618D01*
X132221716Y-75044569D01*
X132316770Y-74762394D01*
X132439691Y-74402858D01*
X132569073Y-74040816D01*
X132697142Y-73696880D01*
X132816122Y-73391662D01*
X132918238Y-73145775D01*
X132968504Y-73034612D01*
X133222505Y-72500425D01*
X133941424Y-71866619D01*
X134437293Y-71453522D01*
X134915137Y-71108588D01*
X135402031Y-70814164D01*
X135925049Y-70552593D01*
X136026075Y-70507214D01*
X136317680Y-70423314D01*
X136687398Y-70394314D01*
X137133663Y-70419895D01*
G37*
G36*
X104454703Y-45623378D02*
G01*
X104710244Y-45625926D01*
X104908758Y-45633035D01*
X105070202Y-45646762D01*
X105214537Y-45669159D01*
X105361720Y-45702282D01*
X105531711Y-45748185D01*
X105643043Y-45779876D01*
X105872216Y-45846802D01*
X106040990Y-45903678D01*
X106175342Y-45964909D01*
X106301251Y-46044900D01*
X106444695Y-46158057D01*
X106631654Y-46318786D01*
X106660981Y-46344337D01*
X106843252Y-46507322D01*
X106993551Y-46654377D01*
X107128220Y-46805207D01*
X107263601Y-46979518D01*
X107416038Y-47197013D01*
X107601871Y-47477399D01*
X107606244Y-47484095D01*
X107803185Y-47794292D01*
X107989113Y-48106782D01*
X108170716Y-48434838D01*
X108354682Y-48791732D01*
X108547699Y-49190736D01*
X108756456Y-49645124D01*
X108987641Y-50168168D01*
X109160391Y-50568243D01*
X109312946Y-50927993D01*
X109432081Y-51220304D01*
X109524802Y-51465855D01*
X109598115Y-51685323D01*
X109659026Y-51899385D01*
X109714542Y-52128719D01*
X109759871Y-52337518D01*
X109870257Y-52906025D01*
X109951515Y-53433501D01*
X110005992Y-53947894D01*
X110036033Y-54477150D01*
X110043987Y-55049219D01*
X110034600Y-55609465D01*
X110021645Y-56014409D01*
X110005778Y-56355274D01*
X109984335Y-56660392D01*
X109954649Y-56958095D01*
X109914056Y-57276714D01*
X109859889Y-57644583D01*
X109817982Y-57911946D01*
X109757705Y-58286176D01*
X109706388Y-58586186D01*
X109658612Y-58833630D01*
X109608959Y-59050163D01*
X109552011Y-59257439D01*
X109482349Y-59477113D01*
X109394555Y-59730838D01*
X109290366Y-60020534D01*
X109052258Y-60657977D01*
X108825751Y-61221002D01*
X108601620Y-61729872D01*
X108370641Y-62204851D01*
X108123589Y-62666204D01*
X107943158Y-62980019D01*
X107772748Y-63278367D01*
X107611488Y-63582133D01*
X107450532Y-63909764D01*
X107281038Y-64279709D01*
X107094163Y-64710416D01*
X106955943Y-65039489D01*
X106811200Y-65385858D01*
X106672646Y-65714268D01*
X106546257Y-66010797D01*
X106438008Y-66261524D01*
X106353871Y-66452528D01*
X106299823Y-66569888D01*
X106294737Y-66580168D01*
X106099926Y-66938515D01*
X105856852Y-67341147D01*
X105583202Y-67761290D01*
X105296662Y-68172170D01*
X105014919Y-68547013D01*
X104904811Y-68684172D01*
X104385590Y-69316317D01*
X103532454Y-69839245D01*
X103234988Y-70020205D01*
X103002029Y-70157364D01*
X102816326Y-70259016D01*
X102660625Y-70333456D01*
X102517675Y-70388978D01*
X102370224Y-70433879D01*
X102213151Y-70473560D01*
X101979493Y-70525407D01*
X101775078Y-70558742D01*
X101578026Y-70573460D01*
X101366457Y-70569456D01*
X101118492Y-70546622D01*
X100812249Y-70504853D01*
X100559389Y-70465554D01*
X100288039Y-70419519D01*
X100055337Y-70372155D01*
X99836245Y-70316294D01*
X99605728Y-70244769D01*
X99338749Y-70150412D01*
X99010272Y-70026056D01*
X98970399Y-70010659D01*
X98084273Y-69668025D01*
X97161376Y-68918945D01*
X96238479Y-68169864D01*
X95665355Y-67326351D01*
X95092230Y-66482839D01*
X94089007Y-64161578D01*
X93780837Y-63445185D01*
X93511928Y-62812695D01*
X93280702Y-62260086D01*
X93085581Y-61783337D01*
X92924986Y-61378426D01*
X92797338Y-61041332D01*
X92701059Y-60768032D01*
X92634571Y-60554505D01*
X92596295Y-60396730D01*
X92586945Y-60334704D01*
X92572361Y-60224066D01*
X92544442Y-60037530D01*
X92506271Y-59794743D01*
X92460926Y-59515353D01*
X92418555Y-59260853D01*
X92377736Y-59011855D01*
X92344070Y-58785461D01*
X92317254Y-58570233D01*
X92296986Y-58354735D01*
X92282964Y-58127529D01*
X92274885Y-57877179D01*
X92272447Y-57592247D01*
X92275348Y-57261296D01*
X92283284Y-56872890D01*
X92295955Y-56415591D01*
X92313058Y-55877962D01*
X92322029Y-55609465D01*
X92373513Y-54082556D01*
X92629814Y-52943434D01*
X92886116Y-51804312D01*
X93455051Y-50786373D01*
X94023985Y-49768434D01*
X94807431Y-49007769D01*
X95590877Y-48247103D01*
X96879176Y-47471405D01*
X98167475Y-46695707D01*
X99617916Y-46281803D01*
X100034246Y-46163533D01*
X100375033Y-46068713D01*
X100657785Y-45993584D01*
X100900008Y-45934383D01*
X101119211Y-45887350D01*
X101332900Y-45848722D01*
X101558582Y-45814740D01*
X101813764Y-45781643D01*
X102110534Y-45746300D01*
X102650091Y-45689172D01*
X103137404Y-45651355D01*
X103614670Y-45630270D01*
X104122175Y-45623340D01*
X104454703Y-45623378D01*
G37*
G36*
X145656993Y-45623378D02*
G01*
X145912534Y-45625926D01*
X146111048Y-45633035D01*
X146272493Y-45646762D01*
X146416827Y-45669159D01*
X146564010Y-45702282D01*
X146734001Y-45748185D01*
X146845333Y-45779876D01*
X147074506Y-45846802D01*
X147243280Y-45903678D01*
X147377632Y-45964909D01*
X147503541Y-46044900D01*
X147646985Y-46158057D01*
X147833945Y-46318786D01*
X147863272Y-46344337D01*
X148045543Y-46507322D01*
X148195841Y-46654377D01*
X148330510Y-46805207D01*
X148465891Y-46979518D01*
X148618328Y-47197013D01*
X148804161Y-47477399D01*
X148808534Y-47484095D01*
X149005475Y-47794292D01*
X149191403Y-48106782D01*
X149373006Y-48434838D01*
X149556972Y-48791732D01*
X149749989Y-49190736D01*
X149958746Y-49645124D01*
X150189931Y-50168168D01*
X150362681Y-50568243D01*
X150515236Y-50927993D01*
X150634371Y-51220304D01*
X150727092Y-51465855D01*
X150800405Y-51685323D01*
X150861316Y-51899385D01*
X150916832Y-52128719D01*
X150962161Y-52337518D01*
X151072547Y-52906025D01*
X151153805Y-53433501D01*
X151208282Y-53947894D01*
X151238323Y-54477150D01*
X151246277Y-55049219D01*
X151236890Y-55609465D01*
X151223935Y-56014409D01*
X151208068Y-56355274D01*
X151186625Y-56660392D01*
X151156939Y-56958095D01*
X151116346Y-57276714D01*
X151062179Y-57644583D01*
X151020272Y-57911946D01*
X150959995Y-58286176D01*
X150908678Y-58586186D01*
X150860902Y-58833630D01*
X150811249Y-59050163D01*
X150754301Y-59257439D01*
X150684639Y-59477113D01*
X150596845Y-59730838D01*
X150492656Y-60020534D01*
X150254548Y-60657977D01*
X150028041Y-61221002D01*
X149803910Y-61729872D01*
X149572931Y-62204851D01*
X149325879Y-62666204D01*
X149145448Y-62980019D01*
X148975039Y-63278367D01*
X148813778Y-63582133D01*
X148652822Y-63909764D01*
X148483328Y-64279709D01*
X148296453Y-64710416D01*
X148158234Y-65039489D01*
X148013490Y-65385858D01*
X147874937Y-65714268D01*
X147748548Y-66010797D01*
X147640298Y-66261524D01*
X147556161Y-66452528D01*
X147502113Y-66569888D01*
X147497027Y-66580168D01*
X147302216Y-66938515D01*
X147059143Y-67341147D01*
X146785492Y-67761290D01*
X146498952Y-68172170D01*
X146217209Y-68547013D01*
X146107101Y-68684172D01*
X145587880Y-69316317D01*
X144734744Y-69839245D01*
X144437278Y-70020205D01*
X144204319Y-70157364D01*
X144018616Y-70259016D01*
X143862915Y-70333456D01*
X143719965Y-70388978D01*
X143572514Y-70433879D01*
X143415441Y-70473560D01*
X143181783Y-70525407D01*
X142977368Y-70558742D01*
X142780316Y-70573460D01*
X142568747Y-70569456D01*
X142320782Y-70546622D01*
X142014539Y-70504853D01*
X141761679Y-70465554D01*
X141490329Y-70419519D01*
X141257627Y-70372155D01*
X141038536Y-70316294D01*
X140808019Y-70244769D01*
X140541039Y-70150412D01*
X140212562Y-70026056D01*
X140172690Y-70010659D01*
X139286563Y-69668025D01*
X138363666Y-68918945D01*
X137440769Y-68169864D01*
X136867645Y-67326351D01*
X136294520Y-66482839D01*
X135291297Y-64161578D01*
X134983127Y-63445185D01*
X134714218Y-62812695D01*
X134482992Y-62260086D01*
X134287871Y-61783337D01*
X134127276Y-61378426D01*
X133999628Y-61041332D01*
X133903349Y-60768032D01*
X133836861Y-60554505D01*
X133798585Y-60396730D01*
X133789235Y-60334704D01*
X133774651Y-60224066D01*
X133746733Y-60037530D01*
X133708561Y-59794743D01*
X133663216Y-59515353D01*
X133620845Y-59260853D01*
X133580026Y-59011855D01*
X133546360Y-58785461D01*
X133519544Y-58570233D01*
X133499276Y-58354735D01*
X133485254Y-58127529D01*
X133477175Y-57877179D01*
X133474737Y-57592247D01*
X133477638Y-57261296D01*
X133485575Y-56872890D01*
X133498246Y-56415591D01*
X133515348Y-55877962D01*
X133524319Y-55609465D01*
X133575803Y-54082556D01*
X133832104Y-52943434D01*
X134088406Y-51804312D01*
X134657341Y-50786373D01*
X135226275Y-49768434D01*
X136009721Y-49007769D01*
X136793167Y-48247103D01*
X138081466Y-47471405D01*
X139369765Y-46695707D01*
X140820207Y-46281803D01*
X141236536Y-46163533D01*
X141577323Y-46068713D01*
X141860075Y-45993584D01*
X142102298Y-45934383D01*
X142321501Y-45887350D01*
X142535190Y-45848722D01*
X142760872Y-45814740D01*
X143016054Y-45781643D01*
X143312824Y-45746300D01*
X143852381Y-45689172D01*
X144339694Y-45651355D01*
X144816960Y-45630270D01*
X145324465Y-45623340D01*
X145656993Y-45623378D01*
G37*
G36*
X98597279Y-122912382D02*
G01*
X98835669Y-122939786D01*
X99143438Y-122982122D01*
X99226373Y-122993966D01*
X99487970Y-123033251D01*
X99706755Y-123072070D01*
X99905535Y-123116736D01*
X100107116Y-123173563D01*
X100334305Y-123248862D01*
X100609907Y-123348947D01*
X100887778Y-123453845D01*
X101822083Y-123809586D01*
X102745275Y-124558906D01*
X103668467Y-125308226D01*
X104241591Y-126151739D01*
X104814715Y-126995251D01*
X105817938Y-129316512D01*
X106126109Y-130032905D01*
X106395017Y-130665395D01*
X106626243Y-131218004D01*
X106821365Y-131694753D01*
X106981960Y-132099664D01*
X107109608Y-132436758D01*
X107205886Y-132710058D01*
X107272375Y-132923585D01*
X107310651Y-133081360D01*
X107320000Y-133143386D01*
X107334584Y-133254024D01*
X107362503Y-133440560D01*
X107400675Y-133683347D01*
X107446019Y-133962737D01*
X107488391Y-134217237D01*
X107529210Y-134466234D01*
X107562876Y-134692629D01*
X107589692Y-134907856D01*
X107609960Y-135123355D01*
X107623982Y-135350560D01*
X107632061Y-135600911D01*
X107634499Y-135885843D01*
X107631598Y-136216794D01*
X107623661Y-136605200D01*
X107610990Y-137062499D01*
X107593887Y-137600128D01*
X107584917Y-137868625D01*
X107533433Y-139395534D01*
X107277131Y-140534656D01*
X107020829Y-141673778D01*
X106451895Y-142691717D01*
X105882960Y-143709656D01*
X105099514Y-144470321D01*
X104316068Y-145230987D01*
X103027769Y-146006685D01*
X101739471Y-146782383D01*
X100289029Y-147196287D01*
X99872700Y-147314557D01*
X99531913Y-147409376D01*
X99249161Y-147484506D01*
X99006937Y-147543707D01*
X98787734Y-147590740D01*
X98574045Y-147629368D01*
X98348363Y-147663349D01*
X98093181Y-147696447D01*
X97796412Y-147731790D01*
X97337974Y-147781675D01*
X96937184Y-147816113D01*
X96556348Y-147837235D01*
X96157774Y-147847171D01*
X95736297Y-147848231D01*
X95394833Y-147846042D01*
X95131771Y-147842105D01*
X94928570Y-147834489D01*
X94766684Y-147821260D01*
X94627572Y-147800486D01*
X94492690Y-147770235D01*
X94343494Y-147728572D01*
X94213970Y-147689564D01*
X93994384Y-147620317D01*
X93829212Y-147558022D01*
X93690959Y-147487147D01*
X93552129Y-147392159D01*
X93385228Y-147257526D01*
X93258433Y-147149763D01*
X93091135Y-147003017D01*
X92952246Y-146870123D01*
X92827355Y-146733529D01*
X92702047Y-146575684D01*
X92561911Y-146379035D01*
X92392535Y-146126032D01*
X92293567Y-145974738D01*
X92105844Y-145680408D01*
X91933402Y-145395288D01*
X91769418Y-145105861D01*
X91607071Y-144798612D01*
X91439541Y-144460024D01*
X91260005Y-144076580D01*
X91061642Y-143634766D01*
X90837631Y-143121064D01*
X90746786Y-142909846D01*
X90594217Y-142550262D01*
X90475076Y-142258124D01*
X90382360Y-142012770D01*
X90309064Y-141793533D01*
X90248183Y-141579749D01*
X90192713Y-141350754D01*
X90147074Y-141140572D01*
X90036688Y-140572065D01*
X89955430Y-140044589D01*
X89900954Y-139530196D01*
X89870912Y-139000939D01*
X89862958Y-138428871D01*
X89872345Y-137868625D01*
X89885301Y-137463681D01*
X89901167Y-137122816D01*
X89922610Y-136817698D01*
X89952296Y-136519995D01*
X89992890Y-136201375D01*
X90047056Y-135833507D01*
X90088964Y-135566144D01*
X90149241Y-135191914D01*
X90200558Y-134891904D01*
X90248334Y-134644460D01*
X90297986Y-134427927D01*
X90354934Y-134220651D01*
X90424596Y-134000977D01*
X90512390Y-133747252D01*
X90616580Y-133457556D01*
X90854687Y-132820113D01*
X91081194Y-132257088D01*
X91305325Y-131748218D01*
X91536304Y-131273239D01*
X91783356Y-130811886D01*
X91963788Y-130498071D01*
X92134197Y-130199723D01*
X92295458Y-129895957D01*
X92456413Y-129568326D01*
X92625907Y-129198381D01*
X92812782Y-128767674D01*
X92951002Y-128438601D01*
X93095745Y-128092232D01*
X93234299Y-127763822D01*
X93360688Y-127467293D01*
X93468938Y-127216566D01*
X93553074Y-127025562D01*
X93607122Y-126908202D01*
X93612209Y-126897922D01*
X93807019Y-126539574D01*
X94050093Y-126136943D01*
X94323743Y-125716800D01*
X94610283Y-125305920D01*
X94892026Y-124931076D01*
X95002134Y-124793917D01*
X95521355Y-124161773D01*
X96374492Y-123638845D01*
X96671957Y-123457885D01*
X96904916Y-123320726D01*
X97090620Y-123219074D01*
X97246320Y-123144634D01*
X97389270Y-123089112D01*
X97536722Y-123044211D01*
X97693795Y-123004530D01*
X97907668Y-122955051D01*
X98083462Y-122921245D01*
X98242667Y-122902963D01*
X98406775Y-122900059D01*
X98597279Y-122912382D01*
G37*
G36*
X139799569Y-122912382D02*
G01*
X140037959Y-122939786D01*
X140345729Y-122982122D01*
X140428664Y-122993966D01*
X140690260Y-123033251D01*
X140909045Y-123072070D01*
X141107825Y-123116736D01*
X141309407Y-123173563D01*
X141536595Y-123248862D01*
X141812197Y-123348947D01*
X142090068Y-123453845D01*
X143024373Y-123809586D01*
X143947565Y-124558906D01*
X144870757Y-125308226D01*
X145443881Y-126151739D01*
X146017005Y-126995251D01*
X147020228Y-129316512D01*
X147328399Y-130032905D01*
X147597307Y-130665395D01*
X147828533Y-131218004D01*
X148023655Y-131694753D01*
X148184250Y-132099664D01*
X148311898Y-132436758D01*
X148408176Y-132710058D01*
X148474665Y-132923585D01*
X148512941Y-133081360D01*
X148522290Y-133143386D01*
X148536875Y-133254024D01*
X148564793Y-133440560D01*
X148602965Y-133683347D01*
X148648309Y-133962737D01*
X148690681Y-134217237D01*
X148731500Y-134466234D01*
X148765166Y-134692629D01*
X148791982Y-134907856D01*
X148812250Y-135123355D01*
X148826272Y-135350560D01*
X148834351Y-135600911D01*
X148836789Y-135885843D01*
X148833888Y-136216794D01*
X148825951Y-136605200D01*
X148813280Y-137062499D01*
X148796178Y-137600128D01*
X148787207Y-137868625D01*
X148735723Y-139395534D01*
X148479421Y-140534656D01*
X148223119Y-141673778D01*
X147654185Y-142691717D01*
X147085250Y-143709656D01*
X146301804Y-144470321D01*
X145518358Y-145230987D01*
X144230059Y-146006685D01*
X142941761Y-146782383D01*
X141491319Y-147196287D01*
X141074990Y-147314557D01*
X140734203Y-147409376D01*
X140451451Y-147484506D01*
X140209227Y-147543707D01*
X139990024Y-147590740D01*
X139776335Y-147629368D01*
X139550653Y-147663349D01*
X139295471Y-147696447D01*
X138998702Y-147731790D01*
X138540264Y-147781675D01*
X138139474Y-147816113D01*
X137758638Y-147837235D01*
X137360064Y-147847171D01*
X136938587Y-147848231D01*
X136597123Y-147846042D01*
X136334061Y-147842105D01*
X136130860Y-147834489D01*
X135968974Y-147821260D01*
X135829862Y-147800486D01*
X135694980Y-147770235D01*
X135545784Y-147728572D01*
X135416260Y-147689564D01*
X135196674Y-147620317D01*
X135031502Y-147558022D01*
X134893249Y-147487147D01*
X134754420Y-147392159D01*
X134587518Y-147257526D01*
X134460723Y-147149763D01*
X134293425Y-147003017D01*
X134154536Y-146870123D01*
X134029645Y-146733529D01*
X133904337Y-146575684D01*
X133764201Y-146379035D01*
X133594825Y-146126032D01*
X133495857Y-145974738D01*
X133308134Y-145680408D01*
X133135692Y-145395288D01*
X132971708Y-145105861D01*
X132809361Y-144798612D01*
X132641831Y-144460024D01*
X132462295Y-144076580D01*
X132263932Y-143634766D01*
X132039922Y-143121064D01*
X131949076Y-142909846D01*
X131796507Y-142550262D01*
X131677366Y-142258124D01*
X131584650Y-142012770D01*
X131511354Y-141793533D01*
X131450473Y-141579749D01*
X131395003Y-141350754D01*
X131349365Y-141140572D01*
X131238978Y-140572065D01*
X131157720Y-140044589D01*
X131103244Y-139530196D01*
X131073202Y-139000939D01*
X131065248Y-138428871D01*
X131074636Y-137868625D01*
X131087591Y-137463681D01*
X131103457Y-137122816D01*
X131124900Y-136817698D01*
X131154586Y-136519995D01*
X131195180Y-136201375D01*
X131249347Y-135833507D01*
X131291254Y-135566144D01*
X131351531Y-135191914D01*
X131402848Y-134891904D01*
X131450624Y-134644460D01*
X131500276Y-134427927D01*
X131557225Y-134220651D01*
X131626886Y-134000977D01*
X131714681Y-133747252D01*
X131818870Y-133457556D01*
X132056978Y-132820113D01*
X132283484Y-132257088D01*
X132507615Y-131748218D01*
X132738594Y-131273239D01*
X132985646Y-130811886D01*
X133166078Y-130498071D01*
X133336487Y-130199723D01*
X133497748Y-129895957D01*
X133658703Y-129568326D01*
X133828197Y-129198381D01*
X134015073Y-128767674D01*
X134153292Y-128438601D01*
X134298035Y-128092232D01*
X134436589Y-127763822D01*
X134562978Y-127467293D01*
X134671228Y-127216566D01*
X134755364Y-127025562D01*
X134809412Y-126908202D01*
X134814499Y-126897922D01*
X135009309Y-126539574D01*
X135252383Y-126136943D01*
X135526033Y-125716800D01*
X135812573Y-125305920D01*
X136094316Y-124931076D01*
X136204424Y-124793917D01*
X136723645Y-124161773D01*
X137576782Y-123638845D01*
X137874248Y-123457885D01*
X138107206Y-123320726D01*
X138292910Y-123219074D01*
X138448610Y-123144634D01*
X138591560Y-123089112D01*
X138739012Y-123044211D01*
X138896085Y-123004530D01*
X139109959Y-122955051D01*
X139285752Y-122921245D01*
X139444957Y-122902963D01*
X139609066Y-122900059D01*
X139799569Y-122912382D01*
G37*
G04 #@! TD*
D11*
G04 #@! TO.C,REF\u002A\u002A*
X115780000Y-101490000D03*
G04 #@! TD*
G04 #@! TO.C,REF\u002A\u002A*
X156890000Y-101490000D03*
G04 #@! TD*
G04 #@! TO.C,REF\u002A\u002A*
X125290000Y-92010000D03*
G04 #@! TD*
G04 #@! TO.C,REF\u002A\u002A*
X84180000Y-92010000D03*
G04 #@! TD*
D12*
G04 #@! TO.C,D31*
X115600000Y-113785000D03*
D13*
X115600000Y-116325000D03*
G04 #@! TD*
D14*
G04 #@! TO.C,R31*
X115600000Y-106660000D03*
X107980000Y-106660000D03*
G04 #@! TD*
G04 #@! TO.C,R22*
X157180000Y-86800000D03*
X149560000Y-86800000D03*
G04 #@! TD*
D15*
G04 #@! TO.C,JSAO2*
X138575000Y-84275000D03*
D16*
X138575000Y-86815000D03*
D17*
X141115000Y-84275000D03*
X141115000Y-86815000D03*
D16*
X143655000Y-84275000D03*
X143655000Y-86815000D03*
G04 #@! TD*
D12*
G04 #@! TO.C,D11*
X84390000Y-79675000D03*
D13*
X84390000Y-77135000D03*
G04 #@! TD*
D14*
G04 #@! TO.C,R12*
X116100000Y-86800000D03*
X108480000Y-86800000D03*
G04 #@! TD*
D18*
G04 #@! TO.C,D42*
X128900000Y-129325000D03*
D13*
X128242600Y-131778452D03*
G04 #@! TD*
D12*
G04 #@! TO.C,D21*
X125470000Y-79675000D03*
D13*
X125470000Y-77135000D03*
G04 #@! TD*
D19*
G04 #@! TO.C,D22*
X153280000Y-64200000D03*
D13*
X153937400Y-61746548D03*
G04 #@! TD*
D14*
G04 #@! TO.C,R21*
X125470000Y-86800000D03*
X133090000Y-86800000D03*
G04 #@! TD*
G04 #@! TO.C,R42*
X124970000Y-106660000D03*
X132590000Y-106660000D03*
G04 #@! TD*
D15*
G04 #@! TO.C,JSAO4*
X143600000Y-109225000D03*
D16*
X143600000Y-106685000D03*
D17*
X141060000Y-109225000D03*
X141060000Y-106685000D03*
D16*
X138520000Y-109225000D03*
X138520000Y-106685000D03*
G04 #@! TD*
D12*
G04 #@! TO.C,D41*
X156680000Y-113785000D03*
D13*
X156680000Y-116325000D03*
G04 #@! TD*
D20*
G04 #@! TO.C,sao_edgecuts_02*
X86270000Y-96000000D03*
X86270000Y-97500000D03*
X87020000Y-96000000D03*
X87020000Y-97500000D03*
X87770000Y-96000000D03*
X87770000Y-97500000D03*
X112170000Y-96000000D03*
X112170000Y-97500000D03*
X112920000Y-96000000D03*
X112920000Y-97500000D03*
X113670000Y-96000000D03*
X113670000Y-97500000D03*
X119760000Y-88730000D03*
X119760000Y-89480000D03*
X119760000Y-90230000D03*
X119810000Y-103270000D03*
X119810000Y-104020000D03*
X119810000Y-104770000D03*
X121260000Y-88730000D03*
X121260000Y-89480000D03*
X121260000Y-90230000D03*
X121310000Y-103270000D03*
X121310000Y-104020000D03*
X121310000Y-104770000D03*
X127350000Y-96000000D03*
X127350000Y-97500000D03*
X128100000Y-96000000D03*
X128100000Y-97500000D03*
X128850000Y-96000000D03*
X128850000Y-97500000D03*
X153250000Y-96000000D03*
X153250000Y-97500000D03*
X154000000Y-96000000D03*
X154000000Y-97500000D03*
X154750000Y-96000000D03*
X154750000Y-97500000D03*
G04 #@! TD*
D14*
G04 #@! TO.C,R32*
X83890000Y-106660000D03*
X91510000Y-106660000D03*
G04 #@! TD*
D15*
G04 #@! TO.C,JSAO3*
X102500000Y-109225000D03*
D16*
X102500000Y-106685000D03*
D17*
X99960000Y-109225000D03*
X99960000Y-106685000D03*
D16*
X97420000Y-109225000D03*
X97420000Y-106685000D03*
G04 #@! TD*
D18*
G04 #@! TO.C,D32*
X87825000Y-129325000D03*
D13*
X87167598Y-131778453D03*
G04 #@! TD*
D14*
G04 #@! TO.C,R41*
X156680000Y-106660000D03*
X149060000Y-106660000D03*
G04 #@! TD*
G04 #@! TO.C,R11*
X84390000Y-86800000D03*
X92010000Y-86800000D03*
G04 #@! TD*
D19*
G04 #@! TO.C,D12*
X112200000Y-64200000D03*
D13*
X112857402Y-61746548D03*
G04 #@! TD*
D15*
G04 #@! TO.C,JSAO1*
X97495000Y-84275000D03*
D16*
X97495000Y-86815000D03*
D17*
X100035000Y-84275000D03*
X100035000Y-86815000D03*
D16*
X102575000Y-84275000D03*
X102575000Y-86815000D03*
G04 #@! TD*
M02*
