G04 #@! TF.GenerationSoftware,KiCad,Pcbnew,9.0.9*
G04 #@! TF.CreationDate,2026-07-03T09:11:59-05:00*
G04 #@! TF.ProjectId,psycho_sao,70737963-686f-45f7-9361-6f2e6b696361,1*
G04 #@! TF.SameCoordinates,Original*
G04 #@! TF.FileFunction,Profile,NP*
%FSLAX46Y46*%
G04 Gerber Fmt 4.6, Leading zero omitted, Abs format (unit mm)*
G04 Created by KiCad (PCBNEW 9.0.9) date 2026-07-03 09:11:59*
%MOMM*%
%LPD*%
G01*
G04 APERTURE LIST*
G04 #@! TA.AperFunction,Profile*
%ADD10C,0.120000*%
G04 #@! TD*
G04 APERTURE END LIST*
D10*
G04 #@! TO.C,sao_edgecuts_02*
X80430000Y-57750000D02*
X80480000Y-56910000D01*
X80430000Y-87480000D02*
X80430000Y-57750000D01*
X80430000Y-91480000D02*
X80430000Y-87480000D01*
X80430000Y-91770000D02*
X80430000Y-91480000D01*
X80480000Y-56910000D02*
X80550000Y-56040000D01*
X80480000Y-101730000D02*
X80480000Y-102020000D01*
X80480000Y-102020000D02*
X80480000Y-106020000D01*
X80480000Y-106020000D02*
X80480000Y-135750000D01*
X80480000Y-135750000D02*
X80530000Y-136590000D01*
X80530000Y-136590000D02*
X80600000Y-137460000D01*
X80550000Y-56040000D02*
X80640000Y-55210000D01*
X80600000Y-137460000D02*
X80690000Y-138290000D01*
X80630000Y-92370000D02*
X80430000Y-91770000D01*
X80640000Y-55210000D02*
X80770000Y-54340000D01*
X80680000Y-101130000D02*
X80480000Y-101730000D01*
X80690000Y-138290000D02*
X80820000Y-139160000D01*
X80770000Y-54340000D02*
X80970000Y-53360000D01*
X80820000Y-139160000D02*
X81020000Y-140140000D01*
X80830000Y-92870000D02*
X80630000Y-92370000D01*
X80880000Y-100630000D02*
X80680000Y-101130000D01*
X80970000Y-53360000D02*
X81170000Y-52560000D01*
X81020000Y-140140000D02*
X81220000Y-140940000D01*
X81170000Y-52560000D02*
X81390000Y-51810000D01*
X81220000Y-140940000D02*
X81440000Y-141690000D01*
X81230000Y-93470000D02*
X80830000Y-92870000D01*
X81280000Y-100030000D02*
X80880000Y-100630000D01*
X81390000Y-51810000D02*
X81700000Y-50910000D01*
X81420000Y-93750000D02*
X81230000Y-93470000D01*
X81440000Y-141690000D02*
X81750000Y-142590000D01*
X81470000Y-99750000D02*
X81280000Y-100030000D01*
X81700000Y-50910000D02*
X82020000Y-50110000D01*
X81720000Y-94050000D02*
X81420000Y-93750000D01*
X81750000Y-142590000D02*
X82070000Y-143390000D01*
X81770000Y-99450000D02*
X81470000Y-99750000D01*
X82020000Y-50110000D02*
X82300000Y-49480000D01*
X82020000Y-94350000D02*
X81720000Y-94050000D01*
X82070000Y-99150000D02*
X81770000Y-99450000D01*
X82070000Y-143390000D02*
X82350000Y-144020000D01*
X82300000Y-49480000D02*
X82680000Y-48720000D01*
X82350000Y-144020000D02*
X82730000Y-144780000D01*
X82420000Y-94650000D02*
X82020000Y-94350000D01*
X82470000Y-98850000D02*
X82070000Y-99150000D01*
X82680000Y-48720000D02*
X83090000Y-47950000D01*
X82730000Y-144780000D02*
X83140000Y-145550000D01*
X82920000Y-94950000D02*
X82420000Y-94650000D01*
X82970000Y-98550000D02*
X82470000Y-98850000D01*
X83090000Y-47950000D02*
X83550000Y-47190000D01*
X83140000Y-145550000D02*
X83600000Y-146310000D01*
X83550000Y-47190000D02*
X84340000Y-46060000D01*
X83600000Y-146310000D02*
X84390000Y-147440000D01*
X83620000Y-95250000D02*
X82920000Y-94950000D01*
X83670000Y-98250000D02*
X82970000Y-98550000D01*
X84340000Y-46060000D02*
X84910000Y-45320000D01*
X84390000Y-147440000D02*
X84960000Y-148180000D01*
X84910000Y-45320000D02*
X85590000Y-44540000D01*
X84960000Y-148180000D02*
X85640000Y-148960000D01*
X85020000Y-95750000D02*
X83620000Y-95250000D01*
X85020000Y-97750000D02*
X83670000Y-98250000D01*
X85590000Y-44540000D02*
X86180000Y-43930000D01*
X85640000Y-148960000D02*
X86230000Y-149570000D01*
X86180000Y-43930000D02*
X86940000Y-43210000D01*
X86230000Y-149570000D02*
X86990000Y-150290000D01*
X86940000Y-43210000D02*
X87730000Y-42540000D01*
X86990000Y-150290000D02*
X87780000Y-150960000D01*
X87730000Y-42540000D02*
X88510000Y-41940000D01*
X87780000Y-150960000D02*
X88560000Y-151560000D01*
X88510000Y-41940000D02*
X89460000Y-41280000D01*
X88560000Y-151560000D02*
X89510000Y-152220000D01*
X89020000Y-95750000D02*
X110920000Y-95750000D01*
X89460000Y-41280000D02*
X90550000Y-40640000D01*
X89510000Y-152220000D02*
X90600000Y-152860000D01*
X90550000Y-40640000D02*
X91440000Y-40180000D01*
X90600000Y-152860000D02*
X91490000Y-153320000D01*
X91440000Y-40180000D02*
X92500000Y-39700000D01*
X91490000Y-153320000D02*
X92550000Y-153800000D01*
X92500000Y-39700000D02*
X93530000Y-39300000D01*
X92550000Y-153800000D02*
X93580000Y-154200000D01*
X93530000Y-39300000D02*
X94790000Y-38910000D01*
X93580000Y-154200000D02*
X94840000Y-154590000D01*
X94790000Y-38910000D02*
X96000000Y-38620000D01*
X94840000Y-154590000D02*
X96050000Y-154880000D01*
X96000000Y-38620000D02*
X97360000Y-38380000D01*
X96050000Y-154880000D02*
X97410000Y-155120000D01*
X97360000Y-38380000D02*
X98480000Y-38270000D01*
X97410000Y-155120000D02*
X98530000Y-155230000D01*
X98480000Y-38270000D02*
X99150000Y-38220000D01*
X98530000Y-155230000D02*
X99200000Y-155280000D01*
X99150000Y-38220000D02*
X99970000Y-38220000D01*
X99200000Y-155280000D02*
X100020000Y-155280000D01*
X100790000Y-38220000D02*
X99970000Y-38220000D01*
X100840000Y-155280000D02*
X100020000Y-155280000D01*
X101460000Y-38270000D02*
X100790000Y-38220000D01*
X101510000Y-155230000D02*
X100840000Y-155280000D01*
X102580000Y-38380000D02*
X101460000Y-38270000D01*
X102630000Y-155120000D02*
X101510000Y-155230000D01*
X103940000Y-38620000D02*
X102580000Y-38380000D01*
X103990000Y-154880000D02*
X102630000Y-155120000D01*
X105150000Y-38910000D02*
X103940000Y-38620000D01*
X105200000Y-154590000D02*
X103990000Y-154880000D01*
X106410000Y-39300000D02*
X105150000Y-38910000D01*
X106460000Y-154200000D02*
X105200000Y-154590000D01*
X107440000Y-39700000D02*
X106410000Y-39300000D01*
X107490000Y-153800000D02*
X106460000Y-154200000D01*
X108500000Y-40180000D02*
X107440000Y-39700000D01*
X108550000Y-153320000D02*
X107490000Y-153800000D01*
X109390000Y-40640000D02*
X108500000Y-40180000D01*
X109440000Y-152860000D02*
X108550000Y-153320000D01*
X110480000Y-41280000D02*
X109390000Y-40640000D01*
X110530000Y-152220000D02*
X109440000Y-152860000D01*
X110920000Y-97750000D02*
X89020000Y-97750000D01*
X111430000Y-41940000D02*
X110480000Y-41280000D01*
X111480000Y-151560000D02*
X110530000Y-152220000D01*
X112210000Y-42540000D02*
X111430000Y-41940000D01*
X112260000Y-150960000D02*
X111480000Y-151560000D01*
X113000000Y-43210000D02*
X112210000Y-42540000D01*
X113050000Y-150290000D02*
X112260000Y-150960000D01*
X113760000Y-43930000D02*
X113000000Y-43210000D01*
X113810000Y-149570000D02*
X113050000Y-150290000D01*
X114350000Y-44540000D02*
X113760000Y-43930000D01*
X114400000Y-148960000D02*
X113810000Y-149570000D01*
X114920000Y-95750000D02*
X116320000Y-95250000D01*
X114920000Y-97750000D02*
X116370000Y-98250000D01*
X115030000Y-45320000D02*
X114350000Y-44540000D01*
X115080000Y-148180000D02*
X114400000Y-148960000D01*
X115600000Y-46060000D02*
X115030000Y-45320000D01*
X115650000Y-147440000D02*
X115080000Y-148180000D01*
X116320000Y-95250000D02*
X117020000Y-94950000D01*
X116370000Y-98250000D02*
X117070000Y-98550000D01*
X116390000Y-47190000D02*
X115600000Y-46060000D01*
X116440000Y-146310000D02*
X115650000Y-147440000D01*
X116850000Y-47950000D02*
X116390000Y-47190000D01*
X116900000Y-145550000D02*
X116440000Y-146310000D01*
X117020000Y-94950000D02*
X117520000Y-94650000D01*
X117070000Y-98550000D02*
X117570000Y-98850000D01*
X117260000Y-48720000D02*
X116850000Y-47950000D01*
X117310000Y-144780000D02*
X116900000Y-145550000D01*
X117520000Y-94650000D02*
X117920000Y-94350000D01*
X117570000Y-98850000D02*
X117970000Y-99150000D01*
X117640000Y-49480000D02*
X117260000Y-48720000D01*
X117690000Y-144020000D02*
X117310000Y-144780000D01*
X117920000Y-50110000D02*
X117640000Y-49480000D01*
X117920000Y-94350000D02*
X118220000Y-94050000D01*
X117970000Y-99150000D02*
X118270000Y-99450000D01*
X117970000Y-143390000D02*
X117690000Y-144020000D01*
X118220000Y-94050000D02*
X118520000Y-93750000D01*
X118240000Y-50910000D02*
X117920000Y-50110000D01*
X118270000Y-99450000D02*
X118570000Y-99750000D01*
X118290000Y-142590000D02*
X117970000Y-143390000D01*
X118520000Y-93750000D02*
X118710000Y-93470000D01*
X118550000Y-51810000D02*
X118240000Y-50910000D01*
X118570000Y-99750000D02*
X118760000Y-100030000D01*
X118600000Y-141690000D02*
X118290000Y-142590000D01*
X118710000Y-93470000D02*
X119110000Y-92870000D01*
X118760000Y-100030000D02*
X119160000Y-100630000D01*
X118770000Y-52560000D02*
X118550000Y-51810000D01*
X118820000Y-140940000D02*
X118600000Y-141690000D01*
X118970000Y-53360000D02*
X118770000Y-52560000D01*
X119020000Y-140140000D02*
X118820000Y-140940000D01*
X119110000Y-92870000D02*
X119310000Y-92370000D01*
X119160000Y-100630000D02*
X119360000Y-101130000D01*
X119170000Y-54340000D02*
X118970000Y-53360000D01*
X119220000Y-139160000D02*
X119020000Y-140140000D01*
X119300000Y-55210000D02*
X119170000Y-54340000D01*
X119310000Y-92370000D02*
X119510000Y-91770000D01*
X119350000Y-138290000D02*
X119220000Y-139160000D01*
X119360000Y-101130000D02*
X119560000Y-101730000D01*
X119390000Y-56040000D02*
X119300000Y-55210000D01*
X119440000Y-137460000D02*
X119350000Y-138290000D01*
X119460000Y-56910000D02*
X119390000Y-56040000D01*
X119510000Y-57750000D02*
X119460000Y-56910000D01*
X119510000Y-87480000D02*
X119510000Y-57750000D01*
X119510000Y-91770000D02*
X119510000Y-91480000D01*
X119510000Y-136590000D02*
X119440000Y-137460000D01*
X119560000Y-101730000D02*
X119560000Y-102020000D01*
X119560000Y-106020000D02*
X119560000Y-135750000D01*
X119560000Y-135750000D02*
X119510000Y-136590000D01*
X121510000Y-57750000D02*
X121560000Y-56910000D01*
X121510000Y-87480000D02*
X121510000Y-57750000D01*
X121510000Y-91770000D02*
X121510000Y-91480000D01*
X121560000Y-56910000D02*
X121630000Y-56040000D01*
X121560000Y-101730000D02*
X121560000Y-102020000D01*
X121560000Y-106020000D02*
X121560000Y-135750000D01*
X121560000Y-135750000D02*
X121610000Y-136590000D01*
X121610000Y-136590000D02*
X121680000Y-137460000D01*
X121630000Y-56040000D02*
X121720000Y-55210000D01*
X121680000Y-137460000D02*
X121770000Y-138290000D01*
X121710000Y-92370000D02*
X121510000Y-91770000D01*
X121720000Y-55210000D02*
X121850000Y-54340000D01*
X121760000Y-101130000D02*
X121560000Y-101730000D01*
X121770000Y-138290000D02*
X121900000Y-139160000D01*
X121850000Y-54340000D02*
X122050000Y-53360000D01*
X121900000Y-139160000D02*
X122100000Y-140140000D01*
X121910000Y-92870000D02*
X121710000Y-92370000D01*
X121960000Y-100630000D02*
X121760000Y-101130000D01*
X122050000Y-53360000D02*
X122250000Y-52560000D01*
X122100000Y-140140000D02*
X122300000Y-140940000D01*
X122250000Y-52560000D02*
X122470000Y-51810000D01*
X122300000Y-140940000D02*
X122520000Y-141690000D01*
X122310000Y-93470000D02*
X121910000Y-92870000D01*
X122360000Y-100030000D02*
X121960000Y-100630000D01*
X122470000Y-51810000D02*
X122780000Y-50910000D01*
X122500000Y-93750000D02*
X122310000Y-93470000D01*
X122520000Y-141690000D02*
X122830000Y-142590000D01*
X122550000Y-99750000D02*
X122360000Y-100030000D01*
X122780000Y-50910000D02*
X123100000Y-50110000D01*
X122800000Y-94050000D02*
X122500000Y-93750000D01*
X122830000Y-142590000D02*
X123150000Y-143390000D01*
X122850000Y-99450000D02*
X122550000Y-99750000D01*
X123100000Y-50110000D02*
X123380000Y-49480000D01*
X123100000Y-94350000D02*
X122800000Y-94050000D01*
X123150000Y-99150000D02*
X122850000Y-99450000D01*
X123150000Y-143390000D02*
X123430000Y-144020000D01*
X123380000Y-49480000D02*
X123760000Y-48720000D01*
X123430000Y-144020000D02*
X123810000Y-144780000D01*
X123500000Y-94650000D02*
X123100000Y-94350000D01*
X123550000Y-98850000D02*
X123150000Y-99150000D01*
X123760000Y-48720000D02*
X124170000Y-47950000D01*
X123810000Y-144780000D02*
X124220000Y-145550000D01*
X124000000Y-94950000D02*
X123500000Y-94650000D01*
X124050000Y-98550000D02*
X123550000Y-98850000D01*
X124170000Y-47950000D02*
X124630000Y-47190000D01*
X124220000Y-145550000D02*
X124680000Y-146310000D01*
X124630000Y-47190000D02*
X125420000Y-46060000D01*
X124680000Y-146310000D02*
X125470000Y-147440000D01*
X124700000Y-95250000D02*
X124000000Y-94950000D01*
X124750000Y-98250000D02*
X124050000Y-98550000D01*
X125420000Y-46060000D02*
X125990000Y-45320000D01*
X125470000Y-147440000D02*
X126040000Y-148180000D01*
X125990000Y-45320000D02*
X126670000Y-44540000D01*
X126040000Y-148180000D02*
X126720000Y-148960000D01*
X126100000Y-95750000D02*
X124700000Y-95250000D01*
X126100000Y-97750000D02*
X124750000Y-98250000D01*
X126670000Y-44540000D02*
X127260000Y-43930000D01*
X126720000Y-148960000D02*
X127310000Y-149570000D01*
X127260000Y-43930000D02*
X128020000Y-43210000D01*
X127310000Y-149570000D02*
X128070000Y-150290000D01*
X128020000Y-43210000D02*
X128810000Y-42540000D01*
X128070000Y-150290000D02*
X128860000Y-150960000D01*
X128810000Y-42540000D02*
X129590000Y-41940000D01*
X128860000Y-150960000D02*
X129640000Y-151560000D01*
X129590000Y-41940000D02*
X130540000Y-41280000D01*
X129640000Y-151560000D02*
X130590000Y-152220000D01*
X130100000Y-95750000D02*
X152000000Y-95750000D01*
X130540000Y-41280000D02*
X131630000Y-40640000D01*
X130590000Y-152220000D02*
X131680000Y-152860000D01*
X131630000Y-40640000D02*
X132520000Y-40180000D01*
X131680000Y-152860000D02*
X132570000Y-153320000D01*
X132520000Y-40180000D02*
X133580000Y-39700000D01*
X132570000Y-153320000D02*
X133630000Y-153800000D01*
X133580000Y-39700000D02*
X134610000Y-39300000D01*
X133630000Y-153800000D02*
X134660000Y-154200000D01*
X134610000Y-39300000D02*
X135870000Y-38910000D01*
X134660000Y-154200000D02*
X135920000Y-154590000D01*
X135870000Y-38910000D02*
X137080000Y-38620000D01*
X135920000Y-154590000D02*
X137130000Y-154880000D01*
X137080000Y-38620000D02*
X138440000Y-38380000D01*
X137130000Y-154880000D02*
X138490000Y-155120000D01*
X138440000Y-38380000D02*
X139560000Y-38270000D01*
X138490000Y-155120000D02*
X139610000Y-155230000D01*
X139560000Y-38270000D02*
X140230000Y-38220000D01*
X139610000Y-155230000D02*
X140280000Y-155280000D01*
X140230000Y-38220000D02*
X141050000Y-38220000D01*
X140280000Y-155280000D02*
X141100000Y-155280000D01*
X141870000Y-38220000D02*
X141050000Y-38220000D01*
X141920000Y-155280000D02*
X141100000Y-155280000D01*
X142540000Y-38270000D02*
X141870000Y-38220000D01*
X142590000Y-155230000D02*
X141920000Y-155280000D01*
X143660000Y-38380000D02*
X142540000Y-38270000D01*
X143710000Y-155120000D02*
X142590000Y-155230000D01*
X145020000Y-38620000D02*
X143660000Y-38380000D01*
X145070000Y-154880000D02*
X143710000Y-155120000D01*
X146230000Y-38910000D02*
X145020000Y-38620000D01*
X146280000Y-154590000D02*
X145070000Y-154880000D01*
X147490000Y-39300000D02*
X146230000Y-38910000D01*
X147540000Y-154200000D02*
X146280000Y-154590000D01*
X148520000Y-39700000D02*
X147490000Y-39300000D01*
X148570000Y-153800000D02*
X147540000Y-154200000D01*
X149580000Y-40180000D02*
X148520000Y-39700000D01*
X149630000Y-153320000D02*
X148570000Y-153800000D01*
X150470000Y-40640000D02*
X149580000Y-40180000D01*
X150520000Y-152860000D02*
X149630000Y-153320000D01*
X151560000Y-41280000D02*
X150470000Y-40640000D01*
X151610000Y-152220000D02*
X150520000Y-152860000D01*
X152000000Y-97750000D02*
X130100000Y-97750000D01*
X152510000Y-41940000D02*
X151560000Y-41280000D01*
X152560000Y-151560000D02*
X151610000Y-152220000D01*
X153290000Y-42540000D02*
X152510000Y-41940000D01*
X153340000Y-150960000D02*
X152560000Y-151560000D01*
X154080000Y-43210000D02*
X153290000Y-42540000D01*
X154130000Y-150290000D02*
X153340000Y-150960000D01*
X154840000Y-43930000D02*
X154080000Y-43210000D01*
X154890000Y-149570000D02*
X154130000Y-150290000D01*
X155430000Y-44540000D02*
X154840000Y-43930000D01*
X155480000Y-148960000D02*
X154890000Y-149570000D01*
X156000000Y-95750000D02*
X157400000Y-95250000D01*
X156000000Y-97750000D02*
X157450000Y-98250000D01*
X156110000Y-45320000D02*
X155430000Y-44540000D01*
X156160000Y-148180000D02*
X155480000Y-148960000D01*
X156680000Y-46060000D02*
X156110000Y-45320000D01*
X156730000Y-147440000D02*
X156160000Y-148180000D01*
X157400000Y-95250000D02*
X158100000Y-94950000D01*
X157450000Y-98250000D02*
X158150000Y-98550000D01*
X157470000Y-47190000D02*
X156680000Y-46060000D01*
X157520000Y-146310000D02*
X156730000Y-147440000D01*
X157930000Y-47950000D02*
X157470000Y-47190000D01*
X157980000Y-145550000D02*
X157520000Y-146310000D01*
X158100000Y-94950000D02*
X158600000Y-94650000D01*
X158150000Y-98550000D02*
X158650000Y-98850000D01*
X158340000Y-48720000D02*
X157930000Y-47950000D01*
X158390000Y-144780000D02*
X157980000Y-145550000D01*
X158600000Y-94650000D02*
X159000000Y-94350000D01*
X158650000Y-98850000D02*
X159050000Y-99150000D01*
X158720000Y-49480000D02*
X158340000Y-48720000D01*
X158770000Y-144020000D02*
X158390000Y-144780000D01*
X159000000Y-50110000D02*
X158720000Y-49480000D01*
X159000000Y-94350000D02*
X159300000Y-94050000D01*
X159050000Y-99150000D02*
X159350000Y-99450000D01*
X159050000Y-143390000D02*
X158770000Y-144020000D01*
X159300000Y-94050000D02*
X159600000Y-93750000D01*
X159320000Y-50910000D02*
X159000000Y-50110000D01*
X159350000Y-99450000D02*
X159650000Y-99750000D01*
X159370000Y-142590000D02*
X159050000Y-143390000D01*
X159600000Y-93750000D02*
X159790000Y-93470000D01*
X159630000Y-51810000D02*
X159320000Y-50910000D01*
X159650000Y-99750000D02*
X159840000Y-100030000D01*
X159680000Y-141690000D02*
X159370000Y-142590000D01*
X159790000Y-93470000D02*
X160190000Y-92870000D01*
X159840000Y-100030000D02*
X160240000Y-100630000D01*
X159850000Y-52560000D02*
X159630000Y-51810000D01*
X159900000Y-140940000D02*
X159680000Y-141690000D01*
X160050000Y-53360000D02*
X159850000Y-52560000D01*
X160100000Y-140140000D02*
X159900000Y-140940000D01*
X160190000Y-92870000D02*
X160390000Y-92370000D01*
X160240000Y-100630000D02*
X160440000Y-101130000D01*
X160250000Y-54340000D02*
X160050000Y-53360000D01*
X160300000Y-139160000D02*
X160100000Y-140140000D01*
X160380000Y-55210000D02*
X160250000Y-54340000D01*
X160390000Y-92370000D02*
X160590000Y-91770000D01*
X160430000Y-138290000D02*
X160300000Y-139160000D01*
X160440000Y-101130000D02*
X160640000Y-101730000D01*
X160470000Y-56040000D02*
X160380000Y-55210000D01*
X160520000Y-137460000D02*
X160430000Y-138290000D01*
X160540000Y-56910000D02*
X160470000Y-56040000D01*
X160590000Y-57750000D02*
X160540000Y-56910000D01*
X160590000Y-87480000D02*
X160590000Y-57750000D01*
X160590000Y-91480000D02*
X160590000Y-87480000D01*
X160590000Y-91770000D02*
X160590000Y-91480000D01*
X160590000Y-136590000D02*
X160520000Y-137460000D01*
X160640000Y-101730000D02*
X160640000Y-102020000D01*
X160640000Y-102020000D02*
X160640000Y-106020000D01*
X160640000Y-106020000D02*
X160640000Y-135750000D01*
X160640000Y-135750000D02*
X160590000Y-136590000D01*
X85020000Y-95750000D02*
G75*
G02*
X85020000Y-97750000I0J-1000000D01*
G01*
X89020000Y-97750000D02*
G75*
G02*
X89020000Y-95750000I0J1000000D01*
G01*
X110920000Y-95750000D02*
G75*
G02*
X110920000Y-97750000I0J-1000000D01*
G01*
X114920000Y-97750000D02*
G75*
G02*
X114920000Y-95750000I0J1000000D01*
G01*
X119510000Y-91480000D02*
G75*
G02*
X121510000Y-91480000I1000000J0D01*
G01*
X119560000Y-106020000D02*
G75*
G02*
X121560000Y-106020000I1000000J0D01*
G01*
X121510000Y-87480000D02*
G75*
G02*
X119510000Y-87480000I-1000000J0D01*
G01*
X121560000Y-102020000D02*
G75*
G02*
X119560000Y-102020000I-1000000J0D01*
G01*
X126100000Y-95750000D02*
G75*
G02*
X126100000Y-97750000I0J-1000000D01*
G01*
X130100000Y-97750000D02*
G75*
G02*
X130100000Y-95750000I0J1000000D01*
G01*
X152000000Y-95750000D02*
G75*
G02*
X152000000Y-97750000I0J-1000000D01*
G01*
X156000000Y-97750000D02*
G75*
G02*
X156000000Y-95750000I0J1000000D01*
G01*
G04 #@! TD*
M02*
