<?xml version="1.0" encoding="UTF-8"?>
<svg id="Layer_2" data-name="Layer 2" xmlns="http://www.w3.org/2000/svg" viewBox="0 0 450 450">
  <path d="M162.59,248.59l59.98,35.03c1.89,1.1,1,7.48,2.95,8.37,2.66,1.2,6.43,2.74,8.93-.31l2.15-7.9c3.79-1.34,5.68-4.67,4.68-7.65-2.69-8.03-10.23-.15-17.51-4.25l-16.77-9.44c-.05-.66.03-1.32.24-1.87l6.17,2.79,19.8-11.51c8.52-4.95,12.79,2.5,17.47-2.79,1.74-1.97,2.22-5.82-.8-7.65-6.15-3.72-2.6-10.96-9.15-11.75-8.65-1.04-4.05,13.34-15.13,13.66,7.33-11.62,3.54-24.81-4.96-33.47-9.2-9.38-22.07-10.38-34.32-4.89l-14.27.5,26.16-38.7-28.37-.69c.47-9.86.75-18.55.52-28.5h81.66s-26.43,41.04-26.43,41.04c44.99,17.66,47.3,56.36,47.55,56.76.53.86,2.39,1.73,5.71.96l.2-68.87,32.97.03.02,68.62,23.06.36-.48,34.04-21.62.19-.95,50.72h-32.98s-.5-49.2-.5-49.2c-.02-2.13-7.44-2.49-8.39.02-10.12,26.6-33.44,45.32-62.45,48.4-30.67,3.26-59.1-13.77-72.76-40.91-5.15-10.22-8.37-19.76-7.28-31.76l34.91.62ZM183.53,280.13l14.63-8.64c-2.23-1.81-5.81-5.08-9.25-4.91-5.97.31-11.88,9.55-20.04,5.99-3.35-1.46-6.22.12-7.67,2.57-1.2,2.02-1.32,5.34,1.47,6.75,6.22,3.14,2.03,10.7,9.13,11.31,7.54.64,4.36-8.72,11.74-13.07Z"/>
  <path d="M40.97,235.84c1.52-3.14,1.38-6.42.93-11.11l-17.9-.91v-2.17s17.5-.5,17.5-.5l1.17-6.11c6.8,1.62,14.71-.44,21.27-.87,3.85,4.91,9.42,11.4,16.93,8.52,1.04-.4,2.91-2.17,3.96-2.42.93-.22,1.97,2.82,3.01,3.11,15.87,4.39,19.47-.34,19.41-.33.68-.11,1.28,3.45,1.97,3.56l35.43.11c-4.43-6.32-8.69-9.58-12.29-15.65l-55.34-.43-8.18-8.07c-6.28.92-12.17-.16-14.9-5.76-2.23-4.58-1.72-10.66,3.48-14.53,3.68-2.74,10.19-3.27,14.61.63,4.17,3.68,4.85,10.14,1.57,15.84,1.71,2.14,4.38,6.02,7.4,6.03l53.83.11,18.43,20.69,17.64.22-.12,7.47c-18.62-1.15-36.5-.47-55.31-.29-3.58.03-6.42,1.35-8.85,2.34-15.94-2.48-21.58,3.73-21.63,3.73-.78-.12-2.2-1.57-3.3-2.03-7.53-3.15-13.98,2.15-17.56,9.45-9.91-5.32-19.81-1.4-20.81-3.03l-2.78-4.52-16.29-.38-.25-2.01c5.14-2,10.51-.22,16.99-.69ZM69.43,191.39c0-2.86-2.32-5.18-5.19-5.18s-5.19,2.32-5.19,5.18,2.32,5.18,5.19,5.18,5.19-2.32,5.19-5.18Z"/>
  <path d="M363.97,132.12c-1.23-5.48-2.46-11.36.91-14.95,4.38-4.68,11.48-4.66,15.61-2.07,5.32,3.34,5.79,9.15,4.64,13.79-1.78,7.21-8.89,6.96-14.63,7.41l-26.11,24.99-57.89.18c-.3-9.98,17.85-2.01,17.93-13.37l.32-41.28,17.37-17.39c-2.5-5.75-.37-11.8,4.31-14.6,4.87-2.91,11.77-2.21,15.5,2.01,3.77,4.27,4.3,10.24.22,15.11-3.41,4.08-9.08,6.23-15.66,2.73l-15.84,15.09.03,34.3,10.75-10.99c-1.55-6.08-.57-11.99,4.54-15.08,4.2-2.54,10.65-2.43,14.75,1.9,3.19,3.37,4.44,9.29,1.19,15.04-2.19,3.88-8.97,6.48-15.29,3.48l-16.7,16.51c9.88-.06,20.36,2.07,30.43-.39,8.1-4.73,16.38-15.49,23.62-22.41ZM338.18,84.68c0-2.79-2.27-5.05-5.07-5.05s-5.07,2.26-5.07,5.05,2.27,5.05,5.07,5.05,5.07-2.26,5.07-5.05ZM379.38,124.84c0-2.83-2.3-5.12-5.13-5.12s-5.13,2.29-5.13,5.12,2.3,5.12,5.13,5.12,5.13-2.29,5.13-5.12ZM337.43,127.96c0-2.82-2.29-5.1-5.12-5.1s-5.12,2.28-5.12,5.1,2.29,5.1,5.12,5.1,5.12-2.28,5.12-5.1Z"/>
  <path d="M92.27,131.57l23.53,23.88,31.1-.45-17.22-16.9c-4.75.26-11.3,1.87-14.55-4-2.51-4.53-3.23-10.16.99-14.65,3.41-3.63,9.83-4.72,14.27-2.01,5.28,3.22,7.26,9.44,4.21,15.85l19.21,18.99.49-33.98-24.09-23.48c-4.88.42-11.53,2.58-15.3-2.36-3.09-4.05-3.79-10.29-.4-14.79,3.42-4.54,9.03-5.24,14.05-3.54,7.17,2.44,5.22,10.01,6.77,15.08,5.95,10.12,16.53,16.62,24.12,25.71l.97,35.64c2.22,2.04,6.17,4.51,3.63,10.17l-51.29-.04-26.18-24.13c-3.32-3.06-11.13.44-13.48-5.75-1.72-4.54-2.42-11.03,2.04-14.83,3.81-3.24,10.77-3.62,14.9-.29s6.41,8.98,2.2,15.89ZM128.83,84.48c0-2.83-2.3-5.13-5.15-5.13s-5.15,2.3-5.15,5.13,2.3,5.13,5.15,5.13,5.15-2.3,5.15-5.13ZM88.24,124.6c0-2.87-2.33-5.19-5.21-5.19s-5.21,2.33-5.21,5.19,2.33,5.19,5.21,5.19,5.21-2.33,5.21-5.19ZM129.78,127.19c0-2.88-2.34-5.21-5.23-5.21s-5.23,2.33-5.23,5.21,2.34,5.21,5.23,5.21,5.23-2.33,5.23-5.21Z"/>
  <path d="M258.29,193.55c-8.38-7.29-16.24-12.74-26.05-16.99l25.27-38.74,37.24-.14-36.45,55.87Z"/>
  <path d="M253.53,376.11c-.03,2.95,3.88,6.92,6.11,7.26,5.69-2.32,11.44-2.71,15.66,2.21,3.42,3.99,3.66,9.92.56,14.37-3.36,4.81-9.75,5.53-14.32,3.69-5.87-2.35-7.26-8.65-6.34-14.8l-7.67-8.06-.02-69.78c.95-1.89,4.05-3.4,5.83-4.55l.28,19.24,16.58,13.46c5.75-2.25,11.74-1.41,15.06,3.57,2.83,4.25,2.93,10.5-.91,14.63-3.56,3.82-9.95,4.67-14.3,2.04-5.47-3.31-7.84-9.57-4.34-15.9-3.14-3.71-6.32-5.85-11.81-9.3l-.37,41.9ZM281.07,349.53c0-2.88-2.34-5.21-5.23-5.21s-5.23,2.33-5.23,5.21,2.34,5.21,5.23,5.21,5.23-2.33,5.23-5.21ZM271.75,393.33c0-2.89-2.35-5.24-5.25-5.24s-5.25,2.34-5.25,5.24,2.35,5.24,5.25,5.24,5.25-2.34,5.25-5.24Z"/>
  <path d="M376.74,214.2c-8.65-2.22-18.31-4.97-16.59-4.97h-41.94c-.42-3.11-.45-5.63.07-8.87l40.45.27c11.15-5.55,22.91-7.01,35.16-5.6.63,1.74,1.21,2.94,2.06,3.34,1.63.76,4.02.85,7.21-.34-1.14,3.39-.29,8.39-.52,12.26-3.57-.61-6.82,1.25-10.31,2.78-4.16,1.83-10.95.51-15.58,1.13Z"/>
  <path d="M205.63,390.2c-1.11,14.98,2.68,27.92-10.62,29.72,10.21-7.17,4.99-18.03,4.61-32.64-.29-11.3.14-21.98-3.52-32.73-2.97-8.73-.14-18.85-1.22-28.45l16.65-.16-.28,26.9-4.37,6.06c.69,10.69-.46,20.64-1.25,31.29Z"/>
  <path d="M110.21,367.39c-2.26-1.95,5.7-12.92,6.76-9.32.41,1.38-5.27,6.19-2.2,6.82,1.74.36,6.36-4.41,6.54-5.59s-1-3.1-3.1-4.41c6.31-9.82,15.87-15.45,25.77-21.59l18.47-17.35c2.02.12,4.57,1.93,5.17,3.14l-17.23,20.47c-5.28,11.08-10.15,22.08-22.4,27.5-3.24,1.43-5.48,5.29-8.6,8.22l-9.17-7.9Z"/>
  <path d="M318.88,230.09c-1.58-2.19-.94-4.67-.48-6.24l89.52.19c3.16-5.44,6.8-9.48,12.95-8.97s10.15,4.58,10.68,10.28c.57,6.14-3.31,10.89-8.1,12.19-6.88,1.86-11.67-1.28-14.86-7.77l-89.72.33ZM425.52,226.63c0-2.87-2.33-5.19-5.21-5.19s-5.21,2.32-5.21,5.19,2.33,5.19,5.21,5.19,5.21-2.32,5.21-5.19Z"/>
  <path d="M230.91,405.48c6.85,2.61,9.64,7.82,8.77,13.49-.82,5.36-4.89,9.44-10.91,9.65-5.08.18-10.26-3-11.71-8.66s1.12-11.4,7.9-13.93l.17-83.12c.17-2.11,5.53-3.22,6.32-2.44l-.53,85.01ZM233.38,417.25c0-2.86-2.33-5.18-5.19-5.18s-5.19,2.32-5.19,5.18,2.33,5.18,5.19,5.18,5.19-2.32,5.19-5.18Z"/>
  <path d="M147.1,185.73l-36.05-.53c-6.5-.1-12.02-1.36-18.33-.78-2.39.22-5.42-.34-5.99-4.2l20.54-1.57,40.63-1.2c-.09-2.48,1.19-6.98,3.79-6.97l5.61,5.31,28.43-.3-8.01,12.01-18.93-.08c-2.93-.01-5.17,4.66-6.87,5.54-3.24-.21-3.6-4.92-4.82-7.22ZM150,174.91l-.05,14.94h3.04s.05-14.93.05-14.93h-3.04Z"/>
  <path d="M152.5,377.82c1.02,6.76-.12,12.43-4.81,15.39-4.93,3.11-12.09,2.33-15.69-2.06-3.74-4.56-3.61-9.81-.76-14.42,3.58-5.79,10.48-4.96,16.2-3.35l23.51-22.44.1-31.07,6.94,2.65.08,30.12-25.57,25.17ZM146.05,383.53c0-2.84-2.31-5.14-5.16-5.14s-5.16,2.3-5.16,5.14,2.31,5.14,5.16,5.14,5.16-2.3,5.16-5.14Z"/>
  <path d="M117.32,304.21c-8.73,4.26-16.63,15.75-23.84,22.24.44,5.48,2.86,11.99-2.59,16.03-4.48,3.31-10.26,4.09-15.19-.01-4.48-3.73-4.48-9.77-2.44-15.39,2.34-6.44,10.26-3.59,14.16-5.3l25.63-23.93,27.46-.2,4.94,5.39-28.15,1.17ZM88.26,333.52c0-2.87-2.33-5.19-5.21-5.19s-5.21,2.32-5.21,5.19,2.33,5.19,5.21,5.19,5.21-2.32,5.21-5.19Z"/>
  <path d="M209.39,131.16c-3.1,1.03-5.08.31-5.93-.28l.31-47.13c.02-2.87-4.43-7.34-6.92-7.31-5.58,1.74-11.29,2.44-15.34-2.27-3.47-4.05-4.38-10.12-.14-15.13,3.08-3.63,8.5-5.21,14.6-2.7,4.18,1.71,6.85,7.97,4.96,14.08l8.27,8.41.18,52.33ZM195.32,66.33c0-2.89-2.35-5.24-5.25-5.24s-5.25,2.34-5.25,5.24,2.35,5.24,5.25,5.24,5.25-2.34,5.25-5.24Z"/>
  <path d="M253.51,130.8c-1.31,1.13-4.25,1.14-6.05.49l-.03-52.15,7.8-8.85c-1.23-5.98.81-10.88,5.09-13.48,4.98-3.03,10.92-1.7,14.44,2.11,3.91,4.22,3.72,10.55.87,14.76-3.56,5.27-9.54,4.38-15.34,3.25-4.87-.94-7.06,5.5-7.03,9.59l.24,44.27ZM271.45,66.57c0-2.83-2.3-5.13-5.15-5.13s-5.15,2.3-5.15,5.13,2.3,5.13,5.15,5.13,5.15-2.3,5.15-5.13Z"/>
  <path d="M81.52,254.27c-3.28-.03-7.37,4.42-7.6,6.86,2.52,5.22,2.36,11.44-1.74,14.96-4.51,3.87-10.04,4.61-14.85.91-4.2-3.23-6.09-9.06-3.4-14.5,2.43-4.9,8.16-7.39,14.61-5.41l8.44-8.69,44.82-.12c.16,2.54.24,4.58.78,6.31l-41.06-.31ZM69.35,267.83c0-2.88-2.34-5.21-5.23-5.21s-5.23,2.33-5.23,5.21,2.34,5.21,5.23,5.21,5.23-2.33,5.23-5.21Z"/>
  <path d="M364.77,327.26l-23.34-23.52-23.06-.19-.19-5.95,24.82.39,26.48,24.62c4.29,1.81,12.25-1.58,14.8,5.43,1.63,4.47,2.35,10.35-2.43,14.38-3.94,3.32-9.86,4.12-14.37.7-4.42-3.35-6.39-8.96-2.7-15.85ZM379.39,334.05c0-2.84-2.31-5.14-5.16-5.14s-5.16,2.3-5.16,5.14,2.31,5.14,5.16,5.14,5.16-2.3,5.16-5.14Z"/>
  <path d="M223.97,91.87c.23-5.84,8.65-26.61-3.08-30.16,3.93-2.14,5.93-.03,8.38-.37s2.03-2.69,1.2-3.33c-2.81-2.15-8.53,2.14-8.57-2.89,3.75.36,7.03,1.38,10.17-1.53-4.15-2.52-7.27.05-10.74-2.83,3.8-.9,6.64,1.46,10.4-1.38-1.98-3.61-5.62-2.81-8.57-2.31-3.84-4.12,10.35-.26,7.53-4.18-.53-.73-1.86-1.32-4.21-1.5.18-7.81.23-14.21-1.66-22.23-.3-1.26,3.56-2.27,4.63-.56,2.29,3.64-5.8,12.55,1.08,22.54,3.45,5.01,3.54,14.77.76,20.46-1.36,2.78-4.36,3.43-2.95,7.74,1.51,4.62.18,9.85,0,14.78l2.42,5.73.71,25.08c.16,5.55,4.38,10.37,2.19,16.58l-12.82.03c-1.78-5.82,1.96-10.02,2.16-15.24l.96-24.43Z"/>
  <path d="M310.36,92.71c-4.82-.32-10.09-.97-14.41-3.6-8.75-5.32-4.06-20.09-5.24-33.16,5.11,1.11,11.29.87,16.26,4.46,6.52,4.7,5.69,19.18,3.39,32.29Z"/>
  <path d="M326.84,364.46c4.59.02,12.3-2.79,15.78,3.39,2.27,4.04,3.73,9.92-.98,14.9-3.13,3.31-8.85,4.61-14.2,2.24-5.43-2.4-5.22-8.78-5.23-14.17l-24.79-26.01-.37-18.13,5.84,1.06.2,14.44,23.75,22.28ZM338.64,374.99c0-2.86-2.33-5.18-5.2-5.18s-5.2,2.32-5.2,5.18,2.33,5.18,5.2,5.18,5.2-2.32,5.2-5.18Z"/>
  <path d="M382.22,261.52c1.08-3.29-3.98-7.34-7.07-7.35l-34.42-.05c-.37-2.18-.39-3.78-.03-5.86l38.63.04,8.53,8.53c5.53-1.11,11.11-.18,13.64,3.44,3.67,5.25,2.8,12.02-.95,15.61-3.94,3.76-9.84,4.16-13.93,1.79-5.61-3.24-6.74-9-4.39-16.15ZM397.76,267.81c0-2.91-2.37-5.27-5.29-5.27s-5.29,2.36-5.29,5.27,2.37,5.27,5.29,5.27,5.29-2.36,5.29-5.27Z"/>
  <path d="M395.43,312.76c-3.67,3.38-9.03,2.76-13.02,1.31l-17.91-6.51,6.75-10.88c2.44-3.94,8.81-3.85,13.12-2.33l19.02,6.7c-2.73,4.28-4.24,8.29-7.96,11.71Z"/>
  <path d="M149.09,93.64l-6.14-11.83c-1.32-6.84,4.81-12.42,9.36-16.54l10.04-9.08,6.13,10.74c4.74,8.31-9.21,19.26-19.39,26.7Z"/>
  <path d="M179.99,409.09l-12.33-5.23c-4.33-1.84-4.97-8.93-4.01-13.48l3.86-18.35,12,5.33c5.35,2.38,5.83,10.7,3.76,15.99l-3.28,15.73Z"/>
  <path d="M318.66,282.62c-.8-1.92-.85-4.02-.34-5.84,7.78-1.18,17.15,1.67,24.8-1.07,4.36-2.89,6.81-8.33,13.28-6.96,5.91,1.25,10,4.69,9.85,11.57-.12,5.53-3.62,10.49-10,11.28-5.43.68-10.57-2.7-12.97-8.93l-24.62-.07ZM360.04,280.26c0-2.83-2.3-5.13-5.15-5.13s-5.15,2.3-5.15,5.13,2.3,5.13,5.15,5.13,5.15-2.3,5.15-5.13Z"/>
  <path d="M318.16,185.39l.04-6.14,18.62-.31c2.77-5.7,7.54-9.42,13.32-8.51,5.41.85,9.81,5.24,10.02,11.13.2,5.52-2.79,10.47-9.1,11.85-5.36,1.17-11.5-1.18-13.94-7.87l-18.96-.14ZM353.86,182.04c0-2.86-2.33-5.18-5.19-5.18s-5.19,2.32-5.19,5.18,2.33,5.18,5.19,5.18,5.19-2.32,5.19-5.18Z"/>
  <path d="M86.63,159.04c-1.71,3.82-7.83,4.43-11.43,3.78l-16.75-3.06,3.7-9.75c1.5-3.96,7.02-5.66,11.27-4.9l18,3.22-4.78,10.7Z"/>
  <path d="M279.02,129.71c.38,3.01-5.96,2.98-5.95.54.02-2.93.86-7.32-1.57-8.96-4.78-3.23-8.29-7.48-7.42-12.71.98-5.85,5.5-9.82,11.16-10.04,5.97-.24,10.62,2.98,12.26,8.93,1.51,5.45-1.59,10.48-7.19,13.71-1.93,1.11-1.75,5.04-1.31,8.54ZM281.04,110.02c0-2.86-2.33-5.19-5.2-5.19s-5.2,2.32-5.2,5.19,2.33,5.19,5.2,5.19,5.2-2.32,5.2-5.19Z"/>
  <path d="M128.45,280.44c-11.7-5.06-9.49,9.92-22.43,7.98-5.33-.8-9.87-5.44-9.56-12.22.23-4.85,3.92-9.54,9.78-10.64,5.56-1.04,10.62,2.79,13.5,8.25,1.73.08,5.19-.21,6.27.4,1.28.72,3.08,2.64,2.44,6.22ZM113.07,276.91c0-2.87-2.34-5.2-5.22-5.2s-5.22,2.33-5.22,5.2,2.34,5.2,5.22,5.2,5.22-2.33,5.22-5.2Z"/>
  <path d="M325.81,321.55c5.62-2.13,11.52-1.39,14.73,2.2,4.08,4.56,3.8,11.17.38,15.37-3.62,4.46-10.44,4.73-14.5,2.8-6.19-3.33-6.49-9.54-4.61-15.83-4.1-3.46-4.68-8.24-3.21-12.17l7.19,7.62ZM337.39,331.91c0-2.93-2.38-5.3-5.32-5.3s-5.32,2.37-5.32,5.3,2.38,5.3,5.32,5.3,5.32-2.37,5.32-5.3Z"/>
  <path d="M183.98,131.73c-3.33-.08-4.7-.16-6.36-.74.76-2.07,1.6-7.12.15-9.07-5.89-2.59-8.69-6.23-8.62-12.1s3.88-10.6,10.13-11.21c5.64-.55,10.83,3.03,12.4,8.62,3.33,11.84-12.6,11.26-7.7,24.52ZM185.81,109.92c0-2.85-2.32-5.17-5.18-5.17s-5.18,2.31-5.18,5.17,2.32,5.17,5.18,5.17,5.18-2.31,5.18-5.17Z"/>
  <path d="M119.46,339.4c-5.22-2.49-10.32-6.64-9.75-11.7.72-6.47,4.96-10.92,7.66-17.72,3.81,1.76,10.48,5.35,9.97,11.3-.58,6.62-4.7,12.13-7.87,18.12Z"/>
  <path d="M91.23,310.06c-2.33,2.22-6.43.69-8.58-.68l-13.06-8.32c3.15-3.89,5.49-7.12,8.07-7.82,6.98-1.9,13.55,3.42,21.41,9.38l-7.83,7.45Z"/>
  <path d="M389.95,162.1c-4.2,3.61-9.29,6.75-13.91,4.43-5.99-3-9.13-8.82-13.36-14.31,2.85-2.52,7.59-6.46,11.54-5.01,7.23,2.65,11.78,9.57,15.73,14.89Z"/>
  <path d="M299.25,390.98c-4.16-3.82-7.68-8.72-5.71-13.16,2.83-6.38,9.04-9.92,13.18-14.5,3.12,3.43,5.05,6.49,5.35,9.76.33,3.61-1.68,6.96-4.5,9.73l-8.32,8.17Z"/>
  <path d="M220.23,231.26c.6-1.36,3.93-.26,4.03.48.09.63-.23,1.29-1.61,2.19-3.4,8.32-8.75,16.22-17.28,19.77-13.08,5.44-23.38-7.58-26.74-22.85,4.57-.39,4.56,3.01,5.43,5.59,3.47,10.3,13.82,16.02,23.72,11.04,6.35-3.2,9.7-10.02,12.45-16.22Z"/>
  <ellipse cx="211.17" cy="222.52" rx="6.03" ry="6.01"/>
  <ellipse cx="190.4" cy="222.1" rx="5.83" ry="5.81"/>
</svg>