<?xml version="1.0" encoding="UTF-8"?>
<svg id="Layer_1" data-name="Layer 1" xmlns="http://www.w3.org/2000/svg" viewBox="0 0 858 868.5">
  <defs>
    <style>
      .cls-1 {
        fill-rule: evenodd;
      }
    </style>
  </defs>
  <g id="DC214">
    <g id="Center">
      <path d="M414,171.5c-9.67,1-19.33,2-29,3-19,5-38,10-57,15-81.14,32.22-141,94.73-168,181-49.59,158.44,50.04,283.31,148,333,25.54,12.96,83.37,34.76,125,28,24.67-4.01,47.73-3.62,69-10,85.91-25.78,149.41-82.02,183-160,86.99-201.93-73.47-393.14-271-390ZM307,553.5c.02,46.37-11.96,77.79-56,78-8.98.04-21.05,1.18-27-2-5.8-5.12-3-25.68-3-36,0-34.9,1.94-72.19,0-97,13.92-7.25,44.65-1.46,57-8,2,.33,4,.67,6,1,7.54,12.78,22.17,31.93,26,46,1.02,3.75-3,11.09-3,18ZM361,599.5c5.05,5.69,16.76,4.11,27,3,3.28,8.03,6.28,14.68,6,27-13.68,4.97-46.57,4.46-57-2-17.46-10.82-23.31-74.11-12-101,8.26-19.64,23.12-21.44,38-34,9.33.33,18.67.67,28,1l4,8c-1,7-2,14-3,21-8.47.5-16.86.04-29,1-.33,5.39-.76,7.99-8,9-.4,22.64-6.28,51.78,6,67ZM468.23,606.73c2.11.44.62.47,2-2,12.75.25,9.35,5.83,16,11-.63,9.32-3.41,7.9-4,17h-42c-15.94,4.3-40.4,2.88-31-21,3.77-9.58,16.16-16.06,21-24,1.33-7.33,2.67-14.67,4-22,8.85-14.65,31.24-20.92,8-41-7.33,2.33-14.67,4.67-22,7-.33-.33-.67-.67-1-1-5.06-3.44-7.25-9.54-5-15-2.67-1.67-5.33-3.33-8-5l-2-2c5.03-8.74,12.2-7.96,22-12,47.74-.91,74.76,25.4,52,71-8,11.33-16,22.67-24,34-.67.67-1.33,1.33-2,2,5.33,1,10.67,2,16,3ZM551,532.67v97c-.33.67-.67,1.33-1,2-8.67.33-17.33.67-26,1-6.37-4.42-4.69-87.12-5-89,.33-3.33.67-6.67,1-10-5.67,1.67-11.33,3.33-17,5h-5c-1.58-10.53-6.18-16.52-5-27,7.8-4.38,19.27-7.66,28-13,9,.33,18,.67,27,1,5.72,4.1,3,23.68,3,33ZM646.81,592.3c-2.48,3.75-7.54,3.37-11,3-2.26,8.93,2.75,18.71,1,25-1.33,2-2.67,4-4,6h-26c-.33-10.33-.67-20.67-1-31-13.68,1.12-26.2,11.26-42,2-1.9-1.4-.61-.08-2-2v-27c6.39-7.78,15.21-18.04,19-28,3.38-8.9.39-21.58,6-28,6.32-7.23,12.26-5.71,16-17,7.28-4.52,20.06-3.31,30-3,7.27,15.7,3.64,59.91,2,77,4.98-.23,8.69-.34,11,2,2.08,1.41,3.62,15.51,1,21ZM680,440.5c-13.12,19.33-42.34,9.64-47-11-28.66,14.33-57.34,28.67-86,43h-51c-26.62,7.77-58.03,22.15-95,12-9.33-4-18.67-8-28-12h-35c-32.33-18.33-64.67-36.67-97-55-7.97,17.34-34.25,27.97-48,8-15.27-22.18,2.82-51.88,28-48-8.93-19.91-9.51-46.49,15-52,33.49-7.53,34.65,34.61,24,52,17,9.33,34,18.67,51,28-24.59-70.66,23.49-134.35,68-154,14.74-6.51,31.99-5.54,49-12,19.35,4.87,37.26,2.67,53,9,56.4,22.67,104.9,98.43,68,175v1c21.66-10.67,43.34-21.33,65-32-8.21-17.44-11.59-62.38,26-52,23.86,6.59,19.31,33.93,12,52,27.28-8.56,41.71,27.8,28,48Z"/>
      <path class="cls-1" d="M254,519.5h8c16.86,19.36,14.76,40.28,8,65-2.57,9.41,1.59,13.02-6,18l-11,2c5.62-20.29,1.14-55.27,1-85Z"/>
      <path class="cls-1" d="M605.88,539.83c5.58,5.19,5.86,21.83,3.01,30.67-5.52-.51-11.04-1.02-16.55-1.53v-1.53c4.51-9.2,9.03-18.4,13.54-27.6Z"/>
      <path class="cls-1" d="M389,302.5c36.24-1.83,42.87,42.82,13,50-36.41,8.76-46.82-33.37-13-50Z"/>
      <path class="cls-1" d="M477,302.5c34.63-1.89,45.24,39.2,17,49-35.35,12.26-52.21-29.57-17-49Z"/>
      <path class="cls-1" d="M520,369.5c7.08.86,10.57,2.93,15,6v4c-16.54,16.8-14.31,45.43-37,63-37.01,28.66-105.09,25.31-133-10-11.52-14.58-15.63-38.01-27-53,.75-4.45,1.25-4.2,3-7,6.99-1.9,14.01-1.88,21,0l3,4v4l-8,6c6.99,86.5,152.45,85.8,159-1l-8-6,4-8,8-2Z"/>
    </g>
    <g id="OuterRing">
      <path d="M354,8.5c-65.96,13.5-117.8,31.81-166,62-20.66,15.67-41.34,31.33-62,47-5.33,5.67-10.67,11.33-16,17,5.67,5,11.33,10,17,15,12.67-11.67,25.33-23.33,38-35,28.31-21.37,62.27-45.5,99-57,2.67,6.33,5.33,12.67,8,19C144.98,114.83,18.5,281.3,21,452.5H0c.26,65.11,13.56,116.3,32,163-6.33,3.33-12.67,6.67-19,10,35.45,86.09,91.56,148.81,163,199,19.11,13.42,57.15,41.65,84,44-2.05-5.23,2.82-13.83,6-20-50.88-21.29-107.46-51.95-139-93,9.33-9.67,18.67-19.33,28-29,10.33,9,20.67,18,31,27,25.96,20.2,61.09,48.25,97,56,2.67-6.33,5.33-12.67,8-19-11-5.33-22-10.67-33-16-15.33-9.67-30.67-19.33-46-29-52.55-37.62-90.95-90.69-119-153,6.33-2.67,12.67-5.33,19-8-4.33-12.67-8.67-25.33-13-38-8.41-27.78-12.58-58.43-12-94h-43c-.16-108.52,52.38-225.38,112-272l14,14c-10.67,12.33-21.33,24.67-32,37-18.31,24.28-32.99,51.5-46,81,7,3,14,6,21,9,24.45-88.32,123.22-164.02,209-194,28.28-9.89,69.51-20.44,106-17,.33-7.67.67-15.33,1-23-54.07.31-100.79,11.08-139,28-5.33-12.67-10.67-25.33-16-38,18.73-18.03,113.6-32.68,155-32V3.5h30c-23.04-8.67-85.58,1.02-105,5ZM72,599.5v1c-6,2.33-12,4.67-18,7-18.02-18.72-32.68-113.64-32-155h21c.23,58.29,10.92,106.16,29,147Z"/>
      <path class="cls-1" d="M858,452.5h-43c1.09,60.43-14.92,104.15-29,148l20,8c-17.73,38.73-37.54,72.4-62,104l-26,28,15,14,25-29c23.25-29.87,57.07-67,66-109l20,6,1,3c-24.39,61.97-61.16,97.97-97,146h-1l-16-15-33,31c-28.48,21.91-66.5,52.86-106,61-1.77-7.67-7.01-13.81-6-21,40.78-11.66,107.32-56.42,130-87l-13-14-46,37c-58.36,42.55-127.99,74.06-228,75v-44c142.69,2.67,286.87-104.26,316-211l21,8,16-48c7.53-27.19,10.73-57.92,11-91h21c.92-40.44-12.43-129.16-30-147-6.46,4.32-34.15,17.37-39,14l-29-55c-30.5-48.42-95.55-111.1-156-128l17-41c32.97,15.1,62.75,31.39,90,52l35,31,29-29c-23.43-30.6-95.54-82.41-138-92l7-21c18.44,3.42,35.58,15.48,50,24,66.39,39.22,118.4,86.12,159,151,12.2,19.5,33.46,45.28,36,72-4.36-1.92-14.71,1.72-19,6,18.39,46.71,31.74,97.92,32,163Z"/>
    </g>
  </g>
</svg>