<?xml version="1.0" encoding="UTF-8"?>
<svg xmlns="http://www.w3.org/2000/svg" viewBox="0 0 375.75 375.75">
  <defs>
    <style>
      .cls-1, .cls-2, .cls-3 {
        stroke: #000;
        stroke-miterlimit: 10;
      }

      .cls-2 {
        stroke-width: 2px;
      }

      .cls-2, .cls-3 {
        fill: none;
      }

      .cls-3 {
        stroke-width: 3px;
      }
    </style>
  </defs>
  <g id="Layer_2" data-name="Layer 2">
    <path d="M288,204.06l-5.12.31-1.12-16.38-5.88.12-.44-9.19-.81-1.44-13.88-.12-.81.94v10.62l-2-.38-.31-1.25-3.44-.12-6.87,6.56-.44.81-.31,11.56-5.62-.38v-20.12l-14.06.19-.5,4.81-1.06.62-5.94-.31-.5,4.06-1.69.62v-4.69h-1.56v6.25l-3.75,2.62-1.44.69v-5.81l-.5.31-.37-.5.37-9.56-14,.12v-7.62l-2.19.12v-3.31l-1.25-1.19-5.66-.38-.78-6.69-2.5-.12-.75,7.19h-4.69l-1.25,1.06.31,2.81-2.06-.12v-21.88l-1.56-.81v-1.06l-.87-.94h-10.94l-.94.94-.31,2-.5,1v34.38l-8.88-.31-.12,13.75-2.38-.31-.12-27,.62-.31.75-.62,1.06-.81.62-1.19.81-1.12.44-1.25v-5.31l-.44-1.12-2.06-2.5-.94-.75-1.46-1.06h-6.25l-1.67.83-1.25,1.17-2.08,2.58-1.08,1.83-.17,3.75.42,1.5,1.08,1.83,1.83,1.67,1.75,1.17v31h-2.92v-16l-4.92-4.83-3.58,4h-2.25v16.83h-4v-17l-8.75-11.5-6.67,10.25-4,.33-1.67,1.5-1.67,1.42-1.83.5-2.08,1-2.25.42v5.67h-9.56l5.27,3.65,1.12.81,1.56,1.12.12.94.5,1.56.44,1.56,1.25,1.69.81,1.12.62,1.38.44,2.06.31,2.5.31,2.19.75,2.19.06,1.69,1.56,1.44,1.88,1.56,2.5,2,2,2.06,1.88,1.38,1.12.5,1.5,1.06,2.25.81,1.56,1.25,1.69.94,2.19,1.25,1.75.62,3,.56,1.87-.44,1.06-.5,1.12-1.25,1.5-.88,1.12-1.75.75-1.88.69-1.75.44-2.19,1.25-2.19.81-1.69.44-1.25h1.44l1.25-.5.75-.31.19-.31.75-.56,9.69.31h1.12l.62.75.94.5,1.5.31,1.31,1.25,2.19,1.88,1.06,1.69,2.19,1.75,1.75,1.38,1.69,1.25,1.25,2.19,1.75,2.94,1.12,1.44.87,1.88.5,2.81.62.75.94,1.44.94,2.5,1.06.94-.12,2.5.94,2,2.19,2.06,1.88,1.69,1.44,1.44.94,2.19,1.19,2.75,1.94,1.69,2.19,1.88,1.06,1.06.31,4.56v2.31l.62,2.81,1.56,2.38,1.56,1.38,1.56,4.38,1.88,4.25.94,1.06,2.19-.12,1.12.88,1.94,1.44,2.5,1.25,2.5,1.25s2.06.81,2.5.94c.44.12,2.06,1.12,2.06,1.12l1.25.44,3.12.12,3.12-.12,1.06.5h.5l1.25,1.25.75,1.38,1.75.81,2,.44,1.12-.81,1.69-1.06,1.12-.94,1.06-1.25.44-.81-.94-2.81-.75-3.06-.62-2.81s-.94-4.19-.94-4.38-.81-4.5-.81-4.5l.5-5.81.5-3.25.44-2.5.94-2.69,1.56-2.75,1.56-2.69,2.37-2.81,2.94-2.69,2.38-2,2.69-1.69.81-.94v-1.56l1.06-.88.44-.81,2.25-.31,1.25-.62,1.06-.31h1.06l2.38-.94,4.19-2.62,4.25-2.56,4.37-3.56,6.56-6.12,2.56-1.75,1.06-.31.81-.31,2-1.26,1.37-1.24.5-.94h5.44l.19-.69.94-.62v-4.88l.94-1.25,1.06-.88,1-.81.44-1.06-.31-12.12ZM221.96,253.23h-2.15v14.87h2.15v6.83h-15.03v-6.83h1.85v-4.68h-6.6v4.68h1.83v6.83h-15.01v-6.83h2.15v-14.87h-2.19v-6.83h15.05v6.83h-1.83v4.35h6.6v-4.35h-1.85v-6.83h15.03v6.83Z"/>
  </g>
  <g id="Layer_4" data-name="Layer 4">
    <polyline class="cls-3" points="289 203.81 290 198.56 290 194.68 290 191.25 287.5 186.93 286.5 184.06 286.5 181.93 285.92 179.89 284.92 177.81 284.08 176.56 282.83 175.31 281.58 174.06 282 140.48 280.75 139.81 279.75 139.07 278.5 137.31 277.25 137.31 272.42 137.31 270.33 135.48 268.67 134.14 266.83 133.39 264.92 132.73 264.08 132.73 262.83 131.89 260.75 130.89 259.08 130.89 257.42 131.48 255.75 131.64 253.67 130.89 252 131.23 250.08 131.48 247.67 131.48 246.33 131.89 244.92 132.89 243.08 133.73 243.08 134.39 238.08 133.98 236.75 132.56 234.92 131.89 232.83 131.73 220.75 131.48 219.75 131.23 212.92 130.89 209.5 126.39 201.42 126.39 199.58 125.56 196.67 125.56 194.75 124.73 193.08 124.31 189.17 119.98 182.25 119.56 179.33 117.23 178.5 115.73 178.5 75.39 176.86 73.56 125.83 73.56 123.17 75.81 123.17 76.23 123.17 172.64 64.58 172.31 64 172.48 63.17 172.89 62.5 173.73 62.08 174.73 62.08 177.23 62.08 178.06 64.75 180.81 67.67 183.31 71.83 187.06 75.17 188.73 76.83 190.98 78.33 192.23 80 193.73 81.67 195.81 82.92 197.64 83.5 198.73 83.5 199.56 83.75 200.23"/>
  </g>
  <g id="Layer_3" data-name="Layer 3">
    <polygon class="cls-1" points="235.04 150.88 248.5 150.88 252.04 138.69 255.75 150.88 268.5 150.88 258.25 157.88 262.62 170.68 252.04 162.5 241 170.68 245.62 158.38 235.04 150.88"/>
  </g>
  <g id="Layer_5" data-name="Layer 5">
    <path d="M147.78,275.5h-13.27v-6.83h2.24v-14.87h-2.24v-6.83h13.66c3.12,0,5.66.19,7.63.57,1.98.38,3.85,1.17,5.6,2.36,1.74,1.2,3.1,2.83,4.1,4.88.49.98.87,2.04,1.13,3.16s.39,2.3.39,3.53c0,2.47-.53,4.73-1.58,6.77-1.04,2.02-2.36,3.58-3.96,4.66-1.56,1.08-3.27,1.78-5.13,2.11-1.85.33-4.7.49-8.57.49ZM147.78,253.8v14.87h1.05c2.6,0,4.29-.69,5.07-2.07.77-1.38,1.15-3.12,1.15-5.21,0-1.26-.16-2.5-.49-3.73-.34-1.23-.94-2.18-1.8-2.85-.85-.67-2.37-1-4.55-1h-.41Z"/>
    <path d="M179.38,275.5h-10.23v-7.46h10.23v7.46Z"/>
    <path d="M238.42,275.5h-10.23v-7.46h10.23v7.46Z"/>
    <path d="M259.05,275.5h-11.3v-6.83h2.17l5.35-14.87h-2.3v-6.83h20.51v6.83h-2.3l5.46,14.87h2.09v6.83h-14.89v-6.25h2.5l-1.09-3.59h-7.3l-1.25,3.59h2.34v6.25ZM261.74,254.21l-2.69,7.9h5.11l-2.42-7.9Z"/>
    <path d="M292.62,275.5h-10.23v-7.46h10.23v7.46Z"/>
  </g>
  <g id="Layer_6" data-name="Layer 6">
    <circle class="cls-2" cx="187.5" cy="188" r="140"/>
    <circle class="cls-2" cx="187.87" cy="187.88" r="186.88"/>
  </g>
  <g id="Layer_7" data-name="Layer 7">
    <g>
      <path d="M35.22,185.08l-20.21-1.95c-.36-.03-.64.02-.85.17-.2.15-.38.42-.54.83l-.56-.05,1.28-13.32c.28-2.92.83-5.13,1.64-6.63,1.18-2.15,2.94-3.65,5.27-4.51,1.83-.68,3.92-.91,6.26-.69,4.12.4,7.13,1.97,9.05,4.71.81,1.15,1.34,2.46,1.59,3.92.25,1.46.27,3.3.06,5.5l-1.28,13.32-.56-.05c-.08-.43-.2-.74-.37-.92-.17-.18-.44-.29-.8-.32ZM33.63,179.67l.63-6.55c.2-2.09.07-3.69-.4-4.79-1.01-2.37-3.28-3.73-6.83-4.07-2.57-.25-4.59.17-6.07,1.25-.82.6-1.44,1.37-1.85,2.3-.41.93-.7,2.18-.85,3.77l-.63,6.55,16.01,1.54Z"/>
      <path d="M42.98,132.02l-3.05,8.52,1.68,1.68c.4.41.74.66,1.02.76.53.19.99-.04,1.39-.7l.46.17-2.44,6.81-.46-.17c.08-.44.07-.8-.05-1.07-.11-.27-.4-.64-.85-1.12l-11.28-11.67c-.43-.44-.83-.73-1.22-.87-.45-.16-.92.02-1.39.55l-.46-.17,2.58-7.2.46.17c.03.69.29,1.13.8,1.31.36.13.86.15,1.49.07l15.8-2.26c.86-.13,1.44-.26,1.73-.41.29-.14.56-.43.81-.85l.46.17-2.71,7.57-.46-.17c.14-.76-.07-1.24-.62-1.44-.34-.12-.81-.14-1.42-.04l-2.26.35ZM39.9,132.42l-7.05.9,4.93,5.02,2.12-5.92Z"/>
      <path d="M55.8,109.03l5.85-9.34c.2-.32.28-.6.24-.84-.04-.24-.2-.53-.5-.87l.25-.4,4.93,3.09-.25.4c-.42-.12-.75-.15-.99-.07s-.46.27-.66.59l-8.95,14.28-.42-.26c.13-.4.15-.73.08-.98-.08-.25-.27-.47-.58-.66l-13.64-8.55c-.31-.19-.58-.27-.83-.23-.25.04-.54.2-.87.49l-.42-.26,3.7-5.9.42.26c-.12.42-.15.75-.07.99.08.24.27.46.58.65l12.14,7.61Z"/>
      <path d="M74.33,84.26l7.6-7.99c.26-.27.39-.53.41-.78.01-.25-.09-.56-.31-.95l.33-.34,4.22,4.01-.33.34c-.39-.21-.71-.3-.96-.27-.25.03-.51.18-.77.45l-11.62,12.22-.36-.34c.21-.37.3-.69.27-.95s-.17-.52-.44-.77l-11.67-11.1c-.26-.25-.52-.38-.77-.39-.25,0-.57.09-.95.31l-.36-.34,4.8-5.04.36.34c-.21.39-.29.71-.27.96.03.25.17.5.44.75l10.38,9.87Z"/>
      <path d="M104.13,57.41l-7.49,5.09.36,2.35c.09.56.21.97.38,1.21.32.47.83.55,1.53.25l.28.41-5.98,4.06-.28-.41c.33-.31.53-.61.59-.89.07-.29.06-.75-.03-1.4l-2.23-16.08c-.09-.61-.24-1.08-.48-1.42-.27-.4-.75-.52-1.45-.38l-.28-.41,6.33-4.29.28.41c-.39.58-.43,1.09-.13,1.53.22.32.6.63,1.16.93l14.09,7.49c.77.4,1.32.63,1.64.69.32.06.71-.01,1.16-.21l.28.41-6.65,4.52-.28-.41c.56-.53.67-1.04.34-1.52-.2-.3-.58-.59-1.12-.87l-2.03-1.06ZM101.4,55.92l-6.22-3.43,1.02,6.96,5.21-3.53Z"/>
      <path d="M134.93,28.22l-.52,5.14-.48-.06c-.14-.36-.37-.6-.68-.71-.84-.31-1.94-.41-3.29-.29-1.35.12-2.65.42-3.89.91-1.06.42-1.94.93-2.64,1.55-1.01.89-1.35,1.74-1.04,2.54.21.53.64.8,1.3.8.65,0,1.82-.26,3.5-.77l2.66-.82c2.33-.72,4.21-.96,5.67-.72.81.13,1.55.44,2.24.93.86.61,1.49,1.42,1.89,2.45.74,1.86.48,3.67-.78,5.41-1.19,1.67-3.16,3.04-5.89,4.12-2.76,1.09-5.65,1.56-8.69,1.41-.2,0-.37.01-.49.06-.22.09-.37.3-.45.63h-.47s.11-5.22.11-5.22h.47c.03.07.04.11.05.13.11.28.32.48.61.59.73.27,1.84.31,3.32.13,1.48-.17,2.87-.52,4.18-1.04,1.16-.46,2.13-1.02,2.93-1.68.99-.82,1.32-1.64.99-2.47-.26-.66-.84-.97-1.73-.93-.59.03-1.59.26-3,.67l-2.65.8c-1.43.44-2.54.71-3.34.83-.8.11-1.54.11-2.22-.01-.87-.16-1.65-.54-2.34-1.14-.69-.6-1.21-1.34-1.56-2.24-.79-2.01-.53-3.88.77-5.61,1.19-1.58,2.94-2.82,5.25-3.74,1.25-.49,2.48-.82,3.67-.97,1.19-.15,2.68-.17,4.46-.07.53.03.88.01,1.05-.06.17-.07.35-.28.53-.62l.48.06Z"/>
      <path d="M233.19,33.99l-13.42-3.36-2.1,8.39c-.08.34-.07.63.05.85s.36.44.74.65l-.14.55-7.26-1.82.14-.55c.44-.01.76-.09.96-.23.21-.14.35-.38.44-.72l4.94-19.73c.08-.34.07-.62-.04-.84-.11-.22-.36-.44-.74-.66l.14-.55,7.26,1.82-.14.55c-.44,0-.76.07-.96.22-.21.15-.35.39-.44.73l-1.88,7.5,13.42,3.36,1.88-7.5c.08-.34.07-.62-.04-.85s-.36-.44-.74-.65l.14-.55,7.26,1.82-.14.55c-.44.01-.76.09-.96.23-.21.14-.35.38-.44.72l-4.94,19.73c-.08.34-.07.62.04.84.11.22.36.44.74.66l-.14.55-7.26-1.82.14-.55c.42,0,.74-.08.95-.22.21-.15.36-.39.45-.73l2.1-8.39Z"/>
      <path d="M264.53,53.55l-7.97-4.3-1.92,1.4c-.46.34-.76.63-.9.89-.27.5-.11.99.48,1.48l-.23.43-6.37-3.44.23-.43c.42.15.78.19,1.07.12.29-.07.7-.3,1.23-.67l13.24-9.39c.5-.36.85-.71,1.04-1.08.23-.42.12-.91-.33-1.46l.23-.43,6.73,3.63-.23.43c-.69-.08-1.16.12-1.42.59-.18.34-.28.83-.29,1.46l-.15,15.96c0,.87.04,1.46.14,1.77s.34.62.72.93l-.23.43-7.08-3.82.23-.43c.73.25,1.23.12,1.51-.4.17-.32.26-.78.25-1.4v-2.29ZM264.6,50.45l.17-7.1-5.71,4.11,5.54,2.99Z"/>
      <path d="M297.73,75.89l-.65,5.22-.5-.04c-.08-.34-.18-.56-.3-.67-.15-.13-.64-.28-1.47-.43-1.82-.36-3.32-.81-4.48-1.35-1.16-.54-2.34-1.35-3.55-2.41-2.41-2.13-3.86-4.44-4.36-6.93-.28-1.42-.23-2.85.13-4.29.4-1.55,1.16-2.96,2.27-4.21,1.53-1.73,3.38-2.82,5.55-3.26,3.4-.68,6.73.41,9.98,3.28,1.2,1.06,2.15,2.14,2.85,3.24.69,1.1,1.33,2.53,1.9,4.29.26.81.46,1.27.61,1.41.12.11.36.18.7.22l.09.5-5.08,1.26-.1-.47c.1-.1.17-.15.2-.17.08-.07.13-.12.16-.16.38-.43.21-1.44-.49-3.03-.67-1.51-1.57-2.77-2.71-3.78-1.6-1.41-3.29-2.16-5.07-2.23-2.02-.1-3.69.59-4.99,2.07-1.32,1.49-1.8,3.23-1.45,5.22.31,1.76,1.26,3.34,2.85,4.74,1.25,1.1,2.76,1.89,4.55,2.36,1.4.36,2.26.36,2.59-.01.02-.02.11-.15.29-.4l.49.03Z"/>
      <path d="M315.38,93.65l-3.48-.94-3.97,2.86c-.29.21-.47.44-.53.69-.06.25-.02.58.12.99l-.4.29-4.07-5.65.4-.29c.33.27.62.42.88.44.26.02.54-.07.83-.29l13.06-9.41c.29-.21.47-.44.53-.68.06-.24.01-.57-.13-.99l.4-.29,4.07,5.65-.4.29c-.34-.27-.64-.42-.89-.44s-.53.08-.82.29l-5.24,3.77,9.13,2.56c.67.19,1.14.19,1.41,0,.29-.21.28-.62-.03-1.24l.4-.29,5.17,7.18-.4.29c-.32-.32-.64-.54-.98-.67-.33-.13-1.26-.37-2.79-.73l-8.18-2.27-2.53,10.82c-.33,1.39-.51,2.35-.54,2.87s.07,1.03.28,1.52l-.4.29-5.04-6.99.4-.29c.5.43.88.56,1.13.38.09-.07.16-.17.21-.29s.15-.54.31-1.23l2.08-8.18Z"/>
      <path d="M331.84,122.73l-4.42,1.87,4.88,11.51c.14.33.33.56.55.67.22.11.56.14,1,.08l.19.45-5.36,2.27-.19-.45c.34-.26.54-.51.62-.76.08-.25.05-.54-.09-.88l-7.15-16.88.45-.19c.26.34.51.54.76.62.25.08.54.05.88-.09l14.83-6.28c.33-.14.56-.32.66-.55s.14-.56.09-.99l.45-.19,6.94,16.38c.15.35.33.58.56.69.23.11.56.14.99.09l.19.44-5.36,2.27-.19-.44c.35-.27.56-.53.63-.77s.04-.53-.11-.88l-4.66-11.01-3.98,1.69,2.89,6.83c.14.33.33.56.55.67.23.11.56.15,1,.1l.19.44-5.23,2.21-.18-.44c.34-.27.54-.53.62-.77.08-.24.04-.54-.1-.88l-2.89-6.83Z"/>
      <path d="M342.29,155.45l-6.18,1.1c-.36.06-.62.19-.78.39-.16.2-.27.51-.32.95l-.48.09-1.22-6.85.48-.09c.18.39.38.64.6.78.23.13.52.17.88.1l15.85-2.83c.36-.06.61-.19.77-.39.16-.19.26-.51.31-.95l.49-.09,2.26,12.7c.29,1.65.43,2.92.42,3.82-.01.9-.18,1.72-.5,2.48-.66,1.56-2.03,2.52-4.09,2.89-1.57.28-2.87.07-3.91-.63s-1.92-1.98-2.65-3.82l-4.46,4.58c-.82.84-1.37,1.49-1.64,1.94s-.4.95-.41,1.47l-.48.09-1.45-8.15.48-.09c.27.57.58.83.94.76.25-.05.61-.3,1.06-.76l4.85-4.86-.83-4.64ZM345.81,154.83l1.25,6.99c.19,1.06.44,1.83.77,2.29.44.66,1.12.91,2.04.74.82-.15,1.35-.5,1.58-1.06.23-.56.24-1.48,0-2.76l-1.25-6.99-4.4.78Z"/>
      <path d="M354.9,204.3l-4.49-2.55.25-.41c.39.01.7-.1.93-.33.62-.64,1.16-1.61,1.59-2.89.44-1.28.68-2.59.74-3.93.05-1.14-.07-2.15-.35-3.04-.41-1.28-1.04-1.94-1.91-1.98-.57-.02-.99.27-1.26.86-.26.6-.5,1.77-.71,3.51l-.32,2.77c-.28,2.42-.83,4.24-1.62,5.48-.45.69-1.04,1.24-1.76,1.67-.9.54-1.9.79-3,.74-2-.08-3.55-1.04-4.64-2.89-1.04-1.77-1.51-4.12-1.39-7.06.12-2.96.86-5.8,2.22-8.51.09-.18.14-.34.14-.47,0-.23-.12-.46-.4-.67l.19-.43,4.73,2.21-.19.43c-.07,0-.12,0-.14,0-.3-.01-.57.09-.79.32-.54.56-1.03,1.56-1.46,2.99s-.68,2.84-.74,4.25c-.05,1.24.07,2.36.36,3.36.35,1.23.97,1.87,1.86,1.9.71.03,1.23-.37,1.54-1.21.21-.55.41-1.56.59-3.02l.34-2.75c.18-1.48.37-2.61.59-3.39.22-.78.52-1.45.91-2.02.5-.73,1.16-1.29,1.98-1.68.83-.39,1.72-.56,2.68-.53,2.15.09,3.76,1.08,4.83,2.97.96,1.73,1.4,3.83,1.3,6.31-.05,1.35-.25,2.6-.6,3.75-.34,1.15-.92,2.52-1.74,4.11-.24.47-.37.8-.37.99,0,.19.11.43.36.74l-.25.41Z"/>
      <path d="M319.73,271.07l5.51-9.41-2.1-3.1c-.29-.43-.55-.71-.79-.85-.44-.26-.95-.1-1.52.47l-.49-.28,4.01-6.85.49.28c-.16.45-.2.84-.12,1.17s.33.8.76,1.42l11.45,16.93c.36.54.7.9,1,1.07.46.27.97.17,1.52-.29l.49.28-4.3,7.34-.49-.28c.18-.7.05-1.17-.37-1.42-.29-.17-.68-.27-1.17-.3l-20.58-1.46c-.87-.06-1.51-.04-1.9.07-.4.11-.76.35-1.09.73l-.49-.28,4.46-7.62.49.28c-.28.73-.16,1.25.35,1.55.21.12.58.21,1.12.25l3.75.28ZM323.33,271.43l9.34.96-5.38-7.73-3.97,6.77Z"/>
      <path d="M302.25,310.86l-1.68-4.89.46-.15c.28.27.58.39.92.36.89-.07,1.93-.44,3.11-1.12,1.18-.67,2.23-1.49,3.15-2.46.79-.82,1.37-1.66,1.75-2.51.54-1.23.5-2.15-.12-2.75-.42-.4-.92-.46-1.51-.18-.59.27-1.55.99-2.85,2.16l-2.07,1.86c-1.81,1.62-3.43,2.63-4.84,3.03-.79.22-1.6.25-2.42.09-1.03-.19-1.95-.67-2.74-1.43-1.45-1.38-1.97-3.13-1.56-5.24.39-2.01,1.59-4.09,3.63-6.21,2.05-2.14,4.48-3.78,7.3-4.92.19-.08.33-.17.42-.26.16-.17.21-.42.14-.76l.43-.2,2.09,4.79-.43.2c-.05-.05-.08-.08-.1-.1-.22-.21-.49-.3-.8-.28-.78.07-1.8.49-3.07,1.27-1.27.78-2.39,1.68-3.36,2.69-.86.9-1.51,1.82-1.95,2.75-.55,1.16-.51,2.04.13,2.66.52.49,1.17.53,1.95.12.52-.28,1.34-.9,2.44-1.87l2.07-1.84c1.11-1,2.01-1.71,2.69-2.15.68-.44,1.35-.74,2.02-.92.86-.22,1.72-.2,2.6.05.88.25,1.66.71,2.36,1.38,1.56,1.49,2.11,3.3,1.65,5.42-.42,1.93-1.49,3.8-3.21,5.59-.93.97-1.91,1.78-2.93,2.42-1.02.64-2.36,1.28-4.02,1.93-.49.19-.8.36-.93.49-.13.14-.2.4-.22.79l-.46.15Z"/>
      <path d="M273.96,332.22l-.62-5.13.48-.05c.22.32.49.5.82.55.89.12,1.98-.03,3.27-.44s2.49-1,3.59-1.75c.94-.64,1.68-1.34,2.23-2.09.79-1.09.94-1.99.45-2.71-.32-.47-.8-.64-1.44-.49-.64.14-1.72.65-3.24,1.52l-2.41,1.39c-2.11,1.21-3.9,1.86-5.37,1.96-.82.05-1.62-.09-2.39-.41-.97-.4-1.76-1.06-2.38-1.97-1.13-1.66-1.27-3.47-.44-5.45.8-1.89,2.41-3.66,4.84-5.32,2.45-1.67,5.17-2.77,8.16-3.29.2-.04.36-.09.46-.17.19-.13.29-.37.3-.71l.46-.1,1.04,5.12-.46.1c-.04-.06-.07-.1-.08-.12-.17-.25-.41-.4-.73-.44-.77-.1-1.86.1-3.27.6-1.41.5-2.69,1.14-3.85,1.93-1.03.7-1.85,1.46-2.48,2.29-.78,1.02-.92,1.89-.42,2.63.4.59,1.03.76,1.89.52.57-.16,1.5-.6,2.78-1.32l2.41-1.37c1.3-.74,2.32-1.26,3.08-1.54.75-.29,1.48-.45,2.16-.48.88-.04,1.73.16,2.53.59s1.48,1.04,2.02,1.84c1.21,1.78,1.38,3.66.49,5.65-.81,1.8-2.25,3.4-4.3,4.8-1.11.76-2.24,1.34-3.37,1.75-1.13.41-2.58.76-4.33,1.05-.52.09-.86.18-1.02.29-.15.11-.28.35-.38.72l-.48.05Z"/>
      <path d="M249.74,346.32c-2.91,1.15-5.63,1.36-8.16.65-3.03-.87-5.17-2.91-6.43-6.1-1.18-3-.96-5.85.66-8.55,1.34-2.24,3.46-3.93,6.37-5.08s5.62-1.36,8.13-.63c3.04.87,5.17,2.85,6.39,5.95,1.23,3.13,1.03,6.03-.61,8.71-1.36,2.21-3.47,3.9-6.34,5.07ZM248.36,342.86c1.89-.75,3.19-1.96,3.9-3.64.66-1.57.65-3.21-.03-4.92-.67-1.7-1.78-2.9-3.33-3.6-1.67-.75-3.46-.75-5.36,0-1.89.74-3.19,1.96-3.9,3.65-.66,1.56-.66,3.17,0,4.82.71,1.8,1.83,3.03,3.37,3.7,1.67.71,3.45.71,5.35-.01Z"/>
      <path d="M201.45,344.68l-3.55-3.88.36-.35c.31.16.54.22.7.2.2-.03.62-.31,1.28-.84,1.46-1.16,2.77-2,3.94-2.53s2.54-.91,4.13-1.14c3.18-.45,5.88-.06,8.1,1.17,1.26.71,2.32,1.67,3.18,2.88.92,1.31,1.5,2.8,1.74,4.46.33,2.29-.05,4.4-1.12,6.34-1.69,3.03-4.67,4.86-8.97,5.47-1.59.23-3.03.25-4.31.07-1.29-.18-2.79-.63-4.5-1.33-.78-.33-1.27-.48-1.47-.45-.16.02-.37.15-.62.39l-.45-.26,2.33-4.68.42.22c0,.14,0,.23,0,.26,0,.11,0,.18.02.23.08.57.96,1.09,2.62,1.59,1.58.47,3.13.6,4.64.38,2.11-.3,3.77-1.11,4.98-2.41,1.39-1.47,1.94-3.19,1.66-5.14-.28-1.97-1.29-3.46-3.04-4.49-1.54-.9-3.36-1.2-5.46-.9-1.65.24-3.23.88-4.75,1.94-1.18.83-1.74,1.49-1.67,1.98,0,.02.04.18.12.48l-.34.35Z"/>
      <path d="M178.35,355.67l.65-16.07c.01-.36-.06-.64-.21-.84-.16-.2-.44-.37-.86-.52l.02-.49,6.96.28-.02.49c-.41.09-.71.23-.89.42-.18.19-.27.47-.29.83l-.65,16.09c-.01.36.06.64.21.84.16.19.44.36.86.51l-.02.49-6.96-.28.02-.49c.43-.1.73-.24.9-.43s.26-.46.28-.82Z"/>
      <path d="M149.15,338.18l8.83,2,1.47-1.87c.35-.45.56-.82.63-1.1.12-.55-.16-.98-.86-1.29l.11-.48,7.05,1.6-.11.48c-.45-.03-.8.03-1.06.17s-.59.47-1.01.98l-10.23,12.6c-.38.48-.62.92-.71,1.32-.11.47.13.91.71,1.31l-.11.48-7.46-1.69.11-.48c.69-.11,1.09-.43,1.21-.95.09-.38.05-.87-.11-1.49l-4.15-15.41c-.23-.84-.43-1.39-.61-1.67-.18-.27-.49-.51-.94-.7l.11-.48,7.84,1.78-.11.48c-.77-.04-1.22.22-1.35.79-.08.35-.04.82.13,1.41l.61,2.2ZM149.92,341.18l1.74,6.89,4.39-5.5-6.14-1.39Z"/>
      <path d="M114.88,337.41l6.09-12.95c.15-.33.2-.61.13-.86-.07-.24-.26-.51-.59-.81l.21-.45,6.3,2.96-.21.45c-.42-.08-.74-.07-.98.04-.24.11-.44.33-.59.66l-6.1,12.96,5.25,2.47c.34.16.63.21.88.14.25-.07.51-.27.79-.59l.43.2-2.48,5.26-.43-.2c.08-.42.07-.74-.04-.98-.1-.24-.32-.43-.66-.59l-14.77-6.95c-.34-.16-.63-.21-.88-.14-.24.07-.51.27-.8.6l-.43-.2,2.48-5.27.43.2c-.07.43-.05.76.05.99.1.23.33.43.66.59l5.25,2.47Z"/>
      <path d="M89.89,324.56l9.19-13.21c.21-.3.3-.57.27-.83-.02-.25-.17-.55-.45-.9l.28-.4,5.71,3.98-.28.4c-.4-.15-.72-.19-.98-.12-.25.07-.48.25-.69.55l-9.2,13.22c-.21.3-.3.57-.27.82.03.25.18.54.45.89l-.28.4-5.71-3.98.28-.4c.41.14.74.18.99.12.25-.07.47-.25.68-.54Z"/>
      <path d="M66.56,307.53c-2.2-2.23-3.47-4.64-3.8-7.25-.39-3.13.64-5.9,3.08-8.31,2.29-2.27,5-3.18,8.12-2.76,2.58.35,4.98,1.64,7.18,3.86,2.2,2.23,3.46,4.63,3.78,7.22.4,3.14-.59,5.87-2.96,8.21-2.39,2.36-5.14,3.32-8.25,2.86-2.57-.38-4.95-1.66-7.15-3.84ZM69.2,304.9c1.43,1.44,3.05,2.16,4.88,2.16,1.7-.01,3.2-.67,4.51-1.96,1.3-1.29,1.97-2.78,2-4.48.03-1.83-.67-3.47-2.1-4.93-1.43-1.44-3.06-2.16-4.89-2.15-1.69,0-3.17.63-4.44,1.89-1.38,1.36-2.07,2.88-2.08,4.55,0,1.82.7,3.45,2.11,4.92Z"/>
      <path d="M51.16,277.42l9.55-5.77c.31-.19.51-.41.59-.65.08-.25.07-.58-.04-.99l.42-.25,3.38,5.6-.42.25c-.3-.3-.58-.47-.84-.51-.26-.04-.54.03-.85.22l-13.78,8.33c-.31.19-.5.4-.58.64s-.06.57.05,1l-.42.25-3.91-6.47.42-.25c.38.38.71.48.99.31.24-.15.42-.48.55-.99l3.5-14.46-9.28,5.61c-.31.19-.51.4-.59.64s-.06.57.06.99l-.42.25-3.38-5.6.42-.25c.32.3.6.47.85.51.25.04.53-.03.84-.22l13.77-8.32c.31-.19.51-.4.59-.64s.07-.57-.04-1l.42-.25,3.65,6.04-.42.25c-.36-.39-.67-.5-.95-.33-.14.08-.25.23-.32.44-.08.21-.2.66-.38,1.36l-3.41,14.28Z"/>
    </g>
  </g>
</svg>