  0
SECTION
  2
HEADER
  9
$ANGBASE
  50
0.0
  9
$ANGDIR
  70
1
  9
$MEASUREMENT
  70
0
  9
$INSUNITS
  70
1
  0
ENDSEC
  0
SECTION
  2
TABLES
  0
TABLE
  2
LTYPE
  70
4
  0
LTYPE
  5
40F
  2
CONTINUOUS
  70
0
  3
Solid line
  72
65
  73
0
  40
0.0
  0
LTYPE
  5
410
  2
DASHDOT
 70
0
  3
Dash Dot ____ _ ____ _
 72
65
 73
4
 40
2.0
 49
1.25
 49
-0.25
 49
0.25
 49
-0.25
  0
LTYPE
  5
411
  2
DASHED
 70
0
  3
Dashed __ __ __ __ __
 72
65
 73
2
 40
0.75
 49
0.5
 49
-0.25
  0
LTYPE
  5
43B
  2
DOTTED
 70
0
  3
Dotted .  .  .  .
 72
65
 73
2
 40
0.2
 49
0.0
 49
-0.2
  0
ENDTAB
  0
TABLE
  2
STYLE
  70
4
  0
STYLE
  2
KICAD
  70
0
  40
0
  41
1
  42
1
  50
0
  71
0
  3
isocp.shx
  0
STYLE
  2
KICADB
  70
0
  40
0
  41
1
  42
1
  50
0
  71
0
  3
isocp.shx
  0
STYLE
  2
KICADI
  70
0
  40
0
  41
1
  42
1
  50
15
  71
0
  3
isocp.shx
  0
STYLE
  2
KICADBI
  70
0
  40
0
  41
1
  42
1
  50
15
  71
0
  3
isocp.shx
  0
ENDTAB
  0
TABLE
  2
LAYER
  70
1
  0
LAYER
  2
BLACK
  70
0
  62
7
  6
CONTINUOUS
  0
ENDTAB
  0
ENDSEC
  0
SECTION
  2
ENTITIES
0
LINE
8
BLACK
6
CONTINUOUS
10
6.8031456692913386
20
-4.0236181102362201
11
6.704720472440945
21
-4.0236181102362201
0
LINE
8
BLACK
6
CONTINUOUS
10
6.704720472440945
20
-4.0236181102362201
11
6.704720472440945
21
-3.964562992125984
0
LINE
8
BLACK
6
CONTINUOUS
10
6.704720472440945
20
-3.964562992125984
11
6.8031456692913386
21
-3.964562992125984
0
LINE
8
BLACK
6
CONTINUOUS
10
6.8031456692913386
20
-3.964562992125984
11
6.8031456692913386
21
-4.0236181102362201
0
LINE
8
BLACK
6
CONTINUOUS
10
6.2755720078740156
20
-3.9495493700787399
11
6.2786853149606294
21
-3.9516296456692914
0
LINE
8
BLACK
6
CONTINUOUS
10
6.2786853149606294
20
-3.9516296456692914
11
6.280765590551181
21
-3.9547429527559053
0
LINE
8
BLACK
6
CONTINUOUS
10
6.280765590551181
20
-3.9547429527559053
11
6.2814960629921259
21
-3.9584153543307088
0
LINE
8
BLACK
6
CONTINUOUS
10
6.2814960629921259
20
-3.9584153543307088
11
6.2814960629921259
21
-3.9943405511811023
0
LINE
8
BLACK
6
CONTINUOUS
10
6.2814960629921259
20
-3.9943405511811023
11
6.280765590551181
21
-3.9980129527559054
0
LINE
8
BLACK
6
CONTINUOUS
10
6.280765590551181
20
-3.9980129527559054
11
6.2786853149606294
21
-4.0011262598425192
0
LINE
8
BLACK
6
CONTINUOUS
10
6.2786853149606294
20
-4.0011262598425192
11
6.2755720078740156
21
-4.0032065354330708
0
LINE
8
BLACK
6
CONTINUOUS
10
6.2755720078740156
20
-4.0032065354330708
11
6.2718996062992121
21
-4.0039370078740157
0
LINE
8
BLACK
6
CONTINUOUS
10
6.2718996062992121
20
-4.0039370078740157
11
6.2527066929133861
21
-4.0039370078740157
0
LINE
8
BLACK
6
CONTINUOUS
10
6.2527066929133861
20
-4.0039370078740157
11
6.2490342913385826
21
-4.0032065354330708
0
LINE
8
BLACK
6
CONTINUOUS
10
6.2490342913385826
20
-4.0032065354330708
11
6.2459209842519687
21
-4.0011262598425192
0
LINE
8
BLACK
6
CONTINUOUS
10
6.2459209842519687
20
-4.0011262598425192
11
6.2438407086614172
21
-3.9980129527559054
0
LINE
8
BLACK
6
CONTINUOUS
10
6.2438407086614172
20
-3.9980129527559054
11
6.2431102362204722
21
-3.9943405511811023
0
LINE
8
BLACK
6
CONTINUOUS
10
6.2431102362204722
20
-3.9943405511811023
11
6.2431102362204722
21
-3.9584153543307088
0
LINE
8
BLACK
6
CONTINUOUS
10
6.2431102362204722
20
-3.9584153543307088
11
6.2438407086614172
21
-3.9547429527559053
0
LINE
8
BLACK
6
CONTINUOUS
10
6.2438407086614172
20
-3.9547429527559053
11
6.2459209842519687
21
-3.9516296456692914
0
LINE
8
BLACK
6
CONTINUOUS
10
6.2459209842519687
20
-3.9516296456692914
11
6.2490342913385826
21
-3.9495493700787399
0
LINE
8
BLACK
6
CONTINUOUS
10
6.2490342913385826
20
-3.9495493700787399
11
6.2527066929133861
21
-3.9488188976377954
0
LINE
8
BLACK
6
CONTINUOUS
10
6.2527066929133861
20
-3.9488188976377954
11
6.2718996062992121
21
-3.9488188976377954
0
LINE
8
BLACK
6
CONTINUOUS
10
6.2718996062992121
20
-3.9488188976377954
11
6.2755720078740156
21
-3.9495493700787399
0
LINE
8
BLACK
6
CONTINUOUS
10
6.349390905511811
20
-3.9495493700787399
11
6.3525042125984248
21
-3.9516296456692914
0
LINE
8
BLACK
6
CONTINUOUS
10
6.3525042125984248
20
-3.9516296456692914
11
6.3545844881889764
21
-3.9547429527559053
0
LINE
8
BLACK
6
CONTINUOUS
10
6.3545844881889764
20
-3.9547429527559053
11
6.3553149606299213
21
-3.9584153543307088
0
LINE
8
BLACK
6
CONTINUOUS
10
6.3553149606299213
20
-3.9584153543307088
11
6.3553149606299213
21
-3.9943405511811023
0
LINE
8
BLACK
6
CONTINUOUS
10
6.3553149606299213
20
-3.9943405511811023
11
6.3545844881889764
21
-3.9980129527559054
0
LINE
8
BLACK
6
CONTINUOUS
10
6.3545844881889764
20
-3.9980129527559054
11
6.3525042125984248
21
-4.0011262598425192
0
LINE
8
BLACK
6
CONTINUOUS
10
6.3525042125984248
20
-4.0011262598425192
11
6.349390905511811
21
-4.0032065354330708
0
LINE
8
BLACK
6
CONTINUOUS
10
6.349390905511811
20
-4.0032065354330708
11
6.3457185039370074
21
-4.0039370078740157
0
LINE
8
BLACK
6
CONTINUOUS
10
6.3457185039370074
20
-4.0039370078740157
11
6.3265255905511806
21
-4.0039370078740157
0
LINE
8
BLACK
6
CONTINUOUS
10
6.3265255905511806
20
-4.0039370078740157
11
6.3228531889763779
21
-4.0032065354330708
0
LINE
8
BLACK
6
CONTINUOUS
10
6.3228531889763779
20
-4.0032065354330708
11
6.3197398818897632
21
-4.0011262598425192
0
LINE
8
BLACK
6
CONTINUOUS
10
6.3197398818897632
20
-4.0011262598425192
11
6.3176596062992125
21
-3.9980129527559054
0
LINE
8
BLACK
6
CONTINUOUS
10
6.3176596062992125
20
-3.9980129527559054
11
6.3169291338582676
21
-3.9943405511811023
0
LINE
8
BLACK
6
CONTINUOUS
10
6.3169291338582676
20
-3.9943405511811023
11
6.3169291338582676
21
-3.9584153543307088
0
LINE
8
BLACK
6
CONTINUOUS
10
6.3169291338582676
20
-3.9584153543307088
11
6.3176596062992125
21
-3.9547429527559053
0
LINE
8
BLACK
6
CONTINUOUS
10
6.3176596062992125
20
-3.9547429527559053
11
6.3197398818897632
21
-3.9516296456692914
0
LINE
8
BLACK
6
CONTINUOUS
10
6.3197398818897632
20
-3.9516296456692914
11
6.3228531889763779
21
-3.9495493700787399
0
LINE
8
BLACK
6
CONTINUOUS
10
6.3228531889763779
20
-3.9495493700787399
11
6.3265255905511806
21
-3.9488188976377954
0
LINE
8
BLACK
6
CONTINUOUS
10
6.3265255905511806
20
-3.9488188976377954
11
6.3457185039370074
21
-3.9488188976377954
0
LINE
8
BLACK
6
CONTINUOUS
10
6.3457185039370074
20
-3.9488188976377954
11
6.349390905511811
21
-3.9495493700787399
0
LINE
8
BLACK
6
CONTINUOUS
10
5.8134292913385828
20
-3.9534301968503938
11
5.8163031102362206
21
-3.955350433070866
0
LINE
8
BLACK
6
CONTINUOUS
10
5.8163031102362206
20
-3.955350433070866
11
5.8182233464566924
21
-3.9582242519685038
0
LINE
8
BLACK
6
CONTINUOUS
10
5.8182233464566924
20
-3.9582242519685038
11
5.818897637795275
21
-3.9616141732283463
0
LINE
8
BLACK
6
CONTINUOUS
10
5.818897637795275
20
-3.9616141732283463
11
5.818897637795275
21
-3.9911417322834644
0
LINE
8
BLACK
6
CONTINUOUS
10
5.818897637795275
20
-3.9911417322834644
11
5.8182233464566924
21
-3.9945316535433069
0
LINE
8
BLACK
6
CONTINUOUS
10
5.8182233464566924
20
-3.9945316535433069
11
5.8163031102362206
21
-3.9974054724409447
0
LINE
8
BLACK
6
CONTINUOUS
10
5.8163031102362206
20
-3.9974054724409447
11
5.8134292913385828
21
-3.9993257086614173
0
LINE
8
BLACK
6
CONTINUOUS
10
5.8134292913385828
20
-3.9993257086614173
11
5.8100393700787398
21
-4.
0
LINE
8
BLACK
6
CONTINUOUS
10
5.8100393700787398
20
-4.
11
5.7923228346456694
21
-4.
0
LINE
8
BLACK
6
CONTINUOUS
10
5.7923228346456694
20
-4.
11
5.7889329133858265
21
-3.9993257086614173
0
LINE
8
BLACK
6
CONTINUOUS
10
5.7889329133858265
20
-3.9993257086614173
11
5.7860590944881887
21
-3.9974054724409447
0
LINE
8
BLACK
6
CONTINUOUS
10
5.7860590944881887
20
-3.9974054724409447
11
5.784138858267716
21
-3.9945316535433069
0
LINE
8
BLACK
6
CONTINUOUS
10
5.784138858267716
20
-3.9945316535433069
11
5.7834645669291334
21
-3.9911417322834644
0
LINE
8
BLACK
6
CONTINUOUS
10
5.7834645669291334
20
-3.9911417322834644
11
5.7834645669291334
21
-3.9616141732283463
0
LINE
8
BLACK
6
CONTINUOUS
10
5.7834645669291334
20
-3.9616141732283463
11
5.784138858267716
21
-3.9582242519685038
0
LINE
8
BLACK
6
CONTINUOUS
10
5.784138858267716
20
-3.9582242519685038
11
5.7860590944881887
21
-3.955350433070866
0
LINE
8
BLACK
6
CONTINUOUS
10
5.7860590944881887
20
-3.955350433070866
11
5.7889329133858265
21
-3.9534301968503938
0
LINE
8
BLACK
6
CONTINUOUS
10
5.7889329133858265
20
-3.9534301968503938
11
5.7923228346456694
21
-3.9527559055118111
0
LINE
8
BLACK
6
CONTINUOUS
10
5.7923228346456694
20
-3.9527559055118111
11
5.8100393700787398
21
-3.9527559055118111
0
LINE
8
BLACK
6
CONTINUOUS
10
5.8100393700787398
20
-3.9527559055118111
11
5.8134292913385828
21
-3.9534301968503938
0
LINE
8
BLACK
6
CONTINUOUS
10
5.9433505511811022
20
-3.9534301968503938
11
5.9462243700787401
21
-3.955350433070866
0
LINE
8
BLACK
6
CONTINUOUS
10
5.9462243700787401
20
-3.955350433070866
11
5.9481446062992127
21
-3.9582242519685038
0
LINE
8
BLACK
6
CONTINUOUS
10
5.9481446062992127
20
-3.9582242519685038
11
5.9488188976377954
21
-3.9616141732283463
0
LINE
8
BLACK
6
CONTINUOUS
10
5.9488188976377954
20
-3.9616141732283463
11
5.9488188976377954
21
-3.9911417322834644
0
LINE
8
BLACK
6
CONTINUOUS
10
5.9488188976377954
20
-3.9911417322834644
11
5.9481446062992127
21
-3.9945316535433069
0
LINE
8
BLACK
6
CONTINUOUS
10
5.9481446062992127
20
-3.9945316535433069
11
5.9462243700787401
21
-3.9974054724409447
0
LINE
8
BLACK
6
CONTINUOUS
10
5.9462243700787401
20
-3.9974054724409447
11
5.9433505511811022
21
-3.9993257086614173
0
LINE
8
BLACK
6
CONTINUOUS
10
5.9433505511811022
20
-3.9993257086614173
11
5.9399606299212593
21
-4.
0
LINE
8
BLACK
6
CONTINUOUS
10
5.9399606299212593
20
-4.
11
5.9222440944881889
21
-4.
0
LINE
8
BLACK
6
CONTINUOUS
10
5.9222440944881889
20
-4.
11
5.9188541732283459
21
-3.9993257086614173
0
LINE
8
BLACK
6
CONTINUOUS
10
5.9188541732283459
20
-3.9993257086614173
11
5.9159803543307081
21
-3.9974054724409447
0
LINE
8
BLACK
6
CONTINUOUS
10
5.9159803543307081
20
-3.9974054724409447
11
5.9140601181102364
21
-3.9945316535433069
0
LINE
8
BLACK
6
CONTINUOUS
10
5.9140601181102364
20
-3.9945316535433069
11
5.9133858267716537
21
-3.9911417322834644
0
LINE
8
BLACK
6
CONTINUOUS
10
5.9133858267716537
20
-3.9911417322834644
11
5.9133858267716537
21
-3.9616141732283463
0
LINE
8
BLACK
6
CONTINUOUS
10
5.9133858267716537
20
-3.9616141732283463
11
5.9140601181102364
21
-3.9582242519685038
0
LINE
8
BLACK
6
CONTINUOUS
10
5.9140601181102364
20
-3.9582242519685038
11
5.9159803543307081
21
-3.955350433070866
0
LINE
8
BLACK
6
CONTINUOUS
10
5.9159803543307081
20
-3.955350433070866
11
5.9188541732283459
21
-3.9534301968503938
0
LINE
8
BLACK
6
CONTINUOUS
10
5.9188541732283459
20
-3.9534301968503938
11
5.9222440944881889
21
-3.9527559055118111
0
LINE
8
BLACK
6
CONTINUOUS
10
5.9222440944881889
20
-3.9527559055118111
11
5.9399606299212593
21
-3.9527559055118111
0
LINE
8
BLACK
6
CONTINUOUS
10
5.9399606299212593
20
-3.9527559055118111
11
5.9433505511811022
21
-3.9534301968503938
0
LINE
8
BLACK
6
CONTINUOUS
10
6.0787216141732285
20
-3.8904942519685037
11
6.0818349212598424
21
-3.8925745275590549
0
LINE
8
BLACK
6
CONTINUOUS
10
6.0818349212598424
20
-3.8925745275590549
11
6.0839151968503939
21
-3.8956878346456691
0
LINE
8
BLACK
6
CONTINUOUS
10
6.0839151968503939
20
-3.8956878346456691
11
6.0846456692913389
21
-3.8993602362204722
0
LINE
8
BLACK
6
CONTINUOUS
10
6.0846456692913389
20
-3.8993602362204722
11
6.0846456692913389
21
-3.9352854330708662
0
LINE
8
BLACK
6
CONTINUOUS
10
6.0846456692913389
20
-3.9352854330708662
11
6.0839151968503939
21
-3.9389578346456693
0
LINE
8
BLACK
6
CONTINUOUS
10
6.0839151968503939
20
-3.9389578346456693
11
6.0818349212598424
21
-3.9420711417322836
0
LINE
8
BLACK
6
CONTINUOUS
10
6.0818349212598424
20
-3.9420711417322836
11
6.0787216141732285
21
-3.9441514173228347
0
LINE
8
BLACK
6
CONTINUOUS
10
6.0787216141732285
20
-3.9441514173228347
11
6.075049212598425
21
-3.9448818897637796
0
LINE
8
BLACK
6
CONTINUOUS
10
6.075049212598425
20
-3.9448818897637796
11
6.0558562992125982
21
-3.9448818897637796
0
LINE
8
BLACK
6
CONTINUOUS
10
6.0558562992125982
20
-3.9448818897637796
11
6.0521838976377955
21
-3.9441514173228347
0
LINE
8
BLACK
6
CONTINUOUS
10
6.0521838976377955
20
-3.9441514173228347
11
6.0490705905511808
21
-3.9420711417322836
0
LINE
8
BLACK
6
CONTINUOUS
10
6.0490705905511808
20
-3.9420711417322836
11
6.0469903149606301
21
-3.9389578346456693
0
LINE
8
BLACK
6
CONTINUOUS
10
6.0469903149606301
20
-3.9389578346456693
11
6.0462598425196852
21
-3.9352854330708662
0
LINE
8
BLACK
6
CONTINUOUS
10
6.0462598425196852
20
-3.9352854330708662
11
6.0462598425196852
21
-3.8993602362204722
0
LINE
8
BLACK
6
CONTINUOUS
10
6.0462598425196852
20
-3.8993602362204722
11
6.0469903149606301
21
-3.8956878346456691
0
LINE
8
BLACK
6
CONTINUOUS
10
6.0469903149606301
20
-3.8956878346456691
11
6.0490705905511808
21
-3.8925745275590549
0
LINE
8
BLACK
6
CONTINUOUS
10
6.0490705905511808
20
-3.8925745275590549
11
6.0521838976377955
21
-3.8904942519685037
0
LINE
8
BLACK
6
CONTINUOUS
10
6.0521838976377955
20
-3.8904942519685037
11
6.0558562992125982
21
-3.8897637795275588
0
LINE
8
BLACK
6
CONTINUOUS
10
6.0558562992125982
20
-3.8897637795275588
11
6.075049212598425
21
-3.8897637795275588
0
LINE
8
BLACK
6
CONTINUOUS
10
6.075049212598425
20
-3.8897637795275588
11
6.0787216141732285
21
-3.8904942519685037
0
LINE
8
BLACK
6
CONTINUOUS
10
6.1525405118110239
20
-3.8904942519685037
11
6.1556538188976377
21
-3.8925745275590549
0
LINE
8
BLACK
6
CONTINUOUS
10
6.1556538188976377
20
-3.8925745275590549
11
6.1577340944881884
21
-3.8956878346456691
0
LINE
8
BLACK
6
CONTINUOUS
10
6.1577340944881884
20
-3.8956878346456691
11
6.1584645669291334
21
-3.8993602362204722
0
LINE
8
BLACK
6
CONTINUOUS
10
6.1584645669291334
20
-3.8993602362204722
11
6.1584645669291334
21
-3.9352854330708662
0
LINE
8
BLACK
6
CONTINUOUS
10
6.1584645669291334
20
-3.9352854330708662
11
6.1577340944881884
21
-3.9389578346456693
0
LINE
8
BLACK
6
CONTINUOUS
10
6.1577340944881884
20
-3.9389578346456693
11
6.1556538188976377
21
-3.9420711417322836
0
LINE
8
BLACK
6
CONTINUOUS
10
6.1556538188976377
20
-3.9420711417322836
11
6.1525405118110239
21
-3.9441514173228347
0
LINE
8
BLACK
6
CONTINUOUS
10
6.1525405118110239
20
-3.9441514173228347
11
6.1488681102362204
21
-3.9448818897637796
0
LINE
8
BLACK
6
CONTINUOUS
10
6.1488681102362204
20
-3.9448818897637796
11
6.1296751968503935
21
-3.9448818897637796
0
LINE
8
BLACK
6
CONTINUOUS
10
6.1296751968503935
20
-3.9448818897637796
11
6.12600279527559
21
-3.9441514173228347
0
LINE
8
BLACK
6
CONTINUOUS
10
6.12600279527559
20
-3.9441514173228347
11
6.1228894881889762
21
-3.9420711417322836
0
LINE
8
BLACK
6
CONTINUOUS
10
6.1228894881889762
20
-3.9420711417322836
11
6.1208092125984255
21
-3.9389578346456693
0
LINE
8
BLACK
6
CONTINUOUS
10
6.1208092125984255
20
-3.9389578346456693
11
6.1200787401574805
21
-3.9352854330708662
0
LINE
8
BLACK
6
CONTINUOUS
10
6.1200787401574805
20
-3.9352854330708662
11
6.1200787401574805
21
-3.8993602362204722
0
LINE
8
BLACK
6
CONTINUOUS
10
6.1200787401574805
20
-3.8993602362204722
11
6.1208092125984255
21
-3.8956878346456691
0
LINE
8
BLACK
6
CONTINUOUS
10
6.1208092125984255
20
-3.8956878346456691
11
6.1228894881889762
21
-3.8925745275590549
0
LINE
8
BLACK
6
CONTINUOUS
10
6.1228894881889762
20
-3.8925745275590549
11
6.12600279527559
21
-3.8904942519685037
0
LINE
8
BLACK
6
CONTINUOUS
10
6.12600279527559
20
-3.8904942519685037
11
6.1296751968503935
21
-3.8897637795275588
0
LINE
8
BLACK
6
CONTINUOUS
10
6.1296751968503935
20
-3.8897637795275588
11
6.1488681102362204
21
-3.8897637795275588
0
LINE
8
BLACK
6
CONTINUOUS
10
6.1488681102362204
20
-3.8897637795275588
11
6.1525405118110239
21
-3.8904942519685037
0
LINE
8
BLACK
6
CONTINUOUS
10
6.6614212598425198
20
-3.9340511811023622
11
6.6023661417322836
21
-3.9340511811023622
0
LINE
8
BLACK
6
CONTINUOUS
10
6.6023661417322836
20
-3.9340511811023622
11
6.6023661417322836
21
-3.9202716535433071
0
LINE
8
BLACK
6
CONTINUOUS
10
6.6023661417322836
20
-3.9202716535433071
11
6.6614212598425198
21
-3.9202716535433071
0
LINE
8
BLACK
6
CONTINUOUS
10
6.6614212598425198
20
-3.9202716535433071
11
6.6614212598425198
21
-3.9340511811023622
0
LINE
8
BLACK
6
CONTINUOUS
10
5.6062806692913387
20
-3.8609666929133857
11
5.6093939763779526
21
-3.8630469685039368
0
LINE
8
BLACK
6
CONTINUOUS
10
5.6093939763779526
20
-3.8630469685039368
11
5.6114742519685041
21
-3.8661602755905511
0
LINE
8
BLACK
6
CONTINUOUS
10
5.6114742519685041
20
-3.8661602755905511
11
5.6122047244094491
21
-3.8698326771653542
0
LINE
8
BLACK
6
CONTINUOUS
10
5.6122047244094491
20
-3.8698326771653542
11
5.6122047244094491
21
-3.9057578740157481
0
LINE
8
BLACK
6
CONTINUOUS
10
5.6122047244094491
20
-3.9057578740157481
11
5.6114742519685041
21
-3.9094302755905512
0
LINE
8
BLACK
6
CONTINUOUS
10
5.6114742519685041
20
-3.9094302755905512
11
5.6093939763779526
21
-3.9125435826771651
0
LINE
8
BLACK
6
CONTINUOUS
10
5.6093939763779526
20
-3.9125435826771651
11
5.6062806692913387
21
-3.9146238582677166
0
LINE
8
BLACK
6
CONTINUOUS
10
5.6062806692913387
20
-3.9146238582677166
11
5.6026082677165352
21
-3.9153543307086611
0
LINE
8
BLACK
6
CONTINUOUS
10
5.6026082677165352
20
-3.9153543307086611
11
5.5834153543307083
21
-3.9153543307086611
0
LINE
8
BLACK
6
CONTINUOUS
10
5.5834153543307083
20
-3.9153543307086611
11
5.5797429527559057
21
-3.9146238582677166
0
LINE
8
BLACK
6
CONTINUOUS
10
5.5797429527559057
20
-3.9146238582677166
11
5.576629645669291
21
-3.9125435826771651
0
LINE
8
BLACK
6
CONTINUOUS
10
5.576629645669291
20
-3.9125435826771651
11
5.5745493700787403
21
-3.9094302755905512
0
LINE
8
BLACK
6
CONTINUOUS
10
5.5745493700787403
20
-3.9094302755905512
11
5.5738188976377954
21
-3.9057578740157481
0
LINE
8
BLACK
6
CONTINUOUS
10
5.5738188976377954
20
-3.9057578740157481
11
5.5738188976377954
21
-3.8698326771653542
0
LINE
8
BLACK
6
CONTINUOUS
10
5.5738188976377954
20
-3.8698326771653542
11
5.5745493700787403
21
-3.8661602755905511
0
LINE
8
BLACK
6
CONTINUOUS
10
5.5745493700787403
20
-3.8661602755905511
11
5.576629645669291
21
-3.8630469685039368
0
LINE
8
BLACK
6
CONTINUOUS
10
5.576629645669291
20
-3.8630469685039368
11
5.5797429527559057
21
-3.8609666929133857
0
LINE
8
BLACK
6
CONTINUOUS
10
5.5797429527559057
20
-3.8609666929133857
11
5.5834153543307083
21
-3.8602362204724407
0
LINE
8
BLACK
6
CONTINUOUS
10
5.5834153543307083
20
-3.8602362204724407
11
5.6026082677165352
21
-3.8602362204724407
0
LINE
8
BLACK
6
CONTINUOUS
10
5.6026082677165352
20
-3.8602362204724407
11
5.6062806692913387
21
-3.8609666929133857
0
LINE
8
BLACK
6
CONTINUOUS
10
5.6800995669291341
20
-3.8609666929133857
11
5.6832128740157479
21
-3.8630469685039368
0
LINE
8
BLACK
6
CONTINUOUS
10
5.6832128740157479
20
-3.8630469685039368
11
5.6852931496062995
21
-3.8661602755905511
0
LINE
8
BLACK
6
CONTINUOUS
10
5.6852931496062995
20
-3.8661602755905511
11
5.6860236220472435
21
-3.8698326771653542
0
LINE
8
BLACK
6
CONTINUOUS
10
5.6860236220472435
20
-3.8698326771653542
11
5.6860236220472435
21
-3.9057578740157481
0
LINE
8
BLACK
6
CONTINUOUS
10
5.6860236220472435
20
-3.9057578740157481
11
5.6852931496062995
21
-3.9094302755905512
0
LINE
8
BLACK
6
CONTINUOUS
10
5.6852931496062995
20
-3.9094302755905512
11
5.6832128740157479
21
-3.9125435826771651
0
LINE
8
BLACK
6
CONTINUOUS
10
5.6832128740157479
20
-3.9125435826771651
11
5.6800995669291341
21
-3.9146238582677166
0
LINE
8
BLACK
6
CONTINUOUS
10
5.6800995669291341
20
-3.9146238582677166
11
5.6764271653543306
21
-3.9153543307086611
0
LINE
8
BLACK
6
CONTINUOUS
10
5.6764271653543306
20
-3.9153543307086611
11
5.6572342519685037
21
-3.9153543307086611
0
LINE
8
BLACK
6
CONTINUOUS
10
5.6572342519685037
20
-3.9153543307086611
11
5.6535618503937011
21
-3.9146238582677166
0
LINE
8
BLACK
6
CONTINUOUS
10
5.6535618503937011
20
-3.9146238582677166
11
5.6504485433070863
21
-3.9125435826771651
0
LINE
8
BLACK
6
CONTINUOUS
10
5.6504485433070863
20
-3.9125435826771651
11
5.6483682677165357
21
-3.9094302755905512
0
LINE
8
BLACK
6
CONTINUOUS
10
5.6483682677165357
20
-3.9094302755905512
11
5.6476377952755907
21
-3.9057578740157481
0
LINE
8
BLACK
6
CONTINUOUS
10
5.6476377952755907
20
-3.9057578740157481
11
5.6476377952755907
21
-3.8698326771653542
0
LINE
8
BLACK
6
CONTINUOUS
10
5.6476377952755907
20
-3.8698326771653542
11
5.6483682677165357
21
-3.8661602755905511
0
LINE
8
BLACK
6
CONTINUOUS
10
5.6483682677165357
20
-3.8661602755905511
11
5.6504485433070863
21
-3.8630469685039368
0
LINE
8
BLACK
6
CONTINUOUS
10
5.6504485433070863
20
-3.8630469685039368
11
5.6535618503937011
21
-3.8609666929133857
0
LINE
8
BLACK
6
CONTINUOUS
10
5.6535618503937011
20
-3.8609666929133857
11
5.6572342519685037
21
-3.8602362204724407
0
LINE
8
BLACK
6
CONTINUOUS
10
5.6572342519685037
20
-3.8602362204724407
11
5.6764271653543306
21
-3.8602362204724407
0
LINE
8
BLACK
6
CONTINUOUS
10
5.6764271653543306
20
-3.8602362204724407
11
5.6800995669291341
21
-3.8609666929133857
0
LINE
8
BLACK
6
CONTINUOUS
10
6.6614212598425198
20
-3.9143740157480313
11
6.6023661417322836
21
-3.9143740157480313
0
LINE
8
BLACK
6
CONTINUOUS
10
6.6023661417322836
20
-3.9143740157480313
11
6.6023661417322836
21
-3.9005944881889762
0
LINE
8
BLACK
6
CONTINUOUS
10
6.6023661417322836
20
-3.9005944881889762
11
6.6614212598425198
21
-3.9005944881889762
0
LINE
8
BLACK
6
CONTINUOUS
10
6.6614212598425198
20
-3.9005944881889762
11
6.6614212598425198
21
-3.9143740157480313
0
LINE
8
BLACK
6
CONTINUOUS
10
6.6614212598425198
20
-3.8946811023622048
11
6.6023661417322836
21
-3.8946811023622048
0
LINE
8
BLACK
6
CONTINUOUS
10
6.6023661417322836
20
-3.8946811023622048
11
6.6023661417322836
21
-3.8809015748031497
0
LINE
8
BLACK
6
CONTINUOUS
10
6.6023661417322836
20
-3.8809015748031497
11
6.6614212598425198
21
-3.8809015748031497
0
LINE
8
BLACK
6
CONTINUOUS
10
6.6614212598425198
20
-3.8809015748031497
11
6.6614212598425198
21
-3.8946811023622048
0
LINE
8
BLACK
6
CONTINUOUS
10
6.6614212598425198
20
-3.8750039370078739
11
6.6023661417322836
21
-3.8750039370078739
0
LINE
8
BLACK
6
CONTINUOUS
10
6.6023661417322836
20
-3.8750039370078739
11
6.6023661417322836
21
-3.8612244094488188
0
LINE
8
BLACK
6
CONTINUOUS
10
6.6023661417322836
20
-3.8612244094488188
11
6.6614212598425198
21
-3.8612244094488188
0
LINE
8
BLACK
6
CONTINUOUS
10
6.6614212598425198
20
-3.8612244094488188
11
6.6614212598425198
21
-3.8750039370078739
0
LINE
8
BLACK
6
CONTINUOUS
10
6.2755720078740156
20
-3.8117540944881889
11
6.2786853149606294
21
-3.81383437007874
0
LINE
8
BLACK
6
CONTINUOUS
10
6.2786853149606294
20
-3.81383437007874
11
6.280765590551181
21
-3.8169476771653543
0
LINE
8
BLACK
6
CONTINUOUS
10
6.280765590551181
20
-3.8169476771653543
11
6.2814960629921259
21
-3.8206200787401574
0
LINE
8
BLACK
6
CONTINUOUS
10
6.2814960629921259
20
-3.8206200787401574
11
6.2814960629921259
21
-3.8565452755905509
0
LINE
8
BLACK
6
CONTINUOUS
10
6.2814960629921259
20
-3.8565452755905509
11
6.280765590551181
21
-3.860217677165354
0
LINE
8
BLACK
6
CONTINUOUS
10
6.280765590551181
20
-3.860217677165354
11
6.2786853149606294
21
-3.8633309842519683
0
LINE
8
BLACK
6
CONTINUOUS
10
6.2786853149606294
20
-3.8633309842519683
11
6.2755720078740156
21
-3.8654112598425194
0
LINE
8
BLACK
6
CONTINUOUS
10
6.2755720078740156
20
-3.8654112598425194
11
6.2718996062992121
21
-3.8661417322834644
0
LINE
8
BLACK
6
CONTINUOUS
10
6.2718996062992121
20
-3.8661417322834644
11
6.2527066929133861
21
-3.8661417322834644
0
LINE
8
BLACK
6
CONTINUOUS
10
6.2527066929133861
20
-3.8661417322834644
11
6.2490342913385826
21
-3.8654112598425194
0
LINE
8
BLACK
6
CONTINUOUS
10
6.2490342913385826
20
-3.8654112598425194
11
6.2459209842519687
21
-3.8633309842519683
0
LINE
8
BLACK
6
CONTINUOUS
10
6.2459209842519687
20
-3.8633309842519683
11
6.2438407086614172
21
-3.860217677165354
0
LINE
8
BLACK
6
CONTINUOUS
10
6.2438407086614172
20
-3.860217677165354
11
6.2431102362204722
21
-3.8565452755905509
0
LINE
8
BLACK
6
CONTINUOUS
10
6.2431102362204722
20
-3.8565452755905509
11
6.2431102362204722
21
-3.8206200787401574
0
LINE
8
BLACK
6
CONTINUOUS
10
6.2431102362204722
20
-3.8206200787401574
11
6.2438407086614172
21
-3.8169476771653543
0
LINE
8
BLACK
6
CONTINUOUS
10
6.2438407086614172
20
-3.8169476771653543
11
6.2459209842519687
21
-3.81383437007874
0
LINE
8
BLACK
6
CONTINUOUS
10
6.2459209842519687
20
-3.81383437007874
11
6.2490342913385826
21
-3.8117540944881889
0
LINE
8
BLACK
6
CONTINUOUS
10
6.2490342913385826
20
-3.8117540944881889
11
6.2527066929133861
21
-3.811023622047244
0
LINE
8
BLACK
6
CONTINUOUS
10
6.2527066929133861
20
-3.811023622047244
11
6.2718996062992121
21
-3.811023622047244
0
LINE
8
BLACK
6
CONTINUOUS
10
6.2718996062992121
20
-3.811023622047244
11
6.2755720078740156
21
-3.8117540944881889
0
LINE
8
BLACK
6
CONTINUOUS
10
6.349390905511811
20
-3.8117540944881889
11
6.3525042125984248
21
-3.81383437007874
0
LINE
8
BLACK
6
CONTINUOUS
10
6.3525042125984248
20
-3.81383437007874
11
6.3545844881889764
21
-3.8169476771653543
0
LINE
8
BLACK
6
CONTINUOUS
10
6.3545844881889764
20
-3.8169476771653543
11
6.3553149606299213
21
-3.8206200787401574
0
LINE
8
BLACK
6
CONTINUOUS
10
6.3553149606299213
20
-3.8206200787401574
11
6.3553149606299213
21
-3.8565452755905509
0
LINE
8
BLACK
6
CONTINUOUS
10
6.3553149606299213
20
-3.8565452755905509
11
6.3545844881889764
21
-3.860217677165354
0
LINE
8
BLACK
6
CONTINUOUS
10
6.3545844881889764
20
-3.860217677165354
11
6.3525042125984248
21
-3.8633309842519683
0
LINE
8
BLACK
6
CONTINUOUS
10
6.3525042125984248
20
-3.8633309842519683
11
6.349390905511811
21
-3.8654112598425194
0
LINE
8
BLACK
6
CONTINUOUS
10
6.349390905511811
20
-3.8654112598425194
11
6.3457185039370074
21
-3.8661417322834644
0
LINE
8
BLACK
6
CONTINUOUS
10
6.3457185039370074
20
-3.8661417322834644
11
6.3265255905511806
21
-3.8661417322834644
0
LINE
8
BLACK
6
CONTINUOUS
10
6.3265255905511806
20
-3.8661417322834644
11
6.3228531889763779
21
-3.8654112598425194
0
LINE
8
BLACK
6
CONTINUOUS
10
6.3228531889763779
20
-3.8654112598425194
11
6.3197398818897632
21
-3.8633309842519683
0
LINE
8
BLACK
6
CONTINUOUS
10
6.3197398818897632
20
-3.8633309842519683
11
6.3176596062992125
21
-3.860217677165354
0
LINE
8
BLACK
6
CONTINUOUS
10
6.3176596062992125
20
-3.860217677165354
11
6.3169291338582676
21
-3.8565452755905509
0
LINE
8
BLACK
6
CONTINUOUS
10
6.3169291338582676
20
-3.8565452755905509
11
6.3169291338582676
21
-3.8206200787401574
0
LINE
8
BLACK
6
CONTINUOUS
10
6.3169291338582676
20
-3.8206200787401574
11
6.3176596062992125
21
-3.8169476771653543
0
LINE
8
BLACK
6
CONTINUOUS
10
6.3176596062992125
20
-3.8169476771653543
11
6.3197398818897632
21
-3.81383437007874
0
LINE
8
BLACK
6
CONTINUOUS
10
6.3197398818897632
20
-3.81383437007874
11
6.3228531889763779
21
-3.8117540944881889
0
LINE
8
BLACK
6
CONTINUOUS
10
6.3228531889763779
20
-3.8117540944881889
11
6.3265255905511806
21
-3.811023622047244
0
LINE
8
BLACK
6
CONTINUOUS
10
6.3265255905511806
20
-3.811023622047244
11
6.3457185039370074
21
-3.811023622047244
0
LINE
8
BLACK
6
CONTINUOUS
10
6.3457185039370074
20
-3.811023622047244
11
6.349390905511811
21
-3.8117540944881889
0
LINE
8
BLACK
6
CONTINUOUS
10
6.6614212598425198
20
-3.8553110236220474
11
6.6023661417322836
21
-3.8553110236220474
0
LINE
8
BLACK
6
CONTINUOUS
10
6.6023661417322836
20
-3.8553110236220474
11
6.6023661417322836
21
-3.8415314960629918
0
LINE
8
BLACK
6
CONTINUOUS
10
6.6023661417322836
20
-3.8415314960629918
11
6.6614212598425198
21
-3.8415314960629918
0
LINE
8
BLACK
6
CONTINUOUS
10
6.6614212598425198
20
-3.8415314960629918
11
6.6614212598425198
21
-3.8553110236220474
0
LINE
8
BLACK
6
CONTINUOUS
10
5.8134292913385828
20
-3.7959498818897637
11
5.8163031102362206
21
-3.7978701181102363
0
LINE
8
BLACK
6
CONTINUOUS
10
5.8163031102362206
20
-3.7978701181102363
11
5.8182233464566924
21
-3.8007439370078737
0
LINE
8
BLACK
6
CONTINUOUS
10
5.8182233464566924
20
-3.8007439370078737
11
5.818897637795275
21
-3.8041338582677167
0
LINE
8
BLACK
6
CONTINUOUS
10
5.818897637795275
20
-3.8041338582677167
11
5.818897637795275
21
-3.8336614173228347
0
LINE
8
BLACK
6
CONTINUOUS
10
5.818897637795275
20
-3.8336614173228347
11
5.8182233464566924
21
-3.8370513385826772
0
LINE
8
BLACK
6
CONTINUOUS
10
5.8182233464566924
20
-3.8370513385826772
11
5.8163031102362206
21
-3.839925157480315
0
LINE
8
BLACK
6
CONTINUOUS
10
5.8163031102362206
20
-3.839925157480315
11
5.8134292913385828
21
-3.8418453937007873
0
LINE
8
BLACK
6
CONTINUOUS
10
5.8134292913385828
20
-3.8418453937007873
11
5.8100393700787398
21
-3.8425196850393699
0
LINE
8
BLACK
6
CONTINUOUS
10
5.8100393700787398
20
-3.8425196850393699
11
5.7923228346456694
21
-3.8425196850393699
0
LINE
8
BLACK
6
CONTINUOUS
10
5.7923228346456694
20
-3.8425196850393699
11
5.7889329133858265
21
-3.8418453937007873
0
LINE
8
BLACK
6
CONTINUOUS
10
5.7889329133858265
20
-3.8418453937007873
11
5.7860590944881887
21
-3.839925157480315
0
LINE
8
BLACK
6
CONTINUOUS
10
5.7860590944881887
20
-3.839925157480315
11
5.784138858267716
21
-3.8370513385826772
0
LINE
8
BLACK
6
CONTINUOUS
10
5.784138858267716
20
-3.8370513385826772
11
5.7834645669291334
21
-3.8336614173228347
0
LINE
8
BLACK
6
CONTINUOUS
10
5.7834645669291334
20
-3.8336614173228347
11
5.7834645669291334
21
-3.8041338582677167
0
LINE
8
BLACK
6
CONTINUOUS
10
5.7834645669291334
20
-3.8041338582677167
11
5.784138858267716
21
-3.8007439370078737
0
LINE
8
BLACK
6
CONTINUOUS
10
5.784138858267716
20
-3.8007439370078737
11
5.7860590944881887
21
-3.7978701181102363
0
LINE
8
BLACK
6
CONTINUOUS
10
5.7860590944881887
20
-3.7978701181102363
11
5.7889329133858265
21
-3.7959498818897637
0
LINE
8
BLACK
6
CONTINUOUS
10
5.7889329133858265
20
-3.7959498818897637
11
5.7923228346456694
21
-3.795275590551181
0
LINE
8
BLACK
6
CONTINUOUS
10
5.7923228346456694
20
-3.795275590551181
11
5.8100393700787398
21
-3.795275590551181
0
LINE
8
BLACK
6
CONTINUOUS
10
5.8100393700787398
20
-3.795275590551181
11
5.8134292913385828
21
-3.7959498818897637
0
LINE
8
BLACK
6
CONTINUOUS
10
5.9433505511811022
20
-3.7959498818897637
11
5.9462243700787401
21
-3.7978701181102363
0
LINE
8
BLACK
6
CONTINUOUS
10
5.9462243700787401
20
-3.7978701181102363
11
5.9481446062992127
21
-3.8007439370078737
0
LINE
8
BLACK
6
CONTINUOUS
10
5.9481446062992127
20
-3.8007439370078737
11
5.9488188976377954
21
-3.8041338582677167
0
LINE
8
BLACK
6
CONTINUOUS
10
5.9488188976377954
20
-3.8041338582677167
11
5.9488188976377954
21
-3.8336614173228347
0
LINE
8
BLACK
6
CONTINUOUS
10
5.9488188976377954
20
-3.8336614173228347
11
5.9481446062992127
21
-3.8370513385826772
0
LINE
8
BLACK
6
CONTINUOUS
10
5.9481446062992127
20
-3.8370513385826772
11
5.9462243700787401
21
-3.839925157480315
0
LINE
8
BLACK
6
CONTINUOUS
10
5.9462243700787401
20
-3.839925157480315
11
5.9433505511811022
21
-3.8418453937007873
0
LINE
8
BLACK
6
CONTINUOUS
10
5.9433505511811022
20
-3.8418453937007873
11
5.9399606299212593
21
-3.8425196850393699
0
LINE
8
BLACK
6
CONTINUOUS
10
5.9399606299212593
20
-3.8425196850393699
11
5.9222440944881889
21
-3.8425196850393699
0
LINE
8
BLACK
6
CONTINUOUS
10
5.9222440944881889
20
-3.8425196850393699
11
5.9188541732283459
21
-3.8418453937007873
0
LINE
8
BLACK
6
CONTINUOUS
10
5.9188541732283459
20
-3.8418453937007873
11
5.9159803543307081
21
-3.839925157480315
0
LINE
8
BLACK
6
CONTINUOUS
10
5.9159803543307081
20
-3.839925157480315
11
5.9140601181102364
21
-3.8370513385826772
0
LINE
8
BLACK
6
CONTINUOUS
10
5.9140601181102364
20
-3.8370513385826772
11
5.9133858267716537
21
-3.8336614173228347
0
LINE
8
BLACK
6
CONTINUOUS
10
5.9133858267716537
20
-3.8336614173228347
11
5.9133858267716537
21
-3.8041338582677167
0
LINE
8
BLACK
6
CONTINUOUS
10
5.9133858267716537
20
-3.8041338582677167
11
5.9140601181102364
21
-3.8007439370078737
0
LINE
8
BLACK
6
CONTINUOUS
10
5.9140601181102364
20
-3.8007439370078737
11
5.9159803543307081
21
-3.7978701181102363
0
LINE
8
BLACK
6
CONTINUOUS
10
5.9159803543307081
20
-3.7978701181102363
11
5.9188541732283459
21
-3.7959498818897637
0
LINE
8
BLACK
6
CONTINUOUS
10
5.9188541732283459
20
-3.7959498818897637
11
5.9222440944881889
21
-3.795275590551181
0
LINE
8
BLACK
6
CONTINUOUS
10
5.9222440944881889
20
-3.795275590551181
11
5.9399606299212593
21
-3.795275590551181
0
LINE
8
BLACK
6
CONTINUOUS
10
5.9399606299212593
20
-3.795275590551181
11
5.9433505511811022
21
-3.7959498818897637
0
LINE
8
BLACK
6
CONTINUOUS
10
6.6614212598425198
20
-3.8356338582677165
11
6.6023661417322836
21
-3.8356338582677165
0
LINE
8
BLACK
6
CONTINUOUS
10
6.6023661417322836
20
-3.8356338582677165
11
6.6023661417322836
21
-3.8218543307086614
0
LINE
8
BLACK
6
CONTINUOUS
10
6.6023661417322836
20
-3.8218543307086614
11
6.6614212598425198
21
-3.8218543307086614
0
LINE
8
BLACK
6
CONTINUOUS
10
6.6614212598425198
20
-3.8218543307086614
11
6.6614212598425198
21
-3.8356338582677165
0
LINE
8
BLACK
6
CONTINUOUS
10
6.6614212598425198
20
-3.8159409448818895
11
6.6023661417322836
21
-3.8159409448818895
0
LINE
8
BLACK
6
CONTINUOUS
10
6.6023661417322836
20
-3.8159409448818895
11
6.6023661417322836
21
-3.8021614173228344
0
LINE
8
BLACK
6
CONTINUOUS
10
6.6023661417322836
20
-3.8021614173228344
11
6.6614212598425198
21
-3.8021614173228344
0
LINE
8
BLACK
6
CONTINUOUS
10
6.6614212598425198
20
-3.8021614173228344
11
6.6614212598425198
21
-3.8159409448818895
0
LINE
8
BLACK
6
CONTINUOUS
10
6.6614212598425198
20
-3.7962637795275591
11
6.6023661417322836
21
-3.7962637795275591
0
LINE
8
BLACK
6
CONTINUOUS
10
6.6023661417322836
20
-3.7962637795275591
11
6.6023661417322836
21
-3.782484251968504
0
LINE
8
BLACK
6
CONTINUOUS
10
6.6023661417322836
20
-3.782484251968504
11
6.6614212598425198
21
-3.782484251968504
0
LINE
8
BLACK
6
CONTINUOUS
10
6.6614212598425198
20
-3.782484251968504
11
6.6614212598425198
21
-3.7962637795275591
0
LINE
8
BLACK
6
CONTINUOUS
10
6.6614212598425198
20
-3.7765708661417321
11
6.6023661417322836
21
-3.7765708661417321
0
LINE
8
BLACK
6
CONTINUOUS
10
6.6023661417322836
20
-3.7765708661417321
11
6.6023661417322836
21
-3.762791338582677
0
LINE
8
BLACK
6
CONTINUOUS
10
6.6023661417322836
20
-3.762791338582677
11
6.6614212598425198
21
-3.762791338582677
0
LINE
8
BLACK
6
CONTINUOUS
10
6.6614212598425198
20
-3.762791338582677
11
6.6614212598425198
21
-3.7765708661417321
0
LINE
8
BLACK
6
CONTINUOUS
10
6.6614212598425198
20
-3.7568937007874017
11
6.6023661417322836
21
-3.7568937007874017
0
LINE
8
BLACK
6
CONTINUOUS
10
6.6023661417322836
20
-3.7568937007874017
11
6.6023661417322836
21
-3.7431141732283462
0
LINE
8
BLACK
6
CONTINUOUS
10
6.6023661417322836
20
-3.7431141732283462
11
6.6614212598425198
21
-3.7431141732283462
0
LINE
8
BLACK
6
CONTINUOUS
10
6.6614212598425198
20
-3.7431141732283462
11
6.6614212598425198
21
-3.7568937007874017
0
LINE
8
BLACK
6
CONTINUOUS
10
6.6614212598425198
20
-3.7372007874015747
11
6.6023661417322836
21
-3.7372007874015747
0
LINE
8
BLACK
6
CONTINUOUS
10
6.6023661417322836
20
-3.7372007874015747
11
6.6023661417322836
21
-3.7234212598425196
0
LINE
8
BLACK
6
CONTINUOUS
10
6.6023661417322836
20
-3.7234212598425196
11
6.6614212598425198
21
-3.7234212598425196
0
LINE
8
BLACK
6
CONTINUOUS
10
6.6614212598425198
20
-3.7234212598425196
11
6.6614212598425198
21
-3.7372007874015747
0
LINE
8
BLACK
6
CONTINUOUS
10
6.0787216141732285
20
-3.6739588188976375
11
6.0818349212598424
21
-3.6760390944881891
0
LINE
8
BLACK
6
CONTINUOUS
10
6.0818349212598424
20
-3.6760390944881891
11
6.0839151968503939
21
-3.6791524015748029
0
LINE
8
BLACK
6
CONTINUOUS
10
6.0839151968503939
20
-3.6791524015748029
11
6.0846456692913389
21
-3.682824803149606
0
LINE
8
BLACK
6
CONTINUOUS
10
6.0846456692913389
20
-3.682824803149606
11
6.0846456692913389
21
-3.71875
0
LINE
8
BLACK
6
CONTINUOUS
10
6.0846456692913389
20
-3.71875
11
6.0839151968503939
21
-3.7224224015748031
0
LINE
8
BLACK
6
CONTINUOUS
10
6.0839151968503939
20
-3.7224224015748031
11
6.0818349212598424
21
-3.7255357086614174
0
LINE
8
BLACK
6
CONTINUOUS
10
6.0818349212598424
20
-3.7255357086614174
11
6.0787216141732285
21
-3.7276159842519685
0
LINE
8
BLACK
6
CONTINUOUS
10
6.0787216141732285
20
-3.7276159842519685
11
6.075049212598425
21
-3.7283464566929134
0
LINE
8
BLACK
6
CONTINUOUS
10
6.075049212598425
20
-3.7283464566929134
11
6.0558562992125982
21
-3.7283464566929134
0
LINE
8
BLACK
6
CONTINUOUS
10
6.0558562992125982
20
-3.7283464566929134
11
6.0521838976377955
21
-3.7276159842519685
0
LINE
8
BLACK
6
CONTINUOUS
10
6.0521838976377955
20
-3.7276159842519685
11
6.0490705905511808
21
-3.7255357086614174
0
LINE
8
BLACK
6
CONTINUOUS
10
6.0490705905511808
20
-3.7255357086614174
11
6.0469903149606301
21
-3.7224224015748031
0
LINE
8
BLACK
6
CONTINUOUS
10
6.0469903149606301
20
-3.7224224015748031
11
6.0462598425196852
21
-3.71875
0
LINE
8
BLACK
6
CONTINUOUS
10
6.0462598425196852
20
-3.71875
11
6.0462598425196852
21
-3.682824803149606
0
LINE
8
BLACK
6
CONTINUOUS
10
6.0462598425196852
20
-3.682824803149606
11
6.0469903149606301
21
-3.6791524015748029
0
LINE
8
BLACK
6
CONTINUOUS
10
6.0469903149606301
20
-3.6791524015748029
11
6.0490705905511808
21
-3.6760390944881891
0
LINE
8
BLACK
6
CONTINUOUS
10
6.0490705905511808
20
-3.6760390944881891
11
6.0521838976377955
21
-3.6739588188976375
0
LINE
8
BLACK
6
CONTINUOUS
10
6.0521838976377955
20
-3.6739588188976375
11
6.0558562992125982
21
-3.673228346456693
0
LINE
8
BLACK
6
CONTINUOUS
10
6.0558562992125982
20
-3.673228346456693
11
6.075049212598425
21
-3.673228346456693
0
LINE
8
BLACK
6
CONTINUOUS
10
6.075049212598425
20
-3.673228346456693
11
6.0787216141732285
21
-3.6739588188976375
0
LINE
8
BLACK
6
CONTINUOUS
10
6.1525405118110239
20
-3.6739588188976375
11
6.1556538188976377
21
-3.6760390944881891
0
LINE
8
BLACK
6
CONTINUOUS
10
6.1556538188976377
20
-3.6760390944881891
11
6.1577340944881884
21
-3.6791524015748029
0
LINE
8
BLACK
6
CONTINUOUS
10
6.1577340944881884
20
-3.6791524015748029
11
6.1584645669291334
21
-3.682824803149606
0
LINE
8
BLACK
6
CONTINUOUS
10
6.1584645669291334
20
-3.682824803149606
11
6.1584645669291334
21
-3.71875
0
LINE
8
BLACK
6
CONTINUOUS
10
6.1584645669291334
20
-3.71875
11
6.1577340944881884
21
-3.7224224015748031
0
LINE
8
BLACK
6
CONTINUOUS
10
6.1577340944881884
20
-3.7224224015748031
11
6.1556538188976377
21
-3.7255357086614174
0
LINE
8
BLACK
6
CONTINUOUS
10
6.1556538188976377
20
-3.7255357086614174
11
6.1525405118110239
21
-3.7276159842519685
0
LINE
8
BLACK
6
CONTINUOUS
10
6.1525405118110239
20
-3.7276159842519685
11
6.1488681102362204
21
-3.7283464566929134
0
LINE
8
BLACK
6
CONTINUOUS
10
6.1488681102362204
20
-3.7283464566929134
11
6.1296751968503935
21
-3.7283464566929134
0
LINE
8
BLACK
6
CONTINUOUS
10
6.1296751968503935
20
-3.7283464566929134
11
6.12600279527559
21
-3.7276159842519685
0
LINE
8
BLACK
6
CONTINUOUS
10
6.12600279527559
20
-3.7276159842519685
11
6.1228894881889762
21
-3.7255357086614174
0
LINE
8
BLACK
6
CONTINUOUS
10
6.1228894881889762
20
-3.7255357086614174
11
6.1208092125984255
21
-3.7224224015748031
0
LINE
8
BLACK
6
CONTINUOUS
10
6.1208092125984255
20
-3.7224224015748031
11
6.1200787401574805
21
-3.71875
0
LINE
8
BLACK
6
CONTINUOUS
10
6.1200787401574805
20
-3.71875
11
6.1200787401574805
21
-3.682824803149606
0
LINE
8
BLACK
6
CONTINUOUS
10
6.1200787401574805
20
-3.682824803149606
11
6.1208092125984255
21
-3.6791524015748029
0
LINE
8
BLACK
6
CONTINUOUS
10
6.1208092125984255
20
-3.6791524015748029
11
6.1228894881889762
21
-3.6760390944881891
0
LINE
8
BLACK
6
CONTINUOUS
10
6.1228894881889762
20
-3.6760390944881891
11
6.12600279527559
21
-3.6739588188976375
0
LINE
8
BLACK
6
CONTINUOUS
10
6.12600279527559
20
-3.6739588188976375
11
6.1296751968503935
21
-3.673228346456693
0
LINE
8
BLACK
6
CONTINUOUS
10
6.1296751968503935
20
-3.673228346456693
11
6.1488681102362204
21
-3.673228346456693
0
LINE
8
BLACK
6
CONTINUOUS
10
6.1488681102362204
20
-3.673228346456693
11
6.1525405118110239
21
-3.6739588188976375
0
LINE
8
BLACK
6
CONTINUOUS
10
6.2755720078740156
20
-3.6739588188976375
11
6.2786853149606294
21
-3.6760390944881891
0
LINE
8
BLACK
6
CONTINUOUS
10
6.2786853149606294
20
-3.6760390944881891
11
6.280765590551181
21
-3.6791524015748029
0
LINE
8
BLACK
6
CONTINUOUS
10
6.280765590551181
20
-3.6791524015748029
11
6.2814960629921259
21
-3.682824803149606
0
LINE
8
BLACK
6
CONTINUOUS
10
6.2814960629921259
20
-3.682824803149606
11
6.2814960629921259
21
-3.71875
0
LINE
8
BLACK
6
CONTINUOUS
10
6.2814960629921259
20
-3.71875
11
6.280765590551181
21
-3.7224224015748031
0
LINE
8
BLACK
6
CONTINUOUS
10
6.280765590551181
20
-3.7224224015748031
11
6.2786853149606294
21
-3.7255357086614174
0
LINE
8
BLACK
6
CONTINUOUS
10
6.2786853149606294
20
-3.7255357086614174
11
6.2755720078740156
21
-3.7276159842519685
0
LINE
8
BLACK
6
CONTINUOUS
10
6.2755720078740156
20
-3.7276159842519685
11
6.2718996062992121
21
-3.7283464566929134
0
LINE
8
BLACK
6
CONTINUOUS
10
6.2718996062992121
20
-3.7283464566929134
11
6.2527066929133861
21
-3.7283464566929134
0
LINE
8
BLACK
6
CONTINUOUS
10
6.2527066929133861
20
-3.7283464566929134
11
6.2490342913385826
21
-3.7276159842519685
0
LINE
8
BLACK
6
CONTINUOUS
10
6.2490342913385826
20
-3.7276159842519685
11
6.2459209842519687
21
-3.7255357086614174
0
LINE
8
BLACK
6
CONTINUOUS
10
6.2459209842519687
20
-3.7255357086614174
11
6.2438407086614172
21
-3.7224224015748031
0
LINE
8
BLACK
6
CONTINUOUS
10
6.2438407086614172
20
-3.7224224015748031
11
6.2431102362204722
21
-3.71875
0
LINE
8
BLACK
6
CONTINUOUS
10
6.2431102362204722
20
-3.71875
11
6.2431102362204722
21
-3.682824803149606
0
LINE
8
BLACK
6
CONTINUOUS
10
6.2431102362204722
20
-3.682824803149606
11
6.2438407086614172
21
-3.6791524015748029
0
LINE
8
BLACK
6
CONTINUOUS
10
6.2438407086614172
20
-3.6791524015748029
11
6.2459209842519687
21
-3.6760390944881891
0
LINE
8
BLACK
6
CONTINUOUS
10
6.2459209842519687
20
-3.6760390944881891
11
6.2490342913385826
21
-3.6739588188976375
0
LINE
8
BLACK
6
CONTINUOUS
10
6.2490342913385826
20
-3.6739588188976375
11
6.2527066929133861
21
-3.673228346456693
0
LINE
8
BLACK
6
CONTINUOUS
10
6.2527066929133861
20
-3.673228346456693
11
6.2718996062992121
21
-3.673228346456693
0
LINE
8
BLACK
6
CONTINUOUS
10
6.2718996062992121
20
-3.673228346456693
11
6.2755720078740156
21
-3.6739588188976375
0
LINE
8
BLACK
6
CONTINUOUS
10
6.349390905511811
20
-3.6739588188976375
11
6.3525042125984248
21
-3.6760390944881891
0
LINE
8
BLACK
6
CONTINUOUS
10
6.3525042125984248
20
-3.6760390944881891
11
6.3545844881889764
21
-3.6791524015748029
0
LINE
8
BLACK
6
CONTINUOUS
10
6.3545844881889764
20
-3.6791524015748029
11
6.3553149606299213
21
-3.682824803149606
0
LINE
8
BLACK
6
CONTINUOUS
10
6.3553149606299213
20
-3.682824803149606
11
6.3553149606299213
21
-3.71875
0
LINE
8
BLACK
6
CONTINUOUS
10
6.3553149606299213
20
-3.71875
11
6.3545844881889764
21
-3.7224224015748031
0
LINE
8
BLACK
6
CONTINUOUS
10
6.3545844881889764
20
-3.7224224015748031
11
6.3525042125984248
21
-3.7255357086614174
0
LINE
8
BLACK
6
CONTINUOUS
10
6.3525042125984248
20
-3.7255357086614174
11
6.349390905511811
21
-3.7276159842519685
0
LINE
8
BLACK
6
CONTINUOUS
10
6.349390905511811
20
-3.7276159842519685
11
6.3457185039370074
21
-3.7283464566929134
0
LINE
8
BLACK
6
CONTINUOUS
10
6.3457185039370074
20
-3.7283464566929134
11
6.3265255905511806
21
-3.7283464566929134
0
LINE
8
BLACK
6
CONTINUOUS
10
6.3265255905511806
20
-3.7283464566929134
11
6.3228531889763779
21
-3.7276159842519685
0
LINE
8
BLACK
6
CONTINUOUS
10
6.3228531889763779
20
-3.7276159842519685
11
6.3197398818897632
21
-3.7255357086614174
0
LINE
8
BLACK
6
CONTINUOUS
10
6.3197398818897632
20
-3.7255357086614174
11
6.3176596062992125
21
-3.7224224015748031
0
LINE
8
BLACK
6
CONTINUOUS
10
6.3176596062992125
20
-3.7224224015748031
11
6.3169291338582676
21
-3.71875
0
LINE
8
BLACK
6
CONTINUOUS
10
6.3169291338582676
20
-3.71875
11
6.3169291338582676
21
-3.682824803149606
0
LINE
8
BLACK
6
CONTINUOUS
10
6.3169291338582676
20
-3.682824803149606
11
6.3176596062992125
21
-3.6791524015748029
0
LINE
8
BLACK
6
CONTINUOUS
10
6.3176596062992125
20
-3.6791524015748029
11
6.3197398818897632
21
-3.6760390944881891
0
LINE
8
BLACK
6
CONTINUOUS
10
6.3197398818897632
20
-3.6760390944881891
11
6.3228531889763779
21
-3.6739588188976375
0
LINE
8
BLACK
6
CONTINUOUS
10
6.3228531889763779
20
-3.6739588188976375
11
6.3265255905511806
21
-3.673228346456693
0
LINE
8
BLACK
6
CONTINUOUS
10
6.3265255905511806
20
-3.673228346456693
11
6.3457185039370074
21
-3.673228346456693
0
LINE
8
BLACK
6
CONTINUOUS
10
6.3457185039370074
20
-3.673228346456693
11
6.349390905511811
21
-3.6739588188976375
0
LINE
8
BLACK
6
CONTINUOUS
10
5.6367257874015744
20
-3.6745872047244093
11
5.6383223622047245
21
-3.6756540157480315
0
LINE
8
BLACK
6
CONTINUOUS
10
5.6383223622047245
20
-3.6756540157480315
11
5.6393891732283468
21
-3.6772505905511812
0
LINE
8
BLACK
6
CONTINUOUS
10
5.6393891732283468
20
-3.6772505905511812
11
5.6397637795275593
21
-3.6791338582677167
0
LINE
8
BLACK
6
CONTINUOUS
10
5.6397637795275593
20
-3.6791338582677167
11
5.6397637795275593
21
-3.7175196850393699
0
LINE
8
BLACK
6
CONTINUOUS
10
5.6397637795275593
20
-3.7175196850393699
11
5.6393891732283468
21
-3.7194029527559054
0
LINE
8
BLACK
6
CONTINUOUS
10
5.6393891732283468
20
-3.7194029527559054
11
5.6383223622047245
21
-3.7209995275590551
0
LINE
8
BLACK
6
CONTINUOUS
10
5.6383223622047245
20
-3.7209995275590551
11
5.6367257874015744
21
-3.7220663385826769
0
LINE
8
BLACK
6
CONTINUOUS
10
5.6367257874015744
20
-3.7220663385826769
11
5.6348425196850389
21
-3.7224409448818898
0
LINE
8
BLACK
6
CONTINUOUS
10
5.6348425196850389
20
-3.7224409448818898
11
5.625
21
-3.7224409448818898
0
LINE
8
BLACK
6
CONTINUOUS
10
5.625
20
-3.7224409448818898
11
5.6231167322834645
21
-3.7220663385826769
0
LINE
8
BLACK
6
CONTINUOUS
10
5.6231167322834645
20
-3.7220663385826769
11
5.6215201574803144
21
-3.7209995275590551
0
LINE
8
BLACK
6
CONTINUOUS
10
5.6215201574803144
20
-3.7209995275590551
11
5.620453346456693
21
-3.7194029527559054
0
LINE
8
BLACK
6
CONTINUOUS
10
5.620453346456693
20
-3.7194029527559054
11
5.6200787401574805
21
-3.7175196850393699
0
LINE
8
BLACK
6
CONTINUOUS
10
5.6200787401574805
20
-3.7175196850393699
11
5.6200787401574805
21
-3.6791338582677167
0
LINE
8
BLACK
6
CONTINUOUS
10
5.6200787401574805
20
-3.6791338582677167
11
5.620453346456693
21
-3.6772505905511812
0
LINE
8
BLACK
6
CONTINUOUS
10
5.620453346456693
20
-3.6772505905511812
11
5.6215201574803144
21
-3.6756540157480315
0
LINE
8
BLACK
6
CONTINUOUS
10
5.6215201574803144
20
-3.6756540157480315
11
5.6231167322834645
21
-3.6745872047244093
0
LINE
8
BLACK
6
CONTINUOUS
10
5.6231167322834645
20
-3.6745872047244093
11
5.625
21
-3.6742125984251968
0
LINE
8
BLACK
6
CONTINUOUS
10
5.625
20
-3.6742125984251968
11
5.6348425196850389
21
-3.6742125984251968
0
LINE
8
BLACK
6
CONTINUOUS
10
5.6348425196850389
20
-3.6742125984251968
11
5.6367257874015744
21
-3.6745872047244093
0
LINE
8
BLACK
6
CONTINUOUS
10
6.6614212598425198
20
-3.7175236220472438
11
6.6023661417322836
21
-3.7175236220472438
0
LINE
8
BLACK
6
CONTINUOUS
10
6.6023661417322836
20
-3.7175236220472438
11
6.6023661417322836
21
-3.7037440944881888
0
LINE
8
BLACK
6
CONTINUOUS
10
6.6023661417322836
20
-3.7037440944881888
11
6.6614212598425198
21
-3.7037440944881888
0
LINE
8
BLACK
6
CONTINUOUS
10
6.6614212598425198
20
-3.7037440944881888
11
6.6614212598425198
21
-3.7175236220472438
0
LINE
8
BLACK
6
CONTINUOUS
10
6.6614212598425198
20
-3.6978307086614173
11
6.6023661417322836
21
-3.6978307086614173
0
LINE
8
BLACK
6
CONTINUOUS
10
6.6023661417322836
20
-3.6978307086614173
11
6.6023661417322836
21
-3.6840511811023622
0
LINE
8
BLACK
6
CONTINUOUS
10
6.6023661417322836
20
-3.6840511811023622
11
6.6614212598425198
21
-3.6840511811023622
0
LINE
8
BLACK
6
CONTINUOUS
10
6.6614212598425198
20
-3.6840511811023622
11
6.6614212598425198
21
-3.6978307086614173
0
LINE
8
BLACK
6
CONTINUOUS
10
5.8134292913385828
20
-3.6384695669291336
11
5.8163031102362206
21
-3.6403898031496063
0
LINE
8
BLACK
6
CONTINUOUS
10
5.8163031102362206
20
-3.6403898031496063
11
5.8182233464566924
21
-3.6432636220472441
0
LINE
8
BLACK
6
CONTINUOUS
10
5.8182233464566924
20
-3.6432636220472441
11
5.818897637795275
21
-3.6466535433070866
0
LINE
8
BLACK
6
CONTINUOUS
10
5.818897637795275
20
-3.6466535433070866
11
5.818897637795275
21
-3.6761811023622046
0
LINE
8
BLACK
6
CONTINUOUS
10
5.818897637795275
20
-3.6761811023622046
11
5.8182233464566924
21
-3.6795710236220471
0
LINE
8
BLACK
6
CONTINUOUS
10
5.8182233464566924
20
-3.6795710236220471
11
5.8163031102362206
21
-3.682444842519685
0
LINE
8
BLACK
6
CONTINUOUS
10
5.8163031102362206
20
-3.682444842519685
11
5.8134292913385828
21
-3.6843650787401576
0
LINE
8
BLACK
6
CONTINUOUS
10
5.8134292913385828
20
-3.6843650787401576
11
5.8100393700787398
21
-3.6850393700787403
0
LINE
8
BLACK
6
CONTINUOUS
10
5.8100393700787398
20
-3.6850393700787403
11
5.7923228346456694
21
-3.6850393700787403
0
LINE
8
BLACK
6
CONTINUOUS
10
5.7923228346456694
20
-3.6850393700787403
11
5.7889329133858265
21
-3.6843650787401576
0
LINE
8
BLACK
6
CONTINUOUS
10
5.7889329133858265
20
-3.6843650787401576
11
5.7860590944881887
21
-3.682444842519685
0
LINE
8
BLACK
6
CONTINUOUS
10
5.7860590944881887
20
-3.682444842519685
11
5.784138858267716
21
-3.6795710236220471
0
LINE
8
BLACK
6
CONTINUOUS
10
5.784138858267716
20
-3.6795710236220471
11
5.7834645669291334
21
-3.6761811023622046
0
LINE
8
BLACK
6
CONTINUOUS
10
5.7834645669291334
20
-3.6761811023622046
11
5.7834645669291334
21
-3.6466535433070866
0
LINE
8
BLACK
6
CONTINUOUS
10
5.7834645669291334
20
-3.6466535433070866
11
5.784138858267716
21
-3.6432636220472441
0
LINE
8
BLACK
6
CONTINUOUS
10
5.784138858267716
20
-3.6432636220472441
11
5.7860590944881887
21
-3.6403898031496063
0
LINE
8
BLACK
6
CONTINUOUS
10
5.7860590944881887
20
-3.6403898031496063
11
5.7889329133858265
21
-3.6384695669291336
0
LINE
8
BLACK
6
CONTINUOUS
10
5.7889329133858265
20
-3.6384695669291336
11
5.7923228346456694
21
-3.6377952755905509
0
LINE
8
BLACK
6
CONTINUOUS
10
5.7923228346456694
20
-3.6377952755905509
11
5.8100393700787398
21
-3.6377952755905509
0
LINE
8
BLACK
6
CONTINUOUS
10
5.8100393700787398
20
-3.6377952755905509
11
5.8134292913385828
21
-3.6384695669291336
0
LINE
8
BLACK
6
CONTINUOUS
10
5.9433505511811022
20
-3.6384695669291336
11
5.9462243700787401
21
-3.6403898031496063
0
LINE
8
BLACK
6
CONTINUOUS
10
5.9462243700787401
20
-3.6403898031496063
11
5.9481446062992127
21
-3.6432636220472441
0
LINE
8
BLACK
6
CONTINUOUS
10
5.9481446062992127
20
-3.6432636220472441
11
5.9488188976377954
21
-3.6466535433070866
0
LINE
8
BLACK
6
CONTINUOUS
10
5.9488188976377954
20
-3.6466535433070866
11
5.9488188976377954
21
-3.6761811023622046
0
LINE
8
BLACK
6
CONTINUOUS
10
5.9488188976377954
20
-3.6761811023622046
11
5.9481446062992127
21
-3.6795710236220471
0
LINE
8
BLACK
6
CONTINUOUS
10
5.9481446062992127
20
-3.6795710236220471
11
5.9462243700787401
21
-3.682444842519685
0
LINE
8
BLACK
6
CONTINUOUS
10
5.9462243700787401
20
-3.682444842519685
11
5.9433505511811022
21
-3.6843650787401576
0
LINE
8
BLACK
6
CONTINUOUS
10
5.9433505511811022
20
-3.6843650787401576
11
5.9399606299212593
21
-3.6850393700787403
0
LINE
8
BLACK
6
CONTINUOUS
10
5.9399606299212593
20
-3.6850393700787403
11
5.9222440944881889
21
-3.6850393700787403
0
LINE
8
BLACK
6
CONTINUOUS
10
5.9222440944881889
20
-3.6850393700787403
11
5.9188541732283459
21
-3.6843650787401576
0
LINE
8
BLACK
6
CONTINUOUS
10
5.9188541732283459
20
-3.6843650787401576
11
5.9159803543307081
21
-3.682444842519685
0
LINE
8
BLACK
6
CONTINUOUS
10
5.9159803543307081
20
-3.682444842519685
11
5.9140601181102364
21
-3.6795710236220471
0
LINE
8
BLACK
6
CONTINUOUS
10
5.9140601181102364
20
-3.6795710236220471
11
5.9133858267716537
21
-3.6761811023622046
0
LINE
8
BLACK
6
CONTINUOUS
10
5.9133858267716537
20
-3.6761811023622046
11
5.9133858267716537
21
-3.6466535433070866
0
LINE
8
BLACK
6
CONTINUOUS
10
5.9133858267716537
20
-3.6466535433070866
11
5.9140601181102364
21
-3.6432636220472441
0
LINE
8
BLACK
6
CONTINUOUS
10
5.9140601181102364
20
-3.6432636220472441
11
5.9159803543307081
21
-3.6403898031496063
0
LINE
8
BLACK
6
CONTINUOUS
10
5.9159803543307081
20
-3.6403898031496063
11
5.9188541732283459
21
-3.6384695669291336
0
LINE
8
BLACK
6
CONTINUOUS
10
5.9188541732283459
20
-3.6384695669291336
11
5.9222440944881889
21
-3.6377952755905509
0
LINE
8
BLACK
6
CONTINUOUS
10
5.9222440944881889
20
-3.6377952755905509
11
5.9399606299212593
21
-3.6377952755905509
0
LINE
8
BLACK
6
CONTINUOUS
10
5.9399606299212593
20
-3.6377952755905509
11
5.9433505511811022
21
-3.6384695669291336
0
LINE
8
BLACK
6
CONTINUOUS
10
6.6614212598425198
20
-3.6781535433070864
11
6.6023661417322836
21
-3.6781535433070864
0
LINE
8
BLACK
6
CONTINUOUS
10
6.6023661417322836
20
-3.6781535433070864
11
6.6023661417322836
21
-3.6643740157480313
0
LINE
8
BLACK
6
CONTINUOUS
10
6.6023661417322836
20
-3.6643740157480313
11
6.6614212598425198
21
-3.6643740157480313
0
LINE
8
BLACK
6
CONTINUOUS
10
6.6614212598425198
20
-3.6643740157480313
11
6.6614212598425198
21
-3.6781535433070864
0
LINE
8
BLACK
6
CONTINUOUS
10
6.6614212598425198
20
-3.6584606299212599
11
6.6023661417322836
21
-3.6584606299212599
0
LINE
8
BLACK
6
CONTINUOUS
10
6.6023661417322836
20
-3.6584606299212599
11
6.6023661417322836
21
-3.6446811023622048
0
LINE
8
BLACK
6
CONTINUOUS
10
6.6023661417322836
20
-3.6446811023622048
11
6.6614212598425198
21
-3.6446811023622048
0
LINE
8
BLACK
6
CONTINUOUS
10
6.6614212598425198
20
-3.6446811023622048
11
6.6614212598425198
21
-3.6584606299212599
0
LINE
8
BLACK
6
CONTINUOUS
10
5.6111352362204725
20
-3.6007683070866139
11
5.6127318110236217
21
-3.6018351181102362
0
LINE
8
BLACK
6
CONTINUOUS
10
5.6127318110236217
20
-3.6018351181102362
11
5.613798622047244
21
-3.6034316929133858
0
LINE
8
BLACK
6
CONTINUOUS
10
5.613798622047244
20
-3.6034316929133858
11
5.6141732283464565
21
-3.6053149606299213
0
LINE
8
BLACK
6
CONTINUOUS
10
5.6141732283464565
20
-3.6053149606299213
11
5.6141732283464565
21
-3.6437007874015745
0
LINE
8
BLACK
6
CONTINUOUS
10
5.6141732283464565
20
-3.6437007874015745
11
5.613798622047244
21
-3.64558405511811
0
LINE
8
BLACK
6
CONTINUOUS
10
5.613798622047244
20
-3.64558405511811
11
5.6127318110236217
21
-3.6471806299212597
0
LINE
8
BLACK
6
CONTINUOUS
10
5.6127318110236217
20
-3.6471806299212597
11
5.6111352362204725
21
-3.648247440944882
0
LINE
8
BLACK
6
CONTINUOUS
10
5.6111352362204725
20
-3.648247440944882
11
5.609251968503937
21
-3.6486220472440944
0
LINE
8
BLACK
6
CONTINUOUS
10
5.609251968503937
20
-3.6486220472440944
11
5.5994094488188972
21
-3.6486220472440944
0
LINE
8
BLACK
6
CONTINUOUS
10
5.5994094488188972
20
-3.6486220472440944
11
5.5975261811023618
21
-3.648247440944882
0
LINE
8
BLACK
6
CONTINUOUS
10
5.5975261811023618
20
-3.648247440944882
11
5.5959296062992125
21
-3.6471806299212597
0
LINE
8
BLACK
6
CONTINUOUS
10
5.5959296062992125
20
-3.6471806299212597
11
5.5948627952755903
21
-3.64558405511811
0
LINE
8
BLACK
6
CONTINUOUS
10
5.5948627952755903
20
-3.64558405511811
11
5.5944881889763778
21
-3.6437007874015745
0
LINE
8
BLACK
6
CONTINUOUS
10
5.5944881889763778
20
-3.6437007874015745
11
5.5944881889763778
21
-3.6053149606299213
0
LINE
8
BLACK
6
CONTINUOUS
10
5.5944881889763778
20
-3.6053149606299213
11
5.5948627952755903
21
-3.6034316929133858
0
LINE
8
BLACK
6
CONTINUOUS
10
5.5948627952755903
20
-3.6034316929133858
11
5.5959296062992125
21
-3.6018351181102362
0
LINE
8
BLACK
6
CONTINUOUS
10
5.5959296062992125
20
-3.6018351181102362
11
5.5975261811023618
21
-3.6007683070866139
0
LINE
8
BLACK
6
CONTINUOUS
10
5.5975261811023618
20
-3.6007683070866139
11
5.5994094488188972
21
-3.6003937007874014
0
LINE
8
BLACK
6
CONTINUOUS
10
5.5994094488188972
20
-3.6003937007874014
11
5.609251968503937
21
-3.6003937007874014
0
LINE
8
BLACK
6
CONTINUOUS
10
5.609251968503937
20
-3.6003937007874014
11
5.6111352362204725
21
-3.6007683070866139
0
LINE
8
BLACK
6
CONTINUOUS
10
5.6623163385826771
20
-3.6007683070866139
11
5.6639129133858264
21
-3.6018351181102362
0
LINE
8
BLACK
6
CONTINUOUS
10
5.6639129133858264
20
-3.6018351181102362
11
5.6649797244094486
21
-3.6034316929133858
0
LINE
8
BLACK
6
CONTINUOUS
10
5.6649797244094486
20
-3.6034316929133858
11
5.6653543307086611
21
-3.6053149606299213
0
LINE
8
BLACK
6
CONTINUOUS
10
5.6653543307086611
20
-3.6053149606299213
11
5.6653543307086611
21
-3.6437007874015745
0
LINE
8
BLACK
6
CONTINUOUS
10
5.6653543307086611
20
-3.6437007874015745
11
5.6649797244094486
21
-3.64558405511811
0
LINE
8
BLACK
6
CONTINUOUS
10
5.6649797244094486
20
-3.64558405511811
11
5.6639129133858264
21
-3.6471806299212597
0
LINE
8
BLACK
6
CONTINUOUS
10
5.6639129133858264
20
-3.6471806299212597
11
5.6623163385826771
21
-3.648247440944882
0
LINE
8
BLACK
6
CONTINUOUS
10
5.6623163385826771
20
-3.648247440944882
11
5.6604330708661417
21
-3.6486220472440944
0
LINE
8
BLACK
6
CONTINUOUS
10
5.6604330708661417
20
-3.6486220472440944
11
5.6505905511811019
21
-3.6486220472440944
0
LINE
8
BLACK
6
CONTINUOUS
10
5.6505905511811019
20
-3.6486220472440944
11
5.6487072834645664
21
-3.648247440944882
0
LINE
8
BLACK
6
CONTINUOUS
10
5.6487072834645664
20
-3.648247440944882
11
5.6471107086614172
21
-3.6471806299212597
0
LINE
8
BLACK
6
CONTINUOUS
10
5.6471107086614172
20
-3.6471806299212597
11
5.6460438976377949
21
-3.64558405511811
0
LINE
8
BLACK
6
CONTINUOUS
10
5.6460438976377949
20
-3.64558405511811
11
5.6456692913385824
21
-3.6437007874015745
0
LINE
8
BLACK
6
CONTINUOUS
10
5.6456692913385824
20
-3.6437007874015745
11
5.6456692913385824
21
-3.6053149606299213
0
LINE
8
BLACK
6
CONTINUOUS
10
5.6456692913385824
20
-3.6053149606299213
11
5.6460438976377949
21
-3.6034316929133858
0
LINE
8
BLACK
6
CONTINUOUS
10
5.6460438976377949
20
-3.6034316929133858
11
5.6471107086614172
21
-3.6018351181102362
0
LINE
8
BLACK
6
CONTINUOUS
10
5.6471107086614172
20
-3.6018351181102362
11
5.6487072834645664
21
-3.6007683070866139
0
LINE
8
BLACK
6
CONTINUOUS
10
5.6487072834645664
20
-3.6007683070866139
11
5.6505905511811019
21
-3.6003937007874014
0
LINE
8
BLACK
6
CONTINUOUS
10
5.6505905511811019
20
-3.6003937007874014
11
5.6604330708661417
21
-3.6003937007874014
0
LINE
8
BLACK
6
CONTINUOUS
10
5.6604330708661417
20
-3.6003937007874014
11
5.6623163385826771
21
-3.6007683070866139
0
LINE
8
BLACK
6
CONTINUOUS
10
6.6614212598425198
20
-3.638783464566929
11
6.6023661417322836
21
-3.638783464566929
0
LINE
8
BLACK
6
CONTINUOUS
10
6.6023661417322836
20
-3.638783464566929
11
6.6023661417322836
21
-3.6250039370078739
0
LINE
8
BLACK
6
CONTINUOUS
10
6.6023661417322836
20
-3.6250039370078739
11
6.6614212598425198
21
-3.6250039370078739
0
LINE
8
BLACK
6
CONTINUOUS
10
6.6614212598425198
20
-3.6250039370078739
11
6.6614212598425198
21
-3.638783464566929
0
LINE
8
BLACK
6
CONTINUOUS
10
6.6614212598425198
20
-3.6190905511811025
11
6.6023661417322836
21
-3.6190905511811025
0
LINE
8
BLACK
6
CONTINUOUS
10
6.6023661417322836
20
-3.6190905511811025
11
6.6023661417322836
21
-3.6053110236220474
0
LINE
8
BLACK
6
CONTINUOUS
10
6.6023661417322836
20
-3.6053110236220474
11
6.6614212598425198
21
-3.6053110236220474
0
LINE
8
BLACK
6
CONTINUOUS
10
6.6614212598425198
20
-3.6053110236220474
11
6.6614212598425198
21
-3.6190905511811025
0
LINE
8
BLACK
6
CONTINUOUS
10
6.6614212598425198
20
-3.5994133858267716
11
6.6023661417322836
21
-3.5994133858267716
0
LINE
8
BLACK
6
CONTINUOUS
10
6.6023661417322836
20
-3.5994133858267716
11
6.6023661417322836
21
-3.5856338582677165
0
LINE
8
BLACK
6
CONTINUOUS
10
6.6023661417322836
20
-3.5856338582677165
11
6.6614212598425198
21
-3.5856338582677165
0
LINE
8
BLACK
6
CONTINUOUS
10
6.6614212598425198
20
-3.5856338582677165
11
6.6614212598425198
21
-3.5994133858267716
0
LINE
8
BLACK
6
CONTINUOUS
10
6.0787216141732285
20
-3.5361635433070866
11
6.0818349212598424
21
-3.5382438188976377
0
LINE
8
BLACK
6
CONTINUOUS
10
6.0818349212598424
20
-3.5382438188976377
11
6.0839151968503939
21
-3.541357125984252
0
LINE
8
BLACK
6
CONTINUOUS
10
6.0839151968503939
20
-3.541357125984252
11
6.0846456692913389
21
-3.5450295275590551
0
LINE
8
BLACK
6
CONTINUOUS
10
6.0846456692913389
20
-3.5450295275590551
11
6.0846456692913389
21
-3.5809547244094486
0
LINE
8
BLACK
6
CONTINUOUS
10
6.0846456692913389
20
-3.5809547244094486
11
6.0839151968503939
21
-3.5846271259842517
0
LINE
8
BLACK
6
CONTINUOUS
10
6.0839151968503939
20
-3.5846271259842517
11
6.0818349212598424
21
-3.587740433070866
0
LINE
8
BLACK
6
CONTINUOUS
10
6.0818349212598424
20
-3.587740433070866
11
6.0787216141732285
21
-3.5898207086614171
0
LINE
8
BLACK
6
CONTINUOUS
10
6.0787216141732285
20
-3.5898207086614171
11
6.075049212598425
21
-3.590551181102362
0
LINE
8
BLACK
6
CONTINUOUS
10
6.075049212598425
20
-3.590551181102362
11
6.0558562992125982
21
-3.590551181102362
0
LINE
8
BLACK
6
CONTINUOUS
10
6.0558562992125982
20
-3.590551181102362
11
6.0521838976377955
21
-3.5898207086614171
0
LINE
8
BLACK
6
CONTINUOUS
10
6.0521838976377955
20
-3.5898207086614171
11
6.0490705905511808
21
-3.587740433070866
0
LINE
8
BLACK
6
CONTINUOUS
10
6.0490705905511808
20
-3.587740433070866
11
6.0469903149606301
21
-3.5846271259842517
0
LINE
8
BLACK
6
CONTINUOUS
10
6.0469903149606301
20
-3.5846271259842517
11
6.0462598425196852
21
-3.5809547244094486
0
LINE
8
BLACK
6
CONTINUOUS
10
6.0462598425196852
20
-3.5809547244094486
11
6.0462598425196852
21
-3.5450295275590551
0
LINE
8
BLACK
6
CONTINUOUS
10
6.0462598425196852
20
-3.5450295275590551
11
6.0469903149606301
21
-3.541357125984252
0
LINE
8
BLACK
6
CONTINUOUS
10
6.0469903149606301
20
-3.541357125984252
11
6.0490705905511808
21
-3.5382438188976377
0
LINE
8
BLACK
6
CONTINUOUS
10
6.0490705905511808
20
-3.5382438188976377
11
6.0521838976377955
21
-3.5361635433070866
0
LINE
8
BLACK
6
CONTINUOUS
10
6.0521838976377955
20
-3.5361635433070866
11
6.0558562992125982
21
-3.5354330708661417
0
LINE
8
BLACK
6
CONTINUOUS
10
6.0558562992125982
20
-3.5354330708661417
11
6.075049212598425
21
-3.5354330708661417
0
LINE
8
BLACK
6
CONTINUOUS
10
6.075049212598425
20
-3.5354330708661417
11
6.0787216141732285
21
-3.5361635433070866
0
LINE
8
BLACK
6
CONTINUOUS
10
6.1525405118110239
20
-3.5361635433070866
11
6.1556538188976377
21
-3.5382438188976377
0
LINE
8
BLACK
6
CONTINUOUS
10
6.1556538188976377
20
-3.5382438188976377
11
6.1577340944881884
21
-3.541357125984252
0
LINE
8
BLACK
6
CONTINUOUS
10
6.1577340944881884
20
-3.541357125984252
11
6.1584645669291334
21
-3.5450295275590551
0
LINE
8
BLACK
6
CONTINUOUS
10
6.1584645669291334
20
-3.5450295275590551
11
6.1584645669291334
21
-3.5809547244094486
0
LINE
8
BLACK
6
CONTINUOUS
10
6.1584645669291334
20
-3.5809547244094486
11
6.1577340944881884
21
-3.5846271259842517
0
LINE
8
BLACK
6
CONTINUOUS
10
6.1577340944881884
20
-3.5846271259842517
11
6.1556538188976377
21
-3.587740433070866
0
LINE
8
BLACK
6
CONTINUOUS
10
6.1556538188976377
20
-3.587740433070866
11
6.1525405118110239
21
-3.5898207086614171
0
LINE
8
BLACK
6
CONTINUOUS
10
6.1525405118110239
20
-3.5898207086614171
11
6.1488681102362204
21
-3.590551181102362
0
LINE
8
BLACK
6
CONTINUOUS
10
6.1488681102362204
20
-3.590551181102362
11
6.1296751968503935
21
-3.590551181102362
0
LINE
8
BLACK
6
CONTINUOUS
10
6.1296751968503935
20
-3.590551181102362
11
6.12600279527559
21
-3.5898207086614171
0
LINE
8
BLACK
6
CONTINUOUS
10
6.12600279527559
20
-3.5898207086614171
11
6.1228894881889762
21
-3.587740433070866
0
LINE
8
BLACK
6
CONTINUOUS
10
6.1228894881889762
20
-3.587740433070866
11
6.1208092125984255
21
-3.5846271259842517
0
LINE
8
BLACK
6
CONTINUOUS
10
6.1208092125984255
20
-3.5846271259842517
11
6.1200787401574805
21
-3.5809547244094486
0
LINE
8
BLACK
6
CONTINUOUS
10
6.1200787401574805
20
-3.5809547244094486
11
6.1200787401574805
21
-3.5450295275590551
0
LINE
8
BLACK
6
CONTINUOUS
10
6.1200787401574805
20
-3.5450295275590551
11
6.1208092125984255
21
-3.541357125984252
0
LINE
8
BLACK
6
CONTINUOUS
10
6.1208092125984255
20
-3.541357125984252
11
6.1228894881889762
21
-3.5382438188976377
0
LINE
8
BLACK
6
CONTINUOUS
10
6.1228894881889762
20
-3.5382438188976377
11
6.12600279527559
21
-3.5361635433070866
0
LINE
8
BLACK
6
CONTINUOUS
10
6.12600279527559
20
-3.5361635433070866
11
6.1296751968503935
21
-3.5354330708661417
0
LINE
8
BLACK
6
CONTINUOUS
10
6.1296751968503935
20
-3.5354330708661417
11
6.1488681102362204
21
-3.5354330708661417
0
LINE
8
BLACK
6
CONTINUOUS
10
6.1488681102362204
20
-3.5354330708661417
11
6.1525405118110239
21
-3.5361635433070866
0
LINE
8
BLACK
6
CONTINUOUS
10
6.2755720078740156
20
-3.5361635433070866
11
6.2786853149606294
21
-3.5382438188976377
0
LINE
8
BLACK
6
CONTINUOUS
10
6.2786853149606294
20
-3.5382438188976377
11
6.280765590551181
21
-3.541357125984252
0
LINE
8
BLACK
6
CONTINUOUS
10
6.280765590551181
20
-3.541357125984252
11
6.2814960629921259
21
-3.5450295275590551
0
LINE
8
BLACK
6
CONTINUOUS
10
6.2814960629921259
20
-3.5450295275590551
11
6.2814960629921259
21
-3.5809547244094486
0
LINE
8
BLACK
6
CONTINUOUS
10
6.2814960629921259
20
-3.5809547244094486
11
6.280765590551181
21
-3.5846271259842517
0
LINE
8
BLACK
6
CONTINUOUS
10
6.280765590551181
20
-3.5846271259842517
11
6.2786853149606294
21
-3.587740433070866
0
LINE
8
BLACK
6
CONTINUOUS
10
6.2786853149606294
20
-3.587740433070866
11
6.2755720078740156
21
-3.5898207086614171
0
LINE
8
BLACK
6
CONTINUOUS
10
6.2755720078740156
20
-3.5898207086614171
11
6.2718996062992121
21
-3.590551181102362
0
LINE
8
BLACK
6
CONTINUOUS
10
6.2718996062992121
20
-3.590551181102362
11
6.2527066929133861
21
-3.590551181102362
0
LINE
8
BLACK
6
CONTINUOUS
10
6.2527066929133861
20
-3.590551181102362
11
6.2490342913385826
21
-3.5898207086614171
0
LINE
8
BLACK
6
CONTINUOUS
10
6.2490342913385826
20
-3.5898207086614171
11
6.2459209842519687
21
-3.587740433070866
0
LINE
8
BLACK
6
CONTINUOUS
10
6.2459209842519687
20
-3.587740433070866
11
6.2438407086614172
21
-3.5846271259842517
0
LINE
8
BLACK
6
CONTINUOUS
10
6.2438407086614172
20
-3.5846271259842517
11
6.2431102362204722
21
-3.5809547244094486
0
LINE
8
BLACK
6
CONTINUOUS
10
6.2431102362204722
20
-3.5809547244094486
11
6.2431102362204722
21
-3.5450295275590551
0
LINE
8
BLACK
6
CONTINUOUS
10
6.2431102362204722
20
-3.5450295275590551
11
6.2438407086614172
21
-3.541357125984252
0
LINE
8
BLACK
6
CONTINUOUS
10
6.2438407086614172
20
-3.541357125984252
11
6.2459209842519687
21
-3.5382438188976377
0
LINE
8
BLACK
6
CONTINUOUS
10
6.2459209842519687
20
-3.5382438188976377
11
6.2490342913385826
21
-3.5361635433070866
0
LINE
8
BLACK
6
CONTINUOUS
10
6.2490342913385826
20
-3.5361635433070866
11
6.2527066929133861
21
-3.5354330708661417
0
LINE
8
BLACK
6
CONTINUOUS
10
6.2527066929133861
20
-3.5354330708661417
11
6.2718996062992121
21
-3.5354330708661417
0
LINE
8
BLACK
6
CONTINUOUS
10
6.2718996062992121
20
-3.5354330708661417
11
6.2755720078740156
21
-3.5361635433070866
0
LINE
8
BLACK
6
CONTINUOUS
10
6.349390905511811
20
-3.5361635433070866
11
6.3525042125984248
21
-3.5382438188976377
0
LINE
8
BLACK
6
CONTINUOUS
10
6.3525042125984248
20
-3.5382438188976377
11
6.3545844881889764
21
-3.541357125984252
0
LINE
8
BLACK
6
CONTINUOUS
10
6.3545844881889764
20
-3.541357125984252
11
6.3553149606299213
21
-3.5450295275590551
0
LINE
8
BLACK
6
CONTINUOUS
10
6.3553149606299213
20
-3.5450295275590551
11
6.3553149606299213
21
-3.5809547244094486
0
LINE
8
BLACK
6
CONTINUOUS
10
6.3553149606299213
20
-3.5809547244094486
11
6.3545844881889764
21
-3.5846271259842517
0
LINE
8
BLACK
6
CONTINUOUS
10
6.3545844881889764
20
-3.5846271259842517
11
6.3525042125984248
21
-3.587740433070866
0
LINE
8
BLACK
6
CONTINUOUS
10
6.3525042125984248
20
-3.587740433070866
11
6.349390905511811
21
-3.5898207086614171
0
LINE
8
BLACK
6
CONTINUOUS
10
6.349390905511811
20
-3.5898207086614171
11
6.3457185039370074
21
-3.590551181102362
0
LINE
8
BLACK
6
CONTINUOUS
10
6.3457185039370074
20
-3.590551181102362
11
6.3265255905511806
21
-3.590551181102362
0
LINE
8
BLACK
6
CONTINUOUS
10
6.3265255905511806
20
-3.590551181102362
11
6.3228531889763779
21
-3.5898207086614171
0
LINE
8
BLACK
6
CONTINUOUS
10
6.3228531889763779
20
-3.5898207086614171
11
6.3197398818897632
21
-3.587740433070866
0
LINE
8
BLACK
6
CONTINUOUS
10
6.3197398818897632
20
-3.587740433070866
11
6.3176596062992125
21
-3.5846271259842517
0
LINE
8
BLACK
6
CONTINUOUS
10
6.3176596062992125
20
-3.5846271259842517
11
6.3169291338582676
21
-3.5809547244094486
0
LINE
8
BLACK
6
CONTINUOUS
10
6.3169291338582676
20
-3.5809547244094486
11
6.3169291338582676
21
-3.5450295275590551
0
LINE
8
BLACK
6
CONTINUOUS
10
6.3169291338582676
20
-3.5450295275590551
11
6.3176596062992125
21
-3.541357125984252
0
LINE
8
BLACK
6
CONTINUOUS
10
6.3176596062992125
20
-3.541357125984252
11
6.3197398818897632
21
-3.5382438188976377
0
LINE
8
BLACK
6
CONTINUOUS
10
6.3197398818897632
20
-3.5382438188976377
11
6.3228531889763779
21
-3.5361635433070866
0
LINE
8
BLACK
6
CONTINUOUS
10
6.3228531889763779
20
-3.5361635433070866
11
6.3265255905511806
21
-3.5354330708661417
0
LINE
8
BLACK
6
CONTINUOUS
10
6.3265255905511806
20
-3.5354330708661417
11
6.3457185039370074
21
-3.5354330708661417
0
LINE
8
BLACK
6
CONTINUOUS
10
6.3457185039370074
20
-3.5354330708661417
11
6.349390905511811
21
-3.5361635433070866
0
LINE
8
BLACK
6
CONTINUOUS
10
6.6614212598425198
20
-3.5797204724409446
11
6.6023661417322836
21
-3.5797204724409446
0
LINE
8
BLACK
6
CONTINUOUS
10
6.6023661417322836
20
-3.5797204724409446
11
6.6023661417322836
21
-3.5659409448818895
0
LINE
8
BLACK
6
CONTINUOUS
10
6.6023661417322836
20
-3.5659409448818895
11
6.6614212598425198
21
-3.5659409448818895
0
LINE
8
BLACK
6
CONTINUOUS
10
6.6614212598425198
20
-3.5659409448818895
11
6.6614212598425198
21
-3.5797204724409446
0
LINE
8
BLACK
6
CONTINUOUS
10
6.6614212598425198
20
-3.5600433070866142
11
6.6023661417322836
21
-3.5600433070866142
0
LINE
8
BLACK
6
CONTINUOUS
10
6.6023661417322836
20
-3.5600433070866142
11
6.6023661417322836
21
-3.5462637795275591
0
LINE
8
BLACK
6
CONTINUOUS
10
6.6023661417322836
20
-3.5462637795275591
11
6.6614212598425198
21
-3.5462637795275591
0
LINE
8
BLACK
6
CONTINUOUS
10
6.6614212598425198
20
-3.5462637795275591
11
6.6614212598425198
21
-3.5600433070866142
0
LINE
8
BLACK
6
CONTINUOUS
10
6.6614212598425198
20
-3.5403503937007872
11
6.6023661417322836
21
-3.5403503937007872
0
LINE
8
BLACK
6
CONTINUOUS
10
6.6023661417322836
20
-3.5403503937007872
11
6.6023661417322836
21
-3.5265708661417321
0
LINE
8
BLACK
6
CONTINUOUS
10
6.6023661417322836
20
-3.5265708661417321
11
6.6614212598425198
21
-3.5265708661417321
0
LINE
8
BLACK
6
CONTINUOUS
10
6.6614212598425198
20
-3.5265708661417321
11
6.6614212598425198
21
-3.5403503937007872
0
LINE
8
BLACK
6
CONTINUOUS
10
5.8621861811023619
20
-3.4771084251968505
11
5.8652994881889766
21
-3.4791887007874016
0
LINE
8
BLACK
6
CONTINUOUS
10
5.8652994881889766
20
-3.4791887007874016
11
5.8673797637795273
21
-3.4823020078740154
0
LINE
8
BLACK
6
CONTINUOUS
10
5.8673797637795273
20
-3.4823020078740154
11
5.8681102362204722
21
-3.485974409448819
0
LINE
8
BLACK
6
CONTINUOUS
10
5.8681102362204722
20
-3.485974409448819
11
5.8681102362204722
21
-3.5218996062992125
0
LINE
8
BLACK
6
CONTINUOUS
10
5.8681102362204722
20
-3.5218996062992125
11
5.8673797637795273
21
-3.5255720078740156
0
LINE
8
BLACK
6
CONTINUOUS
10
5.8673797637795273
20
-3.5255720078740156
11
5.8652994881889766
21
-3.5286853149606299
0
LINE
8
BLACK
6
CONTINUOUS
10
5.8652994881889766
20
-3.5286853149606299
11
5.8621861811023619
21
-3.530765590551181
0
LINE
8
BLACK
6
CONTINUOUS
10
5.8621861811023619
20
-3.530765590551181
11
5.8585137795275593
21
-3.5314960629921259
0
LINE
8
BLACK
6
CONTINUOUS
10
5.8585137795275593
20
-3.5314960629921259
11
5.8393208661417324
21
-3.5314960629921259
0
LINE
8
BLACK
6
CONTINUOUS
10
5.8393208661417324
20
-3.5314960629921259
11
5.8356484645669289
21
-3.530765590551181
0
LINE
8
BLACK
6
CONTINUOUS
10
5.8356484645669289
20
-3.530765590551181
11
5.832535157480315
21
-3.5286853149606299
0
LINE
8
BLACK
6
CONTINUOUS
10
5.832535157480315
20
-3.5286853149606299
11
5.8304548818897635
21
-3.5255720078740156
0
LINE
8
BLACK
6
CONTINUOUS
10
5.8304548818897635
20
-3.5255720078740156
11
5.8297244094488185
21
-3.5218996062992125
0
LINE
8
BLACK
6
CONTINUOUS
10
5.8297244094488185
20
-3.5218996062992125
11
5.8297244094488185
21
-3.485974409448819
0
LINE
8
BLACK
6
CONTINUOUS
10
5.8297244094488185
20
-3.485974409448819
11
5.8304548818897635
21
-3.4823020078740154
0
LINE
8
BLACK
6
CONTINUOUS
10
5.8304548818897635
20
-3.4823020078740154
11
5.832535157480315
21
-3.4791887007874016
0
LINE
8
BLACK
6
CONTINUOUS
10
5.832535157480315
20
-3.4791887007874016
11
5.8356484645669289
21
-3.4771084251968505
0
LINE
8
BLACK
6
CONTINUOUS
10
5.8356484645669289
20
-3.4771084251968505
11
5.8393208661417324
21
-3.4763779527559056
0
LINE
8
BLACK
6
CONTINUOUS
10
5.8393208661417324
20
-3.4763779527559056
11
5.8585137795275593
21
-3.4763779527559056
0
LINE
8
BLACK
6
CONTINUOUS
10
5.8585137795275593
20
-3.4763779527559056
11
5.8621861811023619
21
-3.4771084251968505
0
LINE
8
BLACK
6
CONTINUOUS
10
5.9360050787401573
20
-3.4771084251968505
11
5.9391183858267711
21
-3.4791887007874016
0
LINE
8
BLACK
6
CONTINUOUS
10
5.9391183858267711
20
-3.4791887007874016
11
5.9411986614173227
21
-3.4823020078740154
0
LINE
8
BLACK
6
CONTINUOUS
10
5.9411986614173227
20
-3.4823020078740154
11
5.9419291338582676
21
-3.485974409448819
0
LINE
8
BLACK
6
CONTINUOUS
10
5.9419291338582676
20
-3.485974409448819
11
5.9419291338582676
21
-3.5218996062992125
0
LINE
8
BLACK
6
CONTINUOUS
10
5.9419291338582676
20
-3.5218996062992125
11
5.9411986614173227
21
-3.5255720078740156
0
LINE
8
BLACK
6
CONTINUOUS
10
5.9411986614173227
20
-3.5255720078740156
11
5.9391183858267711
21
-3.5286853149606299
0
LINE
8
BLACK
6
CONTINUOUS
10
5.9391183858267711
20
-3.5286853149606299
11
5.9360050787401573
21
-3.530765590551181
0
LINE
8
BLACK
6
CONTINUOUS
10
5.9360050787401573
20
-3.530765590551181
11
5.9323326771653546
21
-3.5314960629921259
0
LINE
8
BLACK
6
CONTINUOUS
10
5.9323326771653546
20
-3.5314960629921259
11
5.9131397637795278
21
-3.5314960629921259
0
LINE
8
BLACK
6
CONTINUOUS
10
5.9131397637795278
20
-3.5314960629921259
11
5.9094673622047242
21
-3.530765590551181
0
LINE
8
BLACK
6
CONTINUOUS
10
5.9094673622047242
20
-3.530765590551181
11
5.9063540551181104
21
-3.5286853149606299
0
LINE
8
BLACK
6
CONTINUOUS
10
5.9063540551181104
20
-3.5286853149606299
11
5.9042737795275588
21
-3.5255720078740156
0
LINE
8
BLACK
6
CONTINUOUS
10
5.9042737795275588
20
-3.5255720078740156
11
5.9035433070866139
21
-3.5218996062992125
0
LINE
8
BLACK
6
CONTINUOUS
10
5.9035433070866139
20
-3.5218996062992125
11
5.9035433070866139
21
-3.485974409448819
0
LINE
8
BLACK
6
CONTINUOUS
10
5.9035433070866139
20
-3.485974409448819
11
5.9042737795275588
21
-3.4823020078740154
0
LINE
8
BLACK
6
CONTINUOUS
10
5.9042737795275588
20
-3.4823020078740154
11
5.9063540551181104
21
-3.4791887007874016
0
LINE
8
BLACK
6
CONTINUOUS
10
5.9063540551181104
20
-3.4791887007874016
11
5.9094673622047242
21
-3.4771084251968505
0
LINE
8
BLACK
6
CONTINUOUS
10
5.9094673622047242
20
-3.4771084251968505
11
5.9131397637795278
21
-3.4763779527559056
0
LINE
8
BLACK
6
CONTINUOUS
10
5.9131397637795278
20
-3.4763779527559056
11
5.9323326771653546
21
-3.4763779527559056
0
LINE
8
BLACK
6
CONTINUOUS
10
5.9323326771653546
20
-3.4763779527559056
11
5.9360050787401573
21
-3.4771084251968505
0
LINE
8
BLACK
6
CONTINUOUS
10
6.6614212598425198
20
-3.5206732283464568
11
6.6023661417322836
21
-3.5206732283464568
0
LINE
8
BLACK
6
CONTINUOUS
10
6.6023661417322836
20
-3.5206732283464568
11
6.6023661417322836
21
-3.5068937007874017
0
LINE
8
BLACK
6
CONTINUOUS
10
6.6023661417322836
20
-3.5068937007874017
11
6.6614212598425198
21
-3.5068937007874017
0
LINE
8
BLACK
6
CONTINUOUS
10
6.6614212598425198
20
-3.5068937007874017
11
6.6614212598425198
21
-3.5206732283464568
0
LINE
8
BLACK
6
CONTINUOUS
10
5.6318712204724406
20
-3.4830139370078741
11
5.6349845275590553
21
-3.4850942125984252
0
LINE
8
BLACK
6
CONTINUOUS
10
5.6349845275590553
20
-3.4850942125984252
11
5.637064803149606
21
-3.4882075196850395
0
LINE
8
BLACK
6
CONTINUOUS
10
5.637064803149606
20
-3.4882075196850395
11
5.6377952755905509
21
-3.4918799212598426
0
LINE
8
BLACK
6
CONTINUOUS
10
5.6377952755905509
20
-3.4918799212598426
11
5.6377952755905509
21
-3.511072834645669
0
LINE
8
BLACK
6
CONTINUOUS
10
5.6377952755905509
20
-3.511072834645669
11
5.637064803149606
21
-3.5147452362204725
0
LINE
8
BLACK
6
CONTINUOUS
10
5.637064803149606
20
-3.5147452362204725
11
5.6349845275590553
21
-3.5178585433070864
0
LINE
8
BLACK
6
CONTINUOUS
10
5.6349845275590553
20
-3.5178585433070864
11
5.6318712204724406
21
-3.5199388188976379
0
LINE
8
BLACK
6
CONTINUOUS
10
5.6318712204724406
20
-3.5199388188976379
11
5.628198818897638
21
-3.5206692913385824
0
LINE
8
BLACK
6
CONTINUOUS
10
5.628198818897638
20
-3.5206692913385824
11
5.5922736220472435
21
-3.5206692913385824
0
LINE
8
BLACK
6
CONTINUOUS
10
5.5922736220472435
20
-3.5206692913385824
11
5.5886012204724409
21
-3.5199388188976379
0
LINE
8
BLACK
6
CONTINUOUS
10
5.5886012204724409
20
-3.5199388188976379
11
5.5854879133858271
21
-3.5178585433070864
0
LINE
8
BLACK
6
CONTINUOUS
10
5.5854879133858271
20
-3.5178585433070864
11
5.5834076377952755
21
-3.5147452362204725
0
LINE
8
BLACK
6
CONTINUOUS
10
5.5834076377952755
20
-3.5147452362204725
11
5.5826771653543306
21
-3.511072834645669
0
LINE
8
BLACK
6
CONTINUOUS
10
5.5826771653543306
20
-3.511072834645669
11
5.5826771653543306
21
-3.4918799212598426
0
LINE
8
BLACK
6
CONTINUOUS
10
5.5826771653543306
20
-3.4918799212598426
11
5.5834076377952755
21
-3.4882075196850395
0
LINE
8
BLACK
6
CONTINUOUS
10
5.5834076377952755
20
-3.4882075196850395
11
5.5854879133858271
21
-3.4850942125984252
0
LINE
8
BLACK
6
CONTINUOUS
10
5.5854879133858271
20
-3.4850942125984252
11
5.5886012204724409
21
-3.4830139370078741
0
LINE
8
BLACK
6
CONTINUOUS
10
5.5886012204724409
20
-3.4830139370078741
11
5.5922736220472435
21
-3.4822834645669292
0
LINE
8
BLACK
6
CONTINUOUS
10
5.5922736220472435
20
-3.4822834645669292
11
5.628198818897638
21
-3.4822834645669292
0
LINE
8
BLACK
6
CONTINUOUS
10
5.628198818897638
20
-3.4822834645669292
11
5.6318712204724406
21
-3.4830139370078741
0
LINE
8
BLACK
6
CONTINUOUS
10
5.7302964173228341
20
-3.4830139370078741
11
5.7334097244094488
21
-3.4850942125984252
0
LINE
8
BLACK
6
CONTINUOUS
10
5.7334097244094488
20
-3.4850942125984252
11
5.7354899999999995
21
-3.4882075196850395
0
LINE
8
BLACK
6
CONTINUOUS
10
5.7354899999999995
20
-3.4882075196850395
11
5.7362204724409445
21
-3.4918799212598426
0
LINE
8
BLACK
6
CONTINUOUS
10
5.7362204724409445
20
-3.4918799212598426
11
5.7362204724409445
21
-3.511072834645669
0
LINE
8
BLACK
6
CONTINUOUS
10
5.7362204724409445
20
-3.511072834645669
11
5.7354899999999995
21
-3.5147452362204725
0
LINE
8
BLACK
6
CONTINUOUS
10
5.7354899999999995
20
-3.5147452362204725
11
5.7334097244094488
21
-3.5178585433070864
0
LINE
8
BLACK
6
CONTINUOUS
10
5.7334097244094488
20
-3.5178585433070864
11
5.7302964173228341
21
-3.5199388188976379
0
LINE
8
BLACK
6
CONTINUOUS
10
5.7302964173228341
20
-3.5199388188976379
11
5.7266240157480315
21
-3.5206692913385824
0
LINE
8
BLACK
6
CONTINUOUS
10
5.7266240157480315
20
-3.5206692913385824
11
5.690698818897638
21
-3.5206692913385824
0
LINE
8
BLACK
6
CONTINUOUS
10
5.690698818897638
20
-3.5206692913385824
11
5.6870264173228344
21
-3.5199388188976379
0
LINE
8
BLACK
6
CONTINUOUS
10
5.6870264173228344
20
-3.5199388188976379
11
5.6839131102362206
21
-3.5178585433070864
0
LINE
8
BLACK
6
CONTINUOUS
10
5.6839131102362206
20
-3.5178585433070864
11
5.681832834645669
21
-3.5147452362204725
0
LINE
8
BLACK
6
CONTINUOUS
10
5.681832834645669
20
-3.5147452362204725
11
5.6811023622047241
21
-3.511072834645669
0
LINE
8
BLACK
6
CONTINUOUS
10
5.6811023622047241
20
-3.511072834645669
11
5.6811023622047241
21
-3.4918799212598426
0
LINE
8
BLACK
6
CONTINUOUS
10
5.6811023622047241
20
-3.4918799212598426
11
5.681832834645669
21
-3.4882075196850395
0
LINE
8
BLACK
6
CONTINUOUS
10
5.681832834645669
20
-3.4882075196850395
11
5.6839131102362206
21
-3.4850942125984252
0
LINE
8
BLACK
6
CONTINUOUS
10
5.6839131102362206
20
-3.4850942125984252
11
5.6870264173228344
21
-3.4830139370078741
0
LINE
8
BLACK
6
CONTINUOUS
10
5.6870264173228344
20
-3.4830139370078741
11
5.690698818897638
21
-3.4822834645669292
0
LINE
8
BLACK
6
CONTINUOUS
10
5.690698818897638
20
-3.4822834645669292
11
5.7266240157480315
21
-3.4822834645669292
0
LINE
8
BLACK
6
CONTINUOUS
10
5.7266240157480315
20
-3.4822834645669292
11
5.7302964173228341
21
-3.4830139370078741
0
LINE
8
BLACK
6
CONTINUOUS
10
6.6614212598425198
20
-3.5009803149606298
11
6.6023661417322836
21
-3.5009803149606298
0
LINE
8
BLACK
6
CONTINUOUS
10
6.6023661417322836
20
-3.5009803149606298
11
6.6023661417322836
21
-3.4872007874015747
0
LINE
8
BLACK
6
CONTINUOUS
10
6.6023661417322836
20
-3.4872007874015747
11
6.6614212598425198
21
-3.4872007874015747
0
LINE
8
BLACK
6
CONTINUOUS
10
6.6614212598425198
20
-3.4872007874015747
11
6.6614212598425198
21
-3.5009803149606298
0
LINE
8
BLACK
6
CONTINUOUS
10
6.6614212598425198
20
-3.4813031496062989
11
6.6023661417322836
21
-3.4813031496062989
0
LINE
8
BLACK
6
CONTINUOUS
10
6.6023661417322836
20
-3.4813031496062989
11
6.6023661417322836
21
-3.4675236220472438
0
LINE
8
BLACK
6
CONTINUOUS
10
6.6023661417322836
20
-3.4675236220472438
11
6.6614212598425198
21
-3.4675236220472438
0
LINE
8
BLACK
6
CONTINUOUS
10
6.6614212598425198
20
-3.4675236220472438
11
6.6614212598425198
21
-3.4813031496062989
0
LINE
8
BLACK
6
CONTINUOUS
10
5.6318712204724406
20
-3.4091950393700787
11
5.6349845275590553
21
-3.4112753149606299
0
LINE
8
BLACK
6
CONTINUOUS
10
5.6349845275590553
20
-3.4112753149606299
11
5.637064803149606
21
-3.4143886220472441
0
LINE
8
BLACK
6
CONTINUOUS
10
5.637064803149606
20
-3.4143886220472441
11
5.6377952755905509
21
-3.4180610236220472
0
LINE
8
BLACK
6
CONTINUOUS
10
5.6377952755905509
20
-3.4180610236220472
11
5.6377952755905509
21
-3.4372539370078741
0
LINE
8
BLACK
6
CONTINUOUS
10
5.6377952755905509
20
-3.4372539370078741
11
5.637064803149606
21
-3.4409263385826772
0
LINE
8
BLACK
6
CONTINUOUS
10
5.637064803149606
20
-3.4409263385826772
11
5.6349845275590553
21
-3.4440396456692914
0
LINE
8
BLACK
6
CONTINUOUS
10
5.6349845275590553
20
-3.4440396456692914
11
5.6318712204724406
21
-3.4461199212598426
0
LINE
8
BLACK
6
CONTINUOUS
10
5.6318712204724406
20
-3.4461199212598426
11
5.628198818897638
21
-3.4468503937007875
0
LINE
8
BLACK
6
CONTINUOUS
10
5.628198818897638
20
-3.4468503937007875
11
5.5922736220472435
21
-3.4468503937007875
0
LINE
8
BLACK
6
CONTINUOUS
10
5.5922736220472435
20
-3.4468503937007875
11
5.5886012204724409
21
-3.4461199212598426
0
LINE
8
BLACK
6
CONTINUOUS
10
5.5886012204724409
20
-3.4461199212598426
11
5.5854879133858271
21
-3.4440396456692914
0
LINE
8
BLACK
6
CONTINUOUS
10
5.5854879133858271
20
-3.4440396456692914
11
5.5834076377952755
21
-3.4409263385826772
0
LINE
8
BLACK
6
CONTINUOUS
10
5.5834076377952755
20
-3.4409263385826772
11
5.5826771653543306
21
-3.4372539370078741
0
LINE
8
BLACK
6
CONTINUOUS
10
5.5826771653543306
20
-3.4372539370078741
11
5.5826771653543306
21
-3.4180610236220472
0
LINE
8
BLACK
6
CONTINUOUS
10
5.5826771653543306
20
-3.4180610236220472
11
5.5834076377952755
21
-3.4143886220472441
0
LINE
8
BLACK
6
CONTINUOUS
10
5.5834076377952755
20
-3.4143886220472441
11
5.5854879133858271
21
-3.4112753149606299
0
LINE
8
BLACK
6
CONTINUOUS
10
5.5854879133858271
20
-3.4112753149606299
11
5.5886012204724409
21
-3.4091950393700787
0
LINE
8
BLACK
6
CONTINUOUS
10
5.5886012204724409
20
-3.4091950393700787
11
5.5922736220472435
21
-3.4084645669291338
0
LINE
8
BLACK
6
CONTINUOUS
10
5.5922736220472435
20
-3.4084645669291338
11
5.628198818897638
21
-3.4084645669291338
0
LINE
8
BLACK
6
CONTINUOUS
10
5.628198818897638
20
-3.4084645669291338
11
5.6318712204724406
21
-3.4091950393700787
0
LINE
8
BLACK
6
CONTINUOUS
10
5.7302964173228341
20
-3.4091950393700787
11
5.7334097244094488
21
-3.4112753149606299
0
LINE
8
BLACK
6
CONTINUOUS
10
5.7334097244094488
20
-3.4112753149606299
11
5.7354899999999995
21
-3.4143886220472441
0
LINE
8
BLACK
6
CONTINUOUS
10
5.7354899999999995
20
-3.4143886220472441
11
5.7362204724409445
21
-3.4180610236220472
0
LINE
8
BLACK
6
CONTINUOUS
10
5.7362204724409445
20
-3.4180610236220472
11
5.7362204724409445
21
-3.4372539370078741
0
LINE
8
BLACK
6
CONTINUOUS
10
5.7362204724409445
20
-3.4372539370078741
11
5.7354899999999995
21
-3.4409263385826772
0
LINE
8
BLACK
6
CONTINUOUS
10
5.7354899999999995
20
-3.4409263385826772
11
5.7334097244094488
21
-3.4440396456692914
0
LINE
8
BLACK
6
CONTINUOUS
10
5.7334097244094488
20
-3.4440396456692914
11
5.7302964173228341
21
-3.4461199212598426
0
LINE
8
BLACK
6
CONTINUOUS
10
5.7302964173228341
20
-3.4461199212598426
11
5.7266240157480315
21
-3.4468503937007875
0
LINE
8
BLACK
6
CONTINUOUS
10
5.7266240157480315
20
-3.4468503937007875
11
5.690698818897638
21
-3.4468503937007875
0
LINE
8
BLACK
6
CONTINUOUS
10
5.690698818897638
20
-3.4468503937007875
11
5.6870264173228344
21
-3.4461199212598426
0
LINE
8
BLACK
6
CONTINUOUS
10
5.6870264173228344
20
-3.4461199212598426
11
5.6839131102362206
21
-3.4440396456692914
0
LINE
8
BLACK
6
CONTINUOUS
10
5.6839131102362206
20
-3.4440396456692914
11
5.681832834645669
21
-3.4409263385826772
0
LINE
8
BLACK
6
CONTINUOUS
10
5.681832834645669
20
-3.4409263385826772
11
5.6811023622047241
21
-3.4372539370078741
0
LINE
8
BLACK
6
CONTINUOUS
10
5.6811023622047241
20
-3.4372539370078741
11
5.6811023622047241
21
-3.4180610236220472
0
LINE
8
BLACK
6
CONTINUOUS
10
5.6811023622047241
20
-3.4180610236220472
11
5.681832834645669
21
-3.4143886220472441
0
LINE
8
BLACK
6
CONTINUOUS
10
5.681832834645669
20
-3.4143886220472441
11
5.6839131102362206
21
-3.4112753149606299
0
LINE
8
BLACK
6
CONTINUOUS
10
5.6839131102362206
20
-3.4112753149606299
11
5.6870264173228344
21
-3.4091950393700787
0
LINE
8
BLACK
6
CONTINUOUS
10
5.6870264173228344
20
-3.4091950393700787
11
5.690698818897638
21
-3.4084645669291338
0
LINE
8
BLACK
6
CONTINUOUS
10
5.690698818897638
20
-3.4084645669291338
11
5.7266240157480315
21
-3.4084645669291338
0
LINE
8
BLACK
6
CONTINUOUS
10
5.7266240157480315
20
-3.4084645669291338
11
5.7302964173228341
21
-3.4091950393700787
0
LINE
8
BLACK
6
CONTINUOUS
10
6.8031456692913386
20
-3.4370118110236221
11
6.704720472440945
21
-3.4370118110236221
0
LINE
8
BLACK
6
CONTINUOUS
10
6.704720472440945
20
-3.4370118110236221
11
6.704720472440945
21
-3.377956692913386
0
LINE
8
BLACK
6
CONTINUOUS
10
6.704720472440945
20
-3.377956692913386
11
6.8031456692913386
21
-3.377956692913386
0
LINE
8
BLACK
6
CONTINUOUS
10
6.8031456692913386
20
-3.377956692913386
11
6.8031456692913386
21
-3.4370118110236221
0
LINE
8
BLACK
6
CONTINUOUS
10
6.5176979921259841
20
-3.3747462204724408
11
6.5208112992125979
21
-3.3768264960629919
0
LINE
8
BLACK
6
CONTINUOUS
10
6.5208112992125979
20
-3.3768264960629919
11
6.5228915748031495
21
-3.3799398031496062
0
LINE
8
BLACK
6
CONTINUOUS
10
6.5228915748031495
20
-3.3799398031496062
11
6.5236220472440944
21
-3.3836122047244093
0
LINE
8
BLACK
6
CONTINUOUS
10
6.5236220472440944
20
-3.3836122047244093
11
6.5236220472440944
21
-3.4028051181102361
0
LINE
8
BLACK
6
CONTINUOUS
10
6.5236220472440944
20
-3.4028051181102361
11
6.5228915748031495
21
-3.4064775196850392
0
LINE
8
BLACK
6
CONTINUOUS
10
6.5228915748031495
20
-3.4064775196850392
11
6.5208112992125979
21
-3.4095908267716535
0
LINE
8
BLACK
6
CONTINUOUS
10
6.5208112992125979
20
-3.4095908267716535
11
6.5176979921259841
21
-3.4116711023622046
0
LINE
8
BLACK
6
CONTINUOUS
10
6.5176979921259841
20
-3.4116711023622046
11
6.5140255905511806
21
-3.4124015748031495
0
LINE
8
BLACK
6
CONTINUOUS
10
6.5140255905511806
20
-3.4124015748031495
11
6.4781003937007871
21
-3.4124015748031495
0
LINE
8
BLACK
6
CONTINUOUS
10
6.4781003937007871
20
-3.4124015748031495
11
6.4744279921259844
21
-3.4116711023622046
0
LINE
8
BLACK
6
CONTINUOUS
10
6.4744279921259844
20
-3.4116711023622046
11
6.4713146850393697
21
-3.4095908267716535
0
LINE
8
BLACK
6
CONTINUOUS
10
6.4713146850393697
20
-3.4095908267716535
11
6.469234409448819
21
-3.4064775196850392
0
LINE
8
BLACK
6
CONTINUOUS
10
6.469234409448819
20
-3.4064775196850392
11
6.4685039370078741
21
-3.4028051181102361
0
LINE
8
BLACK
6
CONTINUOUS
10
6.4685039370078741
20
-3.4028051181102361
11
6.4685039370078741
21
-3.3836122047244093
0
LINE
8
BLACK
6
CONTINUOUS
10
6.4685039370078741
20
-3.3836122047244093
11
6.469234409448819
21
-3.3799398031496062
0
LINE
8
BLACK
6
CONTINUOUS
10
6.469234409448819
20
-3.3799398031496062
11
6.4713146850393697
21
-3.3768264960629919
0
LINE
8
BLACK
6
CONTINUOUS
10
6.4713146850393697
20
-3.3768264960629919
11
6.4744279921259844
21
-3.3747462204724408
0
LINE
8
BLACK
6
CONTINUOUS
10
6.4744279921259844
20
-3.3747462204724408
11
6.4781003937007871
21
-3.3740157480314958
0
LINE
8
BLACK
6
CONTINUOUS
10
6.4781003937007871
20
-3.3740157480314958
11
6.5140255905511806
21
-3.3740157480314958
0
LINE
8
BLACK
6
CONTINUOUS
10
6.5140255905511806
20
-3.3740157480314958
11
6.5176979921259841
21
-3.3747462204724408
0
LINE
8
BLACK
6
CONTINUOUS
10
5.9341156299212594
20
-3.376583622047244
11
5.9366701181102357
21
-3.3782905118110236
0
LINE
8
BLACK
6
CONTINUOUS
10
5.9366701181102357
20
-3.3782905118110236
11
5.9383770078740152
21
-3.3808449999999999
0
LINE
8
BLACK
6
CONTINUOUS
10
5.9383770078740152
20
-3.3808449999999999
11
5.9389763779527556
21
-3.3838582677165352
0
LINE
8
BLACK
6
CONTINUOUS
10
5.9389763779527556
20
-3.3838582677165352
11
5.9389763779527556
21
-3.3996062992125982
0
LINE
8
BLACK
6
CONTINUOUS
10
5.9389763779527556
20
-3.3996062992125982
11
5.9383770078740152
21
-3.4026195669291339
0
LINE
8
BLACK
6
CONTINUOUS
10
5.9383770078740152
20
-3.4026195669291339
11
5.9366701181102357
21
-3.4051740551181102
0
LINE
8
BLACK
6
CONTINUOUS
10
5.9366701181102357
20
-3.4051740551181102
11
5.9341156299212594
21
-3.4068809448818898
0
LINE
8
BLACK
6
CONTINUOUS
10
5.9341156299212594
20
-3.4068809448818898
11
5.9311023622047241
21
-3.4074803149606296
0
LINE
8
BLACK
6
CONTINUOUS
10
5.9311023622047241
20
-3.4074803149606296
11
5.840551181102362
21
-3.4074803149606296
0
LINE
8
BLACK
6
CONTINUOUS
10
5.840551181102362
20
-3.4074803149606296
11
5.8375379133858267
21
-3.4068809448818898
0
LINE
8
BLACK
6
CONTINUOUS
10
5.8375379133858267
20
-3.4068809448818898
11
5.8349834251968504
21
-3.4051740551181102
0
LINE
8
BLACK
6
CONTINUOUS
10
5.8349834251968504
20
-3.4051740551181102
11
5.8332765354330709
21
-3.4026195669291339
0
LINE
8
BLACK
6
CONTINUOUS
10
5.8332765354330709
20
-3.4026195669291339
11
5.8326771653543306
21
-3.3996062992125982
0
LINE
8
BLACK
6
CONTINUOUS
10
5.8326771653543306
20
-3.3996062992125982
11
5.8326771653543306
21
-3.3838582677165352
0
LINE
8
BLACK
6
CONTINUOUS
10
5.8326771653543306
20
-3.3838582677165352
11
5.8332765354330709
21
-3.3808449999999999
0
LINE
8
BLACK
6
CONTINUOUS
10
5.8332765354330709
20
-3.3808449999999999
11
5.8349834251968504
21
-3.3782905118110236
0
LINE
8
BLACK
6
CONTINUOUS
10
5.8349834251968504
20
-3.3782905118110236
11
5.8375379133858267
21
-3.376583622047244
0
LINE
8
BLACK
6
CONTINUOUS
10
5.8375379133858267
20
-3.376583622047244
11
5.840551181102362
21
-3.3759842519685037
0
LINE
8
BLACK
6
CONTINUOUS
10
5.840551181102362
20
-3.3759842519685037
11
5.9311023622047241
21
-3.3759842519685037
0
LINE
8
BLACK
6
CONTINUOUS
10
5.9311023622047241
20
-3.3759842519685037
11
5.9341156299212594
21
-3.376583622047244
0
LINE
8
BLACK
6
CONTINUOUS
10
6.5176979921259841
20
-3.3009273228346454
11
6.5208112992125979
21
-3.303007598425197
0
LINE
8
BLACK
6
CONTINUOUS
10
6.5208112992125979
20
-3.303007598425197
11
6.5228915748031495
21
-3.3061209055118108
0
LINE
8
BLACK
6
CONTINUOUS
10
6.5228915748031495
20
-3.3061209055118108
11
6.5236220472440944
21
-3.3097933070866139
0
LINE
8
BLACK
6
CONTINUOUS
10
6.5236220472440944
20
-3.3097933070866139
11
6.5236220472440944
21
-3.3289862204724407
0
LINE
8
BLACK
6
CONTINUOUS
10
6.5236220472440944
20
-3.3289862204724407
11
6.5228915748031495
21
-3.3326586220472438
0
LINE
8
BLACK
6
CONTINUOUS
10
6.5228915748031495
20
-3.3326586220472438
11
6.5208112992125979
21
-3.3357719291338581
0
LINE
8
BLACK
6
CONTINUOUS
10
6.5208112992125979
20
-3.3357719291338581
11
6.5176979921259841
21
-3.3378522047244092
0
LINE
8
BLACK
6
CONTINUOUS
10
6.5176979921259841
20
-3.3378522047244092
11
6.5140255905511806
21
-3.3385826771653542
0
LINE
8
BLACK
6
CONTINUOUS
10
6.5140255905511806
20
-3.3385826771653542
11
6.4781003937007871
21
-3.3385826771653542
0
LINE
8
BLACK
6
CONTINUOUS
10
6.4781003937007871
20
-3.3385826771653542
11
6.4744279921259844
21
-3.3378522047244092
0
LINE
8
BLACK
6
CONTINUOUS
10
6.4744279921259844
20
-3.3378522047244092
11
6.4713146850393697
21
-3.3357719291338581
0
LINE
8
BLACK
6
CONTINUOUS
10
6.4713146850393697
20
-3.3357719291338581
11
6.469234409448819
21
-3.3326586220472438
0
LINE
8
BLACK
6
CONTINUOUS
10
6.469234409448819
20
-3.3326586220472438
11
6.4685039370078741
21
-3.3289862204724407
0
LINE
8
BLACK
6
CONTINUOUS
10
6.4685039370078741
20
-3.3289862204724407
11
6.4685039370078741
21
-3.3097933070866139
0
LINE
8
BLACK
6
CONTINUOUS
10
6.4685039370078741
20
-3.3097933070866139
11
6.469234409448819
21
-3.3061209055118108
0
LINE
8
BLACK
6
CONTINUOUS
10
6.469234409448819
20
-3.3061209055118108
11
6.4713146850393697
21
-3.303007598425197
0
LINE
8
BLACK
6
CONTINUOUS
10
6.4713146850393697
20
-3.303007598425197
11
6.4744279921259844
21
-3.3009273228346454
0
LINE
8
BLACK
6
CONTINUOUS
10
6.4744279921259844
20
-3.3009273228346454
11
6.4781003937007871
21
-3.3001968503937009
0
LINE
8
BLACK
6
CONTINUOUS
10
6.4781003937007871
20
-3.3001968503937009
11
6.5140255905511806
21
-3.3001968503937009
0
LINE
8
BLACK
6
CONTINUOUS
10
6.5140255905511806
20
-3.3001968503937009
11
6.5176979921259841
21
-3.3009273228346454
0
LINE
8
BLACK
6
CONTINUOUS
10
5.9341156299212594
20
-3.286032440944882
11
5.9366701181102357
21
-3.2877393307086615
0
LINE
8
BLACK
6
CONTINUOUS
10
5.9366701181102357
20
-3.2877393307086615
11
5.9383770078740152
21
-3.2902938188976378
0
LINE
8
BLACK
6
CONTINUOUS
10
5.9383770078740152
20
-3.2902938188976378
11
5.9389763779527556
21
-3.2933070866141732
0
LINE
8
BLACK
6
CONTINUOUS
10
5.9389763779527556
20
-3.2933070866141732
11
5.9389763779527556
21
-3.3090551181102361
0
LINE
8
BLACK
6
CONTINUOUS
10
5.9389763779527556
20
-3.3090551181102361
11
5.9383770078740152
21
-3.3120683858267714
0
LINE
8
BLACK
6
CONTINUOUS
10
5.9383770078740152
20
-3.3120683858267714
11
5.9366701181102357
21
-3.3146228740157482
0
LINE
8
BLACK
6
CONTINUOUS
10
5.9366701181102357
20
-3.3146228740157482
11
5.9341156299212594
21
-3.3163297637795273
0
LINE
8
BLACK
6
CONTINUOUS
10
5.9341156299212594
20
-3.3163297637795273
11
5.9311023622047241
21
-3.3169291338582676
0
LINE
8
BLACK
6
CONTINUOUS
10
5.9311023622047241
20
-3.3169291338582676
11
5.840551181102362
21
-3.3169291338582676
0
LINE
8
BLACK
6
CONTINUOUS
10
5.840551181102362
20
-3.3169291338582676
11
5.8375379133858267
21
-3.3163297637795273
0
LINE
8
BLACK
6
CONTINUOUS
10
5.8375379133858267
20
-3.3163297637795273
11
5.8349834251968504
21
-3.3146228740157482
0
LINE
8
BLACK
6
CONTINUOUS
10
5.8349834251968504
20
-3.3146228740157482
11
5.8332765354330709
21
-3.3120683858267714
0
LINE
8
BLACK
6
CONTINUOUS
10
5.8332765354330709
20
-3.3120683858267714
11
5.8326771653543306
21
-3.3090551181102361
0
LINE
8
BLACK
6
CONTINUOUS
10
5.8326771653543306
20
-3.3090551181102361
11
5.8326771653543306
21
-3.2933070866141732
0
LINE
8
BLACK
6
CONTINUOUS
10
5.8326771653543306
20
-3.2933070866141732
11
5.8332765354330709
21
-3.2902938188976378
0
LINE
8
BLACK
6
CONTINUOUS
10
5.8332765354330709
20
-3.2902938188976378
11
5.8349834251968504
21
-3.2877393307086615
0
LINE
8
BLACK
6
CONTINUOUS
10
5.8349834251968504
20
-3.2877393307086615
11
5.8375379133858267
21
-3.286032440944882
0
LINE
8
BLACK
6
CONTINUOUS
10
5.8375379133858267
20
-3.286032440944882
11
5.840551181102362
21
-3.2854330708661417
0
LINE
8
BLACK
6
CONTINUOUS
10
5.840551181102362
20
-3.2854330708661417
11
5.9311023622047241
21
-3.2854330708661417
0
LINE
8
BLACK
6
CONTINUOUS
10
5.9311023622047241
20
-3.2854330708661417
11
5.9341156299212594
21
-3.286032440944882
0
LINE
8
BLACK
6
CONTINUOUS
10
6.8606128740157475
20
-3.0797993307086613
11
6.8611455511811021
21
-3.0803320078740155
0
LINE
8
BLACK
6
CONTINUOUS
10
6.8611455511811021
20
-3.0803320078740155
11
6.8612204724409445
21
-3.0807086614173227
0
LINE
8
BLACK
6
CONTINUOUS
10
6.8612204724409445
20
-3.0807086614173227
11
6.8612204724409445
21
-4.0649606299212602
0
LINE
8
BLACK
6
CONTINUOUS
10
6.8612204724409445
20
-4.0649606299212602
11
6.8611455511811021
21
-4.0653372834645669
0
LINE
8
BLACK
6
CONTINUOUS
10
6.8611455511811021
20
-4.0653372834645669
11
6.8606128740157475
21
-4.0658699606299216
0
LINE
8
BLACK
6
CONTINUOUS
10
6.8606128740157475
20
-4.0658699606299216
11
6.8602362204724407
21
-4.0659448818897639
0
LINE
8
BLACK
6
CONTINUOUS
10
6.8602362204724407
20
-4.0659448818897639
11
5.5216535433070861
21
-4.0659448818897639
0
LINE
8
BLACK
6
CONTINUOUS
10
5.5216535433070861
20
-4.0659448818897639
11
5.5212768897637794
21
-4.0658699606299216
0
LINE
8
BLACK
6
CONTINUOUS
10
5.5212768897637794
20
-4.0658699606299216
11
5.5207442125984247
21
-4.0653372834645669
0
LINE
8
BLACK
6
CONTINUOUS
10
5.5207442125984247
20
-4.0653372834645669
11
5.5206692913385824
21
-4.0649606299212602
0
LINE
8
BLACK
6
CONTINUOUS
10
5.5206692913385824
20
-4.0649606299212602
11
5.5206692913385824
21
-3.0807086614173227
0
LINE
8
BLACK
6
CONTINUOUS
10
5.5206692913385824
20
-3.0807086614173227
11
5.5207442125984247
21
-3.0803320078740155
0
LINE
8
BLACK
6
CONTINUOUS
10
5.5207442125984247
20
-3.0803320078740155
11
5.5212768897637794
21
-3.0797993307086613
0
LINE
8
BLACK
6
CONTINUOUS
10
5.5212768897637794
20
-3.0797993307086613
11
5.5216535433070861
21
-3.079724409448819
0
LINE
8
BLACK
6
CONTINUOUS
10
5.5216535433070861
20
-3.079724409448819
11
6.8602362204724407
21
-3.079724409448819
0
LINE
8
BLACK
6
CONTINUOUS
10
6.8602362204724407
20
-3.079724409448819
11
6.8606128740157475
21
-3.0797993307086613
0
LINE
8
BLACK
6
CONTINUOUS
10
5.5226377952755907
20
-3.0816929133858268
11
5.5226377952755907
21
-4.0639763779527556
0
LINE
8
BLACK
6
CONTINUOUS
10
5.5226377952755907
20
-4.0639763779527556
11
6.859251968503937
21
-4.0639763779527556
0
LINE
8
BLACK
6
CONTINUOUS
10
6.859251968503937
20
-4.0639763779527556
11
6.859251968503937
21
-3.0816929133858268
0
LINE
8
BLACK
6
CONTINUOUS
10
6.859251968503937
20
-3.0816929133858268
11
5.5226377952755907
21
-3.0816929133858268
  0
ENDSEC
  0
EOF
