G04 #@! TF.GenerationSoftware,KiCad,Pcbnew,9.0.9-9.0.9~ubuntu24.04.1*
G04 #@! TF.CreationDate,2026-07-01T08:40:59-05:00*
G04 #@! TF.ProjectId,psycho_badge_back,70737963-686f-45f6-9261-6467655f6261,1*
G04 #@! TF.SameCoordinates,Original*
G04 #@! TF.FileFunction,Profile,NP*
%FSLAX46Y46*%
G04 Gerber Fmt 4.6, Leading zero omitted, Abs format (unit mm)*
G04 Created by KiCad (PCBNEW 9.0.9-9.0.9~ubuntu24.04.1) date 2026-07-01 08:40:59*
%MOMM*%
%LPD*%
G01*
G04 APERTURE LIST*
G04 #@! TA.AperFunction,Profile*
%ADD10C,0.050000*%
G04 #@! TD*
G04 #@! TA.AperFunction,Profile*
%ADD11C,0.200000*%
G04 #@! TD*
G04 APERTURE END LIST*
D10*
G04 #@! TO.C,Lanyard*
X181069000Y-40616000D02*
X181196000Y-39981000D01*
X181069000Y-43689400D02*
X181069000Y-40616000D01*
X181196000Y-39981000D02*
X181450000Y-39600000D01*
X181450000Y-39600000D02*
X181958000Y-39092000D01*
X181958000Y-39092000D02*
X182593000Y-38838000D01*
X182593000Y-38838000D02*
X183101000Y-38711000D01*
X183101000Y-38711000D02*
X184117000Y-38584000D01*
X184879000Y-38584000D02*
X184117000Y-38584000D01*
X184879000Y-38584000D02*
X185641000Y-38584000D01*
X185641000Y-38584000D02*
X186530000Y-38711000D01*
X186530000Y-38711000D02*
X187165000Y-38838000D01*
X187165000Y-38838000D02*
X187800000Y-39092000D01*
X187800000Y-39092000D02*
X188308000Y-39600000D01*
X188308000Y-39600000D02*
X188562000Y-39981000D01*
X188562000Y-39981000D02*
X188689000Y-40616000D01*
X188689000Y-43689400D02*
X181069000Y-43689400D01*
X188689000Y-43689400D02*
X188689000Y-40616000D01*
X92269000Y-40616000D02*
X92396000Y-39981000D01*
X92269000Y-43689400D02*
X92269000Y-40616000D01*
X92396000Y-39981000D02*
X92650000Y-39600000D01*
X92650000Y-39600000D02*
X93158000Y-39092000D01*
X93158000Y-39092000D02*
X93793000Y-38838000D01*
X93793000Y-38838000D02*
X94301000Y-38711000D01*
X94301000Y-38711000D02*
X95317000Y-38584000D01*
X96079000Y-38584000D02*
X95317000Y-38584000D01*
X96079000Y-38584000D02*
X96841000Y-38584000D01*
X96841000Y-38584000D02*
X97730000Y-38711000D01*
X97730000Y-38711000D02*
X98365000Y-38838000D01*
X98365000Y-38838000D02*
X99000000Y-39092000D01*
X99000000Y-39092000D02*
X99508000Y-39600000D01*
X99508000Y-39600000D02*
X99762000Y-39981000D01*
X99762000Y-39981000D02*
X99889000Y-40616000D01*
X99889000Y-43689400D02*
X92269000Y-43689400D01*
X99889000Y-43689400D02*
X99889000Y-40616000D01*
D11*
G04 #@! TO.C,REF\u002A\u002A*
X64300000Y-36700000D02*
X64300000Y-138300000D01*
X64300000Y-138300000D02*
X216700000Y-138300000D01*
X216700000Y-36700000D02*
X64300000Y-36700000D01*
X216700000Y-138300000D02*
X216700000Y-36700000D01*
G04 #@! TD*
M02*
