M48
; DRILL file {KiCad 9.0.9-9.0.9~ubuntu24.04.1} date 2026-07-01T08:29:01-0500
; FORMAT={-:-/ absolute / metric / decimal}
; #@! TF.CreationDate,2026-07-01T08:29:01-05:00
; #@! TF.GenerationSoftware,Kicad,Pcbnew,9.0.9-9.0.9~ubuntu24.04.1
; #@! TF.FileFunction,MixedPlating,1,2
FMAT,2
METRIC
; #@! TA.AperFunction,Plated,PTH,ViaDrill
T1C0.300
; #@! TA.AperFunction,Plated,PTH,ComponentDrill
T2C0.700
; #@! TA.AperFunction,Plated,PTH,ComponentDrill
T3C0.800
; #@! TA.AperFunction,Plated,PTH,ComponentDrill
T4C0.900
; #@! TA.AperFunction,Plated,PTH,ComponentDrill
T5C1.000
; #@! TA.AperFunction,Plated,PTH,ComponentDrill
T6C1.016
; #@! TA.AperFunction,Plated,PTH,ComponentDrill
T7C1.020
; #@! TA.AperFunction,NonPlated,NPTH,ComponentDrill
T8C2.200
%
G90
G05
T1
X68.0Y-91.94
X77.6Y-111.5
X97.55Y-115.425
X120.65Y-38.375
X146.0Y-108.0
X146.0Y-110.0
X146.0Y-112.0
X157.0Y-78.0
X157.0Y-80.0
X157.0Y-82.0
X176.5Y-38.725
X209.625Y-125.7
X213.88Y-130.89
T2
X71.0Y-47.98
X71.0Y-55.6
X74.948Y-98.338
X82.452Y-99.662
X85.08Y-58.1
X89.448Y-100.438
X92.7Y-58.1
X96.952Y-101.762
X102.4Y-42.09
X102.4Y-49.71
X109.036Y-75.409
X109.7Y-83.0
X109.868Y-85.109
X110.532Y-92.7
X129.0Y-92.39
X129.0Y-100.01
X131.6Y-67.58
X131.6Y-75.2
X201.9Y-116.29
X201.9Y-123.91
T3
X70.92Y-86.8
X70.92Y-89.3
X71.73Y-91.94
X71.73Y-94.44
X71.73Y-96.57
X71.73Y-99.07
X73.314Y-65.239
X75.8Y-65.5
X85.714Y-66.039
X88.2Y-66.3
X97.934Y-69.343
X100.2Y-70.4
X105.75Y-101.9
X108.25Y-101.9
X110.9Y-100.2
X110.9Y-97.7
T4
X74.295Y-49.64
X75.95Y-90.027
X76.835Y-49.64
X77.575Y-90.313
X78.15Y-65.8
X79.2Y-90.6
X79.8Y-65.8
X80.825Y-90.887
X81.45Y-65.8
X83.1Y-65.8
X83.636Y-91.383
X84.744Y-99.779
X85.261Y-91.67
X86.886Y-91.956
X87.246Y-100.22
X87.725Y-54.3
X88.511Y-92.243
X90.265Y-54.3
X90.725Y-92.727
X90.831Y-66.89
X92.35Y-93.013
X92.4Y-67.4
X93.969Y-67.91
X93.975Y-93.3
X95.538Y-68.42
X95.6Y-93.587
X97.125Y-46.8
X97.55Y-93.927
X99.175Y-94.213
X99.2Y-101.9
X99.665Y-46.8
X100.8Y-94.5
X101.701Y-102.341
X102.425Y-94.787
X102.5Y-71.6
X103.995Y-72.297
X104.15Y-95.127
X105.491Y-72.995
X105.775Y-95.413
X106.986Y-73.692
X107.4Y-95.7
X109.025Y-95.987
X129.0Y-86.86
X129.0Y-89.4
X131.6Y-77.725
X131.6Y-80.265
X201.8Y-111.235
X201.8Y-113.775
X204.8Y-55.4
X204.8Y-60.48
X205.4Y-103.12
X205.4Y-108.2
T5
X105.72Y-105.0
X108.26Y-105.0
X110.8Y-105.0
X113.34Y-105.0
X115.88Y-105.0
X118.42Y-105.0
X120.96Y-105.0
X123.5Y-105.0
X154.343Y-51.681
X155.417Y-49.379
X200.99Y-69.15
X202.063Y-66.848
X210.6Y-103.1
X210.6Y-105.6
X210.6Y-108.1
T6
X71.52Y-42.6
X71.52Y-45.14
X74.06Y-42.6
X74.06Y-45.14
X76.6Y-42.6
X76.6Y-45.14
X204.52Y-42.6
X204.52Y-45.14
X207.06Y-42.6
X207.06Y-45.14
X209.6Y-42.6
X209.6Y-45.14
T7
X168.68Y-76.54
X168.68Y-99.4
X171.22Y-76.54
X171.22Y-99.4
X173.76Y-76.54
X173.76Y-99.4
X176.3Y-76.54
X176.3Y-99.4
X178.84Y-76.54
X178.84Y-99.4
X181.38Y-76.54
X181.38Y-99.4
X183.92Y-76.54
X183.92Y-99.4
X186.46Y-76.54
X186.46Y-99.4
X189.0Y-76.54
X189.0Y-99.4
X191.54Y-76.54
X191.54Y-99.4
X194.08Y-76.54
X194.08Y-99.4
X196.62Y-76.54
X196.62Y-99.4
X199.16Y-76.54
X199.16Y-99.4
T8
X67.0Y-39.4
X67.0Y-135.6
X214.0Y-39.4
X214.0Y-135.6
M30
