G04 #@! TF.GenerationSoftware,KiCad,Pcbnew,9.0.9-9.0.9~ubuntu24.04.1*
G04 #@! TF.CreationDate,2026-07-01T08:27:59-05:00*
G04 #@! TF.ProjectId,psycho_badge,70737963-686f-45f6-9261-6467652e6b69,1*
G04 #@! TF.SameCoordinates,Original*
G04 #@! TF.FileFunction,Soldermask,Top*
G04 #@! TF.FilePolarity,Negative*
%FSLAX46Y46*%
G04 Gerber Fmt 4.6, Leading zero omitted, Abs format (unit mm)*
G04 Created by KiCad (PCBNEW 9.0.9-9.0.9~ubuntu24.04.1) date 2026-07-01 08:27:59*
%MOMM*%
%LPD*%
G01*
G04 APERTURE LIST*
G04 Aperture macros list*
%AMHorizOval*
0 Thick line with rounded ends*
0 $1 width*
0 $2 $3 position (X,Y) of the first rounded end (center of the circle)*
0 $4 $5 position (X,Y) of the second rounded end (center of the circle)*
0 Add line between two ends*
20,1,$1,$2,$3,$4,$5,0*
0 Add two circle primitives to create the rounded ends*
1,1,$1,$2,$3*
1,1,$1,$4,$5*%
%AMRotRect*
0 Rectangle, with rotation*
0 The origin of the aperture is its center*
0 $1 length*
0 $2 width*
0 $3 Rotation angle, in degrees counterclockwise*
0 Add horizontal line*
21,1,$1,$2,0,0,$3*%
G04 Aperture macros list end*
%ADD10C,0.100000*%
%ADD11C,0.000000*%
%ADD12R,1.727200X1.727200*%
%ADD13C,1.727200*%
%ADD14O,1.727200X1.727200*%
%ADD15R,1.150000X1.800000*%
%ADD16O,1.150000X1.800000*%
%ADD17C,2.200000*%
%ADD18C,1.600000*%
%ADD19RotRect,1.150000X1.800000X350.000000*%
%ADD20HorizOval,1.150000X-0.056436X-0.320063X0.056436X0.320063X0*%
%ADD21R,1.800000X1.800000*%
%ADD22C,1.800000*%
%ADD23R,1.700000X1.700000*%
%ADD24O,1.700000X1.700000*%
%ADD25C,1.400000*%
%ADD26RotRect,1.800000X1.800000X350.000000*%
%ADD27RotRect,1.700000X1.700000X335.000000*%
%ADD28HorizOval,1.700000X0.000000X0.000000X0.000000X0.000000X0*%
%ADD29RotRect,1.150000X1.800000X335.000000*%
%ADD30HorizOval,1.150000X-0.137351X-0.294550X0.137351X0.294550X0*%
%ADD31RotRect,1.700000X1.700000X155.000000*%
%ADD32HorizOval,1.700000X0.000000X0.000000X0.000000X0.000000X0*%
%ADD33RotRect,1.150000X1.800000X342.000000*%
%ADD34HorizOval,1.150000X-0.100431X-0.309093X0.100431X0.309093X0*%
%ADD35O,1.600000X2.700000*%
G04 APERTURE END LIST*
D10*
G04 #@! TO.C,G-Silk*
X102300000Y-98300000D02*
X102300000Y-99525000D01*
X102025000Y-99500000D01*
X101750000Y-99475000D01*
X101750000Y-98250000D01*
X102300000Y-98300000D01*
G36*
X102300000Y-98300000D02*
G01*
X102300000Y-99525000D01*
X102025000Y-99500000D01*
X101750000Y-99475000D01*
X101750000Y-98250000D01*
X102300000Y-98300000D01*
G37*
X98425000Y-97700000D02*
X98700000Y-97725000D01*
X98700000Y-98775000D01*
X98675000Y-99075000D01*
X98200000Y-99000000D01*
X98200000Y-97675000D01*
X98425000Y-97700000D01*
G36*
X98425000Y-97700000D02*
G01*
X98700000Y-97725000D01*
X98700000Y-98775000D01*
X98675000Y-99075000D01*
X98200000Y-99000000D01*
X98200000Y-97675000D01*
X98425000Y-97700000D01*
G37*
X145225000Y-75175000D02*
X145225000Y-77575000D01*
X145275000Y-79800000D01*
X145275000Y-81300000D01*
X144675000Y-81300000D01*
X144000000Y-81250000D01*
X143950000Y-77100000D01*
X143925000Y-75150000D01*
X145225000Y-75175000D01*
G36*
X145225000Y-75175000D02*
G01*
X145225000Y-77575000D01*
X145275000Y-79800000D01*
X145275000Y-81300000D01*
X144675000Y-81300000D01*
X144000000Y-81250000D01*
X143950000Y-77100000D01*
X143925000Y-75150000D01*
X145225000Y-75175000D01*
G37*
X140875000Y-74675000D02*
X140875000Y-75400000D01*
X140950000Y-78325000D01*
X140875000Y-80625000D01*
X140575000Y-80625000D01*
X140400000Y-80525000D01*
X140275000Y-80325000D01*
X140000000Y-80300000D01*
X140125000Y-76125000D01*
X140125000Y-74625000D01*
X140875000Y-74675000D01*
G36*
X140875000Y-74675000D02*
G01*
X140875000Y-75400000D01*
X140950000Y-78325000D01*
X140875000Y-80625000D01*
X140575000Y-80625000D01*
X140400000Y-80525000D01*
X140275000Y-80325000D01*
X140000000Y-80300000D01*
X140125000Y-76125000D01*
X140125000Y-74625000D01*
X140875000Y-74675000D01*
G37*
X193975000Y-109175000D02*
X193750000Y-109550000D01*
X193475000Y-109975000D01*
X192925000Y-110725000D01*
X192325000Y-110275000D01*
X192450000Y-110075000D01*
X192700000Y-109725000D01*
X192975000Y-109375000D01*
X193275000Y-109200000D01*
X193600000Y-109150000D01*
X193975000Y-109175000D01*
G36*
X193975000Y-109175000D02*
G01*
X193750000Y-109550000D01*
X193475000Y-109975000D01*
X192925000Y-110725000D01*
X192325000Y-110275000D01*
X192450000Y-110075000D01*
X192700000Y-109725000D01*
X192975000Y-109375000D01*
X193275000Y-109200000D01*
X193600000Y-109150000D01*
X193975000Y-109175000D01*
G37*
X86825000Y-75575000D02*
X86775000Y-75650000D01*
X86625000Y-75725000D01*
X86375000Y-75825000D01*
X86150000Y-75725000D01*
X86100000Y-75650000D01*
X86050000Y-75500000D01*
X86075000Y-75350000D01*
X86175000Y-75225000D01*
X86275000Y-75125000D01*
X86350000Y-75125000D01*
X86825000Y-75575000D01*
G36*
X86825000Y-75575000D02*
G01*
X86775000Y-75650000D01*
X86625000Y-75725000D01*
X86375000Y-75825000D01*
X86150000Y-75725000D01*
X86100000Y-75650000D01*
X86050000Y-75500000D01*
X86075000Y-75350000D01*
X86175000Y-75225000D01*
X86275000Y-75125000D01*
X86350000Y-75125000D01*
X86825000Y-75575000D01*
G37*
X145225000Y-68800000D02*
X145300000Y-69175000D01*
X145350000Y-70475000D01*
X145425000Y-72675000D01*
X145450000Y-74275000D01*
X143950000Y-74275000D01*
X143950000Y-70250000D01*
X144000000Y-69150000D01*
X144125000Y-68750000D01*
X144475000Y-68575000D01*
X144850000Y-68550000D01*
X145225000Y-68800000D01*
G36*
X145225000Y-68800000D02*
G01*
X145300000Y-69175000D01*
X145350000Y-70475000D01*
X145425000Y-72675000D01*
X145450000Y-74275000D01*
X143950000Y-74275000D01*
X143950000Y-70250000D01*
X144000000Y-69150000D01*
X144125000Y-68750000D01*
X144475000Y-68575000D01*
X144850000Y-68550000D01*
X145225000Y-68800000D01*
G37*
X115025000Y-74750000D02*
X114975000Y-79050000D01*
X114575000Y-79000000D01*
X113350000Y-79200000D01*
X113350000Y-78475000D01*
X113300000Y-76600000D01*
X113225000Y-75325000D01*
X113475000Y-75125000D01*
X113750000Y-74950000D01*
X113950000Y-74650000D01*
X114150000Y-74475000D01*
X114700000Y-74475000D01*
X115025000Y-74750000D01*
G36*
X115025000Y-74750000D02*
G01*
X114975000Y-79050000D01*
X114575000Y-79000000D01*
X113350000Y-79200000D01*
X113350000Y-78475000D01*
X113300000Y-76600000D01*
X113225000Y-75325000D01*
X113475000Y-75125000D01*
X113750000Y-74950000D01*
X113950000Y-74650000D01*
X114150000Y-74475000D01*
X114700000Y-74475000D01*
X115025000Y-74750000D01*
G37*
X148800000Y-71050000D02*
X148950000Y-71300000D01*
X148975000Y-71950000D01*
X148975000Y-73175000D01*
X148950000Y-74675000D01*
X148725000Y-74675000D01*
X148400000Y-74625000D01*
X148325000Y-74475000D01*
X148275000Y-72125000D01*
X148250000Y-71300000D01*
X148375000Y-71075000D01*
X148625000Y-71000000D01*
X148800000Y-71050000D01*
G36*
X148800000Y-71050000D02*
G01*
X148950000Y-71300000D01*
X148975000Y-71950000D01*
X148975000Y-73175000D01*
X148950000Y-74675000D01*
X148725000Y-74675000D01*
X148400000Y-74625000D01*
X148325000Y-74475000D01*
X148275000Y-72125000D01*
X148250000Y-71300000D01*
X148375000Y-71075000D01*
X148625000Y-71000000D01*
X148800000Y-71050000D01*
G37*
X100150000Y-97975000D02*
X100550000Y-98025000D01*
X100750000Y-98050000D01*
X100750000Y-98275000D01*
X100550000Y-98250000D01*
X100325000Y-98250000D01*
X100325000Y-98575000D01*
X100650000Y-98575000D01*
X100650000Y-98750000D01*
X100325000Y-98750000D01*
X100325000Y-99225000D01*
X99850000Y-99200000D01*
X99875000Y-97950000D01*
X100150000Y-97975000D01*
G36*
X100150000Y-97975000D02*
G01*
X100550000Y-98025000D01*
X100750000Y-98050000D01*
X100750000Y-98275000D01*
X100550000Y-98250000D01*
X100325000Y-98250000D01*
X100325000Y-98575000D01*
X100650000Y-98575000D01*
X100650000Y-98750000D01*
X100325000Y-98750000D01*
X100325000Y-99225000D01*
X99850000Y-99200000D01*
X99875000Y-97950000D01*
X100150000Y-97975000D01*
G37*
X125775000Y-92650000D02*
X126300000Y-92925000D01*
X126675000Y-93350000D01*
X126775000Y-94000000D01*
X126800000Y-95675000D01*
X126875000Y-98500000D01*
X126900000Y-100525000D01*
X125475000Y-100625000D01*
X123625000Y-100575000D01*
X123425000Y-93675000D01*
X123475000Y-93125000D01*
X123725000Y-92850000D01*
X124350000Y-92650000D01*
X125050000Y-92600000D01*
X125775000Y-92650000D01*
G36*
X125775000Y-92650000D02*
G01*
X126300000Y-92925000D01*
X126675000Y-93350000D01*
X126775000Y-94000000D01*
X126800000Y-95675000D01*
X126875000Y-98500000D01*
X126900000Y-100525000D01*
X125475000Y-100625000D01*
X123625000Y-100575000D01*
X123425000Y-93675000D01*
X123475000Y-93125000D01*
X123725000Y-92850000D01*
X124350000Y-92650000D01*
X125050000Y-92600000D01*
X125775000Y-92650000D01*
G37*
X140925000Y-70175000D02*
X141025000Y-70375000D01*
X141075000Y-70725000D01*
X141100000Y-71700000D01*
X141100000Y-73825000D01*
X140275000Y-73800000D01*
X140200000Y-73775000D01*
X140200000Y-73700000D01*
X140175000Y-72650000D01*
X140200000Y-71400000D01*
X140225000Y-70600000D01*
X140300000Y-70250000D01*
X140500000Y-70100000D01*
X140750000Y-70100000D01*
X140925000Y-70175000D01*
G36*
X140925000Y-70175000D02*
G01*
X141025000Y-70375000D01*
X141075000Y-70725000D01*
X141100000Y-71700000D01*
X141100000Y-73825000D01*
X140275000Y-73800000D01*
X140200000Y-73775000D01*
X140200000Y-73700000D01*
X140175000Y-72650000D01*
X140200000Y-71400000D01*
X140225000Y-70600000D01*
X140300000Y-70250000D01*
X140500000Y-70100000D01*
X140750000Y-70100000D01*
X140925000Y-70175000D01*
G37*
X82450000Y-95175000D02*
X83300000Y-95275000D01*
X83300000Y-95500000D01*
X82625000Y-95425000D01*
X82525000Y-95450000D01*
X82475000Y-95675000D01*
X82475000Y-95950000D01*
X83125000Y-95975000D01*
X83125000Y-96150000D01*
X82450000Y-96150000D01*
X82450000Y-96625000D01*
X82175000Y-96600000D01*
X81625000Y-96475000D01*
X81600000Y-95825000D01*
X81625000Y-95075000D01*
X82450000Y-95175000D01*
G36*
X82450000Y-95175000D02*
G01*
X83300000Y-95275000D01*
X83300000Y-95500000D01*
X82625000Y-95425000D01*
X82525000Y-95450000D01*
X82475000Y-95675000D01*
X82475000Y-95950000D01*
X83125000Y-95975000D01*
X83125000Y-96150000D01*
X82450000Y-96150000D01*
X82450000Y-96625000D01*
X82175000Y-96600000D01*
X81625000Y-96475000D01*
X81600000Y-95825000D01*
X81625000Y-95075000D01*
X82450000Y-95175000D01*
G37*
X114825000Y-92425000D02*
X114825000Y-95175000D01*
X114725000Y-95775000D01*
X114600000Y-96250000D01*
X114600000Y-96900000D01*
X113650000Y-96950000D01*
X113050000Y-96975000D01*
X113000000Y-96775000D01*
X113000000Y-95725000D01*
X112950000Y-94500000D01*
X113250000Y-94175000D01*
X113300000Y-93325000D01*
X113425000Y-92775000D01*
X113775000Y-92625000D01*
X114375000Y-92350000D01*
X114825000Y-92425000D01*
G36*
X114825000Y-92425000D02*
G01*
X114825000Y-95175000D01*
X114725000Y-95775000D01*
X114600000Y-96250000D01*
X114600000Y-96900000D01*
X113650000Y-96950000D01*
X113050000Y-96975000D01*
X113000000Y-96775000D01*
X113000000Y-95725000D01*
X112950000Y-94500000D01*
X113250000Y-94175000D01*
X113300000Y-93325000D01*
X113425000Y-92775000D01*
X113775000Y-92625000D01*
X114375000Y-92350000D01*
X114825000Y-92425000D01*
G37*
X125725000Y-75075000D02*
X126300000Y-75350000D01*
X126675000Y-75775000D01*
X126875000Y-76450000D01*
X126875000Y-77525000D01*
X126850000Y-79025000D01*
X126800000Y-81425000D01*
X126675000Y-84025000D01*
X126675000Y-84050000D01*
X125175000Y-84000000D01*
X123600000Y-83875000D01*
X123600000Y-76425000D01*
X123725000Y-75650000D01*
X124100000Y-75225000D01*
X124900000Y-75000000D01*
X125725000Y-75075000D01*
G36*
X125725000Y-75075000D02*
G01*
X126300000Y-75350000D01*
X126675000Y-75775000D01*
X126875000Y-76450000D01*
X126875000Y-77525000D01*
X126850000Y-79025000D01*
X126800000Y-81425000D01*
X126675000Y-84025000D01*
X126675000Y-84050000D01*
X125175000Y-84000000D01*
X123600000Y-83875000D01*
X123600000Y-76425000D01*
X123725000Y-75650000D01*
X124100000Y-75225000D01*
X124900000Y-75000000D01*
X125725000Y-75075000D01*
G37*
X148675000Y-75525000D02*
X148825000Y-75650000D01*
X148875000Y-76100000D01*
X148875000Y-76800000D01*
X148900000Y-78800000D01*
X148850000Y-80325000D01*
X148800000Y-81025000D01*
X148750000Y-81325000D01*
X148650000Y-81475000D01*
X148475000Y-81575000D01*
X148175000Y-81600000D01*
X148175000Y-80075000D01*
X148200000Y-77775000D01*
X148175000Y-75575000D01*
X148225000Y-75500000D01*
X148475000Y-75475000D01*
X148675000Y-75525000D01*
G36*
X148675000Y-75525000D02*
G01*
X148825000Y-75650000D01*
X148875000Y-76100000D01*
X148875000Y-76800000D01*
X148900000Y-78800000D01*
X148850000Y-80325000D01*
X148800000Y-81025000D01*
X148750000Y-81325000D01*
X148650000Y-81475000D01*
X148475000Y-81575000D01*
X148175000Y-81600000D01*
X148175000Y-80075000D01*
X148200000Y-77775000D01*
X148175000Y-75575000D01*
X148225000Y-75500000D01*
X148475000Y-75475000D01*
X148675000Y-75525000D01*
G37*
X88625000Y-96175000D02*
X89250000Y-96250000D01*
X89550000Y-96275000D01*
X89525000Y-96550000D01*
X88900000Y-96500000D01*
X88900000Y-96800000D01*
X89350000Y-96825000D01*
X89350000Y-97025000D01*
X88900000Y-97000000D01*
X88900000Y-97350000D01*
X89275000Y-97400000D01*
X89525000Y-97425000D01*
X89525000Y-97700000D01*
X89075000Y-97650000D01*
X88450000Y-97550000D01*
X88150000Y-97500000D01*
X88150000Y-97125000D01*
X88175000Y-96650000D01*
X88200000Y-96125000D01*
X88625000Y-96175000D01*
G36*
X88625000Y-96175000D02*
G01*
X89250000Y-96250000D01*
X89550000Y-96275000D01*
X89525000Y-96550000D01*
X88900000Y-96500000D01*
X88900000Y-96800000D01*
X89350000Y-96825000D01*
X89350000Y-97025000D01*
X88900000Y-97000000D01*
X88900000Y-97350000D01*
X89275000Y-97400000D01*
X89525000Y-97425000D01*
X89525000Y-97700000D01*
X89075000Y-97650000D01*
X88450000Y-97550000D01*
X88150000Y-97500000D01*
X88150000Y-97125000D01*
X88175000Y-96650000D01*
X88200000Y-96125000D01*
X88625000Y-96175000D01*
G37*
X91225000Y-96523989D02*
X91850000Y-96598989D01*
X92175000Y-96650000D01*
X92175000Y-96925000D01*
X91400000Y-96825000D01*
X91400000Y-97175000D01*
X91975000Y-97250000D01*
X91975000Y-97425000D01*
X91375000Y-97350000D01*
X91375000Y-97700000D01*
X91850000Y-97750000D01*
X92150000Y-97773989D01*
X92125000Y-98048989D01*
X91675000Y-98025000D01*
X91100000Y-97950000D01*
X90750000Y-97900000D01*
X90750000Y-97473989D01*
X90775000Y-96998989D01*
X90800000Y-96473989D01*
X91225000Y-96523989D01*
G36*
X91225000Y-96523989D02*
G01*
X91850000Y-96598989D01*
X92175000Y-96650000D01*
X92175000Y-96925000D01*
X91400000Y-96825000D01*
X91400000Y-97175000D01*
X91975000Y-97250000D01*
X91975000Y-97425000D01*
X91375000Y-97350000D01*
X91375000Y-97700000D01*
X91850000Y-97750000D01*
X92150000Y-97773989D01*
X92125000Y-98048989D01*
X91675000Y-98025000D01*
X91100000Y-97950000D01*
X90750000Y-97900000D01*
X90750000Y-97473989D01*
X90775000Y-96998989D01*
X90800000Y-96473989D01*
X91225000Y-96523989D01*
G37*
X94825000Y-97100000D02*
X95150000Y-97175000D01*
X95300000Y-97625000D01*
X95375000Y-97650000D01*
X95550000Y-97250000D01*
X95850000Y-97275000D01*
X96100000Y-97325000D01*
X96200000Y-97725000D01*
X96275000Y-97750000D01*
X96525000Y-97400000D01*
X96850000Y-97450000D01*
X97175000Y-97475000D01*
X96850000Y-98125000D01*
X96575000Y-98750000D01*
X96000000Y-98650000D01*
X95825000Y-98125000D01*
X95775000Y-98125000D01*
X95475000Y-98600000D01*
X95000000Y-98475000D01*
X94875000Y-98100000D01*
X94700000Y-97625000D01*
X94500000Y-97050000D01*
X94825000Y-97100000D01*
G36*
X94825000Y-97100000D02*
G01*
X95150000Y-97175000D01*
X95300000Y-97625000D01*
X95375000Y-97650000D01*
X95550000Y-97250000D01*
X95850000Y-97275000D01*
X96100000Y-97325000D01*
X96200000Y-97725000D01*
X96275000Y-97750000D01*
X96525000Y-97400000D01*
X96850000Y-97450000D01*
X97175000Y-97475000D01*
X96850000Y-98125000D01*
X96575000Y-98750000D01*
X96000000Y-98650000D01*
X95825000Y-98125000D01*
X95775000Y-98125000D01*
X95475000Y-98600000D01*
X95000000Y-98475000D01*
X94875000Y-98100000D01*
X94700000Y-97625000D01*
X94500000Y-97050000D01*
X94825000Y-97100000D01*
G37*
X105300000Y-86225000D02*
X105275000Y-88000000D01*
X105275000Y-91925000D01*
X105400000Y-92075000D01*
X105475000Y-92075000D01*
X106200000Y-92225000D01*
X106900000Y-92375000D01*
X107450000Y-92475000D01*
X107925000Y-92575000D01*
X108325000Y-92625000D01*
X108325000Y-93150000D01*
X107700000Y-93100000D01*
X106925000Y-93025000D01*
X106525000Y-92975000D01*
X105675000Y-92825000D01*
X104925000Y-92575000D01*
X104725000Y-92450000D01*
X104700000Y-90975000D01*
X104675000Y-89550000D01*
X104675000Y-88025000D01*
X104675000Y-86875000D01*
X104675000Y-86075000D01*
X105300000Y-86225000D01*
G36*
X105300000Y-86225000D02*
G01*
X105275000Y-88000000D01*
X105275000Y-91925000D01*
X105400000Y-92075000D01*
X105475000Y-92075000D01*
X106200000Y-92225000D01*
X106900000Y-92375000D01*
X107450000Y-92475000D01*
X107925000Y-92575000D01*
X108325000Y-92625000D01*
X108325000Y-93150000D01*
X107700000Y-93100000D01*
X106925000Y-93025000D01*
X106525000Y-92975000D01*
X105675000Y-92825000D01*
X104925000Y-92575000D01*
X104725000Y-92450000D01*
X104700000Y-90975000D01*
X104675000Y-89550000D01*
X104675000Y-88025000D01*
X104675000Y-86875000D01*
X104675000Y-86075000D01*
X105300000Y-86225000D01*
G37*
X93425000Y-82800000D02*
X94475000Y-83100000D01*
X95600000Y-83425000D01*
X96850000Y-83750000D01*
X97350000Y-83875000D01*
X97350000Y-84600000D01*
X96925000Y-84525000D01*
X96325000Y-84425000D01*
X95800000Y-84300000D01*
X95400000Y-84200000D01*
X95325000Y-84250000D01*
X95325000Y-84750000D01*
X95300000Y-86550000D01*
X95275000Y-88475000D01*
X95250000Y-90400000D01*
X94975000Y-90375000D01*
X94500000Y-90350000D01*
X94500000Y-89375000D01*
X94500000Y-88150000D01*
X94550000Y-86850000D01*
X94550000Y-85575000D01*
X94575000Y-84225000D01*
X94575000Y-84050000D01*
X94475000Y-84000000D01*
X93550000Y-83800000D01*
X92500000Y-83600000D01*
X92275000Y-83550000D01*
X92275000Y-83350000D01*
X92300000Y-82600000D01*
X93425000Y-82800000D01*
G36*
X93425000Y-82800000D02*
G01*
X94475000Y-83100000D01*
X95600000Y-83425000D01*
X96850000Y-83750000D01*
X97350000Y-83875000D01*
X97350000Y-84600000D01*
X96925000Y-84525000D01*
X96325000Y-84425000D01*
X95800000Y-84300000D01*
X95400000Y-84200000D01*
X95325000Y-84250000D01*
X95325000Y-84750000D01*
X95300000Y-86550000D01*
X95275000Y-88475000D01*
X95250000Y-90400000D01*
X94975000Y-90375000D01*
X94500000Y-90350000D01*
X94500000Y-89375000D01*
X94500000Y-88150000D01*
X94550000Y-86850000D01*
X94550000Y-85575000D01*
X94575000Y-84225000D01*
X94575000Y-84050000D01*
X94475000Y-84000000D01*
X93550000Y-83800000D01*
X92500000Y-83600000D01*
X92275000Y-83550000D01*
X92275000Y-83350000D01*
X92300000Y-82600000D01*
X93425000Y-82800000D01*
G37*
X99525000Y-84575000D02*
X100150000Y-84700000D01*
X100775000Y-84850000D01*
X101900000Y-85150000D01*
X102800000Y-85375000D01*
X102800000Y-86100000D01*
X101950000Y-85925000D01*
X100325000Y-85550000D01*
X100000000Y-85500000D01*
X99925000Y-85575000D01*
X99925000Y-87350000D01*
X100000000Y-87400000D01*
X101100000Y-87625000D01*
X102300000Y-87925000D01*
X102750000Y-88025000D01*
X102750000Y-88650000D01*
X101925000Y-88475000D01*
X100875000Y-88225000D01*
X100200000Y-88075000D01*
X99950000Y-88075000D01*
X100050000Y-90600000D01*
X100100000Y-90750000D01*
X100900000Y-90850000D01*
X102600000Y-91225000D01*
X102975000Y-91275000D01*
X102975000Y-92125000D01*
X102575000Y-92025000D01*
X101925000Y-91875000D01*
X100750000Y-91650000D01*
X99775000Y-91425000D01*
X99275000Y-91300000D01*
X99225000Y-90425000D01*
X99225000Y-89400000D01*
X99200000Y-88100000D01*
X99175000Y-86375000D01*
X99150000Y-84525000D01*
X99525000Y-84575000D01*
G36*
X99525000Y-84575000D02*
G01*
X100150000Y-84700000D01*
X100775000Y-84850000D01*
X101900000Y-85150000D01*
X102800000Y-85375000D01*
X102800000Y-86100000D01*
X101950000Y-85925000D01*
X100325000Y-85550000D01*
X100000000Y-85500000D01*
X99925000Y-85575000D01*
X99925000Y-87350000D01*
X100000000Y-87400000D01*
X101100000Y-87625000D01*
X102300000Y-87925000D01*
X102750000Y-88025000D01*
X102750000Y-88650000D01*
X101925000Y-88475000D01*
X100875000Y-88225000D01*
X100200000Y-88075000D01*
X99950000Y-88075000D01*
X100050000Y-90600000D01*
X100100000Y-90750000D01*
X100900000Y-90850000D01*
X102600000Y-91225000D01*
X102975000Y-91275000D01*
X102975000Y-92125000D01*
X102575000Y-92025000D01*
X101925000Y-91875000D01*
X100750000Y-91650000D01*
X99775000Y-91425000D01*
X99275000Y-91300000D01*
X99225000Y-90425000D01*
X99225000Y-89400000D01*
X99200000Y-88100000D01*
X99175000Y-86375000D01*
X99150000Y-84525000D01*
X99525000Y-84575000D01*
G37*
X87925000Y-73225000D02*
X88200000Y-73425000D01*
X88325000Y-73650000D01*
X88400000Y-73925000D01*
X88400000Y-74150000D01*
X88400000Y-74700000D01*
X88150000Y-74825000D01*
X87750000Y-74775000D01*
X87625000Y-74700000D01*
X87525000Y-74475000D01*
X87725000Y-74225000D01*
X87800000Y-74050000D01*
X87800000Y-73875000D01*
X87750000Y-73800000D01*
X87625000Y-73700000D01*
X87475000Y-73650000D01*
X87250000Y-73700000D01*
X87075000Y-73850000D01*
X86950000Y-74025000D01*
X86950000Y-74175000D01*
X86975000Y-74300000D01*
X87375000Y-74900000D01*
X87575000Y-75025000D01*
X88225000Y-75125000D01*
X88750000Y-75200000D01*
X89100000Y-75150000D01*
X89400000Y-75050000D01*
X89375000Y-75325000D01*
X89300000Y-75675000D01*
X88550000Y-75875000D01*
X87600000Y-75675000D01*
X87150000Y-75400000D01*
X86475000Y-74750000D01*
X86350000Y-74425000D01*
X86275000Y-74025000D01*
X86550000Y-73525000D01*
X86875000Y-73300000D01*
X87300000Y-73200000D01*
X87875000Y-73200000D01*
X87925000Y-73225000D01*
G36*
X87925000Y-73225000D02*
G01*
X88200000Y-73425000D01*
X88325000Y-73650000D01*
X88400000Y-73925000D01*
X88400000Y-74150000D01*
X88400000Y-74700000D01*
X88150000Y-74825000D01*
X87750000Y-74775000D01*
X87625000Y-74700000D01*
X87525000Y-74475000D01*
X87725000Y-74225000D01*
X87800000Y-74050000D01*
X87800000Y-73875000D01*
X87750000Y-73800000D01*
X87625000Y-73700000D01*
X87475000Y-73650000D01*
X87250000Y-73700000D01*
X87075000Y-73850000D01*
X86950000Y-74025000D01*
X86950000Y-74175000D01*
X86975000Y-74300000D01*
X87375000Y-74900000D01*
X87575000Y-75025000D01*
X88225000Y-75125000D01*
X88750000Y-75200000D01*
X89100000Y-75150000D01*
X89400000Y-75050000D01*
X89375000Y-75325000D01*
X89300000Y-75675000D01*
X88550000Y-75875000D01*
X87600000Y-75675000D01*
X87150000Y-75400000D01*
X86475000Y-74750000D01*
X86350000Y-74425000D01*
X86275000Y-74025000D01*
X86550000Y-73525000D01*
X86875000Y-73300000D01*
X87300000Y-73200000D01*
X87875000Y-73200000D01*
X87925000Y-73225000D01*
G37*
X84975000Y-95550000D02*
X85400000Y-95600000D01*
X85700000Y-95650000D01*
X85700000Y-95654166D01*
X85825000Y-95675000D01*
X86075000Y-95725000D01*
X86275000Y-95800000D01*
X86475000Y-95900000D01*
X86575000Y-96075000D01*
X86575000Y-96325000D01*
X86375000Y-96450000D01*
X86475000Y-96550000D01*
X86675000Y-96800000D01*
X86825000Y-97150000D01*
X86875000Y-97275000D01*
X86650000Y-97250000D01*
X86300000Y-97225000D01*
X86100000Y-96850000D01*
X85975000Y-96675000D01*
X85875000Y-96575000D01*
X85375000Y-96500000D01*
X85325000Y-96725000D01*
X85300000Y-97025000D01*
X84950000Y-97000000D01*
X84700000Y-96950000D01*
X84650000Y-96925000D01*
X84650000Y-96500000D01*
X84650000Y-96075000D01*
X85425000Y-96075000D01*
X85425000Y-96175000D01*
X85650000Y-96325000D01*
X85875000Y-96325000D01*
X86000000Y-96175000D01*
X86000000Y-96075000D01*
X85950000Y-96000000D01*
X85800000Y-95850000D01*
X85650000Y-95875000D01*
X85525000Y-95875000D01*
X85450000Y-95950000D01*
X85425000Y-96075000D01*
X84650000Y-96075000D01*
X84650000Y-95500000D01*
X84975000Y-95550000D01*
G36*
X84975000Y-95550000D02*
G01*
X85400000Y-95600000D01*
X85700000Y-95650000D01*
X85700000Y-95654166D01*
X85825000Y-95675000D01*
X86075000Y-95725000D01*
X86275000Y-95800000D01*
X86475000Y-95900000D01*
X86575000Y-96075000D01*
X86575000Y-96325000D01*
X86375000Y-96450000D01*
X86475000Y-96550000D01*
X86675000Y-96800000D01*
X86825000Y-97150000D01*
X86875000Y-97275000D01*
X86650000Y-97250000D01*
X86300000Y-97225000D01*
X86100000Y-96850000D01*
X85975000Y-96675000D01*
X85875000Y-96575000D01*
X85375000Y-96500000D01*
X85325000Y-96725000D01*
X85300000Y-97025000D01*
X84950000Y-97000000D01*
X84700000Y-96950000D01*
X84650000Y-96925000D01*
X84650000Y-96500000D01*
X84650000Y-96075000D01*
X85425000Y-96075000D01*
X85425000Y-96175000D01*
X85650000Y-96325000D01*
X85875000Y-96325000D01*
X86000000Y-96175000D01*
X86000000Y-96075000D01*
X85950000Y-96000000D01*
X85800000Y-95850000D01*
X85650000Y-95875000D01*
X85525000Y-95875000D01*
X85450000Y-95950000D01*
X85425000Y-96075000D01*
X84650000Y-96075000D01*
X84650000Y-95500000D01*
X84975000Y-95550000D01*
G37*
X74170000Y-51800000D02*
X74420000Y-51880000D01*
X74580000Y-51950000D01*
X74710000Y-52020000D01*
X74820000Y-52150000D01*
X74890000Y-52250000D01*
X74930000Y-52510000D01*
X75000000Y-52890000D01*
X75150000Y-53120000D01*
X75400000Y-53040000D01*
X75480000Y-52970000D01*
X75550000Y-52890000D01*
X75640000Y-52720000D01*
X75740000Y-52480000D01*
X75730000Y-52070000D01*
X75890000Y-51950000D01*
X76070000Y-51930000D01*
X76200000Y-51940000D01*
X76340000Y-51970000D01*
X76450000Y-52010000D01*
X76550000Y-52080000D01*
X76630000Y-52140000D01*
X76700000Y-52230000D01*
X76780000Y-52410000D01*
X76800000Y-52950000D01*
X76710000Y-53580000D01*
X76540000Y-53680000D01*
X76310000Y-53640000D01*
X75800000Y-53240000D01*
X75590000Y-53180000D01*
X75450000Y-53230000D01*
X75340000Y-53440000D01*
X75480000Y-53710000D01*
X75440000Y-53880000D01*
X75020000Y-53520000D01*
X74860000Y-53260000D01*
X74680000Y-52980000D01*
X74530000Y-52870000D01*
X74400000Y-52980000D01*
X74380000Y-53250000D01*
X74180000Y-53540000D01*
X74500000Y-54300000D01*
X73270000Y-54000000D01*
X72960000Y-53480000D01*
X72950000Y-52350000D01*
X72950000Y-52340000D01*
X73380000Y-51930000D01*
X73650000Y-51820000D01*
X73890000Y-51790000D01*
X74170000Y-51800000D01*
G36*
X74170000Y-51800000D02*
G01*
X74420000Y-51880000D01*
X74580000Y-51950000D01*
X74710000Y-52020000D01*
X74820000Y-52150000D01*
X74890000Y-52250000D01*
X74930000Y-52510000D01*
X75000000Y-52890000D01*
X75150000Y-53120000D01*
X75400000Y-53040000D01*
X75480000Y-52970000D01*
X75550000Y-52890000D01*
X75640000Y-52720000D01*
X75740000Y-52480000D01*
X75730000Y-52070000D01*
X75890000Y-51950000D01*
X76070000Y-51930000D01*
X76200000Y-51940000D01*
X76340000Y-51970000D01*
X76450000Y-52010000D01*
X76550000Y-52080000D01*
X76630000Y-52140000D01*
X76700000Y-52230000D01*
X76780000Y-52410000D01*
X76800000Y-52950000D01*
X76710000Y-53580000D01*
X76540000Y-53680000D01*
X76310000Y-53640000D01*
X75800000Y-53240000D01*
X75590000Y-53180000D01*
X75450000Y-53230000D01*
X75340000Y-53440000D01*
X75480000Y-53710000D01*
X75440000Y-53880000D01*
X75020000Y-53520000D01*
X74860000Y-53260000D01*
X74680000Y-52980000D01*
X74530000Y-52870000D01*
X74400000Y-52980000D01*
X74380000Y-53250000D01*
X74180000Y-53540000D01*
X74500000Y-54300000D01*
X73270000Y-54000000D01*
X72960000Y-53480000D01*
X72950000Y-52350000D01*
X72950000Y-52340000D01*
X73380000Y-51930000D01*
X73650000Y-51820000D01*
X73890000Y-51790000D01*
X74170000Y-51800000D01*
G37*
X80630000Y-69920000D02*
X80730000Y-70120000D01*
X80720000Y-70330000D01*
X80440000Y-70620000D01*
X80150000Y-70870000D01*
X79720000Y-71530000D01*
X79230000Y-72700000D01*
X78770000Y-73670000D01*
X78560000Y-74160000D01*
X78160000Y-74630000D01*
X77840000Y-74860000D01*
X77330000Y-74930000D01*
X76660000Y-74940000D01*
X75390000Y-74790000D01*
X74480000Y-74430000D01*
X74070000Y-74090000D01*
X73840000Y-73690000D01*
X73790000Y-73350000D01*
X73930000Y-73010000D01*
X74140000Y-72850000D01*
X74400000Y-72710000D01*
X74650000Y-72610000D01*
X75090000Y-72610000D01*
X75580000Y-72710000D01*
X76120000Y-72870000D01*
X76580000Y-73060000D01*
X77150000Y-73300000D01*
X77490000Y-73500000D01*
X77540000Y-73620000D01*
X77410000Y-73830000D01*
X77290000Y-73950000D01*
X77070000Y-74030000D01*
X76710000Y-74090000D01*
X76410000Y-74070000D01*
X76200000Y-73940000D01*
X76010000Y-73760000D01*
X75900000Y-73670000D01*
X75310000Y-73420000D01*
X74970000Y-73310000D01*
X74790000Y-73380000D01*
X74700000Y-73520000D01*
X74770000Y-73740000D01*
X75280000Y-74050000D01*
X75690000Y-74200000D01*
X76260000Y-74350000D01*
X76880000Y-74400000D01*
X77280000Y-74310000D01*
X77650000Y-74040000D01*
X77940000Y-73470000D01*
X78270000Y-72700000D01*
X78690000Y-71650000D01*
X78910000Y-71150000D01*
X79020000Y-70990000D01*
X79690000Y-70130000D01*
X80000000Y-69880000D01*
X80300000Y-69840000D01*
X80630000Y-69920000D01*
G36*
X80630000Y-69920000D02*
G01*
X80730000Y-70120000D01*
X80720000Y-70330000D01*
X80440000Y-70620000D01*
X80150000Y-70870000D01*
X79720000Y-71530000D01*
X79230000Y-72700000D01*
X78770000Y-73670000D01*
X78560000Y-74160000D01*
X78160000Y-74630000D01*
X77840000Y-74860000D01*
X77330000Y-74930000D01*
X76660000Y-74940000D01*
X75390000Y-74790000D01*
X74480000Y-74430000D01*
X74070000Y-74090000D01*
X73840000Y-73690000D01*
X73790000Y-73350000D01*
X73930000Y-73010000D01*
X74140000Y-72850000D01*
X74400000Y-72710000D01*
X74650000Y-72610000D01*
X75090000Y-72610000D01*
X75580000Y-72710000D01*
X76120000Y-72870000D01*
X76580000Y-73060000D01*
X77150000Y-73300000D01*
X77490000Y-73500000D01*
X77540000Y-73620000D01*
X77410000Y-73830000D01*
X77290000Y-73950000D01*
X77070000Y-74030000D01*
X76710000Y-74090000D01*
X76410000Y-74070000D01*
X76200000Y-73940000D01*
X76010000Y-73760000D01*
X75900000Y-73670000D01*
X75310000Y-73420000D01*
X74970000Y-73310000D01*
X74790000Y-73380000D01*
X74700000Y-73520000D01*
X74770000Y-73740000D01*
X75280000Y-74050000D01*
X75690000Y-74200000D01*
X76260000Y-74350000D01*
X76880000Y-74400000D01*
X77280000Y-74310000D01*
X77650000Y-74040000D01*
X77940000Y-73470000D01*
X78270000Y-72700000D01*
X78690000Y-71650000D01*
X78910000Y-71150000D01*
X79020000Y-70990000D01*
X79690000Y-70130000D01*
X80000000Y-69880000D01*
X80300000Y-69840000D01*
X80630000Y-69920000D01*
G37*
X75960000Y-79750000D02*
X76510000Y-79850000D01*
X76790000Y-80580000D01*
X77380000Y-82150000D01*
X77860000Y-83460000D01*
X78280000Y-84490000D01*
X78580000Y-85070000D01*
X78790000Y-85260000D01*
X79000000Y-85260000D01*
X79090000Y-85220000D01*
X79520000Y-84390000D01*
X79900000Y-83520000D01*
X80510000Y-82130000D01*
X80960000Y-81070000D01*
X81180000Y-80730000D01*
X81340000Y-80670000D01*
X81770000Y-80700000D01*
X82200000Y-80690000D01*
X82490000Y-80690000D01*
X82630000Y-80730000D01*
X82720000Y-80770000D01*
X82780000Y-81930000D01*
X82860000Y-83330000D01*
X82910000Y-84520000D01*
X82910000Y-85360000D01*
X82870000Y-86210000D01*
X82910000Y-87410000D01*
X82920000Y-87590000D01*
X81800000Y-87590000D01*
X81790000Y-87410000D01*
X81840000Y-86530000D01*
X81870000Y-85500000D01*
X81880000Y-84420000D01*
X81880000Y-83040000D01*
X81890000Y-81890000D01*
X81860000Y-81680000D01*
X81830000Y-81480000D01*
X81540000Y-81460000D01*
X81330000Y-81710000D01*
X81200000Y-82090000D01*
X80870000Y-82930000D01*
X80530000Y-83990000D01*
X80220000Y-85000000D01*
X79950000Y-85730000D01*
X79690000Y-86350000D01*
X79350000Y-87120000D01*
X78610000Y-87120000D01*
X78430000Y-86490000D01*
X78140000Y-85650000D01*
X77730000Y-84720000D01*
X77380000Y-83870000D01*
X76800000Y-82450000D01*
X76500000Y-81540000D01*
X76300000Y-80870000D01*
X76180000Y-80570000D01*
X76040000Y-80510000D01*
X75880000Y-80530000D01*
X75810000Y-80660000D01*
X75840000Y-83220000D01*
X75860000Y-84510000D01*
X75810000Y-85740000D01*
X75810000Y-86210000D01*
X75010000Y-86160000D01*
X74940000Y-86070000D01*
X74960000Y-85580000D01*
X74970000Y-84350000D01*
X74960000Y-82350000D01*
X74990000Y-80670000D01*
X75020000Y-79720000D01*
X75960000Y-79750000D01*
G36*
X75960000Y-79750000D02*
G01*
X76510000Y-79850000D01*
X76790000Y-80580000D01*
X77380000Y-82150000D01*
X77860000Y-83460000D01*
X78280000Y-84490000D01*
X78580000Y-85070000D01*
X78790000Y-85260000D01*
X79000000Y-85260000D01*
X79090000Y-85220000D01*
X79520000Y-84390000D01*
X79900000Y-83520000D01*
X80510000Y-82130000D01*
X80960000Y-81070000D01*
X81180000Y-80730000D01*
X81340000Y-80670000D01*
X81770000Y-80700000D01*
X82200000Y-80690000D01*
X82490000Y-80690000D01*
X82630000Y-80730000D01*
X82720000Y-80770000D01*
X82780000Y-81930000D01*
X82860000Y-83330000D01*
X82910000Y-84520000D01*
X82910000Y-85360000D01*
X82870000Y-86210000D01*
X82910000Y-87410000D01*
X82920000Y-87590000D01*
X81800000Y-87590000D01*
X81790000Y-87410000D01*
X81840000Y-86530000D01*
X81870000Y-85500000D01*
X81880000Y-84420000D01*
X81880000Y-83040000D01*
X81890000Y-81890000D01*
X81860000Y-81680000D01*
X81830000Y-81480000D01*
X81540000Y-81460000D01*
X81330000Y-81710000D01*
X81200000Y-82090000D01*
X80870000Y-82930000D01*
X80530000Y-83990000D01*
X80220000Y-85000000D01*
X79950000Y-85730000D01*
X79690000Y-86350000D01*
X79350000Y-87120000D01*
X78610000Y-87120000D01*
X78430000Y-86490000D01*
X78140000Y-85650000D01*
X77730000Y-84720000D01*
X77380000Y-83870000D01*
X76800000Y-82450000D01*
X76500000Y-81540000D01*
X76300000Y-80870000D01*
X76180000Y-80570000D01*
X76040000Y-80510000D01*
X75880000Y-80530000D01*
X75810000Y-80660000D01*
X75840000Y-83220000D01*
X75860000Y-84510000D01*
X75810000Y-85740000D01*
X75810000Y-86210000D01*
X75010000Y-86160000D01*
X74940000Y-86070000D01*
X74960000Y-85580000D01*
X74970000Y-84350000D01*
X74960000Y-82350000D01*
X74990000Y-80670000D01*
X75020000Y-79720000D01*
X75960000Y-79750000D01*
G37*
X92130000Y-45210000D02*
X92730000Y-45390000D01*
X93130000Y-45580000D01*
X93920000Y-45910000D01*
X94420000Y-45950000D01*
X94990000Y-45880000D01*
X95350000Y-46060000D01*
X95660000Y-46390000D01*
X95760000Y-46700000D01*
X95620000Y-46990000D01*
X95470000Y-47150000D01*
X95440000Y-47240000D01*
X95400000Y-47410000D01*
X95460000Y-47630000D01*
X95590000Y-47800000D01*
X95670000Y-48010000D01*
X95670000Y-48160000D01*
X95620000Y-48300000D01*
X95510000Y-48360000D01*
X95360000Y-48300000D01*
X95210000Y-48150000D01*
X95120000Y-47980000D01*
X94980000Y-47740000D01*
X94780000Y-47420000D01*
X94610000Y-47290000D01*
X94530000Y-46910000D01*
X94570000Y-46890000D01*
X94600000Y-46890000D01*
X94720000Y-46990000D01*
X94960000Y-47020000D01*
X95110000Y-47030000D01*
X95240000Y-46990000D01*
X95300000Y-46900000D01*
X95340000Y-46820000D01*
X95200000Y-46700000D01*
X94930000Y-46630000D01*
X94740000Y-46660000D01*
X94610000Y-46770000D01*
X94580000Y-46840000D01*
X94520000Y-46870000D01*
X94490000Y-46810000D01*
X94330000Y-46550000D01*
X93920000Y-46420000D01*
X93110000Y-46420000D01*
X92490000Y-46400000D01*
X91970000Y-46260000D01*
X91820000Y-46310000D01*
X91500000Y-46430000D01*
X91340000Y-46540000D01*
X91240000Y-46490000D01*
X91370000Y-46470000D01*
X91420000Y-46320000D01*
X91310000Y-46230000D01*
X91120000Y-46270000D01*
X91060000Y-46410000D01*
X90960000Y-46440000D01*
X90810000Y-46430000D01*
X90530000Y-46550000D01*
X90230000Y-46770000D01*
X89970000Y-47090000D01*
X89710000Y-47640000D01*
X89500000Y-48140000D01*
X89290000Y-47860000D01*
X89160000Y-47680000D01*
X89450000Y-47060000D01*
X89770000Y-46560000D01*
X90260000Y-46070000D01*
X90760000Y-45900000D01*
X90910000Y-45770000D01*
X91050000Y-45450000D01*
X91350000Y-45240000D01*
X91710000Y-45160000D01*
X92130000Y-45210000D01*
G36*
X92130000Y-45210000D02*
G01*
X92730000Y-45390000D01*
X93130000Y-45580000D01*
X93920000Y-45910000D01*
X94420000Y-45950000D01*
X94990000Y-45880000D01*
X95350000Y-46060000D01*
X95660000Y-46390000D01*
X95760000Y-46700000D01*
X95620000Y-46990000D01*
X95470000Y-47150000D01*
X95440000Y-47240000D01*
X95400000Y-47410000D01*
X95460000Y-47630000D01*
X95590000Y-47800000D01*
X95670000Y-48010000D01*
X95670000Y-48160000D01*
X95620000Y-48300000D01*
X95510000Y-48360000D01*
X95360000Y-48300000D01*
X95210000Y-48150000D01*
X95120000Y-47980000D01*
X94980000Y-47740000D01*
X94780000Y-47420000D01*
X94610000Y-47290000D01*
X94530000Y-46910000D01*
X94570000Y-46890000D01*
X94600000Y-46890000D01*
X94720000Y-46990000D01*
X94960000Y-47020000D01*
X95110000Y-47030000D01*
X95240000Y-46990000D01*
X95300000Y-46900000D01*
X95340000Y-46820000D01*
X95200000Y-46700000D01*
X94930000Y-46630000D01*
X94740000Y-46660000D01*
X94610000Y-46770000D01*
X94580000Y-46840000D01*
X94520000Y-46870000D01*
X94490000Y-46810000D01*
X94330000Y-46550000D01*
X93920000Y-46420000D01*
X93110000Y-46420000D01*
X92490000Y-46400000D01*
X91970000Y-46260000D01*
X91820000Y-46310000D01*
X91500000Y-46430000D01*
X91340000Y-46540000D01*
X91240000Y-46490000D01*
X91370000Y-46470000D01*
X91420000Y-46320000D01*
X91310000Y-46230000D01*
X91120000Y-46270000D01*
X91060000Y-46410000D01*
X90960000Y-46440000D01*
X90810000Y-46430000D01*
X90530000Y-46550000D01*
X90230000Y-46770000D01*
X89970000Y-47090000D01*
X89710000Y-47640000D01*
X89500000Y-48140000D01*
X89290000Y-47860000D01*
X89160000Y-47680000D01*
X89450000Y-47060000D01*
X89770000Y-46560000D01*
X90260000Y-46070000D01*
X90760000Y-45900000D01*
X90910000Y-45770000D01*
X91050000Y-45450000D01*
X91350000Y-45240000D01*
X91710000Y-45160000D01*
X92130000Y-45210000D01*
G37*
X88775000Y-81875000D02*
X89325000Y-82100000D01*
X89650000Y-82225000D01*
X90000000Y-82400000D01*
X90250000Y-82625000D01*
X90575000Y-82950000D01*
X90925000Y-83350000D01*
X91275000Y-84050000D01*
X91425000Y-84625000D01*
X91500000Y-85500000D01*
X91475000Y-86425000D01*
X91425000Y-86900000D01*
X91325000Y-87275000D01*
X91225000Y-87425000D01*
X91125000Y-87575000D01*
X91025000Y-87725000D01*
X90965000Y-87800000D01*
X90975000Y-87800000D01*
X90800000Y-88025000D01*
X90625000Y-88225000D01*
X90475000Y-88350000D01*
X90000000Y-88675000D01*
X89450000Y-88900000D01*
X88825000Y-89075000D01*
X88150000Y-89150000D01*
X87575000Y-89125000D01*
X87125000Y-89050000D01*
X86550000Y-88775000D01*
X85950000Y-88325000D01*
X85300000Y-87675000D01*
X84975000Y-86950000D01*
X84750000Y-85900000D01*
X84675000Y-85100000D01*
X84675000Y-84600000D01*
X85400000Y-84600000D01*
X85475000Y-85500000D01*
X85675000Y-86325000D01*
X85850000Y-86800000D01*
X86200000Y-87200000D01*
X86625000Y-87600000D01*
X87075000Y-87975000D01*
X87500000Y-88225000D01*
X88125000Y-88325000D01*
X88725000Y-88325000D01*
X89325000Y-88150000D01*
X89675000Y-88000000D01*
X89875000Y-87875000D01*
X89950000Y-87800000D01*
X90000000Y-87800000D01*
X89975000Y-87775000D01*
X90175000Y-87525000D01*
X90250000Y-87375000D01*
X90425000Y-87025000D01*
X90550000Y-86800000D01*
X90675000Y-86275000D01*
X90700000Y-86000000D01*
X90750000Y-85375000D01*
X90675000Y-84700000D01*
X90625000Y-84325000D01*
X90250000Y-83625000D01*
X90075000Y-83425000D01*
X89675000Y-83100000D01*
X89000000Y-82600000D01*
X88350000Y-82425000D01*
X87900000Y-82400000D01*
X87525000Y-82375000D01*
X86900000Y-82475000D01*
X86325000Y-82700000D01*
X85900000Y-83050000D01*
X85600000Y-83500000D01*
X85450000Y-83825000D01*
X85400000Y-84600000D01*
X84675000Y-84600000D01*
X84675000Y-84350000D01*
X84700000Y-84000000D01*
X84925000Y-83375000D01*
X85375000Y-82700000D01*
X86050000Y-82175000D01*
X86825000Y-81875000D01*
X87650000Y-81750000D01*
X88125000Y-81750000D01*
X88775000Y-81875000D01*
G36*
X88775000Y-81875000D02*
G01*
X89325000Y-82100000D01*
X89650000Y-82225000D01*
X90000000Y-82400000D01*
X90250000Y-82625000D01*
X90575000Y-82950000D01*
X90925000Y-83350000D01*
X91275000Y-84050000D01*
X91425000Y-84625000D01*
X91500000Y-85500000D01*
X91475000Y-86425000D01*
X91425000Y-86900000D01*
X91325000Y-87275000D01*
X91225000Y-87425000D01*
X91125000Y-87575000D01*
X91025000Y-87725000D01*
X90965000Y-87800000D01*
X90975000Y-87800000D01*
X90800000Y-88025000D01*
X90625000Y-88225000D01*
X90475000Y-88350000D01*
X90000000Y-88675000D01*
X89450000Y-88900000D01*
X88825000Y-89075000D01*
X88150000Y-89150000D01*
X87575000Y-89125000D01*
X87125000Y-89050000D01*
X86550000Y-88775000D01*
X85950000Y-88325000D01*
X85300000Y-87675000D01*
X84975000Y-86950000D01*
X84750000Y-85900000D01*
X84675000Y-85100000D01*
X84675000Y-84600000D01*
X85400000Y-84600000D01*
X85475000Y-85500000D01*
X85675000Y-86325000D01*
X85850000Y-86800000D01*
X86200000Y-87200000D01*
X86625000Y-87600000D01*
X87075000Y-87975000D01*
X87500000Y-88225000D01*
X88125000Y-88325000D01*
X88725000Y-88325000D01*
X89325000Y-88150000D01*
X89675000Y-88000000D01*
X89875000Y-87875000D01*
X89950000Y-87800000D01*
X90000000Y-87800000D01*
X89975000Y-87775000D01*
X90175000Y-87525000D01*
X90250000Y-87375000D01*
X90425000Y-87025000D01*
X90550000Y-86800000D01*
X90675000Y-86275000D01*
X90700000Y-86000000D01*
X90750000Y-85375000D01*
X90675000Y-84700000D01*
X90625000Y-84325000D01*
X90250000Y-83625000D01*
X90075000Y-83425000D01*
X89675000Y-83100000D01*
X89000000Y-82600000D01*
X88350000Y-82425000D01*
X87900000Y-82400000D01*
X87525000Y-82375000D01*
X86900000Y-82475000D01*
X86325000Y-82700000D01*
X85900000Y-83050000D01*
X85600000Y-83500000D01*
X85450000Y-83825000D01*
X85400000Y-84600000D01*
X84675000Y-84600000D01*
X84675000Y-84350000D01*
X84700000Y-84000000D01*
X84925000Y-83375000D01*
X85375000Y-82700000D01*
X86050000Y-82175000D01*
X86825000Y-81875000D01*
X87650000Y-81750000D01*
X88125000Y-81750000D01*
X88775000Y-81875000D01*
G37*
X78180000Y-68000000D02*
X79140000Y-68160000D01*
X80460000Y-68570000D01*
X81240000Y-68930000D01*
X81820000Y-69230000D01*
X82360000Y-69560000D01*
X82730000Y-69810000D01*
X83580000Y-70550000D01*
X84130000Y-71140000D01*
X84430000Y-71530000D01*
X84760000Y-72020000D01*
X84960000Y-72410000D01*
X85110000Y-73010000D01*
X85140000Y-73640000D01*
X85060000Y-74430000D01*
X84890000Y-74890000D01*
X84570000Y-75340000D01*
X84040000Y-75890000D01*
X83460000Y-76200000D01*
X82900000Y-76380000D01*
X81980000Y-76480000D01*
X81510000Y-76430000D01*
X80940000Y-76350000D01*
X80270000Y-76190000D01*
X79730000Y-75960000D01*
X79160000Y-75690000D01*
X78910000Y-75560000D01*
X78650000Y-75400000D01*
X78340000Y-75210000D01*
X78300000Y-75090000D01*
X78610000Y-74710000D01*
X78860000Y-74350000D01*
X79510000Y-74810000D01*
X80060000Y-75140000D01*
X80480000Y-75380000D01*
X80940000Y-75510000D01*
X81930000Y-75680000D01*
X82640000Y-75600000D01*
X83220000Y-75460000D01*
X83650000Y-75220000D01*
X83900000Y-74930000D01*
X84040000Y-74780000D01*
X84290000Y-74170000D01*
X84330000Y-73410000D01*
X84210000Y-72750000D01*
X84140000Y-72590000D01*
X83850000Y-72060000D01*
X83500000Y-71570000D01*
X83240000Y-71260000D01*
X82540000Y-70710000D01*
X81840000Y-70160000D01*
X81410000Y-69810000D01*
X80480000Y-69430000D01*
X79680000Y-69190000D01*
X78860000Y-69010000D01*
X77890000Y-68870000D01*
X76850000Y-68850000D01*
X76540000Y-68920000D01*
X76080000Y-69030000D01*
X75730000Y-69250000D01*
X75490000Y-69430000D01*
X75340000Y-69890000D01*
X75430000Y-70300000D01*
X75610000Y-70570000D01*
X75910000Y-70980000D01*
X76220000Y-71420000D01*
X76310000Y-71570000D01*
X76200000Y-71740000D01*
X75860000Y-71660000D01*
X75690000Y-71510000D01*
X75370000Y-71280000D01*
X75150000Y-71010000D01*
X74880000Y-70670000D01*
X74700000Y-70220000D01*
X74660000Y-69770000D01*
X74720000Y-69500000D01*
X74810000Y-69290000D01*
X75040000Y-68860000D01*
X75470000Y-68450000D01*
X76030000Y-68180000D01*
X76670000Y-68050000D01*
X77230000Y-67970000D01*
X78180000Y-68000000D01*
G36*
X78180000Y-68000000D02*
G01*
X79140000Y-68160000D01*
X80460000Y-68570000D01*
X81240000Y-68930000D01*
X81820000Y-69230000D01*
X82360000Y-69560000D01*
X82730000Y-69810000D01*
X83580000Y-70550000D01*
X84130000Y-71140000D01*
X84430000Y-71530000D01*
X84760000Y-72020000D01*
X84960000Y-72410000D01*
X85110000Y-73010000D01*
X85140000Y-73640000D01*
X85060000Y-74430000D01*
X84890000Y-74890000D01*
X84570000Y-75340000D01*
X84040000Y-75890000D01*
X83460000Y-76200000D01*
X82900000Y-76380000D01*
X81980000Y-76480000D01*
X81510000Y-76430000D01*
X80940000Y-76350000D01*
X80270000Y-76190000D01*
X79730000Y-75960000D01*
X79160000Y-75690000D01*
X78910000Y-75560000D01*
X78650000Y-75400000D01*
X78340000Y-75210000D01*
X78300000Y-75090000D01*
X78610000Y-74710000D01*
X78860000Y-74350000D01*
X79510000Y-74810000D01*
X80060000Y-75140000D01*
X80480000Y-75380000D01*
X80940000Y-75510000D01*
X81930000Y-75680000D01*
X82640000Y-75600000D01*
X83220000Y-75460000D01*
X83650000Y-75220000D01*
X83900000Y-74930000D01*
X84040000Y-74780000D01*
X84290000Y-74170000D01*
X84330000Y-73410000D01*
X84210000Y-72750000D01*
X84140000Y-72590000D01*
X83850000Y-72060000D01*
X83500000Y-71570000D01*
X83240000Y-71260000D01*
X82540000Y-70710000D01*
X81840000Y-70160000D01*
X81410000Y-69810000D01*
X80480000Y-69430000D01*
X79680000Y-69190000D01*
X78860000Y-69010000D01*
X77890000Y-68870000D01*
X76850000Y-68850000D01*
X76540000Y-68920000D01*
X76080000Y-69030000D01*
X75730000Y-69250000D01*
X75490000Y-69430000D01*
X75340000Y-69890000D01*
X75430000Y-70300000D01*
X75610000Y-70570000D01*
X75910000Y-70980000D01*
X76220000Y-71420000D01*
X76310000Y-71570000D01*
X76200000Y-71740000D01*
X75860000Y-71660000D01*
X75690000Y-71510000D01*
X75370000Y-71280000D01*
X75150000Y-71010000D01*
X74880000Y-70670000D01*
X74700000Y-70220000D01*
X74660000Y-69770000D01*
X74720000Y-69500000D01*
X74810000Y-69290000D01*
X75040000Y-68860000D01*
X75470000Y-68450000D01*
X76030000Y-68180000D01*
X76670000Y-68050000D01*
X77230000Y-67970000D01*
X78180000Y-68000000D01*
G37*
X105780000Y-49410000D02*
X105900000Y-49510000D01*
X105970000Y-49610000D01*
X106020000Y-49740000D01*
X106150000Y-49830000D01*
X106430000Y-49810000D01*
X106730000Y-49800000D01*
X106860000Y-49810000D01*
X107110000Y-49980000D01*
X107210000Y-50330000D01*
X107210000Y-50500000D01*
X107170000Y-50500000D01*
X107070000Y-50370000D01*
X106920000Y-50270000D01*
X106710000Y-50180000D01*
X106550000Y-50300000D01*
X106450000Y-50530000D01*
X106390000Y-50750000D01*
X106300000Y-50810000D01*
X106040000Y-50770000D01*
X105760000Y-50780000D01*
X105760000Y-51010000D01*
X105870000Y-51130000D01*
X106050000Y-51340000D01*
X106170000Y-51500000D01*
X106270000Y-51680000D01*
X106310000Y-51790000D01*
X106280000Y-51770000D01*
X106160000Y-51660000D01*
X105920000Y-51460000D01*
X105700000Y-51250000D01*
X105530000Y-51130000D01*
X105280000Y-50960000D01*
X105150000Y-50930000D01*
X104850000Y-50980000D01*
X104850000Y-51070000D01*
X104970000Y-51220000D01*
X105190000Y-51350000D01*
X105490000Y-51540000D01*
X105600000Y-51670000D01*
X105720000Y-51850000D01*
X105790000Y-51900000D01*
X105850000Y-52050000D01*
X105890000Y-52170000D01*
X105880000Y-52250000D01*
X105830000Y-52310000D01*
X105670000Y-52010000D01*
X105510000Y-51880000D01*
X105270000Y-51680000D01*
X105020000Y-51550000D01*
X104760000Y-51450000D01*
X104450000Y-51410000D01*
X104110000Y-51420000D01*
X104010000Y-51400000D01*
X104050000Y-51280000D01*
X104180000Y-51120000D01*
X104400000Y-50940000D01*
X104640000Y-50800000D01*
X104940000Y-50720000D01*
X105210000Y-50660000D01*
X105350000Y-50550000D01*
X105340000Y-50430000D01*
X105290000Y-50370000D01*
X105140000Y-50290000D01*
X104950000Y-50290000D01*
X104680000Y-50320000D01*
X104300000Y-50440000D01*
X103950000Y-50600000D01*
X104220000Y-50410000D01*
X104460000Y-50270000D01*
X104760000Y-50150000D01*
X105060000Y-50050000D01*
X105340000Y-49970000D01*
X105510000Y-49970000D01*
X105600000Y-49980000D01*
X105700000Y-49820000D01*
X105670000Y-49740000D01*
X105510000Y-49600000D01*
X105250000Y-49510000D01*
X105100000Y-49450000D01*
X105160000Y-49400000D01*
X105390000Y-49380000D01*
X105520000Y-49370000D01*
X105780000Y-49410000D01*
G36*
X105780000Y-49410000D02*
G01*
X105900000Y-49510000D01*
X105970000Y-49610000D01*
X106020000Y-49740000D01*
X106150000Y-49830000D01*
X106430000Y-49810000D01*
X106730000Y-49800000D01*
X106860000Y-49810000D01*
X107110000Y-49980000D01*
X107210000Y-50330000D01*
X107210000Y-50500000D01*
X107170000Y-50500000D01*
X107070000Y-50370000D01*
X106920000Y-50270000D01*
X106710000Y-50180000D01*
X106550000Y-50300000D01*
X106450000Y-50530000D01*
X106390000Y-50750000D01*
X106300000Y-50810000D01*
X106040000Y-50770000D01*
X105760000Y-50780000D01*
X105760000Y-51010000D01*
X105870000Y-51130000D01*
X106050000Y-51340000D01*
X106170000Y-51500000D01*
X106270000Y-51680000D01*
X106310000Y-51790000D01*
X106280000Y-51770000D01*
X106160000Y-51660000D01*
X105920000Y-51460000D01*
X105700000Y-51250000D01*
X105530000Y-51130000D01*
X105280000Y-50960000D01*
X105150000Y-50930000D01*
X104850000Y-50980000D01*
X104850000Y-51070000D01*
X104970000Y-51220000D01*
X105190000Y-51350000D01*
X105490000Y-51540000D01*
X105600000Y-51670000D01*
X105720000Y-51850000D01*
X105790000Y-51900000D01*
X105850000Y-52050000D01*
X105890000Y-52170000D01*
X105880000Y-52250000D01*
X105830000Y-52310000D01*
X105670000Y-52010000D01*
X105510000Y-51880000D01*
X105270000Y-51680000D01*
X105020000Y-51550000D01*
X104760000Y-51450000D01*
X104450000Y-51410000D01*
X104110000Y-51420000D01*
X104010000Y-51400000D01*
X104050000Y-51280000D01*
X104180000Y-51120000D01*
X104400000Y-50940000D01*
X104640000Y-50800000D01*
X104940000Y-50720000D01*
X105210000Y-50660000D01*
X105350000Y-50550000D01*
X105340000Y-50430000D01*
X105290000Y-50370000D01*
X105140000Y-50290000D01*
X104950000Y-50290000D01*
X104680000Y-50320000D01*
X104300000Y-50440000D01*
X103950000Y-50600000D01*
X104220000Y-50410000D01*
X104460000Y-50270000D01*
X104760000Y-50150000D01*
X105060000Y-50050000D01*
X105340000Y-49970000D01*
X105510000Y-49970000D01*
X105600000Y-49980000D01*
X105700000Y-49820000D01*
X105670000Y-49740000D01*
X105510000Y-49600000D01*
X105250000Y-49510000D01*
X105100000Y-49450000D01*
X105160000Y-49400000D01*
X105390000Y-49380000D01*
X105520000Y-49370000D01*
X105780000Y-49410000D01*
G37*
X99825000Y-76075000D02*
X100250000Y-76550000D01*
X100450000Y-77100000D01*
X100475000Y-77550000D01*
X100425000Y-77900000D01*
X100175000Y-78050000D01*
X99875000Y-77875000D01*
X99950000Y-77750000D01*
X100025000Y-77375000D01*
X99825000Y-76900000D01*
X99775000Y-76850000D01*
X99575000Y-76750000D01*
X99325000Y-76800000D01*
X99200000Y-76975000D01*
X99175000Y-77200000D01*
X99200000Y-77275000D01*
X99375000Y-77625000D01*
X99500000Y-77825000D01*
X99875000Y-78200000D01*
X100475000Y-78375000D01*
X100975000Y-78275000D01*
X101575000Y-78050000D01*
X101925000Y-77825000D01*
X102350000Y-77625000D01*
X102750000Y-77525000D01*
X103050000Y-77550000D01*
X103250000Y-77700000D01*
X103425000Y-78100000D01*
X103375000Y-78475000D01*
X103125000Y-78850000D01*
X103050000Y-79125000D01*
X103250000Y-79250000D01*
X103600000Y-79050000D01*
X104100000Y-78625000D01*
X104575000Y-78425000D01*
X105025000Y-78350000D01*
X105375000Y-78425000D01*
X105600000Y-78600000D01*
X105675000Y-79100000D01*
X105675000Y-79875000D01*
X105925000Y-80325000D01*
X106250000Y-80450000D01*
X106800000Y-80475000D01*
X107175000Y-80325000D01*
X107450000Y-80125000D01*
X107750000Y-79950000D01*
X107950000Y-79925000D01*
X108000000Y-79950000D01*
X108100000Y-80075000D01*
X108075000Y-80325000D01*
X107875000Y-80550000D01*
X107425000Y-80825000D01*
X107125000Y-80950000D01*
X106525000Y-81050000D01*
X105925000Y-80950000D01*
X105575000Y-80750000D01*
X105325000Y-80475000D01*
X105050000Y-80025000D01*
X104975000Y-79650000D01*
X104950000Y-79375000D01*
X104925000Y-79125000D01*
X104700000Y-79075000D01*
X104400000Y-79150000D01*
X104050000Y-79475000D01*
X103325000Y-79825000D01*
X102925000Y-79925000D01*
X102625000Y-79775000D01*
X102500000Y-79600000D01*
X102450000Y-79375000D01*
X102475000Y-78950000D01*
X102625000Y-78625000D01*
X102575000Y-78225000D01*
X102375000Y-78175000D01*
X102100000Y-78250000D01*
X101425000Y-78700000D01*
X100950000Y-78775000D01*
X100100000Y-78725000D01*
X99650000Y-78475000D01*
X99025000Y-77925000D01*
X98775000Y-77150000D01*
X98775000Y-76775000D01*
X98825000Y-76325000D01*
X98950000Y-76125000D01*
X99100000Y-76025000D01*
X99425000Y-76000000D01*
X99825000Y-76075000D01*
G36*
X99825000Y-76075000D02*
G01*
X100250000Y-76550000D01*
X100450000Y-77100000D01*
X100475000Y-77550000D01*
X100425000Y-77900000D01*
X100175000Y-78050000D01*
X99875000Y-77875000D01*
X99950000Y-77750000D01*
X100025000Y-77375000D01*
X99825000Y-76900000D01*
X99775000Y-76850000D01*
X99575000Y-76750000D01*
X99325000Y-76800000D01*
X99200000Y-76975000D01*
X99175000Y-77200000D01*
X99200000Y-77275000D01*
X99375000Y-77625000D01*
X99500000Y-77825000D01*
X99875000Y-78200000D01*
X100475000Y-78375000D01*
X100975000Y-78275000D01*
X101575000Y-78050000D01*
X101925000Y-77825000D01*
X102350000Y-77625000D01*
X102750000Y-77525000D01*
X103050000Y-77550000D01*
X103250000Y-77700000D01*
X103425000Y-78100000D01*
X103375000Y-78475000D01*
X103125000Y-78850000D01*
X103050000Y-79125000D01*
X103250000Y-79250000D01*
X103600000Y-79050000D01*
X104100000Y-78625000D01*
X104575000Y-78425000D01*
X105025000Y-78350000D01*
X105375000Y-78425000D01*
X105600000Y-78600000D01*
X105675000Y-79100000D01*
X105675000Y-79875000D01*
X105925000Y-80325000D01*
X106250000Y-80450000D01*
X106800000Y-80475000D01*
X107175000Y-80325000D01*
X107450000Y-80125000D01*
X107750000Y-79950000D01*
X107950000Y-79925000D01*
X108000000Y-79950000D01*
X108100000Y-80075000D01*
X108075000Y-80325000D01*
X107875000Y-80550000D01*
X107425000Y-80825000D01*
X107125000Y-80950000D01*
X106525000Y-81050000D01*
X105925000Y-80950000D01*
X105575000Y-80750000D01*
X105325000Y-80475000D01*
X105050000Y-80025000D01*
X104975000Y-79650000D01*
X104950000Y-79375000D01*
X104925000Y-79125000D01*
X104700000Y-79075000D01*
X104400000Y-79150000D01*
X104050000Y-79475000D01*
X103325000Y-79825000D01*
X102925000Y-79925000D01*
X102625000Y-79775000D01*
X102500000Y-79600000D01*
X102450000Y-79375000D01*
X102475000Y-78950000D01*
X102625000Y-78625000D01*
X102575000Y-78225000D01*
X102375000Y-78175000D01*
X102100000Y-78250000D01*
X101425000Y-78700000D01*
X100950000Y-78775000D01*
X100100000Y-78725000D01*
X99650000Y-78475000D01*
X99025000Y-77925000D01*
X98775000Y-77150000D01*
X98775000Y-76775000D01*
X98825000Y-76325000D01*
X98950000Y-76125000D01*
X99100000Y-76025000D01*
X99425000Y-76000000D01*
X99825000Y-76075000D01*
G37*
X80170000Y-54720000D02*
X80110000Y-54790000D01*
X79930000Y-55030000D01*
X79860000Y-55220000D01*
X79770000Y-55450000D01*
X79690000Y-55860000D01*
X79610000Y-56300000D01*
X79470000Y-56410000D01*
X79410000Y-56480000D01*
X79420000Y-56670000D01*
X79450000Y-56850000D01*
X79470000Y-57090000D01*
X78970000Y-57820000D01*
X78890000Y-57930000D01*
X78900000Y-58030000D01*
X78940000Y-58170000D01*
X78890000Y-58320000D01*
X78760000Y-58840000D01*
X78670000Y-59170000D01*
X78590000Y-59280000D01*
X78450000Y-59300000D01*
X78220000Y-59360000D01*
X78160000Y-59360000D01*
X78200000Y-59330000D01*
X78490000Y-59180000D01*
X78580000Y-59130000D01*
X78760000Y-58370000D01*
X78750000Y-58150000D01*
X78740000Y-58020000D01*
X78710000Y-57950000D01*
X78740000Y-57870000D01*
X78800000Y-57800000D01*
X78840000Y-57780000D01*
X78920000Y-57710000D01*
X79280000Y-57150000D01*
X79340000Y-57010000D01*
X79320000Y-56550000D01*
X79310000Y-56380000D01*
X79500000Y-56230000D01*
X79490000Y-56180000D01*
X79200000Y-55850000D01*
X78920000Y-55810000D01*
X78780000Y-55830000D01*
X77990000Y-56150000D01*
X77870000Y-56230000D01*
X77510000Y-56660000D01*
X77290000Y-56940000D01*
X77000000Y-57410000D01*
X76840000Y-57680000D01*
X76750000Y-58630000D01*
X76730000Y-58880000D01*
X76540000Y-59150000D01*
X76310000Y-59490000D01*
X76140000Y-59780000D01*
X75910000Y-60130000D01*
X75800000Y-60290000D01*
X75740000Y-60360000D01*
X76030000Y-59810000D01*
X76320000Y-59310000D01*
X76580000Y-58790000D01*
X76680000Y-57720000D01*
X76930000Y-57270000D01*
X77090000Y-57050000D01*
X77270000Y-56780000D01*
X77400000Y-56610000D01*
X77530000Y-56450000D01*
X77570000Y-56340000D01*
X77550000Y-56270000D01*
X77250000Y-56320000D01*
X76550000Y-56610000D01*
X76150000Y-56800000D01*
X75930000Y-57030000D01*
X75600000Y-57310000D01*
X75410000Y-57500000D01*
X75220000Y-57710000D01*
X75160000Y-57760000D01*
X75330000Y-57530000D01*
X75550000Y-57230000D01*
X75860000Y-56850000D01*
X76110000Y-56620000D01*
X77330000Y-56040000D01*
X77840000Y-56030000D01*
X78500000Y-55620000D01*
X79100000Y-55590000D01*
X79320000Y-55470000D01*
X79440000Y-55360000D01*
X79700000Y-55020000D01*
X79820000Y-54810000D01*
X79990000Y-54590000D01*
X80120000Y-54580000D01*
X80170000Y-54720000D01*
G36*
X80170000Y-54720000D02*
G01*
X80110000Y-54790000D01*
X79930000Y-55030000D01*
X79860000Y-55220000D01*
X79770000Y-55450000D01*
X79690000Y-55860000D01*
X79610000Y-56300000D01*
X79470000Y-56410000D01*
X79410000Y-56480000D01*
X79420000Y-56670000D01*
X79450000Y-56850000D01*
X79470000Y-57090000D01*
X78970000Y-57820000D01*
X78890000Y-57930000D01*
X78900000Y-58030000D01*
X78940000Y-58170000D01*
X78890000Y-58320000D01*
X78760000Y-58840000D01*
X78670000Y-59170000D01*
X78590000Y-59280000D01*
X78450000Y-59300000D01*
X78220000Y-59360000D01*
X78160000Y-59360000D01*
X78200000Y-59330000D01*
X78490000Y-59180000D01*
X78580000Y-59130000D01*
X78760000Y-58370000D01*
X78750000Y-58150000D01*
X78740000Y-58020000D01*
X78710000Y-57950000D01*
X78740000Y-57870000D01*
X78800000Y-57800000D01*
X78840000Y-57780000D01*
X78920000Y-57710000D01*
X79280000Y-57150000D01*
X79340000Y-57010000D01*
X79320000Y-56550000D01*
X79310000Y-56380000D01*
X79500000Y-56230000D01*
X79490000Y-56180000D01*
X79200000Y-55850000D01*
X78920000Y-55810000D01*
X78780000Y-55830000D01*
X77990000Y-56150000D01*
X77870000Y-56230000D01*
X77510000Y-56660000D01*
X77290000Y-56940000D01*
X77000000Y-57410000D01*
X76840000Y-57680000D01*
X76750000Y-58630000D01*
X76730000Y-58880000D01*
X76540000Y-59150000D01*
X76310000Y-59490000D01*
X76140000Y-59780000D01*
X75910000Y-60130000D01*
X75800000Y-60290000D01*
X75740000Y-60360000D01*
X76030000Y-59810000D01*
X76320000Y-59310000D01*
X76580000Y-58790000D01*
X76680000Y-57720000D01*
X76930000Y-57270000D01*
X77090000Y-57050000D01*
X77270000Y-56780000D01*
X77400000Y-56610000D01*
X77530000Y-56450000D01*
X77570000Y-56340000D01*
X77550000Y-56270000D01*
X77250000Y-56320000D01*
X76550000Y-56610000D01*
X76150000Y-56800000D01*
X75930000Y-57030000D01*
X75600000Y-57310000D01*
X75410000Y-57500000D01*
X75220000Y-57710000D01*
X75160000Y-57760000D01*
X75330000Y-57530000D01*
X75550000Y-57230000D01*
X75860000Y-56850000D01*
X76110000Y-56620000D01*
X77330000Y-56040000D01*
X77840000Y-56030000D01*
X78500000Y-55620000D01*
X79100000Y-55590000D01*
X79320000Y-55470000D01*
X79440000Y-55360000D01*
X79700000Y-55020000D01*
X79820000Y-54810000D01*
X79990000Y-54590000D01*
X80120000Y-54580000D01*
X80170000Y-54720000D01*
G37*
X104660000Y-51920000D02*
X104860000Y-51990000D01*
X105170000Y-52160000D01*
X105330000Y-52400000D01*
X105430000Y-52580000D01*
X105520000Y-52950000D01*
X105520000Y-53090000D01*
X105500000Y-53160000D01*
X105460000Y-53170000D01*
X105390000Y-53110000D01*
X105330000Y-53000000D01*
X105110000Y-52810000D01*
X104950000Y-52650000D01*
X104480000Y-52420000D01*
X104210000Y-52370000D01*
X103800000Y-52310000D01*
X103610000Y-52330000D01*
X103460000Y-52380000D01*
X103330000Y-52400000D01*
X103290000Y-52500000D01*
X103270000Y-52650000D01*
X103400000Y-52700000D01*
X103440000Y-52760000D01*
X103330000Y-52770000D01*
X103100000Y-52900000D01*
X102950000Y-53020000D01*
X102850000Y-53300000D01*
X102910000Y-53460000D01*
X102950000Y-53510000D01*
X103380000Y-53510000D01*
X103490000Y-53590000D01*
X103490000Y-53760000D01*
X103140000Y-54150000D01*
X103050000Y-54330000D01*
X103000000Y-54430000D01*
X102900000Y-54350000D01*
X102730000Y-54350000D01*
X102590000Y-54470000D01*
X102210000Y-54700000D01*
X102060000Y-54630000D01*
X101900000Y-54590000D01*
X101730000Y-54570000D01*
X101600000Y-54590000D01*
X101300000Y-54800000D01*
X101110000Y-54970000D01*
X100870000Y-55160000D01*
X100770000Y-55240000D01*
X100600000Y-55350000D01*
X100550000Y-55390000D01*
X100750000Y-55200000D01*
X100850000Y-55110000D01*
X101000000Y-54940000D01*
X100980000Y-54880000D01*
X100950000Y-54780000D01*
X100860000Y-54800000D01*
X100760000Y-54830000D01*
X100690000Y-54860000D01*
X100570000Y-54940000D01*
X100450000Y-55030000D01*
X100360000Y-55120000D01*
X100250000Y-55160000D01*
X100180000Y-55150000D01*
X100130000Y-55050000D01*
X100100000Y-54980000D01*
X100100000Y-54880000D01*
X100100000Y-54870000D01*
X100140000Y-54820000D01*
X100200000Y-54750000D01*
X100260000Y-54680000D01*
X100480000Y-54580000D01*
X100530000Y-54570000D01*
X100950000Y-54600000D01*
X101030000Y-54590000D01*
X101070000Y-54410000D01*
X101010000Y-54260000D01*
X100910000Y-54170000D01*
X100890000Y-54090000D01*
X100960000Y-54060000D01*
X101120000Y-54010000D01*
X101260000Y-53990000D01*
X101340000Y-53980000D01*
X101530000Y-54010000D01*
X101810000Y-54070000D01*
X102150000Y-53990000D01*
X102370000Y-53890000D01*
X102460000Y-53840000D01*
X102570000Y-53660000D01*
X102620000Y-53490000D01*
X102650000Y-53420000D01*
X102710000Y-53270000D01*
X102820000Y-53090000D01*
X102920000Y-52880000D01*
X103040000Y-52680000D01*
X103090000Y-52510000D01*
X103070000Y-52400000D01*
X102950000Y-52350000D01*
X102780000Y-52400000D01*
X102640000Y-52480000D01*
X102500000Y-52610000D01*
X102410000Y-52670000D01*
X102500000Y-52510000D01*
X102580000Y-52440000D01*
X102740000Y-52330000D01*
X102860000Y-52270000D01*
X102930000Y-52240000D01*
X103340000Y-52280000D01*
X103520000Y-52280000D01*
X103590000Y-52230000D01*
X103670000Y-52150000D01*
X103730000Y-52040000D01*
X103960000Y-51920000D01*
X104310000Y-51890000D01*
X104660000Y-51920000D01*
G36*
X104660000Y-51920000D02*
G01*
X104860000Y-51990000D01*
X105170000Y-52160000D01*
X105330000Y-52400000D01*
X105430000Y-52580000D01*
X105520000Y-52950000D01*
X105520000Y-53090000D01*
X105500000Y-53160000D01*
X105460000Y-53170000D01*
X105390000Y-53110000D01*
X105330000Y-53000000D01*
X105110000Y-52810000D01*
X104950000Y-52650000D01*
X104480000Y-52420000D01*
X104210000Y-52370000D01*
X103800000Y-52310000D01*
X103610000Y-52330000D01*
X103460000Y-52380000D01*
X103330000Y-52400000D01*
X103290000Y-52500000D01*
X103270000Y-52650000D01*
X103400000Y-52700000D01*
X103440000Y-52760000D01*
X103330000Y-52770000D01*
X103100000Y-52900000D01*
X102950000Y-53020000D01*
X102850000Y-53300000D01*
X102910000Y-53460000D01*
X102950000Y-53510000D01*
X103380000Y-53510000D01*
X103490000Y-53590000D01*
X103490000Y-53760000D01*
X103140000Y-54150000D01*
X103050000Y-54330000D01*
X103000000Y-54430000D01*
X102900000Y-54350000D01*
X102730000Y-54350000D01*
X102590000Y-54470000D01*
X102210000Y-54700000D01*
X102060000Y-54630000D01*
X101900000Y-54590000D01*
X101730000Y-54570000D01*
X101600000Y-54590000D01*
X101300000Y-54800000D01*
X101110000Y-54970000D01*
X100870000Y-55160000D01*
X100770000Y-55240000D01*
X100600000Y-55350000D01*
X100550000Y-55390000D01*
X100750000Y-55200000D01*
X100850000Y-55110000D01*
X101000000Y-54940000D01*
X100980000Y-54880000D01*
X100950000Y-54780000D01*
X100860000Y-54800000D01*
X100760000Y-54830000D01*
X100690000Y-54860000D01*
X100570000Y-54940000D01*
X100450000Y-55030000D01*
X100360000Y-55120000D01*
X100250000Y-55160000D01*
X100180000Y-55150000D01*
X100130000Y-55050000D01*
X100100000Y-54980000D01*
X100100000Y-54880000D01*
X100100000Y-54870000D01*
X100140000Y-54820000D01*
X100200000Y-54750000D01*
X100260000Y-54680000D01*
X100480000Y-54580000D01*
X100530000Y-54570000D01*
X100950000Y-54600000D01*
X101030000Y-54590000D01*
X101070000Y-54410000D01*
X101010000Y-54260000D01*
X100910000Y-54170000D01*
X100890000Y-54090000D01*
X100960000Y-54060000D01*
X101120000Y-54010000D01*
X101260000Y-53990000D01*
X101340000Y-53980000D01*
X101530000Y-54010000D01*
X101810000Y-54070000D01*
X102150000Y-53990000D01*
X102370000Y-53890000D01*
X102460000Y-53840000D01*
X102570000Y-53660000D01*
X102620000Y-53490000D01*
X102650000Y-53420000D01*
X102710000Y-53270000D01*
X102820000Y-53090000D01*
X102920000Y-52880000D01*
X103040000Y-52680000D01*
X103090000Y-52510000D01*
X103070000Y-52400000D01*
X102950000Y-52350000D01*
X102780000Y-52400000D01*
X102640000Y-52480000D01*
X102500000Y-52610000D01*
X102410000Y-52670000D01*
X102500000Y-52510000D01*
X102580000Y-52440000D01*
X102740000Y-52330000D01*
X102860000Y-52270000D01*
X102930000Y-52240000D01*
X103340000Y-52280000D01*
X103520000Y-52280000D01*
X103590000Y-52230000D01*
X103670000Y-52150000D01*
X103730000Y-52040000D01*
X103960000Y-51920000D01*
X104310000Y-51890000D01*
X104660000Y-51920000D01*
G37*
X192450000Y-109200000D02*
X192300000Y-109400000D01*
X192075000Y-109750000D01*
X191875000Y-110075000D01*
X191725000Y-110350000D01*
X191750000Y-110500000D01*
X192100000Y-110750000D01*
X192550000Y-111125000D01*
X192775000Y-111375000D01*
X193000000Y-111650000D01*
X193250000Y-112100000D01*
X193400000Y-112375000D01*
X193575000Y-112550000D01*
X193675000Y-112500000D01*
X193775000Y-112375000D01*
X193850000Y-112050000D01*
X193900000Y-111375000D01*
X193925000Y-110750000D01*
X193950000Y-110275000D01*
X194675000Y-110200000D01*
X194675000Y-111025000D01*
X194675000Y-112325000D01*
X194675000Y-112500000D01*
X194775000Y-112525000D01*
X195325000Y-112650000D01*
X195475000Y-112800000D01*
X195500000Y-113250000D01*
X195400000Y-113425000D01*
X194975000Y-113500000D01*
X194850000Y-113575000D01*
X194750000Y-113825000D01*
X194700000Y-114275000D01*
X194675000Y-114825000D01*
X194675000Y-115250000D01*
X194225000Y-115200000D01*
X193800000Y-115175000D01*
X193800000Y-114875000D01*
X193725000Y-113750000D01*
X193700000Y-113550000D01*
X193625000Y-113500000D01*
X193550000Y-113450000D01*
X193475000Y-113500000D01*
X193300000Y-113675000D01*
X193150000Y-113875000D01*
X192675000Y-114525000D01*
X192350000Y-114725000D01*
X192025000Y-114925000D01*
X191550000Y-115100000D01*
X191050000Y-115225000D01*
X190575000Y-115175000D01*
X190200000Y-115000000D01*
X189950000Y-114900000D01*
X189700000Y-114725000D01*
X189400000Y-114500000D01*
X189200000Y-114250000D01*
X188975000Y-113950000D01*
X188775000Y-113450000D01*
X188700000Y-113100000D01*
X188650000Y-112900000D01*
X189000000Y-112900000D01*
X189150000Y-112925000D01*
X189525000Y-112975000D01*
X189775000Y-113050000D01*
X190175000Y-113200000D01*
X190400000Y-113350000D01*
X190275000Y-113450000D01*
X190100000Y-113525000D01*
X189775000Y-113600000D01*
X189575000Y-113650000D01*
X189550000Y-113750000D01*
X189575000Y-113875000D01*
X189750000Y-114175000D01*
X189925000Y-114450000D01*
X190000000Y-114550000D01*
X190075000Y-114500000D01*
X190300000Y-114275000D01*
X190550000Y-114025000D01*
X190725000Y-113875000D01*
X191000000Y-113750000D01*
X191225000Y-113825000D01*
X191450000Y-114025000D01*
X191725000Y-114275000D01*
X191950000Y-114450000D01*
X192125000Y-114450000D01*
X192275000Y-114300000D01*
X192350000Y-114175000D01*
X192450000Y-114000000D01*
X192450000Y-113700000D01*
X192225000Y-113600000D01*
X192100000Y-113575000D01*
X191800000Y-113475000D01*
X191725000Y-113425000D01*
X191725000Y-113350000D01*
X191875000Y-113225000D01*
X192075000Y-113125000D01*
X192400000Y-113050000D01*
X192700000Y-113000000D01*
X192875000Y-112750000D01*
X192775000Y-112500000D01*
X192750000Y-112425000D01*
X192550000Y-112200000D01*
X192275000Y-112100000D01*
X192125000Y-112250000D01*
X192075000Y-112075000D01*
X192000000Y-111775000D01*
X191750000Y-111450000D01*
X191475000Y-111250000D01*
X191175000Y-111175000D01*
X190650000Y-111200000D01*
X190250000Y-111275000D01*
X190875000Y-110350000D01*
X191000000Y-110125000D01*
X191000000Y-110025000D01*
X190775000Y-109950000D01*
X190175000Y-109925000D01*
X190075000Y-109825000D01*
X190125000Y-109175000D01*
X192450000Y-109200000D01*
G36*
X192450000Y-109200000D02*
G01*
X192300000Y-109400000D01*
X192075000Y-109750000D01*
X191875000Y-110075000D01*
X191725000Y-110350000D01*
X191750000Y-110500000D01*
X192100000Y-110750000D01*
X192550000Y-111125000D01*
X192775000Y-111375000D01*
X193000000Y-111650000D01*
X193250000Y-112100000D01*
X193400000Y-112375000D01*
X193575000Y-112550000D01*
X193675000Y-112500000D01*
X193775000Y-112375000D01*
X193850000Y-112050000D01*
X193900000Y-111375000D01*
X193925000Y-110750000D01*
X193950000Y-110275000D01*
X194675000Y-110200000D01*
X194675000Y-111025000D01*
X194675000Y-112325000D01*
X194675000Y-112500000D01*
X194775000Y-112525000D01*
X195325000Y-112650000D01*
X195475000Y-112800000D01*
X195500000Y-113250000D01*
X195400000Y-113425000D01*
X194975000Y-113500000D01*
X194850000Y-113575000D01*
X194750000Y-113825000D01*
X194700000Y-114275000D01*
X194675000Y-114825000D01*
X194675000Y-115250000D01*
X194225000Y-115200000D01*
X193800000Y-115175000D01*
X193800000Y-114875000D01*
X193725000Y-113750000D01*
X193700000Y-113550000D01*
X193625000Y-113500000D01*
X193550000Y-113450000D01*
X193475000Y-113500000D01*
X193300000Y-113675000D01*
X193150000Y-113875000D01*
X192675000Y-114525000D01*
X192350000Y-114725000D01*
X192025000Y-114925000D01*
X191550000Y-115100000D01*
X191050000Y-115225000D01*
X190575000Y-115175000D01*
X190200000Y-115000000D01*
X189950000Y-114900000D01*
X189700000Y-114725000D01*
X189400000Y-114500000D01*
X189200000Y-114250000D01*
X188975000Y-113950000D01*
X188775000Y-113450000D01*
X188700000Y-113100000D01*
X188650000Y-112900000D01*
X189000000Y-112900000D01*
X189150000Y-112925000D01*
X189525000Y-112975000D01*
X189775000Y-113050000D01*
X190175000Y-113200000D01*
X190400000Y-113350000D01*
X190275000Y-113450000D01*
X190100000Y-113525000D01*
X189775000Y-113600000D01*
X189575000Y-113650000D01*
X189550000Y-113750000D01*
X189575000Y-113875000D01*
X189750000Y-114175000D01*
X189925000Y-114450000D01*
X190000000Y-114550000D01*
X190075000Y-114500000D01*
X190300000Y-114275000D01*
X190550000Y-114025000D01*
X190725000Y-113875000D01*
X191000000Y-113750000D01*
X191225000Y-113825000D01*
X191450000Y-114025000D01*
X191725000Y-114275000D01*
X191950000Y-114450000D01*
X192125000Y-114450000D01*
X192275000Y-114300000D01*
X192350000Y-114175000D01*
X192450000Y-114000000D01*
X192450000Y-113700000D01*
X192225000Y-113600000D01*
X192100000Y-113575000D01*
X191800000Y-113475000D01*
X191725000Y-113425000D01*
X191725000Y-113350000D01*
X191875000Y-113225000D01*
X192075000Y-113125000D01*
X192400000Y-113050000D01*
X192700000Y-113000000D01*
X192875000Y-112750000D01*
X192775000Y-112500000D01*
X192750000Y-112425000D01*
X192550000Y-112200000D01*
X192275000Y-112100000D01*
X192125000Y-112250000D01*
X192075000Y-112075000D01*
X192000000Y-111775000D01*
X191750000Y-111450000D01*
X191475000Y-111250000D01*
X191175000Y-111175000D01*
X190650000Y-111200000D01*
X190250000Y-111275000D01*
X190875000Y-110350000D01*
X191000000Y-110125000D01*
X191000000Y-110025000D01*
X190775000Y-109950000D01*
X190175000Y-109925000D01*
X190075000Y-109825000D01*
X190125000Y-109175000D01*
X192450000Y-109200000D01*
G37*
X90830000Y-48560000D02*
X91100000Y-48750000D01*
X91390000Y-48810000D01*
X91610000Y-48890000D01*
X91740000Y-49020000D01*
X91870000Y-49230000D01*
X91560000Y-49110000D01*
X91460000Y-49160000D01*
X91460000Y-49400000D01*
X91650000Y-49650000D01*
X91960000Y-49710000D01*
X92340000Y-49780000D01*
X92480000Y-49860000D01*
X92570000Y-49990000D01*
X92680000Y-50160000D01*
X92740000Y-50380000D01*
X92630000Y-50380000D01*
X92470000Y-50230000D01*
X92130000Y-50050000D01*
X92030000Y-50020000D01*
X91850000Y-50070000D01*
X91900000Y-50190000D01*
X92020000Y-50400000D01*
X92050000Y-50480000D01*
X91930000Y-50440000D01*
X91700000Y-50320000D01*
X91580000Y-50260000D01*
X91460000Y-50160000D01*
X91370000Y-50050000D01*
X91300000Y-50020000D01*
X91190000Y-50110000D01*
X91180000Y-50210000D01*
X91310000Y-50320000D01*
X91410000Y-50220000D01*
X91470000Y-50230000D01*
X91550000Y-50340000D01*
X91500000Y-50390000D01*
X91540000Y-50560000D01*
X91540000Y-50660000D01*
X91380000Y-50550000D01*
X91200000Y-50430000D01*
X91000000Y-50340000D01*
X90760000Y-50220000D01*
X90670000Y-50170000D01*
X90450000Y-50200000D01*
X90200000Y-50250000D01*
X89960000Y-50350000D01*
X89840000Y-50470000D01*
X89820000Y-50540000D01*
X89940000Y-50710000D01*
X90090000Y-50660000D01*
X90280000Y-50580000D01*
X90560000Y-50420000D01*
X90710000Y-50290000D01*
X90760000Y-50280000D01*
X90920000Y-50350000D01*
X90920000Y-50420000D01*
X90960000Y-50570000D01*
X90960000Y-50730000D01*
X90820000Y-50750000D01*
X90580000Y-50770000D01*
X90190000Y-50910000D01*
X89820000Y-51230000D01*
X89590000Y-51530000D01*
X89510000Y-51630000D01*
X89490000Y-51720000D01*
X89460000Y-51800000D01*
X89360000Y-51800000D01*
X89400000Y-51740000D01*
X89380000Y-51640000D01*
X89230000Y-51660000D01*
X89020000Y-51610000D01*
X88670000Y-51310000D01*
X88520000Y-51110000D01*
X88340000Y-51020000D01*
X88200000Y-51040000D01*
X88160000Y-51080000D01*
X88000000Y-51430000D01*
X87820000Y-51530000D01*
X87530000Y-51510000D01*
X87520000Y-51330000D01*
X87340000Y-51250000D01*
X87150000Y-51300000D01*
X87080000Y-51400000D01*
X87140000Y-51670000D01*
X87240000Y-51920000D01*
X87130000Y-51980000D01*
X86990000Y-51980000D01*
X86580000Y-52030000D01*
X86220000Y-52070000D01*
X86040000Y-51970000D01*
X86000000Y-51510000D01*
X86030000Y-51110000D01*
X86170000Y-50860000D01*
X86310000Y-50720000D01*
X86500000Y-50610000D01*
X86790000Y-50520000D01*
X86840000Y-50500000D01*
X86930000Y-50470000D01*
X87110000Y-50560000D01*
X87140000Y-50810000D01*
X87130000Y-51070000D01*
X87160000Y-51150000D01*
X87250000Y-51150000D01*
X87290000Y-51090000D01*
X87360000Y-50950000D01*
X87470000Y-50920000D01*
X87570000Y-50860000D01*
X87620000Y-50660000D01*
X87630000Y-50340000D01*
X87680000Y-50090000D01*
X87820000Y-49900000D01*
X88090000Y-49770000D01*
X88500000Y-49600000D01*
X88720000Y-49440000D01*
X89340000Y-48890000D01*
X89500000Y-48840000D01*
X89560000Y-48970000D01*
X89750000Y-49110000D01*
X89890000Y-49030000D01*
X90000000Y-48740000D01*
X90230000Y-48600000D01*
X90520000Y-48530000D01*
X90830000Y-48560000D01*
G36*
X90830000Y-48560000D02*
G01*
X91100000Y-48750000D01*
X91390000Y-48810000D01*
X91610000Y-48890000D01*
X91740000Y-49020000D01*
X91870000Y-49230000D01*
X91560000Y-49110000D01*
X91460000Y-49160000D01*
X91460000Y-49400000D01*
X91650000Y-49650000D01*
X91960000Y-49710000D01*
X92340000Y-49780000D01*
X92480000Y-49860000D01*
X92570000Y-49990000D01*
X92680000Y-50160000D01*
X92740000Y-50380000D01*
X92630000Y-50380000D01*
X92470000Y-50230000D01*
X92130000Y-50050000D01*
X92030000Y-50020000D01*
X91850000Y-50070000D01*
X91900000Y-50190000D01*
X92020000Y-50400000D01*
X92050000Y-50480000D01*
X91930000Y-50440000D01*
X91700000Y-50320000D01*
X91580000Y-50260000D01*
X91460000Y-50160000D01*
X91370000Y-50050000D01*
X91300000Y-50020000D01*
X91190000Y-50110000D01*
X91180000Y-50210000D01*
X91310000Y-50320000D01*
X91410000Y-50220000D01*
X91470000Y-50230000D01*
X91550000Y-50340000D01*
X91500000Y-50390000D01*
X91540000Y-50560000D01*
X91540000Y-50660000D01*
X91380000Y-50550000D01*
X91200000Y-50430000D01*
X91000000Y-50340000D01*
X90760000Y-50220000D01*
X90670000Y-50170000D01*
X90450000Y-50200000D01*
X90200000Y-50250000D01*
X89960000Y-50350000D01*
X89840000Y-50470000D01*
X89820000Y-50540000D01*
X89940000Y-50710000D01*
X90090000Y-50660000D01*
X90280000Y-50580000D01*
X90560000Y-50420000D01*
X90710000Y-50290000D01*
X90760000Y-50280000D01*
X90920000Y-50350000D01*
X90920000Y-50420000D01*
X90960000Y-50570000D01*
X90960000Y-50730000D01*
X90820000Y-50750000D01*
X90580000Y-50770000D01*
X90190000Y-50910000D01*
X89820000Y-51230000D01*
X89590000Y-51530000D01*
X89510000Y-51630000D01*
X89490000Y-51720000D01*
X89460000Y-51800000D01*
X89360000Y-51800000D01*
X89400000Y-51740000D01*
X89380000Y-51640000D01*
X89230000Y-51660000D01*
X89020000Y-51610000D01*
X88670000Y-51310000D01*
X88520000Y-51110000D01*
X88340000Y-51020000D01*
X88200000Y-51040000D01*
X88160000Y-51080000D01*
X88000000Y-51430000D01*
X87820000Y-51530000D01*
X87530000Y-51510000D01*
X87520000Y-51330000D01*
X87340000Y-51250000D01*
X87150000Y-51300000D01*
X87080000Y-51400000D01*
X87140000Y-51670000D01*
X87240000Y-51920000D01*
X87130000Y-51980000D01*
X86990000Y-51980000D01*
X86580000Y-52030000D01*
X86220000Y-52070000D01*
X86040000Y-51970000D01*
X86000000Y-51510000D01*
X86030000Y-51110000D01*
X86170000Y-50860000D01*
X86310000Y-50720000D01*
X86500000Y-50610000D01*
X86790000Y-50520000D01*
X86840000Y-50500000D01*
X86930000Y-50470000D01*
X87110000Y-50560000D01*
X87140000Y-50810000D01*
X87130000Y-51070000D01*
X87160000Y-51150000D01*
X87250000Y-51150000D01*
X87290000Y-51090000D01*
X87360000Y-50950000D01*
X87470000Y-50920000D01*
X87570000Y-50860000D01*
X87620000Y-50660000D01*
X87630000Y-50340000D01*
X87680000Y-50090000D01*
X87820000Y-49900000D01*
X88090000Y-49770000D01*
X88500000Y-49600000D01*
X88720000Y-49440000D01*
X89340000Y-48890000D01*
X89500000Y-48840000D01*
X89560000Y-48970000D01*
X89750000Y-49110000D01*
X89890000Y-49030000D01*
X90000000Y-48740000D01*
X90230000Y-48600000D01*
X90520000Y-48530000D01*
X90830000Y-48560000D01*
G37*
X97150000Y-51410000D02*
X97340000Y-51540000D01*
X97790000Y-51840000D01*
X97970000Y-51970000D01*
X97970000Y-52590000D01*
X97980000Y-54050000D01*
X98210000Y-54230000D01*
X98520000Y-54440000D01*
X98800000Y-54650000D01*
X99090000Y-54850000D01*
X99360000Y-55090000D01*
X99700000Y-55380000D01*
X99910000Y-55620000D01*
X100020000Y-55760000D01*
X100200000Y-55830000D01*
X100310000Y-55920000D01*
X100390000Y-56060000D01*
X100490000Y-56260000D01*
X100570000Y-56400000D01*
X100680000Y-56780000D01*
X100680000Y-57090000D01*
X100700000Y-57230000D01*
X100830000Y-57230000D01*
X101450000Y-57220000D01*
X101980000Y-57220000D01*
X102400000Y-57260000D01*
X102540000Y-57280000D01*
X102600000Y-57320000D01*
X102650000Y-57400000D01*
X102830000Y-57630000D01*
X103370000Y-58260000D01*
X104100000Y-59030000D01*
X104380000Y-59350000D01*
X104700000Y-59720000D01*
X104970000Y-59980000D01*
X104980000Y-60010000D01*
X104850000Y-59900000D01*
X104530000Y-59620000D01*
X103900000Y-59010000D01*
X103330000Y-58440000D01*
X102790000Y-57840000D01*
X102410000Y-57440000D01*
X102350000Y-57360000D01*
X101500000Y-57370000D01*
X101140000Y-57390000D01*
X100970000Y-57410000D01*
X100840000Y-57490000D01*
X100800000Y-57650000D01*
X100800000Y-57850000D01*
X100940000Y-57900000D01*
X101160000Y-57870000D01*
X101340000Y-57890000D01*
X101300000Y-57960000D01*
X100900000Y-58090000D01*
X100890000Y-58140000D01*
X101080000Y-58500000D01*
X101400000Y-58940000D01*
X101720000Y-59410000D01*
X102340000Y-60260000D01*
X102590000Y-60680000D01*
X102830000Y-61120000D01*
X102990000Y-61300000D01*
X103150000Y-61420000D01*
X103390000Y-61590000D01*
X103750000Y-61750000D01*
X104030000Y-61850000D01*
X104080000Y-61950000D01*
X104220000Y-62050000D01*
X104470000Y-62110000D01*
X104470000Y-62470000D01*
X104640000Y-62590000D01*
X104670000Y-62760000D01*
X104680000Y-63020000D01*
X104760000Y-63140000D01*
X104960000Y-63430000D01*
X104980000Y-63540000D01*
X104720000Y-63240000D01*
X104530000Y-62940000D01*
X104390000Y-62650000D01*
X104210000Y-62330000D01*
X103960000Y-62060000D01*
X103680000Y-61930000D01*
X103220000Y-61780000D01*
X103110000Y-61680000D01*
X102990000Y-61620000D01*
X102850000Y-61590000D01*
X102780000Y-61650000D01*
X102790000Y-61860000D01*
X102900000Y-62070000D01*
X103080000Y-62490000D01*
X103310000Y-63060000D01*
X103790000Y-64050000D01*
X104310000Y-65210000D01*
X104530000Y-66030000D01*
X104700000Y-66520000D01*
X104660000Y-66630000D01*
X104520000Y-66350000D01*
X104280000Y-65830000D01*
X103770000Y-64650000D01*
X103500000Y-64070000D01*
X103240000Y-63540000D01*
X103020000Y-63100000D01*
X102700000Y-62550000D01*
X102620000Y-62100000D01*
X102510000Y-61640000D01*
X102320000Y-61030000D01*
X102100000Y-60510000D01*
X101790000Y-60020000D01*
X101470000Y-59440000D01*
X101100000Y-58890000D01*
X100790000Y-58370000D01*
X100630000Y-57980000D01*
X100390000Y-57360000D01*
X100270000Y-56750000D01*
X100170000Y-56300000D01*
X99890000Y-55900000D01*
X99820000Y-55860000D01*
X99330000Y-55810000D01*
X99330000Y-55720000D01*
X99380000Y-55640000D01*
X99350000Y-55500000D01*
X99320000Y-55340000D01*
X98740000Y-54910000D01*
X98380000Y-54740000D01*
X98110000Y-54580000D01*
X97920000Y-54410000D01*
X97790000Y-54260000D01*
X97800000Y-53550000D01*
X97750000Y-52450000D01*
X97730000Y-52120000D01*
X97170000Y-51770000D01*
X96950000Y-51640000D01*
X96850000Y-51530000D01*
X96890000Y-51430000D01*
X96990000Y-51380000D01*
X97150000Y-51410000D01*
G36*
X97150000Y-51410000D02*
G01*
X97340000Y-51540000D01*
X97790000Y-51840000D01*
X97970000Y-51970000D01*
X97970000Y-52590000D01*
X97980000Y-54050000D01*
X98210000Y-54230000D01*
X98520000Y-54440000D01*
X98800000Y-54650000D01*
X99090000Y-54850000D01*
X99360000Y-55090000D01*
X99700000Y-55380000D01*
X99910000Y-55620000D01*
X100020000Y-55760000D01*
X100200000Y-55830000D01*
X100310000Y-55920000D01*
X100390000Y-56060000D01*
X100490000Y-56260000D01*
X100570000Y-56400000D01*
X100680000Y-56780000D01*
X100680000Y-57090000D01*
X100700000Y-57230000D01*
X100830000Y-57230000D01*
X101450000Y-57220000D01*
X101980000Y-57220000D01*
X102400000Y-57260000D01*
X102540000Y-57280000D01*
X102600000Y-57320000D01*
X102650000Y-57400000D01*
X102830000Y-57630000D01*
X103370000Y-58260000D01*
X104100000Y-59030000D01*
X104380000Y-59350000D01*
X104700000Y-59720000D01*
X104970000Y-59980000D01*
X104980000Y-60010000D01*
X104850000Y-59900000D01*
X104530000Y-59620000D01*
X103900000Y-59010000D01*
X103330000Y-58440000D01*
X102790000Y-57840000D01*
X102410000Y-57440000D01*
X102350000Y-57360000D01*
X101500000Y-57370000D01*
X101140000Y-57390000D01*
X100970000Y-57410000D01*
X100840000Y-57490000D01*
X100800000Y-57650000D01*
X100800000Y-57850000D01*
X100940000Y-57900000D01*
X101160000Y-57870000D01*
X101340000Y-57890000D01*
X101300000Y-57960000D01*
X100900000Y-58090000D01*
X100890000Y-58140000D01*
X101080000Y-58500000D01*
X101400000Y-58940000D01*
X101720000Y-59410000D01*
X102340000Y-60260000D01*
X102590000Y-60680000D01*
X102830000Y-61120000D01*
X102990000Y-61300000D01*
X103150000Y-61420000D01*
X103390000Y-61590000D01*
X103750000Y-61750000D01*
X104030000Y-61850000D01*
X104080000Y-61950000D01*
X104220000Y-62050000D01*
X104470000Y-62110000D01*
X104470000Y-62470000D01*
X104640000Y-62590000D01*
X104670000Y-62760000D01*
X104680000Y-63020000D01*
X104760000Y-63140000D01*
X104960000Y-63430000D01*
X104980000Y-63540000D01*
X104720000Y-63240000D01*
X104530000Y-62940000D01*
X104390000Y-62650000D01*
X104210000Y-62330000D01*
X103960000Y-62060000D01*
X103680000Y-61930000D01*
X103220000Y-61780000D01*
X103110000Y-61680000D01*
X102990000Y-61620000D01*
X102850000Y-61590000D01*
X102780000Y-61650000D01*
X102790000Y-61860000D01*
X102900000Y-62070000D01*
X103080000Y-62490000D01*
X103310000Y-63060000D01*
X103790000Y-64050000D01*
X104310000Y-65210000D01*
X104530000Y-66030000D01*
X104700000Y-66520000D01*
X104660000Y-66630000D01*
X104520000Y-66350000D01*
X104280000Y-65830000D01*
X103770000Y-64650000D01*
X103500000Y-64070000D01*
X103240000Y-63540000D01*
X103020000Y-63100000D01*
X102700000Y-62550000D01*
X102620000Y-62100000D01*
X102510000Y-61640000D01*
X102320000Y-61030000D01*
X102100000Y-60510000D01*
X101790000Y-60020000D01*
X101470000Y-59440000D01*
X101100000Y-58890000D01*
X100790000Y-58370000D01*
X100630000Y-57980000D01*
X100390000Y-57360000D01*
X100270000Y-56750000D01*
X100170000Y-56300000D01*
X99890000Y-55900000D01*
X99820000Y-55860000D01*
X99330000Y-55810000D01*
X99330000Y-55720000D01*
X99380000Y-55640000D01*
X99350000Y-55500000D01*
X99320000Y-55340000D01*
X98740000Y-54910000D01*
X98380000Y-54740000D01*
X98110000Y-54580000D01*
X97920000Y-54410000D01*
X97790000Y-54260000D01*
X97800000Y-53550000D01*
X97750000Y-52450000D01*
X97730000Y-52120000D01*
X97170000Y-51770000D01*
X96950000Y-51640000D01*
X96850000Y-51530000D01*
X96890000Y-51430000D01*
X96990000Y-51380000D01*
X97150000Y-51410000D01*
G37*
X95470000Y-52310000D02*
X95660000Y-52480000D01*
X95950000Y-52570000D01*
X96430000Y-52450000D01*
X96520000Y-52430000D01*
X96660000Y-52440000D01*
X96700000Y-52510000D01*
X96710000Y-52690000D01*
X96610000Y-52810000D01*
X96380000Y-52870000D01*
X96150000Y-52860000D01*
X95880000Y-52920000D01*
X95790000Y-53190000D01*
X95900000Y-53350000D01*
X96020000Y-53400000D01*
X96230000Y-53450000D01*
X96440000Y-53440000D01*
X96630000Y-53510000D01*
X96680000Y-53620000D01*
X96740000Y-53760000D01*
X96780000Y-54090000D01*
X96800000Y-54350000D01*
X96730000Y-54540000D01*
X96650000Y-54550000D01*
X96490000Y-54540000D01*
X96450000Y-54490000D01*
X96380000Y-54380000D01*
X96290000Y-54190000D01*
X96130000Y-53910000D01*
X96060000Y-53770000D01*
X95910000Y-53700000D01*
X95720000Y-53650000D01*
X95660000Y-53610000D01*
X95600000Y-53500000D01*
X95420000Y-53500000D01*
X95360000Y-53400000D01*
X95360000Y-53070000D01*
X95380000Y-52870000D01*
X95320000Y-52800000D01*
X95250000Y-52800000D01*
X95160000Y-52870000D01*
X95050000Y-53110000D01*
X94990000Y-53150000D01*
X94930000Y-53140000D01*
X94840000Y-52980000D01*
X94790000Y-52910000D01*
X94730000Y-52910000D01*
X94520000Y-52950000D01*
X94250000Y-53270000D01*
X94080000Y-53570000D01*
X94100000Y-53750000D01*
X94340000Y-54190000D01*
X94720000Y-54730000D01*
X94900000Y-54960000D01*
X94960000Y-55120000D01*
X94870000Y-55320000D01*
X94440000Y-55850000D01*
X94210000Y-56190000D01*
X94170000Y-56320000D01*
X94220000Y-56500000D01*
X94650000Y-57270000D01*
X94800000Y-57510000D01*
X95150000Y-58070000D01*
X95380000Y-58470000D01*
X95330000Y-58860000D01*
X95280000Y-59300000D01*
X95190000Y-59880000D01*
X95100000Y-59770000D01*
X94950000Y-59860000D01*
X95020000Y-59760000D01*
X95210000Y-59250000D01*
X95190000Y-58710000D01*
X95000000Y-58250000D01*
X94830000Y-58010000D01*
X94670000Y-57650000D01*
X94510000Y-57400000D01*
X94130000Y-56960000D01*
X93830000Y-56650000D01*
X93710000Y-56520000D01*
X94400000Y-55590000D01*
X94550000Y-55130000D01*
X94460000Y-54760000D01*
X94170000Y-54400000D01*
X93900000Y-54150000D01*
X93770000Y-54080000D01*
X93650000Y-54060000D01*
X93400000Y-54280000D01*
X93130000Y-54360000D01*
X93020000Y-54320000D01*
X93030000Y-53950000D01*
X92950000Y-53810000D01*
X92870000Y-53770000D01*
X92590000Y-53810000D01*
X92310000Y-53900000D01*
X92130000Y-53990000D01*
X91660000Y-54250000D01*
X91880000Y-54040000D01*
X92000000Y-53850000D01*
X91880000Y-53750000D01*
X91570000Y-53870000D01*
X91730000Y-53590000D01*
X91610000Y-53500000D01*
X91600000Y-53330000D01*
X91610000Y-53200000D01*
X91740000Y-53330000D01*
X91900000Y-53350000D01*
X91960000Y-53330000D01*
X91960000Y-53280000D01*
X92000000Y-53000000D01*
X92060000Y-53120000D01*
X92280000Y-53400000D01*
X92670000Y-53480000D01*
X92910000Y-53480000D01*
X93330000Y-53330000D01*
X93640000Y-53120000D01*
X93760000Y-52980000D01*
X93880000Y-52780000D01*
X93960000Y-52600000D01*
X94100000Y-52520000D01*
X94320000Y-52550000D01*
X94620000Y-52580000D01*
X94920000Y-52530000D01*
X94950000Y-52590000D01*
X95070000Y-52610000D01*
X95120000Y-52620000D01*
X95220000Y-52730000D01*
X95280000Y-52730000D01*
X95370000Y-52660000D01*
X95380000Y-52590000D01*
X95290000Y-52490000D01*
X95230000Y-52480000D01*
X95140000Y-52570000D01*
X95050000Y-52580000D01*
X94950000Y-52540000D01*
X94960000Y-52490000D01*
X95080000Y-52390000D01*
X95160000Y-52270000D01*
X95260000Y-52100000D01*
X95470000Y-52310000D01*
G36*
X95470000Y-52310000D02*
G01*
X95660000Y-52480000D01*
X95950000Y-52570000D01*
X96430000Y-52450000D01*
X96520000Y-52430000D01*
X96660000Y-52440000D01*
X96700000Y-52510000D01*
X96710000Y-52690000D01*
X96610000Y-52810000D01*
X96380000Y-52870000D01*
X96150000Y-52860000D01*
X95880000Y-52920000D01*
X95790000Y-53190000D01*
X95900000Y-53350000D01*
X96020000Y-53400000D01*
X96230000Y-53450000D01*
X96440000Y-53440000D01*
X96630000Y-53510000D01*
X96680000Y-53620000D01*
X96740000Y-53760000D01*
X96780000Y-54090000D01*
X96800000Y-54350000D01*
X96730000Y-54540000D01*
X96650000Y-54550000D01*
X96490000Y-54540000D01*
X96450000Y-54490000D01*
X96380000Y-54380000D01*
X96290000Y-54190000D01*
X96130000Y-53910000D01*
X96060000Y-53770000D01*
X95910000Y-53700000D01*
X95720000Y-53650000D01*
X95660000Y-53610000D01*
X95600000Y-53500000D01*
X95420000Y-53500000D01*
X95360000Y-53400000D01*
X95360000Y-53070000D01*
X95380000Y-52870000D01*
X95320000Y-52800000D01*
X95250000Y-52800000D01*
X95160000Y-52870000D01*
X95050000Y-53110000D01*
X94990000Y-53150000D01*
X94930000Y-53140000D01*
X94840000Y-52980000D01*
X94790000Y-52910000D01*
X94730000Y-52910000D01*
X94520000Y-52950000D01*
X94250000Y-53270000D01*
X94080000Y-53570000D01*
X94100000Y-53750000D01*
X94340000Y-54190000D01*
X94720000Y-54730000D01*
X94900000Y-54960000D01*
X94960000Y-55120000D01*
X94870000Y-55320000D01*
X94440000Y-55850000D01*
X94210000Y-56190000D01*
X94170000Y-56320000D01*
X94220000Y-56500000D01*
X94650000Y-57270000D01*
X94800000Y-57510000D01*
X95150000Y-58070000D01*
X95380000Y-58470000D01*
X95330000Y-58860000D01*
X95280000Y-59300000D01*
X95190000Y-59880000D01*
X95100000Y-59770000D01*
X94950000Y-59860000D01*
X95020000Y-59760000D01*
X95210000Y-59250000D01*
X95190000Y-58710000D01*
X95000000Y-58250000D01*
X94830000Y-58010000D01*
X94670000Y-57650000D01*
X94510000Y-57400000D01*
X94130000Y-56960000D01*
X93830000Y-56650000D01*
X93710000Y-56520000D01*
X94400000Y-55590000D01*
X94550000Y-55130000D01*
X94460000Y-54760000D01*
X94170000Y-54400000D01*
X93900000Y-54150000D01*
X93770000Y-54080000D01*
X93650000Y-54060000D01*
X93400000Y-54280000D01*
X93130000Y-54360000D01*
X93020000Y-54320000D01*
X93030000Y-53950000D01*
X92950000Y-53810000D01*
X92870000Y-53770000D01*
X92590000Y-53810000D01*
X92310000Y-53900000D01*
X92130000Y-53990000D01*
X91660000Y-54250000D01*
X91880000Y-54040000D01*
X92000000Y-53850000D01*
X91880000Y-53750000D01*
X91570000Y-53870000D01*
X91730000Y-53590000D01*
X91610000Y-53500000D01*
X91600000Y-53330000D01*
X91610000Y-53200000D01*
X91740000Y-53330000D01*
X91900000Y-53350000D01*
X91960000Y-53330000D01*
X91960000Y-53280000D01*
X92000000Y-53000000D01*
X92060000Y-53120000D01*
X92280000Y-53400000D01*
X92670000Y-53480000D01*
X92910000Y-53480000D01*
X93330000Y-53330000D01*
X93640000Y-53120000D01*
X93760000Y-52980000D01*
X93880000Y-52780000D01*
X93960000Y-52600000D01*
X94100000Y-52520000D01*
X94320000Y-52550000D01*
X94620000Y-52580000D01*
X94920000Y-52530000D01*
X94950000Y-52590000D01*
X95070000Y-52610000D01*
X95120000Y-52620000D01*
X95220000Y-52730000D01*
X95280000Y-52730000D01*
X95370000Y-52660000D01*
X95380000Y-52590000D01*
X95290000Y-52490000D01*
X95230000Y-52480000D01*
X95140000Y-52570000D01*
X95050000Y-52580000D01*
X94950000Y-52540000D01*
X94960000Y-52490000D01*
X95080000Y-52390000D01*
X95160000Y-52270000D01*
X95260000Y-52100000D01*
X95470000Y-52310000D01*
G37*
X85620000Y-53750000D02*
X85640000Y-53810000D01*
X85670000Y-54190000D01*
X85730000Y-54330000D01*
X85900000Y-54380000D01*
X85960000Y-54380000D01*
X86110000Y-54360000D01*
X86210000Y-54330000D01*
X86300000Y-54310000D01*
X86220000Y-54370000D01*
X86040000Y-54520000D01*
X85840000Y-54670000D01*
X85610000Y-54920000D01*
X85420000Y-55100000D01*
X85000000Y-55310000D01*
X84720000Y-55470000D01*
X84390000Y-55840000D01*
X84150000Y-56090000D01*
X83890000Y-56240000D01*
X83330000Y-56370000D01*
X83120000Y-56410000D01*
X82880000Y-56560000D01*
X82520000Y-56880000D01*
X82140000Y-57320000D01*
X81820000Y-57770000D01*
X81690000Y-58010000D01*
X81510000Y-58320000D01*
X81410000Y-58590000D01*
X81330000Y-58870000D01*
X81250000Y-59070000D01*
X81080000Y-59470000D01*
X80640000Y-60020000D01*
X80470000Y-60170000D01*
X80040000Y-60570000D01*
X79640000Y-60920000D01*
X79370000Y-61170000D01*
X79280000Y-61370000D01*
X79220000Y-61680000D01*
X79120000Y-62260000D01*
X79050000Y-62540000D01*
X78860000Y-63010000D01*
X78670000Y-63460000D01*
X78560000Y-63640000D01*
X78490000Y-63640000D01*
X78620000Y-63320000D01*
X78740000Y-63020000D01*
X78890000Y-62610000D01*
X79030000Y-62230000D01*
X79060000Y-61910000D01*
X79080000Y-61580000D01*
X79090000Y-61260000D01*
X79090000Y-61200000D01*
X78890000Y-61130000D01*
X78580000Y-61230000D01*
X78310000Y-61440000D01*
X78160000Y-61600000D01*
X77910000Y-61910000D01*
X77680000Y-62220000D01*
X77430000Y-62480000D01*
X77240000Y-62620000D01*
X77280000Y-62540000D01*
X77440000Y-62410000D01*
X77520000Y-62310000D01*
X77630000Y-62170000D01*
X77820000Y-61930000D01*
X78020000Y-61650000D01*
X78240000Y-61420000D01*
X78470000Y-61220000D01*
X78650000Y-61060000D01*
X79210000Y-60920000D01*
X79330000Y-60870000D01*
X79740000Y-60570000D01*
X79840000Y-60510000D01*
X80260000Y-60100000D01*
X80540000Y-59830000D01*
X80870000Y-59460000D01*
X81050000Y-59220000D01*
X81120000Y-59130000D01*
X81140000Y-58910000D01*
X81060000Y-58670000D01*
X80820000Y-58640000D01*
X80580000Y-58710000D01*
X80290000Y-58780000D01*
X79950000Y-58860000D01*
X79880000Y-58880000D01*
X79780000Y-58980000D01*
X79580000Y-59160000D01*
X79430000Y-59240000D01*
X79140000Y-59360000D01*
X78910000Y-59410000D01*
X78780000Y-59510000D01*
X78690000Y-59570000D01*
X78550000Y-59670000D01*
X78700000Y-59550000D01*
X78730000Y-59520000D01*
X78820000Y-59450000D01*
X78860000Y-59380000D01*
X78900000Y-59300000D01*
X78910000Y-59230000D01*
X78920000Y-59190000D01*
X78930000Y-59290000D01*
X78930000Y-59360000D01*
X79060000Y-59350000D01*
X79190000Y-59320000D01*
X79380000Y-59240000D01*
X79510000Y-59190000D01*
X79720000Y-59000000D01*
X79890000Y-58860000D01*
X80070000Y-58810000D01*
X80140000Y-58780000D01*
X80260000Y-58740000D01*
X80260000Y-58660000D01*
X80060000Y-58580000D01*
X79850000Y-58550000D01*
X79772000Y-58544000D01*
X79970000Y-58550000D01*
X80110000Y-58570000D01*
X80320000Y-58610000D01*
X80480000Y-58640000D01*
X81080000Y-58610000D01*
X81170000Y-58600000D01*
X81240000Y-58500000D01*
X81470000Y-58120000D01*
X81600000Y-57920000D01*
X81790000Y-57610000D01*
X82050000Y-57180000D01*
X82210000Y-56920000D01*
X82420000Y-56650000D01*
X82640000Y-56480000D01*
X82900000Y-56370000D01*
X83250000Y-56280000D01*
X83820000Y-56090000D01*
X84050000Y-55920000D01*
X84370000Y-55710000D01*
X84580000Y-55500000D01*
X84740000Y-55370000D01*
X84870000Y-55250000D01*
X85130000Y-55060000D01*
X85220000Y-54950000D01*
X85390000Y-54760000D01*
X85440000Y-54530000D01*
X85500000Y-54190000D01*
X85540000Y-53900000D01*
X85610000Y-53720000D01*
X85620000Y-53750000D01*
G36*
X85620000Y-53750000D02*
G01*
X85640000Y-53810000D01*
X85670000Y-54190000D01*
X85730000Y-54330000D01*
X85900000Y-54380000D01*
X85960000Y-54380000D01*
X86110000Y-54360000D01*
X86210000Y-54330000D01*
X86300000Y-54310000D01*
X86220000Y-54370000D01*
X86040000Y-54520000D01*
X85840000Y-54670000D01*
X85610000Y-54920000D01*
X85420000Y-55100000D01*
X85000000Y-55310000D01*
X84720000Y-55470000D01*
X84390000Y-55840000D01*
X84150000Y-56090000D01*
X83890000Y-56240000D01*
X83330000Y-56370000D01*
X83120000Y-56410000D01*
X82880000Y-56560000D01*
X82520000Y-56880000D01*
X82140000Y-57320000D01*
X81820000Y-57770000D01*
X81690000Y-58010000D01*
X81510000Y-58320000D01*
X81410000Y-58590000D01*
X81330000Y-58870000D01*
X81250000Y-59070000D01*
X81080000Y-59470000D01*
X80640000Y-60020000D01*
X80470000Y-60170000D01*
X80040000Y-60570000D01*
X79640000Y-60920000D01*
X79370000Y-61170000D01*
X79280000Y-61370000D01*
X79220000Y-61680000D01*
X79120000Y-62260000D01*
X79050000Y-62540000D01*
X78860000Y-63010000D01*
X78670000Y-63460000D01*
X78560000Y-63640000D01*
X78490000Y-63640000D01*
X78620000Y-63320000D01*
X78740000Y-63020000D01*
X78890000Y-62610000D01*
X79030000Y-62230000D01*
X79060000Y-61910000D01*
X79080000Y-61580000D01*
X79090000Y-61260000D01*
X79090000Y-61200000D01*
X78890000Y-61130000D01*
X78580000Y-61230000D01*
X78310000Y-61440000D01*
X78160000Y-61600000D01*
X77910000Y-61910000D01*
X77680000Y-62220000D01*
X77430000Y-62480000D01*
X77240000Y-62620000D01*
X77280000Y-62540000D01*
X77440000Y-62410000D01*
X77520000Y-62310000D01*
X77630000Y-62170000D01*
X77820000Y-61930000D01*
X78020000Y-61650000D01*
X78240000Y-61420000D01*
X78470000Y-61220000D01*
X78650000Y-61060000D01*
X79210000Y-60920000D01*
X79330000Y-60870000D01*
X79740000Y-60570000D01*
X79840000Y-60510000D01*
X80260000Y-60100000D01*
X80540000Y-59830000D01*
X80870000Y-59460000D01*
X81050000Y-59220000D01*
X81120000Y-59130000D01*
X81140000Y-58910000D01*
X81060000Y-58670000D01*
X80820000Y-58640000D01*
X80580000Y-58710000D01*
X80290000Y-58780000D01*
X79950000Y-58860000D01*
X79880000Y-58880000D01*
X79780000Y-58980000D01*
X79580000Y-59160000D01*
X79430000Y-59240000D01*
X79140000Y-59360000D01*
X78910000Y-59410000D01*
X78780000Y-59510000D01*
X78690000Y-59570000D01*
X78550000Y-59670000D01*
X78700000Y-59550000D01*
X78730000Y-59520000D01*
X78820000Y-59450000D01*
X78860000Y-59380000D01*
X78900000Y-59300000D01*
X78910000Y-59230000D01*
X78920000Y-59190000D01*
X78930000Y-59290000D01*
X78930000Y-59360000D01*
X79060000Y-59350000D01*
X79190000Y-59320000D01*
X79380000Y-59240000D01*
X79510000Y-59190000D01*
X79720000Y-59000000D01*
X79890000Y-58860000D01*
X80070000Y-58810000D01*
X80140000Y-58780000D01*
X80260000Y-58740000D01*
X80260000Y-58660000D01*
X80060000Y-58580000D01*
X79850000Y-58550000D01*
X79772000Y-58544000D01*
X79970000Y-58550000D01*
X80110000Y-58570000D01*
X80320000Y-58610000D01*
X80480000Y-58640000D01*
X81080000Y-58610000D01*
X81170000Y-58600000D01*
X81240000Y-58500000D01*
X81470000Y-58120000D01*
X81600000Y-57920000D01*
X81790000Y-57610000D01*
X82050000Y-57180000D01*
X82210000Y-56920000D01*
X82420000Y-56650000D01*
X82640000Y-56480000D01*
X82900000Y-56370000D01*
X83250000Y-56280000D01*
X83820000Y-56090000D01*
X84050000Y-55920000D01*
X84370000Y-55710000D01*
X84580000Y-55500000D01*
X84740000Y-55370000D01*
X84870000Y-55250000D01*
X85130000Y-55060000D01*
X85220000Y-54950000D01*
X85390000Y-54760000D01*
X85440000Y-54530000D01*
X85500000Y-54190000D01*
X85540000Y-53900000D01*
X85610000Y-53720000D01*
X85620000Y-53750000D01*
G37*
X79720000Y-58540000D02*
X79772000Y-58544000D01*
X79640000Y-58540000D01*
X79520000Y-58550000D01*
X79600000Y-58540000D01*
X79720000Y-58540000D01*
G36*
X79720000Y-58540000D02*
G01*
X79772000Y-58544000D01*
X79640000Y-58540000D01*
X79520000Y-58550000D01*
X79600000Y-58540000D01*
X79720000Y-58540000D01*
G37*
X89640000Y-39300000D02*
X89880000Y-39370000D01*
X90230000Y-39570000D01*
X90560000Y-39780000D01*
X90710000Y-39950000D01*
X90960000Y-39980000D01*
X91270000Y-39990000D01*
X91620000Y-40110000D01*
X91900000Y-40380000D01*
X91970000Y-40700000D01*
X92010000Y-41000000D01*
X91980000Y-41260000D01*
X91890000Y-41250000D01*
X91780000Y-41070000D01*
X91580000Y-40820000D01*
X91320000Y-40590000D01*
X91150000Y-40530000D01*
X90990000Y-40530000D01*
X90860000Y-40580000D01*
X90750000Y-40910000D01*
X90730000Y-40850000D01*
X90750000Y-40650000D01*
X90570000Y-40400000D01*
X90340000Y-40250000D01*
X89800000Y-40060000D01*
X89260000Y-39980000D01*
X88840000Y-39970000D01*
X88580000Y-40010000D01*
X88420000Y-40080000D01*
X88430000Y-40200000D01*
X88610000Y-40300000D01*
X88770000Y-40380000D01*
X89280000Y-40470000D01*
X89830000Y-40570000D01*
X90310000Y-40740000D01*
X90660000Y-40870000D01*
X90770000Y-40990000D01*
X90970000Y-41310000D01*
X91000000Y-41700000D01*
X91130000Y-41790000D01*
X91210000Y-41910000D01*
X91240000Y-42040000D01*
X91200000Y-42150000D01*
X91060000Y-42290000D01*
X90780000Y-42420000D01*
X90590000Y-42440000D01*
X90370000Y-42420000D01*
X90050000Y-42510000D01*
X89870000Y-42830000D01*
X89790000Y-43110000D01*
X89640000Y-43490000D01*
X89460000Y-43890000D01*
X89210000Y-44200000D01*
X88850000Y-44460000D01*
X88640000Y-44560000D01*
X88570000Y-44530000D01*
X88610000Y-44400000D01*
X88510000Y-44240000D01*
X88420000Y-44150000D01*
X88170000Y-44050000D01*
X87800000Y-44030000D01*
X87470000Y-44060000D01*
X87240000Y-44110000D01*
X87120000Y-43970000D01*
X86910000Y-43940000D01*
X86730000Y-43950000D01*
X86550000Y-43920000D01*
X86500000Y-43760000D01*
X86520000Y-43610000D01*
X86680000Y-43520000D01*
X86720000Y-43400000D01*
X86680000Y-43200000D01*
X86570000Y-42710000D01*
X86560000Y-42300000D01*
X86670000Y-42100000D01*
X86870000Y-41870000D01*
X86950000Y-41830000D01*
X87260000Y-41690000D01*
X87610000Y-41580000D01*
X87620000Y-41740000D01*
X87510000Y-41850000D01*
X87530000Y-41950000D01*
X87610000Y-42030000D01*
X87710000Y-42010000D01*
X87870000Y-42160000D01*
X87930000Y-42240000D01*
X87910000Y-42370000D01*
X88050000Y-42420000D01*
X88170000Y-42340000D01*
X88230000Y-42390000D01*
X88060000Y-42590000D01*
X88050000Y-42700000D01*
X88100000Y-42810000D01*
X88200000Y-42830000D01*
X88350000Y-42740000D01*
X88420000Y-42580000D01*
X88380000Y-42460000D01*
X88180000Y-42250000D01*
X88060000Y-42120000D01*
X87950000Y-42170000D01*
X87760000Y-41980000D01*
X87780000Y-41850000D01*
X87690000Y-41750000D01*
X87650000Y-41570000D01*
X87840000Y-41550000D01*
X88030000Y-41530000D01*
X88360000Y-41550000D01*
X88900000Y-41770000D01*
X89110000Y-41830000D01*
X89360000Y-41710000D01*
X89540000Y-41840000D01*
X89750000Y-41940000D01*
X89760000Y-42100000D01*
X89830000Y-42240000D01*
X89990000Y-42300000D01*
X90100000Y-42160000D01*
X90110000Y-42030000D01*
X89900000Y-41880000D01*
X89690000Y-41840000D01*
X89530000Y-41760000D01*
X89400000Y-41690000D01*
X89550000Y-41540000D01*
X89550000Y-41370000D01*
X89080000Y-41100000D01*
X88700000Y-41010000D01*
X88160000Y-40920000D01*
X87600000Y-40950000D01*
X87240000Y-40970000D01*
X86940000Y-41050000D01*
X86600000Y-41220000D01*
X86400000Y-41330000D01*
X86250000Y-41430000D01*
X86200000Y-41190000D01*
X86310000Y-41210000D01*
X86400000Y-41140000D01*
X86430000Y-41060000D01*
X86390000Y-40980000D01*
X86300000Y-40900000D01*
X86160000Y-40970000D01*
X86150000Y-41200000D01*
X85910000Y-41200000D01*
X85810000Y-41000000D01*
X85840000Y-40760000D01*
X85950000Y-40560000D01*
X86390000Y-40370000D01*
X86700000Y-40250000D01*
X87260000Y-40040000D01*
X87770000Y-39850000D01*
X88240000Y-39720000D01*
X88690000Y-39450000D01*
X89080000Y-39340000D01*
X89370000Y-39280000D01*
X89640000Y-39300000D01*
G36*
X89640000Y-39300000D02*
G01*
X89880000Y-39370000D01*
X90230000Y-39570000D01*
X90560000Y-39780000D01*
X90710000Y-39950000D01*
X90960000Y-39980000D01*
X91270000Y-39990000D01*
X91620000Y-40110000D01*
X91900000Y-40380000D01*
X91970000Y-40700000D01*
X92010000Y-41000000D01*
X91980000Y-41260000D01*
X91890000Y-41250000D01*
X91780000Y-41070000D01*
X91580000Y-40820000D01*
X91320000Y-40590000D01*
X91150000Y-40530000D01*
X90990000Y-40530000D01*
X90860000Y-40580000D01*
X90750000Y-40910000D01*
X90730000Y-40850000D01*
X90750000Y-40650000D01*
X90570000Y-40400000D01*
X90340000Y-40250000D01*
X89800000Y-40060000D01*
X89260000Y-39980000D01*
X88840000Y-39970000D01*
X88580000Y-40010000D01*
X88420000Y-40080000D01*
X88430000Y-40200000D01*
X88610000Y-40300000D01*
X88770000Y-40380000D01*
X89280000Y-40470000D01*
X89830000Y-40570000D01*
X90310000Y-40740000D01*
X90660000Y-40870000D01*
X90770000Y-40990000D01*
X90970000Y-41310000D01*
X91000000Y-41700000D01*
X91130000Y-41790000D01*
X91210000Y-41910000D01*
X91240000Y-42040000D01*
X91200000Y-42150000D01*
X91060000Y-42290000D01*
X90780000Y-42420000D01*
X90590000Y-42440000D01*
X90370000Y-42420000D01*
X90050000Y-42510000D01*
X89870000Y-42830000D01*
X89790000Y-43110000D01*
X89640000Y-43490000D01*
X89460000Y-43890000D01*
X89210000Y-44200000D01*
X88850000Y-44460000D01*
X88640000Y-44560000D01*
X88570000Y-44530000D01*
X88610000Y-44400000D01*
X88510000Y-44240000D01*
X88420000Y-44150000D01*
X88170000Y-44050000D01*
X87800000Y-44030000D01*
X87470000Y-44060000D01*
X87240000Y-44110000D01*
X87120000Y-43970000D01*
X86910000Y-43940000D01*
X86730000Y-43950000D01*
X86550000Y-43920000D01*
X86500000Y-43760000D01*
X86520000Y-43610000D01*
X86680000Y-43520000D01*
X86720000Y-43400000D01*
X86680000Y-43200000D01*
X86570000Y-42710000D01*
X86560000Y-42300000D01*
X86670000Y-42100000D01*
X86870000Y-41870000D01*
X86950000Y-41830000D01*
X87260000Y-41690000D01*
X87610000Y-41580000D01*
X87620000Y-41740000D01*
X87510000Y-41850000D01*
X87530000Y-41950000D01*
X87610000Y-42030000D01*
X87710000Y-42010000D01*
X87870000Y-42160000D01*
X87930000Y-42240000D01*
X87910000Y-42370000D01*
X88050000Y-42420000D01*
X88170000Y-42340000D01*
X88230000Y-42390000D01*
X88060000Y-42590000D01*
X88050000Y-42700000D01*
X88100000Y-42810000D01*
X88200000Y-42830000D01*
X88350000Y-42740000D01*
X88420000Y-42580000D01*
X88380000Y-42460000D01*
X88180000Y-42250000D01*
X88060000Y-42120000D01*
X87950000Y-42170000D01*
X87760000Y-41980000D01*
X87780000Y-41850000D01*
X87690000Y-41750000D01*
X87650000Y-41570000D01*
X87840000Y-41550000D01*
X88030000Y-41530000D01*
X88360000Y-41550000D01*
X88900000Y-41770000D01*
X89110000Y-41830000D01*
X89360000Y-41710000D01*
X89540000Y-41840000D01*
X89750000Y-41940000D01*
X89760000Y-42100000D01*
X89830000Y-42240000D01*
X89990000Y-42300000D01*
X90100000Y-42160000D01*
X90110000Y-42030000D01*
X89900000Y-41880000D01*
X89690000Y-41840000D01*
X89530000Y-41760000D01*
X89400000Y-41690000D01*
X89550000Y-41540000D01*
X89550000Y-41370000D01*
X89080000Y-41100000D01*
X88700000Y-41010000D01*
X88160000Y-40920000D01*
X87600000Y-40950000D01*
X87240000Y-40970000D01*
X86940000Y-41050000D01*
X86600000Y-41220000D01*
X86400000Y-41330000D01*
X86250000Y-41430000D01*
X86200000Y-41190000D01*
X86310000Y-41210000D01*
X86400000Y-41140000D01*
X86430000Y-41060000D01*
X86390000Y-40980000D01*
X86300000Y-40900000D01*
X86160000Y-40970000D01*
X86150000Y-41200000D01*
X85910000Y-41200000D01*
X85810000Y-41000000D01*
X85840000Y-40760000D01*
X85950000Y-40560000D01*
X86390000Y-40370000D01*
X86700000Y-40250000D01*
X87260000Y-40040000D01*
X87770000Y-39850000D01*
X88240000Y-39720000D01*
X88690000Y-39450000D01*
X89080000Y-39340000D01*
X89370000Y-39280000D01*
X89640000Y-39300000D01*
G37*
X92950000Y-70175000D02*
X93350000Y-70650000D01*
X93350000Y-70825000D01*
X93375000Y-71375000D01*
X93275000Y-72075000D01*
X93075000Y-72550000D01*
X92725000Y-73075000D01*
X92350000Y-73500000D01*
X91775000Y-74075000D01*
X91125000Y-74675000D01*
X90975000Y-74800000D01*
X91050000Y-74325000D01*
X91075000Y-74200000D01*
X91250000Y-74000000D01*
X91575000Y-73600000D01*
X92200000Y-72875000D01*
X92450000Y-72550000D01*
X92625000Y-72150000D01*
X92775000Y-71675000D01*
X92800000Y-71175000D01*
X92750000Y-71025000D01*
X92625000Y-70850000D01*
X92400000Y-70750000D01*
X92075000Y-70800000D01*
X91725000Y-70950000D01*
X91450000Y-71400000D01*
X91225000Y-72025000D01*
X90975000Y-72925000D01*
X90700000Y-74025000D01*
X90375000Y-75400000D01*
X90200000Y-76025000D01*
X89950000Y-76975000D01*
X89800000Y-77775000D01*
X89650000Y-78500000D01*
X89475000Y-79175000D01*
X89500000Y-79600000D01*
X89625000Y-79850000D01*
X89750000Y-80000000D01*
X90050000Y-80100000D01*
X90350000Y-80075000D01*
X90700000Y-79900000D01*
X90850000Y-79525000D01*
X90900000Y-78950000D01*
X90825000Y-78525000D01*
X90775000Y-78225000D01*
X90575000Y-77750000D01*
X90425000Y-77425000D01*
X90375000Y-77200000D01*
X90325000Y-76825000D01*
X90425000Y-76550000D01*
X90525000Y-76400000D01*
X90775000Y-76300000D01*
X91100000Y-76300000D01*
X91675000Y-76300000D01*
X92025000Y-76200000D01*
X92500000Y-76050000D01*
X92775000Y-75875000D01*
X93125000Y-75675000D01*
X93725000Y-75325000D01*
X94325000Y-75075000D01*
X94900000Y-75050000D01*
X95300000Y-75225000D01*
X95550000Y-75525000D01*
X95650000Y-75925000D01*
X95575000Y-76325000D01*
X95425000Y-76450000D01*
X95325000Y-76525000D01*
X95050000Y-76375000D01*
X94950000Y-76075000D01*
X95075000Y-75850000D01*
X95000000Y-75700000D01*
X94950000Y-75650000D01*
X94750000Y-75525000D01*
X94450000Y-75550000D01*
X94050000Y-75675000D01*
X93775000Y-75875000D01*
X93625000Y-76100000D01*
X93550000Y-76225000D01*
X93550000Y-76475000D01*
X93725000Y-76800000D01*
X94000000Y-77075000D01*
X94500000Y-77300000D01*
X94925000Y-77400000D01*
X95550000Y-77450000D01*
X95775000Y-77375000D01*
X96375000Y-77150000D01*
X96775000Y-76825000D01*
X97150000Y-76550000D01*
X97450000Y-76175000D01*
X97775000Y-76075000D01*
X98650000Y-76050000D01*
X98600000Y-76125000D01*
X98500000Y-76300000D01*
X98475000Y-76500000D01*
X98275000Y-76525000D01*
X97950000Y-76550000D01*
X97675000Y-76650000D01*
X97500000Y-76850000D01*
X97400000Y-77025000D01*
X97350000Y-77325000D01*
X97350000Y-77425000D01*
X97425000Y-77725000D01*
X97600000Y-77950000D01*
X97875000Y-78200000D01*
X98325000Y-78450000D01*
X98650000Y-78500000D01*
X98875000Y-78450000D01*
X99075000Y-78375000D01*
X99275000Y-78575000D01*
X99400000Y-78650000D01*
X99250000Y-78775000D01*
X99125000Y-78875000D01*
X98550000Y-78925000D01*
X98100000Y-78800000D01*
X97625000Y-78575000D01*
X97375000Y-78325000D01*
X97025000Y-77900000D01*
X96850000Y-77750000D01*
X96650000Y-77700000D01*
X96225000Y-77825000D01*
X95725000Y-77950000D01*
X95350000Y-78050000D01*
X94775000Y-78000000D01*
X93800000Y-77625000D01*
X93400000Y-77300000D01*
X93075000Y-76900000D01*
X92925000Y-76625000D01*
X92750000Y-76500000D01*
X92500000Y-76550000D01*
X92225000Y-76750000D01*
X92050000Y-76800000D01*
X91625000Y-76900000D01*
X91050000Y-76800000D01*
X90900000Y-76850000D01*
X90900000Y-77100000D01*
X90950000Y-77175000D01*
X91175000Y-77525000D01*
X91375000Y-78100000D01*
X91425000Y-78475000D01*
X91450000Y-78850000D01*
X91375000Y-79550000D01*
X91350000Y-79650000D01*
X91125000Y-80150000D01*
X90850000Y-80400000D01*
X90325000Y-80550000D01*
X89850000Y-80600000D01*
X89475000Y-80475000D01*
X89200000Y-80300000D01*
X89000000Y-79900000D01*
X88925000Y-79450000D01*
X88975000Y-78625000D01*
X89200000Y-77350000D01*
X89475000Y-76525000D01*
X89725000Y-75425000D01*
X89925000Y-74525000D01*
X90175000Y-73525000D01*
X90400000Y-72750000D01*
X90825000Y-71500000D01*
X91150000Y-70800000D01*
X91450000Y-70500000D01*
X91625000Y-70375000D01*
X92150000Y-70025000D01*
X92350000Y-70000000D01*
X92675000Y-70000000D01*
X92950000Y-70175000D01*
G36*
X92950000Y-70175000D02*
G01*
X93350000Y-70650000D01*
X93350000Y-70825000D01*
X93375000Y-71375000D01*
X93275000Y-72075000D01*
X93075000Y-72550000D01*
X92725000Y-73075000D01*
X92350000Y-73500000D01*
X91775000Y-74075000D01*
X91125000Y-74675000D01*
X90975000Y-74800000D01*
X91050000Y-74325000D01*
X91075000Y-74200000D01*
X91250000Y-74000000D01*
X91575000Y-73600000D01*
X92200000Y-72875000D01*
X92450000Y-72550000D01*
X92625000Y-72150000D01*
X92775000Y-71675000D01*
X92800000Y-71175000D01*
X92750000Y-71025000D01*
X92625000Y-70850000D01*
X92400000Y-70750000D01*
X92075000Y-70800000D01*
X91725000Y-70950000D01*
X91450000Y-71400000D01*
X91225000Y-72025000D01*
X90975000Y-72925000D01*
X90700000Y-74025000D01*
X90375000Y-75400000D01*
X90200000Y-76025000D01*
X89950000Y-76975000D01*
X89800000Y-77775000D01*
X89650000Y-78500000D01*
X89475000Y-79175000D01*
X89500000Y-79600000D01*
X89625000Y-79850000D01*
X89750000Y-80000000D01*
X90050000Y-80100000D01*
X90350000Y-80075000D01*
X90700000Y-79900000D01*
X90850000Y-79525000D01*
X90900000Y-78950000D01*
X90825000Y-78525000D01*
X90775000Y-78225000D01*
X90575000Y-77750000D01*
X90425000Y-77425000D01*
X90375000Y-77200000D01*
X90325000Y-76825000D01*
X90425000Y-76550000D01*
X90525000Y-76400000D01*
X90775000Y-76300000D01*
X91100000Y-76300000D01*
X91675000Y-76300000D01*
X92025000Y-76200000D01*
X92500000Y-76050000D01*
X92775000Y-75875000D01*
X93125000Y-75675000D01*
X93725000Y-75325000D01*
X94325000Y-75075000D01*
X94900000Y-75050000D01*
X95300000Y-75225000D01*
X95550000Y-75525000D01*
X95650000Y-75925000D01*
X95575000Y-76325000D01*
X95425000Y-76450000D01*
X95325000Y-76525000D01*
X95050000Y-76375000D01*
X94950000Y-76075000D01*
X95075000Y-75850000D01*
X95000000Y-75700000D01*
X94950000Y-75650000D01*
X94750000Y-75525000D01*
X94450000Y-75550000D01*
X94050000Y-75675000D01*
X93775000Y-75875000D01*
X93625000Y-76100000D01*
X93550000Y-76225000D01*
X93550000Y-76475000D01*
X93725000Y-76800000D01*
X94000000Y-77075000D01*
X94500000Y-77300000D01*
X94925000Y-77400000D01*
X95550000Y-77450000D01*
X95775000Y-77375000D01*
X96375000Y-77150000D01*
X96775000Y-76825000D01*
X97150000Y-76550000D01*
X97450000Y-76175000D01*
X97775000Y-76075000D01*
X98650000Y-76050000D01*
X98600000Y-76125000D01*
X98500000Y-76300000D01*
X98475000Y-76500000D01*
X98275000Y-76525000D01*
X97950000Y-76550000D01*
X97675000Y-76650000D01*
X97500000Y-76850000D01*
X97400000Y-77025000D01*
X97350000Y-77325000D01*
X97350000Y-77425000D01*
X97425000Y-77725000D01*
X97600000Y-77950000D01*
X97875000Y-78200000D01*
X98325000Y-78450000D01*
X98650000Y-78500000D01*
X98875000Y-78450000D01*
X99075000Y-78375000D01*
X99275000Y-78575000D01*
X99400000Y-78650000D01*
X99250000Y-78775000D01*
X99125000Y-78875000D01*
X98550000Y-78925000D01*
X98100000Y-78800000D01*
X97625000Y-78575000D01*
X97375000Y-78325000D01*
X97025000Y-77900000D01*
X96850000Y-77750000D01*
X96650000Y-77700000D01*
X96225000Y-77825000D01*
X95725000Y-77950000D01*
X95350000Y-78050000D01*
X94775000Y-78000000D01*
X93800000Y-77625000D01*
X93400000Y-77300000D01*
X93075000Y-76900000D01*
X92925000Y-76625000D01*
X92750000Y-76500000D01*
X92500000Y-76550000D01*
X92225000Y-76750000D01*
X92050000Y-76800000D01*
X91625000Y-76900000D01*
X91050000Y-76800000D01*
X90900000Y-76850000D01*
X90900000Y-77100000D01*
X90950000Y-77175000D01*
X91175000Y-77525000D01*
X91375000Y-78100000D01*
X91425000Y-78475000D01*
X91450000Y-78850000D01*
X91375000Y-79550000D01*
X91350000Y-79650000D01*
X91125000Y-80150000D01*
X90850000Y-80400000D01*
X90325000Y-80550000D01*
X89850000Y-80600000D01*
X89475000Y-80475000D01*
X89200000Y-80300000D01*
X89000000Y-79900000D01*
X88925000Y-79450000D01*
X88975000Y-78625000D01*
X89200000Y-77350000D01*
X89475000Y-76525000D01*
X89725000Y-75425000D01*
X89925000Y-74525000D01*
X90175000Y-73525000D01*
X90400000Y-72750000D01*
X90825000Y-71500000D01*
X91150000Y-70800000D01*
X91450000Y-70500000D01*
X91625000Y-70375000D01*
X92150000Y-70025000D01*
X92350000Y-70000000D01*
X92675000Y-70000000D01*
X92950000Y-70175000D01*
G37*
X84790000Y-41070000D02*
X84960000Y-41140000D01*
X85080000Y-41230000D01*
X85120000Y-41340000D01*
X85100000Y-41470000D01*
X85160000Y-41540000D01*
X85240000Y-41600000D01*
X85200000Y-41700000D01*
X85060000Y-41780000D01*
X84880000Y-41920000D01*
X84650000Y-42030000D01*
X84310000Y-42240000D01*
X84070000Y-42420000D01*
X83930000Y-42570000D01*
X83790000Y-42680000D01*
X83750000Y-42850000D01*
X83800000Y-42970000D01*
X83870000Y-43040000D01*
X83880000Y-43200000D01*
X83880000Y-43420000D01*
X83860000Y-43510000D01*
X83770000Y-43520000D01*
X83670000Y-43490000D01*
X83580000Y-43590000D01*
X83590000Y-43700000D01*
X83630000Y-43770000D01*
X83710000Y-43800000D01*
X83770000Y-43750000D01*
X83830000Y-43670000D01*
X83910000Y-43680000D01*
X84000000Y-43740000D01*
X84100000Y-43830000D01*
X84170000Y-43810000D01*
X84240000Y-43590000D01*
X84270000Y-43470000D01*
X84250000Y-43290000D01*
X84300000Y-43040000D01*
X84410000Y-42850000D01*
X84580000Y-42670000D01*
X84720000Y-42510000D01*
X84870000Y-42390000D01*
X84960000Y-42350000D01*
X85020000Y-42400000D01*
X85020000Y-42530000D01*
X84960000Y-42790000D01*
X84860000Y-42940000D01*
X84730000Y-43190000D01*
X84580000Y-43390000D01*
X84540000Y-43550000D01*
X84510000Y-43820000D01*
X84670000Y-43950000D01*
X84800000Y-43950000D01*
X84910000Y-43790000D01*
X85050000Y-43550000D01*
X85240000Y-43180000D01*
X85370000Y-43050000D01*
X85530000Y-42850000D01*
X85660000Y-42710000D01*
X85790000Y-42620000D01*
X85930000Y-42550000D01*
X86050000Y-42520000D01*
X86130000Y-42380000D01*
X86210000Y-42300000D01*
X86270000Y-42370000D01*
X86230000Y-42510000D01*
X86180000Y-42760000D01*
X86140000Y-42830000D01*
X85970000Y-42780000D01*
X85880000Y-42800000D01*
X85780000Y-42890000D01*
X85740000Y-43080000D01*
X85800000Y-43380000D01*
X85980000Y-43750000D01*
X86180000Y-43810000D01*
X86320000Y-43840000D01*
X86410000Y-43970000D01*
X86370000Y-44100000D01*
X86260000Y-44180000D01*
X86120000Y-44240000D01*
X85950000Y-44340000D01*
X85850000Y-44240000D01*
X85710000Y-44220000D01*
X85570000Y-44290000D01*
X85500000Y-44200000D01*
X85510000Y-44050000D01*
X85410000Y-43930000D01*
X85310000Y-43890000D01*
X85180000Y-44000000D01*
X85240000Y-44130000D01*
X85340000Y-44200000D01*
X85450000Y-44290000D01*
X85470000Y-44420000D01*
X85330000Y-44490000D01*
X85100000Y-44510000D01*
X84810000Y-44490000D01*
X84510000Y-44480000D01*
X84330000Y-44550000D01*
X84180000Y-44640000D01*
X83990000Y-44870000D01*
X83990000Y-45040000D01*
X84080000Y-45130000D01*
X84370000Y-45030000D01*
X84690000Y-44930000D01*
X84870000Y-45040000D01*
X84890000Y-45240000D01*
X84930000Y-45510000D01*
X84910000Y-45640000D01*
X84740000Y-45670000D01*
X84340000Y-45710000D01*
X83960000Y-45820000D01*
X83520000Y-45930000D01*
X83100000Y-45970000D01*
X82860000Y-45920000D01*
X82780000Y-45980000D01*
X82760000Y-46220000D01*
X82700000Y-46370000D01*
X82570000Y-46420000D01*
X82500000Y-46370000D01*
X82510000Y-46230000D01*
X82480000Y-46140000D01*
X82360000Y-46130000D01*
X82290000Y-46050000D01*
X82300000Y-45900000D01*
X82320000Y-45800000D01*
X82260000Y-45610000D01*
X82100000Y-45370000D01*
X81920000Y-45200000D01*
X81690000Y-45040000D01*
X81570000Y-44980000D01*
X81490000Y-44810000D01*
X81540000Y-44690000D01*
X81590000Y-44440000D01*
X81660000Y-44130000D01*
X81700000Y-43900000D01*
X81850000Y-43880000D01*
X81900000Y-44110000D01*
X82040000Y-44390000D01*
X82210000Y-44540000D01*
X82410000Y-44720000D01*
X82660000Y-44770000D01*
X82860000Y-44800000D01*
X83040000Y-44680000D01*
X83200000Y-44600000D01*
X83420000Y-44600000D01*
X83690000Y-44480000D01*
X83900000Y-44370000D01*
X84010000Y-44240000D01*
X84150000Y-44060000D01*
X84120000Y-43950000D01*
X84010000Y-43860000D01*
X83900000Y-43850000D01*
X83750000Y-43940000D01*
X83460000Y-44100000D01*
X83220000Y-44060000D01*
X82890000Y-44190000D01*
X82870000Y-44000000D01*
X82760000Y-43800000D01*
X82710000Y-43660000D01*
X82770000Y-43590000D01*
X82750000Y-43430000D01*
X82770000Y-43290000D01*
X82820000Y-43100000D01*
X82900000Y-42930000D01*
X82870000Y-42820000D01*
X82870000Y-42700000D01*
X82900000Y-42620000D01*
X83000000Y-42540000D01*
X83150000Y-42440000D01*
X83310000Y-42350000D01*
X83490000Y-42160000D01*
X83610000Y-42070000D01*
X83890000Y-41850000D01*
X84110000Y-41690000D01*
X84200000Y-41600000D01*
X84190000Y-41530000D01*
X84130000Y-41490000D01*
X84050000Y-41340000D01*
X84080000Y-41190000D01*
X84210000Y-41020000D01*
X84360000Y-41000000D01*
X84570000Y-41000000D01*
X84790000Y-41070000D01*
G36*
X84790000Y-41070000D02*
G01*
X84960000Y-41140000D01*
X85080000Y-41230000D01*
X85120000Y-41340000D01*
X85100000Y-41470000D01*
X85160000Y-41540000D01*
X85240000Y-41600000D01*
X85200000Y-41700000D01*
X85060000Y-41780000D01*
X84880000Y-41920000D01*
X84650000Y-42030000D01*
X84310000Y-42240000D01*
X84070000Y-42420000D01*
X83930000Y-42570000D01*
X83790000Y-42680000D01*
X83750000Y-42850000D01*
X83800000Y-42970000D01*
X83870000Y-43040000D01*
X83880000Y-43200000D01*
X83880000Y-43420000D01*
X83860000Y-43510000D01*
X83770000Y-43520000D01*
X83670000Y-43490000D01*
X83580000Y-43590000D01*
X83590000Y-43700000D01*
X83630000Y-43770000D01*
X83710000Y-43800000D01*
X83770000Y-43750000D01*
X83830000Y-43670000D01*
X83910000Y-43680000D01*
X84000000Y-43740000D01*
X84100000Y-43830000D01*
X84170000Y-43810000D01*
X84240000Y-43590000D01*
X84270000Y-43470000D01*
X84250000Y-43290000D01*
X84300000Y-43040000D01*
X84410000Y-42850000D01*
X84580000Y-42670000D01*
X84720000Y-42510000D01*
X84870000Y-42390000D01*
X84960000Y-42350000D01*
X85020000Y-42400000D01*
X85020000Y-42530000D01*
X84960000Y-42790000D01*
X84860000Y-42940000D01*
X84730000Y-43190000D01*
X84580000Y-43390000D01*
X84540000Y-43550000D01*
X84510000Y-43820000D01*
X84670000Y-43950000D01*
X84800000Y-43950000D01*
X84910000Y-43790000D01*
X85050000Y-43550000D01*
X85240000Y-43180000D01*
X85370000Y-43050000D01*
X85530000Y-42850000D01*
X85660000Y-42710000D01*
X85790000Y-42620000D01*
X85930000Y-42550000D01*
X86050000Y-42520000D01*
X86130000Y-42380000D01*
X86210000Y-42300000D01*
X86270000Y-42370000D01*
X86230000Y-42510000D01*
X86180000Y-42760000D01*
X86140000Y-42830000D01*
X85970000Y-42780000D01*
X85880000Y-42800000D01*
X85780000Y-42890000D01*
X85740000Y-43080000D01*
X85800000Y-43380000D01*
X85980000Y-43750000D01*
X86180000Y-43810000D01*
X86320000Y-43840000D01*
X86410000Y-43970000D01*
X86370000Y-44100000D01*
X86260000Y-44180000D01*
X86120000Y-44240000D01*
X85950000Y-44340000D01*
X85850000Y-44240000D01*
X85710000Y-44220000D01*
X85570000Y-44290000D01*
X85500000Y-44200000D01*
X85510000Y-44050000D01*
X85410000Y-43930000D01*
X85310000Y-43890000D01*
X85180000Y-44000000D01*
X85240000Y-44130000D01*
X85340000Y-44200000D01*
X85450000Y-44290000D01*
X85470000Y-44420000D01*
X85330000Y-44490000D01*
X85100000Y-44510000D01*
X84810000Y-44490000D01*
X84510000Y-44480000D01*
X84330000Y-44550000D01*
X84180000Y-44640000D01*
X83990000Y-44870000D01*
X83990000Y-45040000D01*
X84080000Y-45130000D01*
X84370000Y-45030000D01*
X84690000Y-44930000D01*
X84870000Y-45040000D01*
X84890000Y-45240000D01*
X84930000Y-45510000D01*
X84910000Y-45640000D01*
X84740000Y-45670000D01*
X84340000Y-45710000D01*
X83960000Y-45820000D01*
X83520000Y-45930000D01*
X83100000Y-45970000D01*
X82860000Y-45920000D01*
X82780000Y-45980000D01*
X82760000Y-46220000D01*
X82700000Y-46370000D01*
X82570000Y-46420000D01*
X82500000Y-46370000D01*
X82510000Y-46230000D01*
X82480000Y-46140000D01*
X82360000Y-46130000D01*
X82290000Y-46050000D01*
X82300000Y-45900000D01*
X82320000Y-45800000D01*
X82260000Y-45610000D01*
X82100000Y-45370000D01*
X81920000Y-45200000D01*
X81690000Y-45040000D01*
X81570000Y-44980000D01*
X81490000Y-44810000D01*
X81540000Y-44690000D01*
X81590000Y-44440000D01*
X81660000Y-44130000D01*
X81700000Y-43900000D01*
X81850000Y-43880000D01*
X81900000Y-44110000D01*
X82040000Y-44390000D01*
X82210000Y-44540000D01*
X82410000Y-44720000D01*
X82660000Y-44770000D01*
X82860000Y-44800000D01*
X83040000Y-44680000D01*
X83200000Y-44600000D01*
X83420000Y-44600000D01*
X83690000Y-44480000D01*
X83900000Y-44370000D01*
X84010000Y-44240000D01*
X84150000Y-44060000D01*
X84120000Y-43950000D01*
X84010000Y-43860000D01*
X83900000Y-43850000D01*
X83750000Y-43940000D01*
X83460000Y-44100000D01*
X83220000Y-44060000D01*
X82890000Y-44190000D01*
X82870000Y-44000000D01*
X82760000Y-43800000D01*
X82710000Y-43660000D01*
X82770000Y-43590000D01*
X82750000Y-43430000D01*
X82770000Y-43290000D01*
X82820000Y-43100000D01*
X82900000Y-42930000D01*
X82870000Y-42820000D01*
X82870000Y-42700000D01*
X82900000Y-42620000D01*
X83000000Y-42540000D01*
X83150000Y-42440000D01*
X83310000Y-42350000D01*
X83490000Y-42160000D01*
X83610000Y-42070000D01*
X83890000Y-41850000D01*
X84110000Y-41690000D01*
X84200000Y-41600000D01*
X84190000Y-41530000D01*
X84130000Y-41490000D01*
X84050000Y-41340000D01*
X84080000Y-41190000D01*
X84210000Y-41020000D01*
X84360000Y-41000000D01*
X84570000Y-41000000D01*
X84790000Y-41070000D01*
G37*
X86200000Y-47090000D02*
X86400000Y-47220000D01*
X86510000Y-47330000D01*
X86580000Y-47580000D01*
X86710000Y-47670000D01*
X86820000Y-47800000D01*
X86760000Y-47890000D01*
X86680000Y-47990000D01*
X86800000Y-48120000D01*
X86880000Y-48130000D01*
X86980000Y-48000000D01*
X86910000Y-47900000D01*
X86810000Y-47730000D01*
X87020000Y-47760000D01*
X87140000Y-47800000D01*
X87280000Y-47830000D01*
X87570000Y-47950000D01*
X87820000Y-48030000D01*
X88020000Y-48070000D01*
X88120000Y-48070000D01*
X88270000Y-48150000D01*
X88330000Y-48280000D01*
X88320000Y-48390000D01*
X88220000Y-48540000D01*
X88100000Y-48600000D01*
X87930000Y-48690000D01*
X87750000Y-48720000D01*
X87540000Y-48790000D01*
X87410000Y-48870000D01*
X87230000Y-48960000D01*
X86980000Y-49190000D01*
X86880000Y-49330000D01*
X86780000Y-49440000D01*
X86750000Y-49590000D01*
X86690000Y-49720000D01*
X86760000Y-49910000D01*
X86790000Y-49970000D01*
X86760000Y-50060000D01*
X86670000Y-50090000D01*
X86530000Y-50080000D01*
X86380000Y-50120000D01*
X86270000Y-50160000D01*
X86110000Y-50240000D01*
X85940000Y-50430000D01*
X85750000Y-50600000D01*
X85600000Y-50830000D01*
X85320000Y-51390000D01*
X85190000Y-51470000D01*
X85020000Y-51530000D01*
X84950000Y-51590000D01*
X84750000Y-51740000D01*
X84680000Y-51810000D01*
X84610000Y-51950000D01*
X84550000Y-52040000D01*
X84520000Y-51980000D01*
X84500000Y-51840000D01*
X84450000Y-51740000D01*
X84340000Y-51670000D01*
X84290000Y-51670000D01*
X84170000Y-51750000D01*
X84120000Y-51820000D01*
X84050000Y-52020000D01*
X84050000Y-52150000D01*
X84070000Y-52290000D01*
X84040000Y-52380000D01*
X84020000Y-52450000D01*
X83960000Y-52480000D01*
X83940000Y-52430000D01*
X83930000Y-52350000D01*
X83910000Y-52280000D01*
X83820000Y-52220000D01*
X83760000Y-52280000D01*
X83720000Y-52400000D01*
X83730000Y-52510000D01*
X83790000Y-52540000D01*
X83850000Y-52550000D01*
X83870000Y-52550000D01*
X83840000Y-52580000D01*
X83790000Y-52610000D01*
X83720000Y-52640000D01*
X83620000Y-52680000D01*
X83520000Y-52720000D01*
X83510000Y-52700000D01*
X83540000Y-52660000D01*
X83590000Y-52590000D01*
X83640000Y-52430000D01*
X83640000Y-52390000D01*
X83560000Y-52370000D01*
X83410000Y-52350000D01*
X83320000Y-52340000D01*
X83260000Y-52320000D01*
X83260000Y-52230000D01*
X83280000Y-52160000D01*
X83370000Y-51890000D01*
X83400000Y-51820000D01*
X83560000Y-51550000D01*
X83760000Y-51400000D01*
X83890000Y-51360000D01*
X84110000Y-51250000D01*
X84140000Y-51190000D01*
X84170000Y-51050000D01*
X83950000Y-50980000D01*
X83830000Y-50980000D01*
X83880000Y-50960000D01*
X83950000Y-50930000D01*
X84110000Y-50840000D01*
X84180000Y-50740000D01*
X84250000Y-50640000D01*
X84160000Y-50510000D01*
X83950000Y-50450000D01*
X83890000Y-50430000D01*
X83820000Y-50430000D01*
X83920000Y-50390000D01*
X83980000Y-50360000D01*
X84240000Y-50210000D01*
X84460000Y-49920000D01*
X84630000Y-49750000D01*
X84730000Y-49620000D01*
X84880000Y-49540000D01*
X85010000Y-49460000D01*
X85180000Y-49380000D01*
X85360000Y-49450000D01*
X85420000Y-49550000D01*
X85720000Y-49670000D01*
X85890000Y-49720000D01*
X85940000Y-49710000D01*
X85960000Y-49550000D01*
X85750000Y-49300000D01*
X85500000Y-49100000D01*
X85140000Y-48940000D01*
X84810000Y-49030000D01*
X84550000Y-49140000D01*
X84380000Y-49300000D01*
X83900000Y-49700000D01*
X83520000Y-50120000D01*
X83290000Y-50390000D01*
X83170000Y-50540000D01*
X83040000Y-50790000D01*
X83030000Y-50880000D01*
X83000000Y-50950000D01*
X82960000Y-51010000D01*
X82990000Y-50870000D01*
X82910000Y-50750000D01*
X82830000Y-50710000D01*
X82690000Y-50760000D01*
X82640000Y-50840000D01*
X82610000Y-50930000D01*
X82500000Y-50980000D01*
X82340000Y-51020000D01*
X82240000Y-51090000D01*
X82140000Y-51210000D01*
X82050000Y-51310000D01*
X81760000Y-51310000D01*
X81410000Y-51290000D01*
X81300000Y-51360000D01*
X81220000Y-51470000D01*
X81260000Y-51740000D01*
X81370000Y-52010000D01*
X81430000Y-52350000D01*
X81490000Y-52450000D01*
X81640000Y-52550000D01*
X81690000Y-52590000D01*
X81670000Y-52630000D01*
X81480000Y-52790000D01*
X81290000Y-53030000D01*
X81310000Y-53230000D01*
X81500000Y-53220000D01*
X81590000Y-53220000D01*
X81590000Y-53390000D01*
X81570000Y-53550000D01*
X81640000Y-53700000D01*
X81780000Y-53650000D01*
X81930000Y-53540000D01*
X82090000Y-53240000D01*
X82240000Y-53090000D01*
X82340000Y-53060000D01*
X82470000Y-53150000D01*
X82530000Y-53250000D01*
X82600000Y-53400000D01*
X82650000Y-53550000D01*
X82610000Y-53640000D01*
X82500000Y-53690000D01*
X82310000Y-53730000D01*
X82130000Y-53740000D01*
X81910000Y-53790000D01*
X81800000Y-53870000D01*
X81770000Y-54030000D01*
X81750000Y-54110000D01*
X81680000Y-54110000D01*
X81550000Y-53900000D01*
X81500000Y-53660000D01*
X81460000Y-53430000D01*
X81430000Y-53370000D01*
X81350000Y-53360000D01*
X81260000Y-53400000D01*
X81230000Y-53520000D01*
X81140000Y-53690000D01*
X81080000Y-53780000D01*
X81040000Y-53750000D01*
X81050000Y-53680000D01*
X81090000Y-53560000D01*
X81090000Y-53480000D01*
X81060000Y-53350000D01*
X81020000Y-53330000D01*
X80950000Y-53360000D01*
X80850000Y-53420000D01*
X80730000Y-53470000D01*
X80680000Y-53320000D01*
X80540000Y-53100000D01*
X80480000Y-53060000D01*
X80260000Y-53060000D01*
X80110000Y-53070000D01*
X80100000Y-53020000D01*
X80170000Y-52960000D01*
X80400000Y-52840000D01*
X80460000Y-52610000D01*
X80400000Y-52530000D01*
X80260000Y-52470000D01*
X80190000Y-52470000D01*
X80030000Y-52540000D01*
X79930000Y-52620000D01*
X79720000Y-52870000D01*
X79620000Y-53230000D01*
X79660000Y-53430000D01*
X79800000Y-53580000D01*
X80030000Y-53720000D01*
X80050000Y-53910000D01*
X80010000Y-53990000D01*
X79900000Y-54060000D01*
X79630000Y-54030000D01*
X79390000Y-53910000D01*
X79110000Y-53680000D01*
X78480000Y-53050000D01*
X78180000Y-52820000D01*
X77950000Y-52720000D01*
X77920000Y-52760000D01*
X77890000Y-52840000D01*
X77870000Y-52890000D01*
X77860000Y-52870000D01*
X77830000Y-52790000D01*
X77770000Y-52680000D01*
X77670000Y-52530000D01*
X77610000Y-52420000D01*
X77560000Y-52290000D01*
X77530000Y-52100000D01*
X77500000Y-51850000D01*
X77510000Y-51680000D01*
X77540000Y-51370000D01*
X77660000Y-50980000D01*
X77860000Y-50650000D01*
X78100000Y-50340000D01*
X78380000Y-50160000D01*
X78740000Y-49960000D01*
X79130000Y-49920000D01*
X79520000Y-49900000D01*
X80210000Y-49910000D01*
X80560000Y-49960000D01*
X81000000Y-50120000D01*
X81490000Y-50260000D01*
X81840000Y-50260000D01*
X82340000Y-50190000D01*
X82390000Y-50100000D01*
X82550000Y-50000000D01*
X82790000Y-49880000D01*
X82870000Y-49330000D01*
X83160000Y-48940000D01*
X83420000Y-48580000D01*
X83700000Y-48310000D01*
X84040000Y-48060000D01*
X84430000Y-47950000D01*
X84610000Y-47800000D01*
X84900000Y-47450000D01*
X85060000Y-47350000D01*
X85310000Y-47290000D01*
X85580000Y-47090000D01*
X85860000Y-47000000D01*
X86200000Y-47090000D01*
G36*
X86200000Y-47090000D02*
G01*
X86400000Y-47220000D01*
X86510000Y-47330000D01*
X86580000Y-47580000D01*
X86710000Y-47670000D01*
X86820000Y-47800000D01*
X86760000Y-47890000D01*
X86680000Y-47990000D01*
X86800000Y-48120000D01*
X86880000Y-48130000D01*
X86980000Y-48000000D01*
X86910000Y-47900000D01*
X86810000Y-47730000D01*
X87020000Y-47760000D01*
X87140000Y-47800000D01*
X87280000Y-47830000D01*
X87570000Y-47950000D01*
X87820000Y-48030000D01*
X88020000Y-48070000D01*
X88120000Y-48070000D01*
X88270000Y-48150000D01*
X88330000Y-48280000D01*
X88320000Y-48390000D01*
X88220000Y-48540000D01*
X88100000Y-48600000D01*
X87930000Y-48690000D01*
X87750000Y-48720000D01*
X87540000Y-48790000D01*
X87410000Y-48870000D01*
X87230000Y-48960000D01*
X86980000Y-49190000D01*
X86880000Y-49330000D01*
X86780000Y-49440000D01*
X86750000Y-49590000D01*
X86690000Y-49720000D01*
X86760000Y-49910000D01*
X86790000Y-49970000D01*
X86760000Y-50060000D01*
X86670000Y-50090000D01*
X86530000Y-50080000D01*
X86380000Y-50120000D01*
X86270000Y-50160000D01*
X86110000Y-50240000D01*
X85940000Y-50430000D01*
X85750000Y-50600000D01*
X85600000Y-50830000D01*
X85320000Y-51390000D01*
X85190000Y-51470000D01*
X85020000Y-51530000D01*
X84950000Y-51590000D01*
X84750000Y-51740000D01*
X84680000Y-51810000D01*
X84610000Y-51950000D01*
X84550000Y-52040000D01*
X84520000Y-51980000D01*
X84500000Y-51840000D01*
X84450000Y-51740000D01*
X84340000Y-51670000D01*
X84290000Y-51670000D01*
X84170000Y-51750000D01*
X84120000Y-51820000D01*
X84050000Y-52020000D01*
X84050000Y-52150000D01*
X84070000Y-52290000D01*
X84040000Y-52380000D01*
X84020000Y-52450000D01*
X83960000Y-52480000D01*
X83940000Y-52430000D01*
X83930000Y-52350000D01*
X83910000Y-52280000D01*
X83820000Y-52220000D01*
X83760000Y-52280000D01*
X83720000Y-52400000D01*
X83730000Y-52510000D01*
X83790000Y-52540000D01*
X83850000Y-52550000D01*
X83870000Y-52550000D01*
X83840000Y-52580000D01*
X83790000Y-52610000D01*
X83720000Y-52640000D01*
X83620000Y-52680000D01*
X83520000Y-52720000D01*
X83510000Y-52700000D01*
X83540000Y-52660000D01*
X83590000Y-52590000D01*
X83640000Y-52430000D01*
X83640000Y-52390000D01*
X83560000Y-52370000D01*
X83410000Y-52350000D01*
X83320000Y-52340000D01*
X83260000Y-52320000D01*
X83260000Y-52230000D01*
X83280000Y-52160000D01*
X83370000Y-51890000D01*
X83400000Y-51820000D01*
X83560000Y-51550000D01*
X83760000Y-51400000D01*
X83890000Y-51360000D01*
X84110000Y-51250000D01*
X84140000Y-51190000D01*
X84170000Y-51050000D01*
X83950000Y-50980000D01*
X83830000Y-50980000D01*
X83880000Y-50960000D01*
X83950000Y-50930000D01*
X84110000Y-50840000D01*
X84180000Y-50740000D01*
X84250000Y-50640000D01*
X84160000Y-50510000D01*
X83950000Y-50450000D01*
X83890000Y-50430000D01*
X83820000Y-50430000D01*
X83920000Y-50390000D01*
X83980000Y-50360000D01*
X84240000Y-50210000D01*
X84460000Y-49920000D01*
X84630000Y-49750000D01*
X84730000Y-49620000D01*
X84880000Y-49540000D01*
X85010000Y-49460000D01*
X85180000Y-49380000D01*
X85360000Y-49450000D01*
X85420000Y-49550000D01*
X85720000Y-49670000D01*
X85890000Y-49720000D01*
X85940000Y-49710000D01*
X85960000Y-49550000D01*
X85750000Y-49300000D01*
X85500000Y-49100000D01*
X85140000Y-48940000D01*
X84810000Y-49030000D01*
X84550000Y-49140000D01*
X84380000Y-49300000D01*
X83900000Y-49700000D01*
X83520000Y-50120000D01*
X83290000Y-50390000D01*
X83170000Y-50540000D01*
X83040000Y-50790000D01*
X83030000Y-50880000D01*
X83000000Y-50950000D01*
X82960000Y-51010000D01*
X82990000Y-50870000D01*
X82910000Y-50750000D01*
X82830000Y-50710000D01*
X82690000Y-50760000D01*
X82640000Y-50840000D01*
X82610000Y-50930000D01*
X82500000Y-50980000D01*
X82340000Y-51020000D01*
X82240000Y-51090000D01*
X82140000Y-51210000D01*
X82050000Y-51310000D01*
X81760000Y-51310000D01*
X81410000Y-51290000D01*
X81300000Y-51360000D01*
X81220000Y-51470000D01*
X81260000Y-51740000D01*
X81370000Y-52010000D01*
X81430000Y-52350000D01*
X81490000Y-52450000D01*
X81640000Y-52550000D01*
X81690000Y-52590000D01*
X81670000Y-52630000D01*
X81480000Y-52790000D01*
X81290000Y-53030000D01*
X81310000Y-53230000D01*
X81500000Y-53220000D01*
X81590000Y-53220000D01*
X81590000Y-53390000D01*
X81570000Y-53550000D01*
X81640000Y-53700000D01*
X81780000Y-53650000D01*
X81930000Y-53540000D01*
X82090000Y-53240000D01*
X82240000Y-53090000D01*
X82340000Y-53060000D01*
X82470000Y-53150000D01*
X82530000Y-53250000D01*
X82600000Y-53400000D01*
X82650000Y-53550000D01*
X82610000Y-53640000D01*
X82500000Y-53690000D01*
X82310000Y-53730000D01*
X82130000Y-53740000D01*
X81910000Y-53790000D01*
X81800000Y-53870000D01*
X81770000Y-54030000D01*
X81750000Y-54110000D01*
X81680000Y-54110000D01*
X81550000Y-53900000D01*
X81500000Y-53660000D01*
X81460000Y-53430000D01*
X81430000Y-53370000D01*
X81350000Y-53360000D01*
X81260000Y-53400000D01*
X81230000Y-53520000D01*
X81140000Y-53690000D01*
X81080000Y-53780000D01*
X81040000Y-53750000D01*
X81050000Y-53680000D01*
X81090000Y-53560000D01*
X81090000Y-53480000D01*
X81060000Y-53350000D01*
X81020000Y-53330000D01*
X80950000Y-53360000D01*
X80850000Y-53420000D01*
X80730000Y-53470000D01*
X80680000Y-53320000D01*
X80540000Y-53100000D01*
X80480000Y-53060000D01*
X80260000Y-53060000D01*
X80110000Y-53070000D01*
X80100000Y-53020000D01*
X80170000Y-52960000D01*
X80400000Y-52840000D01*
X80460000Y-52610000D01*
X80400000Y-52530000D01*
X80260000Y-52470000D01*
X80190000Y-52470000D01*
X80030000Y-52540000D01*
X79930000Y-52620000D01*
X79720000Y-52870000D01*
X79620000Y-53230000D01*
X79660000Y-53430000D01*
X79800000Y-53580000D01*
X80030000Y-53720000D01*
X80050000Y-53910000D01*
X80010000Y-53990000D01*
X79900000Y-54060000D01*
X79630000Y-54030000D01*
X79390000Y-53910000D01*
X79110000Y-53680000D01*
X78480000Y-53050000D01*
X78180000Y-52820000D01*
X77950000Y-52720000D01*
X77920000Y-52760000D01*
X77890000Y-52840000D01*
X77870000Y-52890000D01*
X77860000Y-52870000D01*
X77830000Y-52790000D01*
X77770000Y-52680000D01*
X77670000Y-52530000D01*
X77610000Y-52420000D01*
X77560000Y-52290000D01*
X77530000Y-52100000D01*
X77500000Y-51850000D01*
X77510000Y-51680000D01*
X77540000Y-51370000D01*
X77660000Y-50980000D01*
X77860000Y-50650000D01*
X78100000Y-50340000D01*
X78380000Y-50160000D01*
X78740000Y-49960000D01*
X79130000Y-49920000D01*
X79520000Y-49900000D01*
X80210000Y-49910000D01*
X80560000Y-49960000D01*
X81000000Y-50120000D01*
X81490000Y-50260000D01*
X81840000Y-50260000D01*
X82340000Y-50190000D01*
X82390000Y-50100000D01*
X82550000Y-50000000D01*
X82790000Y-49880000D01*
X82870000Y-49330000D01*
X83160000Y-48940000D01*
X83420000Y-48580000D01*
X83700000Y-48310000D01*
X84040000Y-48060000D01*
X84430000Y-47950000D01*
X84610000Y-47800000D01*
X84900000Y-47450000D01*
X85060000Y-47350000D01*
X85310000Y-47290000D01*
X85580000Y-47090000D01*
X85860000Y-47000000D01*
X86200000Y-47090000D01*
G37*
X100170000Y-40640000D02*
X100590000Y-40850000D01*
X101010000Y-41120000D01*
X101180000Y-41310000D01*
X101220000Y-41390000D01*
X101270000Y-41500000D01*
X101320000Y-41720000D01*
X101300000Y-41820000D01*
X101190000Y-41790000D01*
X101100000Y-41730000D01*
X100970000Y-41630000D01*
X100710000Y-41390000D01*
X100440000Y-41290000D01*
X100180000Y-41200000D01*
X99960000Y-41180000D01*
X99860000Y-41180000D01*
X99670000Y-41400000D01*
X99760000Y-41530000D01*
X99980000Y-41630000D01*
X100280000Y-41730000D01*
X100520000Y-41850000D01*
X100620000Y-41950000D01*
X100680000Y-42040000D01*
X100620000Y-42120000D01*
X100600000Y-42240000D01*
X100640000Y-42350000D01*
X100720000Y-42480000D01*
X100750000Y-42580000D01*
X100460000Y-42390000D01*
X100290000Y-42330000D01*
X100030000Y-42320000D01*
X99950000Y-42410000D01*
X99940000Y-42520000D01*
X100100000Y-42620000D01*
X100450000Y-42830000D01*
X100580000Y-42940000D01*
X100670000Y-43110000D01*
X100740000Y-43370000D01*
X100780000Y-43650000D01*
X100870000Y-43940000D01*
X100870000Y-44090000D01*
X100750000Y-44090000D01*
X100470000Y-44080000D01*
X100460000Y-44280000D01*
X100570000Y-44420000D01*
X100660000Y-44550000D01*
X100690000Y-44710000D01*
X100630000Y-44780000D01*
X100520000Y-44840000D01*
X100330000Y-44780000D01*
X100270000Y-44650000D01*
X100240000Y-44530000D01*
X100160000Y-44320000D01*
X100120000Y-44190000D01*
X100050000Y-43990000D01*
X99920000Y-43580000D01*
X99810000Y-43310000D01*
X99630000Y-42990000D01*
X99470000Y-42840000D01*
X99290000Y-42730000D01*
X99080000Y-42680000D01*
X98940000Y-42670000D01*
X98760000Y-42670000D01*
X98720000Y-42760000D01*
X98750000Y-42900000D01*
X98890000Y-43000000D01*
X99100000Y-43140000D01*
X99300000Y-43300000D01*
X99450000Y-43480000D01*
X99600000Y-43700000D01*
X99690000Y-44020000D01*
X99610000Y-43860000D01*
X99550000Y-43760000D01*
X99390000Y-43520000D01*
X99260000Y-43400000D01*
X99150000Y-43270000D01*
X98950000Y-43110000D01*
X98800000Y-43050000D01*
X98640000Y-42950000D01*
X98520000Y-42950000D01*
X98400000Y-42910000D01*
X98280000Y-42890000D01*
X98200000Y-42880000D01*
X98180000Y-42810000D01*
X98170000Y-42760000D01*
X98290000Y-42820000D01*
X98420000Y-42810000D01*
X98450000Y-42710000D01*
X98450000Y-42620000D01*
X98380000Y-42590000D01*
X98260000Y-42610000D01*
X98130000Y-42630000D01*
X98140000Y-42730000D01*
X98160000Y-42870000D01*
X98000000Y-42870000D01*
X97840000Y-42870000D01*
X97520000Y-42860000D01*
X97200000Y-42940000D01*
X97040000Y-43050000D01*
X96900000Y-43240000D01*
X96870000Y-43440000D01*
X96910000Y-43600000D01*
X97060000Y-43680000D01*
X97250000Y-43590000D01*
X97490000Y-43470000D01*
X97730000Y-43520000D01*
X97980000Y-43680000D01*
X98130000Y-43940000D01*
X98180000Y-44340000D01*
X98090000Y-44360000D01*
X97970000Y-44190000D01*
X97840000Y-43980000D01*
X97660000Y-43820000D01*
X97470000Y-43760000D01*
X97360000Y-43820000D01*
X97260000Y-43970000D01*
X97290000Y-44170000D01*
X97430000Y-44350000D01*
X97430000Y-44420000D01*
X97380000Y-44530000D01*
X97300000Y-44610000D01*
X97240000Y-44690000D01*
X97110000Y-44750000D01*
X96890000Y-44770000D01*
X96750000Y-44710000D01*
X96530000Y-44540000D01*
X96390000Y-44440000D01*
X96040000Y-44330000D01*
X95800000Y-44380000D01*
X95700000Y-44520000D01*
X95840000Y-44740000D01*
X95890000Y-44810000D01*
X95990000Y-44920000D01*
X96070000Y-45080000D01*
X96030000Y-45170000D01*
X95930000Y-45210000D01*
X95770000Y-45120000D01*
X95680000Y-45020000D01*
X95420000Y-44900000D01*
X95050000Y-44710000D01*
X94510000Y-44680000D01*
X94430000Y-44680000D01*
X93820000Y-44890000D01*
X93400000Y-45080000D01*
X93190000Y-45070000D01*
X92880000Y-44930000D01*
X92650000Y-44840000D01*
X92070000Y-44720000D01*
X91480000Y-44760000D01*
X91200000Y-44860000D01*
X90970000Y-44970000D01*
X90550000Y-45430000D01*
X90280000Y-45540000D01*
X90000000Y-45680000D01*
X89630000Y-46020000D01*
X89370000Y-46310000D01*
X89200000Y-46620000D01*
X89110000Y-46790000D01*
X89060000Y-46890000D01*
X88900000Y-46930000D01*
X88570000Y-46830000D01*
X88470000Y-46800000D01*
X88240000Y-46820000D01*
X88220000Y-46960000D01*
X88370000Y-47030000D01*
X88520000Y-47010000D01*
X88580000Y-46890000D01*
X88850000Y-46960000D01*
X89040000Y-46940000D01*
X88960000Y-47120000D01*
X88950000Y-47340000D01*
X89020000Y-47490000D01*
X89110000Y-47630000D01*
X89060000Y-47620000D01*
X88880000Y-47460000D01*
X88830000Y-47410000D01*
X88780000Y-47370000D01*
X88640000Y-47350000D01*
X88610000Y-47480000D01*
X88600000Y-47530000D01*
X88600000Y-47630000D01*
X88650000Y-47800000D01*
X88670000Y-47870000D01*
X88920000Y-47980000D01*
X89120000Y-47970000D01*
X89240000Y-47920000D01*
X89430000Y-48160000D01*
X89500000Y-48250000D01*
X89540000Y-48370000D01*
X89240000Y-48480000D01*
X88880000Y-48540000D01*
X88800000Y-48510000D01*
X88730000Y-48440000D01*
X88350000Y-48460000D01*
X88350000Y-48190000D01*
X88580000Y-48220000D01*
X88690000Y-48180000D01*
X88710000Y-48150000D01*
X88670000Y-47990000D01*
X88590000Y-47830000D01*
X88510000Y-47760000D01*
X88440000Y-47690000D01*
X88290000Y-47630000D01*
X88000000Y-47520000D01*
X87710000Y-47330000D01*
X87510000Y-47120000D01*
X87480000Y-46950000D01*
X87540000Y-46720000D01*
X87710000Y-46450000D01*
X87920000Y-46180000D01*
X88230000Y-45870000D01*
X88450000Y-45730000D01*
X88650000Y-45630000D01*
X88800000Y-45630000D01*
X88930000Y-45670000D01*
X88980000Y-45640000D01*
X89010000Y-45340000D01*
X89140000Y-45040000D01*
X89360000Y-44830000D01*
X89300000Y-45000000D01*
X89310000Y-45110000D01*
X89350000Y-45170000D01*
X89490000Y-45130000D01*
X89730000Y-45050000D01*
X90150000Y-44850000D01*
X90820000Y-44600000D01*
X90960000Y-44610000D01*
X90940000Y-44720000D01*
X90970000Y-44810000D01*
X91140000Y-44740000D01*
X91320000Y-44610000D01*
X91550000Y-44400000D01*
X91600000Y-44360000D01*
X91610000Y-44510000D01*
X91750000Y-44540000D01*
X91820000Y-44480000D01*
X91800000Y-44280000D01*
X91750000Y-44240000D01*
X91890000Y-44160000D01*
X92060000Y-44110000D01*
X92370000Y-44120000D01*
X92680000Y-44240000D01*
X92850000Y-44350000D01*
X92960000Y-44450000D01*
X93050000Y-44520000D01*
X93150000Y-44540000D01*
X93300000Y-44400000D01*
X93530000Y-44220000D01*
X93730000Y-44210000D01*
X93920000Y-44210000D01*
X94480000Y-44480000D01*
X94610000Y-44500000D01*
X94690000Y-44450000D01*
X94710000Y-44370000D01*
X94640000Y-44210000D01*
X94400000Y-43940000D01*
X94220000Y-43720000D01*
X94290000Y-43410000D01*
X94490000Y-43050000D01*
X94800000Y-42730000D01*
X95040000Y-42530000D01*
X95290000Y-42410000D01*
X95510000Y-42360000D01*
X95420000Y-42240000D01*
X95220000Y-42170000D01*
X95550000Y-42220000D01*
X95690000Y-42290000D01*
X95810000Y-42370000D01*
X96000000Y-42460000D01*
X96150000Y-42520000D01*
X96330000Y-42560000D01*
X96480000Y-42510000D01*
X96550000Y-42310000D01*
X96500000Y-42200000D01*
X96340000Y-42040000D01*
X96190000Y-41990000D01*
X96130000Y-41850000D01*
X96170000Y-41700000D01*
X96250000Y-41520000D01*
X96390000Y-41330000D01*
X96710000Y-41080000D01*
X97180000Y-40810000D01*
X97610000Y-40690000D01*
X97890000Y-40690000D01*
X98110000Y-40770000D01*
X98280000Y-40880000D01*
X98520000Y-41010000D01*
X98590000Y-41100000D01*
X98580000Y-41260000D01*
X98500000Y-41320000D01*
X98380000Y-41200000D01*
X98210000Y-41070000D01*
X97980000Y-40960000D01*
X97870000Y-40930000D01*
X97470000Y-40960000D01*
X97340000Y-40990000D01*
X97070000Y-41130000D01*
X96890000Y-41260000D01*
X96670000Y-41440000D01*
X96540000Y-41600000D01*
X96550000Y-41720000D01*
X96680000Y-41710000D01*
X96910000Y-41620000D01*
X97260000Y-41470000D01*
X97530000Y-41390000D01*
X97770000Y-41400000D01*
X97970000Y-41440000D01*
X98150000Y-41540000D01*
X98340000Y-41580000D01*
X98470000Y-41540000D01*
X98500000Y-41620000D01*
X98480000Y-41880000D01*
X98420000Y-42060000D01*
X98340000Y-42020000D01*
X98210000Y-41910000D01*
X98010000Y-41790000D01*
X97820000Y-41660000D01*
X97520000Y-41550000D01*
X97280000Y-41540000D01*
X97130000Y-41590000D01*
X96910000Y-41690000D01*
X96690000Y-41800000D01*
X96550000Y-41920000D01*
X96500000Y-42050000D01*
X96650000Y-42120000D01*
X96840000Y-42080000D01*
X97070000Y-41990000D01*
X97330000Y-41930000D01*
X97590000Y-41970000D01*
X97780000Y-42090000D01*
X98070000Y-42230000D01*
X98260000Y-42340000D01*
X98390000Y-42410000D01*
X98490000Y-42400000D01*
X98470000Y-42250000D01*
X98450000Y-42110000D01*
X98470000Y-42010000D01*
X98520000Y-41850000D01*
X98530000Y-41700000D01*
X98540000Y-41590000D01*
X98470000Y-41480000D01*
X98480000Y-41400000D01*
X98560000Y-41320000D01*
X98630000Y-41270000D01*
X98630000Y-41090000D01*
X98570000Y-41030000D01*
X98840000Y-41020000D01*
X98910000Y-41000000D01*
X99150000Y-40780000D01*
X99340000Y-40590000D01*
X99680000Y-40520000D01*
X100170000Y-40640000D01*
G36*
X100170000Y-40640000D02*
G01*
X100590000Y-40850000D01*
X101010000Y-41120000D01*
X101180000Y-41310000D01*
X101220000Y-41390000D01*
X101270000Y-41500000D01*
X101320000Y-41720000D01*
X101300000Y-41820000D01*
X101190000Y-41790000D01*
X101100000Y-41730000D01*
X100970000Y-41630000D01*
X100710000Y-41390000D01*
X100440000Y-41290000D01*
X100180000Y-41200000D01*
X99960000Y-41180000D01*
X99860000Y-41180000D01*
X99670000Y-41400000D01*
X99760000Y-41530000D01*
X99980000Y-41630000D01*
X100280000Y-41730000D01*
X100520000Y-41850000D01*
X100620000Y-41950000D01*
X100680000Y-42040000D01*
X100620000Y-42120000D01*
X100600000Y-42240000D01*
X100640000Y-42350000D01*
X100720000Y-42480000D01*
X100750000Y-42580000D01*
X100460000Y-42390000D01*
X100290000Y-42330000D01*
X100030000Y-42320000D01*
X99950000Y-42410000D01*
X99940000Y-42520000D01*
X100100000Y-42620000D01*
X100450000Y-42830000D01*
X100580000Y-42940000D01*
X100670000Y-43110000D01*
X100740000Y-43370000D01*
X100780000Y-43650000D01*
X100870000Y-43940000D01*
X100870000Y-44090000D01*
X100750000Y-44090000D01*
X100470000Y-44080000D01*
X100460000Y-44280000D01*
X100570000Y-44420000D01*
X100660000Y-44550000D01*
X100690000Y-44710000D01*
X100630000Y-44780000D01*
X100520000Y-44840000D01*
X100330000Y-44780000D01*
X100270000Y-44650000D01*
X100240000Y-44530000D01*
X100160000Y-44320000D01*
X100120000Y-44190000D01*
X100050000Y-43990000D01*
X99920000Y-43580000D01*
X99810000Y-43310000D01*
X99630000Y-42990000D01*
X99470000Y-42840000D01*
X99290000Y-42730000D01*
X99080000Y-42680000D01*
X98940000Y-42670000D01*
X98760000Y-42670000D01*
X98720000Y-42760000D01*
X98750000Y-42900000D01*
X98890000Y-43000000D01*
X99100000Y-43140000D01*
X99300000Y-43300000D01*
X99450000Y-43480000D01*
X99600000Y-43700000D01*
X99690000Y-44020000D01*
X99610000Y-43860000D01*
X99550000Y-43760000D01*
X99390000Y-43520000D01*
X99260000Y-43400000D01*
X99150000Y-43270000D01*
X98950000Y-43110000D01*
X98800000Y-43050000D01*
X98640000Y-42950000D01*
X98520000Y-42950000D01*
X98400000Y-42910000D01*
X98280000Y-42890000D01*
X98200000Y-42880000D01*
X98180000Y-42810000D01*
X98170000Y-42760000D01*
X98290000Y-42820000D01*
X98420000Y-42810000D01*
X98450000Y-42710000D01*
X98450000Y-42620000D01*
X98380000Y-42590000D01*
X98260000Y-42610000D01*
X98130000Y-42630000D01*
X98140000Y-42730000D01*
X98160000Y-42870000D01*
X98000000Y-42870000D01*
X97840000Y-42870000D01*
X97520000Y-42860000D01*
X97200000Y-42940000D01*
X97040000Y-43050000D01*
X96900000Y-43240000D01*
X96870000Y-43440000D01*
X96910000Y-43600000D01*
X97060000Y-43680000D01*
X97250000Y-43590000D01*
X97490000Y-43470000D01*
X97730000Y-43520000D01*
X97980000Y-43680000D01*
X98130000Y-43940000D01*
X98180000Y-44340000D01*
X98090000Y-44360000D01*
X97970000Y-44190000D01*
X97840000Y-43980000D01*
X97660000Y-43820000D01*
X97470000Y-43760000D01*
X97360000Y-43820000D01*
X97260000Y-43970000D01*
X97290000Y-44170000D01*
X97430000Y-44350000D01*
X97430000Y-44420000D01*
X97380000Y-44530000D01*
X97300000Y-44610000D01*
X97240000Y-44690000D01*
X97110000Y-44750000D01*
X96890000Y-44770000D01*
X96750000Y-44710000D01*
X96530000Y-44540000D01*
X96390000Y-44440000D01*
X96040000Y-44330000D01*
X95800000Y-44380000D01*
X95700000Y-44520000D01*
X95840000Y-44740000D01*
X95890000Y-44810000D01*
X95990000Y-44920000D01*
X96070000Y-45080000D01*
X96030000Y-45170000D01*
X95930000Y-45210000D01*
X95770000Y-45120000D01*
X95680000Y-45020000D01*
X95420000Y-44900000D01*
X95050000Y-44710000D01*
X94510000Y-44680000D01*
X94430000Y-44680000D01*
X93820000Y-44890000D01*
X93400000Y-45080000D01*
X93190000Y-45070000D01*
X92880000Y-44930000D01*
X92650000Y-44840000D01*
X92070000Y-44720000D01*
X91480000Y-44760000D01*
X91200000Y-44860000D01*
X90970000Y-44970000D01*
X90550000Y-45430000D01*
X90280000Y-45540000D01*
X90000000Y-45680000D01*
X89630000Y-46020000D01*
X89370000Y-46310000D01*
X89200000Y-46620000D01*
X89110000Y-46790000D01*
X89060000Y-46890000D01*
X88900000Y-46930000D01*
X88570000Y-46830000D01*
X88470000Y-46800000D01*
X88240000Y-46820000D01*
X88220000Y-46960000D01*
X88370000Y-47030000D01*
X88520000Y-47010000D01*
X88580000Y-46890000D01*
X88850000Y-46960000D01*
X89040000Y-46940000D01*
X88960000Y-47120000D01*
X88950000Y-47340000D01*
X89020000Y-47490000D01*
X89110000Y-47630000D01*
X89060000Y-47620000D01*
X88880000Y-47460000D01*
X88830000Y-47410000D01*
X88780000Y-47370000D01*
X88640000Y-47350000D01*
X88610000Y-47480000D01*
X88600000Y-47530000D01*
X88600000Y-47630000D01*
X88650000Y-47800000D01*
X88670000Y-47870000D01*
X88920000Y-47980000D01*
X89120000Y-47970000D01*
X89240000Y-47920000D01*
X89430000Y-48160000D01*
X89500000Y-48250000D01*
X89540000Y-48370000D01*
X89240000Y-48480000D01*
X88880000Y-48540000D01*
X88800000Y-48510000D01*
X88730000Y-48440000D01*
X88350000Y-48460000D01*
X88350000Y-48190000D01*
X88580000Y-48220000D01*
X88690000Y-48180000D01*
X88710000Y-48150000D01*
X88670000Y-47990000D01*
X88590000Y-47830000D01*
X88510000Y-47760000D01*
X88440000Y-47690000D01*
X88290000Y-47630000D01*
X88000000Y-47520000D01*
X87710000Y-47330000D01*
X87510000Y-47120000D01*
X87480000Y-46950000D01*
X87540000Y-46720000D01*
X87710000Y-46450000D01*
X87920000Y-46180000D01*
X88230000Y-45870000D01*
X88450000Y-45730000D01*
X88650000Y-45630000D01*
X88800000Y-45630000D01*
X88930000Y-45670000D01*
X88980000Y-45640000D01*
X89010000Y-45340000D01*
X89140000Y-45040000D01*
X89360000Y-44830000D01*
X89300000Y-45000000D01*
X89310000Y-45110000D01*
X89350000Y-45170000D01*
X89490000Y-45130000D01*
X89730000Y-45050000D01*
X90150000Y-44850000D01*
X90820000Y-44600000D01*
X90960000Y-44610000D01*
X90940000Y-44720000D01*
X90970000Y-44810000D01*
X91140000Y-44740000D01*
X91320000Y-44610000D01*
X91550000Y-44400000D01*
X91600000Y-44360000D01*
X91610000Y-44510000D01*
X91750000Y-44540000D01*
X91820000Y-44480000D01*
X91800000Y-44280000D01*
X91750000Y-44240000D01*
X91890000Y-44160000D01*
X92060000Y-44110000D01*
X92370000Y-44120000D01*
X92680000Y-44240000D01*
X92850000Y-44350000D01*
X92960000Y-44450000D01*
X93050000Y-44520000D01*
X93150000Y-44540000D01*
X93300000Y-44400000D01*
X93530000Y-44220000D01*
X93730000Y-44210000D01*
X93920000Y-44210000D01*
X94480000Y-44480000D01*
X94610000Y-44500000D01*
X94690000Y-44450000D01*
X94710000Y-44370000D01*
X94640000Y-44210000D01*
X94400000Y-43940000D01*
X94220000Y-43720000D01*
X94290000Y-43410000D01*
X94490000Y-43050000D01*
X94800000Y-42730000D01*
X95040000Y-42530000D01*
X95290000Y-42410000D01*
X95510000Y-42360000D01*
X95420000Y-42240000D01*
X95220000Y-42170000D01*
X95550000Y-42220000D01*
X95690000Y-42290000D01*
X95810000Y-42370000D01*
X96000000Y-42460000D01*
X96150000Y-42520000D01*
X96330000Y-42560000D01*
X96480000Y-42510000D01*
X96550000Y-42310000D01*
X96500000Y-42200000D01*
X96340000Y-42040000D01*
X96190000Y-41990000D01*
X96130000Y-41850000D01*
X96170000Y-41700000D01*
X96250000Y-41520000D01*
X96390000Y-41330000D01*
X96710000Y-41080000D01*
X97180000Y-40810000D01*
X97610000Y-40690000D01*
X97890000Y-40690000D01*
X98110000Y-40770000D01*
X98280000Y-40880000D01*
X98520000Y-41010000D01*
X98590000Y-41100000D01*
X98580000Y-41260000D01*
X98500000Y-41320000D01*
X98380000Y-41200000D01*
X98210000Y-41070000D01*
X97980000Y-40960000D01*
X97870000Y-40930000D01*
X97470000Y-40960000D01*
X97340000Y-40990000D01*
X97070000Y-41130000D01*
X96890000Y-41260000D01*
X96670000Y-41440000D01*
X96540000Y-41600000D01*
X96550000Y-41720000D01*
X96680000Y-41710000D01*
X96910000Y-41620000D01*
X97260000Y-41470000D01*
X97530000Y-41390000D01*
X97770000Y-41400000D01*
X97970000Y-41440000D01*
X98150000Y-41540000D01*
X98340000Y-41580000D01*
X98470000Y-41540000D01*
X98500000Y-41620000D01*
X98480000Y-41880000D01*
X98420000Y-42060000D01*
X98340000Y-42020000D01*
X98210000Y-41910000D01*
X98010000Y-41790000D01*
X97820000Y-41660000D01*
X97520000Y-41550000D01*
X97280000Y-41540000D01*
X97130000Y-41590000D01*
X96910000Y-41690000D01*
X96690000Y-41800000D01*
X96550000Y-41920000D01*
X96500000Y-42050000D01*
X96650000Y-42120000D01*
X96840000Y-42080000D01*
X97070000Y-41990000D01*
X97330000Y-41930000D01*
X97590000Y-41970000D01*
X97780000Y-42090000D01*
X98070000Y-42230000D01*
X98260000Y-42340000D01*
X98390000Y-42410000D01*
X98490000Y-42400000D01*
X98470000Y-42250000D01*
X98450000Y-42110000D01*
X98470000Y-42010000D01*
X98520000Y-41850000D01*
X98530000Y-41700000D01*
X98540000Y-41590000D01*
X98470000Y-41480000D01*
X98480000Y-41400000D01*
X98560000Y-41320000D01*
X98630000Y-41270000D01*
X98630000Y-41090000D01*
X98570000Y-41030000D01*
X98840000Y-41020000D01*
X98910000Y-41000000D01*
X99150000Y-40780000D01*
X99340000Y-40590000D01*
X99680000Y-40520000D01*
X100170000Y-40640000D01*
G37*
D11*
G04 #@! TO.C,G-FMask*
G36*
X73405258Y-105149287D02*
G01*
X73421514Y-105310484D01*
X73405258Y-105330392D01*
X73324508Y-105311747D01*
X73314705Y-105239839D01*
X73364403Y-105128037D01*
X73405258Y-105149287D01*
G37*
G36*
X73948573Y-104877629D02*
G01*
X73964829Y-105038826D01*
X73948573Y-105058734D01*
X73867823Y-105040089D01*
X73858021Y-104968182D01*
X73907718Y-104856379D01*
X73948573Y-104877629D01*
G37*
G36*
X66207022Y-107388785D02*
G01*
X66369116Y-107665436D01*
X66410484Y-107752674D01*
X66534346Y-108093011D01*
X66507882Y-108217492D01*
X66339404Y-108116945D01*
X66204741Y-107979679D01*
X66042841Y-107718839D01*
X65980182Y-107457284D01*
X66033195Y-107293440D01*
X66087475Y-107277273D01*
X66207022Y-107388785D01*
G37*
G36*
X123795907Y-41598334D02*
G01*
X123789665Y-41615120D01*
X123728339Y-41907663D01*
X123707219Y-42228062D01*
X123677315Y-42468292D01*
X123547746Y-42645644D01*
X123258724Y-42819179D01*
X122977548Y-42948848D01*
X122567035Y-43148032D01*
X122263277Y-43327960D01*
X122154559Y-43422536D01*
X121953457Y-43557137D01*
X121636616Y-43470647D01*
X121405982Y-43328704D01*
X121180828Y-43194216D01*
X120922469Y-43103211D01*
X120559923Y-43040151D01*
X120022209Y-42989497D01*
X119773982Y-42971439D01*
X119399092Y-42917222D01*
X119159427Y-42829723D01*
X119121600Y-42788331D01*
X119192070Y-42650874D01*
X119474024Y-42566330D01*
X119911363Y-42540718D01*
X120447993Y-42580053D01*
X120699135Y-42619128D01*
X121377449Y-42703041D01*
X121902450Y-42651385D01*
X122369854Y-42437130D01*
X122875380Y-42033249D01*
X122920383Y-41991894D01*
X123346959Y-41628127D01*
X123648408Y-41435498D01*
X123804725Y-41422676D01*
X123795907Y-41598334D01*
G37*
G36*
X66541547Y-105121852D02*
G01*
X67004002Y-105241366D01*
X67523853Y-105370491D01*
X67868341Y-105414520D01*
X67994703Y-105375781D01*
X68140641Y-105247111D01*
X68333763Y-105280666D01*
X68424866Y-105443583D01*
X68485236Y-105624519D01*
X68536319Y-105647326D01*
X68703521Y-105673671D01*
X69069559Y-105743572D01*
X69567714Y-105843324D01*
X70131267Y-105959226D01*
X70693499Y-106077573D01*
X71187690Y-106184662D01*
X71460000Y-106259100D01*
X71540000Y-106330000D01*
X71600000Y-106460000D01*
X71610000Y-106630000D01*
X71537946Y-106716023D01*
X71143456Y-106686986D01*
X70543577Y-106575136D01*
X69803449Y-106401714D01*
X69225214Y-106271763D01*
X68724918Y-106183240D01*
X68375258Y-106147890D01*
X68275375Y-106154858D01*
X68066430Y-106152605D01*
X68017379Y-106085286D01*
X67895768Y-105987617D01*
X67575994Y-105860240D01*
X67125648Y-105729783D01*
X67096900Y-105722671D01*
X66456671Y-105551946D01*
X66058992Y-105408240D01*
X65877798Y-105278025D01*
X65887023Y-105147774D01*
X65918544Y-105111081D01*
X66123656Y-105060860D01*
X66541547Y-105121852D01*
G37*
G36*
X213206093Y-115003154D02*
G01*
X213324605Y-115299334D01*
X213355303Y-115728357D01*
X213379295Y-116289733D01*
X213439399Y-116929601D01*
X213484274Y-117260695D01*
X213563477Y-117837211D01*
X213641761Y-118523328D01*
X213694816Y-119086059D01*
X213742415Y-119587391D01*
X213791876Y-119978765D01*
X213833467Y-120184871D01*
X213838057Y-120194573D01*
X213863819Y-120358381D01*
X213894016Y-120743349D01*
X213925556Y-121299083D01*
X213955350Y-121975189D01*
X213967217Y-122300945D01*
X213999055Y-123012078D01*
X214040750Y-123622940D01*
X214087794Y-124083864D01*
X214135680Y-124345183D01*
X214156281Y-124384409D01*
X214228291Y-124547944D01*
X214303449Y-124906587D01*
X214366050Y-125384446D01*
X214368600Y-125410428D01*
X214424839Y-125951465D01*
X214503806Y-126657236D01*
X214593578Y-127423037D01*
X214656646Y-127940211D01*
X214747857Y-128781824D01*
X214779764Y-129380718D01*
X214751697Y-129759429D01*
X214662980Y-129940495D01*
X214596162Y-129963935D01*
X214418029Y-129994234D01*
X214088721Y-130064996D01*
X214006878Y-130083788D01*
X213569642Y-130132014D01*
X213250580Y-130021647D01*
X213225862Y-130004931D01*
X212999048Y-129704921D01*
X212944236Y-129443635D01*
X212924123Y-129175942D01*
X212870887Y-128702136D01*
X212792171Y-128084689D01*
X212695618Y-127386067D01*
X212675133Y-127244117D01*
X212577511Y-126567571D01*
X212495554Y-125990130D01*
X212436526Y-125563705D01*
X212407694Y-125340208D01*
X212406030Y-125321436D01*
X212282137Y-125284951D01*
X211963611Y-125281458D01*
X211618530Y-125303621D01*
X211101659Y-125325622D01*
X210795135Y-125271399D01*
X210681151Y-125188869D01*
X210608390Y-124979760D01*
X210529132Y-124554227D01*
X210448817Y-123967239D01*
X210372886Y-123273769D01*
X210306782Y-122528787D01*
X210255944Y-121787264D01*
X210225814Y-121104170D01*
X210221589Y-120546036D01*
X210320037Y-119303646D01*
X210577629Y-118222281D01*
X211020269Y-117226226D01*
X211673863Y-116239769D01*
X211711939Y-116190126D01*
X212251766Y-115533900D01*
X212676310Y-115118573D01*
X212992207Y-114942279D01*
X213206093Y-115003154D01*
G37*
G36*
X127040948Y-47009054D02*
G01*
X127471161Y-47061419D01*
X127646256Y-47099923D01*
X127831577Y-47168261D01*
X127852141Y-47232462D01*
X127677542Y-47317033D01*
X127277373Y-47446479D01*
X127179119Y-47476412D01*
X126710474Y-47752194D01*
X126349984Y-48230200D01*
X126165411Y-48751707D01*
X126080724Y-49051391D01*
X125934038Y-49169066D01*
X125629114Y-49171004D01*
X125564540Y-49165476D01*
X125041717Y-49228123D01*
X124472225Y-49462707D01*
X123960208Y-49815212D01*
X123655442Y-50155663D01*
X123439943Y-50410027D01*
X123209502Y-50475580D01*
X122905257Y-50348328D01*
X122537393Y-50079807D01*
X121773763Y-49560000D01*
X122830000Y-49560000D01*
X123020000Y-49580000D01*
X123230000Y-49570000D01*
X123197860Y-49460043D01*
X122919771Y-49442103D01*
X122858288Y-49460043D01*
X122830000Y-49560000D01*
X121773763Y-49560000D01*
X121707327Y-49514777D01*
X121694743Y-49509619D01*
X120955335Y-49206556D01*
X120466153Y-49142513D01*
X120086063Y-49107355D01*
X119845509Y-48953442D01*
X119661841Y-48686589D01*
X119446310Y-48390866D01*
X119183494Y-48236938D01*
X118761602Y-48159515D01*
X118758827Y-48159202D01*
X118402862Y-48094817D01*
X119790076Y-48094817D01*
X119930000Y-48320000D01*
X120210000Y-48680000D01*
X120340000Y-48690000D01*
X120240000Y-48520000D01*
X119990000Y-48200000D01*
X119883023Y-48110826D01*
X119790076Y-48094817D01*
X118402862Y-48094817D01*
X118266397Y-48070134D01*
X118028009Y-47956737D01*
X118029631Y-47838674D01*
X118257234Y-47735608D01*
X118696787Y-47667203D01*
X119121819Y-47650475D01*
X119619261Y-47672663D01*
X119984861Y-47773294D01*
X120356513Y-47998594D01*
X120517168Y-48118224D01*
X120960474Y-48400903D01*
X121417037Y-48607043D01*
X121638932Y-48666199D01*
X122083859Y-48769417D01*
X122475269Y-48913648D01*
X122494840Y-48923409D01*
X122923415Y-49039398D01*
X123382560Y-49012527D01*
X123759548Y-48857773D01*
X123880455Y-48739330D01*
X124113814Y-48516340D01*
X124455488Y-48293520D01*
X124482079Y-48279547D01*
X124579099Y-48211701D01*
X125555172Y-48211701D01*
X125583090Y-48546412D01*
X125638417Y-48799352D01*
X125694509Y-48870855D01*
X125723884Y-48749024D01*
X125741931Y-48439438D01*
X125744652Y-48232460D01*
X125721470Y-47842724D01*
X125653916Y-47705369D01*
X125612377Y-47726338D01*
X125562367Y-47902562D01*
X125555172Y-48211701D01*
X124579099Y-48211701D01*
X124832513Y-48034490D01*
X125210958Y-47676676D01*
X125353742Y-47512262D01*
X125621906Y-47200747D01*
X125850307Y-47040848D01*
X126147115Y-46984623D01*
X126548401Y-46982791D01*
X127040948Y-47009054D01*
G37*
G36*
X126788721Y-43825983D02*
G01*
X126824639Y-43829944D01*
X127565054Y-43913101D01*
X126349238Y-44600769D01*
X125764620Y-44943746D01*
X125358728Y-45223466D01*
X125066500Y-45496524D01*
X124822872Y-45819516D01*
X124675349Y-46056809D01*
X124414675Y-46469941D01*
X124231613Y-46681413D01*
X124081117Y-46731955D01*
X123971177Y-46693473D01*
X123495050Y-46571027D01*
X122901432Y-46604331D01*
X122278105Y-46771204D01*
X121712853Y-47049463D01*
X121343119Y-47357555D01*
X121075051Y-47591751D01*
X120825075Y-47607080D01*
X120506088Y-47404999D01*
X120466235Y-47372219D01*
X120126819Y-47176397D01*
X119821048Y-47105080D01*
X119482117Y-47011116D01*
X119224866Y-46833422D01*
X118940375Y-46648935D01*
X118519595Y-46569606D01*
X118255296Y-46561765D01*
X117835075Y-46541619D01*
X117525706Y-46449620D01*
X117391736Y-46358021D01*
X117380005Y-46350000D01*
X120370000Y-46350000D01*
X120510000Y-46450000D01*
X120670000Y-46350000D01*
X120515240Y-46270000D01*
X120370000Y-46350000D01*
X117380005Y-46350000D01*
X117216821Y-46238427D01*
X116949963Y-46001863D01*
X116342541Y-45441961D01*
X115270869Y-45503999D01*
X114770783Y-45519616D01*
X114395283Y-45505949D01*
X114208789Y-45466160D01*
X114199197Y-45451403D01*
X114312116Y-45339730D01*
X114540980Y-45195475D01*
X114609742Y-45152134D01*
X114744560Y-45080000D01*
X116670000Y-45080000D01*
X116790000Y-45270000D01*
X117010000Y-45490000D01*
X117330000Y-45740000D01*
X117610000Y-45910000D01*
X117890000Y-46060000D01*
X117860000Y-45940000D01*
X117540000Y-45640000D01*
X117420000Y-45520000D01*
X117100000Y-45290000D01*
X116870000Y-45130000D01*
X116670000Y-45080000D01*
X114744560Y-45080000D01*
X115030376Y-44927075D01*
X115079730Y-44902558D01*
X115548841Y-44679140D01*
X115884186Y-44561780D01*
X116194162Y-44533434D01*
X116587167Y-44577055D01*
X116860465Y-44622546D01*
X117433304Y-44756702D01*
X117877127Y-44930113D01*
X118051323Y-45045680D01*
X118337223Y-45245427D01*
X118753326Y-45462220D01*
X119225335Y-45666534D01*
X119678952Y-45828849D01*
X120039878Y-45919639D01*
X120230775Y-45911702D01*
X120384164Y-45871301D01*
X120427070Y-45860000D01*
X123960000Y-45860000D01*
X123980000Y-46230000D01*
X124060000Y-46220000D01*
X124110000Y-45820000D01*
X124150000Y-45510000D01*
X124230000Y-45210000D01*
X124180000Y-45150000D01*
X124080000Y-45300000D01*
X124000000Y-45550000D01*
X123960000Y-45860000D01*
X120427070Y-45860000D01*
X120445150Y-45855238D01*
X120824057Y-45829154D01*
X121058555Y-45831301D01*
X121901222Y-45736913D01*
X122514623Y-45529639D01*
X122954288Y-45356711D01*
X123308032Y-45238454D01*
X123472737Y-45203476D01*
X123666272Y-45111855D01*
X123955721Y-44878683D01*
X124122017Y-44716486D01*
X124692784Y-44214113D01*
X125278261Y-43914387D01*
X125952292Y-43793085D01*
X126788721Y-43825983D01*
G37*
G36*
X71430000Y-101000000D02*
G01*
X71430000Y-101070000D01*
X71420000Y-101150000D01*
X71239226Y-101229303D01*
X70772756Y-101382771D01*
X70564170Y-101443730D01*
X69930513Y-101633728D01*
X69291261Y-101843384D01*
X68771885Y-102031305D01*
X68716275Y-102053365D01*
X67988968Y-102346495D01*
X68759614Y-102426033D01*
X69307576Y-102506537D01*
X69654124Y-102646069D01*
X69869474Y-102899747D01*
X70023840Y-103322689D01*
X70056665Y-103444214D01*
X70224528Y-104085294D01*
X70406557Y-103656496D01*
X70625082Y-103313123D01*
X70948040Y-102982069D01*
X71260000Y-102750000D01*
X71420000Y-102730000D01*
X71520000Y-102810000D01*
X71560000Y-103140000D01*
X71560000Y-103380000D01*
X71560000Y-103740000D01*
X71520000Y-103760000D01*
X71430000Y-103700000D01*
X71360000Y-103630000D01*
X71279877Y-103552359D01*
X71150220Y-103474064D01*
X71003729Y-103593094D01*
X70873071Y-103883787D01*
X70788773Y-104246544D01*
X70781361Y-104581767D01*
X70792712Y-104640475D01*
X70900649Y-104891576D01*
X71110121Y-104955910D01*
X71278288Y-104939059D01*
X71470000Y-104980000D01*
X71520000Y-105060000D01*
X71550000Y-105250000D01*
X71520000Y-105340000D01*
X71449958Y-105412870D01*
X71303989Y-105398469D01*
X71330921Y-105488415D01*
X71430000Y-105610000D01*
X71520000Y-105680000D01*
X71550000Y-105770000D01*
X71580000Y-105860000D01*
X71540000Y-106010000D01*
X71484365Y-106112742D01*
X71481015Y-106111714D01*
X71273530Y-106053846D01*
X70915445Y-105959217D01*
X70767914Y-105921065D01*
X70413812Y-105791936D01*
X70210847Y-105643092D01*
X70190641Y-105589157D01*
X70064533Y-105470851D01*
X69723966Y-105347187D01*
X69225577Y-105230279D01*
X68626002Y-105132241D01*
X67981879Y-105065187D01*
X67655183Y-105046849D01*
X67067284Y-104967148D01*
X66680927Y-104788996D01*
X66525094Y-104526633D01*
X66523261Y-104490681D01*
X66412704Y-104302957D01*
X66285561Y-104227608D01*
X66130649Y-104187814D01*
X66200676Y-104290886D01*
X66217646Y-104308156D01*
X66374715Y-104542046D01*
X66317036Y-104679095D01*
X66216362Y-104696524D01*
X66016264Y-104592657D01*
X65878689Y-104429750D01*
X65800608Y-104257527D01*
X65867945Y-104153208D01*
X66727005Y-104153208D01*
X66737774Y-104278372D01*
X66786903Y-104289037D01*
X66925220Y-104190438D01*
X66930748Y-104153208D01*
X66884405Y-104020911D01*
X66870850Y-104017379D01*
X66754883Y-104112560D01*
X66727005Y-104153208D01*
X65867945Y-104153208D01*
X65873084Y-104145246D01*
X66145172Y-104041332D01*
X66287460Y-103999991D01*
X66808759Y-103792150D01*
X67054593Y-103553328D01*
X67745721Y-103553328D01*
X67829605Y-103548463D01*
X68018212Y-103405396D01*
X68197296Y-103205568D01*
X68228423Y-103096516D01*
X68102928Y-103128333D01*
X67917534Y-103285079D01*
X67772270Y-103472091D01*
X67745721Y-103553328D01*
X67054593Y-103553328D01*
X67100134Y-103509086D01*
X67201184Y-103109578D01*
X67202406Y-103047529D01*
X67328787Y-102674251D01*
X67710623Y-102302460D01*
X68351950Y-101929802D01*
X69256808Y-101553923D01*
X70409028Y-101178428D01*
X71003812Y-101009190D01*
X71310000Y-100930000D01*
X71410000Y-100930000D01*
X71430000Y-101000000D01*
G37*
G36*
X65952440Y-105645547D02*
G01*
X65953932Y-105646372D01*
X66336739Y-105833165D01*
X66866145Y-106061124D01*
X67431362Y-106284526D01*
X67913615Y-106455095D01*
X68350793Y-106636685D01*
X68531838Y-106824833D01*
X68499587Y-106994601D01*
X68334921Y-107031189D01*
X68050127Y-106935903D01*
X67623226Y-106761169D01*
X67270320Y-106652729D01*
X67003242Y-106599981D01*
X66954166Y-106647401D01*
X67043319Y-106772193D01*
X67274943Y-106946138D01*
X67655169Y-107136016D01*
X67858292Y-107215196D01*
X68389400Y-107417141D01*
X68933549Y-107645390D01*
X69068445Y-107706470D01*
X69542496Y-107868512D01*
X69994039Y-107931083D01*
X70087161Y-107926687D01*
X70530213Y-107879505D01*
X69958675Y-107710526D01*
X69530186Y-107546805D01*
X69281112Y-107373856D01*
X69252482Y-107221509D01*
X69265372Y-107206463D01*
X69411549Y-107216164D01*
X69757335Y-107287291D01*
X70241656Y-107404835D01*
X70803438Y-107553788D01*
X71381607Y-107719142D01*
X71514973Y-107759281D01*
X71610000Y-107860000D01*
X71640000Y-107970000D01*
X71590000Y-108080000D01*
X71521676Y-108120339D01*
X71388140Y-108085087D01*
X71040929Y-108007338D01*
X70913373Y-108020436D01*
X71023324Y-108105783D01*
X71272130Y-108205929D01*
X71584281Y-108362323D01*
X71640000Y-108470000D01*
X71650000Y-108570000D01*
X71670000Y-108730000D01*
X71670000Y-109080000D01*
X71670000Y-109500000D01*
X71660000Y-109870000D01*
X71670000Y-110070000D01*
X71662121Y-110191364D01*
X71653812Y-110181478D01*
X71466251Y-110065116D01*
X71121438Y-109963042D01*
X71008625Y-109942172D01*
X70647663Y-109831436D01*
X70467325Y-109672010D01*
X70494804Y-109510932D01*
X70699999Y-109408336D01*
X70854149Y-109357532D01*
X70745084Y-109334735D01*
X70681016Y-109330462D01*
X70387561Y-109415901D01*
X70273530Y-109517985D01*
X70109201Y-109643219D01*
X69842536Y-109634742D01*
X69647325Y-109585412D01*
X69180887Y-109422875D01*
X68899895Y-109262742D01*
X68842089Y-109127659D01*
X68855562Y-109110391D01*
X69021490Y-109104836D01*
X69331744Y-109193767D01*
X69433933Y-109234006D01*
X69721913Y-109333519D01*
X69852629Y-109335926D01*
X69848085Y-109309877D01*
X69875447Y-109184490D01*
X69944924Y-109165337D01*
X69969415Y-109126160D01*
X69783154Y-109054058D01*
X69514938Y-108888845D01*
X69464862Y-108713536D01*
X69443404Y-108557250D01*
X69335825Y-108621073D01*
X69111551Y-108762879D01*
X68982320Y-108681026D01*
X68968181Y-108580363D01*
X68868343Y-108446893D01*
X68696523Y-108460376D01*
X68457501Y-108576239D01*
X68478720Y-108753284D01*
X68585596Y-108877789D01*
X68707449Y-109054892D01*
X68610252Y-109108794D01*
X68316700Y-109040214D01*
X67860206Y-108854784D01*
X67211428Y-108502901D01*
X66811179Y-108146292D01*
X66707157Y-107917147D01*
X67202406Y-107917147D01*
X67291329Y-108125332D01*
X67581364Y-108208810D01*
X67802317Y-108209577D01*
X68062466Y-108192526D01*
X68064846Y-108166724D01*
X67881550Y-108128648D01*
X67550750Y-108026619D01*
X67372192Y-107926771D01*
X67225730Y-107865813D01*
X67202406Y-107917147D01*
X66707157Y-107917147D01*
X66636913Y-107762409D01*
X66625133Y-107619672D01*
X66539185Y-107318541D01*
X66318314Y-107196919D01*
X66049517Y-107011939D01*
X65809566Y-106659669D01*
X65649192Y-106243591D01*
X65633762Y-106050410D01*
X65912031Y-106050410D01*
X66232694Y-106324269D01*
X66503863Y-106539923D01*
X66629682Y-106583958D01*
X66659090Y-106484102D01*
X66547973Y-106355601D01*
X66285561Y-106210243D01*
X65912031Y-106050410D01*
X65633762Y-106050410D01*
X65619127Y-105867189D01*
X65634424Y-105801901D01*
X65753324Y-105605903D01*
X65952440Y-105645547D01*
G37*
G36*
X119554268Y-39245607D02*
G01*
X120256985Y-39293084D01*
X120735147Y-39368565D01*
X120969488Y-39469685D01*
X120990641Y-39516435D01*
X120873298Y-39603091D01*
X120617112Y-39637475D01*
X119981038Y-39762061D01*
X119335165Y-40088395D01*
X118753660Y-40559871D01*
X118310695Y-41119882D01*
X118120050Y-41543229D01*
X117991395Y-41889172D01*
X117830365Y-42042925D01*
X117554629Y-42079325D01*
X117530158Y-42079412D01*
X116622780Y-42210805D01*
X115748406Y-42589107D01*
X114979722Y-43173841D01*
X114582682Y-43549111D01*
X114327021Y-43756256D01*
X114161732Y-43818945D01*
X114035806Y-43760847D01*
X113939894Y-43656330D01*
X113732020Y-43499002D01*
X113366371Y-43297633D01*
X113084666Y-43166991D01*
X112359825Y-42955273D01*
X111728688Y-42976335D01*
X111215413Y-43228973D01*
X111176852Y-43262108D01*
X110970305Y-43423568D01*
X110850560Y-43390214D01*
X110752254Y-43233957D01*
X110573640Y-42990239D01*
X110273805Y-42648026D01*
X110121669Y-42490000D01*
X113520000Y-42490000D01*
X113730000Y-42540000D01*
X114000000Y-42480000D01*
X114000000Y-42380000D01*
X113810000Y-42340000D01*
X113600000Y-42360000D01*
X113520000Y-42490000D01*
X110121669Y-42490000D01*
X110087419Y-42454424D01*
X110026961Y-42391626D01*
X109615979Y-42079412D01*
X111278876Y-42079412D01*
X111289646Y-42204576D01*
X111338774Y-42215240D01*
X111477092Y-42116641D01*
X111482620Y-42079412D01*
X111436277Y-41947114D01*
X111422721Y-41943583D01*
X111306755Y-42038763D01*
X111278876Y-42079412D01*
X109615979Y-42079412D01*
X109408825Y-41922042D01*
X108666564Y-41578651D01*
X107912938Y-41409730D01*
X107711353Y-41400267D01*
X107461922Y-41356750D01*
X107442393Y-41243796D01*
X107628474Y-41087799D01*
X107826964Y-40994528D01*
X107880267Y-40969481D01*
X108526775Y-40969481D01*
X108740000Y-41090000D01*
X108961509Y-41179325D01*
X109241443Y-41323387D01*
X109690000Y-41570000D01*
X109950000Y-41720000D01*
X110180000Y-41810000D01*
X110260000Y-41700000D01*
X109940000Y-41460000D01*
X109730000Y-41310000D01*
X109420000Y-41160000D01*
X109050000Y-41020000D01*
X108781484Y-40950000D01*
X108526775Y-40969481D01*
X107880267Y-40969481D01*
X107995876Y-40915156D01*
X108233523Y-40832861D01*
X109092883Y-40647561D01*
X109947017Y-40613257D01*
X110696165Y-40732420D01*
X110808670Y-40769105D01*
X111172268Y-40946566D01*
X111631108Y-41233868D01*
X112009370Y-41510202D01*
X112506441Y-41868422D01*
X112867756Y-42055124D01*
X113072802Y-42061853D01*
X113112566Y-41964794D01*
X113234730Y-41907116D01*
X113548610Y-41881639D01*
X113825668Y-41886820D01*
X114402531Y-41852719D01*
X114807183Y-41695218D01*
X115002159Y-41431795D01*
X115012685Y-41344644D01*
X115623119Y-41344644D01*
X115634197Y-41414500D01*
X115829451Y-41532187D01*
X116006556Y-41449236D01*
X116047815Y-41291672D01*
X115909429Y-41198791D01*
X115757659Y-41216689D01*
X115623119Y-41344644D01*
X115012685Y-41344644D01*
X115014170Y-41332353D01*
X115125287Y-41091133D01*
X115385202Y-40859111D01*
X115683760Y-40727597D01*
X115751550Y-40721123D01*
X116004231Y-40614748D01*
X116364567Y-40321603D01*
X116510980Y-40169525D01*
X117082120Y-40169525D01*
X117094954Y-40431033D01*
X117140000Y-40740000D01*
X117280000Y-41060000D01*
X117429772Y-41247346D01*
X117510000Y-41370000D01*
X117610000Y-41260000D01*
X117430000Y-40940000D01*
X117360000Y-40720000D01*
X117320000Y-40410000D01*
X117320000Y-40050000D01*
X117410000Y-39850000D01*
X117280000Y-39890000D01*
X117183105Y-40003662D01*
X117082120Y-40169525D01*
X116510980Y-40169525D01*
X116789084Y-39880660D01*
X117084231Y-39526434D01*
X117217838Y-39387354D01*
X117392574Y-39299460D01*
X117668313Y-39251334D01*
X118104927Y-39231555D01*
X118646263Y-39228500D01*
X119554268Y-39245607D01*
G37*
G36*
X175399985Y-38918595D02*
G01*
X175687289Y-39259613D01*
X175874920Y-39513686D01*
X175921779Y-39620546D01*
X175787505Y-39697439D01*
X175456248Y-39869602D01*
X174975087Y-40113009D01*
X174391102Y-40403636D01*
X174272145Y-40462340D01*
X173708668Y-40750405D01*
X173275524Y-40992310D01*
X173007899Y-41166696D01*
X172940979Y-41252206D01*
X172962512Y-41257302D01*
X173272811Y-41342630D01*
X173471919Y-41607951D01*
X173589657Y-42095110D01*
X173596769Y-42147326D01*
X173654616Y-42570219D01*
X173706356Y-42916499D01*
X173713918Y-42962299D01*
X173684787Y-43172692D01*
X173575550Y-43195059D01*
X173351739Y-43227992D01*
X172992701Y-43355685D01*
X172791751Y-43446223D01*
X172301030Y-43633780D01*
X171962049Y-43625463D01*
X171727672Y-43410452D01*
X171617244Y-43176664D01*
X171556321Y-43090112D01*
X172198128Y-43090112D01*
X172269044Y-43275955D01*
X172333956Y-43301871D01*
X172465898Y-43204383D01*
X172469785Y-43174059D01*
X172371052Y-42990101D01*
X172333956Y-42962299D01*
X172217673Y-42993092D01*
X172198128Y-43090112D01*
X171556321Y-43090112D01*
X171368758Y-42823647D01*
X171119801Y-42712021D01*
X170745703Y-42721923D01*
X170542604Y-42941396D01*
X170475000Y-43175000D01*
X170425000Y-43350000D01*
X170350000Y-43525000D01*
X170250000Y-43750000D01*
X170150000Y-43925000D01*
X170100000Y-43975000D01*
X169975000Y-44000000D01*
X169900000Y-43925000D01*
X169900000Y-43800000D01*
X169925000Y-43625000D01*
X169975000Y-43400000D01*
X170025000Y-43250000D01*
X170075000Y-43125000D01*
X170175000Y-42925000D01*
X170212791Y-42780766D01*
X170248808Y-42625778D01*
X172486868Y-42625778D01*
X172552232Y-42815361D01*
X172686661Y-43009926D01*
X172849449Y-42942943D01*
X173003546Y-42708494D01*
X173122923Y-42380333D01*
X173119097Y-42132580D01*
X173004518Y-42032584D01*
X172886006Y-42072636D01*
X172760672Y-42197220D01*
X172833209Y-42365530D01*
X172886006Y-42432186D01*
X173003424Y-42602210D01*
X172908559Y-42622354D01*
X172775400Y-42591084D01*
X172530189Y-42542483D01*
X172486868Y-42625778D01*
X170248808Y-42625778D01*
X170271152Y-42529631D01*
X170260989Y-42396346D01*
X171428431Y-42396346D01*
X171447076Y-42477096D01*
X171518983Y-42486898D01*
X171630786Y-42437201D01*
X171609536Y-42396346D01*
X171448339Y-42380090D01*
X171428431Y-42396346D01*
X170260989Y-42396346D01*
X170259438Y-42376000D01*
X170213821Y-42368175D01*
X170043241Y-42446885D01*
X169691049Y-42612241D01*
X169220987Y-42834269D01*
X169007744Y-42935313D01*
X168478744Y-43180261D01*
X168122822Y-43319043D01*
X167869901Y-43366624D01*
X167649902Y-43337968D01*
X167446546Y-43268700D01*
X167112823Y-43098128D01*
X167987432Y-43098128D01*
X168055347Y-43166043D01*
X168123261Y-43098128D01*
X168055347Y-43030214D01*
X167987432Y-43098128D01*
X167112823Y-43098128D01*
X167070778Y-43076638D01*
X166943409Y-42868485D01*
X166976783Y-42803832D01*
X167353564Y-42803832D01*
X167372210Y-42884582D01*
X167444117Y-42894385D01*
X167555919Y-42844687D01*
X167534669Y-42803832D01*
X167373472Y-42787576D01*
X167353564Y-42803832D01*
X166976783Y-42803832D01*
X167046898Y-42668003D01*
X168711853Y-42668003D01*
X168730498Y-42748753D01*
X168802406Y-42758556D01*
X168914208Y-42708858D01*
X168892958Y-42668003D01*
X168731761Y-42651747D01*
X168711853Y-42668003D01*
X167046898Y-42668003D01*
X167068147Y-42626838D01*
X167250186Y-42486898D01*
X167919518Y-42486898D01*
X167950310Y-42603181D01*
X168047331Y-42622727D01*
X168233174Y-42551811D01*
X168259090Y-42486898D01*
X168208910Y-42418984D01*
X169074063Y-42418984D01*
X169141978Y-42486898D01*
X169209892Y-42418984D01*
X169141978Y-42351069D01*
X169074063Y-42418984D01*
X168208910Y-42418984D01*
X168161602Y-42354957D01*
X168131277Y-42351069D01*
X167947319Y-42449803D01*
X167919518Y-42486898D01*
X167250186Y-42486898D01*
X167448701Y-42334293D01*
X167533725Y-42283155D01*
X170839839Y-42283155D01*
X170907753Y-42351069D01*
X170975668Y-42283155D01*
X170907753Y-42215240D01*
X170839839Y-42283155D01*
X167533725Y-42283155D01*
X167674576Y-42198440D01*
X167758591Y-42147326D01*
X168666577Y-42147326D01*
X168734491Y-42215240D01*
X168766965Y-42182766D01*
X171713724Y-42182766D01*
X171847236Y-42204517D01*
X172023408Y-42179544D01*
X172025512Y-42133177D01*
X171843720Y-42100752D01*
X171765173Y-42122454D01*
X171713724Y-42182766D01*
X168766965Y-42182766D01*
X168802406Y-42147326D01*
X168734491Y-42079412D01*
X168666577Y-42147326D01*
X167758591Y-42147326D01*
X167923599Y-42046937D01*
X169132975Y-42046937D01*
X169266488Y-42068688D01*
X169442660Y-42043715D01*
X169444763Y-41997348D01*
X169262971Y-41964924D01*
X169184424Y-41986625D01*
X169132975Y-42046937D01*
X167923599Y-42046937D01*
X168083011Y-41949952D01*
X168267936Y-41795889D01*
X168256595Y-41739839D01*
X168666577Y-41739839D01*
X168734491Y-41807754D01*
X168802406Y-41739839D01*
X168734491Y-41671925D01*
X168666577Y-41739839D01*
X168256595Y-41739839D01*
X168251519Y-41714750D01*
X168191176Y-41697468D01*
X167893575Y-41570850D01*
X167776490Y-41467356D01*
X167597348Y-41361871D01*
X169026302Y-41361871D01*
X169049142Y-41466291D01*
X169261889Y-41630676D01*
X169359899Y-41686472D01*
X169777617Y-41887766D01*
X169989880Y-41934821D01*
X170024866Y-41889007D01*
X169915173Y-41763493D01*
X169882491Y-41742502D01*
X171007718Y-41742502D01*
X171144781Y-41899310D01*
X171271973Y-41943583D01*
X171326726Y-41865975D01*
X171244601Y-41736557D01*
X171214626Y-41710860D01*
X171540878Y-41710860D01*
X171573927Y-41786767D01*
X171710692Y-41932586D01*
X171789319Y-41902673D01*
X171790641Y-41883684D01*
X171696018Y-41771005D01*
X172634771Y-41771005D01*
X172769677Y-41804164D01*
X172843315Y-41805674D01*
X173081793Y-41756168D01*
X173148930Y-41671925D01*
X173063423Y-41545535D01*
X172816033Y-41626438D01*
X172741443Y-41671925D01*
X172634771Y-41771005D01*
X171696018Y-41771005D01*
X171694165Y-41768798D01*
X171633825Y-41726869D01*
X171540878Y-41710860D01*
X171214626Y-41710860D01*
X171078510Y-41594168D01*
X171010625Y-41591691D01*
X171007718Y-41742502D01*
X169882491Y-41742502D01*
X169655420Y-41596659D01*
X169349596Y-41443400D01*
X169101688Y-41358612D01*
X169026302Y-41361871D01*
X167597348Y-41361871D01*
X167529032Y-41321644D01*
X167387800Y-41309028D01*
X167110739Y-41239758D01*
X167071675Y-41188819D01*
X171290943Y-41188819D01*
X171383154Y-41264438D01*
X171630773Y-41379375D01*
X171722727Y-41396107D01*
X171747023Y-41340058D01*
X171654812Y-41264438D01*
X171446064Y-41167544D01*
X171948365Y-41167544D01*
X171981414Y-41243452D01*
X172118179Y-41389270D01*
X172196805Y-41359358D01*
X172198128Y-41340369D01*
X172101651Y-41225483D01*
X172081994Y-41211823D01*
X172380647Y-41211823D01*
X172401871Y-41264438D01*
X172523928Y-41394017D01*
X172545716Y-41400267D01*
X172604057Y-41295178D01*
X172605614Y-41264438D01*
X172501195Y-41133829D01*
X172461769Y-41128609D01*
X172380647Y-41211823D01*
X172081994Y-41211823D01*
X172041312Y-41183553D01*
X171948365Y-41167544D01*
X171446064Y-41167544D01*
X171407194Y-41149502D01*
X171315240Y-41132769D01*
X171290943Y-41188819D01*
X167071675Y-41188819D01*
X166954314Y-41035784D01*
X166970348Y-40794039D01*
X167057296Y-40690819D01*
X167083792Y-40653208D01*
X172469785Y-40653208D01*
X172537700Y-40721123D01*
X172605614Y-40653208D01*
X172544491Y-40592085D01*
X172897646Y-40592085D01*
X172940371Y-40707962D01*
X173006309Y-40700748D01*
X173152057Y-40586469D01*
X173159117Y-40547941D01*
X173070505Y-40442194D01*
X172934650Y-40518745D01*
X172897646Y-40592085D01*
X172544491Y-40592085D01*
X172537700Y-40585294D01*
X172469785Y-40653208D01*
X167083792Y-40653208D01*
X167137866Y-40576450D01*
X169243195Y-40576450D01*
X169261774Y-40585294D01*
X169385730Y-40489673D01*
X169413636Y-40449465D01*
X169448248Y-40322480D01*
X169429668Y-40313636D01*
X169305713Y-40409257D01*
X169277807Y-40449465D01*
X169243195Y-40576450D01*
X167137866Y-40576450D01*
X167275166Y-40381551D01*
X167579946Y-40381551D01*
X167647860Y-40449465D01*
X167715775Y-40381551D01*
X167647860Y-40313636D01*
X167579946Y-40381551D01*
X167275166Y-40381551D01*
X167304509Y-40339898D01*
X167362684Y-39902635D01*
X167325969Y-39798553D01*
X170315416Y-39798553D01*
X170387176Y-39896082D01*
X170490351Y-39976980D01*
X170731047Y-40110603D01*
X170833618Y-40073216D01*
X170777509Y-39915186D01*
X170578434Y-39790149D01*
X170458293Y-39774640D01*
X170315416Y-39798553D01*
X167325969Y-39798553D01*
X167292053Y-39702406D01*
X169345721Y-39702406D01*
X169413636Y-39770321D01*
X169481550Y-39702406D01*
X169413636Y-39634492D01*
X169889037Y-39634492D01*
X169992399Y-39766374D01*
X170024866Y-39770321D01*
X170156747Y-39666958D01*
X170160694Y-39634492D01*
X170057332Y-39502610D01*
X170024866Y-39498663D01*
X169892984Y-39602025D01*
X169889037Y-39634492D01*
X169413636Y-39634492D01*
X169345721Y-39702406D01*
X167292053Y-39702406D01*
X167244140Y-39566577D01*
X167987432Y-39566577D01*
X168055347Y-39634492D01*
X168123261Y-39566577D01*
X168055347Y-39498663D01*
X167987432Y-39566577D01*
X167244140Y-39566577D01*
X167228992Y-39523633D01*
X167108233Y-39285393D01*
X167204267Y-39203231D01*
X167375019Y-39221845D01*
X167640930Y-39201661D01*
X167984754Y-39092271D01*
X168306685Y-38936979D01*
X168506916Y-38779086D01*
X168530748Y-38720416D01*
X168641220Y-38579104D01*
X168836363Y-38572371D01*
X169081568Y-38694244D01*
X169131193Y-38921390D01*
X169138808Y-39091897D01*
X169216827Y-39190656D01*
X169425312Y-39241787D01*
X169824324Y-39269408D01*
X170019082Y-39277941D01*
X170391978Y-39389940D01*
X170835866Y-39711733D01*
X171037798Y-39900473D01*
X171401397Y-40229460D01*
X171604776Y-40344524D01*
X171630559Y-40312961D01*
X172142683Y-40312961D01*
X172154963Y-40361024D01*
X172361823Y-40439328D01*
X172564324Y-40249489D01*
X172605614Y-40177807D01*
X173488502Y-40177807D01*
X173499271Y-40302971D01*
X173548400Y-40313636D01*
X173686718Y-40215036D01*
X173692245Y-40177807D01*
X173645902Y-40045510D01*
X173632347Y-40041978D01*
X173516380Y-40137159D01*
X173488502Y-40177807D01*
X172605614Y-40177807D01*
X172654334Y-40039763D01*
X174033187Y-40039763D01*
X174062697Y-40157886D01*
X174159630Y-40177807D01*
X174345909Y-40146308D01*
X174371390Y-40117909D01*
X174271858Y-39991124D01*
X174092764Y-39988299D01*
X174033187Y-40039763D01*
X172654334Y-40039763D01*
X172678742Y-39970605D01*
X172644350Y-39910469D01*
X172443449Y-39989199D01*
X172244267Y-40152786D01*
X172142683Y-40312961D01*
X171630559Y-40312961D01*
X171654812Y-40283271D01*
X171776034Y-40113740D01*
X172120354Y-39849452D01*
X173028818Y-39849452D01*
X173098874Y-39946647D01*
X173272787Y-39958266D01*
X173526702Y-39843819D01*
X173662045Y-39728292D01*
X174600832Y-39728292D01*
X174607302Y-39861948D01*
X174801721Y-39870387D01*
X175147789Y-39729452D01*
X175161597Y-39721852D01*
X175367640Y-39570924D01*
X175343365Y-39441435D01*
X175297426Y-39398871D01*
X175094249Y-39336708D01*
X174826161Y-39487487D01*
X174818610Y-39493579D01*
X174600832Y-39728292D01*
X173662045Y-39728292D01*
X173740691Y-39661161D01*
X173766196Y-39624725D01*
X173809910Y-39446629D01*
X173647293Y-39418561D01*
X173370226Y-39515380D01*
X173077551Y-39688996D01*
X173028818Y-39849452D01*
X172120354Y-39849452D01*
X172129979Y-39842064D01*
X172702066Y-39478515D01*
X173217684Y-39179099D01*
X174006397Y-39179099D01*
X174031817Y-39227005D01*
X174220230Y-39356177D01*
X174422539Y-39314445D01*
X174507219Y-39144559D01*
X174426212Y-38991150D01*
X174292366Y-39008730D01*
X174071088Y-39080807D01*
X174012692Y-39091176D01*
X174006397Y-39179099D01*
X173217684Y-39179099D01*
X173240992Y-39165564D01*
X173785305Y-38858453D01*
X174800771Y-38858453D01*
X174833820Y-38934361D01*
X174970585Y-39080179D01*
X175049212Y-39050267D01*
X175050534Y-39031278D01*
X174954058Y-38916392D01*
X174893718Y-38874462D01*
X174800771Y-38858453D01*
X173785305Y-38858453D01*
X174827173Y-38270612D01*
X175399985Y-38918595D01*
G37*
G36*
X76506617Y-100201786D02*
G01*
X77149744Y-100273906D01*
X77667124Y-100427209D01*
X78130918Y-100687631D01*
X78613287Y-101081105D01*
X78893434Y-101344983D01*
X79410580Y-101816216D01*
X79884311Y-102161184D01*
X80373437Y-102399517D01*
X80936767Y-102550844D01*
X81633111Y-102634798D01*
X82521278Y-102671006D01*
X82880880Y-102675962D01*
X83656616Y-102689496D01*
X84435556Y-102713650D01*
X85124304Y-102744936D01*
X85607219Y-102777834D01*
X86558021Y-102862834D01*
X86540696Y-103474064D01*
X86512911Y-104003115D01*
X86466397Y-104530106D01*
X86455692Y-104620496D01*
X86442367Y-105018837D01*
X86550586Y-105270581D01*
X86660885Y-105376656D01*
X86845866Y-105584826D01*
X86816667Y-105810707D01*
X86775819Y-105892722D01*
X86538612Y-106174263D01*
X86248379Y-106383270D01*
X85971006Y-106571755D01*
X85580361Y-106888630D01*
X85154868Y-107269799D01*
X85099824Y-107321933D01*
X84007425Y-108191763D01*
X82699692Y-108932023D01*
X81207664Y-109527593D01*
X79766577Y-109920065D01*
X79232256Y-110052839D01*
X78786837Y-110192138D01*
X78509552Y-110312414D01*
X78476202Y-110336151D01*
X78231380Y-110456248D01*
X77796031Y-110590071D01*
X77249546Y-110720647D01*
X76671316Y-110831005D01*
X76140734Y-110904174D01*
X75737189Y-110923182D01*
X75731394Y-110922915D01*
X75260257Y-110892423D01*
X74808823Y-110853660D01*
X74193679Y-110788229D01*
X73799596Y-110720653D01*
X73577354Y-110621485D01*
X73477730Y-110461279D01*
X73451504Y-110210588D01*
X73450534Y-110041078D01*
X73464030Y-109666379D01*
X73521650Y-109506304D01*
X73649094Y-109504444D01*
X73688235Y-109519327D01*
X74096127Y-109672785D01*
X74311364Y-109692452D01*
X74386426Y-109561611D01*
X74380701Y-109396265D01*
X74912145Y-109396265D01*
X75035849Y-109423117D01*
X75193671Y-109432037D01*
X75516303Y-109404886D01*
X75593058Y-109290425D01*
X75592669Y-109289238D01*
X75427264Y-109100410D01*
X75358699Y-109067873D01*
X75246172Y-109087183D01*
X75267332Y-109151544D01*
X75226952Y-109282980D01*
X75048538Y-109354412D01*
X74912145Y-109396265D01*
X74380701Y-109396265D01*
X74377361Y-109299795D01*
X74307983Y-108973166D01*
X74130583Y-108820699D01*
X73927594Y-108770938D01*
X73617523Y-108651575D01*
X73478618Y-108477334D01*
X73487708Y-108340069D01*
X73633103Y-108311129D01*
X73948547Y-108369003D01*
X74279214Y-108436549D01*
X74466116Y-108461213D01*
X74479885Y-108458269D01*
X74532337Y-108327136D01*
X74645389Y-108024331D01*
X78747860Y-108024331D01*
X78815775Y-108092246D01*
X78843433Y-108064588D01*
X80320654Y-108064588D01*
X80338450Y-108228075D01*
X80417302Y-108447511D01*
X80461563Y-108499732D01*
X80503945Y-108385429D01*
X80513636Y-108228075D01*
X80462028Y-108007276D01*
X80390523Y-107956417D01*
X80320654Y-108064588D01*
X78843433Y-108064588D01*
X78883689Y-108024331D01*
X78815775Y-107956417D01*
X78747860Y-108024331D01*
X74645389Y-108024331D01*
X74647550Y-108018542D01*
X74703390Y-107865864D01*
X79200623Y-107865864D01*
X79219268Y-107946614D01*
X79291176Y-107956417D01*
X79402978Y-107906719D01*
X79381728Y-107865864D01*
X79220531Y-107849608D01*
X79200623Y-107865864D01*
X74703390Y-107865864D01*
X74714634Y-107835120D01*
X81600267Y-107835120D01*
X81647623Y-107949002D01*
X81802153Y-107832888D01*
X81874505Y-107749564D01*
X81973608Y-107602306D01*
X81866291Y-107612267D01*
X81823222Y-107628267D01*
X81631880Y-107760920D01*
X81600267Y-107835120D01*
X74714634Y-107835120D01*
X74715679Y-107832264D01*
X79494919Y-107832264D01*
X79902127Y-107747471D01*
X80206847Y-107670750D01*
X80366209Y-107605804D01*
X80398048Y-107511083D01*
X80238382Y-107518066D01*
X79945722Y-107622193D01*
X79902406Y-107641951D01*
X79494919Y-107832264D01*
X74715679Y-107832264D01*
X74744788Y-107752674D01*
X74827600Y-107539254D01*
X78550097Y-107539254D01*
X78614551Y-107573961D01*
X78854679Y-107533508D01*
X79154750Y-107450878D01*
X82315018Y-107450878D01*
X82340011Y-107537095D01*
X82474367Y-107676505D01*
X82542180Y-107552640D01*
X82551069Y-107385936D01*
X82517791Y-107188877D01*
X82403062Y-107235141D01*
X82399909Y-107238272D01*
X82315018Y-107450878D01*
X79154750Y-107450878D01*
X79192674Y-107440435D01*
X79309621Y-107400211D01*
X80776147Y-107400211D01*
X80871364Y-107394038D01*
X81128578Y-107320667D01*
X81586740Y-107170137D01*
X81842018Y-107083701D01*
X82382628Y-106890006D01*
X82829682Y-106711686D01*
X83137093Y-106569211D01*
X83258779Y-106483050D01*
X83230213Y-106467101D01*
X83070225Y-106508997D01*
X82729200Y-106622017D01*
X82278607Y-106780178D01*
X81789913Y-106957498D01*
X81334585Y-107127996D01*
X80984093Y-107265689D01*
X80809904Y-107344597D01*
X80803974Y-107349145D01*
X80776147Y-107400211D01*
X79309621Y-107400211D01*
X79550731Y-107317281D01*
X79851040Y-107186585D01*
X79937339Y-107137391D01*
X80092993Y-107028459D01*
X80018381Y-107033750D01*
X79944858Y-107055750D01*
X79669584Y-107135605D01*
X79273450Y-107245320D01*
X79169577Y-107273441D01*
X78811106Y-107391956D01*
X78580275Y-107509035D01*
X78550097Y-107539254D01*
X74827600Y-107539254D01*
X74905089Y-107339551D01*
X74991238Y-107146761D01*
X75784660Y-107146761D01*
X75841221Y-107287796D01*
X76006807Y-107248602D01*
X76067200Y-107196079D01*
X76089125Y-107065580D01*
X78197285Y-107065580D01*
X78211650Y-107094217D01*
X78395239Y-107146262D01*
X78727292Y-107048522D01*
X78995933Y-106924014D01*
X79432800Y-106731118D01*
X79825750Y-106598358D01*
X79971431Y-106568389D01*
X80226464Y-106588163D01*
X80290848Y-106756071D01*
X80289471Y-106777252D01*
X80340551Y-106955957D01*
X80470366Y-106947038D01*
X80789111Y-106875303D01*
X80880948Y-106869786D01*
X81015981Y-106833182D01*
X80934548Y-106682382D01*
X80921122Y-106666043D01*
X80820503Y-106448643D01*
X80921122Y-106258556D01*
X81167062Y-106076802D01*
X81374556Y-106100303D01*
X81464384Y-106319155D01*
X81464438Y-106326470D01*
X81489601Y-106547554D01*
X81524257Y-106598128D01*
X81716991Y-106550546D01*
X82061029Y-106434097D01*
X83393150Y-106434097D01*
X83433956Y-106458139D01*
X83657175Y-106390509D01*
X83773529Y-106326470D01*
X83882249Y-106218843D01*
X83841443Y-106194801D01*
X83618225Y-106262432D01*
X83501871Y-106326470D01*
X83393150Y-106434097D01*
X82061029Y-106434097D01*
X82079335Y-106427901D01*
X82532951Y-106260348D01*
X82885138Y-106122727D01*
X84045186Y-106122727D01*
X84113101Y-106190642D01*
X84181015Y-106122727D01*
X84113101Y-106054813D01*
X84045186Y-106122727D01*
X82885138Y-106122727D01*
X82999497Y-106078040D01*
X83400634Y-105911131D01*
X83658020Y-105789774D01*
X83705614Y-105758511D01*
X83666123Y-105731402D01*
X83427914Y-105792143D01*
X83094384Y-105908589D01*
X82477077Y-106115343D01*
X82091609Y-106182046D01*
X81937093Y-106108776D01*
X81948977Y-106012064D01*
X82104350Y-105884982D01*
X82449000Y-105718104D01*
X82910896Y-105545888D01*
X82950279Y-105533065D01*
X83420137Y-105358792D01*
X83779735Y-105182594D01*
X83956090Y-105040656D01*
X83959857Y-105032499D01*
X83994075Y-104909665D01*
X83950908Y-104855580D01*
X83789681Y-104877872D01*
X83469716Y-104984164D01*
X82950337Y-105182083D01*
X82754812Y-105258410D01*
X82198901Y-105470240D01*
X81477443Y-105737104D01*
X80681752Y-106025593D01*
X79903140Y-106302300D01*
X79866293Y-106315227D01*
X79103370Y-106591918D01*
X78583273Y-106803379D01*
X78287433Y-106958353D01*
X78197285Y-107065580D01*
X76089125Y-107065580D01*
X76097503Y-107015715D01*
X76070936Y-106913032D01*
X75981572Y-106785460D01*
X75878631Y-106892354D01*
X75784660Y-107146761D01*
X74991238Y-107146761D01*
X75045346Y-107025675D01*
X75102631Y-106925275D01*
X75054348Y-106819108D01*
X74747446Y-106708790D01*
X74264269Y-106607325D01*
X73723673Y-106491550D01*
X73419147Y-106374450D01*
X73315400Y-106241946D01*
X73314705Y-106228448D01*
X73374271Y-106095744D01*
X73594732Y-106067342D01*
X73824063Y-106092510D01*
X74103625Y-106123470D01*
X74189290Y-106112659D01*
X74163636Y-106098963D01*
X74006212Y-105957424D01*
X73993850Y-105905077D01*
X74100303Y-105846417D01*
X74342675Y-105866839D01*
X74605483Y-105942490D01*
X74773243Y-106049521D01*
X74783641Y-106068196D01*
X74924614Y-106125338D01*
X75007603Y-106105837D01*
X75223638Y-106126695D01*
X75278501Y-106181382D01*
X75476889Y-106306403D01*
X75613290Y-106326470D01*
X75868813Y-106417641D01*
X76171405Y-106640808D01*
X76209473Y-106677534D01*
X76560537Y-107028598D01*
X78403514Y-106378689D01*
X79054475Y-106138808D01*
X79597882Y-105918786D01*
X79989666Y-105738035D01*
X80185760Y-105615969D01*
X80199418Y-105587561D01*
X80260211Y-105410652D01*
X80456286Y-105207262D01*
X80777936Y-105034986D01*
X81111257Y-104971419D01*
X81369008Y-105019813D01*
X81464438Y-105169682D01*
X81465255Y-105238236D01*
X81489527Y-105280253D01*
X81569986Y-105285932D01*
X81739363Y-105245471D01*
X82030390Y-105149068D01*
X82475799Y-104986922D01*
X83108321Y-104749231D01*
X83960688Y-104426195D01*
X84011108Y-104407079D01*
X84439810Y-104230775D01*
X84744992Y-104078963D01*
X84860038Y-103985245D01*
X84728850Y-103842417D01*
X84350712Y-103682342D01*
X83749246Y-103512061D01*
X82948072Y-103338615D01*
X82300682Y-103222362D01*
X81609835Y-103109554D01*
X81109937Y-103042240D01*
X80724196Y-103019931D01*
X80375824Y-103042143D01*
X79988031Y-103108386D01*
X79543496Y-103204882D01*
X79052349Y-103331904D01*
X78373956Y-103530663D01*
X77575996Y-103779029D01*
X76726149Y-104054875D01*
X75892096Y-104336075D01*
X75141516Y-104600499D01*
X74542089Y-104826021D01*
X74367379Y-104897185D01*
X74173112Y-104923407D01*
X74129678Y-104865767D01*
X74249357Y-104769936D01*
X74575352Y-104605752D01*
X75058100Y-104396100D01*
X75648040Y-104163864D01*
X75657753Y-104160212D01*
X76292537Y-103921745D01*
X76866047Y-103706318D01*
X77312152Y-103538771D01*
X77553023Y-103448331D01*
X77849816Y-103351687D01*
X78324859Y-103212725D01*
X78893109Y-103056014D01*
X79115055Y-102997113D01*
X79267248Y-102954375D01*
X82618983Y-102954375D01*
X83700475Y-103197200D01*
X84388027Y-103382494D01*
X84823927Y-103575541D01*
X84990850Y-103720719D01*
X85128871Y-103884311D01*
X85251756Y-103901934D01*
X85436936Y-103754834D01*
X85621599Y-103567952D01*
X86043467Y-103134492D01*
X85078284Y-103050373D01*
X84451241Y-103004810D01*
X83803470Y-102971940D01*
X83366042Y-102960315D01*
X82618983Y-102954375D01*
X79267248Y-102954375D01*
X79597280Y-102861697D01*
X79920209Y-102752989D01*
X80043571Y-102685716D01*
X80005793Y-102671395D01*
X79676438Y-102696976D01*
X79190162Y-102797837D01*
X78530647Y-102979038D01*
X77681573Y-103245640D01*
X76626622Y-103602704D01*
X75349477Y-104055290D01*
X74231550Y-104462088D01*
X73314705Y-104798636D01*
X73314705Y-103332531D01*
X73314705Y-101944922D01*
X74948790Y-101944922D01*
X74969370Y-102110092D01*
X75189873Y-102227909D01*
X75407336Y-102251604D01*
X75715501Y-102228557D01*
X75818071Y-102129702D01*
X75798981Y-101979946D01*
X75648799Y-101749725D01*
X75355489Y-101729816D01*
X75159504Y-101790735D01*
X74948790Y-101944922D01*
X73314705Y-101944922D01*
X73314705Y-101866427D01*
X74028298Y-101636286D01*
X76510521Y-101636286D01*
X76562705Y-101880750D01*
X76639263Y-102050994D01*
X76750600Y-102163909D01*
X76953526Y-102239071D01*
X77304850Y-102296055D01*
X77861383Y-102354438D01*
X77966844Y-102364600D01*
X78166501Y-102336365D01*
X78202096Y-102285561D01*
X78098569Y-102130140D01*
X77845556Y-101891671D01*
X77522709Y-101633032D01*
X77209679Y-101417099D01*
X76986117Y-101306751D01*
X76957263Y-101302882D01*
X76623585Y-101391124D01*
X76510521Y-101636286D01*
X74028298Y-101636286D01*
X74435293Y-101505026D01*
X74969433Y-101331719D01*
X75418713Y-101184045D01*
X75475435Y-101164973D01*
X78167170Y-101164973D01*
X78181963Y-101258444D01*
X78338578Y-101501178D01*
X78551385Y-101776203D01*
X78858498Y-102108433D01*
X79130505Y-102330423D01*
X79267904Y-102387433D01*
X79313208Y-102305384D01*
X79149840Y-102065130D01*
X78883689Y-101776203D01*
X78553941Y-101457738D01*
X78292139Y-101236637D01*
X78167170Y-101164973D01*
X75475435Y-101164973D01*
X75709167Y-101086384D01*
X75759625Y-101068526D01*
X76044865Y-100994741D01*
X76345438Y-100943579D01*
X76749470Y-100842748D01*
X77024582Y-100723738D01*
X77127572Y-100645123D01*
X77087201Y-100591281D01*
X76868791Y-100555200D01*
X76437667Y-100529871D01*
X75990961Y-100514791D01*
X75324747Y-100510357D01*
X74676297Y-100531650D01*
X74149962Y-100574330D01*
X73987485Y-100598120D01*
X73571932Y-100657233D01*
X73365213Y-100636624D01*
X73314705Y-100547140D01*
X73447804Y-100402611D01*
X73840406Y-100293433D01*
X74482465Y-100221154D01*
X75363938Y-100187321D01*
X75665580Y-100184916D01*
X76506617Y-100201786D01*
G37*
G04 #@! TD*
D12*
G04 #@! TO.C,JSAO1*
X204520000Y-42600000D03*
D13*
X204520000Y-45140000D03*
D14*
X207060000Y-42600000D03*
X207060000Y-45140000D03*
D13*
X209600000Y-42600000D03*
X209600000Y-45140000D03*
G04 #@! TD*
D15*
G04 #@! TO.C,D12*
X78149999Y-65799999D03*
D16*
X79800000Y-65800000D03*
X81449998Y-65800000D03*
X83099999Y-65800001D03*
G04 #@! TD*
D17*
G04 #@! TO.C,REF\u002A\u002A*
X214000000Y-39400000D03*
G04 #@! TD*
D18*
G04 #@! TO.C,C12*
X75800000Y-65500000D03*
X73313696Y-65238679D03*
G04 #@! TD*
G04 #@! TO.C,C24*
X70920000Y-86800000D03*
X70920000Y-89300000D03*
G04 #@! TD*
D17*
G04 #@! TO.C,REF\u002A\u002A*
X67000000Y-39400000D03*
G04 #@! TD*
D19*
G04 #@! TO.C,D21*
X97550134Y-93926961D03*
D20*
X99175067Y-94213480D03*
X100800000Y-94500000D03*
X102424933Y-94786519D03*
G04 #@! TD*
D21*
G04 #@! TO.C,D31*
X74295000Y-49640000D03*
D22*
X76835000Y-49640000D03*
G04 #@! TD*
D23*
G04 #@! TO.C,DS1*
X105720000Y-105000000D03*
D24*
X108260000Y-105000000D03*
X110800000Y-105000000D03*
X113340000Y-105000000D03*
X115880000Y-105000000D03*
X118420000Y-105000000D03*
X120960000Y-105000000D03*
X123500000Y-105000000D03*
G04 #@! TD*
D18*
G04 #@! TO.C,C21*
X105750000Y-101900000D03*
X108250000Y-101900000D03*
G04 #@! TD*
D25*
G04 #@! TO.C,R31*
X71000000Y-55600000D03*
X71000000Y-47980000D03*
G04 #@! TD*
D18*
G04 #@! TO.C,C10*
X100200000Y-70400000D03*
X97934232Y-69343454D03*
G04 #@! TD*
D25*
G04 #@! TO.C,R1*
X82452118Y-99661600D03*
X74947883Y-98338401D03*
G04 #@! TD*
G04 #@! TO.C,R32*
X102400000Y-42090000D03*
X102400000Y-49710000D03*
G04 #@! TD*
D18*
G04 #@! TO.C,C20*
X110900000Y-97700000D03*
X110899999Y-100200000D03*
G04 #@! TD*
G04 #@! TO.C,SW1*
X210600000Y-108100000D03*
X210600000Y-105600000D03*
X210600000Y-103100000D03*
G04 #@! TD*
D17*
G04 #@! TO.C,REF\u002A\u002A*
X214000000Y-135600000D03*
G04 #@! TD*
D25*
G04 #@! TO.C,R20*
X110532063Y-92700000D03*
X109867936Y-85108996D03*
G04 #@! TD*
D19*
G04 #@! TO.C,D22*
X90725201Y-92726961D03*
D20*
X92350134Y-93013480D03*
X93975067Y-93300000D03*
X95600000Y-93586519D03*
G04 #@! TD*
D21*
G04 #@! TO.C,D51*
X129000000Y-89400000D03*
D22*
X129000000Y-86860000D03*
G04 #@! TD*
D19*
G04 #@! TO.C,D20*
X104150134Y-95126961D03*
D20*
X105775067Y-95413480D03*
X107400000Y-95700000D03*
X109024933Y-95986519D03*
G04 #@! TD*
D25*
G04 #@! TO.C,R10*
X109035873Y-75408996D03*
X109700000Y-83000000D03*
G04 #@! TD*
D26*
G04 #@! TO.C,D2*
X99200000Y-101900000D03*
D22*
X101701412Y-102341066D03*
G04 #@! TD*
D19*
G04 #@! TO.C,D23*
X83636461Y-91383245D03*
D20*
X85261394Y-91669764D03*
X86886327Y-91956284D03*
X88511260Y-92242803D03*
G04 #@! TD*
D21*
G04 #@! TO.C,D32*
X97125000Y-46800000D03*
D22*
X99665000Y-46800000D03*
G04 #@! TD*
D21*
G04 #@! TO.C,D4*
X87725000Y-54300000D03*
D22*
X90265000Y-54300000D03*
G04 #@! TD*
D21*
G04 #@! TO.C,J1*
X205400000Y-108200000D03*
D22*
X205400000Y-103120000D03*
G04 #@! TD*
D25*
G04 #@! TO.C,R52*
X131600000Y-75200000D03*
X131600000Y-67580000D03*
G04 #@! TD*
D27*
G04 #@! TO.C,J21*
X202063450Y-66847978D03*
D28*
X200990000Y-69150000D03*
G04 #@! TD*
D17*
G04 #@! TO.C,REF\u002A\u002A*
X67000000Y-135600000D03*
G04 #@! TD*
D26*
G04 #@! TO.C,D1*
X84744370Y-99778599D03*
D22*
X87245782Y-100219665D03*
G04 #@! TD*
D29*
G04 #@! TO.C,D10*
X102500000Y-71600000D03*
D30*
X103995408Y-72297321D03*
X105490816Y-72994640D03*
X106986224Y-73691960D03*
G04 #@! TD*
D21*
G04 #@! TO.C,BT1*
X204800000Y-55400000D03*
D22*
X204800000Y-60480000D03*
G04 #@! TD*
D25*
G04 #@! TO.C,R2*
X96952118Y-101761600D03*
X89447883Y-100438401D03*
G04 #@! TD*
G04 #@! TO.C,R4*
X85080000Y-58100000D03*
X92700000Y-58100000D03*
G04 #@! TD*
G04 #@! TO.C,R51*
X129000000Y-92390000D03*
X129000000Y-100010000D03*
G04 #@! TD*
D18*
G04 #@! TO.C,C11*
X88200000Y-66300000D03*
X85713696Y-66038679D03*
G04 #@! TD*
D12*
G04 #@! TO.C,JSAO2*
X71520000Y-42600000D03*
D13*
X71520000Y-45140000D03*
D14*
X74060000Y-42600000D03*
X74060000Y-45140000D03*
D13*
X76600000Y-42600000D03*
X76600000Y-45140000D03*
G04 #@! TD*
D18*
G04 #@! TO.C,C22*
X71730000Y-96570000D03*
X71730000Y-99070000D03*
G04 #@! TD*
D25*
G04 #@! TO.C,R6*
X201900000Y-116290000D03*
X201900000Y-123910000D03*
G04 #@! TD*
D21*
G04 #@! TO.C,D52*
X131600000Y-77725000D03*
D22*
X131600000Y-80265000D03*
G04 #@! TD*
D31*
G04 #@! TO.C,J22*
X154343116Y-51680646D03*
D32*
X155416566Y-49378624D03*
G04 #@! TD*
D33*
G04 #@! TO.C,D11*
X90830757Y-66890122D03*
D34*
X92400000Y-67400000D03*
X93969245Y-67909877D03*
X95538487Y-68419755D03*
G04 #@! TD*
D21*
G04 #@! TO.C,D6*
X201800000Y-113775000D03*
D22*
X201800000Y-111235000D03*
G04 #@! TD*
D35*
G04 #@! TO.C,U1*
X191540000Y-99400000D03*
X194080000Y-99400000D03*
X168680000Y-99400000D03*
X189000000Y-99400000D03*
X181380000Y-99400000D03*
X196620000Y-76540000D03*
X199160000Y-99400000D03*
X194080000Y-76540000D03*
X196620000Y-99400000D03*
X186460000Y-99400000D03*
X183920000Y-99400000D03*
X178840000Y-99400000D03*
X173760000Y-99400000D03*
X171220000Y-99400000D03*
X176300000Y-99400000D03*
X186460000Y-76540000D03*
X189000000Y-76540000D03*
X191540000Y-76540000D03*
X181380000Y-76540000D03*
X183920000Y-76540000D03*
X176300000Y-76540000D03*
X178840000Y-76540000D03*
X168680000Y-76540000D03*
X171220000Y-76540000D03*
X173760000Y-76540000D03*
X199160000Y-76540000D03*
G04 #@! TD*
D19*
G04 #@! TO.C,D24*
X75950135Y-90026963D03*
D20*
X77575068Y-90313482D03*
X79200000Y-90600000D03*
X80824934Y-90886519D03*
G04 #@! TD*
D18*
G04 #@! TO.C,C23*
X71730000Y-91940000D03*
X71730000Y-94440000D03*
G04 #@! TD*
M02*
