G04 #@! TF.GenerationSoftware,KiCad,Pcbnew,9.0.9-9.0.9~ubuntu24.04.1*
G04 #@! TF.CreationDate,2026-07-01T08:27:59-05:00*
G04 #@! TF.ProjectId,psycho_badge,70737963-686f-45f6-9261-6467652e6b69,1*
G04 #@! TF.SameCoordinates,Original*
G04 #@! TF.FileFunction,Copper,L1,Top*
G04 #@! TF.FilePolarity,Positive*
%FSLAX46Y46*%
G04 Gerber Fmt 4.6, Leading zero omitted, Abs format (unit mm)*
G04 Created by KiCad (PCBNEW 9.0.9-9.0.9~ubuntu24.04.1) date 2026-07-01 08:27:59*
%MOMM*%
%LPD*%
G01*
G04 APERTURE LIST*
G04 Aperture macros list*
%AMHorizOval*
0 Thick line with rounded ends*
0 $1 width*
0 $2 $3 position (X,Y) of the first rounded end (center of the circle)*
0 $4 $5 position (X,Y) of the second rounded end (center of the circle)*
0 Add line between two ends*
20,1,$1,$2,$3,$4,$5,0*
0 Add two circle primitives to create the rounded ends*
1,1,$1,$2,$3*
1,1,$1,$4,$5*%
%AMRotRect*
0 Rectangle, with rotation*
0 The origin of the aperture is its center*
0 $1 length*
0 $2 width*
0 $3 Rotation angle, in degrees counterclockwise*
0 Add horizontal line*
21,1,$1,$2,0,0,$3*%
%AMFreePoly0*
4,1,334,-6.017001,15.863040,-5.635132,15.725325,-5.408899,15.615475,-4.670213,15.138842,-4.041992,14.559135,-3.596525,13.945146,-3.542913,13.839653,-3.411294,13.457067,-3.289998,12.929464,-3.217924,12.466595,-3.119742,11.861813,-2.996272,11.474307,-2.856040,11.324559,-2.759292,11.365073,-2.632124,11.319474,-2.392163,11.115543,-2.199917,10.915969,-1.767900,10.532179,-1.370398,10.357417,-1.046261,10.405816,
-0.977193,10.459998,-0.967451,10.467639,-0.718312,10.559636,-0.370460,10.539912,-0.066353,10.421794,-0.013840,10.378437,0.240051,10.274983,0.702132,10.227472,1.314104,10.239087,1.773280,10.280862,1.966099,10.284732,2.151807,10.223326,2.380814,10.062379,2.703532,9.767632,3.088475,9.387010,3.718435,8.732857,4.181760,8.202390,4.466498,7.810905,4.560699,7.573698,4.542600,7.525684,
4.398351,7.547383,4.192887,7.704220,3.655019,8.065897,2.967565,8.291845,2.222995,8.369647,1.513783,8.286883,1.079625,8.122338,0.744034,7.968692,0.694094,7.969846,0.889756,7.516269,1.399197,6.493907,1.725936,6.051919,1.992584,5.743089,2.142538,5.537874,2.562843,4.998898,2.970602,4.664193,3.452607,4.485190,4.095655,4.413316,4.156719,4.410736,4.715576,4.366324,
5.064942,4.289376,5.184542,4.187910,5.054097,4.069936,5.037814,4.062480,4.787591,3.898985,4.546101,3.687363,4.355087,3.538640,4.138061,3.504853,3.810984,3.586514,3.520473,3.693646,3.089352,3.843078,2.747334,3.930639,2.603583,3.940639,2.391625,3.982626,2.198715,3.381199,2.100712,2.289159,2.094447,2.262199,1.965072,1.925823,2.135164,1.840962,2.276361,1.749232,
2.477997,1.677167,2.847546,1.637374,3.079826,1.634475,3.838650,1.586113,4.464583,1.384057,5.026968,0.993218,5.595151,0.378511,5.617748,0.350313,6.082499,-0.232041,4.736533,0.141416,4.080624,0.312282,3.595823,0.401499,3.196106,0.415055,2.795445,0.358936,2.523339,0.295459,2.046886,0.187655,1.767908,0.167566,1.625753,0.238244,1.597630,0.296657,1.352901,-1.217378,
1.756653,-1.228693,1.973874,-1.213398,2.383769,-1.182744,2.658339,-1.231183,2.907971,-1.401300,3.193018,-1.683757,3.522731,-2.050611,3.789910,-2.391845,3.886494,-2.542883,3.969214,-2.722247,3.938358,-2.782184,3.755097,-2.718525,3.380603,-2.527095,3.289961,-2.478785,2.763571,-2.342410,2.170665,-2.425506,1.671391,-2.663755,1.399600,-2.815781,1.212668,-2.795267,0.995684,-2.581023,
0.953932,-2.531454,0.805805,-2.415027,1.254163,-2.415027,1.361082,-2.349651,1.592753,-2.143502,1.741033,-1.999070,2.000225,-1.707093,2.049582,-1.562200,2.005382,-1.547655,1.845411,-1.636902,1.621729,-1.850409,1.404793,-2.106826,1.265060,-2.324804,1.254163,-2.415027,0.805805,-2.415027,0.539942,-2.206060,-0.028625,-1.969244,-0.639934,-1.856452,-1.096172,-1.881685,-1.428415,-1.909167,
-1.637714,-1.792574,-1.762867,-1.487459,-1.833114,-1.037467,-1.868895,-0.849125,-1.215088,-0.849125,-1.096354,-0.994635,-0.944912,-1.115892,-0.927853,-1.066248,-1.111807,-0.856924,-1.167967,-0.826135,-1.215088,-0.849125,-1.868895,-0.849125,-2.020522,-0.050985,-2.334316,0.698699,-2.362437,0.735292,2.003969,0.735292,2.050284,0.713051,2.290411,0.848785,2.476258,0.973063,2.705376,1.149506,
2.703288,1.206782,2.635592,1.197910,2.350000,1.064933,2.163503,0.917643,2.003969,0.735292,-2.362437,0.735292,-2.634934,1.089888,-2.878838,1.383512,-2.940103,1.662443,-2.881282,1.981009,-2.873297,2.031919,-2.408867,2.031919,-2.332118,1.997473,-2.317757,2.009964,-2.304739,2.159421,-2.317757,2.231736,-2.372160,2.308779,-2.402465,2.231736,-2.408867,2.031919,-2.873297,2.031919,
-2.824578,2.342520,-2.901573,2.637203,-3.145149,2.990272,-3.146890,2.992455,-3.432110,3.403637,-3.520492,3.652386,-3.435862,3.734722,-3.202044,3.646661,-2.842863,3.384220,-2.530492,3.095506,-2.194437,2.728072,-2.007075,2.398397,-1.903589,1.976288,-1.874580,1.778096,-1.786276,1.378993,-1.255897,1.886848,-1.295423,1.921807,-1.378088,2.290257,-1.383090,2.341617,-1.484626,2.720087,
-1.643794,2.976088,-0.679315,2.976088,-0.583269,2.976089,-0.583269,3.072134,-0.679315,3.072134,-0.679315,2.976088,-1.643794,2.976088,-1.650410,2.986729,-1.823628,3.292832,-1.879883,3.600384,-1.950596,3.932002,-2.192039,4.285632,-2.373382,4.478064,-2.656278,4.789451,-2.809982,5.073261,-2.879060,5.441011,-2.900481,5.796984,-2.922685,6.342428,-2.455888,6.342427,-2.447415,6.106308,
-2.401676,5.711227,-2.337419,5.438097,-2.307369,5.381946,-2.255582,5.429674,-2.254770,5.673624,-2.259198,5.718254,-2.317832,6.124166,-2.380727,6.385290,-2.432031,6.468939,-2.455888,6.342427,-2.922685,6.342428,-2.934083,6.622407,-3.735737,7.336326,-4.100394,7.678898,-4.356249,7.954080,-4.459985,8.114086,-4.456333,8.131304,-4.297522,8.130423,-3.954418,8.052620,-3.497844,7.914327,
-3.445610,7.896765,-2.955918,7.723034,-2.834753,7.664691,-2.611007,8.188467,-2.610282,8.537660,-2.764100,8.819659,0.800746,8.819659,0.815713,8.780520,0.914711,8.826421,1.030380,9.064439,1.042399,9.100676,1.225888,9.453398,1.461192,9.690360,1.637697,9.819552,1.577888,9.868582,1.505744,9.873497,1.317054,9.827621,1.141214,9.633632,0.992294,9.378469,0.845229,9.047607,
0.800746,8.819659,-2.764100,8.819659,-2.849308,8.975873,-3.033535,9.225545,-3.167297,9.239568,-3.328502,9.312118,-3.376464,9.442242,-3.370379,9.583967,-3.406121,9.842204,-3.443474,9.971127,-0.587113,9.971127,-0.532265,9.749844,-0.348377,9.683267,-0.207788,9.765507,-0.239965,9.929038,-0.359939,10.023700,-0.545551,10.028356,-0.587113,9.971127,-3.443474,9.971127,-3.522284,10.243146,
-3.629102,10.534719,-3.713662,10.689060,-2.775719,10.689059,-2.696692,10.579271,-2.554461,10.472357,-2.520187,10.503656,-2.625806,10.655130,-2.696692,10.695325,-2.775719,10.689059,-3.713662,10.689060,-3.991935,11.196967,-4.453109,11.628355,-4.994691,11.812653,-5.045388,11.816490,-5.305608,11.848371,-5.366696,11.956628,-5.325718,12.136632,-5.279683,12.435265,-5.276432,12.484520,-4.217842,12.484520,
-4.190644,12.442241,-4.023119,12.414155,-3.992885,12.436571,-3.932106,12.562890,-3.939194,12.574972,-4.088497,12.589670,-4.136954,12.580640,-4.217842,12.484520,-5.276432,12.484520,-5.249717,12.889262,-5.242960,13.245109,-5.348002,14.014243,-5.630046,14.781915,-5.829602,15.096774,-5.192284,15.096774,-5.139122,14.855724,-5.043046,14.555913,-4.887695,14.113909,-4.799377,13.881121,-4.754591,13.810638,
-4.729840,13.855545,-4.717688,13.906381,-4.742055,14.136986,-4.848122,14.492667,-4.993877,14.856643,-5.137305,15.112134,-5.161182,15.139126,-5.192284,15.096774,-5.829602,15.096774,-6.043495,15.434254,-6.179345,15.583488,-6.324949,15.790633,-6.258887,15.884313,-6.017001,15.863040,-6.017001,15.863040,$1*%
%AMFreePoly1*
4,1,441,6.729985,1.521405,7.017289,1.180387,7.204920,0.926314,7.251779,0.819454,7.117505,0.742561,6.786248,0.570398,6.305087,0.326991,5.721102,0.036364,5.602145,-0.022340,5.038668,-0.310405,4.605524,-0.552310,4.337899,-0.726696,4.270979,-0.812206,4.292512,-0.817302,4.602811,-0.902630,4.801919,-1.167951,4.919657,-1.655110,4.926769,-1.707326,4.984616,-2.130219,5.036356,-2.476499,
5.043918,-2.522299,5.014787,-2.732692,4.905550,-2.755059,4.681739,-2.787992,4.322701,-2.915685,4.121751,-3.006223,3.631030,-3.193780,3.292049,-3.185463,3.057672,-2.970452,2.947244,-2.736664,2.886321,-2.650112,3.528128,-2.650112,3.599044,-2.835955,3.663956,-2.861871,3.795898,-2.764383,3.799785,-2.734059,3.701052,-2.550101,3.663956,-2.522299,3.547673,-2.553092,3.528128,-2.650112,
2.886321,-2.650112,2.698758,-2.383647,2.449801,-2.272021,2.075703,-2.281923,1.872604,-2.501396,1.825517,-2.767817,1.769000,-3.043533,1.641817,-3.413623,1.481333,-3.790692,1.324914,-4.087347,1.209925,-4.216192,1.206065,-4.216656,1.164599,-4.096591,1.146278,-3.785226,1.149495,-3.529050,1.190341,-3.115962,1.267819,-2.823529,1.321484,-2.746673,1.440766,-2.592187,1.542791,-2.340766,
1.578808,-2.185778,3.816868,-2.185778,3.882232,-2.375361,4.016661,-2.569926,4.179449,-2.502943,4.333546,-2.268494,4.452923,-1.940333,4.449097,-1.692580,4.334518,-1.592584,4.216006,-1.632636,4.090672,-1.757220,4.163209,-1.925530,4.216006,-1.992186,4.333424,-2.162210,4.238559,-2.182354,4.105400,-2.151084,3.860189,-2.102483,3.816868,-2.185778,1.578808,-2.185778,1.601152,-2.089631,
1.590989,-1.956346,2.758431,-1.956346,2.777076,-2.037096,2.848983,-2.046898,2.960786,-1.997201,2.939536,-1.956346,2.778339,-1.940090,2.758431,-1.956346,1.590989,-1.956346,1.589438,-1.936000,1.543821,-1.928175,1.373241,-2.006885,1.021049,-2.172241,0.550987,-2.394269,0.337744,-2.495313,-0.191256,-2.740261,-0.547178,-2.879043,-0.800099,-2.926624,-1.020098,-2.897968,-1.223454,-2.828700,
-1.557177,-2.658128,-0.682568,-2.658128,-0.614653,-2.726043,-0.546739,-2.658128,-0.614653,-2.590214,-0.682568,-2.658128,-1.557177,-2.658128,-1.599222,-2.636638,-1.726591,-2.428485,-1.693217,-2.363832,-1.316436,-2.363832,-1.297790,-2.444582,-1.225883,-2.454385,-1.114081,-2.404687,-1.135331,-2.363832,-1.296528,-2.347576,-1.316436,-2.363832,-1.693217,-2.363832,-1.623102,-2.228003,0.041853,-2.228003,
0.060498,-2.308753,0.132406,-2.318556,0.244208,-2.268858,0.222958,-2.228003,0.061761,-2.211747,0.041853,-2.228003,-1.623102,-2.228003,-1.601853,-2.186838,-1.419814,-2.046898,-0.750482,-2.046898,-0.719690,-2.163181,-0.622669,-2.182727,-0.436826,-2.111811,-0.410910,-2.046898,-0.461090,-1.978984,0.404063,-1.978984,0.471978,-2.046898,0.539892,-1.978984,0.471978,-1.911069,0.404063,-1.978984,
-0.461090,-1.978984,-0.508398,-1.914957,-0.538723,-1.911069,-0.722681,-2.009803,-0.750482,-2.046898,-1.419814,-2.046898,-1.221299,-1.894293,-1.136275,-1.843155,2.169839,-1.843155,2.237753,-1.911069,2.305668,-1.843155,2.237753,-1.775240,2.169839,-1.843155,-1.136275,-1.843155,-0.995424,-1.758440,-0.911409,-1.707326,-0.003423,-1.707326,0.064491,-1.775240,0.096965,-1.742766,3.043724,-1.742766,
3.177236,-1.764517,3.353408,-1.739544,3.355512,-1.693177,3.173720,-1.660752,3.095173,-1.682454,3.043724,-1.742766,0.096965,-1.742766,0.132406,-1.707326,0.064491,-1.639412,-0.003423,-1.707326,-0.911409,-1.707326,-0.746401,-1.606937,0.462975,-1.606937,0.596488,-1.628688,0.772660,-1.603715,0.774763,-1.557348,0.592971,-1.524924,0.514424,-1.546625,0.462975,-1.606937,-0.746401,-1.606937,
-0.586989,-1.509952,-0.402064,-1.355889,-0.413405,-1.299839,-0.003423,-1.299839,0.064491,-1.367754,0.132406,-1.299839,0.064491,-1.231925,-0.003423,-1.299839,-0.413405,-1.299839,-0.418481,-1.274750,-0.478824,-1.257468,-0.776425,-1.130850,-0.893510,-1.027356,-1.072652,-0.921871,0.356302,-0.921871,0.379142,-1.026291,0.591889,-1.190676,0.689899,-1.246472,1.107617,-1.447766,1.319880,-1.494821,
1.354866,-1.449007,1.245173,-1.323493,1.212491,-1.302502,2.337718,-1.302502,2.474781,-1.459310,2.601973,-1.503583,2.656726,-1.425975,2.574601,-1.296557,2.544626,-1.270860,2.870878,-1.270860,2.903927,-1.346767,3.040692,-1.492586,3.119319,-1.462673,3.120641,-1.443684,3.026018,-1.331005,3.964771,-1.331005,4.099677,-1.364164,4.173315,-1.365674,4.411793,-1.316168,4.478930,-1.231925,
4.393423,-1.105535,4.146033,-1.186438,4.071443,-1.231925,3.964771,-1.331005,3.026018,-1.331005,3.024165,-1.328798,2.963825,-1.286869,2.870878,-1.270860,2.544626,-1.270860,2.408510,-1.154168,2.340625,-1.151691,2.337718,-1.302502,1.212491,-1.302502,0.985420,-1.156659,0.679596,-1.003400,0.431688,-0.918612,0.356302,-0.921871,-1.072652,-0.921871,-1.140968,-0.881644,-1.282200,-0.869028,
-1.559261,-0.799758,-1.598325,-0.748819,2.620943,-0.748819,2.713154,-0.824438,2.960773,-0.939375,3.052727,-0.956107,3.077023,-0.900058,2.984812,-0.824438,2.776064,-0.727544,3.278365,-0.727544,3.311414,-0.803452,3.448179,-0.949270,3.526805,-0.919358,3.528128,-0.900369,3.431651,-0.785483,3.411994,-0.771823,3.710647,-0.771823,3.731871,-0.824438,3.853928,-0.954017,3.875716,-0.960267,
3.934057,-0.855178,3.935614,-0.824438,3.831195,-0.693829,3.791769,-0.688609,3.710647,-0.771823,3.411994,-0.771823,3.371312,-0.743553,3.278365,-0.727544,2.776064,-0.727544,2.737194,-0.709502,2.645240,-0.692769,2.620943,-0.748819,-1.598325,-0.748819,-1.715686,-0.595784,-1.699652,-0.354039,-1.612704,-0.250819,-1.586208,-0.213208,3.799785,-0.213208,3.867700,-0.281123,3.935614,-0.213208,
3.874491,-0.152085,4.227646,-0.152085,4.270371,-0.267962,4.336309,-0.260748,4.482057,-0.146469,4.489117,-0.107941,4.400505,-0.002194,4.264650,-0.078745,4.227646,-0.152085,3.874491,-0.152085,3.867700,-0.145294,3.799785,-0.213208,-1.586208,-0.213208,-1.365491,0.100102,-1.307316,0.537365,-1.344031,0.641447,1.645416,0.641447,1.717176,0.543918,1.820351,0.463020,2.061047,0.329397,
2.163618,0.366784,2.107509,0.524814,1.908434,0.649851,1.788293,0.665360,1.645416,0.641447,-1.344031,0.641447,-1.377947,0.737594,0.675721,0.737594,0.743636,0.669679,0.811550,0.737594,0.743636,0.805508,1.219037,0.805508,1.322399,0.673626,1.354866,0.669679,1.486747,0.773042,1.490694,0.805508,1.387332,0.937390,1.354866,0.941337,1.222984,0.837975,1.219037,0.805508,
0.743636,0.805508,0.675721,0.737594,-1.377947,0.737594,-1.425860,0.873423,-0.682568,0.873423,-0.614653,0.805508,-0.546739,0.873423,-0.614653,0.941337,-0.682568,0.873423,-1.425860,0.873423,-1.441008,0.916367,-1.561767,1.154607,-1.465733,1.236769,-1.294981,1.218155,-1.029070,1.238339,-0.685246,1.347729,-0.363315,1.503021,-0.163084,1.660914,-0.139252,1.719584,-0.028780,1.860896,
0.166363,1.867629,0.411568,1.745756,0.461193,1.518610,0.468808,1.348103,0.546827,1.249344,0.755312,1.198213,1.154324,1.170592,1.349082,1.162059,1.721978,1.050060,2.165866,0.728267,2.367798,0.539527,2.731397,0.210540,2.934776,0.095476,2.960559,0.127039,3.472683,0.127039,3.484963,0.078976,3.691823,0.000672,3.894324,0.190511,3.935614,0.262193,4.818502,0.262193,
4.829271,0.137029,4.878400,0.126364,5.016718,0.224964,5.022245,0.262193,4.975902,0.394490,4.962347,0.398022,4.846380,0.302841,4.818502,0.262193,3.935614,0.262193,3.984334,0.400237,5.363187,0.400237,5.392697,0.282114,5.489630,0.262193,5.675909,0.293692,5.701390,0.322091,5.601858,0.448876,5.422764,0.451701,5.363187,0.400237,3.984334,0.400237,4.008742,0.469395,
3.974350,0.529531,3.773449,0.450801,3.574267,0.287214,3.472683,0.127039,2.960559,0.127039,2.984812,0.156729,3.106034,0.326260,3.450354,0.590548,4.358818,0.590548,4.428874,0.493353,4.602787,0.481734,4.856702,0.596181,4.992045,0.711708,5.930832,0.711708,5.937302,0.578052,6.131721,0.569613,6.477789,0.710548,6.491597,0.718148,6.697640,0.869076,6.673365,0.998565,
6.627426,1.041129,6.424249,1.103292,6.156161,0.952513,6.148610,0.946421,5.930832,0.711708,4.992045,0.711708,5.070691,0.778839,5.096196,0.815275,5.139910,0.993371,4.977293,1.021439,4.700226,0.924620,4.407551,0.751004,4.358818,0.590548,3.450354,0.590548,3.459979,0.597936,4.032066,0.961485,4.547684,1.260901,5.336397,1.260901,5.361817,1.212995,5.550230,1.083823,
5.752539,1.125555,5.837219,1.295441,5.756212,1.448850,5.622366,1.431270,5.401088,1.359193,5.342692,1.348824,5.336397,1.260901,4.547684,1.260901,4.570992,1.274436,5.115305,1.581547,6.130771,1.581547,6.163820,1.505639,6.300585,1.359821,6.379212,1.389733,6.380534,1.408722,6.284058,1.523608,6.223718,1.565538,6.130771,1.581547,5.115305,1.581547,6.157173,2.169388,
6.729985,1.521405,6.729985,1.521405,$1*%
%AMFreePoly2*
4,1,809,-1.093383,9.178214,-0.450256,9.106094,0.067124,8.952791,0.530918,8.692369,1.013287,8.298895,1.293434,8.035017,1.810580,7.563784,2.284311,7.218816,2.773437,6.980483,3.336767,6.829156,4.033111,6.745202,4.921278,6.708994,5.280880,6.704038,6.056616,6.690504,6.835556,6.666350,7.524304,6.635064,8.007219,6.602166,8.958021,6.517166,8.940696,5.905936,8.912911,5.376885,
8.866397,4.849894,8.855692,4.759504,8.842367,4.361163,8.950586,4.109419,9.060885,4.003344,9.245866,3.795174,9.216667,3.569293,9.175819,3.487278,8.938612,3.205737,8.648379,2.996730,8.371006,2.808245,7.980361,2.491370,7.554868,2.110201,7.499824,2.058067,6.407425,1.188237,5.099692,0.447977,3.607664,-0.147593,2.166577,-0.540065,1.632256,-0.672839,1.186837,-0.812138,
0.909552,-0.932414,0.876202,-0.956151,0.631380,-1.076248,0.196031,-1.210071,-0.350454,-1.340647,-0.928684,-1.451005,-1.459266,-1.524174,-1.862811,-1.543182,-1.868606,-1.542915,-2.339743,-1.512423,-2.791177,-1.473660,-3.406321,-1.408229,-3.800404,-1.340653,-4.022646,-1.241485,-4.025114,-1.237515,-4.033585,-1.239936,-4.051022,-1.237765,-5.905269,-0.839051,-5.958719,-0.808023,-5.971062,-0.786046,
-6.133749,-0.685116,-6.478562,-0.583042,-6.591375,-0.562172,-6.952337,-0.451436,-7.132675,-0.292010,-7.105196,-0.130932,-6.900001,-0.028336,-6.745851,0.022468,-6.854916,0.045265,-6.918984,0.049538,-7.212439,-0.035901,-7.326470,-0.137985,-7.490799,-0.263219,-7.757464,-0.254742,-7.952675,-0.205412,-8.419113,-0.042875,-8.700105,0.117258,-8.757911,0.252341,-8.744438,0.269609,-8.578510,0.275164,
-8.268256,0.186233,-8.166067,0.145994,-7.878087,0.046481,-7.747371,0.044074,-7.751915,0.070123,-7.724553,0.195510,-7.655076,0.214663,-7.630585,0.253840,-7.816846,0.325942,-8.085062,0.491155,-8.135138,0.666464,-8.156596,0.822750,-8.264175,0.758927,-8.488449,0.617121,-8.617680,0.698974,-8.631819,0.799637,-8.731657,0.933107,-8.903477,0.919624,-9.142499,0.803761,-9.121280,0.626716,
-9.014404,0.502211,-8.892551,0.325108,-8.989748,0.271206,-9.283300,0.339786,-9.739794,0.525216,-10.388572,0.877099,-10.670041,1.127878,-11.103630,1.100203,-11.163506,1.115518,-11.179364,1.127968,-11.449364,1.387968,-11.473257,1.423901,-11.488335,1.462853,-10.397594,1.462853,-10.308671,1.254668,-10.018636,1.171190,-9.797683,1.170423,-9.537534,1.187474,-9.535154,1.213276,-9.718450,1.251352,
-10.049250,1.353381,-10.227808,1.453229,-10.374270,1.514187,-10.397594,1.462853,-11.488335,1.462853,-11.593257,1.733901,-11.598299,1.751636,-11.684088,2.210861,-11.322054,2.210861,-11.254353,1.833177,-11.110029,1.562853,-10.938238,1.562853,-10.963087,1.617591,-10.974867,1.760328,-11.060815,2.061459,-11.281686,2.183081,-11.322054,2.210861,-11.684088,2.210861,-11.767607,2.657934,-11.780199,2.705305,
-11.790434,2.720331,-11.950808,3.136409,-11.960116,3.252945,-11.508850,3.252945,-11.492695,3.162818,-11.367306,3.055731,-11.096137,2.840077,-10.970318,2.796042,-10.940910,2.895898,-11.052027,3.024399,-11.314439,3.169757,-11.508850,3.252945,-11.960116,3.252945,-11.974867,3.437627,-11.976644,3.444310,-11.979412,3.480829,-11.978781,3.486621,-11.980873,3.512811,-11.971632,3.552251,-11.958020,3.677217,
-11.530461,3.677217,-11.263261,3.546835,-10.733855,3.318876,-10.168638,3.095474,-9.686385,2.924905,-9.249207,2.743315,-9.068162,2.555167,-9.100413,2.385399,-9.265079,2.348811,-9.549873,2.444097,-9.976774,2.618831,-10.329680,2.727271,-10.596758,2.780019,-10.645834,2.732599,-10.556681,2.607807,-10.325057,2.433862,-9.944831,2.243984,-9.741708,2.164804,-9.210600,1.962859,-8.666451,1.734610,
-8.531555,1.673530,-8.057504,1.511488,-7.605961,1.448917,-7.512839,1.453313,-7.069787,1.500495,-7.641325,1.669474,-8.069814,1.833195,-8.318888,2.006144,-8.347518,2.158491,-8.334628,2.173537,-8.188451,2.163836,-7.842665,2.092709,-7.358344,1.975165,-6.796562,1.826212,-6.218393,1.660858,-6.085027,1.620719,-5.847346,1.481815,-5.779413,1.349308,-5.844655,1.241438,-6.078324,1.259661,
-6.211860,1.294913,-6.559071,1.372662,-6.686627,1.359564,-6.576676,1.274217,-6.327870,1.174071,-6.015719,1.017677,-5.839816,0.841557,-5.838198,0.837543,-5.800997,0.612907,-5.792041,0.266230,-5.796045,0.155999,-3.965035,-0.121126,-3.958198,-0.124550,-3.950906,-0.124444,-3.911765,-0.139327,-3.503873,-0.292785,-3.288636,-0.312452,-3.213574,-0.181611,-3.219299,-0.016265,-2.687855,-0.016265,
-2.564151,-0.043117,-2.406329,-0.052037,-2.083697,-0.024886,-2.006942,0.089575,-2.007331,0.090762,-2.172736,0.279590,-2.241301,0.312127,-2.353828,0.292817,-2.332668,0.228456,-2.373048,0.097020,-2.551462,0.025588,-2.687855,-0.016265,-3.219299,-0.016265,-3.222639,0.080205,-3.292017,0.406834,-3.469417,0.559301,-3.672406,0.609062,-3.982477,0.728425,-4.121382,0.902666,-4.112292,1.039931,
-3.966897,1.068871,-3.651453,1.010997,-3.320786,0.943451,-3.133884,0.918787,-3.120115,0.921731,-3.067663,1.052864,-2.954611,1.355669,1.147860,1.355669,1.215775,1.287754,1.243433,1.315412,2.720654,1.315412,2.738450,1.151925,2.817302,0.932489,2.861563,0.880268,2.903945,0.994571,2.913636,1.151925,2.862028,1.372724,2.790523,1.423583,2.720654,1.315412,1.243433,1.315412,
1.283689,1.355669,1.215775,1.423583,1.147860,1.355669,-2.954611,1.355669,-2.952450,1.361458,-2.896610,1.514136,1.600623,1.514136,1.619268,1.433386,1.691176,1.423583,1.802978,1.473281,1.781728,1.514136,1.620531,1.530392,1.600623,1.514136,-2.896610,1.514136,-2.885366,1.544880,4.000267,1.544880,4.047623,1.430998,4.202153,1.547112,4.274505,1.630436,4.373608,1.777694,
4.266291,1.767733,4.223222,1.751733,4.031880,1.619080,4.000267,1.544880,-2.885366,1.544880,-2.884321,1.547736,1.894919,1.547736,2.302127,1.632529,2.606847,1.709250,2.766209,1.774196,2.798048,1.868917,2.638382,1.861934,2.345722,1.757807,2.302406,1.738049,1.894919,1.547736,-2.884321,1.547736,-2.855212,1.627326,-2.772400,1.840746,0.950097,1.840746,1.014551,1.806039,
1.254679,1.846492,1.554750,1.929122,4.715018,1.929122,4.740011,1.842905,4.874367,1.703495,4.942180,1.827360,4.951069,1.994064,4.917791,2.191123,4.803062,2.144859,4.799909,2.141728,4.715018,1.929122,1.554750,1.929122,1.592674,1.939565,1.709621,1.979789,3.176147,1.979789,3.271364,1.985962,3.528578,2.059333,3.986740,2.209863,4.242018,2.296299,4.782628,2.489994,
5.229682,2.668314,5.537093,2.810789,5.658779,2.896950,5.630213,2.912899,5.470225,2.871003,5.129200,2.757983,4.678607,2.599822,4.189913,2.422502,3.734585,2.252004,3.384093,2.114311,3.209904,2.035403,3.203974,2.030855,3.176147,1.979789,1.709621,1.979789,1.950731,2.062719,2.251040,2.193415,2.337339,2.242609,2.492993,2.351541,2.418381,2.346250,2.344858,2.324250,
2.069584,2.244395,1.673450,2.134680,1.569577,2.106559,1.211106,1.988044,0.980275,1.870965,0.950097,1.840746,-2.772400,1.840746,-2.694911,2.040449,-2.608762,2.233239,-1.815340,2.233239,-1.758779,2.092204,-1.593193,2.131398,-1.532800,2.183921,-1.510875,2.314420,0.597285,2.314420,0.611650,2.285783,0.795239,2.233738,1.127292,2.331478,1.395933,2.455986,1.832800,2.648882,
2.225750,2.781642,2.371431,2.811611,2.626464,2.791837,2.690848,2.623929,2.689471,2.602748,2.740551,2.424043,2.870366,2.432962,3.189111,2.504697,3.280948,2.510214,3.415981,2.546818,3.334548,2.697618,3.321122,2.713957,3.220503,2.931357,3.321122,3.121444,3.567062,3.303198,3.774556,3.279697,3.864384,3.060845,3.864438,3.053530,3.889601,2.832446,3.924257,2.781872,
4.116991,2.829454,4.461029,2.945903,5.793150,2.945903,5.833956,2.921861,6.057175,2.989491,6.173529,3.053530,6.282249,3.161157,6.241443,3.185199,6.018225,3.117568,5.901871,3.053530,5.793150,2.945903,4.461029,2.945903,4.479335,2.952099,4.932951,3.119652,5.285138,3.257273,6.445186,3.257273,6.513101,3.189358,6.581015,3.257273,6.513101,3.325187,6.445186,3.257273,
5.285138,3.257273,5.399497,3.301960,5.800634,3.468869,6.058020,3.590226,6.105614,3.621489,6.066123,3.648598,5.827914,3.587857,5.494384,3.471411,4.877077,3.264657,4.491609,3.197954,4.337093,3.271224,4.348977,3.367936,4.504350,3.495018,4.849000,3.661896,5.310896,3.834112,5.350279,3.846935,5.820137,4.021208,6.179735,4.197406,6.356090,4.339344,6.359857,4.347501,
6.394075,4.470335,6.350908,4.524420,6.189681,4.502128,5.869716,4.395836,5.350337,4.197917,5.154812,4.121590,4.598901,3.909760,3.877443,3.642896,3.081752,3.354407,2.303140,3.077700,2.266293,3.064773,1.503370,2.788082,0.983273,2.576621,0.687433,2.421647,0.597285,2.314420,-1.510875,2.314420,-1.502497,2.364285,-1.529064,2.466968,-1.618428,2.594540,-1.721369,2.487646,
-1.815340,2.233239,-2.608762,2.233239,-2.554654,2.354325,-2.497369,2.454725,-2.545652,2.560892,-2.852554,2.671210,-3.335731,2.772675,-3.876327,2.888450,-3.889733,2.893605,-6.107808,3.268213,-6.115635,3.267258,-6.118985,3.268286,-6.326470,3.326154,-6.684555,3.420783,-6.832086,3.458935,-7.186188,3.588064,-7.389153,3.736908,-7.409359,3.790843,-7.535467,3.909149,-7.876034,4.032813,
-8.374423,4.149721,-8.973998,4.247759,-9.618121,4.314813,-9.944817,4.333151,-10.532716,4.412852,-10.919073,4.591004,-11.042159,4.798233,-6.818639,4.798233,-6.807288,4.739525,-6.699351,4.488424,-6.489879,4.424090,-6.321712,4.440941,-5.977408,4.422450,-5.844250,4.242977,-5.876111,4.045919,-6.027847,3.947647,-6.150042,3.967130,-6.296011,3.981531,-6.269079,3.891585,-6.086912,3.765093,
-3.680164,3.278013,-3.677674,3.276607,-3.496375,3.256530,-3.410710,3.267341,-3.436364,3.281037,-3.593788,3.422576,-3.606150,3.474923,-3.499697,3.533583,-3.257325,3.513161,-2.994517,3.437510,-2.826757,3.330479,-2.816359,3.311804,-2.675386,3.254662,-2.592397,3.274163,-2.376362,3.253305,-2.321499,3.198618,-2.123111,3.073597,-1.986710,3.053530,-1.731187,2.962359,-1.428595,2.739192,
-1.390527,2.702466,-1.039463,2.351402,0.803514,3.001311,1.454475,3.241192,1.997882,3.461214,2.389666,3.641965,2.585760,3.764031,2.599418,3.792439,2.660211,3.969348,2.856286,4.172738,3.177936,4.345014,3.511257,4.408581,3.769008,4.360187,3.864438,4.210318,3.865255,4.141764,3.889527,4.099747,3.969986,4.094068,4.139363,4.134529,4.430390,4.230932,4.875799,4.393078,
5.508321,4.630769,6.360688,4.953805,6.411108,4.972921,6.839810,5.149225,7.144992,5.301037,7.260038,5.394755,7.128850,5.537583,6.750712,5.697658,6.149246,5.867939,5.348072,6.041385,4.700682,6.157638,4.009835,6.270446,3.509937,6.337760,3.124196,6.360069,2.775824,6.337857,2.388031,6.271614,1.943496,6.175118,1.452349,6.048096,0.773956,5.849337,-0.024004,5.600971,
-0.873851,5.325125,-1.707904,5.043925,-2.458484,4.779501,-3.057911,4.553979,-3.217620,4.488924,-3.443865,4.371278,-3.449386,4.368619,-4.169386,4.048619,-4.230855,4.042199,-4.284358,4.073136,-4.305540,4.110469,-4.475540,4.660469,-4.475361,4.672906,-4.035910,4.672906,-3.242150,4.689977,-3.210754,4.680517,-3.024648,4.774248,-2.541900,4.983900,-1.951960,5.216136,-1.942247,5.219788,
-1.307463,5.458255,-0.733953,5.673682,-0.287848,5.841229,-0.046977,5.931669,0.249816,6.028313,0.724859,6.167275,1.293109,6.323986,1.515055,6.382887,1.667248,6.425625,5.018983,6.425625,6.100475,6.182800,6.788027,5.997506,7.223927,5.804459,7.390850,5.659281,7.528871,5.495689,7.651756,5.478066,7.836936,5.625166,8.021599,5.812048,8.443467,6.245508,7.478284,6.329627,
6.851241,6.375190,6.203470,6.408060,5.766042,6.419685,5.018983,6.425625,1.667248,6.425625,1.997280,6.518303,2.320209,6.627011,2.443571,6.694284,2.405793,6.708605,2.076438,6.683024,1.590162,6.582163,0.930647,6.400962,0.081573,6.134360,-0.973378,5.777296,-2.250523,5.324710,-3.368450,4.917912,-4.035910,4.672906,-4.475361,4.672906,-4.475128,4.689069,-5.000957,5.063523,
-5.671583,5.384257,-5.948613,5.437875,-5.948667,5.437553,-5.950828,5.438304,-5.969002,5.441822,-5.982631,5.449362,-6.020207,5.462428,-6.126687,5.604055,-6.320123,5.827641,-6.449780,5.905936,-6.596271,5.786906,-6.726929,5.496213,-6.811227,5.133456,-6.818639,4.798233,-11.042159,4.798233,-11.074906,4.853367,-11.076739,4.889319,-11.187296,5.077043,-11.314439,5.152392,-11.469351,5.192186,
-11.399324,5.089114,-11.382354,5.071844,-11.225285,4.837954,-11.282964,4.700905,-11.383638,4.683476,-11.449972,4.717908,-11.480900,4.318024,-11.476344,4.319140,-11.058453,4.258148,-10.595998,4.138634,-10.076147,4.009509,-9.731659,3.965480,-9.605297,4.004219,-9.459359,4.132889,-9.266237,4.099334,-9.175134,3.936417,-9.114764,3.755481,-9.063681,3.732674,-8.896479,3.706329,-8.530441,3.636428,
-8.032286,3.536676,-7.468733,3.420774,-6.906501,3.302427,-6.412310,3.195338,-6.085027,3.120900,-5.846430,2.988446,-5.779413,2.847198,-5.845497,2.715966,-6.062054,2.663977,-6.456544,2.693014,-7.056423,2.804864,-7.796551,2.978286,-8.374786,3.108237,-8.875082,3.196760,-9.224742,3.232110,-9.324625,3.225142,-9.533570,3.227395,-9.582621,3.294714,-9.704232,3.392383,-10.024006,3.519760,
-10.474352,3.650217,-10.503100,3.657329,-11.143329,3.828054,-11.508587,3.960044,-11.530461,3.677217,-11.958020,3.677217,-11.799412,5.133302,-11.774061,5.189666,-11.745449,5.206041,-11.732055,5.226792,-10.872995,5.226792,-10.862226,5.101628,-10.813097,5.090963,-10.674780,5.189562,-10.669252,5.226792,-10.715595,5.359089,-10.729150,5.362621,-10.845117,5.267440,-10.872995,5.226792,-11.732055,5.226792,
-11.726916,5.234754,-11.454828,5.338668,-11.312540,5.380009,-10.791241,5.587850,-10.545407,5.826672,-9.854279,5.826672,-9.770395,5.831537,-9.581788,5.974604,-9.402704,6.174432,-9.371577,6.283484,-9.497072,6.251667,-9.682466,6.094921,-9.827730,5.907909,-9.854279,5.826672,-10.545407,5.826672,-10.499866,5.870914,-10.398816,6.270422,-10.397594,6.332471,-10.271213,6.705749,-9.934602,7.033505,
-9.611032,7.033505,-8.840386,6.953967,-8.292424,6.873463,-7.945876,6.733931,-7.730526,6.480253,-7.576160,6.057311,-7.543335,5.935786,-7.375472,5.294706,-7.193443,5.723504,-6.974918,6.066877,-6.651960,6.397931,-6.310610,6.640678,-6.083237,6.714668,-4.466708,7.435078,-2.651210,7.435078,-2.630630,7.269908,-2.410127,7.152091,-2.192664,7.128396,-1.884499,7.151443,-1.781929,7.250298,
-1.801019,7.400054,-1.951201,7.630275,-2.244511,7.650184,-2.440496,7.589265,-2.651210,7.435078,-4.466708,7.435078,-4.250706,7.531340,-4.220244,7.534552,-3.571702,7.743714,-1.089479,7.743714,-1.037295,7.499250,-0.960737,7.329006,-0.849400,7.216091,-0.646474,7.140929,-0.295150,7.083945,0.261383,7.025562,0.366844,7.015400,0.566501,7.043635,0.602096,7.094439,0.498569,7.249860,
0.245556,7.488329,-0.077291,7.746968,-0.390321,7.962901,-0.613883,8.073249,-0.642737,8.077118,-0.976415,7.988876,-1.089479,7.743714,-3.571702,7.743714,-3.164707,7.874974,-2.630567,8.048281,-2.181287,8.195955,-2.124565,8.215027,0.567170,8.215027,0.581963,8.121556,0.738578,7.878822,0.951385,7.603797,1.258498,7.271567,1.530505,7.049577,1.667904,6.992567,1.713208,7.074616,
1.549840,7.314870,1.283689,7.603797,0.953941,7.922262,0.692139,8.143363,0.567170,8.215027,-2.124565,8.215027,-1.890833,8.293616,-1.840375,8.311474,-1.555135,8.385259,-1.254562,8.436421,-0.850530,8.537252,-0.575418,8.656262,-0.472428,8.734877,-0.512799,8.788719,-0.731209,8.824800,-1.162333,8.850129,-1.609039,8.865209,-2.275253,8.869643,-2.923703,8.848350,-3.450038,8.805670,
-3.612515,8.781880,-3.987996,8.728467,-3.988192,8.728294,-4.004750,8.722757,-6.256682,8.182757,-6.277905,8.184432,-6.360774,8.150697,-6.827244,7.997229,-7.035830,7.936270,-7.669487,7.746272,-8.308739,7.536616,-8.828115,7.348695,-8.883725,7.326635,-9.611032,7.033505,-9.934602,7.033505,-9.889377,7.077540,-9.248050,7.450198,-8.343192,7.826077,-7.190972,8.201572,-6.596188,8.370810,
-6.249498,8.451364,-6.241564,8.456540,-6.239681,8.457029,-4.146478,8.978978,-3.759594,9.086567,-3.117535,9.158846,-2.236062,9.192679,-1.934420,9.195084,-1.093383,9.178214,-1.093383,9.178214,$1*%
%AMFreePoly3*
4,1,85,9.686354,3.579963,10.767719,3.322371,11.763774,2.879731,12.750231,2.226137,12.799874,2.188061,13.456100,1.648234,13.871427,1.223690,14.047721,0.907793,13.986846,0.693907,13.690666,0.575395,13.261643,0.544697,12.700267,0.520705,12.060399,0.460601,11.729305,0.415726,11.152789,0.336523,10.466672,0.258239,9.903941,0.205184,9.402609,0.157585,9.011235,0.108124,8.805129,0.066533,
8.795427,0.061943,8.631619,0.036181,8.246651,0.005984,7.690917,-0.025556,7.014811,-0.055350,6.689055,-0.067217,5.977922,-0.099055,5.367060,-0.140750,4.906136,-0.187794,4.644817,-0.235680,4.605591,-0.256281,4.442056,-0.328291,4.083413,-0.403449,3.605554,-0.466050,3.579572,-0.468600,3.038535,-0.524839,2.332764,-0.603806,1.566963,-0.693578,1.049789,-0.756646,0.208176,-0.847857,
-0.390718,-0.879764,-0.769429,-0.851697,-0.950495,-0.762980,-0.973935,-0.696162,-0.984338,-0.635000,-1.079500,-0.635000,-1.152401,-0.620499,-1.214204,-0.579204,-1.255499,-0.517401,-1.270000,-0.444500,-1.270000,0.444500,-1.255499,0.517401,-1.214204,0.579204,-1.152401,0.620499,-1.079500,0.635000,-1.036635,0.635000,-1.031647,0.649420,-1.014931,0.674138,-0.714921,0.900952,-0.453635,0.955764,
-0.185942,0.975877,0.287864,1.029113,0.905311,1.107829,1.603933,1.204382,1.745883,1.224867,2.422429,1.322489,2.999870,1.404446,3.426295,1.463474,3.649792,1.492306,3.668564,1.493970,3.705049,1.617863,3.708542,1.936389,3.686379,2.281470,3.664378,2.798341,3.718601,3.104865,3.801131,3.218849,4.010240,3.291610,4.435773,3.370868,5.022761,3.451183,5.716231,3.527114,
6.461213,3.593218,7.202736,3.644056,7.885830,3.674186,8.443964,3.678411,9.686354,3.579963,9.686354,3.579963,$1*%
G04 Aperture macros list end*
G04 #@! TA.AperFunction,ComponentPad*
%ADD10R,1.727200X1.727200*%
G04 #@! TD*
G04 #@! TA.AperFunction,ComponentPad*
%ADD11C,1.727200*%
G04 #@! TD*
G04 #@! TA.AperFunction,ComponentPad*
%ADD12O,1.727200X1.727200*%
G04 #@! TD*
G04 #@! TA.AperFunction,ComponentPad*
%ADD13R,1.150000X1.800000*%
G04 #@! TD*
G04 #@! TA.AperFunction,ComponentPad*
%ADD14O,1.150000X1.800000*%
G04 #@! TD*
G04 #@! TA.AperFunction,ComponentPad*
%ADD15C,1.600000*%
G04 #@! TD*
G04 #@! TA.AperFunction,ComponentPad*
%ADD16RotRect,1.150000X1.800000X350.000000*%
G04 #@! TD*
G04 #@! TA.AperFunction,ComponentPad*
%ADD17HorizOval,1.150000X-0.056436X-0.320063X0.056436X0.320063X0*%
G04 #@! TD*
G04 #@! TA.AperFunction,ComponentPad*
%ADD18R,1.800000X1.800000*%
G04 #@! TD*
G04 #@! TA.AperFunction,ComponentPad*
%ADD19C,1.800000*%
G04 #@! TD*
G04 #@! TA.AperFunction,ComponentPad*
%ADD20R,1.700000X1.700000*%
G04 #@! TD*
G04 #@! TA.AperFunction,ComponentPad*
%ADD21O,1.700000X1.700000*%
G04 #@! TD*
G04 #@! TA.AperFunction,ComponentPad*
%ADD22C,1.400000*%
G04 #@! TD*
G04 #@! TA.AperFunction,ComponentPad*
%ADD23RotRect,1.800000X1.800000X350.000000*%
G04 #@! TD*
G04 #@! TA.AperFunction,ComponentPad*
%ADD24RotRect,1.700000X1.700000X335.000000*%
G04 #@! TD*
G04 #@! TA.AperFunction,ComponentPad*
%ADD25HorizOval,1.700000X0.000000X0.000000X0.000000X0.000000X0*%
G04 #@! TD*
G04 #@! TA.AperFunction,ComponentPad*
%ADD26RotRect,1.150000X1.800000X335.000000*%
G04 #@! TD*
G04 #@! TA.AperFunction,ComponentPad*
%ADD27HorizOval,1.150000X-0.137351X-0.294550X0.137351X0.294550X0*%
G04 #@! TD*
G04 #@! TA.AperFunction,ComponentPad*
%ADD28RotRect,1.700000X1.700000X155.000000*%
G04 #@! TD*
G04 #@! TA.AperFunction,ComponentPad*
%ADD29HorizOval,1.700000X0.000000X0.000000X0.000000X0.000000X0*%
G04 #@! TD*
G04 #@! TA.AperFunction,ComponentPad*
%ADD30RotRect,1.150000X1.800000X342.000000*%
G04 #@! TD*
G04 #@! TA.AperFunction,ComponentPad*
%ADD31HorizOval,1.150000X-0.100431X-0.309093X0.100431X0.309093X0*%
G04 #@! TD*
G04 #@! TA.AperFunction,SMDPad,CuDef*
%ADD32FreePoly0,45.000000*%
G04 #@! TD*
G04 #@! TA.AperFunction,SMDPad,CuDef*
%ADD33FreePoly1,0.000000*%
G04 #@! TD*
G04 #@! TA.AperFunction,SMDPad,CuDef*
%ADD34FreePoly2,0.000000*%
G04 #@! TD*
G04 #@! TA.AperFunction,SMDPad,CuDef*
%ADD35FreePoly3,90.000000*%
G04 #@! TD*
G04 #@! TA.AperFunction,ComponentPad*
%ADD36O,1.600000X2.700000*%
G04 #@! TD*
G04 #@! TA.AperFunction,ViaPad*
%ADD37C,0.600000*%
G04 #@! TD*
G04 #@! TA.AperFunction,Conductor*
%ADD38C,0.300000*%
G04 #@! TD*
G04 #@! TA.AperFunction,Conductor*
%ADD39C,0.500000*%
G04 #@! TD*
G04 APERTURE END LIST*
D10*
G04 #@! TO.P,JSAO1,1,Pin_1*
G04 #@! TO.N,+3.3V*
X204520000Y-42600000D03*
D11*
G04 #@! TO.P,JSAO1,2,Pin_2*
G04 #@! TO.N,GND*
X204520000Y-45140000D03*
D12*
G04 #@! TO.P,JSAO1,3,Pin_3*
G04 #@! TO.N,unconnected-(JSAO1-Pin_3-Pad3)*
X207060000Y-42600000D03*
G04 #@! TO.P,JSAO1,4,Pin_4*
G04 #@! TO.N,unconnected-(JSAO1-Pin_4-Pad4)*
X207060000Y-45140000D03*
D11*
G04 #@! TO.P,JSAO1,5,Pin_5*
G04 #@! TO.N,unconnected-(JSAO1-Pin_5-Pad5)*
X209600000Y-42600000D03*
G04 #@! TO.P,JSAO1,6,Pin_6*
G04 #@! TO.N,unconnected-(JSAO1-Pin_6-Pad6)*
X209600000Y-45140000D03*
G04 #@! TD*
D13*
G04 #@! TO.P,D12,1,DOUT*
G04 #@! TO.N,unconnected-(D12-DOUT-Pad1)*
X78149999Y-65799999D03*
D14*
G04 #@! TO.P,D12,2,VDD*
G04 #@! TO.N,+3.3V*
X79800000Y-65800000D03*
G04 #@! TO.P,D12,3,GND*
G04 #@! TO.N,GND*
X81449998Y-65800000D03*
G04 #@! TO.P,D12,4,DIN*
G04 #@! TO.N,D11*
X83099999Y-65800001D03*
G04 #@! TD*
D15*
G04 #@! TO.P,C12,1*
G04 #@! TO.N,+3.3V*
X75800000Y-65500000D03*
G04 #@! TO.P,C12,2*
G04 #@! TO.N,GND*
X73313696Y-65238679D03*
G04 #@! TD*
G04 #@! TO.P,C24,1*
G04 #@! TO.N,+3.3V*
X70920000Y-86800000D03*
G04 #@! TO.P,C24,2*
G04 #@! TO.N,GND*
X70920000Y-89300000D03*
G04 #@! TD*
D16*
G04 #@! TO.P,D21,1,DOUT*
G04 #@! TO.N,D21*
X97550134Y-93926961D03*
D17*
G04 #@! TO.P,D21,2,VDD*
G04 #@! TO.N,+3.3V*
X99175067Y-94213480D03*
G04 #@! TO.P,D21,3,GND*
G04 #@! TO.N,GND*
X100800000Y-94500000D03*
G04 #@! TO.P,D21,4,DIN*
G04 #@! TO.N,D20*
X102424933Y-94786519D03*
G04 #@! TD*
D18*
G04 #@! TO.P,D31,1,K*
G04 #@! TO.N,Net-(D31-K)*
X74295000Y-49640000D03*
D19*
G04 #@! TO.P,D31,2,A*
G04 #@! TO.N,26*
X76835000Y-49640000D03*
G04 #@! TD*
D20*
G04 #@! TO.P,DS1,1,3V3*
G04 #@! TO.N,+3.3V*
X105720000Y-105000000D03*
D21*
G04 #@! TO.P,DS1,2,GND*
G04 #@! TO.N,GND*
X108260000Y-105000000D03*
G04 #@! TO.P,DS1,3,SDI*
G04 #@! TO.N,23*
X110800000Y-105000000D03*
G04 #@! TO.P,DS1,4,SCK*
G04 #@! TO.N,18*
X113340000Y-105000000D03*
G04 #@! TO.P,DS1,5,CS*
G04 #@! TO.N,5*
X115880000Y-105000000D03*
G04 #@! TO.P,DS1,6,DC*
G04 #@! TO.N,17*
X118420000Y-105000000D03*
G04 #@! TO.P,DS1,7,RES*
G04 #@! TO.N,16*
X120960000Y-105000000D03*
G04 #@! TO.P,DS1,8,BSY*
G04 #@! TO.N,34*
X123500000Y-105000000D03*
G04 #@! TD*
D15*
G04 #@! TO.P,C21,1*
G04 #@! TO.N,+3.3V*
X105750000Y-101900000D03*
G04 #@! TO.P,C21,2*
G04 #@! TO.N,GND*
X108250000Y-101900000D03*
G04 #@! TD*
D22*
G04 #@! TO.P,R31,1*
G04 #@! TO.N,Net-(D31-K)*
X71000000Y-55600000D03*
G04 #@! TO.P,R31,2*
G04 #@! TO.N,GND*
X71000000Y-47980000D03*
G04 #@! TD*
D15*
G04 #@! TO.P,C10,1*
G04 #@! TO.N,+3.3V*
X100200000Y-70400000D03*
G04 #@! TO.P,C10,2*
G04 #@! TO.N,GND*
X97934232Y-69343454D03*
G04 #@! TD*
D22*
G04 #@! TO.P,R1,1*
G04 #@! TO.N,Net-(D1-K)*
X82452118Y-99661600D03*
G04 #@! TO.P,R1,2*
G04 #@! TO.N,GND*
X74947883Y-98338401D03*
G04 #@! TD*
G04 #@! TO.P,R32,1*
G04 #@! TO.N,Net-(D32-K)*
X102400000Y-42090000D03*
G04 #@! TO.P,R32,2*
G04 #@! TO.N,GND*
X102400000Y-49710000D03*
G04 #@! TD*
D15*
G04 #@! TO.P,C20,1*
G04 #@! TO.N,+3.3V*
X110900000Y-97700000D03*
G04 #@! TO.P,C20,2*
G04 #@! TO.N,GND*
X110899999Y-100200000D03*
G04 #@! TD*
G04 #@! TO.P,SW1,1,A*
G04 #@! TO.N,VBAT*
X210600000Y-108100000D03*
G04 #@! TO.P,SW1,2,B*
G04 #@! TO.N,Net-(BT1-Pin_1)*
X210600000Y-105600000D03*
G04 #@! TO.P,SW1,3,C*
G04 #@! TO.N,unconnected-(SW1-C-Pad3)*
X210600000Y-103100000D03*
G04 #@! TD*
D22*
G04 #@! TO.P,R20,1*
G04 #@! TO.N,Net-(D20-DIN)*
X110532063Y-92700000D03*
G04 #@! TO.P,R20,2*
G04 #@! TO.N,14*
X109867936Y-85108996D03*
G04 #@! TD*
D16*
G04 #@! TO.P,D22,1,DOUT*
G04 #@! TO.N,D22*
X90725201Y-92726961D03*
D17*
G04 #@! TO.P,D22,2,VDD*
G04 #@! TO.N,+3.3V*
X92350134Y-93013480D03*
G04 #@! TO.P,D22,3,GND*
G04 #@! TO.N,GND*
X93975067Y-93300000D03*
G04 #@! TO.P,D22,4,DIN*
G04 #@! TO.N,D21*
X95600000Y-93586519D03*
G04 #@! TD*
D18*
G04 #@! TO.P,D51,1,K*
G04 #@! TO.N,Net-(D51-K)*
X129000000Y-89400000D03*
D19*
G04 #@! TO.P,D51,2,A*
G04 #@! TO.N,19*
X129000000Y-86860000D03*
G04 #@! TD*
D16*
G04 #@! TO.P,D20,1,DOUT*
G04 #@! TO.N,D20*
X104150134Y-95126961D03*
D17*
G04 #@! TO.P,D20,2,VDD*
G04 #@! TO.N,+3.3V*
X105775067Y-95413480D03*
G04 #@! TO.P,D20,3,GND*
G04 #@! TO.N,GND*
X107400000Y-95700000D03*
G04 #@! TO.P,D20,4,DIN*
G04 #@! TO.N,Net-(D20-DIN)*
X109024933Y-95986519D03*
G04 #@! TD*
D22*
G04 #@! TO.P,R10,1*
G04 #@! TO.N,Net-(D10-DIN)*
X109035873Y-75408996D03*
G04 #@! TO.P,R10,2*
G04 #@! TO.N,27*
X109700000Y-83000000D03*
G04 #@! TD*
D23*
G04 #@! TO.P,D2,1,K*
G04 #@! TO.N,Net-(D2-K)*
X99200000Y-101900000D03*
D19*
G04 #@! TO.P,D2,2,A*
G04 #@! TO.N,32*
X101701412Y-102341066D03*
G04 #@! TD*
D16*
G04 #@! TO.P,D23,1,DOUT*
G04 #@! TO.N,D23*
X83636461Y-91383245D03*
D17*
G04 #@! TO.P,D23,2,VDD*
G04 #@! TO.N,+3.3V*
X85261394Y-91669764D03*
G04 #@! TO.P,D23,3,GND*
G04 #@! TO.N,GND*
X86886327Y-91956284D03*
G04 #@! TO.P,D23,4,DIN*
G04 #@! TO.N,D22*
X88511260Y-92242803D03*
G04 #@! TD*
D18*
G04 #@! TO.P,D32,1,K*
G04 #@! TO.N,Net-(D32-K)*
X97125000Y-46800000D03*
D19*
G04 #@! TO.P,D32,2,A*
G04 #@! TO.N,26*
X99665000Y-46800000D03*
G04 #@! TD*
D18*
G04 #@! TO.P,D4,1,K*
G04 #@! TO.N,Net-(D4-K)*
X87725000Y-54300000D03*
D19*
G04 #@! TO.P,D4,2,A*
G04 #@! TO.N,25*
X90265000Y-54300000D03*
G04 #@! TD*
D18*
G04 #@! TO.P,J1,1,Pin_1*
G04 #@! TO.N,VBAT*
X205400000Y-108200000D03*
D19*
G04 #@! TO.P,J1,2,Pin_2*
G04 #@! TO.N,GBAT*
X205400000Y-103120000D03*
G04 #@! TD*
D22*
G04 #@! TO.P,R52,1*
G04 #@! TO.N,Net-(D52-K)*
X131600000Y-75200000D03*
G04 #@! TO.P,R52,2*
G04 #@! TO.N,GND*
X131600000Y-67580000D03*
G04 #@! TD*
D24*
G04 #@! TO.P,J21,1,Pin_1*
G04 #@! TO.N,GND*
X202063450Y-66847978D03*
D25*
G04 #@! TO.P,J21,2,Pin_2*
X200990000Y-69150000D03*
G04 #@! TD*
D23*
G04 #@! TO.P,D1,1,K*
G04 #@! TO.N,Net-(D1-K)*
X84744370Y-99778599D03*
D19*
G04 #@! TO.P,D1,2,A*
G04 #@! TO.N,33*
X87245782Y-100219665D03*
G04 #@! TD*
D26*
G04 #@! TO.P,D10,1,DOUT*
G04 #@! TO.N,D10*
X102500000Y-71600000D03*
D27*
G04 #@! TO.P,D10,2,VDD*
G04 #@! TO.N,+3.3V*
X103995408Y-72297321D03*
G04 #@! TO.P,D10,3,GND*
G04 #@! TO.N,GND*
X105490816Y-72994640D03*
G04 #@! TO.P,D10,4,DIN*
G04 #@! TO.N,Net-(D10-DIN)*
X106986224Y-73691960D03*
G04 #@! TD*
D18*
G04 #@! TO.P,BT1,1,Pin_1*
G04 #@! TO.N,Net-(BT1-Pin_1)*
X204800000Y-55400000D03*
D19*
G04 #@! TO.P,BT1,2,Pin_2*
G04 #@! TO.N,GBAT*
X204800000Y-60480000D03*
G04 #@! TD*
D22*
G04 #@! TO.P,R2,1*
G04 #@! TO.N,Net-(D2-K)*
X96952118Y-101761600D03*
G04 #@! TO.P,R2,2*
G04 #@! TO.N,GND*
X89447883Y-100438401D03*
G04 #@! TD*
G04 #@! TO.P,R4,1*
G04 #@! TO.N,Net-(D4-K)*
X85080000Y-58100000D03*
G04 #@! TO.P,R4,2*
G04 #@! TO.N,GND*
X92700000Y-58100000D03*
G04 #@! TD*
G04 #@! TO.P,R51,1*
G04 #@! TO.N,Net-(D51-K)*
X129000000Y-92390000D03*
G04 #@! TO.P,R51,2*
G04 #@! TO.N,GND*
X129000000Y-100010000D03*
G04 #@! TD*
D15*
G04 #@! TO.P,C11,1*
G04 #@! TO.N,+3.3V*
X88200000Y-66300000D03*
G04 #@! TO.P,C11,2*
G04 #@! TO.N,GND*
X85713696Y-66038679D03*
G04 #@! TD*
D10*
G04 #@! TO.P,JSAO2,1,Pin_1*
G04 #@! TO.N,+3.3V*
X71520000Y-42600000D03*
D11*
G04 #@! TO.P,JSAO2,2,Pin_2*
G04 #@! TO.N,GND*
X71520000Y-45140000D03*
D12*
G04 #@! TO.P,JSAO2,3,Pin_3*
G04 #@! TO.N,unconnected-(JSAO2-Pin_3-Pad3)*
X74060000Y-42600000D03*
G04 #@! TO.P,JSAO2,4,Pin_4*
G04 #@! TO.N,unconnected-(JSAO2-Pin_4-Pad4)*
X74060000Y-45140000D03*
D11*
G04 #@! TO.P,JSAO2,5,Pin_5*
G04 #@! TO.N,unconnected-(JSAO2-Pin_5-Pad5)*
X76600000Y-42600000D03*
G04 #@! TO.P,JSAO2,6,Pin_6*
G04 #@! TO.N,unconnected-(JSAO2-Pin_6-Pad6)*
X76600000Y-45140000D03*
G04 #@! TD*
D15*
G04 #@! TO.P,C22,1*
G04 #@! TO.N,+3.3V*
X71730000Y-96570000D03*
G04 #@! TO.P,C22,2*
G04 #@! TO.N,GND*
X71730000Y-99070000D03*
G04 #@! TD*
D22*
G04 #@! TO.P,R6,1*
G04 #@! TO.N,Net-(D6-K)*
X201900000Y-116290000D03*
G04 #@! TO.P,R6,2*
G04 #@! TO.N,GND*
X201900000Y-123910000D03*
G04 #@! TD*
D18*
G04 #@! TO.P,D52,1,K*
G04 #@! TO.N,Net-(D52-K)*
X131600000Y-77725000D03*
D19*
G04 #@! TO.P,D52,2,A*
G04 #@! TO.N,19*
X131600000Y-80265000D03*
G04 #@! TD*
D28*
G04 #@! TO.P,J22,1,Pin_1*
G04 #@! TO.N,GND*
X154343116Y-51680646D03*
D29*
G04 #@! TO.P,J22,2,Pin_2*
X155416566Y-49378624D03*
G04 #@! TD*
D30*
G04 #@! TO.P,D11,1,DOUT*
G04 #@! TO.N,D11*
X90830757Y-66890122D03*
D31*
G04 #@! TO.P,D11,2,VDD*
G04 #@! TO.N,+3.3V*
X92400000Y-67400000D03*
G04 #@! TO.P,D11,3,GND*
G04 #@! TO.N,GND*
X93969245Y-67909877D03*
G04 #@! TO.P,D11,4,DIN*
G04 #@! TO.N,D10*
X95538487Y-68419755D03*
G04 #@! TD*
D18*
G04 #@! TO.P,D6,1,K*
G04 #@! TO.N,Net-(D6-K)*
X201800000Y-113775000D03*
D19*
G04 #@! TO.P,D6,2,A*
G04 #@! TO.N,12*
X201800000Y-111235000D03*
G04 #@! TD*
D32*
G04 #@! TO.P,TCH1,1*
G04 #@! TO.N,4*
X123100000Y-48050000D03*
D33*
G04 #@! TO.P,TCH1,2*
G04 #@! TO.N,2*
X168670000Y-40440000D03*
D34*
G04 #@! TO.P,TCH1,3*
G04 #@! TO.N,15*
X77600000Y-109380000D03*
D35*
G04 #@! TO.P,TCH1,4*
G04 #@! TO.N,13*
X213900000Y-128990000D03*
G04 #@! TD*
D36*
G04 #@! TO.P,U1,0,GPIO0/TCH1*
G04 #@! TO.N,unconnected-(U1-GPIO0{slash}TCH1-Pad0)*
X191540000Y-99400000D03*
G04 #@! TO.P,U1,2,GPIO2/TCH2*
G04 #@! TO.N,2*
X194080000Y-99400000D03*
G04 #@! TO.P,U1,3V3,3v3*
G04 #@! TO.N,+3.3V*
X168680000Y-99400000D03*
G04 #@! TO.P,U1,4,GPIO4/TCH0*
G04 #@! TO.N,4*
X189000000Y-99400000D03*
G04 #@! TO.P,U1,5,GPIO5*
G04 #@! TO.N,5*
X181380000Y-99400000D03*
G04 #@! TO.P,U1,12,GPIO12/TCH5*
G04 #@! TO.N,12*
X196620000Y-76540000D03*
G04 #@! TO.P,U1,13,GPIO13/TCH4*
G04 #@! TO.N,13*
X199160000Y-99400000D03*
G04 #@! TO.P,U1,14,GPIO14/TCH6*
G04 #@! TO.N,14*
X194080000Y-76540000D03*
G04 #@! TO.P,U1,15,GPIO15/TCH3*
G04 #@! TO.N,15*
X196620000Y-99400000D03*
G04 #@! TO.P,U1,16,GPIO16*
G04 #@! TO.N,16*
X186460000Y-99400000D03*
G04 #@! TO.P,U1,17,GPIO17*
G04 #@! TO.N,17*
X183920000Y-99400000D03*
G04 #@! TO.P,U1,18,GPIO18*
G04 #@! TO.N,18*
X178840000Y-99400000D03*
G04 #@! TO.P,U1,19,GPIO19*
G04 #@! TO.N,19*
X173760000Y-99400000D03*
G04 #@! TO.P,U1,22,GPIO22*
G04 #@! TO.N,unconnected-(U1-GPIO22-Pad22)*
X171220000Y-99400000D03*
G04 #@! TO.P,U1,23,GPIO23*
G04 #@! TO.N,23*
X176300000Y-99400000D03*
G04 #@! TO.P,U1,25,GPIO25*
G04 #@! TO.N,25*
X186460000Y-76540000D03*
G04 #@! TO.P,U1,26,GPIO26*
G04 #@! TO.N,26*
X189000000Y-76540000D03*
G04 #@! TO.P,U1,27,GPIO27/TCH7*
G04 #@! TO.N,27*
X191540000Y-76540000D03*
G04 #@! TO.P,U1,32,GPIO32/TCH9*
G04 #@! TO.N,32*
X181380000Y-76540000D03*
G04 #@! TO.P,U1,33,GPIO33/TCH8*
G04 #@! TO.N,33*
X183920000Y-76540000D03*
G04 #@! TO.P,U1,34,GPIO34*
G04 #@! TO.N,34*
X176300000Y-76540000D03*
G04 #@! TO.P,U1,35,GPIO35*
G04 #@! TO.N,unconnected-(U1-GPIO35-Pad35)*
X178840000Y-76540000D03*
G04 #@! TO.P,U1,36,GPIO36/VP*
G04 #@! TO.N,unconnected-(U1-GPIO36{slash}VP-Pad36)*
X168680000Y-76540000D03*
G04 #@! TO.P,U1,39,GPIO39/VN*
G04 #@! TO.N,unconnected-(U1-GPIO39{slash}VN-Pad39)*
X171220000Y-76540000D03*
G04 #@! TO.P,U1,EN,EN*
G04 #@! TO.N,unconnected-(U1-PadEN)*
X173760000Y-76540000D03*
G04 #@! TO.P,U1,GND,GND*
G04 #@! TO.N,GND*
X199160000Y-76540000D03*
G04 #@! TD*
D16*
G04 #@! TO.P,D24,1,DOUT*
G04 #@! TO.N,unconnected-(D24-DOUT-Pad1)*
X75950135Y-90026963D03*
D17*
G04 #@! TO.P,D24,2,VDD*
G04 #@! TO.N,+3.3V*
X77575068Y-90313482D03*
G04 #@! TO.P,D24,3,GND*
G04 #@! TO.N,GND*
X79200000Y-90600000D03*
G04 #@! TO.P,D24,4,DIN*
G04 #@! TO.N,D23*
X80824934Y-90886519D03*
G04 #@! TD*
D15*
G04 #@! TO.P,C23,1*
G04 #@! TO.N,+3.3V*
X71730000Y-91940000D03*
G04 #@! TO.P,C23,2*
G04 #@! TO.N,GND*
X71730000Y-94440000D03*
G04 #@! TD*
D37*
G04 #@! TO.N,+3.3V*
X68000000Y-91940000D03*
X97550000Y-115425000D03*
G04 #@! TO.N,GND*
X176500000Y-38725000D03*
X120650000Y-38375000D03*
X209625000Y-125700000D03*
G04 #@! TO.N,33*
X146000000Y-112000000D03*
X157000000Y-82000000D03*
G04 #@! TO.N,32*
X146000000Y-110000000D03*
X157000000Y-80000000D03*
G04 #@! TO.N,34*
X146000000Y-108000000D03*
X157000000Y-78000000D03*
G04 #@! TO.N,13*
X213880000Y-130890000D03*
G04 #@! TO.N,15*
X77600000Y-111500000D03*
G04 #@! TD*
D38*
G04 #@! TO.N,+3.3V*
X72250000Y-63550000D02*
X75225000Y-63875000D01*
X68000000Y-91940000D02*
X68000000Y-89210000D01*
X69800000Y-42600000D02*
X68725000Y-43675000D01*
X153875000Y-99400000D02*
X151700000Y-101575000D01*
X75225000Y-63875000D02*
X79450000Y-64200000D01*
X168680000Y-99400000D02*
X153875000Y-99400000D01*
X69800000Y-42600000D02*
X71520000Y-42600000D01*
X69875000Y-65925000D02*
X72250000Y-63550000D01*
X105720000Y-105455000D02*
X105720000Y-105000000D01*
X202460000Y-43950000D02*
X202460000Y-46885000D01*
X207600000Y-96075000D02*
X200800000Y-102875000D01*
X168680000Y-100805000D02*
X168680000Y-99400000D01*
X70920000Y-86800000D02*
X69700000Y-86800000D01*
X88200000Y-66300000D02*
X86850000Y-64525000D01*
X68000000Y-94550000D02*
X70020000Y-96570000D01*
X207600000Y-52025000D02*
X207600000Y-96075000D01*
X150100000Y-116750000D02*
X98875000Y-116750000D01*
X68725000Y-43675000D02*
X68725000Y-48375000D01*
X70020000Y-96570000D02*
X71730000Y-96570000D01*
X100200000Y-70400000D02*
X100000000Y-68300000D01*
X68000000Y-91940000D02*
X71730000Y-91940000D01*
X151700000Y-101575000D02*
X151700000Y-115150000D01*
X204520000Y-42600000D02*
X203810000Y-42600000D01*
X151700000Y-115150000D02*
X150100000Y-116750000D01*
X110250000Y-103375000D02*
X112400000Y-101225000D01*
X98875000Y-116750000D02*
X97550000Y-115425000D01*
X75225000Y-63875000D02*
X75800000Y-65500000D01*
X200800000Y-102875000D02*
X170750000Y-102875000D01*
X69850000Y-49500000D02*
X69850000Y-65900000D01*
X97550000Y-113625000D02*
X97550000Y-115425000D01*
X170750000Y-102875000D02*
X168680000Y-100805000D01*
X202460000Y-46885000D02*
X207600000Y-52025000D01*
X103625000Y-104025000D02*
X105750000Y-101900000D01*
X68000000Y-91940000D02*
X68000000Y-94550000D01*
X90600000Y-64825000D02*
X86850000Y-64525000D01*
X112400000Y-99200000D02*
X110900000Y-97700000D01*
X100000000Y-68300000D02*
X95525000Y-66325000D01*
X203810000Y-42600000D02*
X202460000Y-43950000D01*
X103625000Y-107550000D02*
X105720000Y-105455000D01*
X69700000Y-86800000D02*
X68000000Y-88500000D01*
X107225000Y-103375000D02*
X110250000Y-103375000D01*
X103625000Y-107550000D02*
X103625000Y-104025000D01*
X69850000Y-65900000D02*
X69875000Y-65925000D01*
X68000000Y-89210000D02*
X68000000Y-88500000D01*
X68000000Y-67800000D02*
X69875000Y-65925000D01*
X97550000Y-113625000D02*
X103625000Y-107550000D01*
X105750000Y-101900000D02*
X107225000Y-103375000D01*
X68000000Y-88500000D02*
X68000000Y-67800000D01*
X79450000Y-64200000D02*
X84775000Y-64325000D01*
X84775000Y-64325000D02*
X86850000Y-64525000D01*
X68725000Y-48375000D02*
X69850000Y-49500000D01*
X95525000Y-66325000D02*
X90600000Y-64825000D01*
X112400000Y-101225000D02*
X112400000Y-99200000D01*
D39*
G04 #@! TO.N,GND*
X79800000Y-92900000D02*
X78160000Y-93670000D01*
X81449998Y-65800000D02*
X80600000Y-67300000D01*
X78100000Y-92800000D02*
X74560000Y-92100000D01*
X78000000Y-91900000D02*
X74480000Y-91240000D01*
X98100000Y-71600000D02*
X97934232Y-69343454D01*
X73480000Y-94190000D02*
X73470000Y-96790000D01*
X79200000Y-90600000D02*
X78000000Y-91900000D01*
X108000000Y-97900000D02*
X107400000Y-95700000D01*
X106000000Y-97000000D02*
X101200000Y-96200000D01*
X107000000Y-100400000D02*
X107000000Y-97800000D01*
X74560000Y-92100000D02*
X71730000Y-94440000D01*
X87700000Y-93700000D02*
X92600000Y-94600000D01*
X79800000Y-92900000D02*
X86100000Y-94100000D01*
X105490816Y-72994640D02*
X103800000Y-74400000D01*
X93969245Y-67909877D02*
X92600000Y-69200000D01*
X73470000Y-96790000D02*
X71730000Y-99070000D01*
X78100000Y-92800000D02*
X79500000Y-92100000D01*
X74930000Y-93000000D02*
X73480000Y-94190000D01*
X72570000Y-89300000D02*
X70920000Y-89300000D01*
X93975067Y-93300000D02*
X93200000Y-94600000D01*
X79500000Y-92100000D02*
X85900000Y-93300000D01*
X108250000Y-101900000D02*
X107000000Y-100400000D01*
X73840000Y-90570000D02*
X72570000Y-89300000D01*
X92600000Y-69200000D02*
X87000000Y-67400000D01*
X80600000Y-67300000D02*
X74600000Y-67200000D01*
X107000000Y-97800000D02*
X106000000Y-97000000D01*
X93200000Y-94600000D02*
X92600000Y-94600000D01*
X85900000Y-93300000D02*
X86886327Y-91956284D01*
X74480000Y-91240000D02*
X73840000Y-90570000D01*
X78160000Y-93670000D02*
X74930000Y-93000000D01*
X74600000Y-67200000D02*
X73313696Y-65238679D01*
X87000000Y-67400000D02*
X85713696Y-66038679D01*
X86100000Y-94100000D02*
X87700000Y-93700000D01*
X101200000Y-96200000D02*
X100800000Y-94500000D01*
X103800000Y-74400000D02*
X98100000Y-71600000D01*
X110899999Y-100200000D02*
X108000000Y-97900000D01*
D38*
G04 #@! TO.N,33*
X157000000Y-82000000D02*
X156430000Y-82570000D01*
X148125000Y-100889212D02*
X148125000Y-110500000D01*
X156430000Y-82570000D02*
X156430000Y-92584212D01*
X156430000Y-92584212D02*
X148125000Y-100889212D01*
X148125000Y-110500000D02*
X146625000Y-112000000D01*
X146625000Y-112000000D02*
X146000000Y-112000000D01*
G04 #@! TO.N,32*
X147600000Y-100707106D02*
X147600000Y-109125000D01*
X155930000Y-81070000D02*
X155930000Y-92377106D01*
X155930000Y-92377106D02*
X147600000Y-100707106D01*
X157000000Y-80000000D02*
X155930000Y-81070000D01*
X147600000Y-109125000D02*
X146725000Y-110000000D01*
X146725000Y-110000000D02*
X146000000Y-110000000D01*
G04 #@! TO.N,34*
X146675000Y-108000000D02*
X147100000Y-107575000D01*
X155430000Y-79570000D02*
X155430000Y-92170000D01*
X147100000Y-107575000D02*
X147100000Y-100500000D01*
X155430000Y-92170000D02*
X149525000Y-98075000D01*
X146000000Y-108000000D02*
X146675000Y-108000000D01*
X147100000Y-100500000D02*
X149475000Y-98125000D01*
X157000000Y-78000000D02*
X155430000Y-79570000D01*
D39*
G04 #@! TO.N,4*
X163900000Y-71300000D02*
X163900000Y-79900000D01*
X145900000Y-42400000D02*
X163700000Y-42400000D01*
X123100000Y-48050000D02*
X123100000Y-45900000D01*
X123100000Y-45900000D02*
X124900000Y-44100000D01*
X169900000Y-85900000D02*
X181700000Y-85900000D01*
X124900000Y-44100000D02*
X132700000Y-44100000D01*
X163700000Y-42400000D02*
X166900000Y-45600000D01*
X166900000Y-68300000D02*
X163900000Y-71300000D01*
X138500000Y-41400000D02*
X145900000Y-42400000D01*
X181700000Y-85900000D02*
X189000000Y-93200000D01*
X132700000Y-44100000D02*
X138500000Y-41400000D01*
X166900000Y-45600000D02*
X166900000Y-68300000D01*
X163900000Y-79900000D02*
X169900000Y-85900000D01*
X189000000Y-93200000D02*
X189000000Y-99400000D01*
G04 #@! TO.N,13*
X213880000Y-129010000D02*
X213900000Y-128990000D01*
X213880000Y-130890000D02*
X213880000Y-129010000D01*
D38*
G04 #@! TO.N,15*
X77600000Y-111500000D02*
X77600000Y-109380000D01*
D39*
G04 #@! TO.N,2*
X171500000Y-84500000D02*
X186200000Y-84500000D01*
X186200000Y-84500000D02*
X194080000Y-92380000D01*
X168670000Y-68870000D02*
X168700000Y-68900000D01*
X168670000Y-40440000D02*
X168670000Y-68870000D01*
X168700000Y-68900000D02*
X165900000Y-71700000D01*
X194080000Y-92380000D02*
X194080000Y-99400000D01*
X165900000Y-71700000D02*
X165900000Y-78900000D01*
X165900000Y-78900000D02*
X171500000Y-84500000D01*
G04 #@! TD*
G04 #@! TA.AperFunction,Conductor*
G04 #@! TO.N,GND*
G36*
X175206821Y-37475758D02*
G01*
X175418970Y-37499330D01*
X175843268Y-37546474D01*
X175901083Y-37568411D01*
X176121218Y-37723801D01*
X176286319Y-37840343D01*
X176310628Y-37862939D01*
X176871075Y-38545222D01*
X176878431Y-38555147D01*
X177207258Y-39048387D01*
X177227656Y-39106873D01*
X177272950Y-39650411D01*
X177267479Y-39698500D01*
X177087055Y-40262325D01*
X177047875Y-40320176D01*
X177043354Y-40323733D01*
X176590206Y-40663594D01*
X176557076Y-40681325D01*
X175724999Y-40975000D01*
X175100000Y-41399999D01*
X175083945Y-41584638D01*
X175050000Y-41975000D01*
X175124385Y-42718849D01*
X175125000Y-42731187D01*
X175125000Y-43148386D01*
X175114078Y-43199271D01*
X174913113Y-43645858D01*
X174874435Y-43694173D01*
X174408304Y-44043771D01*
X174390776Y-44054760D01*
X173632509Y-44446124D01*
X173617034Y-44452821D01*
X172425738Y-44874738D01*
X172424302Y-44875237D01*
X172040481Y-45005900D01*
X171250000Y-45275000D01*
X171249997Y-45275001D01*
X171249996Y-45275002D01*
X170653230Y-45609191D01*
X170592643Y-45625000D01*
X169394500Y-45625000D01*
X169327461Y-45605315D01*
X169281706Y-45552511D01*
X169270500Y-45501000D01*
X169270500Y-44731146D01*
X169290185Y-44664107D01*
X169342989Y-44618352D01*
X169412147Y-44608408D01*
X169475703Y-44637433D01*
X169511706Y-44690666D01*
X169512567Y-44693158D01*
X169540039Y-44772705D01*
X169543761Y-44782895D01*
X169544322Y-44784432D01*
X169597599Y-44874738D01*
X169603786Y-44885226D01*
X169692754Y-44961249D01*
X169692755Y-44961250D01*
X169801589Y-45004267D01*
X169879525Y-45007832D01*
X169918491Y-45009615D01*
X169918492Y-45009615D01*
X169918492Y-45009614D01*
X169918493Y-45009615D01*
X169919543Y-45009488D01*
X169922364Y-45009150D01*
X169936262Y-45007045D01*
X169943841Y-45005899D01*
X170053928Y-44966197D01*
X170145158Y-44892902D01*
X170260147Y-44764057D01*
X170309378Y-44693156D01*
X170465797Y-44396501D01*
X170478439Y-44369911D01*
X170638923Y-43992842D01*
X170648018Y-43969160D01*
X170775201Y-43599070D01*
X170787259Y-43554920D01*
X170843776Y-43279204D01*
X170845591Y-43269689D01*
X170862558Y-43173681D01*
X170876533Y-43145511D01*
X170888837Y-43116569D01*
X170891939Y-43114457D01*
X170893608Y-43111094D01*
X170920601Y-43094947D01*
X170946596Y-43077253D01*
X170951616Y-43076395D01*
X170953569Y-43075227D01*
X170981379Y-43071308D01*
X171020018Y-43070286D01*
X171074026Y-43081095D01*
X171103172Y-43094163D01*
X171153838Y-43135936D01*
X171262892Y-43290867D01*
X171262944Y-43290940D01*
X171302741Y-43347480D01*
X171313460Y-43365888D01*
X171342543Y-43427458D01*
X171406231Y-43562293D01*
X171411590Y-43572856D01*
X171415312Y-43580192D01*
X171487351Y-43672418D01*
X171721728Y-43887429D01*
X171728949Y-43893687D01*
X171736879Y-43900561D01*
X171736881Y-43900562D01*
X171838406Y-43958769D01*
X171953329Y-43980856D01*
X172292310Y-43989173D01*
X172313250Y-43989070D01*
X172427950Y-43965852D01*
X172918671Y-43778295D01*
X172937784Y-43770344D01*
X173120909Y-43687836D01*
X173130251Y-43684078D01*
X173426536Y-43578703D01*
X173450035Y-43572856D01*
X173521821Y-43562293D01*
X173627303Y-43546772D01*
X173646861Y-43543333D01*
X173756098Y-43520966D01*
X173836572Y-43494160D01*
X173855504Y-43481026D01*
X173932725Y-43427461D01*
X173932726Y-43427459D01*
X173932728Y-43427458D01*
X174002016Y-43333147D01*
X174024195Y-43262188D01*
X174036926Y-43221457D01*
X174036929Y-43221443D01*
X174057436Y-43073334D01*
X174066059Y-43011056D01*
X174066046Y-43010039D01*
X174064670Y-42904403D01*
X174064669Y-42904393D01*
X174064669Y-42904387D01*
X174057706Y-42862218D01*
X174057420Y-42860403D01*
X174006646Y-42520586D01*
X174006429Y-42519067D01*
X173998865Y-42463773D01*
X173948989Y-42099146D01*
X173941905Y-42047133D01*
X173935208Y-42011596D01*
X173817470Y-41524437D01*
X173810137Y-41498457D01*
X173756259Y-41394571D01*
X173702057Y-41322344D01*
X173695985Y-41306124D01*
X173685474Y-41292358D01*
X173683991Y-41274081D01*
X173677564Y-41256911D01*
X173681225Y-41239981D01*
X173679825Y-41222717D01*
X173688457Y-41206542D01*
X173692334Y-41188620D01*
X173704688Y-41176132D01*
X173712724Y-41161077D01*
X173740775Y-41139658D01*
X173874316Y-41065077D01*
X173878304Y-41062943D01*
X174431070Y-40780354D01*
X174432442Y-40779665D01*
X174503907Y-40744398D01*
X174548340Y-40722473D01*
X174548718Y-40722285D01*
X174549491Y-40721902D01*
X175133476Y-40431275D01*
X175135560Y-40430229D01*
X175616721Y-40186822D01*
X175620191Y-40185043D01*
X175951448Y-40012880D01*
X175964168Y-40005936D01*
X176098442Y-39929043D01*
X176140100Y-39901110D01*
X176219370Y-39815019D01*
X176266391Y-39707854D01*
X176276068Y-39591228D01*
X176247352Y-39477779D01*
X176200493Y-39370919D01*
X176160892Y-39302498D01*
X176069301Y-39178474D01*
X175973279Y-39048449D01*
X175973274Y-39048443D01*
X175973261Y-39048425D01*
X175959163Y-39030562D01*
X175959162Y-39030561D01*
X175959148Y-39030543D01*
X175671863Y-38689549D01*
X175671859Y-38689544D01*
X175666336Y-38683143D01*
X175093524Y-38035160D01*
X175084432Y-38025259D01*
X174990827Y-37955021D01*
X174879488Y-37918982D01*
X174879487Y-37918982D01*
X174762475Y-37921048D01*
X174652485Y-37960992D01*
X174652484Y-37960992D01*
X173610613Y-38548835D01*
X173066354Y-38855915D01*
X173062376Y-38858192D01*
X173039164Y-38871672D01*
X172523551Y-39171086D01*
X172511394Y-39178474D01*
X171939317Y-39542015D01*
X171913515Y-39560064D01*
X171900680Y-39569915D01*
X171900679Y-39569914D01*
X171900678Y-39569916D01*
X171604870Y-39796968D01*
X171574397Y-39808753D01*
X171544378Y-39821692D01*
X171541975Y-39821293D01*
X171539705Y-39822172D01*
X171507700Y-39815612D01*
X171475448Y-39810267D01*
X171472749Y-39808449D01*
X171471258Y-39808144D01*
X171446174Y-39790552D01*
X171279190Y-39639464D01*
X171277713Y-39638106D01*
X171078624Y-39452023D01*
X171078610Y-39452011D01*
X171044528Y-39423914D01*
X171044522Y-39423909D01*
X170600634Y-39102116D01*
X170600507Y-39102024D01*
X170599250Y-39101118D01*
X170494236Y-39049463D01*
X170179092Y-38954811D01*
X170121343Y-38937466D01*
X170121341Y-38937465D01*
X170121339Y-38937465D01*
X170034645Y-38922782D01*
X170034637Y-38922781D01*
X169853249Y-38914833D01*
X169845952Y-38914513D01*
X169842824Y-38914337D01*
X169801512Y-38911477D01*
X169580912Y-38896207D01*
X169515392Y-38871940D01*
X169473393Y-38816102D01*
X169468332Y-38798969D01*
X169460648Y-38763797D01*
X169428876Y-38618367D01*
X169401963Y-38540208D01*
X169334588Y-38444522D01*
X169334584Y-38444519D01*
X169239804Y-38375903D01*
X169239790Y-38375895D01*
X168994600Y-38254029D01*
X168994592Y-38254025D01*
X168994589Y-38254024D01*
X168994583Y-38254021D01*
X168994577Y-38254019D01*
X168940129Y-38232352D01*
X168824101Y-38217081D01*
X168628966Y-38223814D01*
X168628956Y-38223815D01*
X168554682Y-38234297D01*
X168554681Y-38234297D01*
X168447418Y-38281076D01*
X168447415Y-38281078D01*
X168361148Y-38360152D01*
X168250672Y-38501469D01*
X168233872Y-38530494D01*
X168229087Y-38536016D01*
X168227658Y-38540165D01*
X168203337Y-38565741D01*
X168127814Y-38625296D01*
X168104906Y-38639613D01*
X167860894Y-38757318D01*
X167844615Y-38763797D01*
X167586448Y-38845935D01*
X167558238Y-38851415D01*
X167392308Y-38864009D01*
X167369486Y-38863635D01*
X167242792Y-38849825D01*
X167187808Y-38848111D01*
X167073391Y-38872698D01*
X166973161Y-38933101D01*
X166877005Y-39015367D01*
X166874589Y-39017454D01*
X166874579Y-39017465D01*
X166800246Y-39107841D01*
X166800245Y-39107844D01*
X166773854Y-39178474D01*
X166759283Y-39217469D01*
X166759282Y-39217472D01*
X166756133Y-39334449D01*
X166756134Y-39334452D01*
X166791142Y-39446121D01*
X166897785Y-39656512D01*
X166904120Y-39671325D01*
X166907913Y-39682078D01*
X166907915Y-39682083D01*
X166908885Y-39684832D01*
X166908886Y-39684836D01*
X166956799Y-39820665D01*
X166956800Y-39820666D01*
X166956800Y-39820668D01*
X166989122Y-39912298D01*
X166995101Y-39969900D01*
X166967637Y-40176330D01*
X166962556Y-40189312D01*
X166962105Y-40199937D01*
X166946092Y-40231389D01*
X166847241Y-40371711D01*
X166847241Y-40371712D01*
X166793167Y-40448470D01*
X166793166Y-40448472D01*
X166778591Y-40469159D01*
X166772061Y-40477627D01*
X166698456Y-40565009D01*
X166642486Y-40656607D01*
X166615626Y-40770515D01*
X166602064Y-40975000D01*
X166599593Y-41012257D01*
X166598823Y-41033237D01*
X166617258Y-41148803D01*
X166617258Y-41148804D01*
X166617259Y-41148805D01*
X166672219Y-41252125D01*
X166768545Y-41377730D01*
X166789578Y-41405156D01*
X166789580Y-41405158D01*
X166828641Y-41456093D01*
X166830861Y-41458958D01*
X166917200Y-41537958D01*
X167024512Y-41584642D01*
X167301573Y-41653912D01*
X167356170Y-41663118D01*
X167389827Y-41666124D01*
X167400961Y-41669698D01*
X167409061Y-41669382D01*
X167441713Y-41682780D01*
X167464528Y-41696214D01*
X167512309Y-41747192D01*
X167524944Y-41815909D01*
X167498422Y-41880549D01*
X167465523Y-41909326D01*
X167344010Y-41982412D01*
X167344006Y-41982414D01*
X167265478Y-42029645D01*
X167232054Y-42052434D01*
X167232035Y-42052448D01*
X167033520Y-42205052D01*
X167033521Y-42205053D01*
X166851488Y-42344988D01*
X166822310Y-42370041D01*
X166752250Y-42463773D01*
X166730990Y-42504962D01*
X166730989Y-42504964D01*
X166658682Y-42645038D01*
X166658680Y-42645039D01*
X166627529Y-42705387D01*
X166622219Y-42716113D01*
X166607229Y-42768716D01*
X166590147Y-42828658D01*
X166590147Y-42828663D01*
X166596355Y-42945516D01*
X166596356Y-42945522D01*
X166640173Y-43054034D01*
X166712652Y-43172483D01*
X166767543Y-43262188D01*
X166814967Y-43323501D01*
X166908984Y-43393187D01*
X166951029Y-43414677D01*
X167225413Y-43554920D01*
X167284752Y-43585249D01*
X167331921Y-43605214D01*
X167535277Y-43674482D01*
X167550849Y-43678110D01*
X167603973Y-43690488D01*
X167603981Y-43690489D01*
X167603984Y-43690490D01*
X167823983Y-43719146D01*
X167935627Y-43715995D01*
X167935626Y-43715995D01*
X167940518Y-43715857D01*
X167940574Y-43717868D01*
X168000971Y-43728747D01*
X168052123Y-43776342D01*
X168069500Y-43839648D01*
X168069500Y-45126000D01*
X168066949Y-45134685D01*
X168068238Y-45143647D01*
X168057259Y-45167687D01*
X168049815Y-45193039D01*
X168042974Y-45198966D01*
X168039213Y-45207203D01*
X168016978Y-45221492D01*
X167997011Y-45238794D01*
X167986496Y-45241081D01*
X167980435Y-45244977D01*
X167945500Y-45250000D01*
X167917033Y-45250000D01*
X167849994Y-45230315D01*
X167841631Y-45224441D01*
X166711512Y-44358817D01*
X166690831Y-44338760D01*
X165949392Y-43429900D01*
X165922267Y-43365510D01*
X165921881Y-43361537D01*
X165920741Y-43347480D01*
X165852599Y-42507054D01*
X165863308Y-42445722D01*
X166100000Y-41925000D01*
X166050078Y-41276025D01*
X166049937Y-41273944D01*
X166000214Y-40428637D01*
X166000000Y-40421356D01*
X166000000Y-39629583D01*
X166000339Y-39620423D01*
X166038806Y-39101118D01*
X166046304Y-38999891D01*
X166070887Y-38934490D01*
X166087282Y-38916642D01*
X166507179Y-38540944D01*
X166547476Y-38516826D01*
X167625000Y-38125000D01*
X168068013Y-37588720D01*
X168125883Y-37549574D01*
X168149910Y-37544454D01*
X168532548Y-37501939D01*
X168567307Y-37502983D01*
X169260631Y-37622522D01*
X169288399Y-37630742D01*
X169793251Y-37847107D01*
X169806356Y-37853667D01*
X170450000Y-38225000D01*
X171242065Y-38321007D01*
X171301540Y-38344905D01*
X171675000Y-38625000D01*
X172275000Y-38475000D01*
X172595940Y-38277498D01*
X172604250Y-38272817D01*
X173520746Y-37802184D01*
X173529408Y-37798151D01*
X174276993Y-37484647D01*
X174324947Y-37475000D01*
X175193128Y-37475000D01*
X175206821Y-37475758D01*
G37*
G04 #@! TD.AperFunction*
G04 #@! TD*
G04 #@! TA.AperFunction,Conductor*
G04 #@! TO.N,GND*
G36*
X75178301Y-98918746D02*
G01*
X75206619Y-98946213D01*
X75499998Y-99374999D01*
X75500000Y-99375000D01*
X76092428Y-99375000D01*
X76107481Y-99376150D01*
X76749083Y-99474858D01*
X76750931Y-99475161D01*
X77320422Y-99574203D01*
X77329474Y-99576220D01*
X78138558Y-99796879D01*
X78160382Y-99805737D01*
X79092373Y-100320785D01*
X79106773Y-100330483D01*
X79625000Y-100750000D01*
X80055376Y-101084737D01*
X80300001Y-101275001D01*
X80521155Y-101400001D01*
X80875000Y-101600000D01*
X80875002Y-101600000D01*
X80875003Y-101600001D01*
X80968404Y-101622417D01*
X81499999Y-101749999D01*
X81499999Y-101750000D01*
X81781250Y-101775000D01*
X82625000Y-101850000D01*
X83870979Y-101874919D01*
X83878996Y-101875406D01*
X84583850Y-101947086D01*
X85349986Y-102024999D01*
X85349993Y-102024999D01*
X85350000Y-102025000D01*
X86394196Y-102074723D01*
X86405731Y-102075955D01*
X87265849Y-102219308D01*
X87320139Y-102247525D01*
X87323159Y-102250733D01*
X87499586Y-102446762D01*
X87524460Y-102502663D01*
X87525000Y-102512990D01*
X87525000Y-103072748D01*
X87524898Y-103077243D01*
X87474998Y-104175032D01*
X87450000Y-104850000D01*
X87622336Y-105170054D01*
X87627088Y-105180222D01*
X87716640Y-105404102D01*
X87723502Y-105447455D01*
X87700781Y-105788272D01*
X87696494Y-105811216D01*
X87581792Y-106178262D01*
X87559390Y-106216584D01*
X87178447Y-106621336D01*
X87171193Y-106628298D01*
X86050018Y-107599984D01*
X86049984Y-107600015D01*
X85401764Y-108248234D01*
X85398119Y-108251698D01*
X84633755Y-108942091D01*
X84614629Y-108955629D01*
X83754710Y-109422443D01*
X83745054Y-109427029D01*
X81800008Y-110224996D01*
X80892845Y-110655317D01*
X79948757Y-111103154D01*
X79849998Y-111150001D01*
X79041615Y-111982881D01*
X79002412Y-112007671D01*
X77732460Y-112438975D01*
X77671280Y-112439785D01*
X77667674Y-112438590D01*
X76000003Y-111850000D01*
X73882748Y-111800182D01*
X73867367Y-111798612D01*
X71955940Y-111451080D01*
X71944240Y-111448208D01*
X69703057Y-110750951D01*
X69696991Y-110748845D01*
X67234638Y-109803699D01*
X67216332Y-109794391D01*
X65966234Y-108985504D01*
X65938912Y-108959160D01*
X65435907Y-108240581D01*
X65420643Y-108206483D01*
X65392352Y-108086246D01*
X65126212Y-106955151D01*
X65126288Y-106954236D01*
X65124345Y-106944767D01*
X65050764Y-106356112D01*
X65050000Y-106343833D01*
X65050000Y-105925502D01*
X65261134Y-105925502D01*
X65261134Y-105925505D01*
X65264042Y-105963860D01*
X65264043Y-105963864D01*
X65274998Y-106028556D01*
X65276073Y-106037200D01*
X65279390Y-106078714D01*
X65279391Y-106078716D01*
X65285701Y-106157713D01*
X65285701Y-106157714D01*
X65294820Y-106271895D01*
X65294821Y-106271897D01*
X65317479Y-106371445D01*
X65317480Y-106371448D01*
X65386580Y-106550722D01*
X65472448Y-106773500D01*
X65475751Y-106783678D01*
X65479560Y-106798011D01*
X65481197Y-106805258D01*
X65563382Y-107245195D01*
X65563387Y-107245216D01*
X65647321Y-107694512D01*
X65647329Y-107694550D01*
X65647332Y-107694565D01*
X65654836Y-107726494D01*
X65657539Y-107736001D01*
X65660133Y-107745126D01*
X65670554Y-107776243D01*
X65774322Y-108044312D01*
X65774342Y-108044362D01*
X65774774Y-108045478D01*
X65774775Y-108045481D01*
X65783371Y-108067686D01*
X65790554Y-108086244D01*
X65790555Y-108086246D01*
X65826045Y-108154736D01*
X65826050Y-108154745D01*
X65851138Y-108192475D01*
X65851141Y-108192479D01*
X65851144Y-108192483D01*
X65900569Y-108251698D01*
X65900568Y-108251698D01*
X65900576Y-108251706D01*
X65900578Y-108251708D01*
X66170578Y-108511708D01*
X66170584Y-108511713D01*
X66170589Y-108511718D01*
X66170590Y-108511719D01*
X66197620Y-108535237D01*
X66197635Y-108535249D01*
X66197646Y-108535259D01*
X66197655Y-108535266D01*
X66197673Y-108535281D01*
X66214288Y-108548324D01*
X66214297Y-108548331D01*
X66238667Y-108565853D01*
X66345725Y-108613118D01*
X66345728Y-108613118D01*
X66345731Y-108613120D01*
X66376399Y-108620964D01*
X66408595Y-108629199D01*
X66408597Y-108629199D01*
X66408600Y-108629200D01*
X66455680Y-108633606D01*
X66519334Y-108639565D01*
X66768341Y-108623670D01*
X66827615Y-108638832D01*
X66840497Y-108648548D01*
X66974939Y-108768331D01*
X67041937Y-108815396D01*
X67650984Y-109145730D01*
X67690721Y-109167282D01*
X67690722Y-109167283D01*
X67726396Y-109184139D01*
X67726401Y-109184141D01*
X67726409Y-109184144D01*
X67726417Y-109184148D01*
X68182911Y-109369578D01*
X68235825Y-109386392D01*
X68529377Y-109454972D01*
X68555353Y-109460030D01*
X68555366Y-109460029D01*
X68560349Y-109460485D01*
X68560215Y-109461943D01*
X68612532Y-109478340D01*
X68629260Y-109493359D01*
X68633125Y-109497719D01*
X68633126Y-109497720D01*
X68723877Y-109571608D01*
X69004869Y-109731741D01*
X69063907Y-109758577D01*
X69530345Y-109921114D01*
X69560228Y-109930078D01*
X69755439Y-109979408D01*
X69755443Y-109979408D01*
X69755445Y-109979409D01*
X69755450Y-109979410D01*
X69793340Y-109984735D01*
X69831241Y-109990063D01*
X70097906Y-109998540D01*
X70104116Y-109998670D01*
X70105574Y-109998701D01*
X70105574Y-109998700D01*
X70105578Y-109998701D01*
X70221199Y-109980616D01*
X70221202Y-109980614D01*
X70224887Y-109980038D01*
X70285301Y-109989726D01*
X70305756Y-110003675D01*
X70412204Y-110097780D01*
X70438694Y-110119033D01*
X70543399Y-110171302D01*
X70763361Y-110238782D01*
X70904333Y-110282030D01*
X70904345Y-110282033D01*
X70904361Y-110282038D01*
X70943956Y-110291741D01*
X71033326Y-110308273D01*
X71043397Y-110310688D01*
X71306712Y-110388638D01*
X71330797Y-110399438D01*
X71350611Y-110411730D01*
X71357825Y-110416206D01*
X71368750Y-110424060D01*
X71459074Y-110498806D01*
X71459079Y-110498810D01*
X71502856Y-110524223D01*
X71515204Y-110531391D01*
X71595267Y-110562342D01*
X71618946Y-110571496D01*
X73473193Y-110970210D01*
X73478451Y-110971100D01*
X73482202Y-110971736D01*
X73506015Y-110978938D01*
X73654732Y-111045299D01*
X73654735Y-111045299D01*
X73654742Y-111045303D01*
X73739506Y-111071037D01*
X73739513Y-111071039D01*
X74133596Y-111138615D01*
X74156078Y-111141735D01*
X74771222Y-111207166D01*
X74778409Y-111207857D01*
X75229843Y-111246620D01*
X75237297Y-111247181D01*
X75708434Y-111277673D01*
X75715032Y-111278038D01*
X75720827Y-111278305D01*
X75720844Y-111278304D01*
X75720845Y-111278305D01*
X75721149Y-111278304D01*
X75753915Y-111278288D01*
X76157460Y-111259280D01*
X76178427Y-111257344D01*
X76189269Y-111256344D01*
X76189275Y-111256343D01*
X76189299Y-111256341D01*
X76719881Y-111183172D01*
X76737962Y-111180202D01*
X76873054Y-111154418D01*
X76933754Y-111162081D01*
X76978361Y-111203961D01*
X76989832Y-111264061D01*
X76983077Y-111289545D01*
X76974500Y-111310253D01*
X76974499Y-111310257D01*
X76949500Y-111435930D01*
X76949500Y-111564069D01*
X76974499Y-111689742D01*
X76974500Y-111689747D01*
X77023534Y-111808125D01*
X77023538Y-111808133D01*
X77066365Y-111872226D01*
X77094724Y-111914669D01*
X77185331Y-112005276D01*
X77248848Y-112047717D01*
X77291866Y-112076461D01*
X77291870Y-112076463D01*
X77291873Y-112076465D01*
X77410256Y-112125501D01*
X77535931Y-112150500D01*
X77535932Y-112150500D01*
X77664068Y-112150500D01*
X77664069Y-112150500D01*
X77789744Y-112125501D01*
X77908127Y-112076465D01*
X78014669Y-112005276D01*
X78105276Y-111914669D01*
X78176465Y-111808127D01*
X78225501Y-111689744D01*
X78250500Y-111564069D01*
X78250500Y-111435931D01*
X78225501Y-111310256D01*
X78176465Y-111191873D01*
X78176463Y-111191871D01*
X78176461Y-111191865D01*
X78117185Y-111103154D01*
X78100500Y-111048152D01*
X78100500Y-110941534D01*
X78119407Y-110883343D01*
X78168907Y-110847379D01*
X78170309Y-110846936D01*
X78335834Y-110796056D01*
X78387947Y-110775414D01*
X78632769Y-110655317D01*
X78681934Y-110626025D01*
X78693194Y-110620258D01*
X78906159Y-110527882D01*
X78915982Y-110524228D01*
X79325472Y-110396166D01*
X79331110Y-110394585D01*
X79852308Y-110265073D01*
X79859993Y-110263072D01*
X81301080Y-109870600D01*
X81339457Y-109857761D01*
X82831485Y-109262191D01*
X82874817Y-109241396D01*
X84182550Y-108501136D01*
X84228869Y-108469869D01*
X85321268Y-107600039D01*
X85344285Y-107580039D01*
X85394740Y-107532250D01*
X85396729Y-107530416D01*
X85809273Y-107160848D01*
X85812930Y-107157730D01*
X86180033Y-106859951D01*
X86186722Y-106854980D01*
X86448187Y-106677306D01*
X86456125Y-106671752D01*
X86746358Y-106462745D01*
X86810481Y-106403321D01*
X87000100Y-106178262D01*
X87047683Y-106121786D01*
X87047683Y-106121785D01*
X87047688Y-106121780D01*
X87094035Y-106051211D01*
X87134883Y-105969196D01*
X87135332Y-105968291D01*
X87169234Y-105856282D01*
X87198433Y-105630401D01*
X87200613Y-105561701D01*
X87173883Y-105447768D01*
X87173686Y-105447455D01*
X87111607Y-105348687D01*
X86926629Y-105140520D01*
X86907312Y-105120425D01*
X86863230Y-105078032D01*
X86840902Y-105045773D01*
X86809054Y-104971686D01*
X86801061Y-104929278D01*
X86810350Y-104651566D01*
X86810982Y-104643238D01*
X86819430Y-104571916D01*
X86820520Y-104561362D01*
X86867034Y-104034371D01*
X86867922Y-104021760D01*
X86895707Y-103492709D01*
X86896053Y-103484136D01*
X86913378Y-102872906D01*
X86909045Y-102806597D01*
X86871765Y-102695667D01*
X86800486Y-102602852D01*
X86800485Y-102602851D01*
X86800484Y-102602850D01*
X86702934Y-102538210D01*
X86702929Y-102538208D01*
X86589681Y-102508747D01*
X86589677Y-102508746D01*
X86399515Y-102491746D01*
X85638874Y-102423746D01*
X85635154Y-102423453D01*
X85631347Y-102423153D01*
X85148426Y-102390255D01*
X85140471Y-102389803D01*
X84644421Y-102367270D01*
X84451688Y-102358516D01*
X84449516Y-102358433D01*
X84446441Y-102358315D01*
X83667713Y-102334168D01*
X83662818Y-102334050D01*
X82886982Y-102320514D01*
X82885857Y-102320496D01*
X82885857Y-102320497D01*
X82532306Y-102315624D01*
X82529637Y-102315551D01*
X81665584Y-102280325D01*
X81657767Y-102279695D01*
X81011510Y-102201780D01*
X80997676Y-102199102D01*
X80507705Y-102067482D01*
X80490024Y-102060869D01*
X80076079Y-101859168D01*
X80061167Y-101850201D01*
X79639998Y-101543509D01*
X79631595Y-101536656D01*
X79135645Y-101084737D01*
X79134445Y-101083625D01*
X79107573Y-101058313D01*
X78857037Y-100822327D01*
X78837995Y-100805630D01*
X78355626Y-100412156D01*
X78346700Y-100406076D01*
X78304976Y-100377657D01*
X78222337Y-100331255D01*
X77915916Y-100159198D01*
X77841178Y-100117232D01*
X77768122Y-100086357D01*
X77476676Y-100000000D01*
X77250741Y-99933054D01*
X77250737Y-99933053D01*
X77250733Y-99933052D01*
X77250731Y-99933051D01*
X77189366Y-99920620D01*
X77189360Y-99920619D01*
X76546234Y-99848499D01*
X76513760Y-99846357D01*
X75672701Y-99829486D01*
X75662773Y-99829427D01*
X75662761Y-99829427D01*
X75662746Y-99829427D01*
X75514667Y-99830607D01*
X75361076Y-99831832D01*
X75350310Y-99832082D01*
X74468827Y-99865916D01*
X74442714Y-99867883D01*
X74442696Y-99867884D01*
X74442696Y-99867885D01*
X73800637Y-99940164D01*
X73800635Y-99940164D01*
X73800629Y-99940165D01*
X73745174Y-99950926D01*
X73745163Y-99950929D01*
X73429032Y-100038841D01*
X73411140Y-100042083D01*
X73398584Y-100043181D01*
X71273087Y-100573184D01*
X71269748Y-100574034D01*
X71267887Y-100574517D01*
X71267880Y-100574519D01*
X71236530Y-100588364D01*
X71218944Y-100594232D01*
X70923368Y-100662910D01*
X70906498Y-100667267D01*
X70311727Y-100836502D01*
X70298908Y-100840413D01*
X69146650Y-101215921D01*
X69120435Y-101225620D01*
X68215582Y-101601496D01*
X68215564Y-101601505D01*
X68173360Y-101622417D01*
X68173335Y-101622431D01*
X67532014Y-101995085D01*
X67462624Y-102047751D01*
X67462621Y-102047753D01*
X67444886Y-102065022D01*
X67417395Y-102091790D01*
X67417394Y-102091791D01*
X67333909Y-102173080D01*
X67333907Y-102173080D01*
X67080791Y-102419537D01*
X67047324Y-102457089D01*
X66992064Y-102560244D01*
X66992059Y-102560254D01*
X66865682Y-102933523D01*
X66846975Y-103040528D01*
X66846777Y-103050548D01*
X66843773Y-103072867D01*
X66787061Y-103297083D01*
X66760067Y-103343816D01*
X66625691Y-103474359D01*
X66593372Y-103495310D01*
X66176219Y-103661628D01*
X66167188Y-103664732D01*
X66106263Y-103682435D01*
X66045976Y-103699951D01*
X66018342Y-103709226D01*
X66018337Y-103709228D01*
X65746249Y-103813142D01*
X65746247Y-103813142D01*
X65746247Y-103813143D01*
X65653177Y-103865923D01*
X65637361Y-103883296D01*
X65625526Y-103894330D01*
X65562937Y-103943776D01*
X65498021Y-104041149D01*
X65471402Y-104100331D01*
X65471399Y-104100340D01*
X65442208Y-104207656D01*
X65442206Y-104207667D01*
X65419447Y-104416603D01*
X65405669Y-104543090D01*
X65283671Y-105663080D01*
X65283670Y-105663092D01*
X65283282Y-105666645D01*
X65283283Y-105666646D01*
X65262207Y-105860124D01*
X65262207Y-105860126D01*
X65261134Y-105925502D01*
X65050000Y-105925502D01*
X65050000Y-105276449D01*
X65050043Y-105273539D01*
X65059929Y-104937400D01*
X65074653Y-104436771D01*
X65078097Y-104413643D01*
X65294068Y-103621747D01*
X65314765Y-103582963D01*
X65612093Y-103239892D01*
X65642627Y-103216186D01*
X66325000Y-102875000D01*
X66600000Y-102400000D01*
X66818956Y-101791787D01*
X66836526Y-101761378D01*
X67360015Y-101142709D01*
X67396291Y-101115792D01*
X68291371Y-100728731D01*
X68309173Y-100722961D01*
X69200000Y-100525000D01*
X71125000Y-100000000D01*
X71566963Y-99754464D01*
X71583721Y-99747092D01*
X72143695Y-99560434D01*
X72204877Y-99559971D01*
X72206231Y-99560410D01*
X72475000Y-99650000D01*
X73172852Y-99525383D01*
X73177128Y-99524716D01*
X73921227Y-99425503D01*
X73928798Y-99424788D01*
X74375000Y-99400000D01*
X74722468Y-98959872D01*
X74773364Y-98925917D01*
X74794349Y-98922391D01*
X75119101Y-98903288D01*
X75178301Y-98918746D01*
G37*
G04 #@! TD.AperFunction*
G04 #@! TD*
G04 #@! TA.AperFunction,Conductor*
G04 #@! TO.N,GND*
G36*
X213516807Y-113648253D02*
G01*
X213577869Y-113668115D01*
X214034824Y-113965136D01*
X214061725Y-113988795D01*
X214457999Y-114454999D01*
X214482437Y-114500172D01*
X214798725Y-115570685D01*
X214800957Y-115579387D01*
X215098495Y-116943103D01*
X215100712Y-116957021D01*
X215274903Y-118674046D01*
X215275083Y-118675971D01*
X215499842Y-121298163D01*
X215500101Y-121301811D01*
X215649842Y-123972193D01*
X215650029Y-123977843D01*
X215674993Y-126374328D01*
X215675000Y-126375620D01*
X215675000Y-130529495D01*
X215668400Y-130569411D01*
X215264782Y-131756523D01*
X215224565Y-131813658D01*
X215210464Y-131823362D01*
X214198294Y-132421462D01*
X214130564Y-132438620D01*
X214096680Y-132432568D01*
X212879037Y-132034493D01*
X212828696Y-132003105D01*
X211972075Y-131122688D01*
X211941501Y-131069505D01*
X211909331Y-130954071D01*
X211527455Y-129583811D01*
X211523864Y-129565917D01*
X211250000Y-127375000D01*
X211100000Y-126700000D01*
X210975000Y-126475000D01*
X210700000Y-126300000D01*
X210699999Y-126299999D01*
X210699998Y-126299999D01*
X210250001Y-126175000D01*
X210249997Y-126174999D01*
X209590917Y-126080845D01*
X209570715Y-126071641D01*
X209549026Y-126066923D01*
X209531402Y-126053730D01*
X209527335Y-126051877D01*
X209520772Y-126045772D01*
X209410794Y-125935794D01*
X209392148Y-125911914D01*
X209262880Y-125696468D01*
X209246459Y-125650216D01*
X209200275Y-125326925D01*
X209199787Y-125323083D01*
X209197856Y-125305700D01*
X209150374Y-124878366D01*
X209149811Y-124871598D01*
X209125000Y-124425000D01*
X209075239Y-123852754D01*
X209074885Y-123847251D01*
X209050000Y-123250000D01*
X209000126Y-122551774D01*
X208999924Y-122548216D01*
X208974873Y-121959522D01*
X208950153Y-121378612D01*
X208950058Y-121371385D01*
X208963326Y-120548743D01*
X209866098Y-120548743D01*
X209870323Y-121106811D01*
X209870323Y-121106845D01*
X209870324Y-121106861D01*
X209870659Y-121119835D01*
X209881754Y-121371385D01*
X209900792Y-121802988D01*
X209901273Y-121811527D01*
X209952113Y-122553087D01*
X209952674Y-122560218D01*
X210018779Y-123305209D01*
X210019501Y-123312495D01*
X210095426Y-124005908D01*
X210096602Y-124015459D01*
X210159484Y-124475034D01*
X210176914Y-124602419D01*
X210179642Y-124619319D01*
X210258901Y-125044862D01*
X210272632Y-125096579D01*
X210272634Y-125096585D01*
X210345397Y-125305700D01*
X210362105Y-125338257D01*
X210390464Y-125393518D01*
X210472664Y-125476816D01*
X210586648Y-125559346D01*
X210622899Y-125582389D01*
X210733210Y-125621464D01*
X211039734Y-125675687D01*
X211116777Y-125680800D01*
X211633648Y-125658799D01*
X211641315Y-125658390D01*
X211968406Y-125637381D01*
X211977689Y-125637134D01*
X211979010Y-125637148D01*
X211981124Y-125637171D01*
X212047946Y-125657577D01*
X212093130Y-125710871D01*
X212102615Y-125744160D01*
X212143412Y-126038875D01*
X212143581Y-126040086D01*
X212162730Y-126175000D01*
X212225513Y-126617352D01*
X212225649Y-126618298D01*
X212323278Y-127294894D01*
X212335253Y-127377877D01*
X212343571Y-127435520D01*
X212343674Y-127436254D01*
X212439673Y-128130868D01*
X212439845Y-128132163D01*
X212517782Y-128743498D01*
X212518003Y-128745334D01*
X212569859Y-129206859D01*
X212570285Y-129211413D01*
X212589733Y-129470254D01*
X212589734Y-129470265D01*
X212596310Y-129516631D01*
X212651115Y-129777885D01*
X212651117Y-129777894D01*
X212661221Y-129815616D01*
X212715470Y-129919312D01*
X212715471Y-129919314D01*
X212912365Y-130179748D01*
X212934260Y-130226576D01*
X212935798Y-130233226D01*
X212935799Y-130233227D01*
X212983912Y-130339903D01*
X212983915Y-130339909D01*
X213025201Y-130401699D01*
X213038014Y-130419645D01*
X213123291Y-130499792D01*
X213185076Y-130541075D01*
X213185091Y-130541084D01*
X213185095Y-130541087D01*
X213203535Y-130552598D01*
X213249980Y-130604796D01*
X213260832Y-130673818D01*
X213255409Y-130694168D01*
X213256267Y-130694429D01*
X213254497Y-130700261D01*
X213229500Y-130825928D01*
X213229500Y-130825929D01*
X213229500Y-130825931D01*
X213229500Y-130954069D01*
X213229500Y-130954071D01*
X213229499Y-130954071D01*
X213254497Y-131079738D01*
X213254499Y-131079744D01*
X213303533Y-131198124D01*
X213303538Y-131198133D01*
X213374723Y-131304668D01*
X213374726Y-131304672D01*
X213465327Y-131395273D01*
X213465331Y-131395276D01*
X213571866Y-131466461D01*
X213571872Y-131466464D01*
X213571873Y-131466465D01*
X213690256Y-131515501D01*
X213690260Y-131515501D01*
X213690261Y-131515502D01*
X213815928Y-131540500D01*
X213815931Y-131540500D01*
X213944071Y-131540500D01*
X214028615Y-131523682D01*
X214069744Y-131515501D01*
X214188127Y-131466465D01*
X214294669Y-131395276D01*
X214385276Y-131304669D01*
X214456465Y-131198127D01*
X214505501Y-131079744D01*
X214530500Y-130954069D01*
X214530500Y-130825931D01*
X214530499Y-130825928D01*
X214520459Y-130775454D01*
X214505501Y-130700256D01*
X214505499Y-130700253D01*
X214504687Y-130696167D01*
X214510914Y-130626575D01*
X214553776Y-130571397D01*
X214575323Y-130558939D01*
X214614905Y-130541087D01*
X214676708Y-130499792D01*
X214694647Y-130486984D01*
X214774792Y-130401708D01*
X214816087Y-130339905D01*
X214827757Y-130321211D01*
X214849421Y-130263947D01*
X214891550Y-130208214D01*
X214893352Y-130206903D01*
X214914133Y-130192095D01*
X214982219Y-130096913D01*
X215070936Y-129915847D01*
X215078484Y-129899395D01*
X215106225Y-129785704D01*
X215134292Y-129406993D01*
X215134761Y-129361805D01*
X215102854Y-128762911D01*
X215101364Y-128744471D01*
X215101288Y-128743525D01*
X215010071Y-127901864D01*
X215009535Y-127897205D01*
X214953261Y-127435752D01*
X214946554Y-127380748D01*
X214856990Y-126616718D01*
X214778331Y-125913703D01*
X214778258Y-125913019D01*
X214722296Y-125374649D01*
X214719850Y-125349722D01*
X214718538Y-125338269D01*
X214655937Y-124860410D01*
X214651391Y-124833672D01*
X214576233Y-124475029D01*
X214553645Y-124404679D01*
X214481635Y-124241144D01*
X214481628Y-124241131D01*
X214481328Y-124240448D01*
X214472845Y-124212832D01*
X214440905Y-124038534D01*
X214439522Y-124028818D01*
X214395229Y-123594845D01*
X214394876Y-123590699D01*
X214375887Y-123312495D01*
X214354107Y-122993412D01*
X214353948Y-122990603D01*
X214322442Y-122286883D01*
X214322413Y-122286158D01*
X214310614Y-121962247D01*
X214310505Y-121959538D01*
X214280711Y-121283432D01*
X214280485Y-121278939D01*
X214248945Y-120723205D01*
X214248427Y-120715549D01*
X214218230Y-120330581D01*
X214215002Y-120303151D01*
X214189240Y-120139343D01*
X214184418Y-120123699D01*
X214181373Y-120111728D01*
X214143832Y-119925696D01*
X214142362Y-119916717D01*
X214131889Y-119833848D01*
X214096034Y-119550140D01*
X214095622Y-119546421D01*
X214048724Y-119052457D01*
X213995691Y-118489959D01*
X213994969Y-118483028D01*
X213916685Y-117796911D01*
X213915669Y-117788826D01*
X213836497Y-117212533D01*
X213836467Y-117212310D01*
X213793000Y-116891610D01*
X213792423Y-116886590D01*
X213734375Y-116268611D01*
X213733950Y-116262377D01*
X213710479Y-115713178D01*
X213709896Y-115702985D01*
X213679198Y-115273962D01*
X213654663Y-115167266D01*
X213536151Y-114871086D01*
X213492901Y-114793103D01*
X213409157Y-114711358D01*
X213303409Y-114661233D01*
X213303406Y-114661232D01*
X213230836Y-114640577D01*
X213089523Y-114600358D01*
X213078683Y-114597993D01*
X213046167Y-114590898D01*
X213046164Y-114590898D01*
X212975953Y-114591809D01*
X212929145Y-114592417D01*
X212818958Y-114631851D01*
X212503076Y-114808137D01*
X212503065Y-114808144D01*
X212427705Y-114864454D01*
X212003163Y-115279780D01*
X212003143Y-115279800D01*
X211977219Y-115308058D01*
X211977210Y-115308067D01*
X211437393Y-115964282D01*
X211429848Y-115973780D01*
X211391786Y-116023405D01*
X211377501Y-116043427D01*
X210723915Y-117029871D01*
X210723912Y-117029877D01*
X210695404Y-117081853D01*
X210252759Y-118077920D01*
X210231806Y-118139895D01*
X210231802Y-118139909D01*
X209974212Y-119221268D01*
X209965648Y-119275564D01*
X209867199Y-120517958D01*
X209866098Y-120548743D01*
X208963326Y-120548743D01*
X208974857Y-119833848D01*
X208976398Y-119816261D01*
X209018968Y-119550199D01*
X209173799Y-118582502D01*
X209177108Y-118567701D01*
X209497602Y-117458297D01*
X209503532Y-117442102D01*
X209921437Y-116507963D01*
X209929641Y-116492616D01*
X210074383Y-116262345D01*
X210469788Y-115633290D01*
X210481442Y-115617637D01*
X211168124Y-114832857D01*
X211183104Y-114818396D01*
X211844913Y-114279144D01*
X211855487Y-114271421D01*
X212415755Y-113906029D01*
X212435167Y-113895698D01*
X213048693Y-113636129D01*
X213103522Y-113626501D01*
X213516807Y-113648253D01*
G37*
G04 #@! TD.AperFunction*
G04 #@! TD*
G04 #@! TA.AperFunction,Conductor*
G04 #@! TO.N,GND*
G36*
X121308286Y-38024665D02*
G01*
X121341025Y-38029748D01*
X121861315Y-38183908D01*
X121953131Y-38211113D01*
X122011816Y-38249032D01*
X122024784Y-38267133D01*
X122135162Y-38454776D01*
X122242411Y-38637098D01*
X122254301Y-38664338D01*
X122392810Y-39126035D01*
X122397334Y-39174876D01*
X122329662Y-39806479D01*
X122302948Y-39871040D01*
X122294049Y-39880950D01*
X122016886Y-40158113D01*
X121978051Y-40184406D01*
X121479742Y-40397967D01*
X121470108Y-40401630D01*
X120950005Y-40574997D01*
X120174999Y-40950000D01*
X120074999Y-41299999D01*
X120075000Y-41299999D01*
X120075000Y-41300000D01*
X120650000Y-41475000D01*
X120935930Y-41494062D01*
X121399998Y-41525000D01*
X121399998Y-41524999D01*
X121400000Y-41525000D01*
X122125000Y-41175000D01*
X122829914Y-40713159D01*
X122873546Y-40695290D01*
X123581126Y-40553774D01*
X123619126Y-40552125D01*
X124231772Y-40620196D01*
X124296225Y-40647164D01*
X124305757Y-40655757D01*
X124629300Y-40979300D01*
X124659256Y-41027769D01*
X124792675Y-41428025D01*
X124798898Y-41473135D01*
X124776407Y-41945434D01*
X124760388Y-42000743D01*
X124250000Y-42900000D01*
X124274999Y-43175000D01*
X124624997Y-43200000D01*
X124624997Y-43199999D01*
X124625000Y-43200000D01*
X125193636Y-43051659D01*
X125206513Y-43049022D01*
X126192847Y-42901072D01*
X126207218Y-42899767D01*
X126959666Y-42875494D01*
X126989993Y-42878259D01*
X127519914Y-42993459D01*
X127573531Y-43019854D01*
X127882715Y-43280728D01*
X127921259Y-43339005D01*
X127922177Y-43408868D01*
X127885178Y-43468138D01*
X127822010Y-43497995D01*
X127802751Y-43499500D01*
X127074575Y-43499500D01*
X127060735Y-43498725D01*
X126864320Y-43476665D01*
X126864316Y-43476665D01*
X126863608Y-43476586D01*
X126844226Y-43474448D01*
X126827685Y-43472624D01*
X126802683Y-43470757D01*
X125966276Y-43437860D01*
X125966269Y-43437861D01*
X125966266Y-43437861D01*
X125966263Y-43437861D01*
X125889326Y-43443207D01*
X125667673Y-43483096D01*
X125587414Y-43497540D01*
X125565452Y-43499500D01*
X124820940Y-43499500D01*
X124780019Y-43510464D01*
X124780019Y-43510465D01*
X124742751Y-43520451D01*
X124668214Y-43540423D01*
X124668209Y-43540426D01*
X124531290Y-43619475D01*
X124531282Y-43619481D01*
X124419478Y-43731286D01*
X123426962Y-44723801D01*
X123365639Y-44757286D01*
X123295947Y-44752302D01*
X123244113Y-44715613D01*
X123243435Y-44714802D01*
X123243424Y-44714786D01*
X122574976Y-43914532D01*
X122559873Y-43891751D01*
X122484667Y-43745517D01*
X122471513Y-43676900D01*
X122497545Y-43612061D01*
X122531742Y-43582123D01*
X122731094Y-43464039D01*
X122740137Y-43459178D01*
X123128523Y-43270730D01*
X123130657Y-43269720D01*
X123407600Y-43142004D01*
X123441722Y-43123961D01*
X123730744Y-42950426D01*
X123751152Y-42937202D01*
X123834800Y-42855359D01*
X123964369Y-42678007D01*
X123996719Y-42624373D01*
X124030092Y-42512206D01*
X124059996Y-42271976D01*
X124061949Y-42251445D01*
X124080844Y-41964770D01*
X124083210Y-41947514D01*
X124137602Y-41688058D01*
X124137600Y-41688057D01*
X124145367Y-41651012D01*
X124146807Y-41636320D01*
X124150960Y-41616158D01*
X124159778Y-41440500D01*
X124160225Y-41422971D01*
X124141059Y-41307525D01*
X124085446Y-41204557D01*
X123999412Y-41125225D01*
X123999408Y-41125223D01*
X123892282Y-41078127D01*
X123775664Y-41068366D01*
X123775662Y-41068366D01*
X123619345Y-41081188D01*
X123608401Y-41082952D01*
X123564621Y-41090012D01*
X123564621Y-41090013D01*
X123456993Y-41135931D01*
X123456992Y-41135932D01*
X123456987Y-41135935D01*
X123456985Y-41135936D01*
X123376548Y-41187336D01*
X123155540Y-41328561D01*
X123155530Y-41328568D01*
X123116298Y-41357617D01*
X123116273Y-41357637D01*
X122689731Y-41721375D01*
X122679828Y-41730142D01*
X122647029Y-41760282D01*
X122640528Y-41765854D01*
X122193941Y-42122646D01*
X122168213Y-42138489D01*
X121827285Y-42294769D01*
X121787756Y-42305452D01*
X121395622Y-42344035D01*
X121368256Y-42343693D01*
X120750199Y-42267235D01*
X120746359Y-42266699D01*
X120502631Y-42228777D01*
X120473987Y-42225504D01*
X120151152Y-42201840D01*
X120141832Y-42200802D01*
X119592792Y-42118489D01*
X119571805Y-42113442D01*
X118555910Y-41773273D01*
X118498590Y-41733321D01*
X118471969Y-41668721D01*
X118482216Y-41604777D01*
X118610496Y-41319919D01*
X118626300Y-41293922D01*
X118629631Y-41289712D01*
X118898340Y-40950000D01*
X118999587Y-40822001D01*
X119018742Y-40802612D01*
X119519159Y-40396881D01*
X119541324Y-40382530D01*
X120082261Y-40109217D01*
X120114342Y-40098205D01*
X120671352Y-39989105D01*
X120678660Y-39987900D01*
X120920589Y-39955430D01*
X120980185Y-39942141D01*
X121084483Y-39889064D01*
X121201826Y-39802409D01*
X121212218Y-39794434D01*
X121290479Y-39707426D01*
X121336248Y-39599720D01*
X121344564Y-39482989D01*
X121314528Y-39369883D01*
X121293375Y-39323134D01*
X121281121Y-39298616D01*
X121208690Y-39206698D01*
X121208687Y-39206696D01*
X121208685Y-39206694D01*
X121110336Y-39143277D01*
X120876006Y-39042161D01*
X120876001Y-39042159D01*
X120875996Y-39042157D01*
X120875990Y-39042155D01*
X120875981Y-39042152D01*
X120790582Y-39017414D01*
X120790585Y-39017414D01*
X120790579Y-39017413D01*
X120790576Y-39017412D01*
X120790570Y-39017411D01*
X120312423Y-38941933D01*
X120312424Y-38941933D01*
X120312417Y-38941932D01*
X120304699Y-38941064D01*
X120280949Y-38938392D01*
X119578218Y-38890915D01*
X119560970Y-38890169D01*
X118652931Y-38873062D01*
X118644281Y-38873006D01*
X118644268Y-38873006D01*
X118644257Y-38873006D01*
X118163069Y-38875721D01*
X118102918Y-38876061D01*
X118088842Y-38876418D01*
X117652215Y-38896198D01*
X117607209Y-38901125D01*
X117607171Y-38901131D01*
X117331457Y-38949251D01*
X117232822Y-38981875D01*
X117058119Y-39069752D01*
X117055325Y-39071173D01*
X117055321Y-39071175D01*
X116961469Y-39141070D01*
X116827857Y-39280155D01*
X116811112Y-39298866D01*
X116526974Y-39639877D01*
X116521040Y-39646501D01*
X116254880Y-39922963D01*
X116254879Y-39922964D01*
X116128679Y-40054045D01*
X116117603Y-40064232D01*
X115833152Y-40295643D01*
X115803011Y-40313740D01*
X115681070Y-40365075D01*
X115654582Y-40372889D01*
X115649969Y-40373705D01*
X115540447Y-40402263D01*
X115241892Y-40533777D01*
X115148455Y-40593910D01*
X114888537Y-40825933D01*
X114868191Y-40845606D01*
X114868180Y-40845619D01*
X114802400Y-40942390D01*
X114802389Y-40942408D01*
X114691279Y-41183617D01*
X114691277Y-41183622D01*
X114665050Y-41276240D01*
X114662387Y-41281659D01*
X114662157Y-41285156D01*
X114645411Y-41316225D01*
X114603843Y-41372386D01*
X114549151Y-41414170D01*
X114343893Y-41494062D01*
X114306233Y-41502291D01*
X113823307Y-41530839D01*
X113813672Y-41531033D01*
X113555280Y-41526201D01*
X113555242Y-41526201D01*
X113519854Y-41527303D01*
X113519849Y-41527303D01*
X113205971Y-41552780D01*
X113195555Y-41553781D01*
X113082959Y-41585642D01*
X113082953Y-41585644D01*
X113082952Y-41585645D01*
X113003506Y-41623154D01*
X112960758Y-41643337D01*
X112960322Y-41643565D01*
X112960244Y-41643580D01*
X112958561Y-41644375D01*
X112958361Y-41643952D01*
X112954030Y-41644806D01*
X112948985Y-41648767D01*
X112920168Y-41651491D01*
X112891775Y-41657096D01*
X112884213Y-41654890D01*
X112879425Y-41655343D01*
X112846083Y-41643768D01*
X112701117Y-41568860D01*
X112685543Y-41559297D01*
X112218394Y-41222641D01*
X112217745Y-41222170D01*
X111840795Y-40946794D01*
X111819779Y-40932565D01*
X111360943Y-40645265D01*
X111360936Y-40645261D01*
X111360931Y-40645258D01*
X111346382Y-40637182D01*
X111328206Y-40627092D01*
X110964587Y-40449620D01*
X110918895Y-40431125D01*
X110918870Y-40431116D01*
X110806386Y-40394438D01*
X110806380Y-40394436D01*
X110806373Y-40394434D01*
X110781827Y-40388519D01*
X110752012Y-40381334D01*
X110751992Y-40381330D01*
X110002876Y-40262173D01*
X110002864Y-40262171D01*
X109974817Y-40260519D01*
X109932751Y-40258043D01*
X109932749Y-40258043D01*
X109932748Y-40258043D01*
X109078628Y-40292346D01*
X109078611Y-40292347D01*
X109017956Y-40300046D01*
X109017946Y-40300048D01*
X108158606Y-40485344D01*
X108158597Y-40485346D01*
X108158590Y-40485348D01*
X108137056Y-40491374D01*
X108117196Y-40496932D01*
X108117179Y-40496937D01*
X107879560Y-40579223D01*
X107879545Y-40579228D01*
X107844699Y-40593402D01*
X107688148Y-40666965D01*
X107477293Y-40766046D01*
X107477277Y-40766055D01*
X107400090Y-40815364D01*
X107400079Y-40815373D01*
X107214006Y-40971362D01*
X107200092Y-40983660D01*
X107128755Y-41076427D01*
X107128754Y-41076429D01*
X107091405Y-41187335D01*
X107091405Y-41187336D01*
X107092090Y-41304363D01*
X107111617Y-41417306D01*
X107111620Y-41417320D01*
X107135319Y-41497147D01*
X107135322Y-41497153D01*
X107198602Y-41595588D01*
X107276436Y-41657096D01*
X107290421Y-41668147D01*
X107400824Y-41706961D01*
X107650255Y-41750477D01*
X107694681Y-41755376D01*
X107854590Y-41762883D01*
X107875895Y-41765748D01*
X108225064Y-41844013D01*
X108225094Y-41844019D01*
X108226475Y-41844328D01*
X108226477Y-41844329D01*
X108538837Y-41914342D01*
X108563780Y-41922800D01*
X108732259Y-42000743D01*
X109212299Y-42222823D01*
X109235243Y-42236623D01*
X109400930Y-42362492D01*
X109782311Y-42652219D01*
X109796631Y-42664957D01*
X109889373Y-42761288D01*
X110009894Y-42886475D01*
X110013830Y-42890760D01*
X110274685Y-43188484D01*
X110292489Y-43208803D01*
X110299242Y-43217223D01*
X110455465Y-43430390D01*
X110460405Y-43437658D01*
X110549647Y-43579508D01*
X110549656Y-43579521D01*
X110564938Y-43601876D01*
X110580643Y-43617034D01*
X110649137Y-43683145D01*
X110649138Y-43683145D01*
X110649141Y-43683148D01*
X110755170Y-43732677D01*
X110800531Y-43745311D01*
X110874899Y-43766027D01*
X110874904Y-43766028D01*
X110874915Y-43766031D01*
X110913013Y-43771197D01*
X110971048Y-43779067D01*
X110971049Y-43779066D01*
X110971052Y-43779067D01*
X111086442Y-43759563D01*
X111189247Y-43703648D01*
X111395794Y-43542188D01*
X111402373Y-43536794D01*
X111426220Y-43521442D01*
X111793078Y-43340871D01*
X111843698Y-43328193D01*
X112294948Y-43313135D01*
X112333848Y-43318039D01*
X112412014Y-43340871D01*
X112816064Y-43458890D01*
X112816065Y-43458890D01*
X112950397Y-43498126D01*
X112967800Y-43504661D01*
X113037101Y-43536800D01*
X113201757Y-43613160D01*
X113209406Y-43617034D01*
X113456693Y-43753220D01*
X113530135Y-43793665D01*
X113545141Y-43803402D01*
X113690773Y-43913622D01*
X113707293Y-43928649D01*
X113773882Y-44001214D01*
X113790134Y-44017801D01*
X113790136Y-44017803D01*
X113886870Y-44083644D01*
X113886874Y-44083646D01*
X113886877Y-44083648D01*
X114012803Y-44141746D01*
X114057054Y-44158684D01*
X114173039Y-44174265D01*
X114287799Y-44151341D01*
X114453089Y-44088652D01*
X114483422Y-44071214D01*
X114506633Y-44065628D01*
X114528423Y-44055859D01*
X114546706Y-44055985D01*
X114551350Y-44054868D01*
X114563700Y-44056101D01*
X114651858Y-44069397D01*
X114668348Y-44073049D01*
X114704372Y-44083644D01*
X114804706Y-44113154D01*
X114804708Y-44113155D01*
X114996459Y-44169551D01*
X115009336Y-44177213D01*
X115021120Y-44179803D01*
X115049330Y-44201012D01*
X115138582Y-44290636D01*
X115165797Y-44331950D01*
X115168201Y-44337940D01*
X115169045Y-44346701D01*
X115171940Y-44352029D01*
X115170908Y-44366040D01*
X115174902Y-44407488D01*
X115142939Y-44469618D01*
X115106442Y-44496076D01*
X114926870Y-44581600D01*
X114921617Y-44584154D01*
X114872214Y-44608696D01*
X114862666Y-44613620D01*
X114442031Y-44838680D01*
X114420178Y-44851392D01*
X114366269Y-44885370D01*
X114366266Y-44885373D01*
X114351419Y-44894731D01*
X114328259Y-44909329D01*
X114122555Y-45038986D01*
X114062132Y-45086967D01*
X113949215Y-45198640D01*
X113938211Y-45210019D01*
X113873976Y-45307836D01*
X113873975Y-45307838D01*
X113844980Y-45421217D01*
X113854371Y-45537864D01*
X113854372Y-45537869D01*
X113901127Y-45645140D01*
X113901130Y-45645146D01*
X113910722Y-45659903D01*
X113936706Y-45694964D01*
X114025741Y-45770912D01*
X114134612Y-45813835D01*
X114321106Y-45853624D01*
X114382352Y-45861214D01*
X114757852Y-45874881D01*
X114781879Y-45874943D01*
X115281965Y-45859326D01*
X115291414Y-45858905D01*
X116159982Y-45808623D01*
X116190876Y-45815784D01*
X116222098Y-45821257D01*
X116225974Y-45823919D01*
X116228046Y-45824400D01*
X116251186Y-45841239D01*
X116272857Y-45861214D01*
X116303459Y-45889422D01*
X116303475Y-45889439D01*
X116709025Y-46263261D01*
X116714160Y-46267903D01*
X116980969Y-46504425D01*
X116980992Y-46504444D01*
X116980998Y-46504449D01*
X117016173Y-46531890D01*
X117156440Y-46627794D01*
X117165734Y-46634148D01*
X117165736Y-46634150D01*
X117165737Y-46634150D01*
X117191086Y-46651482D01*
X117191086Y-46651483D01*
X117325055Y-46743082D01*
X117424374Y-46790372D01*
X117733744Y-46882371D01*
X117818051Y-46896711D01*
X118238272Y-46916857D01*
X118238300Y-46916858D01*
X118238340Y-46916860D01*
X118244768Y-46917110D01*
X118394847Y-46921561D01*
X118471430Y-46923833D01*
X118490722Y-46925924D01*
X118781700Y-46980782D01*
X118789192Y-46983781D01*
X118794150Y-46983802D01*
X118826189Y-46998593D01*
X118945784Y-47076148D01*
X118991321Y-47129140D01*
X119000980Y-47198339D01*
X118971694Y-47261775D01*
X118912761Y-47299307D01*
X118883193Y-47304091D01*
X118682815Y-47311977D01*
X118642130Y-47315930D01*
X118642126Y-47315930D01*
X118642121Y-47315931D01*
X118642112Y-47315932D01*
X118642100Y-47315934D01*
X118202572Y-47384335D01*
X118202557Y-47384338D01*
X118110596Y-47411761D01*
X118110578Y-47411767D01*
X117882993Y-47514825D01*
X117882975Y-47514834D01*
X117839302Y-47538415D01*
X117839298Y-47538418D01*
X117752118Y-47616487D01*
X117752116Y-47616491D01*
X117695011Y-47718631D01*
X117695009Y-47718637D01*
X117674165Y-47833782D01*
X117674164Y-47833795D01*
X117672542Y-47951834D01*
X117672543Y-47951860D01*
X117675729Y-48004476D01*
X117675729Y-48004480D01*
X117710320Y-48116281D01*
X117779336Y-48210787D01*
X117779339Y-48210791D01*
X117875296Y-48277764D01*
X117875302Y-48277768D01*
X118113690Y-48391164D01*
X118203120Y-48419956D01*
X118335242Y-48443854D01*
X118335249Y-48443856D01*
X118339584Y-48444640D01*
X118339587Y-48444641D01*
X118695554Y-48509026D01*
X118698633Y-48509477D01*
X118703015Y-48510199D01*
X119036342Y-48571369D01*
X119041082Y-48573130D01*
X119043942Y-48573012D01*
X119076625Y-48586332D01*
X119180370Y-48647094D01*
X119217909Y-48681057D01*
X119344195Y-48854330D01*
X119370735Y-48890744D01*
X119372671Y-48893477D01*
X119552659Y-49154985D01*
X119567059Y-49174453D01*
X119567061Y-49174455D01*
X119567062Y-49174456D01*
X119653912Y-49252893D01*
X119894466Y-49406806D01*
X119940153Y-49431532D01*
X120053319Y-49461344D01*
X120424363Y-49495665D01*
X120429020Y-49496185D01*
X120847319Y-49550947D01*
X120878245Y-49559161D01*
X121526044Y-49824676D01*
X121548786Y-49836903D01*
X122155654Y-50250002D01*
X122178886Y-50265816D01*
X122330814Y-50369234D01*
X122334146Y-50371583D01*
X122359992Y-50390449D01*
X122695660Y-50635468D01*
X122695666Y-50635471D01*
X122695678Y-50635479D01*
X122768074Y-50676292D01*
X122768087Y-50676299D01*
X122861684Y-50715446D01*
X123072329Y-50803549D01*
X123076242Y-50805158D01*
X123190476Y-50830570D01*
X123287990Y-50819622D01*
X123306766Y-50817515D01*
X123306767Y-50817514D01*
X123306773Y-50817514D01*
X123537213Y-50751961D01*
X123621874Y-50715447D01*
X123711186Y-50639826D01*
X123922477Y-50390428D01*
X123924661Y-50387919D01*
X124186899Y-50094975D01*
X124208961Y-50075556D01*
X124631753Y-49784480D01*
X124654835Y-49771964D01*
X125116570Y-49581767D01*
X125149031Y-49573306D01*
X125419766Y-49540867D01*
X125557947Y-49524308D01*
X125583274Y-49523880D01*
X125598797Y-49525209D01*
X125631373Y-49526497D01*
X125631392Y-49526496D01*
X125631396Y-49526497D01*
X125936215Y-49524560D01*
X125938717Y-49524533D01*
X125939266Y-49524528D01*
X125939269Y-49524527D01*
X125939273Y-49524527D01*
X125988732Y-49515523D01*
X126054401Y-49503570D01*
X126156493Y-49446364D01*
X126303179Y-49328689D01*
X126372901Y-49253908D01*
X126422827Y-49148065D01*
X126503293Y-48863312D01*
X126505710Y-48855706D01*
X126660445Y-48418507D01*
X126678338Y-48385218D01*
X126742604Y-48300002D01*
X126936871Y-48042404D01*
X126972979Y-48010203D01*
X127310391Y-47811647D01*
X127337137Y-47799902D01*
X127380975Y-47786548D01*
X127386787Y-47784723D01*
X127786956Y-47655277D01*
X127786973Y-47655270D01*
X127786977Y-47655269D01*
X127817131Y-47643155D01*
X127832514Y-47636977D01*
X128007113Y-47552406D01*
X128040375Y-47534038D01*
X128128098Y-47456578D01*
X128185916Y-47354832D01*
X128207565Y-47239825D01*
X128190698Y-47124020D01*
X128170134Y-47059819D01*
X128170132Y-47059813D01*
X128133506Y-46980593D01*
X128056211Y-46892725D01*
X128056209Y-46892723D01*
X127954577Y-46834718D01*
X127954571Y-46834715D01*
X127769255Y-46766380D01*
X127722599Y-46752717D01*
X127722602Y-46752717D01*
X127547532Y-46714218D01*
X127547490Y-46714210D01*
X127514138Y-46708527D01*
X127514119Y-46708524D01*
X127514115Y-46708524D01*
X127083902Y-46656159D01*
X127079454Y-46655770D01*
X127059882Y-46654058D01*
X126567322Y-46627794D01*
X126546800Y-46627295D01*
X126546781Y-46627295D01*
X126546778Y-46627295D01*
X126145492Y-46629127D01*
X126145488Y-46629127D01*
X126080950Y-46635334D01*
X125784151Y-46691558D01*
X125784148Y-46691558D01*
X125784141Y-46691560D01*
X125764405Y-46696256D01*
X125752032Y-46699201D01*
X125646428Y-46749620D01*
X125418021Y-46909523D01*
X125352488Y-46968811D01*
X125085042Y-47279490D01*
X125084692Y-47279894D01*
X125073000Y-47293358D01*
X125014181Y-47331070D01*
X124944311Y-47330994D01*
X124885574Y-47293157D01*
X124878825Y-47284622D01*
X124728368Y-47076148D01*
X124618345Y-46923700D01*
X124595075Y-46857820D01*
X124611116Y-46789817D01*
X124625138Y-46769982D01*
X124683457Y-46702614D01*
X124715329Y-46659645D01*
X124976003Y-46246513D01*
X124977260Y-46244505D01*
X125113380Y-46025551D01*
X125119689Y-46016355D01*
X125325268Y-45743805D01*
X125339600Y-45727880D01*
X125575461Y-45507492D01*
X125589729Y-45496013D01*
X125951989Y-45246362D01*
X125959560Y-45241542D01*
X126525901Y-44909287D01*
X126527530Y-44908350D01*
X126568160Y-44885370D01*
X126755502Y-44779409D01*
X126866607Y-44716568D01*
X126927653Y-44700500D01*
X127514144Y-44700500D01*
X127581183Y-44720185D01*
X127626938Y-44772989D01*
X127636882Y-44842147D01*
X127607857Y-44905703D01*
X127578732Y-44930349D01*
X127408466Y-45034240D01*
X126850001Y-45374998D01*
X126424999Y-45950000D01*
X126617165Y-45970694D01*
X128017240Y-46121472D01*
X128076685Y-46144324D01*
X128717661Y-46608479D01*
X128760413Y-46663740D01*
X128768392Y-46720484D01*
X128704871Y-47398035D01*
X128679014Y-47462945D01*
X128659433Y-47482839D01*
X127649998Y-48300001D01*
X127649998Y-48300002D01*
X127306702Y-48937552D01*
X127290668Y-48960618D01*
X126595028Y-49752209D01*
X126546714Y-49785968D01*
X125349997Y-50250001D01*
X125349996Y-50250002D01*
X124405497Y-50970804D01*
X124394068Y-50978559D01*
X123679450Y-51407329D01*
X123615655Y-51425000D01*
X122757133Y-51425000D01*
X122696913Y-51409396D01*
X122618561Y-51365867D01*
X121600000Y-50800000D01*
X121599992Y-50799997D01*
X121599993Y-50799997D01*
X120525001Y-50375000D01*
X119579025Y-50108186D01*
X119527975Y-50079396D01*
X119523865Y-50075551D01*
X118775000Y-49375000D01*
X118774998Y-49374999D01*
X117557588Y-49009776D01*
X117501964Y-48974961D01*
X117488768Y-48960618D01*
X117390984Y-48854330D01*
X116962748Y-48388856D01*
X116941940Y-48357984D01*
X116500000Y-47425000D01*
X115424999Y-46574999D01*
X113311796Y-46210654D01*
X113249075Y-46179865D01*
X113221956Y-46143912D01*
X112954678Y-45609356D01*
X112942303Y-45540591D01*
X112957925Y-45492381D01*
X113063379Y-45307836D01*
X113325000Y-44850000D01*
X113275000Y-44425000D01*
X113274999Y-44424999D01*
X112650000Y-44150000D01*
X112649999Y-44150000D01*
X111486161Y-44496675D01*
X111463414Y-44501188D01*
X110550181Y-44594853D01*
X110481483Y-44582111D01*
X110460480Y-44568656D01*
X109784454Y-44032498D01*
X109767164Y-44015813D01*
X109050001Y-43175000D01*
X107975015Y-42750005D01*
X107975002Y-42750000D01*
X107975000Y-42750000D01*
X107974996Y-42749998D01*
X107974987Y-42749996D01*
X106994274Y-42480300D01*
X106958370Y-42463913D01*
X106720678Y-42305452D01*
X106485802Y-42148868D01*
X106440942Y-42095304D01*
X106436681Y-42084093D01*
X106114128Y-41093396D01*
X106112092Y-41023558D01*
X106117372Y-41007810D01*
X106262210Y-40656059D01*
X106301718Y-40604643D01*
X106786580Y-40235224D01*
X106815668Y-40218732D01*
X107912398Y-39780040D01*
X107938388Y-39772805D01*
X109436483Y-39527215D01*
X109463678Y-39525789D01*
X110733101Y-39599025D01*
X110766019Y-39605470D01*
X111761274Y-39945313D01*
X111787269Y-39957725D01*
X112450000Y-40375000D01*
X112450002Y-40375000D01*
X112450003Y-40375001D01*
X112637053Y-40431116D01*
X113130743Y-40579223D01*
X113199997Y-40599999D01*
X113200000Y-40600000D01*
X114250000Y-40450000D01*
X114571473Y-40064232D01*
X114624986Y-40000017D01*
X114624988Y-40000014D01*
X114625000Y-40000000D01*
X114963120Y-39565273D01*
X114990971Y-39539071D01*
X115920531Y-38903057D01*
X115929729Y-38897339D01*
X116716515Y-38454772D01*
X116734117Y-38446613D01*
X117586351Y-38130069D01*
X117614450Y-38123230D01*
X118816263Y-37976069D01*
X118833806Y-37975176D01*
X121308286Y-38024665D01*
G37*
G04 #@! TD.AperFunction*
G04 #@! TD*
M02*
