G04 #@! TF.GenerationSoftware,KiCad,Pcbnew,9.0.9-9.0.9~ubuntu24.04.1*
G04 #@! TF.CreationDate,2026-07-01T08:27:59-05:00*
G04 #@! TF.ProjectId,psycho_badge,70737963-686f-45f6-9261-6467652e6b69,1*
G04 #@! TF.SameCoordinates,Original*
G04 #@! TF.FileFunction,Soldermask,Bot*
G04 #@! TF.FilePolarity,Negative*
%FSLAX46Y46*%
G04 Gerber Fmt 4.6, Leading zero omitted, Abs format (unit mm)*
G04 Created by KiCad (PCBNEW 9.0.9-9.0.9~ubuntu24.04.1) date 2026-07-01 08:27:59*
%MOMM*%
%LPD*%
G01*
G04 APERTURE LIST*
G04 Aperture macros list*
%AMHorizOval*
0 Thick line with rounded ends*
0 $1 width*
0 $2 $3 position (X,Y) of the first rounded end (center of the circle)*
0 $4 $5 position (X,Y) of the second rounded end (center of the circle)*
0 Add line between two ends*
20,1,$1,$2,$3,$4,$5,0*
0 Add two circle primitives to create the rounded ends*
1,1,$1,$2,$3*
1,1,$1,$4,$5*%
%AMRotRect*
0 Rectangle, with rotation*
0 The origin of the aperture is its center*
0 $1 length*
0 $2 width*
0 $3 Rotation angle, in degrees counterclockwise*
0 Add horizontal line*
21,1,$1,$2,0,0,$3*%
G04 Aperture macros list end*
%ADD10C,0.100000*%
%ADD11R,1.727200X1.727200*%
%ADD12C,1.727200*%
%ADD13O,1.727200X1.727200*%
%ADD14R,1.150000X1.800000*%
%ADD15O,1.150000X1.800000*%
%ADD16C,2.200000*%
%ADD17C,1.600000*%
%ADD18RotRect,1.150000X1.800000X350.000000*%
%ADD19HorizOval,1.150000X-0.056436X-0.320063X0.056436X0.320063X0*%
%ADD20R,1.800000X1.800000*%
%ADD21C,1.800000*%
%ADD22R,1.700000X1.700000*%
%ADD23O,1.700000X1.700000*%
%ADD24C,1.400000*%
%ADD25RotRect,1.800000X1.800000X350.000000*%
%ADD26RotRect,1.700000X1.700000X335.000000*%
%ADD27HorizOval,1.700000X0.000000X0.000000X0.000000X0.000000X0*%
%ADD28RotRect,1.150000X1.800000X335.000000*%
%ADD29HorizOval,1.150000X-0.137351X-0.294550X0.137351X0.294550X0*%
%ADD30RotRect,1.700000X1.700000X155.000000*%
%ADD31HorizOval,1.700000X0.000000X0.000000X0.000000X0.000000X0*%
%ADD32RotRect,1.150000X1.800000X342.000000*%
%ADD33HorizOval,1.150000X-0.100431X-0.309093X0.100431X0.309093X0*%
%ADD34O,1.600000X2.700000*%
G04 APERTURE END LIST*
D10*
G04 #@! TO.C,G-Silk*
X114700000Y-73875000D02*
X115375000Y-74500000D01*
X115325000Y-84900000D01*
X111775000Y-85450000D01*
X111775000Y-74925000D01*
X112100000Y-74275000D01*
X113425000Y-73675000D01*
X114700000Y-73875000D01*
G36*
X114700000Y-73875000D02*
G01*
X115375000Y-74500000D01*
X115325000Y-84900000D01*
X111775000Y-85450000D01*
X111775000Y-74925000D01*
X112100000Y-74275000D01*
X113425000Y-73675000D01*
X114700000Y-73875000D01*
G37*
X125850000Y-74425000D02*
X126825000Y-75050000D01*
X127350000Y-75900000D01*
X127475000Y-77050000D01*
X127350000Y-84850000D01*
X122925000Y-84825000D01*
X123000000Y-77450000D01*
X123075000Y-75400000D01*
X123600000Y-74725000D01*
X124750000Y-74325000D01*
X125850000Y-74425000D01*
G36*
X125850000Y-74425000D02*
G01*
X126825000Y-75050000D01*
X127350000Y-75900000D01*
X127475000Y-77050000D01*
X127350000Y-84850000D01*
X122925000Y-84825000D01*
X123000000Y-77450000D01*
X123075000Y-75400000D01*
X123600000Y-74725000D01*
X124750000Y-74325000D01*
X125850000Y-74425000D01*
G37*
X126100000Y-92080000D02*
X126700000Y-92340000D01*
X127040000Y-93060000D01*
X127190000Y-96960000D01*
X127210000Y-100670000D01*
X123010000Y-100790000D01*
X122900000Y-96075000D01*
X122800000Y-92675000D01*
X123500000Y-92300000D01*
X124325000Y-91975000D01*
X125275000Y-91900000D01*
X126100000Y-92080000D01*
G36*
X126100000Y-92080000D02*
G01*
X126700000Y-92340000D01*
X127040000Y-93060000D01*
X127190000Y-96960000D01*
X127210000Y-100670000D01*
X123010000Y-100790000D01*
X122900000Y-96075000D01*
X122800000Y-92675000D01*
X123500000Y-92300000D01*
X124325000Y-91975000D01*
X125275000Y-91900000D01*
X126100000Y-92080000D01*
G37*
X114775000Y-91625000D02*
X115475000Y-92100000D01*
X115475000Y-93825000D01*
X115500000Y-96475000D01*
X115460000Y-97260000D01*
X114620000Y-97390000D01*
X113970000Y-97440000D01*
X112650000Y-97490000D01*
X112180000Y-97490000D01*
X112070000Y-96150000D01*
X111970000Y-93080000D01*
X112180000Y-92170000D01*
X112675000Y-91700000D01*
X113600000Y-91500000D01*
X114775000Y-91625000D01*
G36*
X114775000Y-91625000D02*
G01*
X115475000Y-92100000D01*
X115475000Y-93825000D01*
X115500000Y-96475000D01*
X115460000Y-97260000D01*
X114620000Y-97390000D01*
X113970000Y-97440000D01*
X112650000Y-97490000D01*
X112180000Y-97490000D01*
X112070000Y-96150000D01*
X111970000Y-93080000D01*
X112180000Y-92170000D01*
X112675000Y-91700000D01*
X113600000Y-91500000D01*
X114775000Y-91625000D01*
G37*
X99350000Y-83875000D02*
X101400000Y-84375000D01*
X103250000Y-84875000D01*
X103450000Y-85050000D01*
X103500000Y-86150000D01*
X103425000Y-87175000D01*
X103425000Y-87725000D01*
X103450000Y-89400000D01*
X103650000Y-90975000D01*
X103750000Y-91975000D01*
X103775000Y-92450000D01*
X103675000Y-92725000D01*
X103325000Y-92825000D01*
X102025000Y-92675000D01*
X100525000Y-92400000D01*
X99025000Y-92050000D01*
X98625000Y-91850000D01*
X98500000Y-91500000D01*
X98350000Y-90525000D01*
X98225000Y-88000000D01*
X98150000Y-85475000D01*
X98250000Y-84450000D01*
X98400000Y-83900000D01*
X98725000Y-83825000D01*
X99350000Y-83875000D01*
G36*
X99350000Y-83875000D02*
G01*
X101400000Y-84375000D01*
X103250000Y-84875000D01*
X103450000Y-85050000D01*
X103500000Y-86150000D01*
X103425000Y-87175000D01*
X103425000Y-87725000D01*
X103450000Y-89400000D01*
X103650000Y-90975000D01*
X103750000Y-91975000D01*
X103775000Y-92450000D01*
X103675000Y-92725000D01*
X103325000Y-92825000D01*
X102025000Y-92675000D01*
X100525000Y-92400000D01*
X99025000Y-92050000D01*
X98625000Y-91850000D01*
X98500000Y-91500000D01*
X98350000Y-90525000D01*
X98225000Y-88000000D01*
X98150000Y-85475000D01*
X98250000Y-84450000D01*
X98400000Y-83900000D01*
X98725000Y-83825000D01*
X99350000Y-83875000D01*
G37*
X95775000Y-96925000D02*
X98350000Y-97350000D01*
X99400000Y-97625000D01*
X100675000Y-97775000D01*
X102000000Y-97950000D01*
X102575000Y-98100000D01*
X102750000Y-98550000D01*
X102725000Y-99575000D01*
X102550000Y-99850000D01*
X102075000Y-99925000D01*
X101525000Y-99775000D01*
X101425000Y-99125000D01*
X101300000Y-99025000D01*
X101025000Y-99325000D01*
X100475000Y-99700000D01*
X99025000Y-99600000D01*
X97850000Y-99350000D01*
X97650000Y-98400000D01*
X97450000Y-98325000D01*
X96950000Y-99225000D01*
X95575000Y-99050000D01*
X94750000Y-98875000D01*
X94225000Y-98200000D01*
X93825000Y-96800000D01*
X94050000Y-96700000D01*
X94625000Y-96700000D01*
X95775000Y-96925000D01*
G36*
X95775000Y-96925000D02*
G01*
X98350000Y-97350000D01*
X99400000Y-97625000D01*
X100675000Y-97775000D01*
X102000000Y-97950000D01*
X102575000Y-98100000D01*
X102750000Y-98550000D01*
X102725000Y-99575000D01*
X102550000Y-99850000D01*
X102075000Y-99925000D01*
X101525000Y-99775000D01*
X101425000Y-99125000D01*
X101300000Y-99025000D01*
X101025000Y-99325000D01*
X100475000Y-99700000D01*
X99025000Y-99600000D01*
X97850000Y-99350000D01*
X97650000Y-98400000D01*
X97450000Y-98325000D01*
X96950000Y-99225000D01*
X95575000Y-99050000D01*
X94750000Y-98875000D01*
X94225000Y-98200000D01*
X93825000Y-96800000D01*
X94050000Y-96700000D01*
X94625000Y-96700000D01*
X95775000Y-96925000D01*
G37*
X145625000Y-66400000D02*
X146350000Y-66775000D01*
X147075000Y-67325000D01*
X147475000Y-67900000D01*
X147650000Y-69275000D01*
X148050000Y-69650000D01*
X149025000Y-69600000D01*
X149800000Y-69900000D01*
X150080000Y-70680000D01*
X150100000Y-72770000D01*
X150120000Y-77870000D01*
X150000000Y-82620000D01*
X140000000Y-81440000D01*
X139430000Y-81350000D01*
X139520000Y-71020000D01*
X139420000Y-69710000D01*
X139710000Y-68890000D01*
X140270000Y-68370000D01*
X140775000Y-67975000D01*
X141550000Y-67975000D01*
X142275000Y-68300000D01*
X142750000Y-68450000D01*
X142775000Y-67900000D01*
X143050000Y-67125000D01*
X143825000Y-66550000D01*
X144725000Y-66350000D01*
X145625000Y-66400000D01*
G36*
X145625000Y-66400000D02*
G01*
X146350000Y-66775000D01*
X147075000Y-67325000D01*
X147475000Y-67900000D01*
X147650000Y-69275000D01*
X148050000Y-69650000D01*
X149025000Y-69600000D01*
X149800000Y-69900000D01*
X150080000Y-70680000D01*
X150100000Y-72770000D01*
X150120000Y-77870000D01*
X150000000Y-82620000D01*
X140000000Y-81440000D01*
X139430000Y-81350000D01*
X139520000Y-71020000D01*
X139420000Y-69710000D01*
X139710000Y-68890000D01*
X140270000Y-68370000D01*
X140775000Y-67975000D01*
X141550000Y-67975000D01*
X142275000Y-68300000D01*
X142750000Y-68450000D01*
X142775000Y-67900000D01*
X143050000Y-67125000D01*
X143825000Y-66550000D01*
X144725000Y-66350000D01*
X145625000Y-66400000D01*
G37*
X194775000Y-108750000D02*
X195050000Y-109175000D01*
X195250000Y-110625000D01*
X195450000Y-111525000D01*
X195775000Y-112025000D01*
X195875000Y-112500000D01*
X195900000Y-113575000D01*
X195800000Y-114550000D01*
X195500000Y-115525000D01*
X195100000Y-115825000D01*
X193150000Y-115825000D01*
X191125000Y-115900000D01*
X189725000Y-115625000D01*
X188775000Y-114525000D01*
X188325000Y-113500000D01*
X188350000Y-112600000D01*
X188350000Y-112575000D01*
X188625000Y-112350000D01*
X189075000Y-112175000D01*
X189425000Y-111850000D01*
X189500000Y-110900000D01*
X189450000Y-110100000D01*
X189450000Y-109250000D01*
X189550000Y-108925000D01*
X189775000Y-108800000D01*
X191925000Y-108725000D01*
X194275000Y-108675000D01*
X194775000Y-108750000D01*
G36*
X194775000Y-108750000D02*
G01*
X195050000Y-109175000D01*
X195250000Y-110625000D01*
X195450000Y-111525000D01*
X195775000Y-112025000D01*
X195875000Y-112500000D01*
X195900000Y-113575000D01*
X195800000Y-114550000D01*
X195500000Y-115525000D01*
X195100000Y-115825000D01*
X193150000Y-115825000D01*
X191125000Y-115900000D01*
X189725000Y-115625000D01*
X188775000Y-114525000D01*
X188325000Y-113500000D01*
X188350000Y-112600000D01*
X188350000Y-112575000D01*
X188625000Y-112350000D01*
X189075000Y-112175000D01*
X189425000Y-111850000D01*
X189500000Y-110900000D01*
X189450000Y-110100000D01*
X189450000Y-109250000D01*
X189550000Y-108925000D01*
X189775000Y-108800000D01*
X191925000Y-108725000D01*
X194275000Y-108675000D01*
X194775000Y-108750000D01*
G37*
X83050000Y-94800000D02*
X84175000Y-95075000D01*
X85675000Y-95225000D01*
X86625000Y-95450000D01*
X86975000Y-95800000D01*
X87400000Y-95975000D01*
X87800000Y-95650000D01*
X88825000Y-95725000D01*
X90350000Y-96075000D01*
X92300000Y-96350000D01*
X92650000Y-96525000D01*
X92700000Y-98025000D01*
X92550000Y-98400000D01*
X92075000Y-98525000D01*
X90100000Y-98175000D01*
X88100000Y-97875000D01*
X87450000Y-97575000D01*
X85875000Y-97575000D01*
X84500000Y-97350000D01*
X84050000Y-96800000D01*
X83775000Y-96550000D01*
X83200000Y-96725000D01*
X82550000Y-97150000D01*
X81475000Y-97050000D01*
X80975000Y-96550000D01*
X80925000Y-95000000D01*
X81050000Y-94650000D01*
X81575000Y-94500000D01*
X83050000Y-94800000D01*
G36*
X83050000Y-94800000D02*
G01*
X84175000Y-95075000D01*
X85675000Y-95225000D01*
X86625000Y-95450000D01*
X86975000Y-95800000D01*
X87400000Y-95975000D01*
X87800000Y-95650000D01*
X88825000Y-95725000D01*
X90350000Y-96075000D01*
X92300000Y-96350000D01*
X92650000Y-96525000D01*
X92700000Y-98025000D01*
X92550000Y-98400000D01*
X92075000Y-98525000D01*
X90100000Y-98175000D01*
X88100000Y-97875000D01*
X87450000Y-97575000D01*
X85875000Y-97575000D01*
X84500000Y-97350000D01*
X84050000Y-96800000D01*
X83775000Y-96550000D01*
X83200000Y-96725000D01*
X82550000Y-97150000D01*
X81475000Y-97050000D01*
X80975000Y-96550000D01*
X80925000Y-95000000D01*
X81050000Y-94650000D01*
X81575000Y-94500000D01*
X83050000Y-94800000D01*
G37*
X104900000Y-85325000D02*
X105350000Y-85425000D01*
X105800000Y-85600000D01*
X106100000Y-85825000D01*
X106175000Y-86125000D01*
X106275000Y-87450000D01*
X106325000Y-89900000D01*
X106400000Y-91200000D01*
X106450000Y-91375000D01*
X106525000Y-91425000D01*
X108150000Y-91925000D01*
X108750000Y-92125000D01*
X108900000Y-92300000D01*
X109075000Y-93825000D01*
X107925000Y-93800000D01*
X106775000Y-93675000D01*
X105300000Y-93450000D01*
X104075000Y-93250000D01*
X104000000Y-92750000D01*
X103950000Y-92375000D01*
X103925000Y-91125000D01*
X103875000Y-90225000D01*
X103850000Y-88725000D01*
X103800000Y-86900000D01*
X103825000Y-86325000D01*
X103850000Y-85925000D01*
X103925000Y-85625000D01*
X104000000Y-85475000D01*
X104125000Y-85375000D01*
X104425000Y-85300000D01*
X104900000Y-85325000D01*
G36*
X104900000Y-85325000D02*
G01*
X105350000Y-85425000D01*
X105800000Y-85600000D01*
X106100000Y-85825000D01*
X106175000Y-86125000D01*
X106275000Y-87450000D01*
X106325000Y-89900000D01*
X106400000Y-91200000D01*
X106450000Y-91375000D01*
X106525000Y-91425000D01*
X108150000Y-91925000D01*
X108750000Y-92125000D01*
X108900000Y-92300000D01*
X109075000Y-93825000D01*
X107925000Y-93800000D01*
X106775000Y-93675000D01*
X105300000Y-93450000D01*
X104075000Y-93250000D01*
X104000000Y-92750000D01*
X103950000Y-92375000D01*
X103925000Y-91125000D01*
X103875000Y-90225000D01*
X103850000Y-88725000D01*
X103800000Y-86900000D01*
X103825000Y-86325000D01*
X103850000Y-85925000D01*
X103925000Y-85625000D01*
X104000000Y-85475000D01*
X104125000Y-85375000D01*
X104425000Y-85300000D01*
X104900000Y-85325000D01*
G37*
X87875000Y-80975000D02*
X88425000Y-81050000D01*
X89150000Y-81275000D01*
X89775000Y-81575000D01*
X90925000Y-82550000D01*
X91175000Y-82850000D01*
X91575000Y-83425000D01*
X91800000Y-84175000D01*
X91975000Y-85125000D01*
X92025000Y-86225000D01*
X91975000Y-86825000D01*
X91850000Y-87600000D01*
X91675000Y-88000000D01*
X91300000Y-88475000D01*
X90625000Y-89150000D01*
X89900000Y-89575000D01*
X89200000Y-89775000D01*
X87950000Y-89825000D01*
X87225000Y-89725000D01*
X86600000Y-89550000D01*
X85375000Y-88700000D01*
X84600000Y-87950000D01*
X84350000Y-87400000D01*
X84275000Y-87100000D01*
X84075000Y-86350000D01*
X83975000Y-85525000D01*
X83925000Y-84650000D01*
X83900000Y-83550000D01*
X84100000Y-82775000D01*
X84450000Y-82200000D01*
X85100000Y-81600000D01*
X85475000Y-81325000D01*
X86125000Y-81025000D01*
X86900000Y-80925000D01*
X87875000Y-80975000D01*
G36*
X87875000Y-80975000D02*
G01*
X88425000Y-81050000D01*
X89150000Y-81275000D01*
X89775000Y-81575000D01*
X90925000Y-82550000D01*
X91175000Y-82850000D01*
X91575000Y-83425000D01*
X91800000Y-84175000D01*
X91975000Y-85125000D01*
X92025000Y-86225000D01*
X91975000Y-86825000D01*
X91850000Y-87600000D01*
X91675000Y-88000000D01*
X91300000Y-88475000D01*
X90625000Y-89150000D01*
X89900000Y-89575000D01*
X89200000Y-89775000D01*
X87950000Y-89825000D01*
X87225000Y-89725000D01*
X86600000Y-89550000D01*
X85375000Y-88700000D01*
X84600000Y-87950000D01*
X84350000Y-87400000D01*
X84275000Y-87100000D01*
X84075000Y-86350000D01*
X83975000Y-85525000D01*
X83925000Y-84650000D01*
X83900000Y-83550000D01*
X84100000Y-82775000D01*
X84450000Y-82200000D01*
X85100000Y-81600000D01*
X85475000Y-81325000D01*
X86125000Y-81025000D01*
X86900000Y-80925000D01*
X87875000Y-80975000D01*
G37*
X92525000Y-81850000D02*
X94050000Y-82250000D01*
X96200000Y-82875000D01*
X97275000Y-83150000D01*
X97625000Y-83375000D01*
X97800000Y-83625000D01*
X97925000Y-83800000D01*
X98025000Y-84325000D01*
X98000000Y-84950000D01*
X97900000Y-85225000D01*
X97700000Y-85375000D01*
X97175000Y-85325000D01*
X96425000Y-85200000D01*
X96250000Y-85325000D01*
X96200000Y-86025000D01*
X96200000Y-87200000D01*
X96100000Y-89350000D01*
X95900000Y-90975000D01*
X95700000Y-91125000D01*
X95025000Y-91125000D01*
X94125000Y-90975000D01*
X93850000Y-90750000D01*
X93800000Y-89725000D01*
X93750000Y-88050000D01*
X93750000Y-85950000D01*
X93650000Y-84675000D01*
X93575000Y-84625000D01*
X93300000Y-84550000D01*
X92500000Y-84375000D01*
X92100000Y-84275000D01*
X91425000Y-82825000D01*
X91300000Y-82450000D01*
X91375000Y-82175000D01*
X91625000Y-81900000D01*
X92050000Y-81775000D01*
X92525000Y-81850000D01*
G36*
X92525000Y-81850000D02*
G01*
X94050000Y-82250000D01*
X96200000Y-82875000D01*
X97275000Y-83150000D01*
X97625000Y-83375000D01*
X97800000Y-83625000D01*
X97925000Y-83800000D01*
X98025000Y-84325000D01*
X98000000Y-84950000D01*
X97900000Y-85225000D01*
X97700000Y-85375000D01*
X97175000Y-85325000D01*
X96425000Y-85200000D01*
X96250000Y-85325000D01*
X96200000Y-86025000D01*
X96200000Y-87200000D01*
X96100000Y-89350000D01*
X95900000Y-90975000D01*
X95700000Y-91125000D01*
X95025000Y-91125000D01*
X94125000Y-90975000D01*
X93850000Y-90750000D01*
X93800000Y-89725000D01*
X93750000Y-88050000D01*
X93750000Y-85950000D01*
X93650000Y-84675000D01*
X93575000Y-84625000D01*
X93300000Y-84550000D01*
X92500000Y-84375000D01*
X92100000Y-84275000D01*
X91425000Y-82825000D01*
X91300000Y-82450000D01*
X91375000Y-82175000D01*
X91625000Y-81900000D01*
X92050000Y-81775000D01*
X92525000Y-81850000D01*
G37*
X78160000Y-67790000D02*
X79380000Y-68020000D01*
X80530000Y-68380000D01*
X81800000Y-68950000D01*
X82810000Y-69550000D01*
X83760000Y-70310000D01*
X84560000Y-71170000D01*
X85040000Y-71960000D01*
X85370000Y-72790000D01*
X85400000Y-73200000D01*
X85390000Y-73810000D01*
X85350000Y-74350000D01*
X85260000Y-74790000D01*
X85090000Y-75150000D01*
X84910000Y-75420000D01*
X84360000Y-76020000D01*
X83590000Y-76460000D01*
X82630000Y-76680000D01*
X81910000Y-76720000D01*
X80930000Y-76590000D01*
X80070000Y-76370000D01*
X79380000Y-76070000D01*
X78530000Y-75640000D01*
X77820000Y-75130000D01*
X77290000Y-75160000D01*
X76700000Y-75180000D01*
X75650000Y-75190000D01*
X75010000Y-75060000D01*
X74450000Y-74790000D01*
X73970000Y-74440000D01*
X73580000Y-73910000D01*
X73440000Y-73380000D01*
X73580000Y-72950000D01*
X73780000Y-72700000D01*
X74230000Y-72410000D01*
X74920000Y-72320000D01*
X75030000Y-72260000D01*
X75150000Y-71920000D01*
X75120000Y-71600000D01*
X74920000Y-71420000D01*
X74490000Y-70680000D01*
X74340000Y-70080000D01*
X74420000Y-69410000D01*
X74700000Y-68820000D01*
X75170000Y-68350000D01*
X75930000Y-67960000D01*
X77050000Y-67760000D01*
X78160000Y-67790000D01*
G36*
X78160000Y-67790000D02*
G01*
X79380000Y-68020000D01*
X80530000Y-68380000D01*
X81800000Y-68950000D01*
X82810000Y-69550000D01*
X83760000Y-70310000D01*
X84560000Y-71170000D01*
X85040000Y-71960000D01*
X85370000Y-72790000D01*
X85400000Y-73200000D01*
X85390000Y-73810000D01*
X85350000Y-74350000D01*
X85260000Y-74790000D01*
X85090000Y-75150000D01*
X84910000Y-75420000D01*
X84360000Y-76020000D01*
X83590000Y-76460000D01*
X82630000Y-76680000D01*
X81910000Y-76720000D01*
X80930000Y-76590000D01*
X80070000Y-76370000D01*
X79380000Y-76070000D01*
X78530000Y-75640000D01*
X77820000Y-75130000D01*
X77290000Y-75160000D01*
X76700000Y-75180000D01*
X75650000Y-75190000D01*
X75010000Y-75060000D01*
X74450000Y-74790000D01*
X73970000Y-74440000D01*
X73580000Y-73910000D01*
X73440000Y-73380000D01*
X73580000Y-72950000D01*
X73780000Y-72700000D01*
X74230000Y-72410000D01*
X74920000Y-72320000D01*
X75030000Y-72260000D01*
X75150000Y-71920000D01*
X75120000Y-71600000D01*
X74920000Y-71420000D01*
X74490000Y-70680000D01*
X74340000Y-70080000D01*
X74420000Y-69410000D01*
X74700000Y-68820000D01*
X75170000Y-68350000D01*
X75930000Y-67960000D01*
X77050000Y-67760000D01*
X78160000Y-67790000D01*
G37*
X76520000Y-78730000D02*
X77270000Y-78920000D01*
X77680000Y-79390000D01*
X77880000Y-79980000D01*
X78150000Y-80800000D01*
X78610000Y-82300000D01*
X78850000Y-83060000D01*
X79080000Y-83300000D01*
X79230000Y-83030000D01*
X79560000Y-81970000D01*
X79760000Y-81390000D01*
X80010000Y-80580000D01*
X80470000Y-79780000D01*
X81110000Y-79730000D01*
X82550000Y-79830000D01*
X83180000Y-79940000D01*
X83450000Y-80070000D01*
X83590000Y-80280000D01*
X83640000Y-80750000D01*
X83670000Y-81720000D01*
X83650000Y-83090000D01*
X83670000Y-84220000D01*
X83670000Y-85820000D01*
X83650000Y-87140000D01*
X83600000Y-88290000D01*
X83490000Y-88680000D01*
X83300000Y-88740000D01*
X82510000Y-88700000D01*
X81510000Y-88400000D01*
X81080000Y-88160000D01*
X80940000Y-87910000D01*
X80940000Y-87320000D01*
X80880000Y-86440000D01*
X80860000Y-86230000D01*
X80610000Y-86640000D01*
X80250000Y-87180000D01*
X80010000Y-87430000D01*
X79900000Y-87910000D01*
X79750000Y-88100000D01*
X78690000Y-88020000D01*
X78110000Y-87870000D01*
X77710000Y-87470000D01*
X77420000Y-86600000D01*
X77250000Y-85740000D01*
X77000000Y-85200000D01*
X76800000Y-84770000D01*
X76660000Y-84970000D01*
X76680000Y-85580000D01*
X76640000Y-86700000D01*
X76530000Y-87100000D01*
X76520000Y-87110000D01*
X75970000Y-87320000D01*
X75360000Y-87380000D01*
X74680000Y-87220000D01*
X74010000Y-86870000D01*
X73850000Y-86220000D01*
X73750000Y-85720000D01*
X73870000Y-84820000D01*
X73970000Y-83660000D01*
X73970000Y-82690000D01*
X74010000Y-81220000D01*
X74050000Y-79990000D01*
X74210000Y-79180000D01*
X74500000Y-78840000D01*
X74870000Y-78620000D01*
X75470000Y-78600000D01*
X76520000Y-78730000D01*
G36*
X76520000Y-78730000D02*
G01*
X77270000Y-78920000D01*
X77680000Y-79390000D01*
X77880000Y-79980000D01*
X78150000Y-80800000D01*
X78610000Y-82300000D01*
X78850000Y-83060000D01*
X79080000Y-83300000D01*
X79230000Y-83030000D01*
X79560000Y-81970000D01*
X79760000Y-81390000D01*
X80010000Y-80580000D01*
X80470000Y-79780000D01*
X81110000Y-79730000D01*
X82550000Y-79830000D01*
X83180000Y-79940000D01*
X83450000Y-80070000D01*
X83590000Y-80280000D01*
X83640000Y-80750000D01*
X83670000Y-81720000D01*
X83650000Y-83090000D01*
X83670000Y-84220000D01*
X83670000Y-85820000D01*
X83650000Y-87140000D01*
X83600000Y-88290000D01*
X83490000Y-88680000D01*
X83300000Y-88740000D01*
X82510000Y-88700000D01*
X81510000Y-88400000D01*
X81080000Y-88160000D01*
X80940000Y-87910000D01*
X80940000Y-87320000D01*
X80880000Y-86440000D01*
X80860000Y-86230000D01*
X80610000Y-86640000D01*
X80250000Y-87180000D01*
X80010000Y-87430000D01*
X79900000Y-87910000D01*
X79750000Y-88100000D01*
X78690000Y-88020000D01*
X78110000Y-87870000D01*
X77710000Y-87470000D01*
X77420000Y-86600000D01*
X77250000Y-85740000D01*
X77000000Y-85200000D01*
X76800000Y-84770000D01*
X76660000Y-84970000D01*
X76680000Y-85580000D01*
X76640000Y-86700000D01*
X76530000Y-87100000D01*
X76520000Y-87110000D01*
X75970000Y-87320000D01*
X75360000Y-87380000D01*
X74680000Y-87220000D01*
X74010000Y-86870000D01*
X73850000Y-86220000D01*
X73750000Y-85720000D01*
X73870000Y-84820000D01*
X73970000Y-83660000D01*
X73970000Y-82690000D01*
X74010000Y-81220000D01*
X74050000Y-79990000D01*
X74210000Y-79180000D01*
X74500000Y-78840000D01*
X74870000Y-78620000D01*
X75470000Y-78600000D01*
X76520000Y-78730000D01*
G37*
X74190000Y-51760000D02*
X74730000Y-51990000D01*
X75000000Y-52320000D01*
X75610000Y-52380000D01*
X75630000Y-52050000D01*
X75850000Y-51880000D01*
X76170000Y-51870000D01*
X76450000Y-51910000D01*
X76690000Y-52090000D01*
X76810000Y-52380000D01*
X76820000Y-52640000D01*
X76800000Y-53510000D01*
X77190000Y-54020000D01*
X77320000Y-54410000D01*
X78030000Y-54780000D01*
X78770000Y-55030000D01*
X79190000Y-54990000D01*
X79330000Y-54880000D01*
X79620000Y-54830000D01*
X79850000Y-54640000D01*
X79920000Y-54560000D01*
X80140000Y-54550000D01*
X80200000Y-54730000D01*
X80150000Y-55060000D01*
X80340000Y-55560000D01*
X80110000Y-55950000D01*
X80070000Y-56600000D01*
X80360000Y-57030000D01*
X80790000Y-57250000D01*
X81650000Y-57110000D01*
X81900000Y-56580000D01*
X83160000Y-55830000D01*
X83920000Y-55580000D01*
X84280000Y-55380000D01*
X84810000Y-54940000D01*
X85120000Y-54650000D01*
X85150000Y-54240000D01*
X85430000Y-53630000D01*
X85660000Y-53490000D01*
X85840000Y-53650000D01*
X85850000Y-54010000D01*
X85850000Y-54230000D01*
X86010000Y-54260000D01*
X86330000Y-54220000D01*
X86360000Y-54340000D01*
X86100000Y-54590000D01*
X85830000Y-55250000D01*
X85220000Y-55540000D01*
X84610000Y-56150000D01*
X83530000Y-56850000D01*
X82920000Y-57060000D01*
X82350000Y-57850000D01*
X81760000Y-59010000D01*
X81320000Y-59960000D01*
X80000000Y-61170000D01*
X79720000Y-61810000D01*
X79290000Y-62890000D01*
X78840000Y-64090000D01*
X78390000Y-64450000D01*
X77980000Y-64240000D01*
X78100000Y-63540000D01*
X78420000Y-62530000D01*
X77990000Y-62800000D01*
X77220000Y-63250000D01*
X76720000Y-63360000D01*
X76720000Y-62920000D01*
X76900000Y-61990000D01*
X77650000Y-61130000D01*
X78300000Y-60740000D01*
X78930000Y-60400000D01*
X78590000Y-60200000D01*
X77960000Y-60070000D01*
X77670000Y-59800000D01*
X77170000Y-59930000D01*
X76500000Y-60200000D01*
X75980000Y-60830000D01*
X75640000Y-60930000D01*
X75320000Y-60680000D01*
X75550000Y-59870000D01*
X75860000Y-59210000D01*
X75710000Y-58620000D01*
X75140000Y-58470000D01*
X74870000Y-58120000D01*
X74940000Y-57520000D01*
X75690000Y-56460000D01*
X76430000Y-56160000D01*
X77240000Y-55800000D01*
X77240000Y-55440000D01*
X76140000Y-55330000D01*
X75150000Y-55270000D01*
X73570000Y-54850000D01*
X72900000Y-54000000D01*
X72820000Y-53110000D01*
X72880000Y-52180000D01*
X73150000Y-51930000D01*
X73650000Y-51710000D01*
X74190000Y-51760000D01*
G36*
X74190000Y-51760000D02*
G01*
X74730000Y-51990000D01*
X75000000Y-52320000D01*
X75610000Y-52380000D01*
X75630000Y-52050000D01*
X75850000Y-51880000D01*
X76170000Y-51870000D01*
X76450000Y-51910000D01*
X76690000Y-52090000D01*
X76810000Y-52380000D01*
X76820000Y-52640000D01*
X76800000Y-53510000D01*
X77190000Y-54020000D01*
X77320000Y-54410000D01*
X78030000Y-54780000D01*
X78770000Y-55030000D01*
X79190000Y-54990000D01*
X79330000Y-54880000D01*
X79620000Y-54830000D01*
X79850000Y-54640000D01*
X79920000Y-54560000D01*
X80140000Y-54550000D01*
X80200000Y-54730000D01*
X80150000Y-55060000D01*
X80340000Y-55560000D01*
X80110000Y-55950000D01*
X80070000Y-56600000D01*
X80360000Y-57030000D01*
X80790000Y-57250000D01*
X81650000Y-57110000D01*
X81900000Y-56580000D01*
X83160000Y-55830000D01*
X83920000Y-55580000D01*
X84280000Y-55380000D01*
X84810000Y-54940000D01*
X85120000Y-54650000D01*
X85150000Y-54240000D01*
X85430000Y-53630000D01*
X85660000Y-53490000D01*
X85840000Y-53650000D01*
X85850000Y-54010000D01*
X85850000Y-54230000D01*
X86010000Y-54260000D01*
X86330000Y-54220000D01*
X86360000Y-54340000D01*
X86100000Y-54590000D01*
X85830000Y-55250000D01*
X85220000Y-55540000D01*
X84610000Y-56150000D01*
X83530000Y-56850000D01*
X82920000Y-57060000D01*
X82350000Y-57850000D01*
X81760000Y-59010000D01*
X81320000Y-59960000D01*
X80000000Y-61170000D01*
X79720000Y-61810000D01*
X79290000Y-62890000D01*
X78840000Y-64090000D01*
X78390000Y-64450000D01*
X77980000Y-64240000D01*
X78100000Y-63540000D01*
X78420000Y-62530000D01*
X77990000Y-62800000D01*
X77220000Y-63250000D01*
X76720000Y-63360000D01*
X76720000Y-62920000D01*
X76900000Y-61990000D01*
X77650000Y-61130000D01*
X78300000Y-60740000D01*
X78930000Y-60400000D01*
X78590000Y-60200000D01*
X77960000Y-60070000D01*
X77670000Y-59800000D01*
X77170000Y-59930000D01*
X76500000Y-60200000D01*
X75980000Y-60830000D01*
X75640000Y-60930000D01*
X75320000Y-60680000D01*
X75550000Y-59870000D01*
X75860000Y-59210000D01*
X75710000Y-58620000D01*
X75140000Y-58470000D01*
X74870000Y-58120000D01*
X74940000Y-57520000D01*
X75690000Y-56460000D01*
X76430000Y-56160000D01*
X77240000Y-55800000D01*
X77240000Y-55440000D01*
X76140000Y-55330000D01*
X75150000Y-55270000D01*
X73570000Y-54850000D01*
X72900000Y-54000000D01*
X72820000Y-53110000D01*
X72880000Y-52180000D01*
X73150000Y-51930000D01*
X73650000Y-51710000D01*
X74190000Y-51760000D01*
G37*
X105940000Y-49230000D02*
X106340000Y-49500000D01*
X106710000Y-49480000D01*
X107180000Y-49660000D01*
X107470000Y-50160000D01*
X107430000Y-50660000D01*
X107300000Y-51290000D01*
X107040000Y-51990000D01*
X106550000Y-52780000D01*
X105940000Y-53430000D01*
X105020000Y-53980000D01*
X103630000Y-54270000D01*
X103180000Y-54850000D01*
X102660000Y-55510000D01*
X102460000Y-56360000D01*
X102980000Y-57180000D01*
X103650000Y-57960000D01*
X104510000Y-58920000D01*
X105190000Y-59780000D01*
X105420000Y-60390000D01*
X105070000Y-60330000D01*
X104410000Y-59810000D01*
X103730000Y-59170000D01*
X102880000Y-58780000D01*
X102250000Y-58780000D01*
X102140000Y-59190000D01*
X102510000Y-59880000D01*
X103160000Y-61050000D01*
X104440000Y-61730000D01*
X104720000Y-62040000D01*
X104920000Y-62670000D01*
X105240000Y-63380000D01*
X105280000Y-63830000D01*
X104870000Y-63740000D01*
X104350000Y-63200000D01*
X103860000Y-62410000D01*
X103610000Y-62430000D01*
X103750000Y-63100000D01*
X104650000Y-65270000D01*
X104890000Y-66330000D01*
X104850000Y-66900000D01*
X104690000Y-67080000D01*
X104380000Y-66810000D01*
X102790000Y-63900000D01*
X102120000Y-62120000D01*
X101470000Y-60210000D01*
X100150000Y-58570000D01*
X99470000Y-56550000D01*
X98940000Y-56130000D01*
X97990000Y-55150000D01*
X97380000Y-54730000D01*
X96810000Y-54970000D01*
X96020000Y-54730000D01*
X95480000Y-54520000D01*
X95250000Y-55250000D01*
X94600000Y-56090000D01*
X94810000Y-57080000D01*
X95560000Y-58280000D01*
X95530000Y-59400000D01*
X95420000Y-60100000D01*
X94840000Y-59960000D01*
X95050000Y-58940000D01*
X94700000Y-58020000D01*
X94320000Y-57350000D01*
X93600000Y-56580000D01*
X93980000Y-55970000D01*
X93850000Y-55700000D01*
X93870000Y-55290000D01*
X93650000Y-54930000D01*
X93060000Y-54700000D01*
X92570000Y-54330000D01*
X91940000Y-54360000D01*
X91630000Y-54280000D01*
X91560000Y-53930000D01*
X91560000Y-53590000D01*
X91590000Y-53120000D01*
X91820000Y-53070000D01*
X91960000Y-52850000D01*
X92400000Y-53020000D01*
X93470000Y-52910000D01*
X94040000Y-52310000D01*
X94500000Y-52080000D01*
X95180000Y-51730000D01*
X96250000Y-51240000D01*
X96770000Y-51120000D01*
X97260000Y-51180000D01*
X97900000Y-51530000D01*
X98330000Y-51790000D01*
X98440000Y-53890000D01*
X99060000Y-54320000D01*
X99890000Y-54610000D01*
X100360000Y-54380000D01*
X100730000Y-54020000D01*
X101060000Y-53700000D01*
X101180000Y-53160000D01*
X101610000Y-52670000D01*
X102120000Y-52280000D01*
X103070000Y-52080000D01*
X103410000Y-51520000D01*
X103280000Y-50820000D01*
X103820000Y-50320000D01*
X104470000Y-49980000D01*
X104490000Y-49670000D01*
X104970000Y-49230000D01*
X105440000Y-49080000D01*
X105940000Y-49230000D01*
G36*
X105940000Y-49230000D02*
G01*
X106340000Y-49500000D01*
X106710000Y-49480000D01*
X107180000Y-49660000D01*
X107470000Y-50160000D01*
X107430000Y-50660000D01*
X107300000Y-51290000D01*
X107040000Y-51990000D01*
X106550000Y-52780000D01*
X105940000Y-53430000D01*
X105020000Y-53980000D01*
X103630000Y-54270000D01*
X103180000Y-54850000D01*
X102660000Y-55510000D01*
X102460000Y-56360000D01*
X102980000Y-57180000D01*
X103650000Y-57960000D01*
X104510000Y-58920000D01*
X105190000Y-59780000D01*
X105420000Y-60390000D01*
X105070000Y-60330000D01*
X104410000Y-59810000D01*
X103730000Y-59170000D01*
X102880000Y-58780000D01*
X102250000Y-58780000D01*
X102140000Y-59190000D01*
X102510000Y-59880000D01*
X103160000Y-61050000D01*
X104440000Y-61730000D01*
X104720000Y-62040000D01*
X104920000Y-62670000D01*
X105240000Y-63380000D01*
X105280000Y-63830000D01*
X104870000Y-63740000D01*
X104350000Y-63200000D01*
X103860000Y-62410000D01*
X103610000Y-62430000D01*
X103750000Y-63100000D01*
X104650000Y-65270000D01*
X104890000Y-66330000D01*
X104850000Y-66900000D01*
X104690000Y-67080000D01*
X104380000Y-66810000D01*
X102790000Y-63900000D01*
X102120000Y-62120000D01*
X101470000Y-60210000D01*
X100150000Y-58570000D01*
X99470000Y-56550000D01*
X98940000Y-56130000D01*
X97990000Y-55150000D01*
X97380000Y-54730000D01*
X96810000Y-54970000D01*
X96020000Y-54730000D01*
X95480000Y-54520000D01*
X95250000Y-55250000D01*
X94600000Y-56090000D01*
X94810000Y-57080000D01*
X95560000Y-58280000D01*
X95530000Y-59400000D01*
X95420000Y-60100000D01*
X94840000Y-59960000D01*
X95050000Y-58940000D01*
X94700000Y-58020000D01*
X94320000Y-57350000D01*
X93600000Y-56580000D01*
X93980000Y-55970000D01*
X93850000Y-55700000D01*
X93870000Y-55290000D01*
X93650000Y-54930000D01*
X93060000Y-54700000D01*
X92570000Y-54330000D01*
X91940000Y-54360000D01*
X91630000Y-54280000D01*
X91560000Y-53930000D01*
X91560000Y-53590000D01*
X91590000Y-53120000D01*
X91820000Y-53070000D01*
X91960000Y-52850000D01*
X92400000Y-53020000D01*
X93470000Y-52910000D01*
X94040000Y-52310000D01*
X94500000Y-52080000D01*
X95180000Y-51730000D01*
X96250000Y-51240000D01*
X96770000Y-51120000D01*
X97260000Y-51180000D01*
X97900000Y-51530000D01*
X98330000Y-51790000D01*
X98440000Y-53890000D01*
X99060000Y-54320000D01*
X99890000Y-54610000D01*
X100360000Y-54380000D01*
X100730000Y-54020000D01*
X101060000Y-53700000D01*
X101180000Y-53160000D01*
X101610000Y-52670000D01*
X102120000Y-52280000D01*
X103070000Y-52080000D01*
X103410000Y-51520000D01*
X103280000Y-50820000D01*
X103820000Y-50320000D01*
X104470000Y-49980000D01*
X104490000Y-49670000D01*
X104970000Y-49230000D01*
X105440000Y-49080000D01*
X105940000Y-49230000D01*
G37*
X91250000Y-39300000D02*
X92060000Y-39810000D01*
X92730000Y-41160000D01*
X93240000Y-42260000D01*
X93810000Y-42600000D01*
X94420000Y-42350000D01*
X94760000Y-41960000D01*
X95730000Y-41780000D01*
X96040000Y-41080000D01*
X97180000Y-40480000D01*
X97880000Y-40410000D01*
X98370000Y-40570000D01*
X98750000Y-40560000D01*
X99090000Y-40330000D01*
X99660000Y-40200000D01*
X100490000Y-40380000D01*
X101110000Y-40810000D01*
X101390000Y-41250000D01*
X101420000Y-41550000D01*
X101410000Y-41810000D01*
X101380000Y-41950000D01*
X101150000Y-41890000D01*
X100890000Y-42180000D01*
X100880000Y-42660000D01*
X100840000Y-43020000D01*
X100980000Y-44000000D01*
X100840000Y-44530000D01*
X100730000Y-44900000D01*
X100490000Y-44990000D01*
X100230000Y-44840000D01*
X100060000Y-44500000D01*
X99590000Y-44130000D01*
X99310000Y-43940000D01*
X98520000Y-43940000D01*
X98290000Y-44350000D01*
X98010000Y-44410000D01*
X97590000Y-44330000D01*
X97270000Y-44760000D01*
X96840000Y-44840000D01*
X96250000Y-44990000D01*
X95890000Y-45290000D01*
X95460000Y-45530000D01*
X95860000Y-46390000D01*
X95830000Y-48400000D01*
X95230000Y-48510000D01*
X94370000Y-49260000D01*
X93420000Y-49860000D01*
X92910000Y-50670000D01*
X92300000Y-50810000D01*
X91380000Y-51010000D01*
X90530000Y-51010000D01*
X90000000Y-51460000D01*
X89750000Y-51760000D01*
X89530000Y-51840000D01*
X89150000Y-51770000D01*
X88340000Y-51300000D01*
X87360000Y-52080000D01*
X86860000Y-52190000D01*
X86280000Y-52190000D01*
X85840000Y-52130000D01*
X85080000Y-52120000D01*
X84710000Y-52450000D01*
X84310000Y-52800000D01*
X83560000Y-53360000D01*
X82850000Y-53810000D01*
X82410000Y-54100000D01*
X82080000Y-54310000D01*
X81620000Y-54350000D01*
X81210000Y-54070000D01*
X80730000Y-53960000D01*
X80110000Y-53930000D01*
X79900000Y-54080000D01*
X79630000Y-54050000D01*
X79310000Y-53900000D01*
X78650000Y-53480000D01*
X78110000Y-53070000D01*
X77840000Y-52980000D01*
X77630000Y-52550000D01*
X77510000Y-52250000D01*
X77490000Y-51430000D01*
X77660000Y-50860000D01*
X78050000Y-50290000D01*
X78360000Y-50080000D01*
X78710000Y-49900000D01*
X79260000Y-49840000D01*
X80570000Y-49770000D01*
X81090000Y-49640000D01*
X81400000Y-48550000D01*
X81360000Y-46810000D01*
X81260000Y-45690000D01*
X81190000Y-45000000D01*
X81420000Y-44280000D01*
X81640000Y-43760000D01*
X82090000Y-43510000D01*
X82420000Y-43150000D01*
X82690000Y-42830000D01*
X82810000Y-42510000D01*
X83050000Y-42240000D01*
X83470000Y-41890000D01*
X83760000Y-41620000D01*
X84240000Y-40720000D01*
X84770000Y-40600000D01*
X85840000Y-39950000D01*
X87400000Y-39380000D01*
X88880000Y-39010000D01*
X89850000Y-38950000D01*
X91250000Y-39300000D01*
G36*
X91250000Y-39300000D02*
G01*
X92060000Y-39810000D01*
X92730000Y-41160000D01*
X93240000Y-42260000D01*
X93810000Y-42600000D01*
X94420000Y-42350000D01*
X94760000Y-41960000D01*
X95730000Y-41780000D01*
X96040000Y-41080000D01*
X97180000Y-40480000D01*
X97880000Y-40410000D01*
X98370000Y-40570000D01*
X98750000Y-40560000D01*
X99090000Y-40330000D01*
X99660000Y-40200000D01*
X100490000Y-40380000D01*
X101110000Y-40810000D01*
X101390000Y-41250000D01*
X101420000Y-41550000D01*
X101410000Y-41810000D01*
X101380000Y-41950000D01*
X101150000Y-41890000D01*
X100890000Y-42180000D01*
X100880000Y-42660000D01*
X100840000Y-43020000D01*
X100980000Y-44000000D01*
X100840000Y-44530000D01*
X100730000Y-44900000D01*
X100490000Y-44990000D01*
X100230000Y-44840000D01*
X100060000Y-44500000D01*
X99590000Y-44130000D01*
X99310000Y-43940000D01*
X98520000Y-43940000D01*
X98290000Y-44350000D01*
X98010000Y-44410000D01*
X97590000Y-44330000D01*
X97270000Y-44760000D01*
X96840000Y-44840000D01*
X96250000Y-44990000D01*
X95890000Y-45290000D01*
X95460000Y-45530000D01*
X95860000Y-46390000D01*
X95830000Y-48400000D01*
X95230000Y-48510000D01*
X94370000Y-49260000D01*
X93420000Y-49860000D01*
X92910000Y-50670000D01*
X92300000Y-50810000D01*
X91380000Y-51010000D01*
X90530000Y-51010000D01*
X90000000Y-51460000D01*
X89750000Y-51760000D01*
X89530000Y-51840000D01*
X89150000Y-51770000D01*
X88340000Y-51300000D01*
X87360000Y-52080000D01*
X86860000Y-52190000D01*
X86280000Y-52190000D01*
X85840000Y-52130000D01*
X85080000Y-52120000D01*
X84710000Y-52450000D01*
X84310000Y-52800000D01*
X83560000Y-53360000D01*
X82850000Y-53810000D01*
X82410000Y-54100000D01*
X82080000Y-54310000D01*
X81620000Y-54350000D01*
X81210000Y-54070000D01*
X80730000Y-53960000D01*
X80110000Y-53930000D01*
X79900000Y-54080000D01*
X79630000Y-54050000D01*
X79310000Y-53900000D01*
X78650000Y-53480000D01*
X78110000Y-53070000D01*
X77840000Y-52980000D01*
X77630000Y-52550000D01*
X77510000Y-52250000D01*
X77490000Y-51430000D01*
X77660000Y-50860000D01*
X78050000Y-50290000D01*
X78360000Y-50080000D01*
X78710000Y-49900000D01*
X79260000Y-49840000D01*
X80570000Y-49770000D01*
X81090000Y-49640000D01*
X81400000Y-48550000D01*
X81360000Y-46810000D01*
X81260000Y-45690000D01*
X81190000Y-45000000D01*
X81420000Y-44280000D01*
X81640000Y-43760000D01*
X82090000Y-43510000D01*
X82420000Y-43150000D01*
X82690000Y-42830000D01*
X82810000Y-42510000D01*
X83050000Y-42240000D01*
X83470000Y-41890000D01*
X83760000Y-41620000D01*
X84240000Y-40720000D01*
X84770000Y-40600000D01*
X85840000Y-39950000D01*
X87400000Y-39380000D01*
X88880000Y-39010000D01*
X89850000Y-38950000D01*
X91250000Y-39300000D01*
G37*
X92660000Y-69900000D02*
X92910000Y-69970000D01*
X93170000Y-70220000D01*
X93450000Y-70580000D01*
X93490000Y-71100000D01*
X93510000Y-71750000D01*
X93410000Y-72375000D01*
X93075000Y-73275000D01*
X92475000Y-73975000D01*
X91475000Y-74950000D01*
X91025000Y-75275000D01*
X90900000Y-75525000D01*
X90975000Y-75650000D01*
X91225000Y-75750000D01*
X91675000Y-75675000D01*
X92475000Y-75400000D01*
X93050000Y-75100000D01*
X93675000Y-74800000D01*
X94400000Y-74575000D01*
X94900000Y-74525000D01*
X95275000Y-74650000D01*
X95650000Y-74925000D01*
X95875000Y-75250000D01*
X96050000Y-75650000D01*
X96125000Y-76025000D01*
X96025000Y-76350000D01*
X95925000Y-76600000D01*
X96025000Y-76800000D01*
X96425000Y-76750000D01*
X97000000Y-76300000D01*
X97175000Y-76050000D01*
X97400000Y-75900000D01*
X97750000Y-75800000D01*
X98200000Y-75825000D01*
X98725000Y-75775000D01*
X99175000Y-75700000D01*
X99550000Y-75675000D01*
X100075000Y-75900000D01*
X100400000Y-76200000D01*
X100625000Y-76600000D01*
X100800000Y-76950000D01*
X100875000Y-77450000D01*
X101000000Y-77800000D01*
X101250000Y-77625000D01*
X101750000Y-77325000D01*
X102175000Y-77125000D01*
X102700000Y-77025000D01*
X103250000Y-77075000D01*
X103500000Y-77225000D01*
X103700000Y-77400000D01*
X103750000Y-77675000D01*
X103850000Y-78050000D01*
X104150000Y-78150000D01*
X104500000Y-78000000D01*
X104925000Y-77825000D01*
X105550000Y-77850000D01*
X105850000Y-78075000D01*
X106000000Y-78625000D01*
X106100000Y-79350000D01*
X106275000Y-79750000D01*
X106475000Y-79950000D01*
X106750000Y-79950000D01*
X106875000Y-79800000D01*
X107700000Y-79400000D01*
X108150000Y-79350000D01*
X108450000Y-79475000D01*
X108575000Y-79800000D01*
X108600000Y-80050000D01*
X108575000Y-80400000D01*
X108400000Y-80700000D01*
X108300000Y-80825000D01*
X107700000Y-81175000D01*
X107075000Y-81425000D01*
X106450000Y-81525000D01*
X105900000Y-81450000D01*
X105450000Y-81250000D01*
X105150000Y-81025000D01*
X104850000Y-80700000D01*
X104700000Y-80300000D01*
X104650000Y-80000000D01*
X104350000Y-79925000D01*
X104125000Y-80025000D01*
X103775000Y-80175000D01*
X103300000Y-80400000D01*
X102825000Y-80475000D01*
X102500000Y-80375000D01*
X102200000Y-80125000D01*
X102050000Y-79850000D01*
X102000000Y-79450000D01*
X102000000Y-79175000D01*
X101850000Y-79075000D01*
X101550000Y-79100000D01*
X100850000Y-79225000D01*
X100125000Y-79200000D01*
X99650000Y-79125000D01*
X99325000Y-79275000D01*
X98950000Y-79400000D01*
X98075000Y-79350000D01*
X97575000Y-79200000D01*
X97325000Y-78875000D01*
X97000000Y-78575000D01*
X96675000Y-78175000D01*
X96550000Y-78150000D01*
X96350000Y-78200000D01*
X95850000Y-78350000D01*
X95425000Y-78450000D01*
X94625000Y-78400000D01*
X94175000Y-78325000D01*
X93750000Y-78200000D01*
X93450000Y-77975000D01*
X93100000Y-77650000D01*
X92875000Y-77425000D01*
X92650000Y-77375000D01*
X91775000Y-77550000D01*
X91900000Y-78400000D01*
X91850000Y-79325000D01*
X91675000Y-79950000D01*
X91450000Y-80450000D01*
X91025000Y-80750000D01*
X90475000Y-80950000D01*
X89925000Y-80975000D01*
X89275000Y-80875000D01*
X88850000Y-80625000D01*
X88650000Y-80150000D01*
X88550000Y-79600000D01*
X88550000Y-78800000D01*
X88700000Y-77950000D01*
X88925000Y-77125000D01*
X89225000Y-76400000D01*
X89125000Y-76200000D01*
X88650000Y-76325000D01*
X88025000Y-76250000D01*
X87450000Y-76100000D01*
X86900000Y-75975000D01*
X86450000Y-76200000D01*
X86050000Y-76225000D01*
X85675000Y-75775000D01*
X85650000Y-75350000D01*
X85975000Y-74850000D01*
X85800000Y-74300000D01*
X85825000Y-73875000D01*
X85950000Y-73400000D01*
X86025000Y-73200000D01*
X86150000Y-73025000D01*
X86475000Y-72850000D01*
X87450000Y-72700000D01*
X88050000Y-72725000D01*
X88600000Y-73000000D01*
X88925000Y-73325000D01*
X88950000Y-73950000D01*
X88925000Y-74600000D01*
X89075000Y-74750000D01*
X89300000Y-74575000D01*
X89500000Y-73975000D01*
X89950000Y-72725000D01*
X90225000Y-71900000D01*
X90570000Y-71300000D01*
X90900000Y-70790000D01*
X91230000Y-70470000D01*
X91590000Y-70200000D01*
X91980000Y-69970000D01*
X92340000Y-69880000D01*
X92660000Y-69900000D01*
G36*
X92660000Y-69900000D02*
G01*
X92910000Y-69970000D01*
X93170000Y-70220000D01*
X93450000Y-70580000D01*
X93490000Y-71100000D01*
X93510000Y-71750000D01*
X93410000Y-72375000D01*
X93075000Y-73275000D01*
X92475000Y-73975000D01*
X91475000Y-74950000D01*
X91025000Y-75275000D01*
X90900000Y-75525000D01*
X90975000Y-75650000D01*
X91225000Y-75750000D01*
X91675000Y-75675000D01*
X92475000Y-75400000D01*
X93050000Y-75100000D01*
X93675000Y-74800000D01*
X94400000Y-74575000D01*
X94900000Y-74525000D01*
X95275000Y-74650000D01*
X95650000Y-74925000D01*
X95875000Y-75250000D01*
X96050000Y-75650000D01*
X96125000Y-76025000D01*
X96025000Y-76350000D01*
X95925000Y-76600000D01*
X96025000Y-76800000D01*
X96425000Y-76750000D01*
X97000000Y-76300000D01*
X97175000Y-76050000D01*
X97400000Y-75900000D01*
X97750000Y-75800000D01*
X98200000Y-75825000D01*
X98725000Y-75775000D01*
X99175000Y-75700000D01*
X99550000Y-75675000D01*
X100075000Y-75900000D01*
X100400000Y-76200000D01*
X100625000Y-76600000D01*
X100800000Y-76950000D01*
X100875000Y-77450000D01*
X101000000Y-77800000D01*
X101250000Y-77625000D01*
X101750000Y-77325000D01*
X102175000Y-77125000D01*
X102700000Y-77025000D01*
X103250000Y-77075000D01*
X103500000Y-77225000D01*
X103700000Y-77400000D01*
X103750000Y-77675000D01*
X103850000Y-78050000D01*
X104150000Y-78150000D01*
X104500000Y-78000000D01*
X104925000Y-77825000D01*
X105550000Y-77850000D01*
X105850000Y-78075000D01*
X106000000Y-78625000D01*
X106100000Y-79350000D01*
X106275000Y-79750000D01*
X106475000Y-79950000D01*
X106750000Y-79950000D01*
X106875000Y-79800000D01*
X107700000Y-79400000D01*
X108150000Y-79350000D01*
X108450000Y-79475000D01*
X108575000Y-79800000D01*
X108600000Y-80050000D01*
X108575000Y-80400000D01*
X108400000Y-80700000D01*
X108300000Y-80825000D01*
X107700000Y-81175000D01*
X107075000Y-81425000D01*
X106450000Y-81525000D01*
X105900000Y-81450000D01*
X105450000Y-81250000D01*
X105150000Y-81025000D01*
X104850000Y-80700000D01*
X104700000Y-80300000D01*
X104650000Y-80000000D01*
X104350000Y-79925000D01*
X104125000Y-80025000D01*
X103775000Y-80175000D01*
X103300000Y-80400000D01*
X102825000Y-80475000D01*
X102500000Y-80375000D01*
X102200000Y-80125000D01*
X102050000Y-79850000D01*
X102000000Y-79450000D01*
X102000000Y-79175000D01*
X101850000Y-79075000D01*
X101550000Y-79100000D01*
X100850000Y-79225000D01*
X100125000Y-79200000D01*
X99650000Y-79125000D01*
X99325000Y-79275000D01*
X98950000Y-79400000D01*
X98075000Y-79350000D01*
X97575000Y-79200000D01*
X97325000Y-78875000D01*
X97000000Y-78575000D01*
X96675000Y-78175000D01*
X96550000Y-78150000D01*
X96350000Y-78200000D01*
X95850000Y-78350000D01*
X95425000Y-78450000D01*
X94625000Y-78400000D01*
X94175000Y-78325000D01*
X93750000Y-78200000D01*
X93450000Y-77975000D01*
X93100000Y-77650000D01*
X92875000Y-77425000D01*
X92650000Y-77375000D01*
X91775000Y-77550000D01*
X91900000Y-78400000D01*
X91850000Y-79325000D01*
X91675000Y-79950000D01*
X91450000Y-80450000D01*
X91025000Y-80750000D01*
X90475000Y-80950000D01*
X89925000Y-80975000D01*
X89275000Y-80875000D01*
X88850000Y-80625000D01*
X88650000Y-80150000D01*
X88550000Y-79600000D01*
X88550000Y-78800000D01*
X88700000Y-77950000D01*
X88925000Y-77125000D01*
X89225000Y-76400000D01*
X89125000Y-76200000D01*
X88650000Y-76325000D01*
X88025000Y-76250000D01*
X87450000Y-76100000D01*
X86900000Y-75975000D01*
X86450000Y-76200000D01*
X86050000Y-76225000D01*
X85675000Y-75775000D01*
X85650000Y-75350000D01*
X85975000Y-74850000D01*
X85800000Y-74300000D01*
X85825000Y-73875000D01*
X85950000Y-73400000D01*
X86025000Y-73200000D01*
X86150000Y-73025000D01*
X86475000Y-72850000D01*
X87450000Y-72700000D01*
X88050000Y-72725000D01*
X88600000Y-73000000D01*
X88925000Y-73325000D01*
X88950000Y-73950000D01*
X88925000Y-74600000D01*
X89075000Y-74750000D01*
X89300000Y-74575000D01*
X89500000Y-73975000D01*
X89950000Y-72725000D01*
X90225000Y-71900000D01*
X90570000Y-71300000D01*
X90900000Y-70790000D01*
X91230000Y-70470000D01*
X91590000Y-70200000D01*
X91980000Y-69970000D01*
X92340000Y-69880000D01*
X92660000Y-69900000D01*
G37*
G04 #@! TD*
D11*
G04 #@! TO.C,JSAO1*
X204520000Y-42600000D03*
D12*
X204520000Y-45140000D03*
D13*
X207060000Y-42600000D03*
X207060000Y-45140000D03*
D12*
X209600000Y-42600000D03*
X209600000Y-45140000D03*
G04 #@! TD*
D14*
G04 #@! TO.C,D12*
X78149999Y-65799999D03*
D15*
X79800000Y-65800000D03*
X81449998Y-65800000D03*
X83099999Y-65800001D03*
G04 #@! TD*
D16*
G04 #@! TO.C,REF\u002A\u002A*
X214000000Y-39400000D03*
G04 #@! TD*
D17*
G04 #@! TO.C,C12*
X75800000Y-65500000D03*
X73313696Y-65238679D03*
G04 #@! TD*
G04 #@! TO.C,C24*
X70920000Y-86800000D03*
X70920000Y-89300000D03*
G04 #@! TD*
D16*
G04 #@! TO.C,REF\u002A\u002A*
X67000000Y-39400000D03*
G04 #@! TD*
D18*
G04 #@! TO.C,D21*
X97550134Y-93926961D03*
D19*
X99175067Y-94213480D03*
X100800000Y-94500000D03*
X102424933Y-94786519D03*
G04 #@! TD*
D20*
G04 #@! TO.C,D31*
X74295000Y-49640000D03*
D21*
X76835000Y-49640000D03*
G04 #@! TD*
D22*
G04 #@! TO.C,DS1*
X105720000Y-105000000D03*
D23*
X108260000Y-105000000D03*
X110800000Y-105000000D03*
X113340000Y-105000000D03*
X115880000Y-105000000D03*
X118420000Y-105000000D03*
X120960000Y-105000000D03*
X123500000Y-105000000D03*
G04 #@! TD*
D17*
G04 #@! TO.C,C21*
X105750000Y-101900000D03*
X108250000Y-101900000D03*
G04 #@! TD*
D24*
G04 #@! TO.C,R31*
X71000000Y-55600000D03*
X71000000Y-47980000D03*
G04 #@! TD*
D17*
G04 #@! TO.C,C10*
X100200000Y-70400000D03*
X97934232Y-69343454D03*
G04 #@! TD*
D24*
G04 #@! TO.C,R1*
X82452118Y-99661600D03*
X74947883Y-98338401D03*
G04 #@! TD*
G04 #@! TO.C,R32*
X102400000Y-42090000D03*
X102400000Y-49710000D03*
G04 #@! TD*
D17*
G04 #@! TO.C,C20*
X110900000Y-97700000D03*
X110899999Y-100200000D03*
G04 #@! TD*
G04 #@! TO.C,SW1*
X210600000Y-108100000D03*
X210600000Y-105600000D03*
X210600000Y-103100000D03*
G04 #@! TD*
D16*
G04 #@! TO.C,REF\u002A\u002A*
X214000000Y-135600000D03*
G04 #@! TD*
D24*
G04 #@! TO.C,R20*
X110532063Y-92700000D03*
X109867936Y-85108996D03*
G04 #@! TD*
D18*
G04 #@! TO.C,D22*
X90725201Y-92726961D03*
D19*
X92350134Y-93013480D03*
X93975067Y-93300000D03*
X95600000Y-93586519D03*
G04 #@! TD*
D20*
G04 #@! TO.C,D51*
X129000000Y-89400000D03*
D21*
X129000000Y-86860000D03*
G04 #@! TD*
D18*
G04 #@! TO.C,D20*
X104150134Y-95126961D03*
D19*
X105775067Y-95413480D03*
X107400000Y-95700000D03*
X109024933Y-95986519D03*
G04 #@! TD*
D24*
G04 #@! TO.C,R10*
X109035873Y-75408996D03*
X109700000Y-83000000D03*
G04 #@! TD*
D25*
G04 #@! TO.C,D2*
X99200000Y-101900000D03*
D21*
X101701412Y-102341066D03*
G04 #@! TD*
D18*
G04 #@! TO.C,D23*
X83636461Y-91383245D03*
D19*
X85261394Y-91669764D03*
X86886327Y-91956284D03*
X88511260Y-92242803D03*
G04 #@! TD*
D20*
G04 #@! TO.C,D32*
X97125000Y-46800000D03*
D21*
X99665000Y-46800000D03*
G04 #@! TD*
D20*
G04 #@! TO.C,D4*
X87725000Y-54300000D03*
D21*
X90265000Y-54300000D03*
G04 #@! TD*
D20*
G04 #@! TO.C,J1*
X205400000Y-108200000D03*
D21*
X205400000Y-103120000D03*
G04 #@! TD*
D24*
G04 #@! TO.C,R52*
X131600000Y-75200000D03*
X131600000Y-67580000D03*
G04 #@! TD*
D26*
G04 #@! TO.C,J21*
X202063450Y-66847978D03*
D27*
X200990000Y-69150000D03*
G04 #@! TD*
D16*
G04 #@! TO.C,REF\u002A\u002A*
X67000000Y-135600000D03*
G04 #@! TD*
D25*
G04 #@! TO.C,D1*
X84744370Y-99778599D03*
D21*
X87245782Y-100219665D03*
G04 #@! TD*
D28*
G04 #@! TO.C,D10*
X102500000Y-71600000D03*
D29*
X103995408Y-72297321D03*
X105490816Y-72994640D03*
X106986224Y-73691960D03*
G04 #@! TD*
D20*
G04 #@! TO.C,BT1*
X204800000Y-55400000D03*
D21*
X204800000Y-60480000D03*
G04 #@! TD*
D24*
G04 #@! TO.C,R2*
X96952118Y-101761600D03*
X89447883Y-100438401D03*
G04 #@! TD*
G04 #@! TO.C,R4*
X85080000Y-58100000D03*
X92700000Y-58100000D03*
G04 #@! TD*
G04 #@! TO.C,R51*
X129000000Y-92390000D03*
X129000000Y-100010000D03*
G04 #@! TD*
D17*
G04 #@! TO.C,C11*
X88200000Y-66300000D03*
X85713696Y-66038679D03*
G04 #@! TD*
D11*
G04 #@! TO.C,JSAO2*
X71520000Y-42600000D03*
D12*
X71520000Y-45140000D03*
D13*
X74060000Y-42600000D03*
X74060000Y-45140000D03*
D12*
X76600000Y-42600000D03*
X76600000Y-45140000D03*
G04 #@! TD*
D17*
G04 #@! TO.C,C22*
X71730000Y-96570000D03*
X71730000Y-99070000D03*
G04 #@! TD*
D24*
G04 #@! TO.C,R6*
X201900000Y-116290000D03*
X201900000Y-123910000D03*
G04 #@! TD*
D20*
G04 #@! TO.C,D52*
X131600000Y-77725000D03*
D21*
X131600000Y-80265000D03*
G04 #@! TD*
D30*
G04 #@! TO.C,J22*
X154343116Y-51680646D03*
D31*
X155416566Y-49378624D03*
G04 #@! TD*
D32*
G04 #@! TO.C,D11*
X90830757Y-66890122D03*
D33*
X92400000Y-67400000D03*
X93969245Y-67909877D03*
X95538487Y-68419755D03*
G04 #@! TD*
D20*
G04 #@! TO.C,D6*
X201800000Y-113775000D03*
D21*
X201800000Y-111235000D03*
G04 #@! TD*
D34*
G04 #@! TO.C,U1*
X191540000Y-99400000D03*
X194080000Y-99400000D03*
X168680000Y-99400000D03*
X189000000Y-99400000D03*
X181380000Y-99400000D03*
X196620000Y-76540000D03*
X199160000Y-99400000D03*
X194080000Y-76540000D03*
X196620000Y-99400000D03*
X186460000Y-99400000D03*
X183920000Y-99400000D03*
X178840000Y-99400000D03*
X173760000Y-99400000D03*
X171220000Y-99400000D03*
X176300000Y-99400000D03*
X186460000Y-76540000D03*
X189000000Y-76540000D03*
X191540000Y-76540000D03*
X181380000Y-76540000D03*
X183920000Y-76540000D03*
X176300000Y-76540000D03*
X178840000Y-76540000D03*
X168680000Y-76540000D03*
X171220000Y-76540000D03*
X173760000Y-76540000D03*
X199160000Y-76540000D03*
G04 #@! TD*
D18*
G04 #@! TO.C,D24*
X75950135Y-90026963D03*
D19*
X77575068Y-90313482D03*
X79200000Y-90600000D03*
X80824934Y-90886519D03*
G04 #@! TD*
D17*
G04 #@! TO.C,C23*
X71730000Y-91940000D03*
X71730000Y-94440000D03*
G04 #@! TD*
M02*
