G04 #@! TF.GenerationSoftware,KiCad,Pcbnew,9.0.7*
G04 #@! TF.CreationDate,2026-04-23T21:26:37-05:00*
G04 #@! TF.ProjectId,psycho_badge_eink_dev,70737963-686f-45f6-9261-6467655f6569,1*
G04 #@! TF.SameCoordinates,Original*
G04 #@! TF.FileFunction,Legend,Top*
G04 #@! TF.FilePolarity,Positive*
%FSLAX46Y46*%
G04 Gerber Fmt 4.6, Leading zero omitted, Abs format (unit mm)*
G04 Created by KiCad (PCBNEW 9.0.7) date 2026-04-23 21:26:37*
%MOMM*%
%LPD*%
G01*
G04 APERTURE LIST*
G04 Aperture macros list*
%AMRoundRect*
0 Rectangle with rounded corners*
0 $1 Rounding radius*
0 $2 $3 $4 $5 $6 $7 $8 $9 X,Y pos of 4 corners*
0 Add a 4 corners polygon primitive as box body*
4,1,4,$2,$3,$4,$5,$6,$7,$8,$9,$2,$3,0*
0 Add four circle primitives for the rounded corners*
1,1,$1+$1,$2,$3*
1,1,$1+$1,$4,$5*
1,1,$1+$1,$6,$7*
1,1,$1+$1,$8,$9*
0 Add four rect primitives between the rounded corners*
20,1,$1+$1,$2,$3,$4,$5,0*
20,1,$1+$1,$4,$5,$6,$7,0*
20,1,$1+$1,$6,$7,$8,$9,0*
20,1,$1+$1,$8,$9,$2,$3,0*%
G04 Aperture macros list end*
%ADD10C,0.150000*%
%ADD11C,0.120000*%
%ADD12C,0.254000*%
%ADD13R,1.700000X1.700000*%
%ADD14O,1.700000X1.700000*%
%ADD15RoundRect,0.050800X0.750000X-0.175000X0.750000X0.175000X-0.750000X0.175000X-0.750000X-0.175000X0*%
%ADD16RoundRect,0.050800X1.250000X-0.750000X1.250000X0.750000X-1.250000X0.750000X-1.250000X-0.750000X0*%
%ADD17RoundRect,0.225000X-0.225000X-0.375000X0.225000X-0.375000X0.225000X0.375000X-0.225000X0.375000X0*%
%ADD18RoundRect,0.243750X-0.243750X-0.456250X0.243750X-0.456250X0.243750X0.456250X-0.243750X0.456250X0*%
%ADD19RoundRect,0.125000X-0.125000X0.487500X-0.125000X-0.487500X0.125000X-0.487500X0.125000X0.487500X0*%
%ADD20RoundRect,0.225000X0.225000X0.375000X-0.225000X0.375000X-0.225000X-0.375000X0.225000X-0.375000X0*%
%ADD21RoundRect,0.243750X-0.456250X0.243750X-0.456250X-0.243750X0.456250X-0.243750X0.456250X0.243750X0*%
%ADD22RoundRect,0.243750X0.456250X-0.243750X0.456250X0.243750X-0.456250X0.243750X-0.456250X-0.243750X0*%
%ADD23RoundRect,0.200000X-1.150000X0.200000X-1.150000X-0.200000X1.150000X-0.200000X1.150000X0.200000X0*%
G04 #@! TA.AperFunction,Profile*
%ADD24C,0.050000*%
G04 #@! TD*
G04 APERTURE END LIST*
D10*
X162141541Y-82404485D02*
X162227255Y-82433057D01*
X162227255Y-82433057D02*
X162255826Y-82461628D01*
X162255826Y-82461628D02*
X162284398Y-82518771D01*
X162284398Y-82518771D02*
X162284398Y-82604485D01*
X162284398Y-82604485D02*
X162255826Y-82661628D01*
X162255826Y-82661628D02*
X162227255Y-82690200D01*
X162227255Y-82690200D02*
X162170112Y-82718771D01*
X162170112Y-82718771D02*
X161941541Y-82718771D01*
X161941541Y-82718771D02*
X161941541Y-82118771D01*
X161941541Y-82118771D02*
X162141541Y-82118771D01*
X162141541Y-82118771D02*
X162198684Y-82147342D01*
X162198684Y-82147342D02*
X162227255Y-82175914D01*
X162227255Y-82175914D02*
X162255826Y-82233057D01*
X162255826Y-82233057D02*
X162255826Y-82290200D01*
X162255826Y-82290200D02*
X162227255Y-82347342D01*
X162227255Y-82347342D02*
X162198684Y-82375914D01*
X162198684Y-82375914D02*
X162141541Y-82404485D01*
X162141541Y-82404485D02*
X161941541Y-82404485D01*
X162512969Y-82690200D02*
X162598684Y-82718771D01*
X162598684Y-82718771D02*
X162741541Y-82718771D01*
X162741541Y-82718771D02*
X162798684Y-82690200D01*
X162798684Y-82690200D02*
X162827255Y-82661628D01*
X162827255Y-82661628D02*
X162855826Y-82604485D01*
X162855826Y-82604485D02*
X162855826Y-82547342D01*
X162855826Y-82547342D02*
X162827255Y-82490200D01*
X162827255Y-82490200D02*
X162798684Y-82461628D01*
X162798684Y-82461628D02*
X162741541Y-82433057D01*
X162741541Y-82433057D02*
X162627255Y-82404485D01*
X162627255Y-82404485D02*
X162570112Y-82375914D01*
X162570112Y-82375914D02*
X162541541Y-82347342D01*
X162541541Y-82347342D02*
X162512969Y-82290200D01*
X162512969Y-82290200D02*
X162512969Y-82233057D01*
X162512969Y-82233057D02*
X162541541Y-82175914D01*
X162541541Y-82175914D02*
X162570112Y-82147342D01*
X162570112Y-82147342D02*
X162627255Y-82118771D01*
X162627255Y-82118771D02*
X162770112Y-82118771D01*
X162770112Y-82118771D02*
X162855826Y-82147342D01*
X163227255Y-82433057D02*
X163227255Y-82718771D01*
X163027255Y-82118771D02*
X163227255Y-82433057D01*
X163227255Y-82433057D02*
X163427255Y-82118771D01*
X144284398Y-82118771D02*
X144655826Y-82118771D01*
X144655826Y-82118771D02*
X144455826Y-82347342D01*
X144455826Y-82347342D02*
X144541541Y-82347342D01*
X144541541Y-82347342D02*
X144598684Y-82375914D01*
X144598684Y-82375914D02*
X144627255Y-82404485D01*
X144627255Y-82404485D02*
X144655826Y-82461628D01*
X144655826Y-82461628D02*
X144655826Y-82604485D01*
X144655826Y-82604485D02*
X144627255Y-82661628D01*
X144627255Y-82661628D02*
X144598684Y-82690200D01*
X144598684Y-82690200D02*
X144541541Y-82718771D01*
X144541541Y-82718771D02*
X144370112Y-82718771D01*
X144370112Y-82718771D02*
X144312969Y-82690200D01*
X144312969Y-82690200D02*
X144284398Y-82661628D01*
X144827255Y-82118771D02*
X145027255Y-82718771D01*
X145027255Y-82718771D02*
X145227255Y-82118771D01*
X145370113Y-82118771D02*
X145741541Y-82118771D01*
X145741541Y-82118771D02*
X145541541Y-82347342D01*
X145541541Y-82347342D02*
X145627256Y-82347342D01*
X145627256Y-82347342D02*
X145684399Y-82375914D01*
X145684399Y-82375914D02*
X145712970Y-82404485D01*
X145712970Y-82404485D02*
X145741541Y-82461628D01*
X145741541Y-82461628D02*
X145741541Y-82604485D01*
X145741541Y-82604485D02*
X145712970Y-82661628D01*
X145712970Y-82661628D02*
X145684399Y-82690200D01*
X145684399Y-82690200D02*
X145627256Y-82718771D01*
X145627256Y-82718771D02*
X145455827Y-82718771D01*
X145455827Y-82718771D02*
X145398684Y-82690200D01*
X145398684Y-82690200D02*
X145370113Y-82661628D01*
X147155826Y-82147342D02*
X147098684Y-82118771D01*
X147098684Y-82118771D02*
X147012969Y-82118771D01*
X147012969Y-82118771D02*
X146927255Y-82147342D01*
X146927255Y-82147342D02*
X146870112Y-82204485D01*
X146870112Y-82204485D02*
X146841541Y-82261628D01*
X146841541Y-82261628D02*
X146812969Y-82375914D01*
X146812969Y-82375914D02*
X146812969Y-82461628D01*
X146812969Y-82461628D02*
X146841541Y-82575914D01*
X146841541Y-82575914D02*
X146870112Y-82633057D01*
X146870112Y-82633057D02*
X146927255Y-82690200D01*
X146927255Y-82690200D02*
X147012969Y-82718771D01*
X147012969Y-82718771D02*
X147070112Y-82718771D01*
X147070112Y-82718771D02*
X147155826Y-82690200D01*
X147155826Y-82690200D02*
X147184398Y-82661628D01*
X147184398Y-82661628D02*
X147184398Y-82461628D01*
X147184398Y-82461628D02*
X147070112Y-82461628D01*
X147441541Y-82718771D02*
X147441541Y-82118771D01*
X147441541Y-82118771D02*
X147784398Y-82718771D01*
X147784398Y-82718771D02*
X147784398Y-82118771D01*
X148070112Y-82718771D02*
X148070112Y-82118771D01*
X148070112Y-82118771D02*
X148212969Y-82118771D01*
X148212969Y-82118771D02*
X148298683Y-82147342D01*
X148298683Y-82147342D02*
X148355826Y-82204485D01*
X148355826Y-82204485D02*
X148384397Y-82261628D01*
X148384397Y-82261628D02*
X148412969Y-82375914D01*
X148412969Y-82375914D02*
X148412969Y-82461628D01*
X148412969Y-82461628D02*
X148384397Y-82575914D01*
X148384397Y-82575914D02*
X148355826Y-82633057D01*
X148355826Y-82633057D02*
X148298683Y-82690200D01*
X148298683Y-82690200D02*
X148212969Y-82718771D01*
X148212969Y-82718771D02*
X148070112Y-82718771D01*
X155184398Y-82661628D02*
X155155826Y-82690200D01*
X155155826Y-82690200D02*
X155070112Y-82718771D01*
X155070112Y-82718771D02*
X155012969Y-82718771D01*
X155012969Y-82718771D02*
X154927255Y-82690200D01*
X154927255Y-82690200D02*
X154870112Y-82633057D01*
X154870112Y-82633057D02*
X154841541Y-82575914D01*
X154841541Y-82575914D02*
X154812969Y-82461628D01*
X154812969Y-82461628D02*
X154812969Y-82375914D01*
X154812969Y-82375914D02*
X154841541Y-82261628D01*
X154841541Y-82261628D02*
X154870112Y-82204485D01*
X154870112Y-82204485D02*
X154927255Y-82147342D01*
X154927255Y-82147342D02*
X155012969Y-82118771D01*
X155012969Y-82118771D02*
X155070112Y-82118771D01*
X155070112Y-82118771D02*
X155155826Y-82147342D01*
X155155826Y-82147342D02*
X155184398Y-82175914D01*
X155412969Y-82690200D02*
X155498684Y-82718771D01*
X155498684Y-82718771D02*
X155641541Y-82718771D01*
X155641541Y-82718771D02*
X155698684Y-82690200D01*
X155698684Y-82690200D02*
X155727255Y-82661628D01*
X155727255Y-82661628D02*
X155755826Y-82604485D01*
X155755826Y-82604485D02*
X155755826Y-82547342D01*
X155755826Y-82547342D02*
X155727255Y-82490200D01*
X155727255Y-82490200D02*
X155698684Y-82461628D01*
X155698684Y-82461628D02*
X155641541Y-82433057D01*
X155641541Y-82433057D02*
X155527255Y-82404485D01*
X155527255Y-82404485D02*
X155470112Y-82375914D01*
X155470112Y-82375914D02*
X155441541Y-82347342D01*
X155441541Y-82347342D02*
X155412969Y-82290200D01*
X155412969Y-82290200D02*
X155412969Y-82233057D01*
X155412969Y-82233057D02*
X155441541Y-82175914D01*
X155441541Y-82175914D02*
X155470112Y-82147342D01*
X155470112Y-82147342D02*
X155527255Y-82118771D01*
X155527255Y-82118771D02*
X155670112Y-82118771D01*
X155670112Y-82118771D02*
X155755826Y-82147342D01*
X149512969Y-82690200D02*
X149598684Y-82718771D01*
X149598684Y-82718771D02*
X149741541Y-82718771D01*
X149741541Y-82718771D02*
X149798684Y-82690200D01*
X149798684Y-82690200D02*
X149827255Y-82661628D01*
X149827255Y-82661628D02*
X149855826Y-82604485D01*
X149855826Y-82604485D02*
X149855826Y-82547342D01*
X149855826Y-82547342D02*
X149827255Y-82490200D01*
X149827255Y-82490200D02*
X149798684Y-82461628D01*
X149798684Y-82461628D02*
X149741541Y-82433057D01*
X149741541Y-82433057D02*
X149627255Y-82404485D01*
X149627255Y-82404485D02*
X149570112Y-82375914D01*
X149570112Y-82375914D02*
X149541541Y-82347342D01*
X149541541Y-82347342D02*
X149512969Y-82290200D01*
X149512969Y-82290200D02*
X149512969Y-82233057D01*
X149512969Y-82233057D02*
X149541541Y-82175914D01*
X149541541Y-82175914D02*
X149570112Y-82147342D01*
X149570112Y-82147342D02*
X149627255Y-82118771D01*
X149627255Y-82118771D02*
X149770112Y-82118771D01*
X149770112Y-82118771D02*
X149855826Y-82147342D01*
X150112970Y-82718771D02*
X150112970Y-82118771D01*
X150112970Y-82118771D02*
X150255827Y-82118771D01*
X150255827Y-82118771D02*
X150341541Y-82147342D01*
X150341541Y-82147342D02*
X150398684Y-82204485D01*
X150398684Y-82204485D02*
X150427255Y-82261628D01*
X150427255Y-82261628D02*
X150455827Y-82375914D01*
X150455827Y-82375914D02*
X150455827Y-82461628D01*
X150455827Y-82461628D02*
X150427255Y-82575914D01*
X150427255Y-82575914D02*
X150398684Y-82633057D01*
X150398684Y-82633057D02*
X150341541Y-82690200D01*
X150341541Y-82690200D02*
X150255827Y-82718771D01*
X150255827Y-82718771D02*
X150112970Y-82718771D01*
X150712970Y-82718771D02*
X150712970Y-82118771D01*
X151962969Y-82690200D02*
X152048684Y-82718771D01*
X152048684Y-82718771D02*
X152191541Y-82718771D01*
X152191541Y-82718771D02*
X152248684Y-82690200D01*
X152248684Y-82690200D02*
X152277255Y-82661628D01*
X152277255Y-82661628D02*
X152305826Y-82604485D01*
X152305826Y-82604485D02*
X152305826Y-82547342D01*
X152305826Y-82547342D02*
X152277255Y-82490200D01*
X152277255Y-82490200D02*
X152248684Y-82461628D01*
X152248684Y-82461628D02*
X152191541Y-82433057D01*
X152191541Y-82433057D02*
X152077255Y-82404485D01*
X152077255Y-82404485D02*
X152020112Y-82375914D01*
X152020112Y-82375914D02*
X151991541Y-82347342D01*
X151991541Y-82347342D02*
X151962969Y-82290200D01*
X151962969Y-82290200D02*
X151962969Y-82233057D01*
X151962969Y-82233057D02*
X151991541Y-82175914D01*
X151991541Y-82175914D02*
X152020112Y-82147342D01*
X152020112Y-82147342D02*
X152077255Y-82118771D01*
X152077255Y-82118771D02*
X152220112Y-82118771D01*
X152220112Y-82118771D02*
X152305826Y-82147342D01*
X152905827Y-82661628D02*
X152877255Y-82690200D01*
X152877255Y-82690200D02*
X152791541Y-82718771D01*
X152791541Y-82718771D02*
X152734398Y-82718771D01*
X152734398Y-82718771D02*
X152648684Y-82690200D01*
X152648684Y-82690200D02*
X152591541Y-82633057D01*
X152591541Y-82633057D02*
X152562970Y-82575914D01*
X152562970Y-82575914D02*
X152534398Y-82461628D01*
X152534398Y-82461628D02*
X152534398Y-82375914D01*
X152534398Y-82375914D02*
X152562970Y-82261628D01*
X152562970Y-82261628D02*
X152591541Y-82204485D01*
X152591541Y-82204485D02*
X152648684Y-82147342D01*
X152648684Y-82147342D02*
X152734398Y-82118771D01*
X152734398Y-82118771D02*
X152791541Y-82118771D01*
X152791541Y-82118771D02*
X152877255Y-82147342D01*
X152877255Y-82147342D02*
X152905827Y-82175914D01*
X153162970Y-82718771D02*
X153162970Y-82118771D01*
X153505827Y-82718771D02*
X153248684Y-82375914D01*
X153505827Y-82118771D02*
X153162970Y-82461628D01*
X157241541Y-82718771D02*
X157241541Y-82118771D01*
X157241541Y-82118771D02*
X157384398Y-82118771D01*
X157384398Y-82118771D02*
X157470112Y-82147342D01*
X157470112Y-82147342D02*
X157527255Y-82204485D01*
X157527255Y-82204485D02*
X157555826Y-82261628D01*
X157555826Y-82261628D02*
X157584398Y-82375914D01*
X157584398Y-82375914D02*
X157584398Y-82461628D01*
X157584398Y-82461628D02*
X157555826Y-82575914D01*
X157555826Y-82575914D02*
X157527255Y-82633057D01*
X157527255Y-82633057D02*
X157470112Y-82690200D01*
X157470112Y-82690200D02*
X157384398Y-82718771D01*
X157384398Y-82718771D02*
X157241541Y-82718771D01*
X158184398Y-82661628D02*
X158155826Y-82690200D01*
X158155826Y-82690200D02*
X158070112Y-82718771D01*
X158070112Y-82718771D02*
X158012969Y-82718771D01*
X158012969Y-82718771D02*
X157927255Y-82690200D01*
X157927255Y-82690200D02*
X157870112Y-82633057D01*
X157870112Y-82633057D02*
X157841541Y-82575914D01*
X157841541Y-82575914D02*
X157812969Y-82461628D01*
X157812969Y-82461628D02*
X157812969Y-82375914D01*
X157812969Y-82375914D02*
X157841541Y-82261628D01*
X157841541Y-82261628D02*
X157870112Y-82204485D01*
X157870112Y-82204485D02*
X157927255Y-82147342D01*
X157927255Y-82147342D02*
X158012969Y-82118771D01*
X158012969Y-82118771D02*
X158070112Y-82118771D01*
X158070112Y-82118771D02*
X158155826Y-82147342D01*
X158155826Y-82147342D02*
X158184398Y-82175914D01*
X159884398Y-82718771D02*
X159684398Y-82433057D01*
X159541541Y-82718771D02*
X159541541Y-82118771D01*
X159541541Y-82118771D02*
X159770112Y-82118771D01*
X159770112Y-82118771D02*
X159827255Y-82147342D01*
X159827255Y-82147342D02*
X159855826Y-82175914D01*
X159855826Y-82175914D02*
X159884398Y-82233057D01*
X159884398Y-82233057D02*
X159884398Y-82318771D01*
X159884398Y-82318771D02*
X159855826Y-82375914D01*
X159855826Y-82375914D02*
X159827255Y-82404485D01*
X159827255Y-82404485D02*
X159770112Y-82433057D01*
X159770112Y-82433057D02*
X159541541Y-82433057D01*
X160141541Y-82404485D02*
X160341541Y-82404485D01*
X160427255Y-82718771D02*
X160141541Y-82718771D01*
X160141541Y-82718771D02*
X160141541Y-82118771D01*
X160141541Y-82118771D02*
X160427255Y-82118771D01*
X160655826Y-82690200D02*
X160741541Y-82718771D01*
X160741541Y-82718771D02*
X160884398Y-82718771D01*
X160884398Y-82718771D02*
X160941541Y-82690200D01*
X160941541Y-82690200D02*
X160970112Y-82661628D01*
X160970112Y-82661628D02*
X160998683Y-82604485D01*
X160998683Y-82604485D02*
X160998683Y-82547342D01*
X160998683Y-82547342D02*
X160970112Y-82490200D01*
X160970112Y-82490200D02*
X160941541Y-82461628D01*
X160941541Y-82461628D02*
X160884398Y-82433057D01*
X160884398Y-82433057D02*
X160770112Y-82404485D01*
X160770112Y-82404485D02*
X160712969Y-82375914D01*
X160712969Y-82375914D02*
X160684398Y-82347342D01*
X160684398Y-82347342D02*
X160655826Y-82290200D01*
X160655826Y-82290200D02*
X160655826Y-82233057D01*
X160655826Y-82233057D02*
X160684398Y-82175914D01*
X160684398Y-82175914D02*
X160712969Y-82147342D01*
X160712969Y-82147342D02*
X160770112Y-82118771D01*
X160770112Y-82118771D02*
X160912969Y-82118771D01*
X160912969Y-82118771D02*
X160998683Y-82147342D01*
X142336666Y-79954819D02*
X142336666Y-80669104D01*
X142336666Y-80669104D02*
X142289047Y-80811961D01*
X142289047Y-80811961D02*
X142193809Y-80907200D01*
X142193809Y-80907200D02*
X142050952Y-80954819D01*
X142050952Y-80954819D02*
X141955714Y-80954819D01*
X143336666Y-80954819D02*
X142765238Y-80954819D01*
X143050952Y-80954819D02*
X143050952Y-79954819D01*
X143050952Y-79954819D02*
X142955714Y-80097676D01*
X142955714Y-80097676D02*
X142860476Y-80192914D01*
X142860476Y-80192914D02*
X142765238Y-80240533D01*
X148261905Y-99454819D02*
X148261905Y-98454819D01*
X148261905Y-98454819D02*
X148500000Y-98454819D01*
X148500000Y-98454819D02*
X148642857Y-98502438D01*
X148642857Y-98502438D02*
X148738095Y-98597676D01*
X148738095Y-98597676D02*
X148785714Y-98692914D01*
X148785714Y-98692914D02*
X148833333Y-98883390D01*
X148833333Y-98883390D02*
X148833333Y-99026247D01*
X148833333Y-99026247D02*
X148785714Y-99216723D01*
X148785714Y-99216723D02*
X148738095Y-99311961D01*
X148738095Y-99311961D02*
X148642857Y-99407200D01*
X148642857Y-99407200D02*
X148500000Y-99454819D01*
X148500000Y-99454819D02*
X148261905Y-99454819D01*
X149785714Y-99454819D02*
X149214286Y-99454819D01*
X149500000Y-99454819D02*
X149500000Y-98454819D01*
X149500000Y-98454819D02*
X149404762Y-98597676D01*
X149404762Y-98597676D02*
X149309524Y-98692914D01*
X149309524Y-98692914D02*
X149214286Y-98740533D01*
X142833333Y-97459580D02*
X142785714Y-97507200D01*
X142785714Y-97507200D02*
X142642857Y-97554819D01*
X142642857Y-97554819D02*
X142547619Y-97554819D01*
X142547619Y-97554819D02*
X142404762Y-97507200D01*
X142404762Y-97507200D02*
X142309524Y-97411961D01*
X142309524Y-97411961D02*
X142261905Y-97316723D01*
X142261905Y-97316723D02*
X142214286Y-97126247D01*
X142214286Y-97126247D02*
X142214286Y-96983390D01*
X142214286Y-96983390D02*
X142261905Y-96792914D01*
X142261905Y-96792914D02*
X142309524Y-96697676D01*
X142309524Y-96697676D02*
X142404762Y-96602438D01*
X142404762Y-96602438D02*
X142547619Y-96554819D01*
X142547619Y-96554819D02*
X142642857Y-96554819D01*
X142642857Y-96554819D02*
X142785714Y-96602438D01*
X142785714Y-96602438D02*
X142833333Y-96650057D01*
X143166667Y-96554819D02*
X143785714Y-96554819D01*
X143785714Y-96554819D02*
X143452381Y-96935771D01*
X143452381Y-96935771D02*
X143595238Y-96935771D01*
X143595238Y-96935771D02*
X143690476Y-96983390D01*
X143690476Y-96983390D02*
X143738095Y-97031009D01*
X143738095Y-97031009D02*
X143785714Y-97126247D01*
X143785714Y-97126247D02*
X143785714Y-97364342D01*
X143785714Y-97364342D02*
X143738095Y-97459580D01*
X143738095Y-97459580D02*
X143690476Y-97507200D01*
X143690476Y-97507200D02*
X143595238Y-97554819D01*
X143595238Y-97554819D02*
X143309524Y-97554819D01*
X143309524Y-97554819D02*
X143214286Y-97507200D01*
X143214286Y-97507200D02*
X143166667Y-97459580D01*
X142154761Y-91050057D02*
X142059523Y-91002438D01*
X142059523Y-91002438D02*
X141964285Y-90907200D01*
X141964285Y-90907200D02*
X141821428Y-90764342D01*
X141821428Y-90764342D02*
X141726190Y-90716723D01*
X141726190Y-90716723D02*
X141630952Y-90716723D01*
X141678571Y-90954819D02*
X141583333Y-90907200D01*
X141583333Y-90907200D02*
X141488095Y-90811961D01*
X141488095Y-90811961D02*
X141440476Y-90621485D01*
X141440476Y-90621485D02*
X141440476Y-90288152D01*
X141440476Y-90288152D02*
X141488095Y-90097676D01*
X141488095Y-90097676D02*
X141583333Y-90002438D01*
X141583333Y-90002438D02*
X141678571Y-89954819D01*
X141678571Y-89954819D02*
X141869047Y-89954819D01*
X141869047Y-89954819D02*
X141964285Y-90002438D01*
X141964285Y-90002438D02*
X142059523Y-90097676D01*
X142059523Y-90097676D02*
X142107142Y-90288152D01*
X142107142Y-90288152D02*
X142107142Y-90621485D01*
X142107142Y-90621485D02*
X142059523Y-90811961D01*
X142059523Y-90811961D02*
X141964285Y-90907200D01*
X141964285Y-90907200D02*
X141869047Y-90954819D01*
X141869047Y-90954819D02*
X141678571Y-90954819D01*
X143059523Y-90954819D02*
X142488095Y-90954819D01*
X142773809Y-90954819D02*
X142773809Y-89954819D01*
X142773809Y-89954819D02*
X142678571Y-90097676D01*
X142678571Y-90097676D02*
X142583333Y-90192914D01*
X142583333Y-90192914D02*
X142488095Y-90240533D01*
X148261905Y-91704819D02*
X148261905Y-90704819D01*
X148261905Y-90704819D02*
X148500000Y-90704819D01*
X148500000Y-90704819D02*
X148642857Y-90752438D01*
X148642857Y-90752438D02*
X148738095Y-90847676D01*
X148738095Y-90847676D02*
X148785714Y-90942914D01*
X148785714Y-90942914D02*
X148833333Y-91133390D01*
X148833333Y-91133390D02*
X148833333Y-91276247D01*
X148833333Y-91276247D02*
X148785714Y-91466723D01*
X148785714Y-91466723D02*
X148738095Y-91561961D01*
X148738095Y-91561961D02*
X148642857Y-91657200D01*
X148642857Y-91657200D02*
X148500000Y-91704819D01*
X148500000Y-91704819D02*
X148261905Y-91704819D01*
X149166667Y-90704819D02*
X149785714Y-90704819D01*
X149785714Y-90704819D02*
X149452381Y-91085771D01*
X149452381Y-91085771D02*
X149595238Y-91085771D01*
X149595238Y-91085771D02*
X149690476Y-91133390D01*
X149690476Y-91133390D02*
X149738095Y-91181009D01*
X149738095Y-91181009D02*
X149785714Y-91276247D01*
X149785714Y-91276247D02*
X149785714Y-91514342D01*
X149785714Y-91514342D02*
X149738095Y-91609580D01*
X149738095Y-91609580D02*
X149690476Y-91657200D01*
X149690476Y-91657200D02*
X149595238Y-91704819D01*
X149595238Y-91704819D02*
X149309524Y-91704819D01*
X149309524Y-91704819D02*
X149214286Y-91657200D01*
X149214286Y-91657200D02*
X149166667Y-91609580D01*
X164833333Y-83359580D02*
X164785714Y-83407200D01*
X164785714Y-83407200D02*
X164642857Y-83454819D01*
X164642857Y-83454819D02*
X164547619Y-83454819D01*
X164547619Y-83454819D02*
X164404762Y-83407200D01*
X164404762Y-83407200D02*
X164309524Y-83311961D01*
X164309524Y-83311961D02*
X164261905Y-83216723D01*
X164261905Y-83216723D02*
X164214286Y-83026247D01*
X164214286Y-83026247D02*
X164214286Y-82883390D01*
X164214286Y-82883390D02*
X164261905Y-82692914D01*
X164261905Y-82692914D02*
X164309524Y-82597676D01*
X164309524Y-82597676D02*
X164404762Y-82502438D01*
X164404762Y-82502438D02*
X164547619Y-82454819D01*
X164547619Y-82454819D02*
X164642857Y-82454819D01*
X164642857Y-82454819D02*
X164785714Y-82502438D01*
X164785714Y-82502438D02*
X164833333Y-82550057D01*
X165214286Y-82550057D02*
X165261905Y-82502438D01*
X165261905Y-82502438D02*
X165357143Y-82454819D01*
X165357143Y-82454819D02*
X165595238Y-82454819D01*
X165595238Y-82454819D02*
X165690476Y-82502438D01*
X165690476Y-82502438D02*
X165738095Y-82550057D01*
X165738095Y-82550057D02*
X165785714Y-82645295D01*
X165785714Y-82645295D02*
X165785714Y-82740533D01*
X165785714Y-82740533D02*
X165738095Y-82883390D01*
X165738095Y-82883390D02*
X165166667Y-83454819D01*
X165166667Y-83454819D02*
X165785714Y-83454819D01*
X148261905Y-95704819D02*
X148261905Y-94704819D01*
X148261905Y-94704819D02*
X148500000Y-94704819D01*
X148500000Y-94704819D02*
X148642857Y-94752438D01*
X148642857Y-94752438D02*
X148738095Y-94847676D01*
X148738095Y-94847676D02*
X148785714Y-94942914D01*
X148785714Y-94942914D02*
X148833333Y-95133390D01*
X148833333Y-95133390D02*
X148833333Y-95276247D01*
X148833333Y-95276247D02*
X148785714Y-95466723D01*
X148785714Y-95466723D02*
X148738095Y-95561961D01*
X148738095Y-95561961D02*
X148642857Y-95657200D01*
X148642857Y-95657200D02*
X148500000Y-95704819D01*
X148500000Y-95704819D02*
X148261905Y-95704819D01*
X149214286Y-94800057D02*
X149261905Y-94752438D01*
X149261905Y-94752438D02*
X149357143Y-94704819D01*
X149357143Y-94704819D02*
X149595238Y-94704819D01*
X149595238Y-94704819D02*
X149690476Y-94752438D01*
X149690476Y-94752438D02*
X149738095Y-94800057D01*
X149738095Y-94800057D02*
X149785714Y-94895295D01*
X149785714Y-94895295D02*
X149785714Y-94990533D01*
X149785714Y-94990533D02*
X149738095Y-95133390D01*
X149738095Y-95133390D02*
X149166667Y-95704819D01*
X149166667Y-95704819D02*
X149785714Y-95704819D01*
X149333333Y-87709580D02*
X149285714Y-87757200D01*
X149285714Y-87757200D02*
X149142857Y-87804819D01*
X149142857Y-87804819D02*
X149047619Y-87804819D01*
X149047619Y-87804819D02*
X148904762Y-87757200D01*
X148904762Y-87757200D02*
X148809524Y-87661961D01*
X148809524Y-87661961D02*
X148761905Y-87566723D01*
X148761905Y-87566723D02*
X148714286Y-87376247D01*
X148714286Y-87376247D02*
X148714286Y-87233390D01*
X148714286Y-87233390D02*
X148761905Y-87042914D01*
X148761905Y-87042914D02*
X148809524Y-86947676D01*
X148809524Y-86947676D02*
X148904762Y-86852438D01*
X148904762Y-86852438D02*
X149047619Y-86804819D01*
X149047619Y-86804819D02*
X149142857Y-86804819D01*
X149142857Y-86804819D02*
X149285714Y-86852438D01*
X149285714Y-86852438D02*
X149333333Y-86900057D01*
X150238095Y-86804819D02*
X149761905Y-86804819D01*
X149761905Y-86804819D02*
X149714286Y-87281009D01*
X149714286Y-87281009D02*
X149761905Y-87233390D01*
X149761905Y-87233390D02*
X149857143Y-87185771D01*
X149857143Y-87185771D02*
X150095238Y-87185771D01*
X150095238Y-87185771D02*
X150190476Y-87233390D01*
X150190476Y-87233390D02*
X150238095Y-87281009D01*
X150238095Y-87281009D02*
X150285714Y-87376247D01*
X150285714Y-87376247D02*
X150285714Y-87614342D01*
X150285714Y-87614342D02*
X150238095Y-87709580D01*
X150238095Y-87709580D02*
X150190476Y-87757200D01*
X150190476Y-87757200D02*
X150095238Y-87804819D01*
X150095238Y-87804819D02*
X149857143Y-87804819D01*
X149857143Y-87804819D02*
X149761905Y-87757200D01*
X149761905Y-87757200D02*
X149714286Y-87709580D01*
X154833333Y-89209580D02*
X154785714Y-89257200D01*
X154785714Y-89257200D02*
X154642857Y-89304819D01*
X154642857Y-89304819D02*
X154547619Y-89304819D01*
X154547619Y-89304819D02*
X154404762Y-89257200D01*
X154404762Y-89257200D02*
X154309524Y-89161961D01*
X154309524Y-89161961D02*
X154261905Y-89066723D01*
X154261905Y-89066723D02*
X154214286Y-88876247D01*
X154214286Y-88876247D02*
X154214286Y-88733390D01*
X154214286Y-88733390D02*
X154261905Y-88542914D01*
X154261905Y-88542914D02*
X154309524Y-88447676D01*
X154309524Y-88447676D02*
X154404762Y-88352438D01*
X154404762Y-88352438D02*
X154547619Y-88304819D01*
X154547619Y-88304819D02*
X154642857Y-88304819D01*
X154642857Y-88304819D02*
X154785714Y-88352438D01*
X154785714Y-88352438D02*
X154833333Y-88400057D01*
X155690476Y-88638152D02*
X155690476Y-89304819D01*
X155452381Y-88257200D02*
X155214286Y-88971485D01*
X155214286Y-88971485D02*
X155833333Y-88971485D01*
X159357142Y-99709580D02*
X159309523Y-99757200D01*
X159309523Y-99757200D02*
X159166666Y-99804819D01*
X159166666Y-99804819D02*
X159071428Y-99804819D01*
X159071428Y-99804819D02*
X158928571Y-99757200D01*
X158928571Y-99757200D02*
X158833333Y-99661961D01*
X158833333Y-99661961D02*
X158785714Y-99566723D01*
X158785714Y-99566723D02*
X158738095Y-99376247D01*
X158738095Y-99376247D02*
X158738095Y-99233390D01*
X158738095Y-99233390D02*
X158785714Y-99042914D01*
X158785714Y-99042914D02*
X158833333Y-98947676D01*
X158833333Y-98947676D02*
X158928571Y-98852438D01*
X158928571Y-98852438D02*
X159071428Y-98804819D01*
X159071428Y-98804819D02*
X159166666Y-98804819D01*
X159166666Y-98804819D02*
X159309523Y-98852438D01*
X159309523Y-98852438D02*
X159357142Y-98900057D01*
X160309523Y-99804819D02*
X159738095Y-99804819D01*
X160023809Y-99804819D02*
X160023809Y-98804819D01*
X160023809Y-98804819D02*
X159928571Y-98947676D01*
X159928571Y-98947676D02*
X159833333Y-99042914D01*
X159833333Y-99042914D02*
X159738095Y-99090533D01*
X160690476Y-98900057D02*
X160738095Y-98852438D01*
X160738095Y-98852438D02*
X160833333Y-98804819D01*
X160833333Y-98804819D02*
X161071428Y-98804819D01*
X161071428Y-98804819D02*
X161166666Y-98852438D01*
X161166666Y-98852438D02*
X161214285Y-98900057D01*
X161214285Y-98900057D02*
X161261904Y-98995295D01*
X161261904Y-98995295D02*
X161261904Y-99090533D01*
X161261904Y-99090533D02*
X161214285Y-99233390D01*
X161214285Y-99233390D02*
X160642857Y-99804819D01*
X160642857Y-99804819D02*
X161261904Y-99804819D01*
X159357142Y-96209580D02*
X159309523Y-96257200D01*
X159309523Y-96257200D02*
X159166666Y-96304819D01*
X159166666Y-96304819D02*
X159071428Y-96304819D01*
X159071428Y-96304819D02*
X158928571Y-96257200D01*
X158928571Y-96257200D02*
X158833333Y-96161961D01*
X158833333Y-96161961D02*
X158785714Y-96066723D01*
X158785714Y-96066723D02*
X158738095Y-95876247D01*
X158738095Y-95876247D02*
X158738095Y-95733390D01*
X158738095Y-95733390D02*
X158785714Y-95542914D01*
X158785714Y-95542914D02*
X158833333Y-95447676D01*
X158833333Y-95447676D02*
X158928571Y-95352438D01*
X158928571Y-95352438D02*
X159071428Y-95304819D01*
X159071428Y-95304819D02*
X159166666Y-95304819D01*
X159166666Y-95304819D02*
X159309523Y-95352438D01*
X159309523Y-95352438D02*
X159357142Y-95400057D01*
X160309523Y-96304819D02*
X159738095Y-96304819D01*
X160023809Y-96304819D02*
X160023809Y-95304819D01*
X160023809Y-95304819D02*
X159928571Y-95447676D01*
X159928571Y-95447676D02*
X159833333Y-95542914D01*
X159833333Y-95542914D02*
X159738095Y-95590533D01*
X160928571Y-95304819D02*
X161023809Y-95304819D01*
X161023809Y-95304819D02*
X161119047Y-95352438D01*
X161119047Y-95352438D02*
X161166666Y-95400057D01*
X161166666Y-95400057D02*
X161214285Y-95495295D01*
X161214285Y-95495295D02*
X161261904Y-95685771D01*
X161261904Y-95685771D02*
X161261904Y-95923866D01*
X161261904Y-95923866D02*
X161214285Y-96114342D01*
X161214285Y-96114342D02*
X161166666Y-96209580D01*
X161166666Y-96209580D02*
X161119047Y-96257200D01*
X161119047Y-96257200D02*
X161023809Y-96304819D01*
X161023809Y-96304819D02*
X160928571Y-96304819D01*
X160928571Y-96304819D02*
X160833333Y-96257200D01*
X160833333Y-96257200D02*
X160785714Y-96209580D01*
X160785714Y-96209580D02*
X160738095Y-96114342D01*
X160738095Y-96114342D02*
X160690476Y-95923866D01*
X160690476Y-95923866D02*
X160690476Y-95685771D01*
X160690476Y-95685771D02*
X160738095Y-95495295D01*
X160738095Y-95495295D02*
X160785714Y-95400057D01*
X160785714Y-95400057D02*
X160833333Y-95352438D01*
X160833333Y-95352438D02*
X160928571Y-95304819D01*
X154833333Y-92709580D02*
X154785714Y-92757200D01*
X154785714Y-92757200D02*
X154642857Y-92804819D01*
X154642857Y-92804819D02*
X154547619Y-92804819D01*
X154547619Y-92804819D02*
X154404762Y-92757200D01*
X154404762Y-92757200D02*
X154309524Y-92661961D01*
X154309524Y-92661961D02*
X154261905Y-92566723D01*
X154261905Y-92566723D02*
X154214286Y-92376247D01*
X154214286Y-92376247D02*
X154214286Y-92233390D01*
X154214286Y-92233390D02*
X154261905Y-92042914D01*
X154261905Y-92042914D02*
X154309524Y-91947676D01*
X154309524Y-91947676D02*
X154404762Y-91852438D01*
X154404762Y-91852438D02*
X154547619Y-91804819D01*
X154547619Y-91804819D02*
X154642857Y-91804819D01*
X154642857Y-91804819D02*
X154785714Y-91852438D01*
X154785714Y-91852438D02*
X154833333Y-91900057D01*
X155309524Y-92804819D02*
X155500000Y-92804819D01*
X155500000Y-92804819D02*
X155595238Y-92757200D01*
X155595238Y-92757200D02*
X155642857Y-92709580D01*
X155642857Y-92709580D02*
X155738095Y-92566723D01*
X155738095Y-92566723D02*
X155785714Y-92376247D01*
X155785714Y-92376247D02*
X155785714Y-91995295D01*
X155785714Y-91995295D02*
X155738095Y-91900057D01*
X155738095Y-91900057D02*
X155690476Y-91852438D01*
X155690476Y-91852438D02*
X155595238Y-91804819D01*
X155595238Y-91804819D02*
X155404762Y-91804819D01*
X155404762Y-91804819D02*
X155309524Y-91852438D01*
X155309524Y-91852438D02*
X155261905Y-91900057D01*
X155261905Y-91900057D02*
X155214286Y-91995295D01*
X155214286Y-91995295D02*
X155214286Y-92233390D01*
X155214286Y-92233390D02*
X155261905Y-92328628D01*
X155261905Y-92328628D02*
X155309524Y-92376247D01*
X155309524Y-92376247D02*
X155404762Y-92423866D01*
X155404762Y-92423866D02*
X155595238Y-92423866D01*
X155595238Y-92423866D02*
X155690476Y-92376247D01*
X155690476Y-92376247D02*
X155738095Y-92328628D01*
X155738095Y-92328628D02*
X155785714Y-92233390D01*
X144833333Y-85892319D02*
X144500000Y-85416128D01*
X144261905Y-85892319D02*
X144261905Y-84892319D01*
X144261905Y-84892319D02*
X144642857Y-84892319D01*
X144642857Y-84892319D02*
X144738095Y-84939938D01*
X144738095Y-84939938D02*
X144785714Y-84987557D01*
X144785714Y-84987557D02*
X144833333Y-85082795D01*
X144833333Y-85082795D02*
X144833333Y-85225652D01*
X144833333Y-85225652D02*
X144785714Y-85320890D01*
X144785714Y-85320890D02*
X144738095Y-85368509D01*
X144738095Y-85368509D02*
X144642857Y-85416128D01*
X144642857Y-85416128D02*
X144261905Y-85416128D01*
X145785714Y-85892319D02*
X145214286Y-85892319D01*
X145500000Y-85892319D02*
X145500000Y-84892319D01*
X145500000Y-84892319D02*
X145404762Y-85035176D01*
X145404762Y-85035176D02*
X145309524Y-85130414D01*
X145309524Y-85130414D02*
X145214286Y-85178033D01*
X159833333Y-92709580D02*
X159785714Y-92757200D01*
X159785714Y-92757200D02*
X159642857Y-92804819D01*
X159642857Y-92804819D02*
X159547619Y-92804819D01*
X159547619Y-92804819D02*
X159404762Y-92757200D01*
X159404762Y-92757200D02*
X159309524Y-92661961D01*
X159309524Y-92661961D02*
X159261905Y-92566723D01*
X159261905Y-92566723D02*
X159214286Y-92376247D01*
X159214286Y-92376247D02*
X159214286Y-92233390D01*
X159214286Y-92233390D02*
X159261905Y-92042914D01*
X159261905Y-92042914D02*
X159309524Y-91947676D01*
X159309524Y-91947676D02*
X159404762Y-91852438D01*
X159404762Y-91852438D02*
X159547619Y-91804819D01*
X159547619Y-91804819D02*
X159642857Y-91804819D01*
X159642857Y-91804819D02*
X159785714Y-91852438D01*
X159785714Y-91852438D02*
X159833333Y-91900057D01*
X160166667Y-91804819D02*
X160833333Y-91804819D01*
X160833333Y-91804819D02*
X160404762Y-92804819D01*
X154357142Y-98209580D02*
X154309523Y-98257200D01*
X154309523Y-98257200D02*
X154166666Y-98304819D01*
X154166666Y-98304819D02*
X154071428Y-98304819D01*
X154071428Y-98304819D02*
X153928571Y-98257200D01*
X153928571Y-98257200D02*
X153833333Y-98161961D01*
X153833333Y-98161961D02*
X153785714Y-98066723D01*
X153785714Y-98066723D02*
X153738095Y-97876247D01*
X153738095Y-97876247D02*
X153738095Y-97733390D01*
X153738095Y-97733390D02*
X153785714Y-97542914D01*
X153785714Y-97542914D02*
X153833333Y-97447676D01*
X153833333Y-97447676D02*
X153928571Y-97352438D01*
X153928571Y-97352438D02*
X154071428Y-97304819D01*
X154071428Y-97304819D02*
X154166666Y-97304819D01*
X154166666Y-97304819D02*
X154309523Y-97352438D01*
X154309523Y-97352438D02*
X154357142Y-97400057D01*
X155309523Y-98304819D02*
X154738095Y-98304819D01*
X155023809Y-98304819D02*
X155023809Y-97304819D01*
X155023809Y-97304819D02*
X154928571Y-97447676D01*
X154928571Y-97447676D02*
X154833333Y-97542914D01*
X154833333Y-97542914D02*
X154738095Y-97590533D01*
X156261904Y-98304819D02*
X155690476Y-98304819D01*
X155976190Y-98304819D02*
X155976190Y-97304819D01*
X155976190Y-97304819D02*
X155880952Y-97447676D01*
X155880952Y-97447676D02*
X155785714Y-97542914D01*
X155785714Y-97542914D02*
X155690476Y-97590533D01*
X159833333Y-89209580D02*
X159785714Y-89257200D01*
X159785714Y-89257200D02*
X159642857Y-89304819D01*
X159642857Y-89304819D02*
X159547619Y-89304819D01*
X159547619Y-89304819D02*
X159404762Y-89257200D01*
X159404762Y-89257200D02*
X159309524Y-89161961D01*
X159309524Y-89161961D02*
X159261905Y-89066723D01*
X159261905Y-89066723D02*
X159214286Y-88876247D01*
X159214286Y-88876247D02*
X159214286Y-88733390D01*
X159214286Y-88733390D02*
X159261905Y-88542914D01*
X159261905Y-88542914D02*
X159309524Y-88447676D01*
X159309524Y-88447676D02*
X159404762Y-88352438D01*
X159404762Y-88352438D02*
X159547619Y-88304819D01*
X159547619Y-88304819D02*
X159642857Y-88304819D01*
X159642857Y-88304819D02*
X159785714Y-88352438D01*
X159785714Y-88352438D02*
X159833333Y-88400057D01*
X160690476Y-88304819D02*
X160500000Y-88304819D01*
X160500000Y-88304819D02*
X160404762Y-88352438D01*
X160404762Y-88352438D02*
X160357143Y-88400057D01*
X160357143Y-88400057D02*
X160261905Y-88542914D01*
X160261905Y-88542914D02*
X160214286Y-88733390D01*
X160214286Y-88733390D02*
X160214286Y-89114342D01*
X160214286Y-89114342D02*
X160261905Y-89209580D01*
X160261905Y-89209580D02*
X160309524Y-89257200D01*
X160309524Y-89257200D02*
X160404762Y-89304819D01*
X160404762Y-89304819D02*
X160595238Y-89304819D01*
X160595238Y-89304819D02*
X160690476Y-89257200D01*
X160690476Y-89257200D02*
X160738095Y-89209580D01*
X160738095Y-89209580D02*
X160785714Y-89114342D01*
X160785714Y-89114342D02*
X160785714Y-88876247D01*
X160785714Y-88876247D02*
X160738095Y-88781009D01*
X160738095Y-88781009D02*
X160690476Y-88733390D01*
X160690476Y-88733390D02*
X160595238Y-88685771D01*
X160595238Y-88685771D02*
X160404762Y-88685771D01*
X160404762Y-88685771D02*
X160309524Y-88733390D01*
X160309524Y-88733390D02*
X160261905Y-88781009D01*
X160261905Y-88781009D02*
X160214286Y-88876247D01*
X142333333Y-85892319D02*
X142000000Y-85416128D01*
X141761905Y-85892319D02*
X141761905Y-84892319D01*
X141761905Y-84892319D02*
X142142857Y-84892319D01*
X142142857Y-84892319D02*
X142238095Y-84939938D01*
X142238095Y-84939938D02*
X142285714Y-84987557D01*
X142285714Y-84987557D02*
X142333333Y-85082795D01*
X142333333Y-85082795D02*
X142333333Y-85225652D01*
X142333333Y-85225652D02*
X142285714Y-85320890D01*
X142285714Y-85320890D02*
X142238095Y-85368509D01*
X142238095Y-85368509D02*
X142142857Y-85416128D01*
X142142857Y-85416128D02*
X141761905Y-85416128D01*
X142714286Y-84987557D02*
X142761905Y-84939938D01*
X142761905Y-84939938D02*
X142857143Y-84892319D01*
X142857143Y-84892319D02*
X143095238Y-84892319D01*
X143095238Y-84892319D02*
X143190476Y-84939938D01*
X143190476Y-84939938D02*
X143238095Y-84987557D01*
X143238095Y-84987557D02*
X143285714Y-85082795D01*
X143285714Y-85082795D02*
X143285714Y-85178033D01*
X143285714Y-85178033D02*
X143238095Y-85320890D01*
X143238095Y-85320890D02*
X142666667Y-85892319D01*
X142666667Y-85892319D02*
X143285714Y-85892319D01*
X146533333Y-84454819D02*
X146057143Y-84454819D01*
X146057143Y-84454819D02*
X146057143Y-83454819D01*
X147390476Y-84454819D02*
X146819048Y-84454819D01*
X147104762Y-84454819D02*
X147104762Y-83454819D01*
X147104762Y-83454819D02*
X147009524Y-83597676D01*
X147009524Y-83597676D02*
X146914286Y-83692914D01*
X146914286Y-83692914D02*
X146819048Y-83740533D01*
D11*
X143670000Y-81830000D02*
X143670000Y-80500000D01*
X145000000Y-81830000D02*
X143670000Y-81830000D01*
X146270000Y-79170000D02*
X164110000Y-79170000D01*
X146270000Y-81830000D02*
X146270000Y-79170000D01*
X146270000Y-81830000D02*
X164110000Y-81830000D01*
X164110000Y-81830000D02*
X164110000Y-79170000D01*
D12*
X168476000Y-86230000D02*
X168476000Y-87843900D01*
X168476000Y-101770000D02*
X168476000Y-100156100D01*
X170068900Y-86230000D02*
X168476000Y-86230000D01*
X170068900Y-101770000D02*
X168476000Y-101770000D01*
X173569000Y-86230000D02*
X173031100Y-86230000D01*
X173569000Y-101770000D02*
X173031100Y-101770000D01*
X173569000Y-101770000D02*
X173569000Y-86230000D01*
D11*
X146640000Y-100000000D02*
X146640000Y-102000000D01*
X146640000Y-100000000D02*
X150650000Y-100000000D01*
X146640000Y-102000000D02*
X150650000Y-102000000D01*
X142741422Y-98040000D02*
X143258578Y-98040000D01*
X142741422Y-99460000D02*
X143258578Y-99460000D01*
X141840000Y-93735000D02*
X141840000Y-92265000D01*
X142490000Y-93735000D02*
X141840000Y-93735000D01*
X142860000Y-92265000D02*
X143140000Y-92265000D01*
X144160000Y-92350748D02*
X144160000Y-93735000D01*
X144160000Y-93735000D02*
X143510000Y-93735000D01*
X144360000Y-92200000D02*
X144170000Y-92060000D01*
X144360000Y-91920000D01*
X144360000Y-92200000D01*
G36*
X144360000Y-92200000D02*
G01*
X144170000Y-92060000D01*
X144360000Y-91920000D01*
X144360000Y-92200000D01*
G37*
X151360000Y-92000000D02*
X147350000Y-92000000D01*
X151360000Y-94000000D02*
X147350000Y-94000000D01*
X151360000Y-94000000D02*
X151360000Y-92000000D01*
X164290000Y-84991422D02*
X164290000Y-85508578D01*
X165710000Y-84991422D02*
X165710000Y-85508578D01*
X151360000Y-96000000D02*
X147350000Y-96000000D01*
X151360000Y-98000000D02*
X147350000Y-98000000D01*
X151360000Y-98000000D02*
X151360000Y-96000000D01*
X149241422Y-88290000D02*
X149758578Y-88290000D01*
X149241422Y-89710000D02*
X149758578Y-89710000D01*
X154741422Y-89790000D02*
X155258578Y-89790000D01*
X154741422Y-91210000D02*
X155258578Y-91210000D01*
X159741422Y-100290000D02*
X160258578Y-100290000D01*
X159741422Y-101710000D02*
X160258578Y-101710000D01*
X159741422Y-96790000D02*
X160258578Y-96790000D01*
X159741422Y-98210000D02*
X160258578Y-98210000D01*
X154741422Y-93290000D02*
X155258578Y-93290000D01*
X154741422Y-94710000D02*
X155258578Y-94710000D01*
X144290000Y-88258578D02*
X144290000Y-87741422D01*
X145710000Y-88258578D02*
X145710000Y-87741422D01*
X159741422Y-93290000D02*
X160258578Y-93290000D01*
X159741422Y-94710000D02*
X160258578Y-94710000D01*
X154741422Y-98790000D02*
X155258578Y-98790000D01*
X154741422Y-100210000D02*
X155258578Y-100210000D01*
X159741422Y-89790000D02*
X160258578Y-89790000D01*
X159741422Y-91210000D02*
X160258578Y-91210000D01*
X141790000Y-88258578D02*
X141790000Y-87741422D01*
X143210000Y-88258578D02*
X143210000Y-87741422D01*
X147890000Y-86610000D02*
X147890000Y-83390000D01*
X151110000Y-83390000D02*
X151110000Y-86610000D01*
%LPC*%
D13*
X145000000Y-80500000D03*
D14*
X147540000Y-80500000D03*
X150080000Y-80500000D03*
X152620000Y-80500000D03*
X155160000Y-80500000D03*
X157700000Y-80500000D03*
X160240000Y-80500000D03*
X162780000Y-80500000D03*
D15*
X168450100Y-88250100D03*
X168450100Y-88749900D03*
X168450100Y-89250100D03*
X168450100Y-89749900D03*
X168450100Y-90250100D03*
X168450100Y-90749900D03*
X168450100Y-91250100D03*
X168450100Y-91749900D03*
X168450100Y-92250100D03*
X168450100Y-92749900D03*
X168450100Y-93250100D03*
X168450100Y-93749900D03*
X168450100Y-94250100D03*
X168450100Y-94749900D03*
X168450100Y-95250100D03*
X168450100Y-95749900D03*
X168450100Y-96250100D03*
X168450100Y-96749900D03*
X168450100Y-97250100D03*
X168450100Y-97749900D03*
X168450100Y-98250100D03*
X168450100Y-98749900D03*
X168450100Y-99250100D03*
X168450100Y-99749900D03*
D16*
X171549900Y-101449900D03*
X171549900Y-86550100D03*
D17*
X147350000Y-101000000D03*
X150650000Y-101000000D03*
D18*
X142062500Y-98750000D03*
X143937500Y-98750000D03*
D19*
X143650000Y-92062500D03*
X142350000Y-92062500D03*
X143000000Y-93937500D03*
D20*
X150650000Y-93000000D03*
X147350000Y-93000000D03*
D21*
X165000000Y-84312500D03*
X165000000Y-86187500D03*
D20*
X150650000Y-97000000D03*
X147350000Y-97000000D03*
D18*
X148562500Y-89000000D03*
X150437500Y-89000000D03*
X154062500Y-90500000D03*
X155937500Y-90500000D03*
X159062500Y-101000000D03*
X160937500Y-101000000D03*
X159062500Y-97500000D03*
X160937500Y-97500000D03*
X154062500Y-94000000D03*
X155937500Y-94000000D03*
D22*
X145000000Y-88937500D03*
X145000000Y-87062500D03*
D18*
X159062500Y-94000000D03*
X160937500Y-94000000D03*
X154062500Y-99500000D03*
X155937500Y-99500000D03*
X159062500Y-90500000D03*
X160937500Y-90500000D03*
D22*
X142500000Y-88937500D03*
X142500000Y-87062500D03*
D23*
X149500000Y-83850000D03*
X149500000Y-86150000D03*
%LPD*%
D24*
X140250000Y-78250000D02*
X174250000Y-78250000D01*
X174250000Y-103250000D01*
X140250000Y-103250000D01*
X140250000Y-78250000D01*
M02*
