G04 #@! TF.GenerationSoftware,KiCad,Pcbnew,9.0.7*
G04 #@! TF.CreationDate,2026-04-23T21:26:37-05:00*
G04 #@! TF.ProjectId,psycho_badge_eink_dev,70737963-686f-45f6-9261-6467655f6569,1*
G04 #@! TF.SameCoordinates,Original*
G04 #@! TF.FileFunction,Legend,Bot*
G04 #@! TF.FilePolarity,Positive*
%FSLAX46Y46*%
G04 Gerber Fmt 4.6, Leading zero omitted, Abs format (unit mm)*
G04 Created by KiCad (PCBNEW 9.0.7) date 2026-04-23 21:26:37*
%MOMM*%
%LPD*%
G01*
G04 APERTURE LIST*
%ADD10C,0.150000*%
%ADD11C,0.100000*%
%ADD12C,0.010000*%
%ADD13R,1.700000X1.700000*%
%ADD14O,1.700000X1.700000*%
G04 #@! TA.AperFunction,Profile*
%ADD15C,0.050000*%
G04 #@! TD*
G04 APERTURE END LIST*
D10*
X155415601Y-82661628D02*
X155444173Y-82690200D01*
X155444173Y-82690200D02*
X155529887Y-82718771D01*
X155529887Y-82718771D02*
X155587030Y-82718771D01*
X155587030Y-82718771D02*
X155672744Y-82690200D01*
X155672744Y-82690200D02*
X155729887Y-82633057D01*
X155729887Y-82633057D02*
X155758458Y-82575914D01*
X155758458Y-82575914D02*
X155787030Y-82461628D01*
X155787030Y-82461628D02*
X155787030Y-82375914D01*
X155787030Y-82375914D02*
X155758458Y-82261628D01*
X155758458Y-82261628D02*
X155729887Y-82204485D01*
X155729887Y-82204485D02*
X155672744Y-82147342D01*
X155672744Y-82147342D02*
X155587030Y-82118771D01*
X155587030Y-82118771D02*
X155529887Y-82118771D01*
X155529887Y-82118771D02*
X155444173Y-82147342D01*
X155444173Y-82147342D02*
X155415601Y-82175914D01*
X155187030Y-82690200D02*
X155101316Y-82718771D01*
X155101316Y-82718771D02*
X154958458Y-82718771D01*
X154958458Y-82718771D02*
X154901316Y-82690200D01*
X154901316Y-82690200D02*
X154872744Y-82661628D01*
X154872744Y-82661628D02*
X154844173Y-82604485D01*
X154844173Y-82604485D02*
X154844173Y-82547342D01*
X154844173Y-82547342D02*
X154872744Y-82490200D01*
X154872744Y-82490200D02*
X154901316Y-82461628D01*
X154901316Y-82461628D02*
X154958458Y-82433057D01*
X154958458Y-82433057D02*
X155072744Y-82404485D01*
X155072744Y-82404485D02*
X155129887Y-82375914D01*
X155129887Y-82375914D02*
X155158458Y-82347342D01*
X155158458Y-82347342D02*
X155187030Y-82290200D01*
X155187030Y-82290200D02*
X155187030Y-82233057D01*
X155187030Y-82233057D02*
X155158458Y-82175914D01*
X155158458Y-82175914D02*
X155129887Y-82147342D01*
X155129887Y-82147342D02*
X155072744Y-82118771D01*
X155072744Y-82118771D02*
X154929887Y-82118771D01*
X154929887Y-82118771D02*
X154844173Y-82147342D01*
X147844173Y-82147342D02*
X147901316Y-82118771D01*
X147901316Y-82118771D02*
X147987030Y-82118771D01*
X147987030Y-82118771D02*
X148072744Y-82147342D01*
X148072744Y-82147342D02*
X148129887Y-82204485D01*
X148129887Y-82204485D02*
X148158458Y-82261628D01*
X148158458Y-82261628D02*
X148187030Y-82375914D01*
X148187030Y-82375914D02*
X148187030Y-82461628D01*
X148187030Y-82461628D02*
X148158458Y-82575914D01*
X148158458Y-82575914D02*
X148129887Y-82633057D01*
X148129887Y-82633057D02*
X148072744Y-82690200D01*
X148072744Y-82690200D02*
X147987030Y-82718771D01*
X147987030Y-82718771D02*
X147929887Y-82718771D01*
X147929887Y-82718771D02*
X147844173Y-82690200D01*
X147844173Y-82690200D02*
X147815601Y-82661628D01*
X147815601Y-82661628D02*
X147815601Y-82461628D01*
X147815601Y-82461628D02*
X147929887Y-82461628D01*
X147558458Y-82718771D02*
X147558458Y-82118771D01*
X147558458Y-82118771D02*
X147215601Y-82718771D01*
X147215601Y-82718771D02*
X147215601Y-82118771D01*
X146929887Y-82718771D02*
X146929887Y-82118771D01*
X146929887Y-82118771D02*
X146787030Y-82118771D01*
X146787030Y-82118771D02*
X146701316Y-82147342D01*
X146701316Y-82147342D02*
X146644173Y-82204485D01*
X146644173Y-82204485D02*
X146615602Y-82261628D01*
X146615602Y-82261628D02*
X146587030Y-82375914D01*
X146587030Y-82375914D02*
X146587030Y-82461628D01*
X146587030Y-82461628D02*
X146615602Y-82575914D01*
X146615602Y-82575914D02*
X146644173Y-82633057D01*
X146644173Y-82633057D02*
X146701316Y-82690200D01*
X146701316Y-82690200D02*
X146787030Y-82718771D01*
X146787030Y-82718771D02*
X146929887Y-82718771D01*
X160515601Y-82718771D02*
X160715601Y-82433057D01*
X160858458Y-82718771D02*
X160858458Y-82118771D01*
X160858458Y-82118771D02*
X160629887Y-82118771D01*
X160629887Y-82118771D02*
X160572744Y-82147342D01*
X160572744Y-82147342D02*
X160544173Y-82175914D01*
X160544173Y-82175914D02*
X160515601Y-82233057D01*
X160515601Y-82233057D02*
X160515601Y-82318771D01*
X160515601Y-82318771D02*
X160544173Y-82375914D01*
X160544173Y-82375914D02*
X160572744Y-82404485D01*
X160572744Y-82404485D02*
X160629887Y-82433057D01*
X160629887Y-82433057D02*
X160858458Y-82433057D01*
X160258458Y-82404485D02*
X160058458Y-82404485D01*
X159972744Y-82718771D02*
X160258458Y-82718771D01*
X160258458Y-82718771D02*
X160258458Y-82118771D01*
X160258458Y-82118771D02*
X159972744Y-82118771D01*
X159744173Y-82690200D02*
X159658459Y-82718771D01*
X159658459Y-82718771D02*
X159515601Y-82718771D01*
X159515601Y-82718771D02*
X159458459Y-82690200D01*
X159458459Y-82690200D02*
X159429887Y-82661628D01*
X159429887Y-82661628D02*
X159401316Y-82604485D01*
X159401316Y-82604485D02*
X159401316Y-82547342D01*
X159401316Y-82547342D02*
X159429887Y-82490200D01*
X159429887Y-82490200D02*
X159458459Y-82461628D01*
X159458459Y-82461628D02*
X159515601Y-82433057D01*
X159515601Y-82433057D02*
X159629887Y-82404485D01*
X159629887Y-82404485D02*
X159687030Y-82375914D01*
X159687030Y-82375914D02*
X159715601Y-82347342D01*
X159715601Y-82347342D02*
X159744173Y-82290200D01*
X159744173Y-82290200D02*
X159744173Y-82233057D01*
X159744173Y-82233057D02*
X159715601Y-82175914D01*
X159715601Y-82175914D02*
X159687030Y-82147342D01*
X159687030Y-82147342D02*
X159629887Y-82118771D01*
X159629887Y-82118771D02*
X159487030Y-82118771D01*
X159487030Y-82118771D02*
X159401316Y-82147342D01*
X153337030Y-82690200D02*
X153251316Y-82718771D01*
X153251316Y-82718771D02*
X153108458Y-82718771D01*
X153108458Y-82718771D02*
X153051316Y-82690200D01*
X153051316Y-82690200D02*
X153022744Y-82661628D01*
X153022744Y-82661628D02*
X152994173Y-82604485D01*
X152994173Y-82604485D02*
X152994173Y-82547342D01*
X152994173Y-82547342D02*
X153022744Y-82490200D01*
X153022744Y-82490200D02*
X153051316Y-82461628D01*
X153051316Y-82461628D02*
X153108458Y-82433057D01*
X153108458Y-82433057D02*
X153222744Y-82404485D01*
X153222744Y-82404485D02*
X153279887Y-82375914D01*
X153279887Y-82375914D02*
X153308458Y-82347342D01*
X153308458Y-82347342D02*
X153337030Y-82290200D01*
X153337030Y-82290200D02*
X153337030Y-82233057D01*
X153337030Y-82233057D02*
X153308458Y-82175914D01*
X153308458Y-82175914D02*
X153279887Y-82147342D01*
X153279887Y-82147342D02*
X153222744Y-82118771D01*
X153222744Y-82118771D02*
X153079887Y-82118771D01*
X153079887Y-82118771D02*
X152994173Y-82147342D01*
X152394172Y-82661628D02*
X152422744Y-82690200D01*
X152422744Y-82690200D02*
X152508458Y-82718771D01*
X152508458Y-82718771D02*
X152565601Y-82718771D01*
X152565601Y-82718771D02*
X152651315Y-82690200D01*
X152651315Y-82690200D02*
X152708458Y-82633057D01*
X152708458Y-82633057D02*
X152737029Y-82575914D01*
X152737029Y-82575914D02*
X152765601Y-82461628D01*
X152765601Y-82461628D02*
X152765601Y-82375914D01*
X152765601Y-82375914D02*
X152737029Y-82261628D01*
X152737029Y-82261628D02*
X152708458Y-82204485D01*
X152708458Y-82204485D02*
X152651315Y-82147342D01*
X152651315Y-82147342D02*
X152565601Y-82118771D01*
X152565601Y-82118771D02*
X152508458Y-82118771D01*
X152508458Y-82118771D02*
X152422744Y-82147342D01*
X152422744Y-82147342D02*
X152394172Y-82175914D01*
X152137029Y-82718771D02*
X152137029Y-82118771D01*
X151794172Y-82718771D02*
X152051315Y-82375914D01*
X151794172Y-82118771D02*
X152137029Y-82461628D01*
D11*
X163696115Y-99012475D02*
X163696115Y-98012475D01*
X163696115Y-98012475D02*
X163458020Y-98012475D01*
X163458020Y-98012475D02*
X163315163Y-98060094D01*
X163315163Y-98060094D02*
X163219925Y-98155332D01*
X163219925Y-98155332D02*
X163172306Y-98250570D01*
X163172306Y-98250570D02*
X163124687Y-98441046D01*
X163124687Y-98441046D02*
X163124687Y-98583903D01*
X163124687Y-98583903D02*
X163172306Y-98774379D01*
X163172306Y-98774379D02*
X163219925Y-98869617D01*
X163219925Y-98869617D02*
X163315163Y-98964856D01*
X163315163Y-98964856D02*
X163458020Y-99012475D01*
X163458020Y-99012475D02*
X163696115Y-99012475D01*
X162315163Y-98964856D02*
X162410401Y-99012475D01*
X162410401Y-99012475D02*
X162600877Y-99012475D01*
X162600877Y-99012475D02*
X162696115Y-98964856D01*
X162696115Y-98964856D02*
X162743734Y-98869617D01*
X162743734Y-98869617D02*
X162743734Y-98488665D01*
X162743734Y-98488665D02*
X162696115Y-98393427D01*
X162696115Y-98393427D02*
X162600877Y-98345808D01*
X162600877Y-98345808D02*
X162410401Y-98345808D01*
X162410401Y-98345808D02*
X162315163Y-98393427D01*
X162315163Y-98393427D02*
X162267544Y-98488665D01*
X162267544Y-98488665D02*
X162267544Y-98583903D01*
X162267544Y-98583903D02*
X162743734Y-98679141D01*
X161934210Y-98345808D02*
X161696115Y-99012475D01*
X161696115Y-99012475D02*
X161458020Y-98345808D01*
X160696115Y-98964856D02*
X160791353Y-99012475D01*
X160791353Y-99012475D02*
X160981829Y-99012475D01*
X160981829Y-99012475D02*
X161077067Y-98964856D01*
X161077067Y-98964856D02*
X161124686Y-98869617D01*
X161124686Y-98869617D02*
X161124686Y-98488665D01*
X161124686Y-98488665D02*
X161077067Y-98393427D01*
X161077067Y-98393427D02*
X160981829Y-98345808D01*
X160981829Y-98345808D02*
X160791353Y-98345808D01*
X160791353Y-98345808D02*
X160696115Y-98393427D01*
X160696115Y-98393427D02*
X160648496Y-98488665D01*
X160648496Y-98488665D02*
X160648496Y-98583903D01*
X160648496Y-98583903D02*
X161124686Y-98679141D01*
X160077067Y-99012475D02*
X160172305Y-98964856D01*
X160172305Y-98964856D02*
X160219924Y-98869617D01*
X160219924Y-98869617D02*
X160219924Y-98012475D01*
X159553257Y-99012475D02*
X159648495Y-98964856D01*
X159648495Y-98964856D02*
X159696114Y-98917236D01*
X159696114Y-98917236D02*
X159743733Y-98821998D01*
X159743733Y-98821998D02*
X159743733Y-98536284D01*
X159743733Y-98536284D02*
X159696114Y-98441046D01*
X159696114Y-98441046D02*
X159648495Y-98393427D01*
X159648495Y-98393427D02*
X159553257Y-98345808D01*
X159553257Y-98345808D02*
X159410400Y-98345808D01*
X159410400Y-98345808D02*
X159315162Y-98393427D01*
X159315162Y-98393427D02*
X159267543Y-98441046D01*
X159267543Y-98441046D02*
X159219924Y-98536284D01*
X159219924Y-98536284D02*
X159219924Y-98821998D01*
X159219924Y-98821998D02*
X159267543Y-98917236D01*
X159267543Y-98917236D02*
X159315162Y-98964856D01*
X159315162Y-98964856D02*
X159410400Y-99012475D01*
X159410400Y-99012475D02*
X159553257Y-99012475D01*
X158791352Y-98345808D02*
X158791352Y-99345808D01*
X158791352Y-98393427D02*
X158696114Y-98345808D01*
X158696114Y-98345808D02*
X158505638Y-98345808D01*
X158505638Y-98345808D02*
X158410400Y-98393427D01*
X158410400Y-98393427D02*
X158362781Y-98441046D01*
X158362781Y-98441046D02*
X158315162Y-98536284D01*
X158315162Y-98536284D02*
X158315162Y-98821998D01*
X158315162Y-98821998D02*
X158362781Y-98917236D01*
X158362781Y-98917236D02*
X158410400Y-98964856D01*
X158410400Y-98964856D02*
X158505638Y-99012475D01*
X158505638Y-99012475D02*
X158696114Y-99012475D01*
X158696114Y-99012475D02*
X158791352Y-98964856D01*
X157886590Y-99012475D02*
X157886590Y-98345808D01*
X157886590Y-98441046D02*
X157838971Y-98393427D01*
X157838971Y-98393427D02*
X157743733Y-98345808D01*
X157743733Y-98345808D02*
X157600876Y-98345808D01*
X157600876Y-98345808D02*
X157505638Y-98393427D01*
X157505638Y-98393427D02*
X157458019Y-98488665D01*
X157458019Y-98488665D02*
X157458019Y-99012475D01*
X157458019Y-98488665D02*
X157410400Y-98393427D01*
X157410400Y-98393427D02*
X157315162Y-98345808D01*
X157315162Y-98345808D02*
X157172305Y-98345808D01*
X157172305Y-98345808D02*
X157077066Y-98393427D01*
X157077066Y-98393427D02*
X157029447Y-98488665D01*
X157029447Y-98488665D02*
X157029447Y-99012475D01*
X156172305Y-98964856D02*
X156267543Y-99012475D01*
X156267543Y-99012475D02*
X156458019Y-99012475D01*
X156458019Y-99012475D02*
X156553257Y-98964856D01*
X156553257Y-98964856D02*
X156600876Y-98869617D01*
X156600876Y-98869617D02*
X156600876Y-98488665D01*
X156600876Y-98488665D02*
X156553257Y-98393427D01*
X156553257Y-98393427D02*
X156458019Y-98345808D01*
X156458019Y-98345808D02*
X156267543Y-98345808D01*
X156267543Y-98345808D02*
X156172305Y-98393427D01*
X156172305Y-98393427D02*
X156124686Y-98488665D01*
X156124686Y-98488665D02*
X156124686Y-98583903D01*
X156124686Y-98583903D02*
X156600876Y-98679141D01*
X155696114Y-98345808D02*
X155696114Y-99012475D01*
X155696114Y-98441046D02*
X155648495Y-98393427D01*
X155648495Y-98393427D02*
X155553257Y-98345808D01*
X155553257Y-98345808D02*
X155410400Y-98345808D01*
X155410400Y-98345808D02*
X155315162Y-98393427D01*
X155315162Y-98393427D02*
X155267543Y-98488665D01*
X155267543Y-98488665D02*
X155267543Y-99012475D01*
X154934209Y-98345808D02*
X154553257Y-98345808D01*
X154791352Y-98012475D02*
X154791352Y-98869617D01*
X154791352Y-98869617D02*
X154743733Y-98964856D01*
X154743733Y-98964856D02*
X154648495Y-99012475D01*
X154648495Y-99012475D02*
X154553257Y-99012475D01*
X153124685Y-98488665D02*
X152981828Y-98536284D01*
X152981828Y-98536284D02*
X152934209Y-98583903D01*
X152934209Y-98583903D02*
X152886590Y-98679141D01*
X152886590Y-98679141D02*
X152886590Y-98821998D01*
X152886590Y-98821998D02*
X152934209Y-98917236D01*
X152934209Y-98917236D02*
X152981828Y-98964856D01*
X152981828Y-98964856D02*
X153077066Y-99012475D01*
X153077066Y-99012475D02*
X153458018Y-99012475D01*
X153458018Y-99012475D02*
X153458018Y-98012475D01*
X153458018Y-98012475D02*
X153124685Y-98012475D01*
X153124685Y-98012475D02*
X153029447Y-98060094D01*
X153029447Y-98060094D02*
X152981828Y-98107713D01*
X152981828Y-98107713D02*
X152934209Y-98202951D01*
X152934209Y-98202951D02*
X152934209Y-98298189D01*
X152934209Y-98298189D02*
X152981828Y-98393427D01*
X152981828Y-98393427D02*
X153029447Y-98441046D01*
X153029447Y-98441046D02*
X153124685Y-98488665D01*
X153124685Y-98488665D02*
X153458018Y-98488665D01*
X152315161Y-99012475D02*
X152410399Y-98964856D01*
X152410399Y-98964856D02*
X152458018Y-98917236D01*
X152458018Y-98917236D02*
X152505637Y-98821998D01*
X152505637Y-98821998D02*
X152505637Y-98536284D01*
X152505637Y-98536284D02*
X152458018Y-98441046D01*
X152458018Y-98441046D02*
X152410399Y-98393427D01*
X152410399Y-98393427D02*
X152315161Y-98345808D01*
X152315161Y-98345808D02*
X152172304Y-98345808D01*
X152172304Y-98345808D02*
X152077066Y-98393427D01*
X152077066Y-98393427D02*
X152029447Y-98441046D01*
X152029447Y-98441046D02*
X151981828Y-98536284D01*
X151981828Y-98536284D02*
X151981828Y-98821998D01*
X151981828Y-98821998D02*
X152029447Y-98917236D01*
X152029447Y-98917236D02*
X152077066Y-98964856D01*
X152077066Y-98964856D02*
X152172304Y-99012475D01*
X152172304Y-99012475D02*
X152315161Y-99012475D01*
X151124685Y-99012475D02*
X151124685Y-98488665D01*
X151124685Y-98488665D02*
X151172304Y-98393427D01*
X151172304Y-98393427D02*
X151267542Y-98345808D01*
X151267542Y-98345808D02*
X151458018Y-98345808D01*
X151458018Y-98345808D02*
X151553256Y-98393427D01*
X151124685Y-98964856D02*
X151219923Y-99012475D01*
X151219923Y-99012475D02*
X151458018Y-99012475D01*
X151458018Y-99012475D02*
X151553256Y-98964856D01*
X151553256Y-98964856D02*
X151600875Y-98869617D01*
X151600875Y-98869617D02*
X151600875Y-98774379D01*
X151600875Y-98774379D02*
X151553256Y-98679141D01*
X151553256Y-98679141D02*
X151458018Y-98631522D01*
X151458018Y-98631522D02*
X151219923Y-98631522D01*
X151219923Y-98631522D02*
X151124685Y-98583903D01*
X150648494Y-99012475D02*
X150648494Y-98345808D01*
X150648494Y-98536284D02*
X150600875Y-98441046D01*
X150600875Y-98441046D02*
X150553256Y-98393427D01*
X150553256Y-98393427D02*
X150458018Y-98345808D01*
X150458018Y-98345808D02*
X150362780Y-98345808D01*
X149600875Y-99012475D02*
X149600875Y-98012475D01*
X149600875Y-98964856D02*
X149696113Y-99012475D01*
X149696113Y-99012475D02*
X149886589Y-99012475D01*
X149886589Y-99012475D02*
X149981827Y-98964856D01*
X149981827Y-98964856D02*
X150029446Y-98917236D01*
X150029446Y-98917236D02*
X150077065Y-98821998D01*
X150077065Y-98821998D02*
X150077065Y-98536284D01*
X150077065Y-98536284D02*
X150029446Y-98441046D01*
X150029446Y-98441046D02*
X149981827Y-98393427D01*
X149981827Y-98393427D02*
X149886589Y-98345808D01*
X149886589Y-98345808D02*
X149696113Y-98345808D01*
X149696113Y-98345808D02*
X149600875Y-98393427D01*
X163362782Y-100098609D02*
X163696115Y-100098609D01*
X163696115Y-100622419D02*
X163696115Y-99622419D01*
X163696115Y-99622419D02*
X163219925Y-99622419D01*
X162696115Y-100622419D02*
X162791353Y-100574800D01*
X162791353Y-100574800D02*
X162838972Y-100527180D01*
X162838972Y-100527180D02*
X162886591Y-100431942D01*
X162886591Y-100431942D02*
X162886591Y-100146228D01*
X162886591Y-100146228D02*
X162838972Y-100050990D01*
X162838972Y-100050990D02*
X162791353Y-100003371D01*
X162791353Y-100003371D02*
X162696115Y-99955752D01*
X162696115Y-99955752D02*
X162553258Y-99955752D01*
X162553258Y-99955752D02*
X162458020Y-100003371D01*
X162458020Y-100003371D02*
X162410401Y-100050990D01*
X162410401Y-100050990D02*
X162362782Y-100146228D01*
X162362782Y-100146228D02*
X162362782Y-100431942D01*
X162362782Y-100431942D02*
X162410401Y-100527180D01*
X162410401Y-100527180D02*
X162458020Y-100574800D01*
X162458020Y-100574800D02*
X162553258Y-100622419D01*
X162553258Y-100622419D02*
X162696115Y-100622419D01*
X161934210Y-100622419D02*
X161934210Y-99955752D01*
X161934210Y-100146228D02*
X161886591Y-100050990D01*
X161886591Y-100050990D02*
X161838972Y-100003371D01*
X161838972Y-100003371D02*
X161743734Y-99955752D01*
X161743734Y-99955752D02*
X161648496Y-99955752D01*
X160029448Y-99670038D02*
X160124686Y-99622419D01*
X160124686Y-99622419D02*
X160267543Y-99622419D01*
X160267543Y-99622419D02*
X160410400Y-99670038D01*
X160410400Y-99670038D02*
X160505638Y-99765276D01*
X160505638Y-99765276D02*
X160553257Y-99860514D01*
X160553257Y-99860514D02*
X160600876Y-100050990D01*
X160600876Y-100050990D02*
X160600876Y-100193847D01*
X160600876Y-100193847D02*
X160553257Y-100384323D01*
X160553257Y-100384323D02*
X160505638Y-100479561D01*
X160505638Y-100479561D02*
X160410400Y-100574800D01*
X160410400Y-100574800D02*
X160267543Y-100622419D01*
X160267543Y-100622419D02*
X160172305Y-100622419D01*
X160172305Y-100622419D02*
X160029448Y-100574800D01*
X160029448Y-100574800D02*
X159981829Y-100527180D01*
X159981829Y-100527180D02*
X159981829Y-100193847D01*
X159981829Y-100193847D02*
X160172305Y-100193847D01*
X159553257Y-100622419D02*
X159553257Y-99622419D01*
X159553257Y-99622419D02*
X159315162Y-99622419D01*
X159315162Y-99622419D02*
X159172305Y-99670038D01*
X159172305Y-99670038D02*
X159077067Y-99765276D01*
X159077067Y-99765276D02*
X159029448Y-99860514D01*
X159029448Y-99860514D02*
X158981829Y-100050990D01*
X158981829Y-100050990D02*
X158981829Y-100193847D01*
X158981829Y-100193847D02*
X159029448Y-100384323D01*
X159029448Y-100384323D02*
X159077067Y-100479561D01*
X159077067Y-100479561D02*
X159172305Y-100574800D01*
X159172305Y-100574800D02*
X159315162Y-100622419D01*
X159315162Y-100622419D02*
X159553257Y-100622419D01*
X158553257Y-100098609D02*
X158219924Y-100098609D01*
X158077067Y-100622419D02*
X158553257Y-100622419D01*
X158553257Y-100622419D02*
X158553257Y-99622419D01*
X158553257Y-99622419D02*
X158077067Y-99622419D01*
X157648495Y-100622419D02*
X157648495Y-99622419D01*
X157648495Y-99622419D02*
X157315162Y-100336704D01*
X157315162Y-100336704D02*
X156981829Y-99622419D01*
X156981829Y-99622419D02*
X156981829Y-100622419D01*
X156315162Y-99622419D02*
X156219924Y-99622419D01*
X156219924Y-99622419D02*
X156124686Y-99670038D01*
X156124686Y-99670038D02*
X156077067Y-99717657D01*
X156077067Y-99717657D02*
X156029448Y-99812895D01*
X156029448Y-99812895D02*
X155981829Y-100003371D01*
X155981829Y-100003371D02*
X155981829Y-100241466D01*
X155981829Y-100241466D02*
X156029448Y-100431942D01*
X156029448Y-100431942D02*
X156077067Y-100527180D01*
X156077067Y-100527180D02*
X156124686Y-100574800D01*
X156124686Y-100574800D02*
X156219924Y-100622419D01*
X156219924Y-100622419D02*
X156315162Y-100622419D01*
X156315162Y-100622419D02*
X156410400Y-100574800D01*
X156410400Y-100574800D02*
X156458019Y-100527180D01*
X156458019Y-100527180D02*
X156505638Y-100431942D01*
X156505638Y-100431942D02*
X156553257Y-100241466D01*
X156553257Y-100241466D02*
X156553257Y-100003371D01*
X156553257Y-100003371D02*
X156505638Y-99812895D01*
X156505638Y-99812895D02*
X156458019Y-99717657D01*
X156458019Y-99717657D02*
X156410400Y-99670038D01*
X156410400Y-99670038D02*
X156315162Y-99622419D01*
X155029448Y-100622419D02*
X155600876Y-100622419D01*
X155315162Y-100622419D02*
X155315162Y-99622419D01*
X155315162Y-99622419D02*
X155410400Y-99765276D01*
X155410400Y-99765276D02*
X155505638Y-99860514D01*
X155505638Y-99860514D02*
X155600876Y-99908133D01*
X154124686Y-99622419D02*
X154600876Y-99622419D01*
X154600876Y-99622419D02*
X154648495Y-100098609D01*
X154648495Y-100098609D02*
X154600876Y-100050990D01*
X154600876Y-100050990D02*
X154505638Y-100003371D01*
X154505638Y-100003371D02*
X154267543Y-100003371D01*
X154267543Y-100003371D02*
X154172305Y-100050990D01*
X154172305Y-100050990D02*
X154124686Y-100098609D01*
X154124686Y-100098609D02*
X154077067Y-100193847D01*
X154077067Y-100193847D02*
X154077067Y-100431942D01*
X154077067Y-100431942D02*
X154124686Y-100527180D01*
X154124686Y-100527180D02*
X154172305Y-100574800D01*
X154172305Y-100574800D02*
X154267543Y-100622419D01*
X154267543Y-100622419D02*
X154505638Y-100622419D01*
X154505638Y-100622419D02*
X154600876Y-100574800D01*
X154600876Y-100574800D02*
X154648495Y-100527180D01*
X153219924Y-99955752D02*
X153219924Y-100622419D01*
X153458019Y-99574800D02*
X153696114Y-100289085D01*
X153696114Y-100289085D02*
X153077067Y-100289085D01*
X151934209Y-100098609D02*
X151600876Y-100098609D01*
X151458019Y-100622419D02*
X151934209Y-100622419D01*
X151934209Y-100622419D02*
X151934209Y-99622419D01*
X151934209Y-99622419D02*
X151458019Y-99622419D01*
X151029447Y-100622419D02*
X151029447Y-99622419D01*
X150553257Y-100622419D02*
X150553257Y-99622419D01*
X150553257Y-99622419D02*
X149981829Y-100622419D01*
X149981829Y-100622419D02*
X149981829Y-99622419D01*
X149505638Y-100622419D02*
X149505638Y-99622419D01*
X148934210Y-100622419D02*
X149362781Y-100050990D01*
X148934210Y-99622419D02*
X149505638Y-100193847D01*
X147743733Y-100622419D02*
X147743733Y-99622419D01*
X147743733Y-99622419D02*
X147505638Y-99622419D01*
X147505638Y-99622419D02*
X147362781Y-99670038D01*
X147362781Y-99670038D02*
X147267543Y-99765276D01*
X147267543Y-99765276D02*
X147219924Y-99860514D01*
X147219924Y-99860514D02*
X147172305Y-100050990D01*
X147172305Y-100050990D02*
X147172305Y-100193847D01*
X147172305Y-100193847D02*
X147219924Y-100384323D01*
X147219924Y-100384323D02*
X147267543Y-100479561D01*
X147267543Y-100479561D02*
X147362781Y-100574800D01*
X147362781Y-100574800D02*
X147505638Y-100622419D01*
X147505638Y-100622419D02*
X147743733Y-100622419D01*
X146743733Y-100622419D02*
X146743733Y-99955752D01*
X146743733Y-99622419D02*
X146791352Y-99670038D01*
X146791352Y-99670038D02*
X146743733Y-99717657D01*
X146743733Y-99717657D02*
X146696114Y-99670038D01*
X146696114Y-99670038D02*
X146743733Y-99622419D01*
X146743733Y-99622419D02*
X146743733Y-99717657D01*
X146315162Y-100574800D02*
X146219924Y-100622419D01*
X146219924Y-100622419D02*
X146029448Y-100622419D01*
X146029448Y-100622419D02*
X145934210Y-100574800D01*
X145934210Y-100574800D02*
X145886591Y-100479561D01*
X145886591Y-100479561D02*
X145886591Y-100431942D01*
X145886591Y-100431942D02*
X145934210Y-100336704D01*
X145934210Y-100336704D02*
X146029448Y-100289085D01*
X146029448Y-100289085D02*
X146172305Y-100289085D01*
X146172305Y-100289085D02*
X146267543Y-100241466D01*
X146267543Y-100241466D02*
X146315162Y-100146228D01*
X146315162Y-100146228D02*
X146315162Y-100098609D01*
X146315162Y-100098609D02*
X146267543Y-100003371D01*
X146267543Y-100003371D02*
X146172305Y-99955752D01*
X146172305Y-99955752D02*
X146029448Y-99955752D01*
X146029448Y-99955752D02*
X145934210Y-100003371D01*
X145458019Y-99955752D02*
X145458019Y-100955752D01*
X145458019Y-100003371D02*
X145362781Y-99955752D01*
X145362781Y-99955752D02*
X145172305Y-99955752D01*
X145172305Y-99955752D02*
X145077067Y-100003371D01*
X145077067Y-100003371D02*
X145029448Y-100050990D01*
X145029448Y-100050990D02*
X144981829Y-100146228D01*
X144981829Y-100146228D02*
X144981829Y-100431942D01*
X144981829Y-100431942D02*
X145029448Y-100527180D01*
X145029448Y-100527180D02*
X145077067Y-100574800D01*
X145077067Y-100574800D02*
X145172305Y-100622419D01*
X145172305Y-100622419D02*
X145362781Y-100622419D01*
X145362781Y-100622419D02*
X145458019Y-100574800D01*
X144410400Y-100622419D02*
X144505638Y-100574800D01*
X144505638Y-100574800D02*
X144553257Y-100479561D01*
X144553257Y-100479561D02*
X144553257Y-99622419D01*
X143600876Y-100622419D02*
X143600876Y-100098609D01*
X143600876Y-100098609D02*
X143648495Y-100003371D01*
X143648495Y-100003371D02*
X143743733Y-99955752D01*
X143743733Y-99955752D02*
X143934209Y-99955752D01*
X143934209Y-99955752D02*
X144029447Y-100003371D01*
X143600876Y-100574800D02*
X143696114Y-100622419D01*
X143696114Y-100622419D02*
X143934209Y-100622419D01*
X143934209Y-100622419D02*
X144029447Y-100574800D01*
X144029447Y-100574800D02*
X144077066Y-100479561D01*
X144077066Y-100479561D02*
X144077066Y-100384323D01*
X144077066Y-100384323D02*
X144029447Y-100289085D01*
X144029447Y-100289085D02*
X143934209Y-100241466D01*
X143934209Y-100241466D02*
X143696114Y-100241466D01*
X143696114Y-100241466D02*
X143600876Y-100193847D01*
X143219923Y-99955752D02*
X142981828Y-100622419D01*
X142743733Y-99955752D02*
X142981828Y-100622419D01*
X142981828Y-100622419D02*
X143077066Y-100860514D01*
X143077066Y-100860514D02*
X143124685Y-100908133D01*
X143124685Y-100908133D02*
X143219923Y-100955752D01*
D10*
X150887030Y-82690200D02*
X150801316Y-82718771D01*
X150801316Y-82718771D02*
X150658458Y-82718771D01*
X150658458Y-82718771D02*
X150601316Y-82690200D01*
X150601316Y-82690200D02*
X150572744Y-82661628D01*
X150572744Y-82661628D02*
X150544173Y-82604485D01*
X150544173Y-82604485D02*
X150544173Y-82547342D01*
X150544173Y-82547342D02*
X150572744Y-82490200D01*
X150572744Y-82490200D02*
X150601316Y-82461628D01*
X150601316Y-82461628D02*
X150658458Y-82433057D01*
X150658458Y-82433057D02*
X150772744Y-82404485D01*
X150772744Y-82404485D02*
X150829887Y-82375914D01*
X150829887Y-82375914D02*
X150858458Y-82347342D01*
X150858458Y-82347342D02*
X150887030Y-82290200D01*
X150887030Y-82290200D02*
X150887030Y-82233057D01*
X150887030Y-82233057D02*
X150858458Y-82175914D01*
X150858458Y-82175914D02*
X150829887Y-82147342D01*
X150829887Y-82147342D02*
X150772744Y-82118771D01*
X150772744Y-82118771D02*
X150629887Y-82118771D01*
X150629887Y-82118771D02*
X150544173Y-82147342D01*
X150287029Y-82718771D02*
X150287029Y-82118771D01*
X150287029Y-82118771D02*
X150144172Y-82118771D01*
X150144172Y-82118771D02*
X150058458Y-82147342D01*
X150058458Y-82147342D02*
X150001315Y-82204485D01*
X150001315Y-82204485D02*
X149972744Y-82261628D01*
X149972744Y-82261628D02*
X149944172Y-82375914D01*
X149944172Y-82375914D02*
X149944172Y-82461628D01*
X149944172Y-82461628D02*
X149972744Y-82575914D01*
X149972744Y-82575914D02*
X150001315Y-82633057D01*
X150001315Y-82633057D02*
X150058458Y-82690200D01*
X150058458Y-82690200D02*
X150144172Y-82718771D01*
X150144172Y-82718771D02*
X150287029Y-82718771D01*
X149687029Y-82718771D02*
X149687029Y-82118771D01*
X163058458Y-82404485D02*
X162972744Y-82433057D01*
X162972744Y-82433057D02*
X162944173Y-82461628D01*
X162944173Y-82461628D02*
X162915601Y-82518771D01*
X162915601Y-82518771D02*
X162915601Y-82604485D01*
X162915601Y-82604485D02*
X162944173Y-82661628D01*
X162944173Y-82661628D02*
X162972744Y-82690200D01*
X162972744Y-82690200D02*
X163029887Y-82718771D01*
X163029887Y-82718771D02*
X163258458Y-82718771D01*
X163258458Y-82718771D02*
X163258458Y-82118771D01*
X163258458Y-82118771D02*
X163058458Y-82118771D01*
X163058458Y-82118771D02*
X163001316Y-82147342D01*
X163001316Y-82147342D02*
X162972744Y-82175914D01*
X162972744Y-82175914D02*
X162944173Y-82233057D01*
X162944173Y-82233057D02*
X162944173Y-82290200D01*
X162944173Y-82290200D02*
X162972744Y-82347342D01*
X162972744Y-82347342D02*
X163001316Y-82375914D01*
X163001316Y-82375914D02*
X163058458Y-82404485D01*
X163058458Y-82404485D02*
X163258458Y-82404485D01*
X162687030Y-82690200D02*
X162601316Y-82718771D01*
X162601316Y-82718771D02*
X162458458Y-82718771D01*
X162458458Y-82718771D02*
X162401316Y-82690200D01*
X162401316Y-82690200D02*
X162372744Y-82661628D01*
X162372744Y-82661628D02*
X162344173Y-82604485D01*
X162344173Y-82604485D02*
X162344173Y-82547342D01*
X162344173Y-82547342D02*
X162372744Y-82490200D01*
X162372744Y-82490200D02*
X162401316Y-82461628D01*
X162401316Y-82461628D02*
X162458458Y-82433057D01*
X162458458Y-82433057D02*
X162572744Y-82404485D01*
X162572744Y-82404485D02*
X162629887Y-82375914D01*
X162629887Y-82375914D02*
X162658458Y-82347342D01*
X162658458Y-82347342D02*
X162687030Y-82290200D01*
X162687030Y-82290200D02*
X162687030Y-82233057D01*
X162687030Y-82233057D02*
X162658458Y-82175914D01*
X162658458Y-82175914D02*
X162629887Y-82147342D01*
X162629887Y-82147342D02*
X162572744Y-82118771D01*
X162572744Y-82118771D02*
X162429887Y-82118771D01*
X162429887Y-82118771D02*
X162344173Y-82147342D01*
X161972744Y-82433057D02*
X161972744Y-82718771D01*
X162172744Y-82118771D02*
X161972744Y-82433057D01*
X161972744Y-82433057D02*
X161772744Y-82118771D01*
X158158458Y-82718771D02*
X158158458Y-82118771D01*
X158158458Y-82118771D02*
X158015601Y-82118771D01*
X158015601Y-82118771D02*
X157929887Y-82147342D01*
X157929887Y-82147342D02*
X157872744Y-82204485D01*
X157872744Y-82204485D02*
X157844173Y-82261628D01*
X157844173Y-82261628D02*
X157815601Y-82375914D01*
X157815601Y-82375914D02*
X157815601Y-82461628D01*
X157815601Y-82461628D02*
X157844173Y-82575914D01*
X157844173Y-82575914D02*
X157872744Y-82633057D01*
X157872744Y-82633057D02*
X157929887Y-82690200D01*
X157929887Y-82690200D02*
X158015601Y-82718771D01*
X158015601Y-82718771D02*
X158158458Y-82718771D01*
X157215601Y-82661628D02*
X157244173Y-82690200D01*
X157244173Y-82690200D02*
X157329887Y-82718771D01*
X157329887Y-82718771D02*
X157387030Y-82718771D01*
X157387030Y-82718771D02*
X157472744Y-82690200D01*
X157472744Y-82690200D02*
X157529887Y-82633057D01*
X157529887Y-82633057D02*
X157558458Y-82575914D01*
X157558458Y-82575914D02*
X157587030Y-82461628D01*
X157587030Y-82461628D02*
X157587030Y-82375914D01*
X157587030Y-82375914D02*
X157558458Y-82261628D01*
X157558458Y-82261628D02*
X157529887Y-82204485D01*
X157529887Y-82204485D02*
X157472744Y-82147342D01*
X157472744Y-82147342D02*
X157387030Y-82118771D01*
X157387030Y-82118771D02*
X157329887Y-82118771D01*
X157329887Y-82118771D02*
X157244173Y-82147342D01*
X157244173Y-82147342D02*
X157215601Y-82175914D01*
X145715601Y-82118771D02*
X145344173Y-82118771D01*
X145344173Y-82118771D02*
X145544173Y-82347342D01*
X145544173Y-82347342D02*
X145458458Y-82347342D01*
X145458458Y-82347342D02*
X145401316Y-82375914D01*
X145401316Y-82375914D02*
X145372744Y-82404485D01*
X145372744Y-82404485D02*
X145344173Y-82461628D01*
X145344173Y-82461628D02*
X145344173Y-82604485D01*
X145344173Y-82604485D02*
X145372744Y-82661628D01*
X145372744Y-82661628D02*
X145401316Y-82690200D01*
X145401316Y-82690200D02*
X145458458Y-82718771D01*
X145458458Y-82718771D02*
X145629887Y-82718771D01*
X145629887Y-82718771D02*
X145687030Y-82690200D01*
X145687030Y-82690200D02*
X145715601Y-82661628D01*
X145172744Y-82118771D02*
X144972744Y-82718771D01*
X144972744Y-82718771D02*
X144772744Y-82118771D01*
X144629886Y-82118771D02*
X144258458Y-82118771D01*
X144258458Y-82118771D02*
X144458458Y-82347342D01*
X144458458Y-82347342D02*
X144372743Y-82347342D01*
X144372743Y-82347342D02*
X144315601Y-82375914D01*
X144315601Y-82375914D02*
X144287029Y-82404485D01*
X144287029Y-82404485D02*
X144258458Y-82461628D01*
X144258458Y-82461628D02*
X144258458Y-82604485D01*
X144258458Y-82604485D02*
X144287029Y-82661628D01*
X144287029Y-82661628D02*
X144315601Y-82690200D01*
X144315601Y-82690200D02*
X144372743Y-82718771D01*
X144372743Y-82718771D02*
X144544172Y-82718771D01*
X144544172Y-82718771D02*
X144601315Y-82690200D01*
X144601315Y-82690200D02*
X144629886Y-82661628D01*
D12*
X166885909Y-90833818D02*
X166585727Y-90833818D01*
X166585727Y-90118000D01*
X166585847Y-90033842D01*
X166586860Y-89863881D01*
X166588794Y-89712247D01*
X166591513Y-89584512D01*
X166594885Y-89486246D01*
X166598774Y-89423020D01*
X166603045Y-89400404D01*
X166622621Y-89399109D01*
X166678093Y-89396214D01*
X166753136Y-89392702D01*
X166885909Y-89386778D01*
X166885909Y-90833818D01*
G36*
X166885909Y-90833818D02*
G01*
X166585727Y-90833818D01*
X166585727Y-90118000D01*
X166585847Y-90033842D01*
X166586860Y-89863881D01*
X166588794Y-89712247D01*
X166591513Y-89584512D01*
X166594885Y-89486246D01*
X166598774Y-89423020D01*
X166603045Y-89400404D01*
X166622621Y-89399109D01*
X166678093Y-89396214D01*
X166753136Y-89392702D01*
X166885909Y-89386778D01*
X166885909Y-90833818D01*
G37*
X168947876Y-86742349D02*
X168979573Y-86751563D01*
X168988851Y-86769818D01*
X168989338Y-86803150D01*
X168989592Y-86870735D01*
X168989620Y-86959480D01*
X168989444Y-87056683D01*
X168989088Y-87149645D01*
X168988575Y-87225666D01*
X168987928Y-87272045D01*
X168972592Y-87287848D01*
X168919875Y-87297767D01*
X168825545Y-87300909D01*
X168663909Y-87300909D01*
X168663909Y-86750517D01*
X168825597Y-86742849D01*
X168884817Y-86740700D01*
X168947876Y-86742349D01*
G36*
X168947876Y-86742349D02*
G01*
X168979573Y-86751563D01*
X168988851Y-86769818D01*
X168989338Y-86803150D01*
X168989592Y-86870735D01*
X168989620Y-86959480D01*
X168989444Y-87056683D01*
X168989088Y-87149645D01*
X168988575Y-87225666D01*
X168987928Y-87272045D01*
X168972592Y-87287848D01*
X168919875Y-87297767D01*
X168825545Y-87300909D01*
X168663909Y-87300909D01*
X168663909Y-86750517D01*
X168825597Y-86742849D01*
X168884817Y-86740700D01*
X168947876Y-86742349D01*
G37*
X168479182Y-87324000D02*
X168300227Y-87325604D01*
X168194724Y-87327522D01*
X168088701Y-87331040D01*
X168005818Y-87335388D01*
X167989170Y-87336490D01*
X167911639Y-87340857D01*
X167803806Y-87346235D01*
X167677635Y-87352045D01*
X167545091Y-87357707D01*
X167485369Y-87360307D01*
X167371196Y-87366212D01*
X167278214Y-87372276D01*
X167214743Y-87377919D01*
X167189106Y-87382560D01*
X167188911Y-87382745D01*
X167159853Y-87390187D01*
X167106179Y-87393273D01*
X167033964Y-87393273D01*
X167043270Y-87098864D01*
X167043809Y-87081983D01*
X167047542Y-86973301D01*
X167051037Y-86884469D01*
X167053925Y-86824258D01*
X167055834Y-86801437D01*
X167059568Y-86800991D01*
X167098491Y-86799051D01*
X167174273Y-86796170D01*
X167280190Y-86792581D01*
X167409522Y-86788515D01*
X167555545Y-86784204D01*
X167575484Y-86783626D01*
X167739349Y-86778409D01*
X167901375Y-86772504D01*
X168050478Y-86766365D01*
X168175578Y-86760444D01*
X168265591Y-86755194D01*
X168479182Y-86740400D01*
X168479182Y-87324000D01*
G36*
X168479182Y-87324000D02*
G01*
X168300227Y-87325604D01*
X168194724Y-87327522D01*
X168088701Y-87331040D01*
X168005818Y-87335388D01*
X167989170Y-87336490D01*
X167911639Y-87340857D01*
X167803806Y-87346235D01*
X167677635Y-87352045D01*
X167545091Y-87357707D01*
X167485369Y-87360307D01*
X167371196Y-87366212D01*
X167278214Y-87372276D01*
X167214743Y-87377919D01*
X167189106Y-87382560D01*
X167188911Y-87382745D01*
X167159853Y-87390187D01*
X167106179Y-87393273D01*
X167033964Y-87393273D01*
X167043270Y-87098864D01*
X167043809Y-87081983D01*
X167047542Y-86973301D01*
X167051037Y-86884469D01*
X167053925Y-86824258D01*
X167055834Y-86801437D01*
X167059568Y-86800991D01*
X167098491Y-86799051D01*
X167174273Y-86796170D01*
X167280190Y-86792581D01*
X167409522Y-86788515D01*
X167555545Y-86784204D01*
X167575484Y-86783626D01*
X167739349Y-86778409D01*
X167901375Y-86772504D01*
X168050478Y-86766365D01*
X168175578Y-86760444D01*
X168265591Y-86755194D01*
X168479182Y-86740400D01*
X168479182Y-87324000D01*
G37*
X170752923Y-98735596D02*
X170751563Y-98781111D01*
X170721210Y-98837253D01*
X170687507Y-98898952D01*
X170670905Y-98992504D01*
X170685047Y-99084913D01*
X170729496Y-99159140D01*
X170767183Y-99187663D01*
X170856664Y-99218150D01*
X170958890Y-99218977D01*
X171058068Y-99188720D01*
X171076667Y-99177371D01*
X171123644Y-99121884D01*
X171147663Y-99049466D01*
X171148003Y-98973918D01*
X171123946Y-98909042D01*
X171074770Y-98868641D01*
X171040033Y-98846651D01*
X171019182Y-98800753D01*
X171019193Y-98798939D01*
X171026765Y-98770301D01*
X171056486Y-98757157D01*
X171120264Y-98754000D01*
X171155797Y-98755563D01*
X171223830Y-98771817D01*
X171257718Y-98802545D01*
X171251677Y-98843796D01*
X171250207Y-98846567D01*
X171245482Y-98891038D01*
X171256544Y-98951634D01*
X171264852Y-99030534D01*
X171243474Y-99130234D01*
X171195010Y-99221494D01*
X171126207Y-99286959D01*
X171119837Y-99290706D01*
X171033521Y-99321360D01*
X170915273Y-99331100D01*
X170826995Y-99324974D01*
X170709564Y-99288873D01*
X170625245Y-99220696D01*
X170574393Y-99120782D01*
X170557364Y-98989470D01*
X170557396Y-98984956D01*
X170570828Y-98892595D01*
X170604000Y-98807726D01*
X170650162Y-98743244D01*
X170702564Y-98712044D01*
X170726956Y-98711903D01*
X170752923Y-98735596D01*
G36*
X170752923Y-98735596D02*
G01*
X170751563Y-98781111D01*
X170721210Y-98837253D01*
X170687507Y-98898952D01*
X170670905Y-98992504D01*
X170685047Y-99084913D01*
X170729496Y-99159140D01*
X170767183Y-99187663D01*
X170856664Y-99218150D01*
X170958890Y-99218977D01*
X171058068Y-99188720D01*
X171076667Y-99177371D01*
X171123644Y-99121884D01*
X171147663Y-99049466D01*
X171148003Y-98973918D01*
X171123946Y-98909042D01*
X171074770Y-98868641D01*
X171040033Y-98846651D01*
X171019182Y-98800753D01*
X171019193Y-98798939D01*
X171026765Y-98770301D01*
X171056486Y-98757157D01*
X171120264Y-98754000D01*
X171155797Y-98755563D01*
X171223830Y-98771817D01*
X171257718Y-98802545D01*
X171251677Y-98843796D01*
X171250207Y-98846567D01*
X171245482Y-98891038D01*
X171256544Y-98951634D01*
X171264852Y-99030534D01*
X171243474Y-99130234D01*
X171195010Y-99221494D01*
X171126207Y-99286959D01*
X171119837Y-99290706D01*
X171033521Y-99321360D01*
X170915273Y-99331100D01*
X170826995Y-99324974D01*
X170709564Y-99288873D01*
X170625245Y-99220696D01*
X170574393Y-99120782D01*
X170557364Y-98989470D01*
X170557396Y-98984956D01*
X170570828Y-98892595D01*
X170604000Y-98807726D01*
X170650162Y-98743244D01*
X170702564Y-98712044D01*
X170726956Y-98711903D01*
X170752923Y-98735596D01*
G37*
X170880531Y-95927567D02*
X170882663Y-95929912D01*
X170890379Y-95968455D01*
X170869621Y-96035988D01*
X170850895Y-96088893D01*
X170835910Y-96171901D01*
X170842626Y-96235611D01*
X170870979Y-96269257D01*
X170887720Y-96273563D01*
X170946577Y-96280525D01*
X171021070Y-96283273D01*
X171134636Y-96283273D01*
X171134636Y-96181252D01*
X171135485Y-96136353D01*
X171145170Y-96059537D01*
X171167880Y-96018396D01*
X171206380Y-96006182D01*
X171226807Y-96009633D01*
X171241726Y-96028756D01*
X171248495Y-96073776D01*
X171250091Y-96154810D01*
X171250091Y-96303438D01*
X171325136Y-96310673D01*
X171344584Y-96313075D01*
X171388103Y-96329478D01*
X171400182Y-96364091D01*
X171397094Y-96385207D01*
X171372515Y-96407263D01*
X171313591Y-96417439D01*
X171274121Y-96422384D01*
X171236839Y-96438639D01*
X171227000Y-96471000D01*
X171226758Y-96476443D01*
X171208477Y-96507225D01*
X171172873Y-96511861D01*
X171136535Y-96493001D01*
X171116054Y-96453291D01*
X171108820Y-96429101D01*
X171086706Y-96411531D01*
X171039679Y-96401237D01*
X170957105Y-96394273D01*
X170951731Y-96393917D01*
X170841363Y-96376806D01*
X170769505Y-96340706D01*
X170731016Y-96281263D01*
X170720757Y-96194124D01*
X170722792Y-96158943D01*
X170739343Y-96069899D01*
X170768239Y-95994154D01*
X170804633Y-95939793D01*
X170843679Y-95914902D01*
X170880531Y-95927567D01*
G36*
X170880531Y-95927567D02*
G01*
X170882663Y-95929912D01*
X170890379Y-95968455D01*
X170869621Y-96035988D01*
X170850895Y-96088893D01*
X170835910Y-96171901D01*
X170842626Y-96235611D01*
X170870979Y-96269257D01*
X170887720Y-96273563D01*
X170946577Y-96280525D01*
X171021070Y-96283273D01*
X171134636Y-96283273D01*
X171134636Y-96181252D01*
X171135485Y-96136353D01*
X171145170Y-96059537D01*
X171167880Y-96018396D01*
X171206380Y-96006182D01*
X171226807Y-96009633D01*
X171241726Y-96028756D01*
X171248495Y-96073776D01*
X171250091Y-96154810D01*
X171250091Y-96303438D01*
X171325136Y-96310673D01*
X171344584Y-96313075D01*
X171388103Y-96329478D01*
X171400182Y-96364091D01*
X171397094Y-96385207D01*
X171372515Y-96407263D01*
X171313591Y-96417439D01*
X171274121Y-96422384D01*
X171236839Y-96438639D01*
X171227000Y-96471000D01*
X171226758Y-96476443D01*
X171208477Y-96507225D01*
X171172873Y-96511861D01*
X171136535Y-96493001D01*
X171116054Y-96453291D01*
X171108820Y-96429101D01*
X171086706Y-96411531D01*
X171039679Y-96401237D01*
X170957105Y-96394273D01*
X170951731Y-96393917D01*
X170841363Y-96376806D01*
X170769505Y-96340706D01*
X170731016Y-96281263D01*
X170720757Y-96194124D01*
X170722792Y-96158943D01*
X170739343Y-96069899D01*
X170768239Y-95994154D01*
X170804633Y-95939793D01*
X170843679Y-95914902D01*
X170880531Y-95927567D01*
G37*
X171296489Y-95579194D02*
X171279898Y-95680286D01*
X171235507Y-95768315D01*
X171163210Y-95831490D01*
X171096214Y-95858424D01*
X170995416Y-95865330D01*
X170904770Y-95834259D01*
X170831597Y-95770176D01*
X170783219Y-95678045D01*
X170766956Y-95562828D01*
X170774441Y-95464886D01*
X170797429Y-95366771D01*
X170833017Y-95299735D01*
X170878425Y-95271058D01*
X170913358Y-95269901D01*
X170924754Y-95288843D01*
X170917768Y-95340330D01*
X170907028Y-95398841D01*
X170889139Y-95529313D01*
X170887495Y-95621659D01*
X170901925Y-95679542D01*
X170923255Y-95711088D01*
X170947747Y-95729091D01*
X170954084Y-95719034D01*
X170964480Y-95671925D01*
X170974762Y-95595056D01*
X170976075Y-95580363D01*
X171088454Y-95580363D01*
X171089297Y-95624836D01*
X171097634Y-95697500D01*
X171114395Y-95725962D01*
X171138974Y-95709720D01*
X171170761Y-95648273D01*
X171189080Y-95596876D01*
X171190956Y-95546934D01*
X171170066Y-95484974D01*
X171154416Y-95451777D01*
X171127234Y-95419257D01*
X171106435Y-95430718D01*
X171093136Y-95484855D01*
X171088454Y-95580363D01*
X170976075Y-95580363D01*
X170983421Y-95498182D01*
X170989255Y-95423892D01*
X171000887Y-95334326D01*
X171018972Y-95282592D01*
X171048164Y-95263481D01*
X171093116Y-95271786D01*
X171158483Y-95302300D01*
X171180515Y-95315445D01*
X171246693Y-95384983D01*
X171285386Y-95476829D01*
X171292990Y-95546934D01*
X171296489Y-95579194D01*
G36*
X171296489Y-95579194D02*
G01*
X171279898Y-95680286D01*
X171235507Y-95768315D01*
X171163210Y-95831490D01*
X171096214Y-95858424D01*
X170995416Y-95865330D01*
X170904770Y-95834259D01*
X170831597Y-95770176D01*
X170783219Y-95678045D01*
X170766956Y-95562828D01*
X170774441Y-95464886D01*
X170797429Y-95366771D01*
X170833017Y-95299735D01*
X170878425Y-95271058D01*
X170913358Y-95269901D01*
X170924754Y-95288843D01*
X170917768Y-95340330D01*
X170907028Y-95398841D01*
X170889139Y-95529313D01*
X170887495Y-95621659D01*
X170901925Y-95679542D01*
X170923255Y-95711088D01*
X170947747Y-95729091D01*
X170954084Y-95719034D01*
X170964480Y-95671925D01*
X170974762Y-95595056D01*
X170976075Y-95580363D01*
X171088454Y-95580363D01*
X171089297Y-95624836D01*
X171097634Y-95697500D01*
X171114395Y-95725962D01*
X171138974Y-95709720D01*
X171170761Y-95648273D01*
X171189080Y-95596876D01*
X171190956Y-95546934D01*
X171170066Y-95484974D01*
X171154416Y-95451777D01*
X171127234Y-95419257D01*
X171106435Y-95430718D01*
X171093136Y-95484855D01*
X171088454Y-95580363D01*
X170976075Y-95580363D01*
X170983421Y-95498182D01*
X170989255Y-95423892D01*
X171000887Y-95334326D01*
X171018972Y-95282592D01*
X171048164Y-95263481D01*
X171093116Y-95271786D01*
X171158483Y-95302300D01*
X171180515Y-95315445D01*
X171246693Y-95384983D01*
X171285386Y-95476829D01*
X171292990Y-95546934D01*
X171296489Y-95579194D01*
G37*
X171069198Y-98044538D02*
X171113422Y-98082279D01*
X171134448Y-98143828D01*
X171129464Y-98217441D01*
X171095660Y-98291370D01*
X171094274Y-98293362D01*
X171072137Y-98336661D01*
X171084115Y-98356160D01*
X171096630Y-98373340D01*
X171107561Y-98422388D01*
X171111789Y-98484856D01*
X171108317Y-98542474D01*
X171096151Y-98576970D01*
X171082330Y-98584825D01*
X171038424Y-98592364D01*
X171007723Y-98580762D01*
X170996091Y-98534636D01*
X170994873Y-98512512D01*
X170977869Y-98483782D01*
X170929704Y-98476909D01*
X170870476Y-98473635D01*
X170794489Y-98463143D01*
X170753082Y-98457731D01*
X170725997Y-98472097D01*
X170711362Y-98520871D01*
X170710496Y-98525056D01*
X170688824Y-98576925D01*
X170650304Y-98592364D01*
X170648578Y-98592355D01*
X170624358Y-98587408D01*
X170610822Y-98566490D01*
X170604970Y-98519541D01*
X170603800Y-98436500D01*
X170604121Y-98393304D01*
X170609735Y-98263154D01*
X170622871Y-98174392D01*
X170644260Y-98123623D01*
X170674633Y-98107455D01*
X170679877Y-98107648D01*
X170703344Y-98119198D01*
X170716506Y-98156073D01*
X170723566Y-98228682D01*
X170730545Y-98349909D01*
X170814995Y-98356948D01*
X170872946Y-98356223D01*
X170915367Y-98335139D01*
X170960694Y-98283685D01*
X170992029Y-98237988D01*
X171010989Y-98183882D01*
X171006447Y-98120783D01*
X170999536Y-98071700D01*
X171006867Y-98044453D01*
X171035085Y-98038182D01*
X171069198Y-98044538D01*
G36*
X171069198Y-98044538D02*
G01*
X171113422Y-98082279D01*
X171134448Y-98143828D01*
X171129464Y-98217441D01*
X171095660Y-98291370D01*
X171094274Y-98293362D01*
X171072137Y-98336661D01*
X171084115Y-98356160D01*
X171096630Y-98373340D01*
X171107561Y-98422388D01*
X171111789Y-98484856D01*
X171108317Y-98542474D01*
X171096151Y-98576970D01*
X171082330Y-98584825D01*
X171038424Y-98592364D01*
X171007723Y-98580762D01*
X170996091Y-98534636D01*
X170994873Y-98512512D01*
X170977869Y-98483782D01*
X170929704Y-98476909D01*
X170870476Y-98473635D01*
X170794489Y-98463143D01*
X170753082Y-98457731D01*
X170725997Y-98472097D01*
X170711362Y-98520871D01*
X170710496Y-98525056D01*
X170688824Y-98576925D01*
X170650304Y-98592364D01*
X170648578Y-98592355D01*
X170624358Y-98587408D01*
X170610822Y-98566490D01*
X170604970Y-98519541D01*
X170603800Y-98436500D01*
X170604121Y-98393304D01*
X170609735Y-98263154D01*
X170622871Y-98174392D01*
X170644260Y-98123623D01*
X170674633Y-98107455D01*
X170679877Y-98107648D01*
X170703344Y-98119198D01*
X170716506Y-98156073D01*
X170723566Y-98228682D01*
X170730545Y-98349909D01*
X170814995Y-98356948D01*
X170872946Y-98356223D01*
X170915367Y-98335139D01*
X170960694Y-98283685D01*
X170992029Y-98237988D01*
X171010989Y-98183882D01*
X171006447Y-98120783D01*
X170999536Y-98071700D01*
X171006867Y-98044453D01*
X171035085Y-98038182D01*
X171069198Y-98044538D01*
G37*
X168938985Y-92168571D02*
X168946103Y-92178288D01*
X168955970Y-92230340D01*
X168962029Y-92324996D01*
X168964091Y-92460051D01*
X168964091Y-92743162D01*
X168449282Y-92758978D01*
X168384067Y-92761038D01*
X168235716Y-92766146D01*
X168103373Y-92771278D01*
X167994576Y-92776107D01*
X167916866Y-92780310D01*
X167877782Y-92783563D01*
X167870538Y-92784510D01*
X167816913Y-92789174D01*
X167730135Y-92794972D01*
X167620510Y-92801258D01*
X167498342Y-92807384D01*
X167457678Y-92809331D01*
X167345979Y-92815243D01*
X167254957Y-92820888D01*
X167193100Y-92825705D01*
X167168896Y-92829134D01*
X167149479Y-92832974D01*
X167102378Y-92833506D01*
X167042556Y-92831182D01*
X167042577Y-92561662D01*
X167043541Y-92460349D01*
X167046405Y-92367614D01*
X167050711Y-92300972D01*
X167055994Y-92270465D01*
X167057101Y-92269322D01*
X167089429Y-92260918D01*
X167157545Y-92253489D01*
X167252270Y-92247805D01*
X167364423Y-92244633D01*
X167369654Y-92244558D01*
X167488189Y-92242292D01*
X167595261Y-92239245D01*
X167679298Y-92235809D01*
X167728727Y-92232371D01*
X167750165Y-92230421D01*
X167818573Y-92225846D01*
X167917874Y-92220261D01*
X168038349Y-92214197D01*
X168170281Y-92208188D01*
X168227229Y-92205642D01*
X168373585Y-92198413D01*
X168515034Y-92190562D01*
X168637828Y-92182881D01*
X168728220Y-92176157D01*
X168751847Y-92174210D01*
X168838747Y-92168556D01*
X168905414Y-92166521D01*
X168938985Y-92168571D01*
G36*
X168938985Y-92168571D02*
G01*
X168946103Y-92178288D01*
X168955970Y-92230340D01*
X168962029Y-92324996D01*
X168964091Y-92460051D01*
X168964091Y-92743162D01*
X168449282Y-92758978D01*
X168384067Y-92761038D01*
X168235716Y-92766146D01*
X168103373Y-92771278D01*
X167994576Y-92776107D01*
X167916866Y-92780310D01*
X167877782Y-92783563D01*
X167870538Y-92784510D01*
X167816913Y-92789174D01*
X167730135Y-92794972D01*
X167620510Y-92801258D01*
X167498342Y-92807384D01*
X167457678Y-92809331D01*
X167345979Y-92815243D01*
X167254957Y-92820888D01*
X167193100Y-92825705D01*
X167168896Y-92829134D01*
X167149479Y-92832974D01*
X167102378Y-92833506D01*
X167042556Y-92831182D01*
X167042577Y-92561662D01*
X167043541Y-92460349D01*
X167046405Y-92367614D01*
X167050711Y-92300972D01*
X167055994Y-92270465D01*
X167057101Y-92269322D01*
X167089429Y-92260918D01*
X167157545Y-92253489D01*
X167252270Y-92247805D01*
X167364423Y-92244633D01*
X167369654Y-92244558D01*
X167488189Y-92242292D01*
X167595261Y-92239245D01*
X167679298Y-92235809D01*
X167728727Y-92232371D01*
X167750165Y-92230421D01*
X167818573Y-92225846D01*
X167917874Y-92220261D01*
X168038349Y-92214197D01*
X168170281Y-92208188D01*
X168227229Y-92205642D01*
X168373585Y-92198413D01*
X168515034Y-92190562D01*
X168637828Y-92182881D01*
X168728220Y-92176157D01*
X168751847Y-92174210D01*
X168838747Y-92168556D01*
X168905414Y-92166521D01*
X168938985Y-92168571D01*
G37*
X168245849Y-83697201D02*
X168335273Y-83699777D01*
X168415688Y-83703354D01*
X168474703Y-83707498D01*
X168499927Y-83711776D01*
X168500960Y-83712999D01*
X168508768Y-83748611D01*
X168509253Y-83811744D01*
X168503615Y-83885940D01*
X168493057Y-83954739D01*
X168478778Y-84001682D01*
X168476977Y-84005084D01*
X168439625Y-84061501D01*
X168391222Y-84120136D01*
X168331996Y-84183636D01*
X168479182Y-84183636D01*
X168479201Y-84454955D01*
X168479221Y-84726273D01*
X168242520Y-84726273D01*
X168145640Y-84727231D01*
X168024699Y-84729959D01*
X167888975Y-84734115D01*
X167746087Y-84739359D01*
X167603652Y-84745349D01*
X167469289Y-84751744D01*
X167350617Y-84758203D01*
X167255253Y-84764384D01*
X167190816Y-84769946D01*
X167164924Y-84774548D01*
X167147249Y-84780413D01*
X167101424Y-84784000D01*
X167059913Y-84773203D01*
X167046072Y-84732045D01*
X167045501Y-84708620D01*
X167044084Y-84641507D01*
X167042266Y-84548881D01*
X167040300Y-84443433D01*
X167036000Y-84206775D01*
X167329272Y-84206751D01*
X167483345Y-84204777D01*
X167626964Y-84196558D01*
X167738415Y-84180398D01*
X167825107Y-84154648D01*
X167894453Y-84117658D01*
X167953864Y-84067780D01*
X167999471Y-84019255D01*
X168026908Y-83974931D01*
X168038235Y-83921316D01*
X168040454Y-83839989D01*
X168040960Y-83793027D01*
X168045807Y-83733772D01*
X168058156Y-83705163D01*
X168080864Y-83697096D01*
X168089535Y-83696789D01*
X168159806Y-83696060D01*
X168245849Y-83697201D01*
G36*
X168245849Y-83697201D02*
G01*
X168335273Y-83699777D01*
X168415688Y-83703354D01*
X168474703Y-83707498D01*
X168499927Y-83711776D01*
X168500960Y-83712999D01*
X168508768Y-83748611D01*
X168509253Y-83811744D01*
X168503615Y-83885940D01*
X168493057Y-83954739D01*
X168478778Y-84001682D01*
X168476977Y-84005084D01*
X168439625Y-84061501D01*
X168391222Y-84120136D01*
X168331996Y-84183636D01*
X168479182Y-84183636D01*
X168479201Y-84454955D01*
X168479221Y-84726273D01*
X168242520Y-84726273D01*
X168145640Y-84727231D01*
X168024699Y-84729959D01*
X167888975Y-84734115D01*
X167746087Y-84739359D01*
X167603652Y-84745349D01*
X167469289Y-84751744D01*
X167350617Y-84758203D01*
X167255253Y-84764384D01*
X167190816Y-84769946D01*
X167164924Y-84774548D01*
X167147249Y-84780413D01*
X167101424Y-84784000D01*
X167059913Y-84773203D01*
X167046072Y-84732045D01*
X167045501Y-84708620D01*
X167044084Y-84641507D01*
X167042266Y-84548881D01*
X167040300Y-84443433D01*
X167036000Y-84206775D01*
X167329272Y-84206751D01*
X167483345Y-84204777D01*
X167626964Y-84196558D01*
X167738415Y-84180398D01*
X167825107Y-84154648D01*
X167894453Y-84117658D01*
X167953864Y-84067780D01*
X167999471Y-84019255D01*
X168026908Y-83974931D01*
X168038235Y-83921316D01*
X168040454Y-83839989D01*
X168040960Y-83793027D01*
X168045807Y-83733772D01*
X168058156Y-83705163D01*
X168080864Y-83697096D01*
X168089535Y-83696789D01*
X168159806Y-83696060D01*
X168245849Y-83697201D01*
G37*
X170996091Y-97594559D02*
X170987226Y-97679708D01*
X170953129Y-97786126D01*
X170900254Y-97868697D01*
X170861968Y-97900364D01*
X170792817Y-97922294D01*
X170726872Y-97908060D01*
X170672955Y-97863185D01*
X170639894Y-97793193D01*
X170638050Y-97744325D01*
X170746567Y-97744325D01*
X170750512Y-97764050D01*
X170771467Y-97801214D01*
X170800355Y-97801673D01*
X170831206Y-97770554D01*
X170858054Y-97712980D01*
X170874932Y-97634078D01*
X170875227Y-97631442D01*
X170879401Y-97567726D01*
X170871240Y-97537703D01*
X170847825Y-97530182D01*
X170837530Y-97532434D01*
X170803338Y-97563900D01*
X170771816Y-97620201D01*
X170750410Y-97685592D01*
X170746567Y-97744325D01*
X170638050Y-97744325D01*
X170636513Y-97703609D01*
X170643149Y-97654520D01*
X170654148Y-97562058D01*
X170664192Y-97466682D01*
X170670535Y-97409436D01*
X170681553Y-97354340D01*
X170697935Y-97328677D01*
X170723852Y-97322364D01*
X170751829Y-97329986D01*
X170781582Y-97368545D01*
X170792764Y-97392578D01*
X170825865Y-97410109D01*
X170891429Y-97414727D01*
X170917868Y-97415192D01*
X171037938Y-97433765D01*
X171121301Y-97479961D01*
X171168455Y-97554488D01*
X171179896Y-97658055D01*
X171156123Y-97791367D01*
X171140957Y-97837043D01*
X171117160Y-97868399D01*
X171081206Y-97872174D01*
X171047064Y-97858742D01*
X171036595Y-97818807D01*
X171038549Y-97803629D01*
X171046705Y-97741561D01*
X171056710Y-97666498D01*
X171062453Y-97604246D01*
X171056042Y-97564496D01*
X171033524Y-97545996D01*
X171025118Y-97543265D01*
X171002293Y-97550507D01*
X170999868Y-97567726D01*
X170996091Y-97594559D01*
G36*
X170996091Y-97594559D02*
G01*
X170987226Y-97679708D01*
X170953129Y-97786126D01*
X170900254Y-97868697D01*
X170861968Y-97900364D01*
X170792817Y-97922294D01*
X170726872Y-97908060D01*
X170672955Y-97863185D01*
X170639894Y-97793193D01*
X170638050Y-97744325D01*
X170746567Y-97744325D01*
X170750512Y-97764050D01*
X170771467Y-97801214D01*
X170800355Y-97801673D01*
X170831206Y-97770554D01*
X170858054Y-97712980D01*
X170874932Y-97634078D01*
X170875227Y-97631442D01*
X170879401Y-97567726D01*
X170871240Y-97537703D01*
X170847825Y-97530182D01*
X170837530Y-97532434D01*
X170803338Y-97563900D01*
X170771816Y-97620201D01*
X170750410Y-97685592D01*
X170746567Y-97744325D01*
X170638050Y-97744325D01*
X170636513Y-97703609D01*
X170643149Y-97654520D01*
X170654148Y-97562058D01*
X170664192Y-97466682D01*
X170670535Y-97409436D01*
X170681553Y-97354340D01*
X170697935Y-97328677D01*
X170723852Y-97322364D01*
X170751829Y-97329986D01*
X170781582Y-97368545D01*
X170792764Y-97392578D01*
X170825865Y-97410109D01*
X170891429Y-97414727D01*
X170917868Y-97415192D01*
X171037938Y-97433765D01*
X171121301Y-97479961D01*
X171168455Y-97554488D01*
X171179896Y-97658055D01*
X171156123Y-97791367D01*
X171140957Y-97837043D01*
X171117160Y-97868399D01*
X171081206Y-97872174D01*
X171047064Y-97858742D01*
X171036595Y-97818807D01*
X171038549Y-97803629D01*
X171046705Y-97741561D01*
X171056710Y-97666498D01*
X171062453Y-97604246D01*
X171056042Y-97564496D01*
X171033524Y-97545996D01*
X171025118Y-97543265D01*
X171002293Y-97550507D01*
X170999868Y-97567726D01*
X170996091Y-97594559D01*
G37*
X171405516Y-96689609D02*
X171420022Y-96720000D01*
X171430985Y-96794242D01*
X171426497Y-96881596D01*
X171408120Y-96963609D01*
X171377415Y-97021824D01*
X171335221Y-97051780D01*
X171271438Y-97068364D01*
X171247105Y-97069714D01*
X171211129Y-97088100D01*
X171192081Y-97138922D01*
X171176883Y-97178398D01*
X171144654Y-97202838D01*
X171112314Y-97188112D01*
X171092993Y-97134769D01*
X171087842Y-97107618D01*
X171070451Y-97084172D01*
X171030422Y-97070787D01*
X170956018Y-97061156D01*
X170933114Y-97058868D01*
X170855482Y-97054247D01*
X170811804Y-97061633D01*
X170792571Y-97084782D01*
X170788273Y-97127454D01*
X170778612Y-97169926D01*
X170742091Y-97183818D01*
X170724307Y-97181940D01*
X170708913Y-97169289D01*
X170700369Y-97136948D01*
X170696694Y-97076091D01*
X170695909Y-96977889D01*
X170697517Y-96858949D01*
X170703572Y-96778238D01*
X170715877Y-96729414D01*
X170736234Y-96705347D01*
X170766446Y-96698909D01*
X170772495Y-96699155D01*
X170795885Y-96710844D01*
X170808933Y-96747669D01*
X170815930Y-96820136D01*
X170822909Y-96941364D01*
X170952259Y-96948187D01*
X171081610Y-96955009D01*
X171102350Y-96832732D01*
X171110447Y-96791394D01*
X171131529Y-96730163D01*
X171157727Y-96710455D01*
X171178200Y-96721725D01*
X171191775Y-96763364D01*
X171199289Y-96843227D01*
X171205010Y-96910083D01*
X171217967Y-96960548D01*
X171238885Y-96976000D01*
X171247301Y-96975215D01*
X171285504Y-96946055D01*
X171310441Y-96879652D01*
X171319364Y-96782608D01*
X171323291Y-96723595D01*
X171340628Y-96671794D01*
X171369044Y-96659379D01*
X171405516Y-96689609D01*
G36*
X171405516Y-96689609D02*
G01*
X171420022Y-96720000D01*
X171430985Y-96794242D01*
X171426497Y-96881596D01*
X171408120Y-96963609D01*
X171377415Y-97021824D01*
X171335221Y-97051780D01*
X171271438Y-97068364D01*
X171247105Y-97069714D01*
X171211129Y-97088100D01*
X171192081Y-97138922D01*
X171176883Y-97178398D01*
X171144654Y-97202838D01*
X171112314Y-97188112D01*
X171092993Y-97134769D01*
X171087842Y-97107618D01*
X171070451Y-97084172D01*
X171030422Y-97070787D01*
X170956018Y-97061156D01*
X170933114Y-97058868D01*
X170855482Y-97054247D01*
X170811804Y-97061633D01*
X170792571Y-97084782D01*
X170788273Y-97127454D01*
X170778612Y-97169926D01*
X170742091Y-97183818D01*
X170724307Y-97181940D01*
X170708913Y-97169289D01*
X170700369Y-97136948D01*
X170696694Y-97076091D01*
X170695909Y-96977889D01*
X170697517Y-96858949D01*
X170703572Y-96778238D01*
X170715877Y-96729414D01*
X170736234Y-96705347D01*
X170766446Y-96698909D01*
X170772495Y-96699155D01*
X170795885Y-96710844D01*
X170808933Y-96747669D01*
X170815930Y-96820136D01*
X170822909Y-96941364D01*
X170952259Y-96948187D01*
X171081610Y-96955009D01*
X171102350Y-96832732D01*
X171110447Y-96791394D01*
X171131529Y-96730163D01*
X171157727Y-96710455D01*
X171178200Y-96721725D01*
X171191775Y-96763364D01*
X171199289Y-96843227D01*
X171205010Y-96910083D01*
X171217967Y-96960548D01*
X171238885Y-96976000D01*
X171247301Y-96975215D01*
X171285504Y-96946055D01*
X171310441Y-96879652D01*
X171319364Y-96782608D01*
X171323291Y-96723595D01*
X171340628Y-96671794D01*
X171369044Y-96659379D01*
X171405516Y-96689609D01*
G37*
X171421297Y-93504618D02*
X171398045Y-93598955D01*
X171392809Y-93622271D01*
X171399717Y-93641574D01*
X171432538Y-93649424D01*
X171501398Y-93650909D01*
X171619545Y-93650909D01*
X171619545Y-93739424D01*
X171619328Y-93754466D01*
X171614122Y-93812151D01*
X171604151Y-93843333D01*
X171602864Y-93844579D01*
X171562399Y-93860231D01*
X171522270Y-93848608D01*
X171504091Y-93815684D01*
X171503386Y-93809106D01*
X171476070Y-93779833D01*
X171407938Y-93759312D01*
X171297423Y-93747230D01*
X171142959Y-93743273D01*
X171132761Y-93743297D01*
X171051896Y-93746660D01*
X171008808Y-93756833D01*
X170996091Y-93775439D01*
X170981387Y-93808398D01*
X170944294Y-93822477D01*
X170907379Y-93805400D01*
X170894903Y-93768225D01*
X170888248Y-93696267D01*
X170887807Y-93603445D01*
X170892913Y-93502506D01*
X170899823Y-93435882D01*
X171001007Y-93435882D01*
X171006382Y-93516357D01*
X171042273Y-93581636D01*
X171086635Y-93611723D01*
X171147231Y-93627818D01*
X171185312Y-93620698D01*
X171249676Y-93581375D01*
X171299414Y-93520935D01*
X171319364Y-93454636D01*
X171308376Y-93402608D01*
X171266337Y-93342252D01*
X171204785Y-93299438D01*
X171136583Y-93282339D01*
X171074593Y-93299126D01*
X171073754Y-93299691D01*
X171024135Y-93357797D01*
X171001007Y-93435882D01*
X170899823Y-93435882D01*
X170902902Y-93406200D01*
X170917109Y-93327275D01*
X170934869Y-93278483D01*
X170993578Y-93216321D01*
X171079243Y-93176760D01*
X171173528Y-93171191D01*
X171265986Y-93198156D01*
X171346167Y-93256197D01*
X171403624Y-93343858D01*
X171415691Y-93376019D01*
X171427056Y-93435947D01*
X171425488Y-93454636D01*
X171421297Y-93504618D01*
G36*
X171421297Y-93504618D02*
G01*
X171398045Y-93598955D01*
X171392809Y-93622271D01*
X171399717Y-93641574D01*
X171432538Y-93649424D01*
X171501398Y-93650909D01*
X171619545Y-93650909D01*
X171619545Y-93739424D01*
X171619328Y-93754466D01*
X171614122Y-93812151D01*
X171604151Y-93843333D01*
X171602864Y-93844579D01*
X171562399Y-93860231D01*
X171522270Y-93848608D01*
X171504091Y-93815684D01*
X171503386Y-93809106D01*
X171476070Y-93779833D01*
X171407938Y-93759312D01*
X171297423Y-93747230D01*
X171142959Y-93743273D01*
X171132761Y-93743297D01*
X171051896Y-93746660D01*
X171008808Y-93756833D01*
X170996091Y-93775439D01*
X170981387Y-93808398D01*
X170944294Y-93822477D01*
X170907379Y-93805400D01*
X170894903Y-93768225D01*
X170888248Y-93696267D01*
X170887807Y-93603445D01*
X170892913Y-93502506D01*
X170899823Y-93435882D01*
X171001007Y-93435882D01*
X171006382Y-93516357D01*
X171042273Y-93581636D01*
X171086635Y-93611723D01*
X171147231Y-93627818D01*
X171185312Y-93620698D01*
X171249676Y-93581375D01*
X171299414Y-93520935D01*
X171319364Y-93454636D01*
X171308376Y-93402608D01*
X171266337Y-93342252D01*
X171204785Y-93299438D01*
X171136583Y-93282339D01*
X171074593Y-93299126D01*
X171073754Y-93299691D01*
X171024135Y-93357797D01*
X171001007Y-93435882D01*
X170899823Y-93435882D01*
X170902902Y-93406200D01*
X170917109Y-93327275D01*
X170934869Y-93278483D01*
X170993578Y-93216321D01*
X171079243Y-93176760D01*
X171173528Y-93171191D01*
X171265986Y-93198156D01*
X171346167Y-93256197D01*
X171403624Y-93343858D01*
X171415691Y-93376019D01*
X171427056Y-93435947D01*
X171425488Y-93454636D01*
X171421297Y-93504618D01*
G37*
X171334205Y-94954371D02*
X171295957Y-95053286D01*
X171218703Y-95127669D01*
X171181080Y-95148735D01*
X171077833Y-95175818D01*
X170978726Y-95157524D01*
X170887726Y-95094253D01*
X170843614Y-95047340D01*
X170820252Y-95007143D01*
X170814090Y-94957683D01*
X170819266Y-94880663D01*
X170820276Y-94869202D01*
X170921057Y-94869202D01*
X170925132Y-94945316D01*
X170960487Y-95012204D01*
X170969318Y-95021181D01*
X171032484Y-95054360D01*
X171100936Y-95051422D01*
X171163572Y-95017846D01*
X171209293Y-94959109D01*
X171227000Y-94880688D01*
X171223006Y-94850812D01*
X171188608Y-94784412D01*
X171130983Y-94733449D01*
X171064808Y-94713091D01*
X171051758Y-94713817D01*
X170988845Y-94740621D01*
X170943786Y-94796693D01*
X170921057Y-94869202D01*
X170820276Y-94869202D01*
X170823554Y-94831998D01*
X170832117Y-94725640D01*
X170838730Y-94632273D01*
X170840371Y-94608890D01*
X170848967Y-94549333D01*
X170866187Y-94520278D01*
X170897954Y-94509439D01*
X170937633Y-94513105D01*
X170949909Y-94546460D01*
X170949974Y-94549861D01*
X170957203Y-94571890D01*
X170982895Y-94586489D01*
X171036277Y-94596757D01*
X171126575Y-94605794D01*
X171229618Y-94613154D01*
X171338433Y-94618633D01*
X171425394Y-94620727D01*
X171472702Y-94622043D01*
X171530604Y-94628326D01*
X171557236Y-94638045D01*
X171558612Y-94641796D01*
X171560791Y-94681276D01*
X171556073Y-94741955D01*
X171552636Y-94764766D01*
X171535081Y-94814009D01*
X171504258Y-94828545D01*
X171478261Y-94819937D01*
X171451218Y-94782364D01*
X171433133Y-94751864D01*
X171379694Y-94736182D01*
X171357283Y-94736787D01*
X171333282Y-94745981D01*
X171327459Y-94776101D01*
X171334406Y-94839479D01*
X171334333Y-94880688D01*
X171334205Y-94954371D01*
G36*
X171334205Y-94954371D02*
G01*
X171295957Y-95053286D01*
X171218703Y-95127669D01*
X171181080Y-95148735D01*
X171077833Y-95175818D01*
X170978726Y-95157524D01*
X170887726Y-95094253D01*
X170843614Y-95047340D01*
X170820252Y-95007143D01*
X170814090Y-94957683D01*
X170819266Y-94880663D01*
X170820276Y-94869202D01*
X170921057Y-94869202D01*
X170925132Y-94945316D01*
X170960487Y-95012204D01*
X170969318Y-95021181D01*
X171032484Y-95054360D01*
X171100936Y-95051422D01*
X171163572Y-95017846D01*
X171209293Y-94959109D01*
X171227000Y-94880688D01*
X171223006Y-94850812D01*
X171188608Y-94784412D01*
X171130983Y-94733449D01*
X171064808Y-94713091D01*
X171051758Y-94713817D01*
X170988845Y-94740621D01*
X170943786Y-94796693D01*
X170921057Y-94869202D01*
X170820276Y-94869202D01*
X170823554Y-94831998D01*
X170832117Y-94725640D01*
X170838730Y-94632273D01*
X170840371Y-94608890D01*
X170848967Y-94549333D01*
X170866187Y-94520278D01*
X170897954Y-94509439D01*
X170937633Y-94513105D01*
X170949909Y-94546460D01*
X170949974Y-94549861D01*
X170957203Y-94571890D01*
X170982895Y-94586489D01*
X171036277Y-94596757D01*
X171126575Y-94605794D01*
X171229618Y-94613154D01*
X171338433Y-94618633D01*
X171425394Y-94620727D01*
X171472702Y-94622043D01*
X171530604Y-94628326D01*
X171557236Y-94638045D01*
X171558612Y-94641796D01*
X171560791Y-94681276D01*
X171556073Y-94741955D01*
X171552636Y-94764766D01*
X171535081Y-94814009D01*
X171504258Y-94828545D01*
X171478261Y-94819937D01*
X171451218Y-94782364D01*
X171433133Y-94751864D01*
X171379694Y-94736182D01*
X171357283Y-94736787D01*
X171333282Y-94745981D01*
X171327459Y-94776101D01*
X171334406Y-94839479D01*
X171334333Y-94880688D01*
X171334205Y-94954371D01*
G37*
X171466963Y-92509744D02*
X171469017Y-92516749D01*
X171472512Y-92569035D01*
X171466483Y-92636744D01*
X171460303Y-92668670D01*
X171440670Y-92714204D01*
X171408776Y-92727273D01*
X171384749Y-92723351D01*
X171365545Y-92704182D01*
X171364666Y-92696997D01*
X171341511Y-92682548D01*
X171285065Y-92693240D01*
X171192846Y-92729438D01*
X171142572Y-92752611D01*
X171110872Y-92774870D01*
X171113659Y-92797443D01*
X171152872Y-92827742D01*
X171230451Y-92873176D01*
X171250662Y-92884534D01*
X171306386Y-92912008D01*
X171336483Y-92916441D01*
X171350953Y-92900067D01*
X171370214Y-92876551D01*
X171410883Y-92866587D01*
X171444887Y-92886519D01*
X171448000Y-92897311D01*
X171449269Y-92945761D01*
X171443111Y-93013519D01*
X171434168Y-93064052D01*
X171416011Y-93107398D01*
X171387968Y-93119818D01*
X171365858Y-93115523D01*
X171335401Y-93088562D01*
X171327353Y-93078163D01*
X171286116Y-93044465D01*
X171219138Y-92998627D01*
X171136051Y-92947466D01*
X171058695Y-92902859D01*
X170994455Y-92869562D01*
X170950380Y-92854465D01*
X170916111Y-92854238D01*
X170881288Y-92865548D01*
X170853590Y-92879075D01*
X170819893Y-92915078D01*
X170806849Y-92977780D01*
X170802321Y-93013734D01*
X170784653Y-93054275D01*
X170747864Y-93069470D01*
X170723536Y-93071020D01*
X170705092Y-93059582D01*
X170697431Y-93023144D01*
X170695909Y-92951129D01*
X170698929Y-92843836D01*
X170711310Y-92751252D01*
X170734067Y-92698089D01*
X170768068Y-92681091D01*
X170792305Y-92687067D01*
X170811364Y-92715727D01*
X170814122Y-92731682D01*
X170835750Y-92750364D01*
X170870447Y-92741620D01*
X170935619Y-92717121D01*
X171020256Y-92681597D01*
X171113989Y-92639795D01*
X171206447Y-92596462D01*
X171287260Y-92556343D01*
X171346056Y-92524184D01*
X171372466Y-92504733D01*
X171395381Y-92481249D01*
X171436112Y-92477263D01*
X171466963Y-92509744D01*
G36*
X171466963Y-92509744D02*
G01*
X171469017Y-92516749D01*
X171472512Y-92569035D01*
X171466483Y-92636744D01*
X171460303Y-92668670D01*
X171440670Y-92714204D01*
X171408776Y-92727273D01*
X171384749Y-92723351D01*
X171365545Y-92704182D01*
X171364666Y-92696997D01*
X171341511Y-92682548D01*
X171285065Y-92693240D01*
X171192846Y-92729438D01*
X171142572Y-92752611D01*
X171110872Y-92774870D01*
X171113659Y-92797443D01*
X171152872Y-92827742D01*
X171230451Y-92873176D01*
X171250662Y-92884534D01*
X171306386Y-92912008D01*
X171336483Y-92916441D01*
X171350953Y-92900067D01*
X171370214Y-92876551D01*
X171410883Y-92866587D01*
X171444887Y-92886519D01*
X171448000Y-92897311D01*
X171449269Y-92945761D01*
X171443111Y-93013519D01*
X171434168Y-93064052D01*
X171416011Y-93107398D01*
X171387968Y-93119818D01*
X171365858Y-93115523D01*
X171335401Y-93088562D01*
X171327353Y-93078163D01*
X171286116Y-93044465D01*
X171219138Y-92998627D01*
X171136051Y-92947466D01*
X171058695Y-92902859D01*
X170994455Y-92869562D01*
X170950380Y-92854465D01*
X170916111Y-92854238D01*
X170881288Y-92865548D01*
X170853590Y-92879075D01*
X170819893Y-92915078D01*
X170806849Y-92977780D01*
X170802321Y-93013734D01*
X170784653Y-93054275D01*
X170747864Y-93069470D01*
X170723536Y-93071020D01*
X170705092Y-93059582D01*
X170697431Y-93023144D01*
X170695909Y-92951129D01*
X170698929Y-92843836D01*
X170711310Y-92751252D01*
X170734067Y-92698089D01*
X170768068Y-92681091D01*
X170792305Y-92687067D01*
X170811364Y-92715727D01*
X170814122Y-92731682D01*
X170835750Y-92750364D01*
X170870447Y-92741620D01*
X170935619Y-92717121D01*
X171020256Y-92681597D01*
X171113989Y-92639795D01*
X171206447Y-92596462D01*
X171287260Y-92556343D01*
X171346056Y-92524184D01*
X171372466Y-92504733D01*
X171395381Y-92481249D01*
X171436112Y-92477263D01*
X171466963Y-92509744D01*
G37*
X168456091Y-91231020D02*
X168652364Y-91216508D01*
X168689118Y-91214109D01*
X168770741Y-91211414D01*
X168827472Y-91213424D01*
X168848767Y-91219953D01*
X168847400Y-91233912D01*
X168837998Y-91286764D01*
X168821930Y-91364327D01*
X168801872Y-91454947D01*
X168780496Y-91546969D01*
X168760478Y-91628737D01*
X168744490Y-91688597D01*
X168735209Y-91714892D01*
X168733555Y-91716333D01*
X168698866Y-91728666D01*
X168636800Y-91741406D01*
X168563849Y-91751671D01*
X168496500Y-91756582D01*
X168494617Y-91756647D01*
X168470708Y-91766851D01*
X168459119Y-91801598D01*
X168456091Y-91871581D01*
X168456091Y-91985708D01*
X168357954Y-91992931D01*
X168346854Y-91993709D01*
X168255428Y-91998245D01*
X168169756Y-92000032D01*
X168079694Y-91999909D01*
X168077393Y-91896000D01*
X168076505Y-91866671D01*
X168070369Y-91817329D01*
X168053033Y-91797657D01*
X168017364Y-91795735D01*
X168004443Y-91796472D01*
X167945087Y-91799448D01*
X167853546Y-91803764D01*
X167739661Y-91808962D01*
X167613273Y-91814582D01*
X167486997Y-91819114D01*
X167356279Y-91819125D01*
X167258580Y-91810324D01*
X167186575Y-91790462D01*
X167132939Y-91757288D01*
X167090344Y-91708550D01*
X167051466Y-91642000D01*
X167027550Y-91591633D01*
X167012469Y-91543451D01*
X167005322Y-91486300D01*
X167004586Y-91407816D01*
X167008734Y-91295636D01*
X167012741Y-91221255D01*
X167019796Y-91126122D01*
X167027468Y-91054051D01*
X167034683Y-91016589D01*
X167061614Y-90993540D01*
X167130847Y-90969671D01*
X167243995Y-90946090D01*
X167438432Y-90912183D01*
X167425112Y-91040410D01*
X167422134Y-91071667D01*
X167420481Y-91137640D01*
X167431557Y-91178850D01*
X167458351Y-91210609D01*
X167463145Y-91214770D01*
X167489292Y-91231164D01*
X167526216Y-91241485D01*
X167582751Y-91246658D01*
X167667734Y-91247604D01*
X167790001Y-91245246D01*
X168075091Y-91237909D01*
X168078461Y-91099364D01*
X168080152Y-91036739D01*
X168082406Y-90969445D01*
X168084234Y-90931955D01*
X168084952Y-90928799D01*
X168108784Y-90914047D01*
X168169400Y-90905713D01*
X168271364Y-90903091D01*
X168456091Y-90903091D01*
X168456091Y-91231020D01*
G36*
X168456091Y-91231020D02*
G01*
X168652364Y-91216508D01*
X168689118Y-91214109D01*
X168770741Y-91211414D01*
X168827472Y-91213424D01*
X168848767Y-91219953D01*
X168847400Y-91233912D01*
X168837998Y-91286764D01*
X168821930Y-91364327D01*
X168801872Y-91454947D01*
X168780496Y-91546969D01*
X168760478Y-91628737D01*
X168744490Y-91688597D01*
X168735209Y-91714892D01*
X168733555Y-91716333D01*
X168698866Y-91728666D01*
X168636800Y-91741406D01*
X168563849Y-91751671D01*
X168496500Y-91756582D01*
X168494617Y-91756647D01*
X168470708Y-91766851D01*
X168459119Y-91801598D01*
X168456091Y-91871581D01*
X168456091Y-91985708D01*
X168357954Y-91992931D01*
X168346854Y-91993709D01*
X168255428Y-91998245D01*
X168169756Y-92000032D01*
X168079694Y-91999909D01*
X168077393Y-91896000D01*
X168076505Y-91866671D01*
X168070369Y-91817329D01*
X168053033Y-91797657D01*
X168017364Y-91795735D01*
X168004443Y-91796472D01*
X167945087Y-91799448D01*
X167853546Y-91803764D01*
X167739661Y-91808962D01*
X167613273Y-91814582D01*
X167486997Y-91819114D01*
X167356279Y-91819125D01*
X167258580Y-91810324D01*
X167186575Y-91790462D01*
X167132939Y-91757288D01*
X167090344Y-91708550D01*
X167051466Y-91642000D01*
X167027550Y-91591633D01*
X167012469Y-91543451D01*
X167005322Y-91486300D01*
X167004586Y-91407816D01*
X167008734Y-91295636D01*
X167012741Y-91221255D01*
X167019796Y-91126122D01*
X167027468Y-91054051D01*
X167034683Y-91016589D01*
X167061614Y-90993540D01*
X167130847Y-90969671D01*
X167243995Y-90946090D01*
X167438432Y-90912183D01*
X167425112Y-91040410D01*
X167422134Y-91071667D01*
X167420481Y-91137640D01*
X167431557Y-91178850D01*
X167458351Y-91210609D01*
X167463145Y-91214770D01*
X167489292Y-91231164D01*
X167526216Y-91241485D01*
X167582751Y-91246658D01*
X167667734Y-91247604D01*
X167790001Y-91245246D01*
X168075091Y-91237909D01*
X168078461Y-91099364D01*
X168080152Y-91036739D01*
X168082406Y-90969445D01*
X168084234Y-90931955D01*
X168084952Y-90928799D01*
X168108784Y-90914047D01*
X168169400Y-90905713D01*
X168271364Y-90903091D01*
X168456091Y-90903091D01*
X168456091Y-91231020D01*
G37*
X168512713Y-85741870D02*
X168509370Y-85795131D01*
X168476246Y-85991984D01*
X168410974Y-86156457D01*
X168312372Y-86290273D01*
X168179255Y-86395153D01*
X168010440Y-86472820D01*
X167889147Y-86501263D01*
X167737736Y-86513708D01*
X167584111Y-86507297D01*
X167449046Y-86481702D01*
X167384659Y-86456979D01*
X167268389Y-86386855D01*
X167166484Y-86295116D01*
X167094766Y-86194582D01*
X167065259Y-86123663D01*
X167028799Y-85977700D01*
X167007661Y-85800887D01*
X167003126Y-85601513D01*
X167003442Y-85587694D01*
X167008694Y-85471709D01*
X167017780Y-85360716D01*
X167029472Y-85265011D01*
X167042541Y-85194886D01*
X167055757Y-85160637D01*
X167055914Y-85160498D01*
X167081866Y-85152791D01*
X167139507Y-85140544D01*
X167216007Y-85126018D01*
X167298536Y-85111478D01*
X167374265Y-85099186D01*
X167430364Y-85091405D01*
X167454003Y-85090397D01*
X167454323Y-85093570D01*
X167448770Y-85129093D01*
X167435044Y-85195047D01*
X167415356Y-85280555D01*
X167391815Y-85393326D01*
X167373214Y-85570858D01*
X167385548Y-85716155D01*
X167429027Y-85830726D01*
X167503861Y-85916083D01*
X167561240Y-85947150D01*
X167627932Y-85961636D01*
X167694091Y-85961636D01*
X167694091Y-85705166D01*
X167925000Y-85705166D01*
X167925017Y-85732489D01*
X167925929Y-85828932D01*
X167929498Y-85889410D01*
X167937459Y-85922273D01*
X167951545Y-85935869D01*
X167973491Y-85938545D01*
X167991436Y-85934993D01*
X168043943Y-85906923D01*
X168100491Y-85860036D01*
X168142706Y-85808907D01*
X168178955Y-85720823D01*
X168172314Y-85634554D01*
X168122322Y-85556496D01*
X168118050Y-85552315D01*
X168070157Y-85515101D01*
X168031847Y-85499818D01*
X168014318Y-85498522D01*
X167961525Y-85485802D01*
X167948139Y-85483618D01*
X167936157Y-85495802D01*
X167929133Y-85531827D01*
X167925827Y-85599135D01*
X167925000Y-85705166D01*
X167694091Y-85705166D01*
X167694091Y-84968727D01*
X167769136Y-84966055D01*
X167889419Y-84964565D01*
X168027661Y-84974538D01*
X168137971Y-85001035D01*
X168230099Y-85046711D01*
X168313796Y-85114216D01*
X168387953Y-85201111D01*
X168463966Y-85350733D01*
X168505565Y-85531024D01*
X168512000Y-85720823D01*
X168512713Y-85741870D01*
G36*
X168512713Y-85741870D02*
G01*
X168509370Y-85795131D01*
X168476246Y-85991984D01*
X168410974Y-86156457D01*
X168312372Y-86290273D01*
X168179255Y-86395153D01*
X168010440Y-86472820D01*
X167889147Y-86501263D01*
X167737736Y-86513708D01*
X167584111Y-86507297D01*
X167449046Y-86481702D01*
X167384659Y-86456979D01*
X167268389Y-86386855D01*
X167166484Y-86295116D01*
X167094766Y-86194582D01*
X167065259Y-86123663D01*
X167028799Y-85977700D01*
X167007661Y-85800887D01*
X167003126Y-85601513D01*
X167003442Y-85587694D01*
X167008694Y-85471709D01*
X167017780Y-85360716D01*
X167029472Y-85265011D01*
X167042541Y-85194886D01*
X167055757Y-85160637D01*
X167055914Y-85160498D01*
X167081866Y-85152791D01*
X167139507Y-85140544D01*
X167216007Y-85126018D01*
X167298536Y-85111478D01*
X167374265Y-85099186D01*
X167430364Y-85091405D01*
X167454003Y-85090397D01*
X167454323Y-85093570D01*
X167448770Y-85129093D01*
X167435044Y-85195047D01*
X167415356Y-85280555D01*
X167391815Y-85393326D01*
X167373214Y-85570858D01*
X167385548Y-85716155D01*
X167429027Y-85830726D01*
X167503861Y-85916083D01*
X167561240Y-85947150D01*
X167627932Y-85961636D01*
X167694091Y-85961636D01*
X167694091Y-85705166D01*
X167925000Y-85705166D01*
X167925017Y-85732489D01*
X167925929Y-85828932D01*
X167929498Y-85889410D01*
X167937459Y-85922273D01*
X167951545Y-85935869D01*
X167973491Y-85938545D01*
X167991436Y-85934993D01*
X168043943Y-85906923D01*
X168100491Y-85860036D01*
X168142706Y-85808907D01*
X168178955Y-85720823D01*
X168172314Y-85634554D01*
X168122322Y-85556496D01*
X168118050Y-85552315D01*
X168070157Y-85515101D01*
X168031847Y-85499818D01*
X168014318Y-85498522D01*
X167961525Y-85485802D01*
X167948139Y-85483618D01*
X167936157Y-85495802D01*
X167929133Y-85531827D01*
X167925827Y-85599135D01*
X167925000Y-85705166D01*
X167694091Y-85705166D01*
X167694091Y-84968727D01*
X167769136Y-84966055D01*
X167889419Y-84964565D01*
X168027661Y-84974538D01*
X168137971Y-85001035D01*
X168230099Y-85046711D01*
X168313796Y-85114216D01*
X168387953Y-85201111D01*
X168463966Y-85350733D01*
X168505565Y-85531024D01*
X168512000Y-85720823D01*
X168512713Y-85741870D01*
G37*
X168498017Y-88548561D02*
X168490874Y-88593538D01*
X168474559Y-88644941D01*
X168719325Y-88628258D01*
X168964091Y-88611574D01*
X168964091Y-89194364D01*
X168635045Y-89196130D01*
X168593520Y-89196406D01*
X168476533Y-89197767D01*
X168377593Y-89199761D01*
X168306076Y-89202165D01*
X168271364Y-89204757D01*
X168258519Y-89206338D01*
X168203565Y-89210578D01*
X168116040Y-89215996D01*
X168004829Y-89222059D01*
X167878818Y-89228237D01*
X167836234Y-89230278D01*
X167691965Y-89238012D01*
X167551017Y-89246659D01*
X167427664Y-89255305D01*
X167336182Y-89263035D01*
X167251944Y-89271659D01*
X167157633Y-89279659D01*
X167097081Y-89276257D01*
X167062814Y-89255505D01*
X167047361Y-89211454D01*
X167043249Y-89138157D01*
X167043005Y-89029665D01*
X167042971Y-89024003D01*
X167043813Y-88899941D01*
X167048801Y-88815352D01*
X167059197Y-88763861D01*
X167076257Y-88739092D01*
X167101241Y-88734669D01*
X167130426Y-88737141D01*
X167162418Y-88729743D01*
X167158796Y-88701165D01*
X167120760Y-88645955D01*
X167061086Y-88555089D01*
X167021185Y-88445809D01*
X167428545Y-88445809D01*
X167429611Y-88479352D01*
X167445862Y-88549335D01*
X167488278Y-88606501D01*
X167521220Y-88632425D01*
X167619591Y-88671532D01*
X167759007Y-88691062D01*
X167939897Y-88691097D01*
X168006935Y-88686204D01*
X168062973Y-88671753D01*
X168093627Y-88639359D01*
X168106555Y-88579629D01*
X168109412Y-88483171D01*
X168107228Y-88434824D01*
X168077596Y-88323603D01*
X168013863Y-88243350D01*
X167916720Y-88194719D01*
X167786860Y-88178364D01*
X167726387Y-88180882D01*
X167600050Y-88207629D01*
X167506533Y-88262015D01*
X167448483Y-88342067D01*
X167428545Y-88445809D01*
X167021185Y-88445809D01*
X167015425Y-88430035D01*
X167001364Y-88282940D01*
X167005029Y-88208817D01*
X167042639Y-88045606D01*
X167118746Y-87904291D01*
X167230638Y-87787309D01*
X167375606Y-87697095D01*
X167550939Y-87636083D01*
X167753928Y-87606710D01*
X167879109Y-87604883D01*
X168040982Y-87625849D01*
X168178326Y-87677279D01*
X168299022Y-87761409D01*
X168335075Y-87795102D01*
X168415912Y-87894689D01*
X168469220Y-88008855D01*
X168498537Y-88147065D01*
X168507401Y-88318784D01*
X168506889Y-88372986D01*
X168503620Y-88470635D01*
X168502718Y-88483171D01*
X168498017Y-88548561D01*
G36*
X168498017Y-88548561D02*
G01*
X168490874Y-88593538D01*
X168474559Y-88644941D01*
X168719325Y-88628258D01*
X168964091Y-88611574D01*
X168964091Y-89194364D01*
X168635045Y-89196130D01*
X168593520Y-89196406D01*
X168476533Y-89197767D01*
X168377593Y-89199761D01*
X168306076Y-89202165D01*
X168271364Y-89204757D01*
X168258519Y-89206338D01*
X168203565Y-89210578D01*
X168116040Y-89215996D01*
X168004829Y-89222059D01*
X167878818Y-89228237D01*
X167836234Y-89230278D01*
X167691965Y-89238012D01*
X167551017Y-89246659D01*
X167427664Y-89255305D01*
X167336182Y-89263035D01*
X167251944Y-89271659D01*
X167157633Y-89279659D01*
X167097081Y-89276257D01*
X167062814Y-89255505D01*
X167047361Y-89211454D01*
X167043249Y-89138157D01*
X167043005Y-89029665D01*
X167042971Y-89024003D01*
X167043813Y-88899941D01*
X167048801Y-88815352D01*
X167059197Y-88763861D01*
X167076257Y-88739092D01*
X167101241Y-88734669D01*
X167130426Y-88737141D01*
X167162418Y-88729743D01*
X167158796Y-88701165D01*
X167120760Y-88645955D01*
X167061086Y-88555089D01*
X167021185Y-88445809D01*
X167428545Y-88445809D01*
X167429611Y-88479352D01*
X167445862Y-88549335D01*
X167488278Y-88606501D01*
X167521220Y-88632425D01*
X167619591Y-88671532D01*
X167759007Y-88691062D01*
X167939897Y-88691097D01*
X168006935Y-88686204D01*
X168062973Y-88671753D01*
X168093627Y-88639359D01*
X168106555Y-88579629D01*
X168109412Y-88483171D01*
X168107228Y-88434824D01*
X168077596Y-88323603D01*
X168013863Y-88243350D01*
X167916720Y-88194719D01*
X167786860Y-88178364D01*
X167726387Y-88180882D01*
X167600050Y-88207629D01*
X167506533Y-88262015D01*
X167448483Y-88342067D01*
X167428545Y-88445809D01*
X167021185Y-88445809D01*
X167015425Y-88430035D01*
X167001364Y-88282940D01*
X167005029Y-88208817D01*
X167042639Y-88045606D01*
X167118746Y-87904291D01*
X167230638Y-87787309D01*
X167375606Y-87697095D01*
X167550939Y-87636083D01*
X167753928Y-87606710D01*
X167879109Y-87604883D01*
X168040982Y-87625849D01*
X168178326Y-87677279D01*
X168299022Y-87761409D01*
X168335075Y-87795102D01*
X168415912Y-87894689D01*
X168469220Y-88008855D01*
X168498537Y-88147065D01*
X168507401Y-88318784D01*
X168506889Y-88372986D01*
X168503620Y-88470635D01*
X168502718Y-88483171D01*
X168498017Y-88548561D01*
G37*
X168175442Y-93104299D02*
X168232163Y-93112907D01*
X168278399Y-93127991D01*
X168369848Y-93190717D01*
X168439053Y-93292911D01*
X168485374Y-93433324D01*
X168508576Y-93610872D01*
X168508422Y-93824473D01*
X168484676Y-94073044D01*
X168476365Y-94134410D01*
X168459536Y-94245812D01*
X168442525Y-94322001D01*
X168421223Y-94370373D01*
X168391520Y-94398322D01*
X168349307Y-94413244D01*
X168290475Y-94422533D01*
X168244822Y-94428846D01*
X168168888Y-94440835D01*
X168117301Y-94450888D01*
X168067148Y-94463193D01*
X168125164Y-94282188D01*
X168155858Y-94168156D01*
X168181218Y-94040469D01*
X168195390Y-93928000D01*
X168196367Y-93913893D01*
X168200521Y-93827842D01*
X168197233Y-93773774D01*
X168184499Y-93739374D01*
X168160318Y-93712328D01*
X168152267Y-93705572D01*
X168093069Y-93682167D01*
X168038429Y-93701638D01*
X167997092Y-93761359D01*
X167979881Y-93813652D01*
X167957706Y-93894795D01*
X167935905Y-93985727D01*
X167895634Y-94151974D01*
X167850723Y-94297344D01*
X167801860Y-94409077D01*
X167745473Y-94493706D01*
X167677989Y-94557767D01*
X167595836Y-94607793D01*
X167483241Y-94647887D01*
X167357511Y-94651466D01*
X167232815Y-94609462D01*
X167149146Y-94547421D01*
X167073259Y-94453437D01*
X167025471Y-94348692D01*
X167015137Y-94295320D01*
X167006680Y-94210671D01*
X167002635Y-94116359D01*
X167003209Y-94026271D01*
X167008607Y-93954293D01*
X167019035Y-93914312D01*
X167045741Y-93895868D01*
X167104493Y-93868936D01*
X167181424Y-93840407D01*
X167326848Y-93791736D01*
X167322616Y-93877186D01*
X167321945Y-93891298D01*
X167320496Y-93981481D01*
X167328223Y-94038106D01*
X167348180Y-94072083D01*
X167383423Y-94094320D01*
X167417384Y-94106741D01*
X167454499Y-94101589D01*
X167498113Y-94064962D01*
X167500886Y-94062043D01*
X167536185Y-94009211D01*
X167574982Y-93929376D01*
X167609367Y-93838630D01*
X167664718Y-93668441D01*
X167395814Y-93684491D01*
X167296031Y-93690556D01*
X167198267Y-93696736D01*
X167124714Y-93701651D01*
X167086318Y-93704588D01*
X167086287Y-93704591D01*
X167068101Y-93702035D01*
X167056252Y-93684785D01*
X167049380Y-93644974D01*
X167046125Y-93574729D01*
X167045127Y-93466182D01*
X167045017Y-93391803D01*
X167045111Y-93296852D01*
X167045463Y-93225064D01*
X167046037Y-93187947D01*
X167051280Y-93174457D01*
X167073754Y-93162765D01*
X167120713Y-93154943D01*
X167199387Y-93149883D01*
X167317008Y-93146480D01*
X167418731Y-93143783D01*
X167509192Y-93140264D01*
X167572791Y-93136508D01*
X167599872Y-93132974D01*
X167600659Y-93132642D01*
X167631751Y-93128263D01*
X167698781Y-93122369D01*
X167792505Y-93115691D01*
X167903678Y-93108959D01*
X167991517Y-93104529D01*
X168098478Y-93101671D01*
X168175442Y-93104299D01*
G36*
X168175442Y-93104299D02*
G01*
X168232163Y-93112907D01*
X168278399Y-93127991D01*
X168369848Y-93190717D01*
X168439053Y-93292911D01*
X168485374Y-93433324D01*
X168508576Y-93610872D01*
X168508422Y-93824473D01*
X168484676Y-94073044D01*
X168476365Y-94134410D01*
X168459536Y-94245812D01*
X168442525Y-94322001D01*
X168421223Y-94370373D01*
X168391520Y-94398322D01*
X168349307Y-94413244D01*
X168290475Y-94422533D01*
X168244822Y-94428846D01*
X168168888Y-94440835D01*
X168117301Y-94450888D01*
X168067148Y-94463193D01*
X168125164Y-94282188D01*
X168155858Y-94168156D01*
X168181218Y-94040469D01*
X168195390Y-93928000D01*
X168196367Y-93913893D01*
X168200521Y-93827842D01*
X168197233Y-93773774D01*
X168184499Y-93739374D01*
X168160318Y-93712328D01*
X168152267Y-93705572D01*
X168093069Y-93682167D01*
X168038429Y-93701638D01*
X167997092Y-93761359D01*
X167979881Y-93813652D01*
X167957706Y-93894795D01*
X167935905Y-93985727D01*
X167895634Y-94151974D01*
X167850723Y-94297344D01*
X167801860Y-94409077D01*
X167745473Y-94493706D01*
X167677989Y-94557767D01*
X167595836Y-94607793D01*
X167483241Y-94647887D01*
X167357511Y-94651466D01*
X167232815Y-94609462D01*
X167149146Y-94547421D01*
X167073259Y-94453437D01*
X167025471Y-94348692D01*
X167015137Y-94295320D01*
X167006680Y-94210671D01*
X167002635Y-94116359D01*
X167003209Y-94026271D01*
X167008607Y-93954293D01*
X167019035Y-93914312D01*
X167045741Y-93895868D01*
X167104493Y-93868936D01*
X167181424Y-93840407D01*
X167326848Y-93791736D01*
X167322616Y-93877186D01*
X167321945Y-93891298D01*
X167320496Y-93981481D01*
X167328223Y-94038106D01*
X167348180Y-94072083D01*
X167383423Y-94094320D01*
X167417384Y-94106741D01*
X167454499Y-94101589D01*
X167498113Y-94064962D01*
X167500886Y-94062043D01*
X167536185Y-94009211D01*
X167574982Y-93929376D01*
X167609367Y-93838630D01*
X167664718Y-93668441D01*
X167395814Y-93684491D01*
X167296031Y-93690556D01*
X167198267Y-93696736D01*
X167124714Y-93701651D01*
X167086318Y-93704588D01*
X167086287Y-93704591D01*
X167068101Y-93702035D01*
X167056252Y-93684785D01*
X167049380Y-93644974D01*
X167046125Y-93574729D01*
X167045127Y-93466182D01*
X167045017Y-93391803D01*
X167045111Y-93296852D01*
X167045463Y-93225064D01*
X167046037Y-93187947D01*
X167051280Y-93174457D01*
X167073754Y-93162765D01*
X167120713Y-93154943D01*
X167199387Y-93149883D01*
X167317008Y-93146480D01*
X167418731Y-93143783D01*
X167509192Y-93140264D01*
X167572791Y-93136508D01*
X167599872Y-93132974D01*
X167600659Y-93132642D01*
X167631751Y-93128263D01*
X167698781Y-93122369D01*
X167792505Y-93115691D01*
X167903678Y-93108959D01*
X167991517Y-93104529D01*
X168098478Y-93101671D01*
X168175442Y-93104299D01*
G37*
X168473379Y-95948058D02*
X168456530Y-96076698D01*
X168423098Y-96181490D01*
X168370804Y-96270949D01*
X168297366Y-96353590D01*
X168263575Y-96384083D01*
X168145234Y-96463027D01*
X168019142Y-96511836D01*
X167892715Y-96530867D01*
X167773368Y-96520483D01*
X167668517Y-96481042D01*
X167585578Y-96412906D01*
X167531967Y-96316432D01*
X167527489Y-96301471D01*
X167516015Y-96184960D01*
X167536042Y-96069565D01*
X167789085Y-96069565D01*
X167822740Y-96131532D01*
X167878893Y-96161147D01*
X167956542Y-96163700D01*
X168039386Y-96140414D01*
X168113751Y-96095249D01*
X168165960Y-96032162D01*
X168190900Y-95963522D01*
X168202091Y-95888899D01*
X168202091Y-95815505D01*
X168083025Y-95831299D01*
X168043715Y-95837703D01*
X167961044Y-95857619D01*
X167898983Y-95880695D01*
X167832698Y-95931642D01*
X167793569Y-95999104D01*
X167789085Y-96069565D01*
X167536042Y-96069565D01*
X167537287Y-96062390D01*
X167588242Y-95953510D01*
X167602513Y-95932261D01*
X167625866Y-95891106D01*
X167624375Y-95868015D01*
X167599598Y-95848574D01*
X167596433Y-95846465D01*
X167557680Y-95795794D01*
X167529950Y-95713948D01*
X167516389Y-95614323D01*
X167520143Y-95510313D01*
X167564357Y-95332677D01*
X167649749Y-95168445D01*
X167772287Y-95029171D01*
X167928837Y-94919385D01*
X167949910Y-94908057D01*
X168024788Y-94871540D01*
X168088723Y-94851237D01*
X168160728Y-94842666D01*
X168259818Y-94841342D01*
X168331514Y-94842928D01*
X168418357Y-94851355D01*
X168489329Y-94870364D01*
X168562848Y-94903749D01*
X168605153Y-94927918D01*
X168734061Y-95031152D01*
X168842823Y-95162947D01*
X168919800Y-95310058D01*
X168940643Y-95377955D01*
X168966176Y-95512204D01*
X168982682Y-95669456D01*
X168989336Y-95836002D01*
X168985316Y-95998134D01*
X168969796Y-96142144D01*
X168925708Y-96324218D01*
X168836175Y-96530114D01*
X168710964Y-96709384D01*
X168552907Y-96858877D01*
X168364832Y-96975439D01*
X168149570Y-97055917D01*
X167997692Y-97083321D01*
X167818385Y-97086720D01*
X167643011Y-97062498D01*
X167483753Y-97012450D01*
X167352793Y-96938375D01*
X167323213Y-96915449D01*
X167245353Y-96845733D01*
X167185540Y-96770479D01*
X167127637Y-96670488D01*
X167078842Y-96558969D01*
X167026950Y-96365308D01*
X167002772Y-96154287D01*
X167006605Y-95937966D01*
X167038751Y-95728404D01*
X167099507Y-95537662D01*
X167146395Y-95427052D01*
X167252834Y-95442485D01*
X167285831Y-95447605D01*
X167342173Y-95458280D01*
X167368658Y-95466269D01*
X167369805Y-95470627D01*
X167361750Y-95505566D01*
X167340319Y-95561446D01*
X167299514Y-95671049D01*
X167270730Y-95798042D01*
X167258263Y-95941975D01*
X167260121Y-96116631D01*
X167262870Y-96174119D01*
X167270804Y-96278408D01*
X167283138Y-96355706D01*
X167302472Y-96419363D01*
X167331405Y-96482729D01*
X167362216Y-96535936D01*
X167451430Y-96646600D01*
X167557394Y-96734216D01*
X167667731Y-96787565D01*
X167758589Y-96806408D01*
X167905918Y-96814001D01*
X168056979Y-96800317D01*
X168190478Y-96766224D01*
X168192438Y-96765486D01*
X168327992Y-96694135D01*
X168458063Y-96589799D01*
X168569597Y-96464835D01*
X168649541Y-96331602D01*
X168703953Y-96181760D01*
X168740997Y-96003952D01*
X168753187Y-95824140D01*
X168741593Y-95649717D01*
X168707287Y-95488074D01*
X168651340Y-95346603D01*
X168574825Y-95232695D01*
X168478811Y-95153742D01*
X168467289Y-95147534D01*
X168344183Y-95105925D01*
X168213553Y-95099335D01*
X168085265Y-95124685D01*
X167969185Y-95178893D01*
X167875181Y-95258879D01*
X167813117Y-95361564D01*
X167805548Y-95383490D01*
X167798496Y-95430255D01*
X167814084Y-95460396D01*
X167856667Y-95474710D01*
X167930602Y-95473999D01*
X168040245Y-95459059D01*
X168189953Y-95430692D01*
X168254466Y-95418462D01*
X168344879Y-95404833D01*
X168410099Y-95399599D01*
X168440239Y-95403821D01*
X168448812Y-95432272D01*
X168457940Y-95497489D01*
X168466317Y-95589421D01*
X168472852Y-95698217D01*
X168475927Y-95787054D01*
X168474315Y-95888899D01*
X168473379Y-95948058D01*
G36*
X168473379Y-95948058D02*
G01*
X168456530Y-96076698D01*
X168423098Y-96181490D01*
X168370804Y-96270949D01*
X168297366Y-96353590D01*
X168263575Y-96384083D01*
X168145234Y-96463027D01*
X168019142Y-96511836D01*
X167892715Y-96530867D01*
X167773368Y-96520483D01*
X167668517Y-96481042D01*
X167585578Y-96412906D01*
X167531967Y-96316432D01*
X167527489Y-96301471D01*
X167516015Y-96184960D01*
X167536042Y-96069565D01*
X167789085Y-96069565D01*
X167822740Y-96131532D01*
X167878893Y-96161147D01*
X167956542Y-96163700D01*
X168039386Y-96140414D01*
X168113751Y-96095249D01*
X168165960Y-96032162D01*
X168190900Y-95963522D01*
X168202091Y-95888899D01*
X168202091Y-95815505D01*
X168083025Y-95831299D01*
X168043715Y-95837703D01*
X167961044Y-95857619D01*
X167898983Y-95880695D01*
X167832698Y-95931642D01*
X167793569Y-95999104D01*
X167789085Y-96069565D01*
X167536042Y-96069565D01*
X167537287Y-96062390D01*
X167588242Y-95953510D01*
X167602513Y-95932261D01*
X167625866Y-95891106D01*
X167624375Y-95868015D01*
X167599598Y-95848574D01*
X167596433Y-95846465D01*
X167557680Y-95795794D01*
X167529950Y-95713948D01*
X167516389Y-95614323D01*
X167520143Y-95510313D01*
X167564357Y-95332677D01*
X167649749Y-95168445D01*
X167772287Y-95029171D01*
X167928837Y-94919385D01*
X167949910Y-94908057D01*
X168024788Y-94871540D01*
X168088723Y-94851237D01*
X168160728Y-94842666D01*
X168259818Y-94841342D01*
X168331514Y-94842928D01*
X168418357Y-94851355D01*
X168489329Y-94870364D01*
X168562848Y-94903749D01*
X168605153Y-94927918D01*
X168734061Y-95031152D01*
X168842823Y-95162947D01*
X168919800Y-95310058D01*
X168940643Y-95377955D01*
X168966176Y-95512204D01*
X168982682Y-95669456D01*
X168989336Y-95836002D01*
X168985316Y-95998134D01*
X168969796Y-96142144D01*
X168925708Y-96324218D01*
X168836175Y-96530114D01*
X168710964Y-96709384D01*
X168552907Y-96858877D01*
X168364832Y-96975439D01*
X168149570Y-97055917D01*
X167997692Y-97083321D01*
X167818385Y-97086720D01*
X167643011Y-97062498D01*
X167483753Y-97012450D01*
X167352793Y-96938375D01*
X167323213Y-96915449D01*
X167245353Y-96845733D01*
X167185540Y-96770479D01*
X167127637Y-96670488D01*
X167078842Y-96558969D01*
X167026950Y-96365308D01*
X167002772Y-96154287D01*
X167006605Y-95937966D01*
X167038751Y-95728404D01*
X167099507Y-95537662D01*
X167146395Y-95427052D01*
X167252834Y-95442485D01*
X167285831Y-95447605D01*
X167342173Y-95458280D01*
X167368658Y-95466269D01*
X167369805Y-95470627D01*
X167361750Y-95505566D01*
X167340319Y-95561446D01*
X167299514Y-95671049D01*
X167270730Y-95798042D01*
X167258263Y-95941975D01*
X167260121Y-96116631D01*
X167262870Y-96174119D01*
X167270804Y-96278408D01*
X167283138Y-96355706D01*
X167302472Y-96419363D01*
X167331405Y-96482729D01*
X167362216Y-96535936D01*
X167451430Y-96646600D01*
X167557394Y-96734216D01*
X167667731Y-96787565D01*
X167758589Y-96806408D01*
X167905918Y-96814001D01*
X168056979Y-96800317D01*
X168190478Y-96766224D01*
X168192438Y-96765486D01*
X168327992Y-96694135D01*
X168458063Y-96589799D01*
X168569597Y-96464835D01*
X168649541Y-96331602D01*
X168703953Y-96181760D01*
X168740997Y-96003952D01*
X168753187Y-95824140D01*
X168741593Y-95649717D01*
X168707287Y-95488074D01*
X168651340Y-95346603D01*
X168574825Y-95232695D01*
X168478811Y-95153742D01*
X168467289Y-95147534D01*
X168344183Y-95105925D01*
X168213553Y-95099335D01*
X168085265Y-95124685D01*
X167969185Y-95178893D01*
X167875181Y-95258879D01*
X167813117Y-95361564D01*
X167805548Y-95383490D01*
X167798496Y-95430255D01*
X167814084Y-95460396D01*
X167856667Y-95474710D01*
X167930602Y-95473999D01*
X168040245Y-95459059D01*
X168189953Y-95430692D01*
X168254466Y-95418462D01*
X168344879Y-95404833D01*
X168410099Y-95399599D01*
X168440239Y-95403821D01*
X168448812Y-95432272D01*
X168457940Y-95497489D01*
X168466317Y-95589421D01*
X168472852Y-95698217D01*
X168475927Y-95787054D01*
X168474315Y-95888899D01*
X168473379Y-95948058D01*
G37*
X171703531Y-82620601D02*
X171702959Y-82622817D01*
X171683561Y-82661811D01*
X171642344Y-82690394D01*
X171567358Y-82717029D01*
X171557155Y-82719967D01*
X171464032Y-82742384D01*
X171333253Y-82768698D01*
X171171992Y-82797838D01*
X170987422Y-82828733D01*
X170786714Y-82860311D01*
X170577042Y-82891501D01*
X170365579Y-82921231D01*
X170159498Y-82948430D01*
X169965971Y-82972026D01*
X169792172Y-82990949D01*
X169645273Y-83004127D01*
X169560323Y-83009931D01*
X169461495Y-83014960D01*
X169385145Y-83016859D01*
X169343039Y-83015197D01*
X169340706Y-83014928D01*
X169301672Y-83013422D01*
X169221268Y-83011896D01*
X169103567Y-83010383D01*
X168952639Y-83008913D01*
X168772557Y-83007520D01*
X168567393Y-83006235D01*
X168341220Y-83005091D01*
X168098108Y-83004120D01*
X167842130Y-83003354D01*
X167781153Y-83003194D01*
X167431370Y-83001915D01*
X167122945Y-83000048D01*
X166851726Y-82997473D01*
X166613566Y-82994072D01*
X166404316Y-82989728D01*
X166219825Y-82984320D01*
X166055944Y-82977733D01*
X165908525Y-82969845D01*
X165773419Y-82960541D01*
X165646475Y-82949700D01*
X165523545Y-82937205D01*
X165486540Y-82933187D01*
X165367579Y-82920527D01*
X165253830Y-82908751D01*
X165165636Y-82899973D01*
X165146929Y-82897939D01*
X165061862Y-82886023D01*
X164948099Y-82867497D01*
X164818232Y-82844481D01*
X164684848Y-82819092D01*
X164569619Y-82795383D01*
X164411924Y-82757884D01*
X164293010Y-82720890D01*
X164208368Y-82682134D01*
X164153492Y-82639351D01*
X164123871Y-82590274D01*
X164115107Y-82533328D01*
X164262954Y-82533328D01*
X164286926Y-82559387D01*
X164350087Y-82588105D01*
X164448077Y-82618624D01*
X164576534Y-82650085D01*
X164731099Y-82681631D01*
X164907410Y-82712400D01*
X165101107Y-82741536D01*
X165307830Y-82768179D01*
X165523217Y-82791470D01*
X165742909Y-82810550D01*
X165757488Y-82811676D01*
X165854930Y-82820214D01*
X165940426Y-82829259D01*
X165996909Y-82837034D01*
X166002010Y-82837613D01*
X166048035Y-82839628D01*
X166134704Y-82841625D01*
X166257718Y-82843588D01*
X166412775Y-82845498D01*
X166595574Y-82847338D01*
X166801815Y-82849090D01*
X167027196Y-82850737D01*
X167267417Y-82852259D01*
X167518177Y-82853641D01*
X167775175Y-82854863D01*
X168034111Y-82855908D01*
X168290682Y-82856758D01*
X168540589Y-82857396D01*
X168779531Y-82857803D01*
X169003206Y-82857962D01*
X169207314Y-82857855D01*
X169387555Y-82857464D01*
X169539626Y-82856772D01*
X169659228Y-82855760D01*
X169742059Y-82854411D01*
X169783818Y-82852707D01*
X169830391Y-82847840D01*
X169940858Y-82834459D01*
X170077976Y-82816201D01*
X170235164Y-82794090D01*
X170405839Y-82769151D01*
X170583423Y-82742407D01*
X170761334Y-82714883D01*
X170932991Y-82687604D01*
X171091814Y-82661592D01*
X171231222Y-82637873D01*
X171344635Y-82617471D01*
X171425471Y-82601410D01*
X171467151Y-82590714D01*
X171496237Y-82577008D01*
X171491348Y-82564475D01*
X171446831Y-82545114D01*
X171377464Y-82521602D01*
X171242529Y-82486251D01*
X171074371Y-82450734D01*
X170880647Y-82416281D01*
X170669010Y-82384117D01*
X170447116Y-82355471D01*
X170222622Y-82331571D01*
X170003182Y-82313642D01*
X169831278Y-82301887D01*
X169656247Y-82289590D01*
X169516725Y-82279314D01*
X169406862Y-82270610D01*
X169320812Y-82263030D01*
X169252727Y-82256127D01*
X169168602Y-82248713D01*
X169025485Y-82240200D01*
X168843513Y-82232559D01*
X168626745Y-82225877D01*
X168379238Y-82220245D01*
X168105051Y-82215753D01*
X167808244Y-82212489D01*
X167492874Y-82210544D01*
X167163000Y-82210007D01*
X167031000Y-82210167D01*
X166746958Y-82211313D01*
X166499862Y-82213832D01*
X166283214Y-82218086D01*
X166090520Y-82224440D01*
X165915281Y-82233258D01*
X165751000Y-82244903D01*
X165591182Y-82259740D01*
X165429329Y-82278133D01*
X165258944Y-82300444D01*
X165073531Y-82327039D01*
X165072104Y-82327251D01*
X164964825Y-82345264D01*
X164842126Y-82369183D01*
X164712690Y-82396928D01*
X164585200Y-82426414D01*
X164468339Y-82455560D01*
X164370789Y-82482283D01*
X164301234Y-82504502D01*
X164268357Y-82520134D01*
X164262954Y-82533328D01*
X164115107Y-82533328D01*
X164115000Y-82532636D01*
X164115429Y-82516553D01*
X164124097Y-82470668D01*
X164147796Y-82431914D01*
X164191599Y-82397765D01*
X164260583Y-82365694D01*
X164359821Y-82333175D01*
X164494389Y-82297684D01*
X164669361Y-82256692D01*
X164745153Y-82240770D01*
X164900881Y-82213162D01*
X165095086Y-82183972D01*
X165329675Y-82152941D01*
X165606556Y-82119806D01*
X165927636Y-82084307D01*
X165983865Y-82080819D01*
X166079402Y-82077819D01*
X166209198Y-82075300D01*
X166368228Y-82073255D01*
X166551462Y-82071674D01*
X166753874Y-82070548D01*
X166970435Y-82069869D01*
X167196120Y-82069628D01*
X167425899Y-82069816D01*
X167654745Y-82070425D01*
X167877632Y-82071445D01*
X168089530Y-82072868D01*
X168285413Y-82074686D01*
X168460254Y-82076889D01*
X168609024Y-82079469D01*
X168726696Y-82082417D01*
X168808243Y-82085724D01*
X168848636Y-82089382D01*
X168861441Y-82091416D01*
X168920702Y-82097275D01*
X169012172Y-82103945D01*
X169125998Y-82110751D01*
X169252330Y-82117018D01*
X169312549Y-82119800D01*
X169426969Y-82125648D01*
X169520290Y-82131169D01*
X169584163Y-82135847D01*
X169610240Y-82139166D01*
X169610281Y-82139189D01*
X169637026Y-82143015D01*
X169700390Y-82148457D01*
X169790948Y-82154794D01*
X169899273Y-82161302D01*
X169954708Y-82164610D01*
X170191278Y-82183025D01*
X170436557Y-82208248D01*
X170679568Y-82238802D01*
X170909332Y-82273211D01*
X171114873Y-82309999D01*
X171285213Y-82347689D01*
X171398799Y-82378156D01*
X171531349Y-82421558D01*
X171624284Y-82465016D01*
X171681417Y-82511017D01*
X171706562Y-82562049D01*
X171705787Y-82577008D01*
X171703531Y-82620601D01*
G36*
X171703531Y-82620601D02*
G01*
X171702959Y-82622817D01*
X171683561Y-82661811D01*
X171642344Y-82690394D01*
X171567358Y-82717029D01*
X171557155Y-82719967D01*
X171464032Y-82742384D01*
X171333253Y-82768698D01*
X171171992Y-82797838D01*
X170987422Y-82828733D01*
X170786714Y-82860311D01*
X170577042Y-82891501D01*
X170365579Y-82921231D01*
X170159498Y-82948430D01*
X169965971Y-82972026D01*
X169792172Y-82990949D01*
X169645273Y-83004127D01*
X169560323Y-83009931D01*
X169461495Y-83014960D01*
X169385145Y-83016859D01*
X169343039Y-83015197D01*
X169340706Y-83014928D01*
X169301672Y-83013422D01*
X169221268Y-83011896D01*
X169103567Y-83010383D01*
X168952639Y-83008913D01*
X168772557Y-83007520D01*
X168567393Y-83006235D01*
X168341220Y-83005091D01*
X168098108Y-83004120D01*
X167842130Y-83003354D01*
X167781153Y-83003194D01*
X167431370Y-83001915D01*
X167122945Y-83000048D01*
X166851726Y-82997473D01*
X166613566Y-82994072D01*
X166404316Y-82989728D01*
X166219825Y-82984320D01*
X166055944Y-82977733D01*
X165908525Y-82969845D01*
X165773419Y-82960541D01*
X165646475Y-82949700D01*
X165523545Y-82937205D01*
X165486540Y-82933187D01*
X165367579Y-82920527D01*
X165253830Y-82908751D01*
X165165636Y-82899973D01*
X165146929Y-82897939D01*
X165061862Y-82886023D01*
X164948099Y-82867497D01*
X164818232Y-82844481D01*
X164684848Y-82819092D01*
X164569619Y-82795383D01*
X164411924Y-82757884D01*
X164293010Y-82720890D01*
X164208368Y-82682134D01*
X164153492Y-82639351D01*
X164123871Y-82590274D01*
X164115107Y-82533328D01*
X164262954Y-82533328D01*
X164286926Y-82559387D01*
X164350087Y-82588105D01*
X164448077Y-82618624D01*
X164576534Y-82650085D01*
X164731099Y-82681631D01*
X164907410Y-82712400D01*
X165101107Y-82741536D01*
X165307830Y-82768179D01*
X165523217Y-82791470D01*
X165742909Y-82810550D01*
X165757488Y-82811676D01*
X165854930Y-82820214D01*
X165940426Y-82829259D01*
X165996909Y-82837034D01*
X166002010Y-82837613D01*
X166048035Y-82839628D01*
X166134704Y-82841625D01*
X166257718Y-82843588D01*
X166412775Y-82845498D01*
X166595574Y-82847338D01*
X166801815Y-82849090D01*
X167027196Y-82850737D01*
X167267417Y-82852259D01*
X167518177Y-82853641D01*
X167775175Y-82854863D01*
X168034111Y-82855908D01*
X168290682Y-82856758D01*
X168540589Y-82857396D01*
X168779531Y-82857803D01*
X169003206Y-82857962D01*
X169207314Y-82857855D01*
X169387555Y-82857464D01*
X169539626Y-82856772D01*
X169659228Y-82855760D01*
X169742059Y-82854411D01*
X169783818Y-82852707D01*
X169830391Y-82847840D01*
X169940858Y-82834459D01*
X170077976Y-82816201D01*
X170235164Y-82794090D01*
X170405839Y-82769151D01*
X170583423Y-82742407D01*
X170761334Y-82714883D01*
X170932991Y-82687604D01*
X171091814Y-82661592D01*
X171231222Y-82637873D01*
X171344635Y-82617471D01*
X171425471Y-82601410D01*
X171467151Y-82590714D01*
X171496237Y-82577008D01*
X171491348Y-82564475D01*
X171446831Y-82545114D01*
X171377464Y-82521602D01*
X171242529Y-82486251D01*
X171074371Y-82450734D01*
X170880647Y-82416281D01*
X170669010Y-82384117D01*
X170447116Y-82355471D01*
X170222622Y-82331571D01*
X170003182Y-82313642D01*
X169831278Y-82301887D01*
X169656247Y-82289590D01*
X169516725Y-82279314D01*
X169406862Y-82270610D01*
X169320812Y-82263030D01*
X169252727Y-82256127D01*
X169168602Y-82248713D01*
X169025485Y-82240200D01*
X168843513Y-82232559D01*
X168626745Y-82225877D01*
X168379238Y-82220245D01*
X168105051Y-82215753D01*
X167808244Y-82212489D01*
X167492874Y-82210544D01*
X167163000Y-82210007D01*
X167031000Y-82210167D01*
X166746958Y-82211313D01*
X166499862Y-82213832D01*
X166283214Y-82218086D01*
X166090520Y-82224440D01*
X165915281Y-82233258D01*
X165751000Y-82244903D01*
X165591182Y-82259740D01*
X165429329Y-82278133D01*
X165258944Y-82300444D01*
X165073531Y-82327039D01*
X165072104Y-82327251D01*
X164964825Y-82345264D01*
X164842126Y-82369183D01*
X164712690Y-82396928D01*
X164585200Y-82426414D01*
X164468339Y-82455560D01*
X164370789Y-82482283D01*
X164301234Y-82504502D01*
X164268357Y-82520134D01*
X164262954Y-82533328D01*
X164115107Y-82533328D01*
X164115000Y-82532636D01*
X164115429Y-82516553D01*
X164124097Y-82470668D01*
X164147796Y-82431914D01*
X164191599Y-82397765D01*
X164260583Y-82365694D01*
X164359821Y-82333175D01*
X164494389Y-82297684D01*
X164669361Y-82256692D01*
X164745153Y-82240770D01*
X164900881Y-82213162D01*
X165095086Y-82183972D01*
X165329675Y-82152941D01*
X165606556Y-82119806D01*
X165927636Y-82084307D01*
X165983865Y-82080819D01*
X166079402Y-82077819D01*
X166209198Y-82075300D01*
X166368228Y-82073255D01*
X166551462Y-82071674D01*
X166753874Y-82070548D01*
X166970435Y-82069869D01*
X167196120Y-82069628D01*
X167425899Y-82069816D01*
X167654745Y-82070425D01*
X167877632Y-82071445D01*
X168089530Y-82072868D01*
X168285413Y-82074686D01*
X168460254Y-82076889D01*
X168609024Y-82079469D01*
X168726696Y-82082417D01*
X168808243Y-82085724D01*
X168848636Y-82089382D01*
X168861441Y-82091416D01*
X168920702Y-82097275D01*
X169012172Y-82103945D01*
X169125998Y-82110751D01*
X169252330Y-82117018D01*
X169312549Y-82119800D01*
X169426969Y-82125648D01*
X169520290Y-82131169D01*
X169584163Y-82135847D01*
X169610240Y-82139166D01*
X169610281Y-82139189D01*
X169637026Y-82143015D01*
X169700390Y-82148457D01*
X169790948Y-82154794D01*
X169899273Y-82161302D01*
X169954708Y-82164610D01*
X170191278Y-82183025D01*
X170436557Y-82208248D01*
X170679568Y-82238802D01*
X170909332Y-82273211D01*
X171114873Y-82309999D01*
X171285213Y-82347689D01*
X171398799Y-82378156D01*
X171531349Y-82421558D01*
X171624284Y-82465016D01*
X171681417Y-82511017D01*
X171706562Y-82562049D01*
X171705787Y-82577008D01*
X171703531Y-82620601D01*
G37*
X172089862Y-82637289D02*
X172069107Y-82721549D01*
X172028190Y-82834993D01*
X172014243Y-82872380D01*
X171982759Y-82967459D01*
X171977767Y-82982536D01*
X171948917Y-83087098D01*
X171932969Y-83167636D01*
X171926922Y-83208886D01*
X171910752Y-83303172D01*
X171886941Y-83432536D01*
X171856691Y-83590994D01*
X171821204Y-83772564D01*
X171781682Y-83971262D01*
X171739326Y-84181105D01*
X171695339Y-84396111D01*
X171650923Y-84610295D01*
X171607278Y-84817675D01*
X171565608Y-85012268D01*
X171527114Y-85188091D01*
X171507750Y-85275347D01*
X171438472Y-85588299D01*
X171378291Y-85861929D01*
X171326326Y-86100787D01*
X171281698Y-86309424D01*
X171243527Y-86492390D01*
X171210934Y-86654235D01*
X171183038Y-86799510D01*
X171158960Y-86932765D01*
X171137820Y-87058550D01*
X171118738Y-87181415D01*
X171100835Y-87305912D01*
X171083230Y-87436590D01*
X171065044Y-87578000D01*
X171043271Y-87747603D01*
X171015884Y-87956779D01*
X170985376Y-88186539D01*
X170953460Y-88424061D01*
X170921851Y-88656519D01*
X170892261Y-88871091D01*
X170853489Y-89154817D01*
X170809825Y-89486079D01*
X170767439Y-89819629D01*
X170726933Y-90150135D01*
X170688910Y-90472267D01*
X170653971Y-90780692D01*
X170622718Y-91070081D01*
X170595755Y-91335100D01*
X170573684Y-91570421D01*
X170557106Y-91770710D01*
X170546623Y-91930636D01*
X170538921Y-92073387D01*
X170525339Y-92306264D01*
X170512002Y-92512002D01*
X170499507Y-92681091D01*
X170497105Y-92712442D01*
X170490477Y-92807871D01*
X170483123Y-92922853D01*
X170476238Y-93039000D01*
X170473305Y-93089628D01*
X170466016Y-93207528D01*
X170458749Y-93316084D01*
X170452714Y-93396909D01*
X170439409Y-93558977D01*
X170433211Y-93634490D01*
X170410973Y-93909362D01*
X170392033Y-94149499D01*
X170375951Y-94361289D01*
X170362285Y-94551114D01*
X170350594Y-94725361D01*
X170340438Y-94890416D01*
X170331375Y-95052662D01*
X170322964Y-95218486D01*
X170314764Y-95394273D01*
X170310164Y-95492038D01*
X170303638Y-95620227D01*
X170297258Y-95735584D01*
X170291914Y-95821455D01*
X170291067Y-95834132D01*
X170285978Y-95921453D01*
X170279971Y-96038430D01*
X170273727Y-96171316D01*
X170267926Y-96306364D01*
X170266206Y-96347530D01*
X170260525Y-96470722D01*
X170254767Y-96579277D01*
X170249516Y-96662689D01*
X170245359Y-96710455D01*
X170244951Y-96714399D01*
X170242548Y-96760791D01*
X170239734Y-96846829D01*
X170236630Y-96967044D01*
X170233359Y-97115966D01*
X170230043Y-97288125D01*
X170226802Y-97478051D01*
X170223760Y-97680273D01*
X170222034Y-97806370D01*
X170219495Y-98018345D01*
X170218141Y-98192715D01*
X170218119Y-98335127D01*
X170219581Y-98451231D01*
X170222676Y-98546675D01*
X170227555Y-98627107D01*
X170234366Y-98698176D01*
X170243259Y-98765530D01*
X170254386Y-98834818D01*
X170329814Y-99178460D01*
X170438285Y-99502765D01*
X170445217Y-99517488D01*
X170580406Y-99804636D01*
X170630407Y-99897069D01*
X170652332Y-99937602D01*
X170778985Y-100177874D01*
X170886324Y-100390305D01*
X170973295Y-100572646D01*
X171038842Y-100722645D01*
X171081913Y-100838053D01*
X171101451Y-100916618D01*
X171103534Y-100935112D01*
X171099813Y-101124388D01*
X171053211Y-101310668D01*
X171052196Y-101314728D01*
X170962370Y-101501357D01*
X170832020Y-101679500D01*
X170784608Y-101731736D01*
X170724543Y-101788270D01*
X170657170Y-101837617D01*
X170570728Y-101888122D01*
X170453454Y-101948133D01*
X170332171Y-102004876D01*
X170137145Y-102086416D01*
X170128093Y-102090201D01*
X169907062Y-102172873D01*
X169683387Y-102247906D01*
X169471374Y-102310316D01*
X169285332Y-102355117D01*
X169188391Y-102373127D01*
X169042463Y-102396407D01*
X168887701Y-102417837D01*
X168744727Y-102434391D01*
X168713860Y-102437332D01*
X168545397Y-102449359D01*
X168344893Y-102458528D01*
X168123504Y-102464745D01*
X167892386Y-102467917D01*
X167662694Y-102467949D01*
X167445583Y-102464749D01*
X167252209Y-102458221D01*
X167093727Y-102448272D01*
X166833214Y-102420550D01*
X166453848Y-102359412D01*
X166095857Y-102276437D01*
X165764766Y-102173195D01*
X165466103Y-102051255D01*
X165205396Y-101912185D01*
X165087971Y-101834359D01*
X165060146Y-101811013D01*
X165340025Y-101811013D01*
X165345905Y-101821282D01*
X165384334Y-101848491D01*
X165456071Y-101889085D01*
X165591614Y-101950827D01*
X165757764Y-102014350D01*
X165945611Y-102076920D01*
X166146248Y-102135806D01*
X166350767Y-102188274D01*
X166550260Y-102231593D01*
X166735818Y-102263030D01*
X166751461Y-102265225D01*
X166848523Y-102279034D01*
X166933603Y-102291432D01*
X166989818Y-102299962D01*
X166992631Y-102300354D01*
X167038780Y-102303629D01*
X167123614Y-102307229D01*
X167240502Y-102310961D01*
X167382813Y-102314633D01*
X167543917Y-102318054D01*
X167717182Y-102321031D01*
X167789401Y-102322011D01*
X168085396Y-102322965D01*
X168345288Y-102317978D01*
X168577060Y-102306547D01*
X168788691Y-102288168D01*
X168988162Y-102262338D01*
X169183454Y-102228554D01*
X169247101Y-102215486D01*
X169351283Y-102191651D01*
X169455732Y-102165387D01*
X169551384Y-102139213D01*
X169629177Y-102115647D01*
X169680047Y-102097209D01*
X169694931Y-102086416D01*
X169686368Y-102085690D01*
X169641467Y-102091505D01*
X169567612Y-102105071D01*
X169475187Y-102124583D01*
X169445506Y-102130950D01*
X169258980Y-102162879D01*
X169033699Y-102190098D01*
X168775777Y-102212159D01*
X168491324Y-102228610D01*
X168186452Y-102239002D01*
X167867273Y-102242886D01*
X167603349Y-102240788D01*
X167253833Y-102228078D01*
X166931327Y-102202296D01*
X166625158Y-102161622D01*
X166324652Y-102104234D01*
X166019133Y-102028312D01*
X165697929Y-101932036D01*
X165350364Y-101813585D01*
X165340025Y-101811013D01*
X165060146Y-101811013D01*
X164963753Y-101730135D01*
X164866516Y-101615217D01*
X164785731Y-101478727D01*
X164741467Y-101385779D01*
X164684162Y-101230966D01*
X164660357Y-101093335D01*
X164666954Y-101005364D01*
X165270333Y-101005364D01*
X165270699Y-101036961D01*
X165274964Y-101131363D01*
X165283107Y-101240448D01*
X165293999Y-101354085D01*
X165306510Y-101462147D01*
X165319508Y-101554505D01*
X165331863Y-101621029D01*
X165342446Y-101651592D01*
X165354531Y-101658296D01*
X165405045Y-101678418D01*
X165485952Y-101707236D01*
X165588568Y-101741933D01*
X165704211Y-101779691D01*
X165824201Y-101817694D01*
X165939853Y-101853124D01*
X166042487Y-101883164D01*
X166123419Y-101904998D01*
X166164892Y-101915170D01*
X166393653Y-101965813D01*
X166638907Y-102012355D01*
X166880577Y-102051217D01*
X167098590Y-102078822D01*
X167199480Y-102086507D01*
X167347414Y-102092772D01*
X167524977Y-102096737D01*
X167723501Y-102098468D01*
X167934318Y-102098028D01*
X168148763Y-102095483D01*
X168358167Y-102090897D01*
X168553865Y-102084336D01*
X168727188Y-102075865D01*
X168869471Y-102065549D01*
X169094889Y-102040019D01*
X169376085Y-101994957D01*
X169651238Y-101937174D01*
X169910339Y-101869078D01*
X170143379Y-101793077D01*
X170340350Y-101711581D01*
X170341567Y-101711002D01*
X170430509Y-101667718D01*
X170486910Y-101635178D01*
X170520076Y-101604918D01*
X170539317Y-101568477D01*
X170553941Y-101517390D01*
X170563405Y-101475116D01*
X170580267Y-101310668D01*
X170569399Y-101124967D01*
X170530278Y-100913199D01*
X170462385Y-100670545D01*
X170422252Y-100548348D01*
X170376764Y-100424252D01*
X170338898Y-100340797D01*
X170307447Y-100295417D01*
X170281205Y-100285547D01*
X170206295Y-100307204D01*
X169846334Y-100403936D01*
X169509754Y-100482009D01*
X169202234Y-100540198D01*
X168929454Y-100577276D01*
X168851712Y-100585279D01*
X168734837Y-100597295D01*
X168632339Y-100607814D01*
X168560000Y-100615216D01*
X168525264Y-100618997D01*
X168440896Y-100629751D01*
X168375273Y-100640104D01*
X168339278Y-100644269D01*
X168256520Y-100649012D01*
X168140375Y-100652874D01*
X167998122Y-100655832D01*
X167837038Y-100657867D01*
X167664401Y-100658959D01*
X167487490Y-100659086D01*
X167313582Y-100658229D01*
X167149955Y-100656367D01*
X167003888Y-100653480D01*
X166882659Y-100649547D01*
X166793545Y-100644547D01*
X166539302Y-100616320D01*
X166250457Y-100568335D01*
X165962066Y-100505713D01*
X165695102Y-100432504D01*
X165603967Y-100404353D01*
X165512295Y-100376167D01*
X165444093Y-100355348D01*
X165409680Y-100345056D01*
X165399201Y-100347620D01*
X165375829Y-100383018D01*
X165351160Y-100451917D01*
X165326966Y-100545930D01*
X165305016Y-100656668D01*
X165287081Y-100775745D01*
X165274929Y-100894773D01*
X165270333Y-101005364D01*
X164666954Y-101005364D01*
X164670108Y-100963296D01*
X164713473Y-100831265D01*
X164790512Y-100687653D01*
X164825294Y-100627952D01*
X164892950Y-100499983D01*
X164969709Y-100343586D01*
X165051443Y-100168102D01*
X165104993Y-100047984D01*
X165615909Y-100047984D01*
X165629467Y-100067652D01*
X165679818Y-100101303D01*
X165759583Y-100141955D01*
X165860507Y-100186233D01*
X165974340Y-100230762D01*
X166092828Y-100272167D01*
X166207720Y-100307076D01*
X166310762Y-100332112D01*
X166408035Y-100350158D01*
X166523390Y-100368766D01*
X166620364Y-100381675D01*
X166684757Y-100388877D01*
X166800819Y-100402309D01*
X166909000Y-100415274D01*
X166930920Y-100417474D01*
X167010921Y-100422356D01*
X167121127Y-100426501D01*
X167251995Y-100429805D01*
X167393978Y-100432166D01*
X167537531Y-100433483D01*
X167673110Y-100433654D01*
X167791169Y-100432575D01*
X167882162Y-100430146D01*
X167936545Y-100426264D01*
X167965529Y-100422738D01*
X168034604Y-100415132D01*
X168128882Y-100405196D01*
X168236727Y-100394173D01*
X168478831Y-100368410D01*
X168745751Y-100335580D01*
X168977677Y-100301079D01*
X169180833Y-100263736D01*
X169361442Y-100222382D01*
X169525726Y-100175847D01*
X169679909Y-100122962D01*
X169747358Y-100096220D01*
X169848794Y-100050934D01*
X169943297Y-100003502D01*
X170021902Y-99958799D01*
X170075640Y-99921697D01*
X170095545Y-99897069D01*
X170081678Y-99897753D01*
X170039884Y-99911730D01*
X169985238Y-99933836D01*
X169933210Y-99957755D01*
X169899273Y-99977174D01*
X169883309Y-99985939D01*
X169830863Y-100007403D01*
X169760727Y-100031627D01*
X169743463Y-100036935D01*
X169698307Y-100048952D01*
X169642524Y-100060902D01*
X169570244Y-100073716D01*
X169475595Y-100088320D01*
X169352706Y-100105645D01*
X169195707Y-100126619D01*
X168998727Y-100152171D01*
X168992133Y-100152902D01*
X168933132Y-100156428D01*
X168838234Y-100159465D01*
X168716043Y-100161835D01*
X168575165Y-100163364D01*
X168424203Y-100163876D01*
X168396950Y-100163906D01*
X168245738Y-100165456D01*
X168105066Y-100169083D01*
X167983844Y-100174413D01*
X167890980Y-100181069D01*
X167835385Y-100188676D01*
X167773826Y-100199366D01*
X167653623Y-100210679D01*
X167501716Y-100217758D01*
X167326441Y-100220748D01*
X167136135Y-100219795D01*
X166939134Y-100215045D01*
X166743774Y-100206643D01*
X166558393Y-100194735D01*
X166391325Y-100179468D01*
X166250909Y-100160986D01*
X166191649Y-100150636D01*
X166075117Y-100126848D01*
X165956145Y-100099033D01*
X165846708Y-100070237D01*
X165758778Y-100043506D01*
X165704329Y-100021890D01*
X165676044Y-100011438D01*
X165633526Y-100016238D01*
X165615909Y-100047984D01*
X165104993Y-100047984D01*
X165134021Y-99982871D01*
X165213314Y-99797232D01*
X165285194Y-99620526D01*
X165328971Y-99505575D01*
X166300716Y-99505575D01*
X166312314Y-99525028D01*
X166367900Y-99575745D01*
X166461936Y-99636462D01*
X166590454Y-99704983D01*
X166749486Y-99779111D01*
X166935063Y-99856651D01*
X167290000Y-99997732D01*
X167601727Y-100011944D01*
X167613266Y-100012472D01*
X167740545Y-100018513D01*
X167860977Y-100024583D01*
X167961463Y-100030005D01*
X168028909Y-100034098D01*
X168062189Y-100035489D01*
X168151629Y-100032677D01*
X168225182Y-100022264D01*
X168246357Y-100017758D01*
X168320827Y-100005584D01*
X168419001Y-99992533D01*
X168525364Y-99980750D01*
X168543750Y-99978885D01*
X168639299Y-99966795D01*
X168722210Y-99949987D01*
X168805963Y-99924469D01*
X168904042Y-99886249D01*
X169029928Y-99831334D01*
X169046095Y-99824085D01*
X169175974Y-99764449D01*
X169269873Y-99717350D01*
X169333979Y-99678504D01*
X169374483Y-99643627D01*
X169397574Y-99608433D01*
X169409442Y-99568639D01*
X169415758Y-99517488D01*
X169405987Y-99453707D01*
X169367596Y-99402227D01*
X169294912Y-99356598D01*
X169182261Y-99310370D01*
X169113164Y-99285688D01*
X169003920Y-99249014D01*
X168904482Y-99220319D01*
X168806852Y-99198470D01*
X168703032Y-99182335D01*
X168585023Y-99170780D01*
X168444826Y-99162673D01*
X168274445Y-99156882D01*
X168065880Y-99152273D01*
X167850357Y-99149281D01*
X167621869Y-99149742D01*
X167423886Y-99155270D01*
X167247883Y-99166440D01*
X167085332Y-99183824D01*
X166927708Y-99207993D01*
X166766485Y-99239521D01*
X166750068Y-99243069D01*
X166571549Y-99288837D01*
X166436755Y-99338314D01*
X166346285Y-99391158D01*
X166300739Y-99447026D01*
X166300716Y-99505575D01*
X165328971Y-99505575D01*
X165345530Y-99462093D01*
X165390193Y-99331273D01*
X165396757Y-99309696D01*
X165405667Y-99276733D01*
X165413066Y-99241041D01*
X165419047Y-99198669D01*
X165423701Y-99145667D01*
X165427119Y-99078086D01*
X165429393Y-98991976D01*
X165430615Y-98883386D01*
X165430875Y-98748367D01*
X165430265Y-98582969D01*
X165428877Y-98383242D01*
X165426801Y-98145235D01*
X165424130Y-97865000D01*
X165422335Y-97689646D01*
X165419611Y-97452947D01*
X165416718Y-97231372D01*
X165413733Y-97029360D01*
X165410731Y-96851346D01*
X165407789Y-96701766D01*
X165404984Y-96585058D01*
X165402391Y-96505657D01*
X165400087Y-96468000D01*
X165399736Y-96465309D01*
X165395479Y-96413553D01*
X165390489Y-96325065D01*
X165385163Y-96208460D01*
X165379896Y-96072354D01*
X165375087Y-95925364D01*
X165370889Y-95787608D01*
X165365427Y-95616025D01*
X165359905Y-95449505D01*
X165354776Y-95301748D01*
X165350497Y-95186455D01*
X165350133Y-95177144D01*
X165344932Y-95042344D01*
X165338855Y-94882219D01*
X165332628Y-94716020D01*
X165326978Y-94563000D01*
X165325746Y-94529768D01*
X165320183Y-94388918D01*
X165314276Y-94251399D01*
X165308659Y-94131486D01*
X165303963Y-94043455D01*
X165302544Y-94019668D01*
X165295740Y-93904882D01*
X165288032Y-93773993D01*
X165280828Y-93650909D01*
X165278412Y-93610468D01*
X165271092Y-93496909D01*
X165263692Y-93392647D01*
X165257494Y-93316091D01*
X165255948Y-93299162D01*
X165249350Y-93226795D01*
X165244261Y-93170937D01*
X165392713Y-93170937D01*
X165395578Y-93212182D01*
X165400720Y-93267578D01*
X165410243Y-93392563D01*
X165420758Y-93554151D01*
X165431927Y-93746393D01*
X165443412Y-93963339D01*
X165454872Y-94199039D01*
X165465969Y-94447545D01*
X165470864Y-94561797D01*
X165477393Y-94713437D01*
X165483696Y-94859072D01*
X165488904Y-94978636D01*
X165489894Y-95002003D01*
X165493907Y-95106861D01*
X165498700Y-95243918D01*
X165503915Y-95402411D01*
X165509196Y-95571572D01*
X165514185Y-95740636D01*
X165516540Y-95820240D01*
X165521430Y-95969956D01*
X165526368Y-96103146D01*
X165531050Y-96212399D01*
X165535171Y-96290305D01*
X165538426Y-96329455D01*
X165539048Y-96335815D01*
X165541166Y-96383974D01*
X165543599Y-96472222D01*
X165546269Y-96595994D01*
X165549095Y-96750724D01*
X165551998Y-96931847D01*
X165554899Y-97134796D01*
X165557717Y-97355005D01*
X165560373Y-97587909D01*
X165561299Y-97672761D01*
X165563937Y-97899807D01*
X165566626Y-98111455D01*
X165569296Y-98303307D01*
X165571877Y-98470967D01*
X165574298Y-98610036D01*
X165576490Y-98716117D01*
X165578382Y-98784813D01*
X165579905Y-98811727D01*
X165580740Y-98813181D01*
X165591741Y-98797289D01*
X165611007Y-98747614D01*
X165634949Y-98673182D01*
X165670211Y-98523279D01*
X165698208Y-98334349D01*
X165716730Y-98121592D01*
X165724827Y-97896040D01*
X165721547Y-97668727D01*
X165718765Y-97595661D01*
X165714206Y-97458255D01*
X165709275Y-97292694D01*
X165704272Y-97109625D01*
X165699495Y-96919694D01*
X165695245Y-96733545D01*
X165691507Y-96570887D01*
X165687413Y-96413693D01*
X165683321Y-96275229D01*
X165679447Y-96162354D01*
X165676011Y-96081930D01*
X165673229Y-96040818D01*
X165669858Y-96006600D01*
X165663924Y-95929443D01*
X165657247Y-95828757D01*
X165650731Y-95717545D01*
X165646610Y-95643718D01*
X165639424Y-95520444D01*
X165632554Y-95408388D01*
X165627052Y-95325000D01*
X165623935Y-95278103D01*
X165617709Y-95175014D01*
X165610925Y-95053979D01*
X165604581Y-94932455D01*
X165583899Y-94568712D01*
X165559104Y-94229274D01*
X165531038Y-93929124D01*
X165499883Y-93669966D01*
X165465820Y-93453508D01*
X165429030Y-93281455D01*
X165409998Y-93209444D01*
X165397220Y-93169403D01*
X165392713Y-93170937D01*
X165244261Y-93170937D01*
X165239644Y-93120264D01*
X165227607Y-92988108D01*
X165214019Y-92838870D01*
X165199656Y-92681091D01*
X165189992Y-92575873D01*
X165167438Y-92335995D01*
X165142314Y-92075233D01*
X165115247Y-91799663D01*
X165086865Y-91515364D01*
X165057794Y-91228416D01*
X165028661Y-90944896D01*
X165000093Y-90670884D01*
X164972717Y-90412458D01*
X164947160Y-90175696D01*
X164924049Y-89966677D01*
X164904011Y-89791479D01*
X164887673Y-89656182D01*
X164882467Y-89615120D01*
X164846438Y-89341386D01*
X164804066Y-89034588D01*
X164756249Y-88700356D01*
X164703880Y-88344320D01*
X164647856Y-87972112D01*
X164589071Y-87589361D01*
X164528421Y-87201699D01*
X164466802Y-86814757D01*
X164405109Y-86434164D01*
X164344237Y-86065551D01*
X164285082Y-85714551D01*
X164228538Y-85386791D01*
X164175502Y-85087905D01*
X164126869Y-84823522D01*
X164083534Y-84599273D01*
X164073810Y-84550423D01*
X164041139Y-84384443D01*
X164009682Y-84222021D01*
X163981430Y-84073583D01*
X163958372Y-83949556D01*
X163942498Y-83860364D01*
X163942450Y-83860084D01*
X163925996Y-83766868D01*
X163902748Y-83639928D01*
X163874865Y-83490798D01*
X163844503Y-83331016D01*
X163813818Y-83172118D01*
X163810027Y-83152555D01*
X163782292Y-83002493D01*
X163758245Y-82860575D01*
X163750228Y-82807863D01*
X163884135Y-82807863D01*
X163890287Y-82827205D01*
X163893295Y-82837921D01*
X163904847Y-82890042D01*
X163922592Y-82977162D01*
X163945153Y-83092307D01*
X163971152Y-83228500D01*
X163999210Y-83378765D01*
X164027316Y-83529757D01*
X164064063Y-83725090D01*
X164105183Y-83942020D01*
X164148335Y-84168236D01*
X164191177Y-84391424D01*
X164231366Y-84599273D01*
X164263534Y-84767550D01*
X164307920Y-85006570D01*
X164353583Y-85259003D01*
X164397908Y-85510179D01*
X164438283Y-85745431D01*
X164472093Y-85950091D01*
X164492310Y-86075734D01*
X164526837Y-86289905D01*
X164562734Y-86512142D01*
X164597830Y-86729030D01*
X164629956Y-86927152D01*
X164656941Y-87093091D01*
X164661217Y-87119366D01*
X164705299Y-87394727D01*
X164750933Y-87687166D01*
X164797106Y-87989723D01*
X164842811Y-88295437D01*
X164887036Y-88597349D01*
X164928772Y-88888499D01*
X164967009Y-89161926D01*
X165000737Y-89410670D01*
X165028946Y-89627773D01*
X165050626Y-89806273D01*
X165054756Y-89841996D01*
X165068609Y-89960131D01*
X165080843Y-90062037D01*
X165090261Y-90137829D01*
X165095662Y-90177621D01*
X165095700Y-90177861D01*
X165099564Y-90210951D01*
X165107431Y-90285202D01*
X165118828Y-90395918D01*
X165133281Y-90538405D01*
X165150317Y-90707968D01*
X165169460Y-90899913D01*
X165190239Y-91109543D01*
X165212179Y-91332166D01*
X165320913Y-92438636D01*
X165513877Y-92865818D01*
X165530289Y-92902265D01*
X165603341Y-93069145D01*
X165661637Y-93214226D01*
X165707569Y-93347216D01*
X165743530Y-93477817D01*
X165771912Y-93615737D01*
X165795109Y-93770679D01*
X165815513Y-93952350D01*
X165835516Y-94170455D01*
X165843044Y-94256339D01*
X165851731Y-94352211D01*
X165858583Y-94424455D01*
X165864901Y-94494200D01*
X165872787Y-94589811D01*
X165880478Y-94690000D01*
X165885712Y-94757153D01*
X165894411Y-94863684D01*
X165905808Y-95000281D01*
X165919223Y-95158871D01*
X165933977Y-95331378D01*
X165949392Y-95509727D01*
X165951549Y-95534575D01*
X165968963Y-95738023D01*
X165983302Y-95913125D01*
X165995254Y-96070525D01*
X166005503Y-96220864D01*
X166014737Y-96374785D01*
X166023643Y-96542929D01*
X166032905Y-96735938D01*
X166043212Y-96964455D01*
X166053278Y-97181378D01*
X166063411Y-97377493D01*
X166072904Y-97537975D01*
X166081549Y-97659314D01*
X166089136Y-97738000D01*
X166090413Y-97748808D01*
X166097410Y-97818472D01*
X166104226Y-97896040D01*
X166105713Y-97912975D01*
X166113789Y-98015091D01*
X166117638Y-98060005D01*
X166137165Y-98184163D01*
X166171014Y-98277232D01*
X166224457Y-98350357D01*
X166302763Y-98414681D01*
X166343595Y-98441705D01*
X166397127Y-98471662D01*
X166454631Y-98494698D01*
X166524525Y-98512867D01*
X166615225Y-98528226D01*
X166735150Y-98542830D01*
X166892717Y-98558735D01*
X166977767Y-98567021D01*
X167095688Y-98578887D01*
X167192347Y-98589071D01*
X167259503Y-98596696D01*
X167288918Y-98600885D01*
X167285407Y-98604860D01*
X167248082Y-98620785D01*
X167177785Y-98646354D01*
X167081357Y-98679117D01*
X166965645Y-98716625D01*
X166833875Y-98758612D01*
X166696662Y-98803194D01*
X166592117Y-98838901D01*
X166513762Y-98868410D01*
X166455114Y-98894394D01*
X166409694Y-98919531D01*
X166371021Y-98946495D01*
X166332614Y-98977961D01*
X166281709Y-99025150D01*
X166248292Y-99064559D01*
X166242528Y-99083755D01*
X166265471Y-99078011D01*
X166318178Y-99042599D01*
X166346408Y-99023926D01*
X166439359Y-98979942D01*
X166559467Y-98938787D01*
X166693489Y-98904640D01*
X166828182Y-98881680D01*
X166872077Y-98878032D01*
X166959874Y-98873299D01*
X167079730Y-98868333D01*
X167224034Y-98863414D01*
X167385176Y-98858823D01*
X167555545Y-98854840D01*
X167594103Y-98854076D01*
X167896831Y-98851219D01*
X168160443Y-98855236D01*
X168390878Y-98866676D01*
X168594077Y-98886088D01*
X168775979Y-98914021D01*
X168942523Y-98951025D01*
X169099649Y-98997649D01*
X169180431Y-99025624D01*
X169283016Y-99063874D01*
X169367189Y-99098312D01*
X169420136Y-99123892D01*
X169456924Y-99143714D01*
X169488774Y-99152682D01*
X169487429Y-99135557D01*
X169453825Y-99095038D01*
X169388896Y-99033823D01*
X169337886Y-98993316D01*
X169249168Y-98938970D01*
X169139664Y-98889391D01*
X169004323Y-98842915D01*
X168838094Y-98797875D01*
X168635924Y-98752607D01*
X168392761Y-98705445D01*
X168380740Y-98703235D01*
X168275689Y-98683392D01*
X168190891Y-98666455D01*
X168134750Y-98654158D01*
X168115670Y-98648238D01*
X168116879Y-98647489D01*
X168149805Y-98640797D01*
X168219720Y-98632243D01*
X168318638Y-98622616D01*
X168438575Y-98612702D01*
X168571545Y-98603288D01*
X168625582Y-98599699D01*
X168816215Y-98585348D01*
X168967972Y-98570472D01*
X169086704Y-98554141D01*
X169178260Y-98535426D01*
X169248491Y-98513401D01*
X169303245Y-98487134D01*
X169389842Y-98425468D01*
X169461069Y-98345052D01*
X169519144Y-98238547D01*
X169570938Y-98095909D01*
X169589194Y-98034790D01*
X169606838Y-97967479D01*
X169621667Y-97897335D01*
X169634215Y-97818943D01*
X169645015Y-97726887D01*
X169645541Y-97720784D01*
X169939026Y-97720784D01*
X169939783Y-97890231D01*
X169942406Y-98035931D01*
X169946998Y-98150423D01*
X169953662Y-98226245D01*
X169972246Y-98329427D01*
X169997363Y-98433730D01*
X170023303Y-98514882D01*
X170067658Y-98627000D01*
X170069500Y-98153636D01*
X170070443Y-98013640D01*
X170072632Y-97828438D01*
X170075711Y-97643130D01*
X170079415Y-97473143D01*
X170083483Y-97333909D01*
X170089683Y-97157537D01*
X170097733Y-96930801D01*
X170104554Y-96742231D01*
X170110334Y-96587048D01*
X170115260Y-96460474D01*
X170119520Y-96357733D01*
X170123302Y-96274046D01*
X170126794Y-96204637D01*
X170130182Y-96144727D01*
X170142136Y-95942048D01*
X170152901Y-95750674D01*
X170161912Y-95578147D01*
X170169909Y-95410218D01*
X170177635Y-95232636D01*
X170179450Y-95191154D01*
X170189095Y-95004258D01*
X170202827Y-94778083D01*
X170220759Y-94510958D01*
X170243001Y-94201215D01*
X170269664Y-93847182D01*
X170276767Y-93760987D01*
X170285202Y-93670242D01*
X170292340Y-93604727D01*
X170297200Y-93558977D01*
X170293995Y-93548652D01*
X170280258Y-93576898D01*
X170273343Y-93600107D01*
X170262426Y-93653700D01*
X170248426Y-93737537D01*
X170230969Y-93854221D01*
X170209683Y-94006359D01*
X170184194Y-94196556D01*
X170154129Y-94427416D01*
X170119115Y-94701545D01*
X170118587Y-94705734D01*
X170110655Y-94775541D01*
X170101802Y-94866320D01*
X170091746Y-94981659D01*
X170080209Y-95125148D01*
X170066910Y-95300374D01*
X170051568Y-95510926D01*
X170033904Y-95760393D01*
X170013637Y-96052364D01*
X170010543Y-96095663D01*
X170000781Y-96221921D01*
X169989220Y-96361424D01*
X169977748Y-96491091D01*
X169977259Y-96496450D01*
X169967858Y-96623221D01*
X169959597Y-96778471D01*
X169952580Y-96954740D01*
X169946911Y-97144567D01*
X169942693Y-97340490D01*
X169940030Y-97535050D01*
X169939026Y-97720784D01*
X169645541Y-97720784D01*
X169654600Y-97615751D01*
X169663504Y-97480119D01*
X169672259Y-97314576D01*
X169681400Y-97113705D01*
X169691459Y-96872091D01*
X169705746Y-96565023D01*
X169725591Y-96244502D01*
X169751057Y-95927228D01*
X169783775Y-95590545D01*
X169792870Y-95502781D01*
X169809974Y-95333227D01*
X169823468Y-95190642D01*
X169834503Y-95061946D01*
X169844228Y-94934061D01*
X169853792Y-94793909D01*
X169859665Y-94706807D01*
X169882009Y-94417907D01*
X169908268Y-94145219D01*
X169939690Y-93881211D01*
X169977519Y-93618350D01*
X170023001Y-93349105D01*
X170077383Y-93065944D01*
X170141910Y-92761333D01*
X170217829Y-92427742D01*
X170306384Y-92057636D01*
X170330787Y-91955762D01*
X170377482Y-91745063D01*
X170413516Y-91553236D01*
X170441949Y-91363004D01*
X170465839Y-91157091D01*
X170478154Y-91037875D01*
X170494665Y-90879348D01*
X170508231Y-90751797D01*
X170519902Y-90646018D01*
X170530729Y-90552807D01*
X170541762Y-90462961D01*
X170554052Y-90367275D01*
X170568651Y-90256545D01*
X170574243Y-90213770D01*
X170592652Y-90066347D01*
X170611197Y-89909832D01*
X170626603Y-89771636D01*
X170631866Y-89724273D01*
X170647124Y-89598050D01*
X170666449Y-89448116D01*
X170687898Y-89289352D01*
X170709528Y-89136636D01*
X170729881Y-88996326D01*
X170765864Y-88744770D01*
X170797214Y-88519827D01*
X170825651Y-88308848D01*
X170852897Y-88099183D01*
X170880670Y-87878182D01*
X170897820Y-87740434D01*
X170925349Y-87523555D01*
X170949657Y-87339742D01*
X170972025Y-87180752D01*
X170993735Y-87038341D01*
X171016067Y-86904268D01*
X171040303Y-86770288D01*
X171067725Y-86628158D01*
X171099613Y-86469636D01*
X171117642Y-86382115D01*
X171156922Y-86195445D01*
X171202017Y-85985111D01*
X171249946Y-85764873D01*
X171297725Y-85548491D01*
X171342370Y-85349727D01*
X171356501Y-85287266D01*
X171410081Y-85046646D01*
X171463634Y-84800588D01*
X171516333Y-84553304D01*
X171567353Y-84309004D01*
X171615870Y-84071901D01*
X171661056Y-83846207D01*
X171702087Y-83636132D01*
X171738138Y-83445888D01*
X171768383Y-83279688D01*
X171791995Y-83141741D01*
X171808151Y-83036261D01*
X171816023Y-82967459D01*
X171814788Y-82939546D01*
X171812277Y-82938294D01*
X171780165Y-82943691D01*
X171727749Y-82964665D01*
X171724984Y-82965962D01*
X171657641Y-82991794D01*
X171558042Y-83023537D01*
X171438396Y-83057834D01*
X171310911Y-83091326D01*
X171187796Y-83120657D01*
X171081257Y-83142468D01*
X171051597Y-83147301D01*
X170962917Y-83159436D01*
X170845794Y-83173548D01*
X170711986Y-83188255D01*
X170573257Y-83202175D01*
X170496554Y-83209527D01*
X170368087Y-83222065D01*
X170255615Y-83233315D01*
X170169133Y-83242271D01*
X170118636Y-83247928D01*
X170086916Y-83251649D01*
X169980631Y-83261244D01*
X169847901Y-83269508D01*
X169686260Y-83276497D01*
X169493242Y-83282263D01*
X169266380Y-83286860D01*
X169003209Y-83290343D01*
X168701263Y-83292764D01*
X168358076Y-83294177D01*
X167971182Y-83294636D01*
X167860544Y-83294617D01*
X167557169Y-83294300D01*
X167294268Y-83293513D01*
X167067561Y-83292152D01*
X166872765Y-83290116D01*
X166705600Y-83287301D01*
X166561784Y-83283605D01*
X166437036Y-83278923D01*
X166327074Y-83273154D01*
X166227617Y-83266195D01*
X166134383Y-83257942D01*
X166043091Y-83248294D01*
X166027353Y-83246519D01*
X165936994Y-83236462D01*
X165846818Y-83226582D01*
X165531383Y-83190678D01*
X165206562Y-83149046D01*
X164923066Y-83106908D01*
X164678285Y-83063755D01*
X164469613Y-83019073D01*
X164294444Y-82972350D01*
X164150169Y-82923076D01*
X164034182Y-82870737D01*
X163967786Y-82835971D01*
X163915275Y-82809944D01*
X163889928Y-82801341D01*
X163884135Y-82807863D01*
X163750228Y-82807863D01*
X163739309Y-82736071D01*
X163726905Y-82638250D01*
X163722454Y-82576380D01*
X163722456Y-82574629D01*
X163727598Y-82521813D01*
X163861000Y-82521813D01*
X163863603Y-82535306D01*
X163894575Y-82583783D01*
X163952603Y-82641688D01*
X164027698Y-82699891D01*
X164109869Y-82749264D01*
X164145445Y-82766111D01*
X164284988Y-82817669D01*
X164467866Y-82868314D01*
X164691930Y-82917679D01*
X164955030Y-82965396D01*
X165255018Y-83011100D01*
X165589744Y-83054424D01*
X165957061Y-83095000D01*
X166354818Y-83132462D01*
X166357408Y-83132686D01*
X166470441Y-83140993D01*
X166601635Y-83147821D01*
X166754992Y-83153243D01*
X166934514Y-83157328D01*
X167144201Y-83160150D01*
X167388056Y-83161780D01*
X167670079Y-83162288D01*
X167994273Y-83161746D01*
X168107306Y-83161383D01*
X168345486Y-83160460D01*
X168571643Y-83159379D01*
X168780896Y-83158175D01*
X168968366Y-83156883D01*
X169129173Y-83155539D01*
X169258437Y-83154178D01*
X169351278Y-83152834D01*
X169402818Y-83151545D01*
X169444347Y-83149518D01*
X169567291Y-83141964D01*
X169721991Y-83130974D01*
X169898591Y-83117366D01*
X170087238Y-83101955D01*
X170278075Y-83085560D01*
X170461248Y-83068997D01*
X170626902Y-83053082D01*
X170765182Y-83038632D01*
X170778682Y-83037113D01*
X170990163Y-83007478D01*
X171193789Y-82968579D01*
X171384106Y-82922244D01*
X171555657Y-82870302D01*
X171702985Y-82814583D01*
X171820636Y-82756917D01*
X171903152Y-82699131D01*
X171945079Y-82643056D01*
X171950616Y-82596662D01*
X171920658Y-82529156D01*
X171847709Y-82461885D01*
X171733612Y-82396406D01*
X171580209Y-82334279D01*
X171565143Y-82329192D01*
X171462131Y-82298809D01*
X171331397Y-82265274D01*
X171187352Y-82231811D01*
X171044404Y-82201644D01*
X170916962Y-82177995D01*
X170819436Y-82164088D01*
X170627518Y-82145182D01*
X170393579Y-82124067D01*
X170176857Y-82106598D01*
X169991636Y-82093986D01*
X169935471Y-82090547D01*
X169826493Y-82083342D01*
X169732223Y-82076462D01*
X169668364Y-82071022D01*
X169656246Y-82069922D01*
X169588340Y-82065146D01*
X169488943Y-82059359D01*
X169369432Y-82053194D01*
X169241182Y-82047281D01*
X169216913Y-82046226D01*
X169079539Y-82040093D01*
X168945549Y-82033872D01*
X168829194Y-82028237D01*
X168744727Y-82023859D01*
X168737513Y-82023499D01*
X168674332Y-82021387D01*
X168571110Y-82018891D01*
X168432983Y-82016100D01*
X168265088Y-82013103D01*
X168072562Y-82009987D01*
X167860542Y-82006839D01*
X167634163Y-82003749D01*
X167398564Y-82000804D01*
X167177302Y-81998502D01*
X166801779Y-81996459D01*
X166468283Y-81997346D01*
X166174176Y-82001225D01*
X165916816Y-82008154D01*
X165693563Y-82018195D01*
X165501777Y-82031408D01*
X165338818Y-82047853D01*
X165135052Y-82073764D01*
X164826189Y-82118945D01*
X164562125Y-82165827D01*
X164343202Y-82214340D01*
X164169760Y-82264412D01*
X164042137Y-82315975D01*
X164003371Y-82338345D01*
X163931489Y-82397177D01*
X163880426Y-82462431D01*
X163861000Y-82521813D01*
X163727598Y-82521813D01*
X163733879Y-82457292D01*
X163770393Y-82359846D01*
X163836214Y-82278430D01*
X163935561Y-82209181D01*
X164072650Y-82148238D01*
X164251701Y-82091738D01*
X164437084Y-82045643D01*
X164705196Y-81991937D01*
X164998724Y-81945412D01*
X165306138Y-81907850D01*
X165615909Y-81881031D01*
X165629957Y-81880128D01*
X165741579Y-81875074D01*
X165891109Y-81870986D01*
X166073601Y-81867828D01*
X166284107Y-81865565D01*
X166517683Y-81864161D01*
X166769380Y-81863582D01*
X167034254Y-81863792D01*
X167307357Y-81864755D01*
X167583743Y-81866436D01*
X167858467Y-81868801D01*
X168126581Y-81871813D01*
X168383139Y-81875437D01*
X168623194Y-81879639D01*
X168841802Y-81884382D01*
X169034014Y-81889632D01*
X169194885Y-81895353D01*
X169319469Y-81901510D01*
X169402818Y-81908067D01*
X169434280Y-81911081D01*
X169513346Y-81917399D01*
X169615364Y-81924649D01*
X169726091Y-81931786D01*
X169747056Y-81933077D01*
X169927316Y-81945014D01*
X170138316Y-81960377D01*
X170385129Y-81979545D01*
X170672826Y-82002902D01*
X170717302Y-82006829D01*
X170942811Y-82034355D01*
X171162410Y-82073112D01*
X171370351Y-82121261D01*
X171560884Y-82176961D01*
X171728261Y-82238374D01*
X171866732Y-82303658D01*
X171970549Y-82370975D01*
X172033962Y-82438485D01*
X172071602Y-82507211D01*
X172090634Y-82569935D01*
X172090327Y-82596662D01*
X172089862Y-82637289D01*
G36*
X172089862Y-82637289D02*
G01*
X172069107Y-82721549D01*
X172028190Y-82834993D01*
X172014243Y-82872380D01*
X171982759Y-82967459D01*
X171977767Y-82982536D01*
X171948917Y-83087098D01*
X171932969Y-83167636D01*
X171926922Y-83208886D01*
X171910752Y-83303172D01*
X171886941Y-83432536D01*
X171856691Y-83590994D01*
X171821204Y-83772564D01*
X171781682Y-83971262D01*
X171739326Y-84181105D01*
X171695339Y-84396111D01*
X171650923Y-84610295D01*
X171607278Y-84817675D01*
X171565608Y-85012268D01*
X171527114Y-85188091D01*
X171507750Y-85275347D01*
X171438472Y-85588299D01*
X171378291Y-85861929D01*
X171326326Y-86100787D01*
X171281698Y-86309424D01*
X171243527Y-86492390D01*
X171210934Y-86654235D01*
X171183038Y-86799510D01*
X171158960Y-86932765D01*
X171137820Y-87058550D01*
X171118738Y-87181415D01*
X171100835Y-87305912D01*
X171083230Y-87436590D01*
X171065044Y-87578000D01*
X171043271Y-87747603D01*
X171015884Y-87956779D01*
X170985376Y-88186539D01*
X170953460Y-88424061D01*
X170921851Y-88656519D01*
X170892261Y-88871091D01*
X170853489Y-89154817D01*
X170809825Y-89486079D01*
X170767439Y-89819629D01*
X170726933Y-90150135D01*
X170688910Y-90472267D01*
X170653971Y-90780692D01*
X170622718Y-91070081D01*
X170595755Y-91335100D01*
X170573684Y-91570421D01*
X170557106Y-91770710D01*
X170546623Y-91930636D01*
X170538921Y-92073387D01*
X170525339Y-92306264D01*
X170512002Y-92512002D01*
X170499507Y-92681091D01*
X170497105Y-92712442D01*
X170490477Y-92807871D01*
X170483123Y-92922853D01*
X170476238Y-93039000D01*
X170473305Y-93089628D01*
X170466016Y-93207528D01*
X170458749Y-93316084D01*
X170452714Y-93396909D01*
X170439409Y-93558977D01*
X170433211Y-93634490D01*
X170410973Y-93909362D01*
X170392033Y-94149499D01*
X170375951Y-94361289D01*
X170362285Y-94551114D01*
X170350594Y-94725361D01*
X170340438Y-94890416D01*
X170331375Y-95052662D01*
X170322964Y-95218486D01*
X170314764Y-95394273D01*
X170310164Y-95492038D01*
X170303638Y-95620227D01*
X170297258Y-95735584D01*
X170291914Y-95821455D01*
X170291067Y-95834132D01*
X170285978Y-95921453D01*
X170279971Y-96038430D01*
X170273727Y-96171316D01*
X170267926Y-96306364D01*
X170266206Y-96347530D01*
X170260525Y-96470722D01*
X170254767Y-96579277D01*
X170249516Y-96662689D01*
X170245359Y-96710455D01*
X170244951Y-96714399D01*
X170242548Y-96760791D01*
X170239734Y-96846829D01*
X170236630Y-96967044D01*
X170233359Y-97115966D01*
X170230043Y-97288125D01*
X170226802Y-97478051D01*
X170223760Y-97680273D01*
X170222034Y-97806370D01*
X170219495Y-98018345D01*
X170218141Y-98192715D01*
X170218119Y-98335127D01*
X170219581Y-98451231D01*
X170222676Y-98546675D01*
X170227555Y-98627107D01*
X170234366Y-98698176D01*
X170243259Y-98765530D01*
X170254386Y-98834818D01*
X170329814Y-99178460D01*
X170438285Y-99502765D01*
X170445217Y-99517488D01*
X170580406Y-99804636D01*
X170630407Y-99897069D01*
X170652332Y-99937602D01*
X170778985Y-100177874D01*
X170886324Y-100390305D01*
X170973295Y-100572646D01*
X171038842Y-100722645D01*
X171081913Y-100838053D01*
X171101451Y-100916618D01*
X171103534Y-100935112D01*
X171099813Y-101124388D01*
X171053211Y-101310668D01*
X171052196Y-101314728D01*
X170962370Y-101501357D01*
X170832020Y-101679500D01*
X170784608Y-101731736D01*
X170724543Y-101788270D01*
X170657170Y-101837617D01*
X170570728Y-101888122D01*
X170453454Y-101948133D01*
X170332171Y-102004876D01*
X170137145Y-102086416D01*
X170128093Y-102090201D01*
X169907062Y-102172873D01*
X169683387Y-102247906D01*
X169471374Y-102310316D01*
X169285332Y-102355117D01*
X169188391Y-102373127D01*
X169042463Y-102396407D01*
X168887701Y-102417837D01*
X168744727Y-102434391D01*
X168713860Y-102437332D01*
X168545397Y-102449359D01*
X168344893Y-102458528D01*
X168123504Y-102464745D01*
X167892386Y-102467917D01*
X167662694Y-102467949D01*
X167445583Y-102464749D01*
X167252209Y-102458221D01*
X167093727Y-102448272D01*
X166833214Y-102420550D01*
X166453848Y-102359412D01*
X166095857Y-102276437D01*
X165764766Y-102173195D01*
X165466103Y-102051255D01*
X165205396Y-101912185D01*
X165087971Y-101834359D01*
X165060146Y-101811013D01*
X165340025Y-101811013D01*
X165345905Y-101821282D01*
X165384334Y-101848491D01*
X165456071Y-101889085D01*
X165591614Y-101950827D01*
X165757764Y-102014350D01*
X165945611Y-102076920D01*
X166146248Y-102135806D01*
X166350767Y-102188274D01*
X166550260Y-102231593D01*
X166735818Y-102263030D01*
X166751461Y-102265225D01*
X166848523Y-102279034D01*
X166933603Y-102291432D01*
X166989818Y-102299962D01*
X166992631Y-102300354D01*
X167038780Y-102303629D01*
X167123614Y-102307229D01*
X167240502Y-102310961D01*
X167382813Y-102314633D01*
X167543917Y-102318054D01*
X167717182Y-102321031D01*
X167789401Y-102322011D01*
X168085396Y-102322965D01*
X168345288Y-102317978D01*
X168577060Y-102306547D01*
X168788691Y-102288168D01*
X168988162Y-102262338D01*
X169183454Y-102228554D01*
X169247101Y-102215486D01*
X169351283Y-102191651D01*
X169455732Y-102165387D01*
X169551384Y-102139213D01*
X169629177Y-102115647D01*
X169680047Y-102097209D01*
X169694931Y-102086416D01*
X169686368Y-102085690D01*
X169641467Y-102091505D01*
X169567612Y-102105071D01*
X169475187Y-102124583D01*
X169445506Y-102130950D01*
X169258980Y-102162879D01*
X169033699Y-102190098D01*
X168775777Y-102212159D01*
X168491324Y-102228610D01*
X168186452Y-102239002D01*
X167867273Y-102242886D01*
X167603349Y-102240788D01*
X167253833Y-102228078D01*
X166931327Y-102202296D01*
X166625158Y-102161622D01*
X166324652Y-102104234D01*
X166019133Y-102028312D01*
X165697929Y-101932036D01*
X165350364Y-101813585D01*
X165340025Y-101811013D01*
X165060146Y-101811013D01*
X164963753Y-101730135D01*
X164866516Y-101615217D01*
X164785731Y-101478727D01*
X164741467Y-101385779D01*
X164684162Y-101230966D01*
X164660357Y-101093335D01*
X164666954Y-101005364D01*
X165270333Y-101005364D01*
X165270699Y-101036961D01*
X165274964Y-101131363D01*
X165283107Y-101240448D01*
X165293999Y-101354085D01*
X165306510Y-101462147D01*
X165319508Y-101554505D01*
X165331863Y-101621029D01*
X165342446Y-101651592D01*
X165354531Y-101658296D01*
X165405045Y-101678418D01*
X165485952Y-101707236D01*
X165588568Y-101741933D01*
X165704211Y-101779691D01*
X165824201Y-101817694D01*
X165939853Y-101853124D01*
X166042487Y-101883164D01*
X166123419Y-101904998D01*
X166164892Y-101915170D01*
X166393653Y-101965813D01*
X166638907Y-102012355D01*
X166880577Y-102051217D01*
X167098590Y-102078822D01*
X167199480Y-102086507D01*
X167347414Y-102092772D01*
X167524977Y-102096737D01*
X167723501Y-102098468D01*
X167934318Y-102098028D01*
X168148763Y-102095483D01*
X168358167Y-102090897D01*
X168553865Y-102084336D01*
X168727188Y-102075865D01*
X168869471Y-102065549D01*
X169094889Y-102040019D01*
X169376085Y-101994957D01*
X169651238Y-101937174D01*
X169910339Y-101869078D01*
X170143379Y-101793077D01*
X170340350Y-101711581D01*
X170341567Y-101711002D01*
X170430509Y-101667718D01*
X170486910Y-101635178D01*
X170520076Y-101604918D01*
X170539317Y-101568477D01*
X170553941Y-101517390D01*
X170563405Y-101475116D01*
X170580267Y-101310668D01*
X170569399Y-101124967D01*
X170530278Y-100913199D01*
X170462385Y-100670545D01*
X170422252Y-100548348D01*
X170376764Y-100424252D01*
X170338898Y-100340797D01*
X170307447Y-100295417D01*
X170281205Y-100285547D01*
X170206295Y-100307204D01*
X169846334Y-100403936D01*
X169509754Y-100482009D01*
X169202234Y-100540198D01*
X168929454Y-100577276D01*
X168851712Y-100585279D01*
X168734837Y-100597295D01*
X168632339Y-100607814D01*
X168560000Y-100615216D01*
X168525264Y-100618997D01*
X168440896Y-100629751D01*
X168375273Y-100640104D01*
X168339278Y-100644269D01*
X168256520Y-100649012D01*
X168140375Y-100652874D01*
X167998122Y-100655832D01*
X167837038Y-100657867D01*
X167664401Y-100658959D01*
X167487490Y-100659086D01*
X167313582Y-100658229D01*
X167149955Y-100656367D01*
X167003888Y-100653480D01*
X166882659Y-100649547D01*
X166793545Y-100644547D01*
X166539302Y-100616320D01*
X166250457Y-100568335D01*
X165962066Y-100505713D01*
X165695102Y-100432504D01*
X165603967Y-100404353D01*
X165512295Y-100376167D01*
X165444093Y-100355348D01*
X165409680Y-100345056D01*
X165399201Y-100347620D01*
X165375829Y-100383018D01*
X165351160Y-100451917D01*
X165326966Y-100545930D01*
X165305016Y-100656668D01*
X165287081Y-100775745D01*
X165274929Y-100894773D01*
X165270333Y-101005364D01*
X164666954Y-101005364D01*
X164670108Y-100963296D01*
X164713473Y-100831265D01*
X164790512Y-100687653D01*
X164825294Y-100627952D01*
X164892950Y-100499983D01*
X164969709Y-100343586D01*
X165051443Y-100168102D01*
X165104993Y-100047984D01*
X165615909Y-100047984D01*
X165629467Y-100067652D01*
X165679818Y-100101303D01*
X165759583Y-100141955D01*
X165860507Y-100186233D01*
X165974340Y-100230762D01*
X166092828Y-100272167D01*
X166207720Y-100307076D01*
X166310762Y-100332112D01*
X166408035Y-100350158D01*
X166523390Y-100368766D01*
X166620364Y-100381675D01*
X166684757Y-100388877D01*
X166800819Y-100402309D01*
X166909000Y-100415274D01*
X166930920Y-100417474D01*
X167010921Y-100422356D01*
X167121127Y-100426501D01*
X167251995Y-100429805D01*
X167393978Y-100432166D01*
X167537531Y-100433483D01*
X167673110Y-100433654D01*
X167791169Y-100432575D01*
X167882162Y-100430146D01*
X167936545Y-100426264D01*
X167965529Y-100422738D01*
X168034604Y-100415132D01*
X168128882Y-100405196D01*
X168236727Y-100394173D01*
X168478831Y-100368410D01*
X168745751Y-100335580D01*
X168977677Y-100301079D01*
X169180833Y-100263736D01*
X169361442Y-100222382D01*
X169525726Y-100175847D01*
X169679909Y-100122962D01*
X169747358Y-100096220D01*
X169848794Y-100050934D01*
X169943297Y-100003502D01*
X170021902Y-99958799D01*
X170075640Y-99921697D01*
X170095545Y-99897069D01*
X170081678Y-99897753D01*
X170039884Y-99911730D01*
X169985238Y-99933836D01*
X169933210Y-99957755D01*
X169899273Y-99977174D01*
X169883309Y-99985939D01*
X169830863Y-100007403D01*
X169760727Y-100031627D01*
X169743463Y-100036935D01*
X169698307Y-100048952D01*
X169642524Y-100060902D01*
X169570244Y-100073716D01*
X169475595Y-100088320D01*
X169352706Y-100105645D01*
X169195707Y-100126619D01*
X168998727Y-100152171D01*
X168992133Y-100152902D01*
X168933132Y-100156428D01*
X168838234Y-100159465D01*
X168716043Y-100161835D01*
X168575165Y-100163364D01*
X168424203Y-100163876D01*
X168396950Y-100163906D01*
X168245738Y-100165456D01*
X168105066Y-100169083D01*
X167983844Y-100174413D01*
X167890980Y-100181069D01*
X167835385Y-100188676D01*
X167773826Y-100199366D01*
X167653623Y-100210679D01*
X167501716Y-100217758D01*
X167326441Y-100220748D01*
X167136135Y-100219795D01*
X166939134Y-100215045D01*
X166743774Y-100206643D01*
X166558393Y-100194735D01*
X166391325Y-100179468D01*
X166250909Y-100160986D01*
X166191649Y-100150636D01*
X166075117Y-100126848D01*
X165956145Y-100099033D01*
X165846708Y-100070237D01*
X165758778Y-100043506D01*
X165704329Y-100021890D01*
X165676044Y-100011438D01*
X165633526Y-100016238D01*
X165615909Y-100047984D01*
X165104993Y-100047984D01*
X165134021Y-99982871D01*
X165213314Y-99797232D01*
X165285194Y-99620526D01*
X165328971Y-99505575D01*
X166300716Y-99505575D01*
X166312314Y-99525028D01*
X166367900Y-99575745D01*
X166461936Y-99636462D01*
X166590454Y-99704983D01*
X166749486Y-99779111D01*
X166935063Y-99856651D01*
X167290000Y-99997732D01*
X167601727Y-100011944D01*
X167613266Y-100012472D01*
X167740545Y-100018513D01*
X167860977Y-100024583D01*
X167961463Y-100030005D01*
X168028909Y-100034098D01*
X168062189Y-100035489D01*
X168151629Y-100032677D01*
X168225182Y-100022264D01*
X168246357Y-100017758D01*
X168320827Y-100005584D01*
X168419001Y-99992533D01*
X168525364Y-99980750D01*
X168543750Y-99978885D01*
X168639299Y-99966795D01*
X168722210Y-99949987D01*
X168805963Y-99924469D01*
X168904042Y-99886249D01*
X169029928Y-99831334D01*
X169046095Y-99824085D01*
X169175974Y-99764449D01*
X169269873Y-99717350D01*
X169333979Y-99678504D01*
X169374483Y-99643627D01*
X169397574Y-99608433D01*
X169409442Y-99568639D01*
X169415758Y-99517488D01*
X169405987Y-99453707D01*
X169367596Y-99402227D01*
X169294912Y-99356598D01*
X169182261Y-99310370D01*
X169113164Y-99285688D01*
X169003920Y-99249014D01*
X168904482Y-99220319D01*
X168806852Y-99198470D01*
X168703032Y-99182335D01*
X168585023Y-99170780D01*
X168444826Y-99162673D01*
X168274445Y-99156882D01*
X168065880Y-99152273D01*
X167850357Y-99149281D01*
X167621869Y-99149742D01*
X167423886Y-99155270D01*
X167247883Y-99166440D01*
X167085332Y-99183824D01*
X166927708Y-99207993D01*
X166766485Y-99239521D01*
X166750068Y-99243069D01*
X166571549Y-99288837D01*
X166436755Y-99338314D01*
X166346285Y-99391158D01*
X166300739Y-99447026D01*
X166300716Y-99505575D01*
X165328971Y-99505575D01*
X165345530Y-99462093D01*
X165390193Y-99331273D01*
X165396757Y-99309696D01*
X165405667Y-99276733D01*
X165413066Y-99241041D01*
X165419047Y-99198669D01*
X165423701Y-99145667D01*
X165427119Y-99078086D01*
X165429393Y-98991976D01*
X165430615Y-98883386D01*
X165430875Y-98748367D01*
X165430265Y-98582969D01*
X165428877Y-98383242D01*
X165426801Y-98145235D01*
X165424130Y-97865000D01*
X165422335Y-97689646D01*
X165419611Y-97452947D01*
X165416718Y-97231372D01*
X165413733Y-97029360D01*
X165410731Y-96851346D01*
X165407789Y-96701766D01*
X165404984Y-96585058D01*
X165402391Y-96505657D01*
X165400087Y-96468000D01*
X165399736Y-96465309D01*
X165395479Y-96413553D01*
X165390489Y-96325065D01*
X165385163Y-96208460D01*
X165379896Y-96072354D01*
X165375087Y-95925364D01*
X165370889Y-95787608D01*
X165365427Y-95616025D01*
X165359905Y-95449505D01*
X165354776Y-95301748D01*
X165350497Y-95186455D01*
X165350133Y-95177144D01*
X165344932Y-95042344D01*
X165338855Y-94882219D01*
X165332628Y-94716020D01*
X165326978Y-94563000D01*
X165325746Y-94529768D01*
X165320183Y-94388918D01*
X165314276Y-94251399D01*
X165308659Y-94131486D01*
X165303963Y-94043455D01*
X165302544Y-94019668D01*
X165295740Y-93904882D01*
X165288032Y-93773993D01*
X165280828Y-93650909D01*
X165278412Y-93610468D01*
X165271092Y-93496909D01*
X165263692Y-93392647D01*
X165257494Y-93316091D01*
X165255948Y-93299162D01*
X165249350Y-93226795D01*
X165244261Y-93170937D01*
X165392713Y-93170937D01*
X165395578Y-93212182D01*
X165400720Y-93267578D01*
X165410243Y-93392563D01*
X165420758Y-93554151D01*
X165431927Y-93746393D01*
X165443412Y-93963339D01*
X165454872Y-94199039D01*
X165465969Y-94447545D01*
X165470864Y-94561797D01*
X165477393Y-94713437D01*
X165483696Y-94859072D01*
X165488904Y-94978636D01*
X165489894Y-95002003D01*
X165493907Y-95106861D01*
X165498700Y-95243918D01*
X165503915Y-95402411D01*
X165509196Y-95571572D01*
X165514185Y-95740636D01*
X165516540Y-95820240D01*
X165521430Y-95969956D01*
X165526368Y-96103146D01*
X165531050Y-96212399D01*
X165535171Y-96290305D01*
X165538426Y-96329455D01*
X165539048Y-96335815D01*
X165541166Y-96383974D01*
X165543599Y-96472222D01*
X165546269Y-96595994D01*
X165549095Y-96750724D01*
X165551998Y-96931847D01*
X165554899Y-97134796D01*
X165557717Y-97355005D01*
X165560373Y-97587909D01*
X165561299Y-97672761D01*
X165563937Y-97899807D01*
X165566626Y-98111455D01*
X165569296Y-98303307D01*
X165571877Y-98470967D01*
X165574298Y-98610036D01*
X165576490Y-98716117D01*
X165578382Y-98784813D01*
X165579905Y-98811727D01*
X165580740Y-98813181D01*
X165591741Y-98797289D01*
X165611007Y-98747614D01*
X165634949Y-98673182D01*
X165670211Y-98523279D01*
X165698208Y-98334349D01*
X165716730Y-98121592D01*
X165724827Y-97896040D01*
X165721547Y-97668727D01*
X165718765Y-97595661D01*
X165714206Y-97458255D01*
X165709275Y-97292694D01*
X165704272Y-97109625D01*
X165699495Y-96919694D01*
X165695245Y-96733545D01*
X165691507Y-96570887D01*
X165687413Y-96413693D01*
X165683321Y-96275229D01*
X165679447Y-96162354D01*
X165676011Y-96081930D01*
X165673229Y-96040818D01*
X165669858Y-96006600D01*
X165663924Y-95929443D01*
X165657247Y-95828757D01*
X165650731Y-95717545D01*
X165646610Y-95643718D01*
X165639424Y-95520444D01*
X165632554Y-95408388D01*
X165627052Y-95325000D01*
X165623935Y-95278103D01*
X165617709Y-95175014D01*
X165610925Y-95053979D01*
X165604581Y-94932455D01*
X165583899Y-94568712D01*
X165559104Y-94229274D01*
X165531038Y-93929124D01*
X165499883Y-93669966D01*
X165465820Y-93453508D01*
X165429030Y-93281455D01*
X165409998Y-93209444D01*
X165397220Y-93169403D01*
X165392713Y-93170937D01*
X165244261Y-93170937D01*
X165239644Y-93120264D01*
X165227607Y-92988108D01*
X165214019Y-92838870D01*
X165199656Y-92681091D01*
X165189992Y-92575873D01*
X165167438Y-92335995D01*
X165142314Y-92075233D01*
X165115247Y-91799663D01*
X165086865Y-91515364D01*
X165057794Y-91228416D01*
X165028661Y-90944896D01*
X165000093Y-90670884D01*
X164972717Y-90412458D01*
X164947160Y-90175696D01*
X164924049Y-89966677D01*
X164904011Y-89791479D01*
X164887673Y-89656182D01*
X164882467Y-89615120D01*
X164846438Y-89341386D01*
X164804066Y-89034588D01*
X164756249Y-88700356D01*
X164703880Y-88344320D01*
X164647856Y-87972112D01*
X164589071Y-87589361D01*
X164528421Y-87201699D01*
X164466802Y-86814757D01*
X164405109Y-86434164D01*
X164344237Y-86065551D01*
X164285082Y-85714551D01*
X164228538Y-85386791D01*
X164175502Y-85087905D01*
X164126869Y-84823522D01*
X164083534Y-84599273D01*
X164073810Y-84550423D01*
X164041139Y-84384443D01*
X164009682Y-84222021D01*
X163981430Y-84073583D01*
X163958372Y-83949556D01*
X163942498Y-83860364D01*
X163942450Y-83860084D01*
X163925996Y-83766868D01*
X163902748Y-83639928D01*
X163874865Y-83490798D01*
X163844503Y-83331016D01*
X163813818Y-83172118D01*
X163810027Y-83152555D01*
X163782292Y-83002493D01*
X163758245Y-82860575D01*
X163750228Y-82807863D01*
X163884135Y-82807863D01*
X163890287Y-82827205D01*
X163893295Y-82837921D01*
X163904847Y-82890042D01*
X163922592Y-82977162D01*
X163945153Y-83092307D01*
X163971152Y-83228500D01*
X163999210Y-83378765D01*
X164027316Y-83529757D01*
X164064063Y-83725090D01*
X164105183Y-83942020D01*
X164148335Y-84168236D01*
X164191177Y-84391424D01*
X164231366Y-84599273D01*
X164263534Y-84767550D01*
X164307920Y-85006570D01*
X164353583Y-85259003D01*
X164397908Y-85510179D01*
X164438283Y-85745431D01*
X164472093Y-85950091D01*
X164492310Y-86075734D01*
X164526837Y-86289905D01*
X164562734Y-86512142D01*
X164597830Y-86729030D01*
X164629956Y-86927152D01*
X164656941Y-87093091D01*
X164661217Y-87119366D01*
X164705299Y-87394727D01*
X164750933Y-87687166D01*
X164797106Y-87989723D01*
X164842811Y-88295437D01*
X164887036Y-88597349D01*
X164928772Y-88888499D01*
X164967009Y-89161926D01*
X165000737Y-89410670D01*
X165028946Y-89627773D01*
X165050626Y-89806273D01*
X165054756Y-89841996D01*
X165068609Y-89960131D01*
X165080843Y-90062037D01*
X165090261Y-90137829D01*
X165095662Y-90177621D01*
X165095700Y-90177861D01*
X165099564Y-90210951D01*
X165107431Y-90285202D01*
X165118828Y-90395918D01*
X165133281Y-90538405D01*
X165150317Y-90707968D01*
X165169460Y-90899913D01*
X165190239Y-91109543D01*
X165212179Y-91332166D01*
X165320913Y-92438636D01*
X165513877Y-92865818D01*
X165530289Y-92902265D01*
X165603341Y-93069145D01*
X165661637Y-93214226D01*
X165707569Y-93347216D01*
X165743530Y-93477817D01*
X165771912Y-93615737D01*
X165795109Y-93770679D01*
X165815513Y-93952350D01*
X165835516Y-94170455D01*
X165843044Y-94256339D01*
X165851731Y-94352211D01*
X165858583Y-94424455D01*
X165864901Y-94494200D01*
X165872787Y-94589811D01*
X165880478Y-94690000D01*
X165885712Y-94757153D01*
X165894411Y-94863684D01*
X165905808Y-95000281D01*
X165919223Y-95158871D01*
X165933977Y-95331378D01*
X165949392Y-95509727D01*
X165951549Y-95534575D01*
X165968963Y-95738023D01*
X165983302Y-95913125D01*
X165995254Y-96070525D01*
X166005503Y-96220864D01*
X166014737Y-96374785D01*
X166023643Y-96542929D01*
X166032905Y-96735938D01*
X166043212Y-96964455D01*
X166053278Y-97181378D01*
X166063411Y-97377493D01*
X166072904Y-97537975D01*
X166081549Y-97659314D01*
X166089136Y-97738000D01*
X166090413Y-97748808D01*
X166097410Y-97818472D01*
X166104226Y-97896040D01*
X166105713Y-97912975D01*
X166113789Y-98015091D01*
X166117638Y-98060005D01*
X166137165Y-98184163D01*
X166171014Y-98277232D01*
X166224457Y-98350357D01*
X166302763Y-98414681D01*
X166343595Y-98441705D01*
X166397127Y-98471662D01*
X166454631Y-98494698D01*
X166524525Y-98512867D01*
X166615225Y-98528226D01*
X166735150Y-98542830D01*
X166892717Y-98558735D01*
X166977767Y-98567021D01*
X167095688Y-98578887D01*
X167192347Y-98589071D01*
X167259503Y-98596696D01*
X167288918Y-98600885D01*
X167285407Y-98604860D01*
X167248082Y-98620785D01*
X167177785Y-98646354D01*
X167081357Y-98679117D01*
X166965645Y-98716625D01*
X166833875Y-98758612D01*
X166696662Y-98803194D01*
X166592117Y-98838901D01*
X166513762Y-98868410D01*
X166455114Y-98894394D01*
X166409694Y-98919531D01*
X166371021Y-98946495D01*
X166332614Y-98977961D01*
X166281709Y-99025150D01*
X166248292Y-99064559D01*
X166242528Y-99083755D01*
X166265471Y-99078011D01*
X166318178Y-99042599D01*
X166346408Y-99023926D01*
X166439359Y-98979942D01*
X166559467Y-98938787D01*
X166693489Y-98904640D01*
X166828182Y-98881680D01*
X166872077Y-98878032D01*
X166959874Y-98873299D01*
X167079730Y-98868333D01*
X167224034Y-98863414D01*
X167385176Y-98858823D01*
X167555545Y-98854840D01*
X167594103Y-98854076D01*
X167896831Y-98851219D01*
X168160443Y-98855236D01*
X168390878Y-98866676D01*
X168594077Y-98886088D01*
X168775979Y-98914021D01*
X168942523Y-98951025D01*
X169099649Y-98997649D01*
X169180431Y-99025624D01*
X169283016Y-99063874D01*
X169367189Y-99098312D01*
X169420136Y-99123892D01*
X169456924Y-99143714D01*
X169488774Y-99152682D01*
X169487429Y-99135557D01*
X169453825Y-99095038D01*
X169388896Y-99033823D01*
X169337886Y-98993316D01*
X169249168Y-98938970D01*
X169139664Y-98889391D01*
X169004323Y-98842915D01*
X168838094Y-98797875D01*
X168635924Y-98752607D01*
X168392761Y-98705445D01*
X168380740Y-98703235D01*
X168275689Y-98683392D01*
X168190891Y-98666455D01*
X168134750Y-98654158D01*
X168115670Y-98648238D01*
X168116879Y-98647489D01*
X168149805Y-98640797D01*
X168219720Y-98632243D01*
X168318638Y-98622616D01*
X168438575Y-98612702D01*
X168571545Y-98603288D01*
X168625582Y-98599699D01*
X168816215Y-98585348D01*
X168967972Y-98570472D01*
X169086704Y-98554141D01*
X169178260Y-98535426D01*
X169248491Y-98513401D01*
X169303245Y-98487134D01*
X169389842Y-98425468D01*
X169461069Y-98345052D01*
X169519144Y-98238547D01*
X169570938Y-98095909D01*
X169589194Y-98034790D01*
X169606838Y-97967479D01*
X169621667Y-97897335D01*
X169634215Y-97818943D01*
X169645015Y-97726887D01*
X169645541Y-97720784D01*
X169939026Y-97720784D01*
X169939783Y-97890231D01*
X169942406Y-98035931D01*
X169946998Y-98150423D01*
X169953662Y-98226245D01*
X169972246Y-98329427D01*
X169997363Y-98433730D01*
X170023303Y-98514882D01*
X170067658Y-98627000D01*
X170069500Y-98153636D01*
X170070443Y-98013640D01*
X170072632Y-97828438D01*
X170075711Y-97643130D01*
X170079415Y-97473143D01*
X170083483Y-97333909D01*
X170089683Y-97157537D01*
X170097733Y-96930801D01*
X170104554Y-96742231D01*
X170110334Y-96587048D01*
X170115260Y-96460474D01*
X170119520Y-96357733D01*
X170123302Y-96274046D01*
X170126794Y-96204637D01*
X170130182Y-96144727D01*
X170142136Y-95942048D01*
X170152901Y-95750674D01*
X170161912Y-95578147D01*
X170169909Y-95410218D01*
X170177635Y-95232636D01*
X170179450Y-95191154D01*
X170189095Y-95004258D01*
X170202827Y-94778083D01*
X170220759Y-94510958D01*
X170243001Y-94201215D01*
X170269664Y-93847182D01*
X170276767Y-93760987D01*
X170285202Y-93670242D01*
X170292340Y-93604727D01*
X170297200Y-93558977D01*
X170293995Y-93548652D01*
X170280258Y-93576898D01*
X170273343Y-93600107D01*
X170262426Y-93653700D01*
X170248426Y-93737537D01*
X170230969Y-93854221D01*
X170209683Y-94006359D01*
X170184194Y-94196556D01*
X170154129Y-94427416D01*
X170119115Y-94701545D01*
X170118587Y-94705734D01*
X170110655Y-94775541D01*
X170101802Y-94866320D01*
X170091746Y-94981659D01*
X170080209Y-95125148D01*
X170066910Y-95300374D01*
X170051568Y-95510926D01*
X170033904Y-95760393D01*
X170013637Y-96052364D01*
X170010543Y-96095663D01*
X170000781Y-96221921D01*
X169989220Y-96361424D01*
X169977748Y-96491091D01*
X169977259Y-96496450D01*
X169967858Y-96623221D01*
X169959597Y-96778471D01*
X169952580Y-96954740D01*
X169946911Y-97144567D01*
X169942693Y-97340490D01*
X169940030Y-97535050D01*
X169939026Y-97720784D01*
X169645541Y-97720784D01*
X169654600Y-97615751D01*
X169663504Y-97480119D01*
X169672259Y-97314576D01*
X169681400Y-97113705D01*
X169691459Y-96872091D01*
X169705746Y-96565023D01*
X169725591Y-96244502D01*
X169751057Y-95927228D01*
X169783775Y-95590545D01*
X169792870Y-95502781D01*
X169809974Y-95333227D01*
X169823468Y-95190642D01*
X169834503Y-95061946D01*
X169844228Y-94934061D01*
X169853792Y-94793909D01*
X169859665Y-94706807D01*
X169882009Y-94417907D01*
X169908268Y-94145219D01*
X169939690Y-93881211D01*
X169977519Y-93618350D01*
X170023001Y-93349105D01*
X170077383Y-93065944D01*
X170141910Y-92761333D01*
X170217829Y-92427742D01*
X170306384Y-92057636D01*
X170330787Y-91955762D01*
X170377482Y-91745063D01*
X170413516Y-91553236D01*
X170441949Y-91363004D01*
X170465839Y-91157091D01*
X170478154Y-91037875D01*
X170494665Y-90879348D01*
X170508231Y-90751797D01*
X170519902Y-90646018D01*
X170530729Y-90552807D01*
X170541762Y-90462961D01*
X170554052Y-90367275D01*
X170568651Y-90256545D01*
X170574243Y-90213770D01*
X170592652Y-90066347D01*
X170611197Y-89909832D01*
X170626603Y-89771636D01*
X170631866Y-89724273D01*
X170647124Y-89598050D01*
X170666449Y-89448116D01*
X170687898Y-89289352D01*
X170709528Y-89136636D01*
X170729881Y-88996326D01*
X170765864Y-88744770D01*
X170797214Y-88519827D01*
X170825651Y-88308848D01*
X170852897Y-88099183D01*
X170880670Y-87878182D01*
X170897820Y-87740434D01*
X170925349Y-87523555D01*
X170949657Y-87339742D01*
X170972025Y-87180752D01*
X170993735Y-87038341D01*
X171016067Y-86904268D01*
X171040303Y-86770288D01*
X171067725Y-86628158D01*
X171099613Y-86469636D01*
X171117642Y-86382115D01*
X171156922Y-86195445D01*
X171202017Y-85985111D01*
X171249946Y-85764873D01*
X171297725Y-85548491D01*
X171342370Y-85349727D01*
X171356501Y-85287266D01*
X171410081Y-85046646D01*
X171463634Y-84800588D01*
X171516333Y-84553304D01*
X171567353Y-84309004D01*
X171615870Y-84071901D01*
X171661056Y-83846207D01*
X171702087Y-83636132D01*
X171738138Y-83445888D01*
X171768383Y-83279688D01*
X171791995Y-83141741D01*
X171808151Y-83036261D01*
X171816023Y-82967459D01*
X171814788Y-82939546D01*
X171812277Y-82938294D01*
X171780165Y-82943691D01*
X171727749Y-82964665D01*
X171724984Y-82965962D01*
X171657641Y-82991794D01*
X171558042Y-83023537D01*
X171438396Y-83057834D01*
X171310911Y-83091326D01*
X171187796Y-83120657D01*
X171081257Y-83142468D01*
X171051597Y-83147301D01*
X170962917Y-83159436D01*
X170845794Y-83173548D01*
X170711986Y-83188255D01*
X170573257Y-83202175D01*
X170496554Y-83209527D01*
X170368087Y-83222065D01*
X170255615Y-83233315D01*
X170169133Y-83242271D01*
X170118636Y-83247928D01*
X170086916Y-83251649D01*
X169980631Y-83261244D01*
X169847901Y-83269508D01*
X169686260Y-83276497D01*
X169493242Y-83282263D01*
X169266380Y-83286860D01*
X169003209Y-83290343D01*
X168701263Y-83292764D01*
X168358076Y-83294177D01*
X167971182Y-83294636D01*
X167860544Y-83294617D01*
X167557169Y-83294300D01*
X167294268Y-83293513D01*
X167067561Y-83292152D01*
X166872765Y-83290116D01*
X166705600Y-83287301D01*
X166561784Y-83283605D01*
X166437036Y-83278923D01*
X166327074Y-83273154D01*
X166227617Y-83266195D01*
X166134383Y-83257942D01*
X166043091Y-83248294D01*
X166027353Y-83246519D01*
X165936994Y-83236462D01*
X165846818Y-83226582D01*
X165531383Y-83190678D01*
X165206562Y-83149046D01*
X164923066Y-83106908D01*
X164678285Y-83063755D01*
X164469613Y-83019073D01*
X164294444Y-82972350D01*
X164150169Y-82923076D01*
X164034182Y-82870737D01*
X163967786Y-82835971D01*
X163915275Y-82809944D01*
X163889928Y-82801341D01*
X163884135Y-82807863D01*
X163750228Y-82807863D01*
X163739309Y-82736071D01*
X163726905Y-82638250D01*
X163722454Y-82576380D01*
X163722456Y-82574629D01*
X163727598Y-82521813D01*
X163861000Y-82521813D01*
X163863603Y-82535306D01*
X163894575Y-82583783D01*
X163952603Y-82641688D01*
X164027698Y-82699891D01*
X164109869Y-82749264D01*
X164145445Y-82766111D01*
X164284988Y-82817669D01*
X164467866Y-82868314D01*
X164691930Y-82917679D01*
X164955030Y-82965396D01*
X165255018Y-83011100D01*
X165589744Y-83054424D01*
X165957061Y-83095000D01*
X166354818Y-83132462D01*
X166357408Y-83132686D01*
X166470441Y-83140993D01*
X166601635Y-83147821D01*
X166754992Y-83153243D01*
X166934514Y-83157328D01*
X167144201Y-83160150D01*
X167388056Y-83161780D01*
X167670079Y-83162288D01*
X167994273Y-83161746D01*
X168107306Y-83161383D01*
X168345486Y-83160460D01*
X168571643Y-83159379D01*
X168780896Y-83158175D01*
X168968366Y-83156883D01*
X169129173Y-83155539D01*
X169258437Y-83154178D01*
X169351278Y-83152834D01*
X169402818Y-83151545D01*
X169444347Y-83149518D01*
X169567291Y-83141964D01*
X169721991Y-83130974D01*
X169898591Y-83117366D01*
X170087238Y-83101955D01*
X170278075Y-83085560D01*
X170461248Y-83068997D01*
X170626902Y-83053082D01*
X170765182Y-83038632D01*
X170778682Y-83037113D01*
X170990163Y-83007478D01*
X171193789Y-82968579D01*
X171384106Y-82922244D01*
X171555657Y-82870302D01*
X171702985Y-82814583D01*
X171820636Y-82756917D01*
X171903152Y-82699131D01*
X171945079Y-82643056D01*
X171950616Y-82596662D01*
X171920658Y-82529156D01*
X171847709Y-82461885D01*
X171733612Y-82396406D01*
X171580209Y-82334279D01*
X171565143Y-82329192D01*
X171462131Y-82298809D01*
X171331397Y-82265274D01*
X171187352Y-82231811D01*
X171044404Y-82201644D01*
X170916962Y-82177995D01*
X170819436Y-82164088D01*
X170627518Y-82145182D01*
X170393579Y-82124067D01*
X170176857Y-82106598D01*
X169991636Y-82093986D01*
X169935471Y-82090547D01*
X169826493Y-82083342D01*
X169732223Y-82076462D01*
X169668364Y-82071022D01*
X169656246Y-82069922D01*
X169588340Y-82065146D01*
X169488943Y-82059359D01*
X169369432Y-82053194D01*
X169241182Y-82047281D01*
X169216913Y-82046226D01*
X169079539Y-82040093D01*
X168945549Y-82033872D01*
X168829194Y-82028237D01*
X168744727Y-82023859D01*
X168737513Y-82023499D01*
X168674332Y-82021387D01*
X168571110Y-82018891D01*
X168432983Y-82016100D01*
X168265088Y-82013103D01*
X168072562Y-82009987D01*
X167860542Y-82006839D01*
X167634163Y-82003749D01*
X167398564Y-82000804D01*
X167177302Y-81998502D01*
X166801779Y-81996459D01*
X166468283Y-81997346D01*
X166174176Y-82001225D01*
X165916816Y-82008154D01*
X165693563Y-82018195D01*
X165501777Y-82031408D01*
X165338818Y-82047853D01*
X165135052Y-82073764D01*
X164826189Y-82118945D01*
X164562125Y-82165827D01*
X164343202Y-82214340D01*
X164169760Y-82264412D01*
X164042137Y-82315975D01*
X164003371Y-82338345D01*
X163931489Y-82397177D01*
X163880426Y-82462431D01*
X163861000Y-82521813D01*
X163727598Y-82521813D01*
X163733879Y-82457292D01*
X163770393Y-82359846D01*
X163836214Y-82278430D01*
X163935561Y-82209181D01*
X164072650Y-82148238D01*
X164251701Y-82091738D01*
X164437084Y-82045643D01*
X164705196Y-81991937D01*
X164998724Y-81945412D01*
X165306138Y-81907850D01*
X165615909Y-81881031D01*
X165629957Y-81880128D01*
X165741579Y-81875074D01*
X165891109Y-81870986D01*
X166073601Y-81867828D01*
X166284107Y-81865565D01*
X166517683Y-81864161D01*
X166769380Y-81863582D01*
X167034254Y-81863792D01*
X167307357Y-81864755D01*
X167583743Y-81866436D01*
X167858467Y-81868801D01*
X168126581Y-81871813D01*
X168383139Y-81875437D01*
X168623194Y-81879639D01*
X168841802Y-81884382D01*
X169034014Y-81889632D01*
X169194885Y-81895353D01*
X169319469Y-81901510D01*
X169402818Y-81908067D01*
X169434280Y-81911081D01*
X169513346Y-81917399D01*
X169615364Y-81924649D01*
X169726091Y-81931786D01*
X169747056Y-81933077D01*
X169927316Y-81945014D01*
X170138316Y-81960377D01*
X170385129Y-81979545D01*
X170672826Y-82002902D01*
X170717302Y-82006829D01*
X170942811Y-82034355D01*
X171162410Y-82073112D01*
X171370351Y-82121261D01*
X171560884Y-82176961D01*
X171728261Y-82238374D01*
X171866732Y-82303658D01*
X171970549Y-82370975D01*
X172033962Y-82438485D01*
X172071602Y-82507211D01*
X172090634Y-82569935D01*
X172090327Y-82596662D01*
X172089862Y-82637289D01*
G37*
%LPC*%
D13*
X145000000Y-80500000D03*
D14*
X147540000Y-80500000D03*
X150080000Y-80500000D03*
X152620000Y-80500000D03*
X155160000Y-80500000D03*
X157700000Y-80500000D03*
X160240000Y-80500000D03*
X162780000Y-80500000D03*
%LPD*%
D15*
X140250000Y-78250000D02*
X174250000Y-78250000D01*
X174250000Y-103250000D01*
X140250000Y-103250000D01*
X140250000Y-78250000D01*
M02*
