G04 #@! TF.GenerationSoftware,KiCad,Pcbnew,9.0.7*
G04 #@! TF.CreationDate,2026-04-23T21:26:37-05:00*
G04 #@! TF.ProjectId,psycho_badge_eink_dev,70737963-686f-45f6-9261-6467655f6569,1*
G04 #@! TF.SameCoordinates,Original*
G04 #@! TF.FileFunction,Soldermask,Top*
G04 #@! TF.FilePolarity,Negative*
%FSLAX46Y46*%
G04 Gerber Fmt 4.6, Leading zero omitted, Abs format (unit mm)*
G04 Created by KiCad (PCBNEW 9.0.7) date 2026-04-23 21:26:37*
%MOMM*%
%LPD*%
G01*
G04 APERTURE LIST*
G04 Aperture macros list*
%AMRoundRect*
0 Rectangle with rounded corners*
0 $1 Rounding radius*
0 $2 $3 $4 $5 $6 $7 $8 $9 X,Y pos of 4 corners*
0 Add a 4 corners polygon primitive as box body*
4,1,4,$2,$3,$4,$5,$6,$7,$8,$9,$2,$3,0*
0 Add four circle primitives for the rounded corners*
1,1,$1+$1,$2,$3*
1,1,$1+$1,$4,$5*
1,1,$1+$1,$6,$7*
1,1,$1+$1,$8,$9*
0 Add four rect primitives between the rounded corners*
20,1,$1+$1,$2,$3,$4,$5,0*
20,1,$1+$1,$4,$5,$6,$7,0*
20,1,$1+$1,$6,$7,$8,$9,0*
20,1,$1+$1,$8,$9,$2,$3,0*%
G04 Aperture macros list end*
%ADD10R,1.700000X1.700000*%
%ADD11O,1.700000X1.700000*%
%ADD12RoundRect,0.050800X0.750000X-0.175000X0.750000X0.175000X-0.750000X0.175000X-0.750000X-0.175000X0*%
%ADD13RoundRect,0.050800X1.250000X-0.750000X1.250000X0.750000X-1.250000X0.750000X-1.250000X-0.750000X0*%
%ADD14RoundRect,0.225000X-0.225000X-0.375000X0.225000X-0.375000X0.225000X0.375000X-0.225000X0.375000X0*%
%ADD15RoundRect,0.243750X-0.243750X-0.456250X0.243750X-0.456250X0.243750X0.456250X-0.243750X0.456250X0*%
%ADD16RoundRect,0.125000X-0.125000X0.487500X-0.125000X-0.487500X0.125000X-0.487500X0.125000X0.487500X0*%
%ADD17RoundRect,0.225000X0.225000X0.375000X-0.225000X0.375000X-0.225000X-0.375000X0.225000X-0.375000X0*%
%ADD18RoundRect,0.243750X-0.456250X0.243750X-0.456250X-0.243750X0.456250X-0.243750X0.456250X0.243750X0*%
%ADD19RoundRect,0.243750X0.456250X-0.243750X0.456250X0.243750X-0.456250X0.243750X-0.456250X-0.243750X0*%
%ADD20RoundRect,0.200000X-1.150000X0.200000X-1.150000X-0.200000X1.150000X-0.200000X1.150000X0.200000X0*%
G04 #@! TA.AperFunction,Profile*
%ADD21C,0.050000*%
G04 #@! TD*
G04 APERTURE END LIST*
D10*
X145000000Y-80500000D03*
D11*
X147540000Y-80500000D03*
X150080000Y-80500000D03*
X152620000Y-80500000D03*
X155160000Y-80500000D03*
X157700000Y-80500000D03*
X160240000Y-80500000D03*
X162780000Y-80500000D03*
D12*
X168450100Y-88250100D03*
X168450100Y-88749900D03*
X168450100Y-89250100D03*
X168450100Y-89749900D03*
X168450100Y-90250100D03*
X168450100Y-90749900D03*
X168450100Y-91250100D03*
X168450100Y-91749900D03*
X168450100Y-92250100D03*
X168450100Y-92749900D03*
X168450100Y-93250100D03*
X168450100Y-93749900D03*
X168450100Y-94250100D03*
X168450100Y-94749900D03*
X168450100Y-95250100D03*
X168450100Y-95749900D03*
X168450100Y-96250100D03*
X168450100Y-96749900D03*
X168450100Y-97250100D03*
X168450100Y-97749900D03*
X168450100Y-98250100D03*
X168450100Y-98749900D03*
X168450100Y-99250100D03*
X168450100Y-99749900D03*
D13*
X171549900Y-101449900D03*
X171549900Y-86550100D03*
D14*
X147350000Y-101000000D03*
X150650000Y-101000000D03*
D15*
X142062500Y-98750000D03*
X143937500Y-98750000D03*
D16*
X143650000Y-92062500D03*
X142350000Y-92062500D03*
X143000000Y-93937500D03*
D17*
X150650000Y-93000000D03*
X147350000Y-93000000D03*
D18*
X165000000Y-84312500D03*
X165000000Y-86187500D03*
D17*
X150650000Y-97000000D03*
X147350000Y-97000000D03*
D15*
X148562500Y-89000000D03*
X150437500Y-89000000D03*
X154062500Y-90500000D03*
X155937500Y-90500000D03*
X159062500Y-101000000D03*
X160937500Y-101000000D03*
X159062500Y-97500000D03*
X160937500Y-97500000D03*
X154062500Y-94000000D03*
X155937500Y-94000000D03*
D19*
X145000000Y-88937500D03*
X145000000Y-87062500D03*
D15*
X159062500Y-94000000D03*
X160937500Y-94000000D03*
X154062500Y-99500000D03*
X155937500Y-99500000D03*
X159062500Y-90500000D03*
X160937500Y-90500000D03*
D19*
X142500000Y-88937500D03*
X142500000Y-87062500D03*
D20*
X149500000Y-83850000D03*
X149500000Y-86150000D03*
D21*
X140250000Y-78250000D02*
X174250000Y-78250000D01*
X174250000Y-103250000D01*
X140250000Y-103250000D01*
X140250000Y-78250000D01*
M02*
