G04 #@! TF.GenerationSoftware,KiCad,Pcbnew,9.0.7*
G04 #@! TF.CreationDate,2026-04-23T21:26:37-05:00*
G04 #@! TF.ProjectId,psycho_badge_eink_dev,70737963-686f-45f6-9261-6467655f6569,1*
G04 #@! TF.SameCoordinates,Original*
G04 #@! TF.FileFunction,Copper,L1,Top*
G04 #@! TF.FilePolarity,Positive*
%FSLAX46Y46*%
G04 Gerber Fmt 4.6, Leading zero omitted, Abs format (unit mm)*
G04 Created by KiCad (PCBNEW 9.0.7) date 2026-04-23 21:26:37*
%MOMM*%
%LPD*%
G01*
G04 APERTURE LIST*
G04 Aperture macros list*
%AMRoundRect*
0 Rectangle with rounded corners*
0 $1 Rounding radius*
0 $2 $3 $4 $5 $6 $7 $8 $9 X,Y pos of 4 corners*
0 Add a 4 corners polygon primitive as box body*
4,1,4,$2,$3,$4,$5,$6,$7,$8,$9,$2,$3,0*
0 Add four circle primitives for the rounded corners*
1,1,$1+$1,$2,$3*
1,1,$1+$1,$4,$5*
1,1,$1+$1,$6,$7*
1,1,$1+$1,$8,$9*
0 Add four rect primitives between the rounded corners*
20,1,$1+$1,$2,$3,$4,$5,0*
20,1,$1+$1,$4,$5,$6,$7,0*
20,1,$1+$1,$6,$7,$8,$9,0*
20,1,$1+$1,$8,$9,$2,$3,0*%
G04 Aperture macros list end*
G04 #@! TA.AperFunction,ComponentPad*
%ADD10R,1.700000X1.700000*%
G04 #@! TD*
G04 #@! TA.AperFunction,ComponentPad*
%ADD11O,1.700000X1.700000*%
G04 #@! TD*
G04 #@! TA.AperFunction,SMDPad,CuDef*
%ADD12R,1.500000X0.350000*%
G04 #@! TD*
G04 #@! TA.AperFunction,SMDPad,CuDef*
%ADD13R,2.500000X1.500000*%
G04 #@! TD*
G04 #@! TA.AperFunction,SMDPad,CuDef*
%ADD14RoundRect,0.225000X-0.225000X-0.375000X0.225000X-0.375000X0.225000X0.375000X-0.225000X0.375000X0*%
G04 #@! TD*
G04 #@! TA.AperFunction,SMDPad,CuDef*
%ADD15RoundRect,0.243750X-0.243750X-0.456250X0.243750X-0.456250X0.243750X0.456250X-0.243750X0.456250X0*%
G04 #@! TD*
G04 #@! TA.AperFunction,SMDPad,CuDef*
%ADD16RoundRect,0.125000X-0.125000X0.487500X-0.125000X-0.487500X0.125000X-0.487500X0.125000X0.487500X0*%
G04 #@! TD*
G04 #@! TA.AperFunction,SMDPad,CuDef*
%ADD17RoundRect,0.225000X0.225000X0.375000X-0.225000X0.375000X-0.225000X-0.375000X0.225000X-0.375000X0*%
G04 #@! TD*
G04 #@! TA.AperFunction,SMDPad,CuDef*
%ADD18RoundRect,0.243750X-0.456250X0.243750X-0.456250X-0.243750X0.456250X-0.243750X0.456250X0.243750X0*%
G04 #@! TD*
G04 #@! TA.AperFunction,SMDPad,CuDef*
%ADD19RoundRect,0.243750X0.456250X-0.243750X0.456250X0.243750X-0.456250X0.243750X-0.456250X-0.243750X0*%
G04 #@! TD*
G04 #@! TA.AperFunction,SMDPad,CuDef*
%ADD20RoundRect,0.200000X-1.150000X0.200000X-1.150000X-0.200000X1.150000X-0.200000X1.150000X0.200000X0*%
G04 #@! TD*
G04 #@! TA.AperFunction,ViaPad*
%ADD21C,0.600000*%
G04 #@! TD*
G04 #@! TA.AperFunction,Conductor*
%ADD22C,0.200000*%
G04 #@! TD*
G04 #@! TA.AperFunction,Profile*
%ADD23C,0.050000*%
G04 #@! TD*
G04 APERTURE END LIST*
D10*
X145000000Y-80500000D03*
D11*
X147540000Y-80500000D03*
X150080000Y-80500000D03*
X152620000Y-80500000D03*
X155160000Y-80500000D03*
X157700000Y-80500000D03*
X160240000Y-80500000D03*
X162780000Y-80500000D03*
D12*
X168450100Y-88250100D03*
X168450100Y-88749900D03*
X168450100Y-89250100D03*
X168450100Y-89749900D03*
X168450100Y-90250100D03*
X168450100Y-90749900D03*
X168450100Y-91250100D03*
X168450100Y-91749900D03*
X168450100Y-92250100D03*
X168450100Y-92749900D03*
X168450100Y-93250100D03*
X168450100Y-93749900D03*
X168450100Y-94250100D03*
X168450100Y-94749900D03*
X168450100Y-95250100D03*
X168450100Y-95749900D03*
X168450100Y-96250100D03*
X168450100Y-96749900D03*
X168450100Y-97250100D03*
X168450100Y-97749900D03*
X168450100Y-98250100D03*
X168450100Y-98749900D03*
X168450100Y-99250100D03*
X168450100Y-99749900D03*
D13*
X171549900Y-101449900D03*
X171549900Y-86550100D03*
D14*
X147350000Y-101000000D03*
X150650000Y-101000000D03*
D15*
X142062500Y-98750000D03*
X143937500Y-98750000D03*
D16*
X143650000Y-92062500D03*
X142350000Y-92062500D03*
X143000000Y-93937500D03*
D17*
X150650000Y-93000000D03*
X147350000Y-93000000D03*
D18*
X165000000Y-84312500D03*
X165000000Y-86187500D03*
D17*
X150650000Y-97000000D03*
X147350000Y-97000000D03*
D15*
X148562500Y-89000000D03*
X150437500Y-89000000D03*
X154062500Y-90500000D03*
X155937500Y-90500000D03*
X159062500Y-101000000D03*
X160937500Y-101000000D03*
X159062500Y-97500000D03*
X160937500Y-97500000D03*
X154062500Y-94000000D03*
X155937500Y-94000000D03*
D19*
X145000000Y-88937500D03*
X145000000Y-87062500D03*
D15*
X159062500Y-94000000D03*
X160937500Y-94000000D03*
X154062500Y-99500000D03*
X155937500Y-99500000D03*
X159062500Y-90500000D03*
X160937500Y-90500000D03*
D19*
X142500000Y-88937500D03*
X142500000Y-87062500D03*
D20*
X149500000Y-83850000D03*
X149500000Y-86150000D03*
D21*
X166750000Y-87750000D03*
X145000000Y-90500000D03*
X165750000Y-87750000D03*
X143500000Y-90500000D03*
X155000000Y-97000000D03*
X166250000Y-96250000D03*
X166250000Y-91250000D03*
X153000000Y-92250000D03*
X142250000Y-101750000D03*
D22*
X168450100Y-92749900D02*
X164750100Y-92749900D01*
X167000000Y-97000000D02*
X163937500Y-97000000D01*
X167250100Y-96749900D02*
X167000000Y-97000000D01*
X168450100Y-96749900D02*
X167250100Y-96749900D01*
X163937500Y-97000000D02*
X160937500Y-94000000D01*
X168450100Y-98749900D02*
X162750100Y-98749900D01*
X145000000Y-88937500D02*
X145000000Y-90500000D01*
X168450100Y-88749900D02*
X167500100Y-88749900D01*
X143650000Y-92062500D02*
X145000000Y-90712500D01*
X166750000Y-88000000D02*
X166750000Y-87750000D01*
X167500000Y-88750000D02*
X166750000Y-88000000D01*
X145000000Y-90712500D02*
X145000000Y-90500000D01*
X167500100Y-88749900D02*
X167500000Y-88750000D01*
X147000000Y-87250000D02*
X148100000Y-86150000D01*
X142062500Y-96937500D02*
X143000000Y-96000000D01*
X147350000Y-93000000D02*
X145500000Y-93000000D01*
X147000000Y-90250000D02*
X147000000Y-87250000D01*
X143000000Y-96000000D02*
X144250000Y-96000000D01*
X142062500Y-98750000D02*
X142062500Y-96937500D01*
X144250000Y-96000000D02*
X145500000Y-94750000D01*
X145500000Y-93000000D02*
X145500000Y-91750000D01*
X148100000Y-86150000D02*
X149500000Y-86150000D01*
X143000000Y-93937500D02*
X143000000Y-96000000D01*
X145500000Y-91750000D02*
X147000000Y-90250000D01*
X145500000Y-94750000D02*
X145500000Y-93000000D01*
X167250100Y-89250100D02*
X167250000Y-89250000D01*
X142937500Y-88937500D02*
X143500000Y-89500000D01*
X167000000Y-89250000D02*
X165750000Y-88000000D01*
X143250000Y-90500000D02*
X143500000Y-90500000D01*
X142350000Y-92062500D02*
X142350000Y-91400000D01*
X167250000Y-89250000D02*
X167000000Y-89250000D01*
X168450100Y-89250100D02*
X167250100Y-89250100D01*
X143500000Y-89500000D02*
X143500000Y-90500000D01*
X165750000Y-88000000D02*
X165750000Y-87750000D01*
X142500000Y-88937500D02*
X142937500Y-88937500D01*
X142350000Y-91400000D02*
X143250000Y-90500000D01*
X142500000Y-87062500D02*
X141687500Y-87062500D01*
X148562500Y-89000000D02*
X148562500Y-88187500D01*
X149000000Y-87750000D02*
X151250000Y-87750000D01*
X164187500Y-84312500D02*
X163750000Y-84750000D01*
X167000100Y-90749900D02*
X167000000Y-90750000D01*
X163750000Y-84750000D02*
X163750000Y-87500000D01*
X141000000Y-87750000D02*
X141000000Y-100500000D01*
X154062500Y-97937500D02*
X155000000Y-97000000D01*
X150650000Y-97000000D02*
X155000000Y-97000000D01*
X166750000Y-91750000D02*
X166250000Y-91250000D01*
X147540000Y-80500000D02*
X147540000Y-79790000D01*
X159062500Y-101000000D02*
X158500000Y-101000000D01*
X153000000Y-91562500D02*
X153000000Y-92250000D01*
X159062500Y-89562500D02*
X152250000Y-82750000D01*
X154062500Y-90500000D02*
X153000000Y-91562500D01*
X153000000Y-89500000D02*
X153000000Y-91562500D01*
X168450100Y-96250100D02*
X166250100Y-96250100D01*
X145000000Y-87062500D02*
X142500000Y-87062500D01*
X165000000Y-84312500D02*
X164187500Y-84312500D01*
X149000000Y-82750000D02*
X147540000Y-81290000D01*
X141687500Y-87062500D02*
X141000000Y-87750000D01*
X158500000Y-101000000D02*
X157000000Y-102500000D01*
X167000000Y-90750000D02*
X166750000Y-90750000D01*
X148562500Y-88187500D02*
X149000000Y-87750000D01*
X147540000Y-81290000D02*
X147540000Y-80500000D01*
X156500000Y-92250000D02*
X153000000Y-92250000D01*
X151250000Y-87750000D02*
X153000000Y-89500000D01*
X166750100Y-91749900D02*
X166750000Y-91750000D01*
X166750000Y-90750000D02*
X166250000Y-91250000D01*
X168450100Y-91749900D02*
X166750100Y-91749900D01*
X157000000Y-102500000D02*
X143000000Y-102500000D01*
X158562500Y-97000000D02*
X155000000Y-97000000D01*
X143000000Y-102500000D02*
X142250000Y-101750000D01*
X141000000Y-100500000D02*
X142250000Y-101750000D01*
X153000000Y-92937500D02*
X153000000Y-92250000D01*
X152250000Y-82750000D02*
X149000000Y-82750000D01*
X158250000Y-94000000D02*
X156500000Y-92250000D01*
X166250100Y-91250100D02*
X166250000Y-91250000D01*
X166250100Y-96250100D02*
X166250000Y-96250000D01*
X159062500Y-94000000D02*
X158250000Y-94000000D01*
X166250000Y-90000000D02*
X166250000Y-91250000D01*
X154062500Y-99500000D02*
X154062500Y-97937500D01*
X159062500Y-97500000D02*
X158562500Y-97000000D01*
X163750000Y-87500000D02*
X166250000Y-90000000D01*
X159062500Y-90500000D02*
X159062500Y-89562500D01*
X154062500Y-94000000D02*
X153000000Y-92937500D01*
X168450100Y-90749900D02*
X167000100Y-90749900D01*
X168450100Y-91250100D02*
X166250100Y-91250100D01*
X161000000Y-92250000D02*
X158500000Y-92250000D01*
X157250000Y-89500000D02*
X152500000Y-84750000D01*
X145000000Y-82000000D02*
X145000000Y-80500000D01*
X163750000Y-95250000D02*
X163250000Y-95250000D01*
X157250000Y-91000000D02*
X157250000Y-90500000D01*
X163750100Y-95250100D02*
X163750000Y-95250000D01*
X168450100Y-95250100D02*
X166750000Y-95250100D01*
X163250000Y-95250000D02*
X162000000Y-94000000D01*
X166750000Y-95250100D02*
X163750100Y-95250100D01*
X157250000Y-91500000D02*
X157250000Y-91000000D01*
X147750000Y-84750000D02*
X145000000Y-82000000D01*
X161500000Y-92250000D02*
X161000000Y-92250000D01*
X152500000Y-84750000D02*
X149500000Y-84750000D01*
X160937500Y-90500000D02*
X160937500Y-92187500D01*
X157250000Y-90500000D02*
X157250000Y-89500000D01*
X158000000Y-92250000D02*
X157250000Y-91500000D01*
X162000000Y-94000000D02*
X162000000Y-92750000D01*
X149500000Y-84750000D02*
X147750000Y-84750000D01*
X158500000Y-92250000D02*
X158000000Y-92250000D01*
X162000000Y-92750000D02*
X161500000Y-92250000D01*
X167249800Y-95749900D02*
X166750000Y-95250100D01*
X168450100Y-95749900D02*
X167249800Y-95749900D01*
X155937500Y-90500000D02*
X157250000Y-90500000D01*
X149500000Y-83850000D02*
X149500000Y-84750000D01*
X160937500Y-92187500D02*
X161000000Y-92250000D01*
X168450100Y-97749900D02*
X163999900Y-97749900D01*
X163999900Y-97749900D02*
X161750000Y-95500000D01*
X161750000Y-95500000D02*
X157437500Y-95500000D01*
X157437500Y-95500000D02*
X155937500Y-94000000D01*
X168450100Y-94250100D02*
X163567200Y-94250100D01*
X155567100Y-82250000D02*
X154370000Y-82250000D01*
X163567200Y-94250100D02*
X162901000Y-93583900D01*
X154370000Y-82250000D02*
X152620000Y-80500000D01*
X162901000Y-93583900D02*
X162901000Y-89583900D01*
X162901000Y-89583900D02*
X155567100Y-82250000D01*
X164750000Y-101000000D02*
X160937500Y-101000000D01*
X166000100Y-99749900D02*
X164750000Y-101000000D01*
X168450100Y-99749900D02*
X166000100Y-99749900D01*
X153500000Y-96250000D02*
X152000000Y-94750000D01*
X152000000Y-90562500D02*
X150437500Y-89000000D01*
X163750100Y-98250100D02*
X161750000Y-96250000D01*
X150650000Y-93000000D02*
X152000000Y-93000000D01*
X152000000Y-94750000D02*
X152000000Y-93000000D01*
X161750000Y-96250000D02*
X161500000Y-96250000D01*
X161500000Y-96250000D02*
X153500000Y-96250000D01*
X152000000Y-93000000D02*
X152000000Y-90562500D01*
X168450100Y-98250100D02*
X163750100Y-98250100D01*
X164505000Y-88919500D02*
X162780000Y-87194500D01*
X164505000Y-91937900D02*
X164505000Y-88919500D01*
X162780000Y-87194500D02*
X162780000Y-80500000D01*
X164817200Y-92250100D02*
X164505000Y-91937900D01*
X168450100Y-92250100D02*
X164817200Y-92250100D01*
X163703000Y-92953000D02*
X163703000Y-89251700D01*
X166000000Y-93250000D02*
X164000000Y-93250000D01*
X163703000Y-89251700D02*
X157700000Y-83248700D01*
X166000100Y-93250100D02*
X166000000Y-93250000D01*
X168450100Y-93250100D02*
X166000100Y-93250100D01*
X164000000Y-93250000D02*
X163703000Y-92953000D01*
X157700000Y-83248700D02*
X157700000Y-80500000D01*
X165000000Y-86187500D02*
X165000000Y-88000000D01*
X167250100Y-90250100D02*
X168450100Y-90250100D01*
X165000000Y-88000000D02*
X167250100Y-90250100D01*
X158250000Y-99250000D02*
X157750000Y-99250000D01*
X155937500Y-99500000D02*
X157500000Y-99500000D01*
X157000000Y-101000000D02*
X150650000Y-101000000D01*
X168450100Y-99250100D02*
X158250100Y-99250100D01*
X157500000Y-99500000D02*
X157500000Y-100500000D01*
X157750000Y-99250000D02*
X157500000Y-99500000D01*
X158250100Y-99250100D02*
X158250000Y-99250000D01*
X157500000Y-100500000D02*
X157000000Y-101000000D01*
X163302000Y-93417800D02*
X163302000Y-89417800D01*
X168450100Y-93749900D02*
X163634100Y-93749900D01*
X163302000Y-89417800D02*
X155160000Y-81275800D01*
X155160000Y-81275800D02*
X155160000Y-80500000D01*
X163634100Y-93749900D02*
X163302000Y-93417800D01*
X162750000Y-98750000D02*
X162187500Y-98750000D01*
X162187500Y-98750000D02*
X160937500Y-97500000D01*
X162750100Y-98749900D02*
X162750000Y-98750000D01*
X162500000Y-93750000D02*
X162500000Y-89750000D01*
X155500000Y-82750000D02*
X153250000Y-82750000D01*
X165249800Y-94750000D02*
X163500000Y-94750000D01*
X151830000Y-82250000D02*
X150080000Y-80500000D01*
X153250000Y-82750000D02*
X152750000Y-82250000D01*
X168450100Y-94749900D02*
X165249900Y-94749900D01*
X162500000Y-89750000D02*
X155500000Y-82750000D01*
X152750000Y-82250000D02*
X151830000Y-82250000D01*
X165249900Y-94749900D02*
X165249800Y-94750000D01*
X163500000Y-94750000D02*
X162500000Y-93750000D01*
X160240000Y-85221600D02*
X160240000Y-80500000D01*
X164750100Y-92749900D02*
X164750000Y-92750000D01*
X164104000Y-92104000D02*
X164104000Y-89085600D01*
X164750000Y-92750000D02*
X164104000Y-92104000D01*
X164104000Y-89085600D02*
X160240000Y-85221600D01*
X147350000Y-97000000D02*
X146750000Y-97000000D01*
X146250000Y-100250000D02*
X146250000Y-98750000D01*
X146250000Y-98750000D02*
X146250000Y-97500000D01*
X147350000Y-101000000D02*
X147000000Y-101000000D01*
X146250000Y-98750000D02*
X143937500Y-98750000D01*
X146750000Y-97000000D02*
X146250000Y-97500000D01*
X147000000Y-101000000D02*
X146250000Y-100250000D01*
D23*
X140250000Y-78250000D02*
X174250000Y-78250000D01*
X174250000Y-103250000D01*
X140250000Y-103250000D01*
X140250000Y-78250000D01*
M02*
