G04 #@! TF.GenerationSoftware,KiCad,Pcbnew,9.0.7*
G04 #@! TF.CreationDate,2026-04-23T21:26:37-05:00*
G04 #@! TF.ProjectId,psycho_badge_eink_dev,70737963-686f-45f6-9261-6467655f6569,1*
G04 #@! TF.SameCoordinates,Original*
G04 #@! TF.FileFunction,Copper,L2,Bot*
G04 #@! TF.FilePolarity,Positive*
%FSLAX46Y46*%
G04 Gerber Fmt 4.6, Leading zero omitted, Abs format (unit mm)*
G04 Created by KiCad (PCBNEW 9.0.7) date 2026-04-23 21:26:37*
%MOMM*%
%LPD*%
G01*
G04 APERTURE LIST*
G04 #@! TA.AperFunction,ComponentPad*
%ADD10R,1.700000X1.700000*%
G04 #@! TD*
G04 #@! TA.AperFunction,ComponentPad*
%ADD11O,1.700000X1.700000*%
G04 #@! TD*
G04 #@! TA.AperFunction,ViaPad*
%ADD12C,0.600000*%
G04 #@! TD*
G04 #@! TA.AperFunction,Conductor*
%ADD13C,0.200000*%
G04 #@! TD*
G04 #@! TA.AperFunction,Profile*
%ADD14C,0.050000*%
G04 #@! TD*
G04 APERTURE END LIST*
D10*
X145000000Y-80500000D03*
D11*
X147540000Y-80500000D03*
X150080000Y-80500000D03*
X152620000Y-80500000D03*
X155160000Y-80500000D03*
X157700000Y-80500000D03*
X160240000Y-80500000D03*
X162780000Y-80500000D03*
D12*
X166750000Y-87750000D03*
X145000000Y-90500000D03*
X165750000Y-87750000D03*
X143500000Y-90500000D03*
X155000000Y-97000000D03*
X166250000Y-96250000D03*
X166250000Y-91250000D03*
X153000000Y-92250000D03*
X142250000Y-101750000D03*
D13*
X166500000Y-88500000D02*
X147000000Y-88500000D01*
X166750000Y-88250000D02*
X166500000Y-88500000D01*
X166750000Y-87750000D02*
X166750000Y-88250000D01*
X147000000Y-88500000D02*
X145000000Y-90500000D01*
X146000000Y-88000000D02*
X165500000Y-88000000D01*
X165500000Y-88000000D02*
X165750000Y-87750000D01*
X143500000Y-90500000D02*
X146000000Y-88000000D01*
G04 #@! TA.AperFunction,Conductor*
G36*
X173692539Y-78770185D02*
G01*
X173738294Y-78822989D01*
X173749500Y-78874500D01*
X173749500Y-102625500D01*
X173729815Y-102692539D01*
X173677011Y-102738294D01*
X173625500Y-102749500D01*
X140874500Y-102749500D01*
X140807461Y-102729815D01*
X140761706Y-102677011D01*
X140750500Y-102625500D01*
X140750500Y-102066133D01*
X142965368Y-102066133D01*
X143025235Y-102126000D01*
X144317696Y-102126000D01*
X144556763Y-101886932D01*
X145261041Y-101886932D01*
X145500109Y-102126000D01*
X146792569Y-102126000D01*
X147031637Y-101886932D01*
X147735915Y-101886932D01*
X147974983Y-102126000D01*
X149267443Y-102126000D01*
X149506511Y-101886932D01*
X150210789Y-101886932D01*
X150449857Y-102126000D01*
X151742317Y-102126000D01*
X151981385Y-101886932D01*
X152685662Y-101886932D01*
X152924730Y-102126000D01*
X154217191Y-102126000D01*
X154456258Y-101886932D01*
X155160536Y-101886932D01*
X155399604Y-102126000D01*
X156692064Y-102126000D01*
X156931132Y-101886932D01*
X157635410Y-101886932D01*
X157874478Y-102126000D01*
X159166938Y-102126000D01*
X159406006Y-101886932D01*
X160110283Y-101886932D01*
X160349351Y-102126000D01*
X161641812Y-102126000D01*
X161880880Y-101886932D01*
X162585157Y-101886932D01*
X162824225Y-102126000D01*
X164116686Y-102126000D01*
X164355753Y-101886932D01*
X165060031Y-101886932D01*
X165299099Y-102126000D01*
X166591559Y-102126000D01*
X166830627Y-101886932D01*
X167534905Y-101886932D01*
X167773973Y-102126000D01*
X169066433Y-102126000D01*
X169305501Y-101886932D01*
X170009778Y-101886932D01*
X170248846Y-102126000D01*
X171541307Y-102126000D01*
X171780375Y-101886932D01*
X172484652Y-101886932D01*
X172723720Y-102126000D01*
X173126000Y-102126000D01*
X173126000Y-101245584D01*
X172484652Y-101886932D01*
X171780375Y-101886932D01*
X170895076Y-101001633D01*
X170009778Y-101886932D01*
X169305501Y-101886932D01*
X168420203Y-101001634D01*
X167534905Y-101886932D01*
X166830627Y-101886932D01*
X165945329Y-101001634D01*
X165060031Y-101886932D01*
X164355753Y-101886932D01*
X163470455Y-101001633D01*
X162585157Y-101886932D01*
X161880880Y-101886932D01*
X160995581Y-101001633D01*
X160110283Y-101886932D01*
X159406006Y-101886932D01*
X158520708Y-101001634D01*
X157635410Y-101886932D01*
X156931132Y-101886932D01*
X156045834Y-101001634D01*
X155160536Y-101886932D01*
X154456258Y-101886932D01*
X153570960Y-101001633D01*
X152685662Y-101886932D01*
X151981385Y-101886932D01*
X151096087Y-101001634D01*
X150210789Y-101886932D01*
X149506511Y-101886932D01*
X148621213Y-101001634D01*
X147735915Y-101886932D01*
X147031637Y-101886932D01*
X146146339Y-101001634D01*
X145261041Y-101886932D01*
X144556763Y-101886932D01*
X143671464Y-101001633D01*
X143026620Y-101646477D01*
X143029511Y-101661011D01*
X143031894Y-101685203D01*
X143031894Y-101814797D01*
X143029511Y-101838989D01*
X143004228Y-101966093D01*
X142997172Y-101989353D01*
X142965368Y-102066133D01*
X140750500Y-102066133D01*
X140750500Y-100649494D01*
X141548730Y-100649494D01*
X141933866Y-101034631D01*
X142010647Y-101002828D01*
X142033907Y-100995772D01*
X142161011Y-100970489D01*
X142185203Y-100968106D01*
X142314797Y-100968106D01*
X142338989Y-100970489D01*
X142466093Y-100995772D01*
X142489353Y-101002828D01*
X142609082Y-101052421D01*
X142630521Y-101063880D01*
X142738274Y-101135879D01*
X142757064Y-101151300D01*
X142787292Y-101181528D01*
X143319325Y-100649495D01*
X144023604Y-100649495D01*
X144908902Y-101534793D01*
X145794200Y-100649495D01*
X146498478Y-100649495D01*
X147383776Y-101534793D01*
X148269074Y-100649495D01*
X148973352Y-100649495D01*
X149858650Y-101534793D01*
X150743948Y-100649495D01*
X151448225Y-100649495D01*
X152333523Y-101534793D01*
X153218822Y-100649495D01*
X153923099Y-100649495D01*
X154808397Y-101534793D01*
X155693695Y-100649495D01*
X156397973Y-100649495D01*
X157283271Y-101534793D01*
X158168569Y-100649495D01*
X158872847Y-100649495D01*
X159758145Y-101534793D01*
X160643443Y-100649495D01*
X161347720Y-100649495D01*
X162233018Y-101534793D01*
X163118316Y-100649495D01*
X163822594Y-100649495D01*
X164707892Y-101534793D01*
X165593190Y-100649495D01*
X166297468Y-100649495D01*
X167182766Y-101534793D01*
X168068064Y-100649495D01*
X168772342Y-100649495D01*
X169657640Y-101534793D01*
X170542938Y-100649495D01*
X171247215Y-100649495D01*
X172132513Y-101534793D01*
X173017811Y-100649495D01*
X172132513Y-99764196D01*
X171247215Y-100649495D01*
X170542938Y-100649495D01*
X169657640Y-99764197D01*
X168772342Y-100649495D01*
X168068064Y-100649495D01*
X167182766Y-99764197D01*
X166297468Y-100649495D01*
X165593190Y-100649495D01*
X164707892Y-99764197D01*
X163822594Y-100649495D01*
X163118316Y-100649495D01*
X162233018Y-99764196D01*
X161347720Y-100649495D01*
X160643443Y-100649495D01*
X159758145Y-99764197D01*
X158872847Y-100649495D01*
X158168569Y-100649495D01*
X157283271Y-99764197D01*
X156397973Y-100649495D01*
X155693695Y-100649495D01*
X154808397Y-99764197D01*
X153923099Y-100649495D01*
X153218822Y-100649495D01*
X152333523Y-99764196D01*
X151448225Y-100649495D01*
X150743948Y-100649495D01*
X149858650Y-99764197D01*
X148973352Y-100649495D01*
X148269074Y-100649495D01*
X147383776Y-99764197D01*
X146498478Y-100649495D01*
X145794200Y-100649495D01*
X144908902Y-99764196D01*
X144023604Y-100649495D01*
X143319325Y-100649495D01*
X143319326Y-100649494D01*
X142434028Y-99764196D01*
X141548730Y-100649494D01*
X140750500Y-100649494D01*
X140750500Y-100119948D01*
X141374000Y-100119948D01*
X142081890Y-99412058D01*
X142786167Y-99412058D01*
X143671465Y-100297356D01*
X144556763Y-99412058D01*
X145261041Y-99412058D01*
X146146339Y-100297356D01*
X147031637Y-99412058D01*
X147735915Y-99412058D01*
X148621213Y-100297356D01*
X149506511Y-99412058D01*
X150210789Y-99412058D01*
X151096087Y-100297356D01*
X151981385Y-99412058D01*
X152685662Y-99412058D01*
X153570960Y-100297356D01*
X154456258Y-99412058D01*
X155160536Y-99412058D01*
X156045834Y-100297356D01*
X156931132Y-99412058D01*
X157635410Y-99412058D01*
X158520708Y-100297356D01*
X159406006Y-99412058D01*
X160110283Y-99412058D01*
X160995581Y-100297356D01*
X161880880Y-99412058D01*
X162585157Y-99412058D01*
X163470455Y-100297356D01*
X164355753Y-99412058D01*
X165060031Y-99412058D01*
X165945329Y-100297356D01*
X166830627Y-99412058D01*
X167534905Y-99412058D01*
X168420203Y-100297356D01*
X169305501Y-99412058D01*
X170009778Y-99412058D01*
X170895076Y-100297356D01*
X171780375Y-99412058D01*
X172484652Y-99412058D01*
X173126000Y-100053406D01*
X173126000Y-98770710D01*
X172484652Y-99412058D01*
X171780375Y-99412058D01*
X170895076Y-98526759D01*
X170009778Y-99412058D01*
X169305501Y-99412058D01*
X168420203Y-98526760D01*
X167534905Y-99412058D01*
X166830627Y-99412058D01*
X165945329Y-98526760D01*
X165060031Y-99412058D01*
X164355753Y-99412058D01*
X163470455Y-98526759D01*
X162585157Y-99412058D01*
X161880880Y-99412058D01*
X160995581Y-98526759D01*
X160110283Y-99412058D01*
X159406006Y-99412058D01*
X158520708Y-98526760D01*
X157635410Y-99412058D01*
X156931132Y-99412058D01*
X156045834Y-98526760D01*
X155160536Y-99412058D01*
X154456258Y-99412058D01*
X153570960Y-98526759D01*
X152685662Y-99412058D01*
X151981385Y-99412058D01*
X151096087Y-98526760D01*
X150210789Y-99412058D01*
X149506511Y-99412058D01*
X148621213Y-98526760D01*
X147735915Y-99412058D01*
X147031637Y-99412058D01*
X146146339Y-98526760D01*
X145261041Y-99412058D01*
X144556763Y-99412058D01*
X143671465Y-98526759D01*
X142786167Y-99412058D01*
X142081890Y-99412058D01*
X141374000Y-98704168D01*
X141374000Y-100119948D01*
X140750500Y-100119948D01*
X140750500Y-98174621D01*
X141548730Y-98174621D01*
X142434028Y-99059919D01*
X143319327Y-98174621D01*
X144023603Y-98174621D01*
X144908902Y-99059919D01*
X145794200Y-98174621D01*
X146498477Y-98174621D01*
X147383776Y-99059919D01*
X148269074Y-98174621D01*
X148973351Y-98174621D01*
X149858650Y-99059919D01*
X150743948Y-98174621D01*
X151448225Y-98174621D01*
X152333523Y-99059919D01*
X153218822Y-98174621D01*
X153923098Y-98174621D01*
X154808397Y-99059919D01*
X155693695Y-98174621D01*
X156397972Y-98174621D01*
X157283271Y-99059919D01*
X158168569Y-98174621D01*
X158872846Y-98174621D01*
X159758145Y-99059919D01*
X160643443Y-98174621D01*
X161347719Y-98174621D01*
X162233018Y-99059919D01*
X163118316Y-98174621D01*
X163822593Y-98174621D01*
X164707892Y-99059919D01*
X165593190Y-98174621D01*
X166297467Y-98174621D01*
X167182766Y-99059919D01*
X168068064Y-98174621D01*
X168772341Y-98174621D01*
X169657640Y-99059919D01*
X170542938Y-98174621D01*
X171247214Y-98174621D01*
X172132513Y-99059919D01*
X173017811Y-98174621D01*
X172132513Y-97289322D01*
X171247214Y-98174621D01*
X170542938Y-98174621D01*
X169657640Y-97289323D01*
X168772341Y-98174621D01*
X168068064Y-98174621D01*
X167182766Y-97289323D01*
X166297467Y-98174621D01*
X165593190Y-98174621D01*
X164707892Y-97289323D01*
X163822593Y-98174621D01*
X163118316Y-98174621D01*
X162233018Y-97289322D01*
X161347719Y-98174621D01*
X160643443Y-98174621D01*
X159758145Y-97289323D01*
X158872846Y-98174621D01*
X158168569Y-98174621D01*
X157283271Y-97289323D01*
X156397972Y-98174621D01*
X155693695Y-98174621D01*
X155258369Y-97739295D01*
X155239355Y-97747172D01*
X155216093Y-97754228D01*
X155088989Y-97779511D01*
X155064797Y-97781894D01*
X154935203Y-97781894D01*
X154911011Y-97779511D01*
X154783907Y-97754228D01*
X154760647Y-97747172D01*
X154640918Y-97697579D01*
X154619479Y-97686120D01*
X154511726Y-97614121D01*
X154496277Y-97601442D01*
X153923098Y-98174621D01*
X153218822Y-98174621D01*
X152333523Y-97289322D01*
X151448225Y-98174621D01*
X150743948Y-98174621D01*
X149858650Y-97289323D01*
X148973351Y-98174621D01*
X148269074Y-98174621D01*
X147383776Y-97289323D01*
X146498477Y-98174621D01*
X145794200Y-98174621D01*
X144908902Y-97289322D01*
X144023603Y-98174621D01*
X143319327Y-98174621D01*
X142434028Y-97289322D01*
X141548730Y-98174621D01*
X140750500Y-98174621D01*
X140750500Y-97645074D01*
X141374000Y-97645074D01*
X142081890Y-96937184D01*
X142786166Y-96937184D01*
X143671465Y-97822482D01*
X144556763Y-96937184D01*
X145261040Y-96937184D01*
X146146339Y-97822482D01*
X147031637Y-96937184D01*
X147735914Y-96937184D01*
X148621213Y-97822482D01*
X149506511Y-96937184D01*
X150210788Y-96937184D01*
X151096087Y-97822482D01*
X151981385Y-96937184D01*
X152685661Y-96937184D01*
X153570959Y-97822482D01*
X154234419Y-97159022D01*
X154220489Y-97088989D01*
X154218106Y-97064797D01*
X154218106Y-96935203D01*
X154220489Y-96911011D01*
X154245772Y-96783907D01*
X154252828Y-96760647D01*
X154260704Y-96741629D01*
X154015352Y-96496277D01*
X155601442Y-96496277D01*
X155614121Y-96511726D01*
X155686120Y-96619479D01*
X155697579Y-96640918D01*
X155747172Y-96760647D01*
X155754228Y-96783907D01*
X155779511Y-96911011D01*
X155781894Y-96935203D01*
X155781894Y-97064797D01*
X155779511Y-97088989D01*
X155754228Y-97216093D01*
X155747172Y-97239353D01*
X155697579Y-97359082D01*
X155686120Y-97380521D01*
X155653175Y-97429824D01*
X156045833Y-97822482D01*
X156931132Y-96937184D01*
X157635409Y-96937184D01*
X158520708Y-97822482D01*
X159406006Y-96937184D01*
X160110283Y-96937184D01*
X160995581Y-97822482D01*
X161880880Y-96937184D01*
X162585156Y-96937184D01*
X163470455Y-97822482D01*
X164355753Y-96937184D01*
X165060030Y-96937184D01*
X165945329Y-97822482D01*
X166830627Y-96937184D01*
X167534904Y-96937184D01*
X168420203Y-97822482D01*
X169305501Y-96937184D01*
X170009778Y-96937184D01*
X170895076Y-97822482D01*
X171780375Y-96937184D01*
X172484652Y-96937184D01*
X173126000Y-97578532D01*
X173126000Y-96295836D01*
X172484652Y-96937184D01*
X171780375Y-96937184D01*
X170895076Y-96051885D01*
X170009778Y-96937184D01*
X169305501Y-96937184D01*
X168420203Y-96051886D01*
X167534904Y-96937184D01*
X166830627Y-96937184D01*
X166748869Y-96855426D01*
X166738274Y-96864121D01*
X166630521Y-96936120D01*
X166609082Y-96947579D01*
X166489353Y-96997172D01*
X166466093Y-97004228D01*
X166338989Y-97029511D01*
X166314797Y-97031894D01*
X166185203Y-97031894D01*
X166161011Y-97029511D01*
X166033907Y-97004228D01*
X166010647Y-96997172D01*
X165890918Y-96947579D01*
X165869479Y-96936120D01*
X165761726Y-96864121D01*
X165742936Y-96848700D01*
X165651300Y-96757064D01*
X165635879Y-96738274D01*
X165563880Y-96630521D01*
X165552421Y-96609082D01*
X165504302Y-96492912D01*
X165060030Y-96937184D01*
X164355753Y-96937184D01*
X163470455Y-96051885D01*
X162585156Y-96937184D01*
X161880880Y-96937184D01*
X160995581Y-96051885D01*
X160110283Y-96937184D01*
X159406006Y-96937184D01*
X158520708Y-96051886D01*
X157635409Y-96937184D01*
X156931132Y-96937184D01*
X156045834Y-96051886D01*
X155601442Y-96496277D01*
X154015352Y-96496277D01*
X153570960Y-96051885D01*
X152685661Y-96937184D01*
X151981385Y-96937184D01*
X151096087Y-96051886D01*
X150210788Y-96937184D01*
X149506511Y-96937184D01*
X148621213Y-96051886D01*
X147735914Y-96937184D01*
X147031637Y-96937184D01*
X146146339Y-96051886D01*
X145261040Y-96937184D01*
X144556763Y-96937184D01*
X143671465Y-96051885D01*
X142786166Y-96937184D01*
X142081890Y-96937184D01*
X141374000Y-96229294D01*
X141374000Y-97645074D01*
X140750500Y-97645074D01*
X140750500Y-95699747D01*
X141548730Y-95699747D01*
X142434028Y-96585046D01*
X143319327Y-95699747D01*
X144023603Y-95699747D01*
X144908902Y-96585046D01*
X145794200Y-95699747D01*
X146498477Y-95699747D01*
X147383776Y-96585046D01*
X148269074Y-95699747D01*
X148973351Y-95699747D01*
X149858650Y-96585046D01*
X150743948Y-95699747D01*
X151448225Y-95699747D01*
X152333523Y-96585046D01*
X153218822Y-95699747D01*
X153923098Y-95699747D01*
X154570175Y-96346824D01*
X154619479Y-96313880D01*
X154640918Y-96302421D01*
X154760647Y-96252828D01*
X154783907Y-96245772D01*
X154911011Y-96220489D01*
X154935203Y-96218106D01*
X155064797Y-96218106D01*
X155088989Y-96220489D01*
X155159022Y-96234419D01*
X155693694Y-95699747D01*
X156397972Y-95699747D01*
X157283271Y-96585046D01*
X158168569Y-95699747D01*
X158872846Y-95699747D01*
X159758145Y-96585046D01*
X160643443Y-95699747D01*
X161347719Y-95699747D01*
X162233018Y-96585046D01*
X163118316Y-95699747D01*
X163822593Y-95699747D01*
X164707892Y-96585046D01*
X165593190Y-95699747D01*
X165397745Y-95504302D01*
X166492913Y-95504302D01*
X166609082Y-95552421D01*
X166630521Y-95563880D01*
X166738274Y-95635879D01*
X166757064Y-95651300D01*
X166848700Y-95742936D01*
X166864121Y-95761726D01*
X166936120Y-95869479D01*
X166947579Y-95890918D01*
X166997172Y-96010647D01*
X167004228Y-96033907D01*
X167029511Y-96161011D01*
X167031894Y-96185203D01*
X167031894Y-96314797D01*
X167029511Y-96338989D01*
X167014113Y-96416393D01*
X167182766Y-96585046D01*
X168068064Y-95699747D01*
X168772341Y-95699747D01*
X169657640Y-96585046D01*
X170542938Y-95699747D01*
X171247214Y-95699747D01*
X172132513Y-96585046D01*
X173017811Y-95699747D01*
X172132513Y-94814449D01*
X171247214Y-95699747D01*
X170542938Y-95699747D01*
X169657640Y-94814449D01*
X168772341Y-95699747D01*
X168068064Y-95699747D01*
X167182766Y-94814449D01*
X166492913Y-95504302D01*
X165397745Y-95504302D01*
X164707892Y-94814449D01*
X163822593Y-95699747D01*
X163118316Y-95699747D01*
X162233018Y-94814449D01*
X161347719Y-95699747D01*
X160643443Y-95699747D01*
X159758145Y-94814449D01*
X158872846Y-95699747D01*
X158168569Y-95699747D01*
X157283271Y-94814449D01*
X156397972Y-95699747D01*
X155693694Y-95699747D01*
X154808397Y-94814449D01*
X153923098Y-95699747D01*
X153218822Y-95699747D01*
X152333523Y-94814449D01*
X151448225Y-95699747D01*
X150743948Y-95699747D01*
X149858650Y-94814449D01*
X148973351Y-95699747D01*
X148269074Y-95699747D01*
X147383776Y-94814449D01*
X146498477Y-95699747D01*
X145794200Y-95699747D01*
X144908902Y-94814449D01*
X144023603Y-95699747D01*
X143319327Y-95699747D01*
X142434028Y-94814449D01*
X141548730Y-95699747D01*
X140750500Y-95699747D01*
X140750500Y-95170201D01*
X141374000Y-95170201D01*
X142081890Y-94462311D01*
X142786167Y-94462311D01*
X143671465Y-95347609D01*
X144556763Y-94462311D01*
X145261041Y-94462311D01*
X146146339Y-95347609D01*
X147031637Y-94462311D01*
X147735915Y-94462311D01*
X148621213Y-95347609D01*
X149506511Y-94462311D01*
X150210789Y-94462311D01*
X151096087Y-95347609D01*
X151981385Y-94462311D01*
X152685662Y-94462311D01*
X153570960Y-95347609D01*
X154456258Y-94462311D01*
X155160536Y-94462311D01*
X156045834Y-95347609D01*
X156931132Y-94462311D01*
X157635410Y-94462311D01*
X158520708Y-95347609D01*
X159406006Y-94462311D01*
X160110283Y-94462311D01*
X160995581Y-95347609D01*
X161880880Y-94462311D01*
X162585157Y-94462311D01*
X163470455Y-95347609D01*
X164355753Y-94462311D01*
X165060031Y-94462311D01*
X165945329Y-95347609D01*
X166830627Y-94462311D01*
X167534905Y-94462311D01*
X168420203Y-95347609D01*
X169305501Y-94462311D01*
X170009778Y-94462311D01*
X170895076Y-95347609D01*
X171780375Y-94462311D01*
X172484652Y-94462311D01*
X173126000Y-95103659D01*
X173126000Y-93820963D01*
X172484652Y-94462311D01*
X171780375Y-94462311D01*
X170895076Y-93577012D01*
X170009778Y-94462311D01*
X169305501Y-94462311D01*
X168420203Y-93577013D01*
X167534905Y-94462311D01*
X166830627Y-94462311D01*
X165945329Y-93577013D01*
X165060031Y-94462311D01*
X164355753Y-94462311D01*
X163470455Y-93577012D01*
X162585157Y-94462311D01*
X161880880Y-94462311D01*
X160995581Y-93577012D01*
X160110283Y-94462311D01*
X159406006Y-94462311D01*
X158520708Y-93577013D01*
X157635410Y-94462311D01*
X156931132Y-94462311D01*
X156045834Y-93577013D01*
X155160536Y-94462311D01*
X154456258Y-94462311D01*
X153570960Y-93577012D01*
X152685662Y-94462311D01*
X151981385Y-94462311D01*
X151096087Y-93577013D01*
X150210789Y-94462311D01*
X149506511Y-94462311D01*
X148621213Y-93577013D01*
X147735915Y-94462311D01*
X147031637Y-94462311D01*
X146146339Y-93577013D01*
X145261041Y-94462311D01*
X144556763Y-94462311D01*
X143671465Y-93577012D01*
X142786167Y-94462311D01*
X142081890Y-94462311D01*
X141374000Y-93754421D01*
X141374000Y-95170201D01*
X140750500Y-95170201D01*
X140750500Y-93224874D01*
X141548730Y-93224874D01*
X142434028Y-94110172D01*
X143319327Y-93224874D01*
X144023604Y-93224874D01*
X144908902Y-94110172D01*
X145794200Y-93224874D01*
X146498478Y-93224874D01*
X147383776Y-94110172D01*
X148269074Y-93224874D01*
X148973352Y-93224874D01*
X149858650Y-94110172D01*
X150743948Y-93224874D01*
X151448225Y-93224874D01*
X152333523Y-94110172D01*
X153218822Y-93224874D01*
X153923099Y-93224874D01*
X154808397Y-94110172D01*
X155693695Y-93224874D01*
X156397973Y-93224874D01*
X157283271Y-94110172D01*
X158168569Y-93224874D01*
X158872847Y-93224874D01*
X159758145Y-94110172D01*
X160643443Y-93224874D01*
X161347720Y-93224874D01*
X162233018Y-94110172D01*
X163118316Y-93224874D01*
X163822594Y-93224874D01*
X164707892Y-94110172D01*
X165593190Y-93224874D01*
X166297468Y-93224874D01*
X167182766Y-94110172D01*
X168068064Y-93224874D01*
X168772342Y-93224874D01*
X169657640Y-94110172D01*
X170542938Y-93224874D01*
X171247215Y-93224874D01*
X172132513Y-94110172D01*
X173017811Y-93224874D01*
X172132513Y-92339575D01*
X171247215Y-93224874D01*
X170542938Y-93224874D01*
X169657640Y-92339576D01*
X168772342Y-93224874D01*
X168068064Y-93224874D01*
X167182766Y-92339576D01*
X166297468Y-93224874D01*
X165593190Y-93224874D01*
X164707892Y-92339576D01*
X163822594Y-93224874D01*
X163118316Y-93224874D01*
X162233018Y-92339575D01*
X161347720Y-93224874D01*
X160643443Y-93224874D01*
X159758145Y-92339576D01*
X158872847Y-93224874D01*
X158168569Y-93224874D01*
X157283271Y-92339576D01*
X156397973Y-93224874D01*
X155693695Y-93224874D01*
X154808397Y-92339576D01*
X153923099Y-93224874D01*
X153218822Y-93224874D01*
X153025842Y-93031894D01*
X152935203Y-93031894D01*
X152911011Y-93029511D01*
X152783907Y-93004228D01*
X152760647Y-92997172D01*
X152640918Y-92947579D01*
X152619479Y-92936120D01*
X152511726Y-92864121D01*
X152492936Y-92848700D01*
X152401300Y-92757064D01*
X152385879Y-92738274D01*
X152313880Y-92630521D01*
X152302421Y-92609082D01*
X152252828Y-92489353D01*
X152245772Y-92466093D01*
X152239340Y-92433759D01*
X151448225Y-93224874D01*
X150743948Y-93224874D01*
X149858650Y-92339576D01*
X148973352Y-93224874D01*
X148269074Y-93224874D01*
X147383776Y-92339576D01*
X146498478Y-93224874D01*
X145794200Y-93224874D01*
X144908902Y-92339575D01*
X144023604Y-93224874D01*
X143319327Y-93224874D01*
X142434028Y-92339575D01*
X141548730Y-93224874D01*
X140750500Y-93224874D01*
X140750500Y-92695327D01*
X141374000Y-92695327D01*
X142081890Y-91987437D01*
X142081889Y-91987436D01*
X142786166Y-91987436D01*
X143671465Y-92872735D01*
X144556763Y-91987437D01*
X144556762Y-91987436D01*
X145261040Y-91987436D01*
X146146339Y-92872735D01*
X147031637Y-91987437D01*
X147735915Y-91987437D01*
X148621213Y-92872735D01*
X149506511Y-91987437D01*
X150210789Y-91987437D01*
X151096087Y-92872735D01*
X151981385Y-91987437D01*
X151096087Y-91102139D01*
X150210789Y-91987437D01*
X149506511Y-91987437D01*
X148621213Y-91102139D01*
X147735915Y-91987437D01*
X147031637Y-91987437D01*
X146151915Y-91107715D01*
X146142829Y-91124715D01*
X146139833Y-91130004D01*
X146133522Y-91140535D01*
X146130261Y-91145685D01*
X146029067Y-91297131D01*
X146025564Y-91302105D01*
X146018253Y-91311963D01*
X146014507Y-91316764D01*
X145998991Y-91335670D01*
X145995022Y-91340271D01*
X145986779Y-91349367D01*
X145982576Y-91353781D01*
X145853781Y-91482576D01*
X145849367Y-91486779D01*
X145840271Y-91495022D01*
X145835670Y-91498991D01*
X145816764Y-91514507D01*
X145811963Y-91518253D01*
X145802105Y-91525564D01*
X145797131Y-91529067D01*
X145645685Y-91630261D01*
X145640535Y-91633522D01*
X145630004Y-91639833D01*
X145624715Y-91642829D01*
X145603145Y-91654358D01*
X145597709Y-91657094D01*
X145586615Y-91662341D01*
X145585754Y-91662722D01*
X145261040Y-91987436D01*
X144556762Y-91987436D01*
X144177996Y-91608670D01*
X144145685Y-91630261D01*
X144140535Y-91633522D01*
X144130004Y-91639833D01*
X144124715Y-91642829D01*
X144103145Y-91654358D01*
X144097709Y-91657094D01*
X144086615Y-91662341D01*
X144081051Y-91664807D01*
X143912775Y-91734508D01*
X143907100Y-91736698D01*
X143895547Y-91740832D01*
X143889766Y-91742741D01*
X143866361Y-91749841D01*
X143860506Y-91751462D01*
X143848598Y-91754446D01*
X143842648Y-91755782D01*
X143664003Y-91791317D01*
X143658003Y-91792358D01*
X143645859Y-91794159D01*
X143639820Y-91794904D01*
X143615479Y-91797301D01*
X143609410Y-91797749D01*
X143597153Y-91798351D01*
X143591070Y-91798500D01*
X143408930Y-91798500D01*
X143402847Y-91798351D01*
X143390590Y-91797749D01*
X143384521Y-91797301D01*
X143360180Y-91794904D01*
X143354141Y-91794159D01*
X143341997Y-91792358D01*
X143335997Y-91791317D01*
X143157352Y-91755782D01*
X143151402Y-91754446D01*
X143139494Y-91751462D01*
X143133639Y-91749841D01*
X143110234Y-91742741D01*
X143104453Y-91740832D01*
X143092900Y-91736698D01*
X143087225Y-91734508D01*
X143053191Y-91720411D01*
X142786166Y-91987436D01*
X142081889Y-91987436D01*
X141374000Y-91279547D01*
X141374000Y-92695327D01*
X140750500Y-92695327D01*
X140750500Y-90750000D01*
X141548730Y-90750000D01*
X142434028Y-91635297D01*
X142616484Y-91452841D01*
X142517424Y-91353781D01*
X142513221Y-91349367D01*
X142504978Y-91340271D01*
X142501009Y-91335670D01*
X142485493Y-91316764D01*
X142481747Y-91311963D01*
X142474436Y-91302105D01*
X142470933Y-91297131D01*
X142369739Y-91145685D01*
X142366478Y-91140535D01*
X142360167Y-91130004D01*
X142357171Y-91124715D01*
X142345642Y-91103145D01*
X142342906Y-91097709D01*
X142337659Y-91086615D01*
X142335193Y-91081051D01*
X142265492Y-90912775D01*
X142263302Y-90907100D01*
X142259168Y-90895547D01*
X142257259Y-90889766D01*
X142250159Y-90866361D01*
X142248538Y-90860506D01*
X142245554Y-90848598D01*
X142244218Y-90842648D01*
X142208683Y-90664003D01*
X142207642Y-90658003D01*
X142205841Y-90645859D01*
X142205096Y-90639820D01*
X142202699Y-90615479D01*
X142202251Y-90609410D01*
X142201649Y-90597153D01*
X142201500Y-90591070D01*
X142201500Y-90421153D01*
X142699500Y-90421153D01*
X142699500Y-90578846D01*
X142730261Y-90733489D01*
X142730264Y-90733501D01*
X142790602Y-90879172D01*
X142790609Y-90879185D01*
X142878210Y-91010288D01*
X142878213Y-91010292D01*
X142989707Y-91121786D01*
X142989711Y-91121789D01*
X143120814Y-91209390D01*
X143120827Y-91209397D01*
X143266498Y-91269735D01*
X143266503Y-91269737D01*
X143404221Y-91297131D01*
X143421153Y-91300499D01*
X143421156Y-91300500D01*
X143421158Y-91300500D01*
X143578844Y-91300500D01*
X143578845Y-91300499D01*
X143733497Y-91269737D01*
X143879179Y-91209394D01*
X144010289Y-91121789D01*
X144121789Y-91010289D01*
X144129145Y-90999279D01*
X144146898Y-90972712D01*
X144200510Y-90927906D01*
X144269835Y-90919199D01*
X144332862Y-90949353D01*
X144353102Y-90972712D01*
X144378207Y-91010284D01*
X144378213Y-91010292D01*
X144489707Y-91121786D01*
X144489711Y-91121789D01*
X144620814Y-91209390D01*
X144620827Y-91209397D01*
X144766498Y-91269735D01*
X144766503Y-91269737D01*
X144904221Y-91297131D01*
X144921153Y-91300499D01*
X144921156Y-91300500D01*
X144921158Y-91300500D01*
X145078844Y-91300500D01*
X145078845Y-91300499D01*
X145233497Y-91269737D01*
X145379179Y-91209394D01*
X145510289Y-91121789D01*
X145621789Y-91010289D01*
X145709394Y-90879179D01*
X145762901Y-90750000D01*
X146498478Y-90750000D01*
X147383776Y-91635298D01*
X148269074Y-90750000D01*
X148973352Y-90750000D01*
X149858650Y-91635298D01*
X150743948Y-90750000D01*
X151448225Y-90750000D01*
X152333523Y-91635298D01*
X152479481Y-91489340D01*
X153183758Y-91489340D01*
X153216093Y-91495772D01*
X153239353Y-91502828D01*
X153359082Y-91552421D01*
X153380521Y-91563880D01*
X153488274Y-91635879D01*
X153507064Y-91651300D01*
X153598700Y-91742936D01*
X153614121Y-91761726D01*
X153686120Y-91869479D01*
X153697579Y-91890918D01*
X153747172Y-92010647D01*
X153754228Y-92033907D01*
X153779511Y-92161011D01*
X153781894Y-92185203D01*
X153781894Y-92314797D01*
X153779511Y-92338989D01*
X153754228Y-92466093D01*
X153747172Y-92489353D01*
X153697579Y-92609082D01*
X153686120Y-92630521D01*
X153614121Y-92738274D01*
X153598700Y-92757064D01*
X153526994Y-92828769D01*
X153570960Y-92872735D01*
X154456258Y-91987437D01*
X155160536Y-91987437D01*
X156045834Y-92872735D01*
X156931132Y-91987437D01*
X157635410Y-91987437D01*
X158520708Y-92872735D01*
X159406006Y-91987437D01*
X160110283Y-91987437D01*
X160995581Y-92872735D01*
X161880880Y-91987437D01*
X162585157Y-91987437D01*
X163470455Y-92872735D01*
X164355753Y-91987437D01*
X165060031Y-91987437D01*
X165945329Y-92872735D01*
X166830627Y-91987437D01*
X167534905Y-91987437D01*
X168420203Y-92872735D01*
X169305501Y-91987437D01*
X170009778Y-91987437D01*
X170895076Y-92872735D01*
X171780375Y-91987437D01*
X172484652Y-91987437D01*
X173126000Y-92628785D01*
X173126000Y-91346089D01*
X172484652Y-91987437D01*
X171780375Y-91987437D01*
X170895076Y-91102138D01*
X170009778Y-91987437D01*
X169305501Y-91987437D01*
X168420203Y-91102139D01*
X167534905Y-91987437D01*
X166830627Y-91987437D01*
X166719713Y-91876523D01*
X166630521Y-91936120D01*
X166609082Y-91947579D01*
X166489353Y-91997172D01*
X166466093Y-92004228D01*
X166338989Y-92029511D01*
X166314797Y-92031894D01*
X166185203Y-92031894D01*
X166161011Y-92029511D01*
X166033907Y-92004228D01*
X166010647Y-91997172D01*
X165890918Y-91947579D01*
X165869479Y-91936120D01*
X165761726Y-91864121D01*
X165742936Y-91848700D01*
X165651300Y-91757064D01*
X165635879Y-91738274D01*
X165563880Y-91630521D01*
X165552421Y-91609082D01*
X165519021Y-91528446D01*
X165060031Y-91987437D01*
X164355753Y-91987437D01*
X163470455Y-91102138D01*
X162585157Y-91987437D01*
X161880880Y-91987437D01*
X160995581Y-91102138D01*
X160110283Y-91987437D01*
X159406006Y-91987437D01*
X158520708Y-91102139D01*
X157635410Y-91987437D01*
X156931132Y-91987437D01*
X156045834Y-91102139D01*
X155160536Y-91987437D01*
X154456258Y-91987437D01*
X153570959Y-91102138D01*
X153183758Y-91489340D01*
X152479481Y-91489340D01*
X153218822Y-90750000D01*
X153923099Y-90750000D01*
X154808397Y-91635298D01*
X155693695Y-90750000D01*
X156397973Y-90750000D01*
X157283271Y-91635298D01*
X158168569Y-90750000D01*
X158872847Y-90750000D01*
X159758145Y-91635298D01*
X160643443Y-90750000D01*
X161347720Y-90750000D01*
X162233018Y-91635298D01*
X163118316Y-90750000D01*
X163822594Y-90750000D01*
X164707892Y-91635298D01*
X165593190Y-90750000D01*
X165362211Y-90519021D01*
X166528446Y-90519021D01*
X166609082Y-90552421D01*
X166630521Y-90563880D01*
X166738274Y-90635879D01*
X166757064Y-90651300D01*
X166848700Y-90742936D01*
X166864121Y-90761726D01*
X166936120Y-90869479D01*
X166947579Y-90890918D01*
X166997172Y-91010647D01*
X167004228Y-91033907D01*
X167029511Y-91161011D01*
X167031894Y-91185203D01*
X167031894Y-91314797D01*
X167029511Y-91338989D01*
X167005776Y-91458308D01*
X167182766Y-91635298D01*
X168068064Y-90750000D01*
X168772342Y-90750000D01*
X169657640Y-91635298D01*
X170542938Y-90750000D01*
X171247215Y-90750000D01*
X172132513Y-91635298D01*
X173017811Y-90750000D01*
X172132513Y-89864701D01*
X171247215Y-90750000D01*
X170542938Y-90750000D01*
X169657640Y-89864702D01*
X168772342Y-90750000D01*
X168068064Y-90750000D01*
X167182766Y-89864702D01*
X166528446Y-90519021D01*
X165362211Y-90519021D01*
X164707892Y-89864702D01*
X163822594Y-90750000D01*
X163118316Y-90750000D01*
X162233018Y-89864701D01*
X161347720Y-90750000D01*
X160643443Y-90750000D01*
X159758145Y-89864702D01*
X158872847Y-90750000D01*
X158168569Y-90750000D01*
X157283271Y-89864702D01*
X156397973Y-90750000D01*
X155693695Y-90750000D01*
X154808397Y-89864702D01*
X153923099Y-90750000D01*
X153218822Y-90750000D01*
X152333523Y-89864701D01*
X151448225Y-90750000D01*
X150743948Y-90750000D01*
X149858650Y-89864702D01*
X148973352Y-90750000D01*
X148269074Y-90750000D01*
X147383776Y-89864702D01*
X146498478Y-90750000D01*
X145762901Y-90750000D01*
X145769737Y-90733497D01*
X145789155Y-90635879D01*
X145800638Y-90578150D01*
X145833023Y-90516239D01*
X145834518Y-90514716D01*
X146750735Y-89598500D01*
X147821852Y-89598500D01*
X148621213Y-90397861D01*
X149420574Y-89598500D01*
X150296726Y-89598500D01*
X151096087Y-90397861D01*
X151895448Y-89598500D01*
X152771599Y-89598500D01*
X153570960Y-90397861D01*
X154370322Y-89598500D01*
X155246473Y-89598500D01*
X156045834Y-90397861D01*
X156845195Y-89598500D01*
X157721347Y-89598500D01*
X158520708Y-90397861D01*
X159320069Y-89598500D01*
X160196220Y-89598500D01*
X160995581Y-90397861D01*
X161794943Y-89598500D01*
X162671094Y-89598500D01*
X163470455Y-90397861D01*
X164269817Y-89598500D01*
X165145968Y-89598500D01*
X165945329Y-90397861D01*
X166781317Y-89561872D01*
X166692195Y-89585753D01*
X166684296Y-89587595D01*
X166668246Y-89590788D01*
X166660239Y-89592110D01*
X166627895Y-89596369D01*
X166619819Y-89597164D01*
X166603483Y-89598235D01*
X166595371Y-89598501D01*
X166405564Y-89598501D01*
X166405532Y-89598500D01*
X165145968Y-89598500D01*
X164269817Y-89598500D01*
X162671094Y-89598500D01*
X161794943Y-89598500D01*
X160196220Y-89598500D01*
X159320069Y-89598500D01*
X157721347Y-89598500D01*
X156845195Y-89598500D01*
X155246473Y-89598500D01*
X154370322Y-89598500D01*
X152771599Y-89598500D01*
X151895448Y-89598500D01*
X150296726Y-89598500D01*
X149420574Y-89598500D01*
X147821852Y-89598500D01*
X146750735Y-89598500D01*
X146836672Y-89512563D01*
X167534905Y-89512563D01*
X168420203Y-90397861D01*
X169305501Y-89512563D01*
X170009778Y-89512563D01*
X170895076Y-90397861D01*
X171780375Y-89512563D01*
X172484652Y-89512563D01*
X173126000Y-90153911D01*
X173126000Y-88871215D01*
X172484652Y-89512563D01*
X171780375Y-89512563D01*
X170895076Y-88627264D01*
X170009778Y-89512563D01*
X169305501Y-89512563D01*
X168420203Y-88627265D01*
X167534905Y-89512563D01*
X146836672Y-89512563D01*
X147212416Y-89136819D01*
X147273739Y-89103334D01*
X147300097Y-89100500D01*
X166413331Y-89100500D01*
X166413347Y-89100501D01*
X166420943Y-89100501D01*
X166579054Y-89100501D01*
X166579057Y-89100501D01*
X166731785Y-89059577D01*
X166781904Y-89030639D01*
X166868716Y-88980520D01*
X166980520Y-88868716D01*
X166980520Y-88868714D01*
X166990728Y-88858507D01*
X166990730Y-88858504D01*
X167108506Y-88740728D01*
X167108511Y-88740724D01*
X167118714Y-88730520D01*
X167118716Y-88730520D01*
X167230520Y-88618716D01*
X167309577Y-88481784D01*
X167350500Y-88329057D01*
X167350500Y-88329048D01*
X167351561Y-88320997D01*
X167353018Y-88321188D01*
X167366544Y-88275126D01*
X168772341Y-88275126D01*
X169657640Y-89160424D01*
X170542938Y-88275126D01*
X171247214Y-88275126D01*
X172132513Y-89160424D01*
X173017811Y-88275126D01*
X172132513Y-87389827D01*
X171247214Y-88275126D01*
X170542938Y-88275126D01*
X169657640Y-87389828D01*
X168772341Y-88275126D01*
X167366544Y-88275126D01*
X167370185Y-88262726D01*
X167371398Y-88260874D01*
X167459390Y-88129185D01*
X167459390Y-88129184D01*
X167459394Y-88129179D01*
X167519737Y-87983497D01*
X167550500Y-87828842D01*
X167550500Y-87671158D01*
X167550500Y-87671155D01*
X167550499Y-87671153D01*
X167542569Y-87631286D01*
X167519737Y-87516503D01*
X167519735Y-87516498D01*
X167459397Y-87370827D01*
X167459390Y-87370814D01*
X167371789Y-87239711D01*
X167371786Y-87239707D01*
X167260292Y-87128213D01*
X167260288Y-87128210D01*
X167129185Y-87040609D01*
X167129172Y-87040602D01*
X166983501Y-86980264D01*
X166983489Y-86980261D01*
X166828845Y-86949500D01*
X166828842Y-86949500D01*
X166671158Y-86949500D01*
X166671155Y-86949500D01*
X166516510Y-86980261D01*
X166516498Y-86980264D01*
X166370827Y-87040602D01*
X166370814Y-87040609D01*
X166318891Y-87075304D01*
X166252214Y-87096182D01*
X166184833Y-87077698D01*
X166181109Y-87075304D01*
X166129185Y-87040609D01*
X166129172Y-87040602D01*
X165983501Y-86980264D01*
X165983489Y-86980261D01*
X165828845Y-86949500D01*
X165828842Y-86949500D01*
X165671158Y-86949500D01*
X165671155Y-86949500D01*
X165516510Y-86980261D01*
X165516498Y-86980264D01*
X165370827Y-87040602D01*
X165370814Y-87040609D01*
X165239711Y-87128210D01*
X165239707Y-87128213D01*
X165128210Y-87239710D01*
X165058266Y-87344391D01*
X165004654Y-87389196D01*
X164955164Y-87399500D01*
X146086669Y-87399500D01*
X146086653Y-87399499D01*
X146079057Y-87399499D01*
X145920943Y-87399499D01*
X145813587Y-87428265D01*
X145768210Y-87440424D01*
X145768209Y-87440425D01*
X145718096Y-87469359D01*
X145718095Y-87469360D01*
X145674689Y-87494420D01*
X145631285Y-87519479D01*
X145631282Y-87519481D01*
X143485339Y-89665425D01*
X143424016Y-89698910D01*
X143421850Y-89699361D01*
X143266508Y-89730261D01*
X143266498Y-89730264D01*
X143120827Y-89790602D01*
X143120814Y-89790609D01*
X142989711Y-89878210D01*
X142989707Y-89878213D01*
X142878213Y-89989707D01*
X142878210Y-89989711D01*
X142790609Y-90120814D01*
X142790602Y-90120827D01*
X142730264Y-90266498D01*
X142730261Y-90266510D01*
X142699500Y-90421153D01*
X142201500Y-90421153D01*
X142201500Y-90408930D01*
X142201649Y-90402847D01*
X142202251Y-90390590D01*
X142202699Y-90384521D01*
X142205096Y-90360180D01*
X142205841Y-90354141D01*
X142207642Y-90341997D01*
X142208683Y-90335997D01*
X142244218Y-90157352D01*
X142245554Y-90151402D01*
X142248538Y-90139494D01*
X142250159Y-90133639D01*
X142257259Y-90110234D01*
X142259168Y-90104453D01*
X142263302Y-90092900D01*
X142265492Y-90087225D01*
X142303664Y-89995065D01*
X141548730Y-90750000D01*
X140750500Y-90750000D01*
X140750500Y-90220453D01*
X141374000Y-90220453D01*
X142081890Y-89512563D01*
X141374000Y-88804673D01*
X141374000Y-90220453D01*
X140750500Y-90220453D01*
X140750500Y-88275126D01*
X141548730Y-88275126D01*
X142434028Y-89160424D01*
X143319327Y-88275126D01*
X142434028Y-87389827D01*
X141548730Y-88275126D01*
X140750500Y-88275126D01*
X140750500Y-87745580D01*
X141374000Y-87745580D01*
X142081890Y-87037689D01*
X142786166Y-87037689D01*
X143671465Y-87922988D01*
X144556763Y-87037689D01*
X145261040Y-87037689D01*
X145339222Y-87115871D01*
X145341056Y-87114464D01*
X145347654Y-87109736D01*
X145361267Y-87100640D01*
X145368158Y-87096355D01*
X145469096Y-87038079D01*
X145533340Y-87000987D01*
X145540499Y-86997160D01*
X145555185Y-86989918D01*
X145562580Y-86986568D01*
X145592721Y-86974085D01*
X145600308Y-86971229D01*
X145615803Y-86965969D01*
X145623569Y-86963613D01*
X145807804Y-86914247D01*
X145815705Y-86912405D01*
X145831756Y-86909212D01*
X145839761Y-86907890D01*
X145872105Y-86903631D01*
X145880181Y-86902836D01*
X145896517Y-86901765D01*
X145904629Y-86901499D01*
X146094436Y-86901499D01*
X146094468Y-86901500D01*
X146895447Y-86901500D01*
X147872105Y-86901500D01*
X149370321Y-86901500D01*
X150346979Y-86901500D01*
X151845195Y-86901500D01*
X152821852Y-86901500D01*
X154320069Y-86901500D01*
X155296726Y-86901500D01*
X156794942Y-86901500D01*
X157771600Y-86901500D01*
X159269816Y-86901500D01*
X160246473Y-86901500D01*
X161744690Y-86901500D01*
X162721347Y-86901500D01*
X164219564Y-86901500D01*
X164186182Y-86868118D01*
X167704475Y-86868118D01*
X167732576Y-86896219D01*
X167736779Y-86900633D01*
X167745022Y-86909729D01*
X167748991Y-86914330D01*
X167764507Y-86933236D01*
X167768253Y-86938037D01*
X167775564Y-86947895D01*
X167779067Y-86952869D01*
X167880261Y-87104315D01*
X167883522Y-87109465D01*
X167889833Y-87119996D01*
X167892829Y-87125285D01*
X167904358Y-87146855D01*
X167907094Y-87152291D01*
X167912341Y-87163385D01*
X167914807Y-87168949D01*
X167984508Y-87337225D01*
X167986698Y-87342900D01*
X167990832Y-87354453D01*
X167992741Y-87360234D01*
X167999841Y-87383639D01*
X168001462Y-87389494D01*
X168004446Y-87401402D01*
X168005782Y-87407352D01*
X168030913Y-87533698D01*
X168420203Y-87922988D01*
X169305501Y-87037689D01*
X170009778Y-87037689D01*
X170895076Y-87922988D01*
X171780375Y-87037689D01*
X172484651Y-87037689D01*
X173126000Y-87679038D01*
X173126000Y-86396341D01*
X172484651Y-87037689D01*
X171780375Y-87037689D01*
X170895076Y-86152391D01*
X170009778Y-87037689D01*
X169305501Y-87037689D01*
X168420202Y-86152390D01*
X167704475Y-86868118D01*
X164186182Y-86868118D01*
X163470455Y-86152391D01*
X162721347Y-86901500D01*
X161744690Y-86901500D01*
X160995581Y-86152391D01*
X160246473Y-86901500D01*
X159269816Y-86901500D01*
X158520708Y-86152391D01*
X157771600Y-86901500D01*
X156794942Y-86901500D01*
X156045834Y-86152391D01*
X155296726Y-86901500D01*
X154320069Y-86901500D01*
X153570960Y-86152391D01*
X152821852Y-86901500D01*
X151845195Y-86901500D01*
X151096087Y-86152391D01*
X150346979Y-86901500D01*
X149370321Y-86901500D01*
X148621213Y-86152391D01*
X147872105Y-86901500D01*
X146895447Y-86901500D01*
X146146338Y-86152391D01*
X145261040Y-87037689D01*
X144556763Y-87037689D01*
X143671465Y-86152391D01*
X142786166Y-87037689D01*
X142081890Y-87037689D01*
X141374000Y-86329799D01*
X141374000Y-87745580D01*
X140750500Y-87745580D01*
X140750500Y-85800253D01*
X141548730Y-85800253D01*
X142434028Y-86685551D01*
X143319327Y-85800253D01*
X144023604Y-85800253D01*
X144908902Y-86685551D01*
X145794200Y-85800253D01*
X146498478Y-85800253D01*
X147383776Y-86685551D01*
X148269074Y-85800253D01*
X148973352Y-85800253D01*
X149858650Y-86685551D01*
X150743948Y-85800253D01*
X151448225Y-85800253D01*
X152333523Y-86685551D01*
X153218822Y-85800253D01*
X153923099Y-85800253D01*
X154808397Y-86685551D01*
X155693695Y-85800253D01*
X156397973Y-85800253D01*
X157283271Y-86685551D01*
X158168569Y-85800253D01*
X158872847Y-85800253D01*
X159758145Y-86685551D01*
X160643443Y-85800253D01*
X161347720Y-85800253D01*
X162233018Y-86685551D01*
X163118316Y-85800253D01*
X163822594Y-85800253D01*
X164707892Y-86685551D01*
X165593190Y-85800253D01*
X166297468Y-85800253D01*
X166966300Y-86469085D01*
X167092649Y-86494218D01*
X167098598Y-86495554D01*
X167110506Y-86498538D01*
X167116361Y-86500159D01*
X167139766Y-86507259D01*
X167145547Y-86509168D01*
X167157100Y-86513302D01*
X167162775Y-86515492D01*
X167297160Y-86571155D01*
X168068062Y-85800253D01*
X168772342Y-85800253D01*
X169657640Y-86685551D01*
X170542938Y-85800253D01*
X171247215Y-85800253D01*
X172132513Y-86685551D01*
X173017811Y-85800253D01*
X172132513Y-84914954D01*
X171247215Y-85800253D01*
X170542938Y-85800253D01*
X169657640Y-84914955D01*
X168772342Y-85800253D01*
X168068062Y-85800253D01*
X168068063Y-85800252D01*
X167182766Y-84914955D01*
X166297468Y-85800253D01*
X165593190Y-85800253D01*
X164707892Y-84914955D01*
X163822594Y-85800253D01*
X163118316Y-85800253D01*
X162233018Y-84914954D01*
X161347720Y-85800253D01*
X160643443Y-85800253D01*
X159758145Y-84914955D01*
X158872847Y-85800253D01*
X158168569Y-85800253D01*
X157283271Y-84914955D01*
X156397973Y-85800253D01*
X155693695Y-85800253D01*
X154808397Y-84914955D01*
X153923099Y-85800253D01*
X153218822Y-85800253D01*
X152333523Y-84914954D01*
X151448225Y-85800253D01*
X150743948Y-85800253D01*
X149858650Y-84914955D01*
X148973352Y-85800253D01*
X148269074Y-85800253D01*
X147383776Y-84914955D01*
X146498478Y-85800253D01*
X145794200Y-85800253D01*
X144908902Y-84914954D01*
X144023604Y-85800253D01*
X143319327Y-85800253D01*
X142434028Y-84914954D01*
X141548730Y-85800253D01*
X140750500Y-85800253D01*
X140750500Y-85270706D01*
X141374000Y-85270706D01*
X142081890Y-84562816D01*
X142786167Y-84562816D01*
X143671465Y-85448114D01*
X144556763Y-84562816D01*
X145261041Y-84562816D01*
X146146339Y-85448114D01*
X147031637Y-84562816D01*
X147735915Y-84562816D01*
X148621213Y-85448114D01*
X149506511Y-84562816D01*
X150210789Y-84562816D01*
X151096087Y-85448114D01*
X151981385Y-84562816D01*
X152685662Y-84562816D01*
X153570960Y-85448114D01*
X154456258Y-84562816D01*
X155160536Y-84562816D01*
X156045834Y-85448114D01*
X156931132Y-84562816D01*
X157635410Y-84562816D01*
X158520708Y-85448114D01*
X159406006Y-84562816D01*
X160110283Y-84562816D01*
X160995581Y-85448114D01*
X161880880Y-84562816D01*
X162585157Y-84562816D01*
X163470455Y-85448114D01*
X164355753Y-84562816D01*
X165060031Y-84562816D01*
X165945329Y-85448114D01*
X166830627Y-84562816D01*
X167534905Y-84562816D01*
X168420203Y-85448114D01*
X169305501Y-84562816D01*
X170009778Y-84562816D01*
X170895076Y-85448114D01*
X171780375Y-84562816D01*
X172484652Y-84562816D01*
X173126000Y-85204164D01*
X173126000Y-83921468D01*
X172484652Y-84562816D01*
X171780375Y-84562816D01*
X170895076Y-83677517D01*
X170009778Y-84562816D01*
X169305501Y-84562816D01*
X168420203Y-83677518D01*
X167534905Y-84562816D01*
X166830627Y-84562816D01*
X165945329Y-83677518D01*
X165060031Y-84562816D01*
X164355753Y-84562816D01*
X163470455Y-83677517D01*
X162585157Y-84562816D01*
X161880880Y-84562816D01*
X160995581Y-83677517D01*
X160110283Y-84562816D01*
X159406006Y-84562816D01*
X158520708Y-83677518D01*
X157635410Y-84562816D01*
X156931132Y-84562816D01*
X156045834Y-83677518D01*
X155160536Y-84562816D01*
X154456258Y-84562816D01*
X153570960Y-83677517D01*
X152685662Y-84562816D01*
X151981385Y-84562816D01*
X151096087Y-83677518D01*
X150210789Y-84562816D01*
X149506511Y-84562816D01*
X148621213Y-83677518D01*
X147735915Y-84562816D01*
X147031637Y-84562816D01*
X146146339Y-83677518D01*
X145261041Y-84562816D01*
X144556763Y-84562816D01*
X143671465Y-83677517D01*
X142786167Y-84562816D01*
X142081890Y-84562816D01*
X141374000Y-83854926D01*
X141374000Y-85270706D01*
X140750500Y-85270706D01*
X140750500Y-83325379D01*
X141548730Y-83325379D01*
X142434028Y-84210677D01*
X143319327Y-83325379D01*
X144023604Y-83325379D01*
X144908902Y-84210677D01*
X145794200Y-83325379D01*
X146498478Y-83325379D01*
X147383776Y-84210677D01*
X148269074Y-83325379D01*
X148973352Y-83325379D01*
X149858650Y-84210677D01*
X150743948Y-83325379D01*
X151448225Y-83325379D01*
X152333523Y-84210677D01*
X153218822Y-83325379D01*
X153923099Y-83325379D01*
X154808397Y-84210677D01*
X155693695Y-83325379D01*
X156397973Y-83325379D01*
X157283271Y-84210677D01*
X158168569Y-83325379D01*
X158872847Y-83325379D01*
X159758145Y-84210677D01*
X160643443Y-83325379D01*
X161347720Y-83325379D01*
X162233018Y-84210677D01*
X163118316Y-83325379D01*
X163822594Y-83325379D01*
X164707892Y-84210677D01*
X165593190Y-83325379D01*
X166297468Y-83325379D01*
X167182766Y-84210677D01*
X168068064Y-83325379D01*
X168772342Y-83325379D01*
X169657640Y-84210677D01*
X170542938Y-83325379D01*
X171247215Y-83325379D01*
X172132513Y-84210677D01*
X173017811Y-83325379D01*
X172132513Y-82440080D01*
X171247215Y-83325379D01*
X170542938Y-83325379D01*
X169657640Y-82440081D01*
X168772342Y-83325379D01*
X168068064Y-83325379D01*
X167182766Y-82440081D01*
X166297468Y-83325379D01*
X165593190Y-83325379D01*
X164707892Y-82440081D01*
X163822594Y-83325379D01*
X163118316Y-83325379D01*
X162233018Y-82440080D01*
X161347720Y-83325379D01*
X160643443Y-83325379D01*
X159758145Y-82440081D01*
X158872847Y-83325379D01*
X158168569Y-83325379D01*
X157283271Y-82440081D01*
X156397973Y-83325379D01*
X155693695Y-83325379D01*
X154808397Y-82440081D01*
X153923099Y-83325379D01*
X153218822Y-83325379D01*
X152333523Y-82440080D01*
X151448225Y-83325379D01*
X150743948Y-83325379D01*
X149858650Y-82440081D01*
X148973352Y-83325379D01*
X148269074Y-83325379D01*
X147383776Y-82440081D01*
X146498478Y-83325379D01*
X145794200Y-83325379D01*
X144908902Y-82440080D01*
X144023604Y-83325379D01*
X143319327Y-83325379D01*
X142434028Y-82440080D01*
X141548730Y-83325379D01*
X140750500Y-83325379D01*
X140750500Y-82795832D01*
X141374000Y-82795832D01*
X142081890Y-82087942D01*
X142081889Y-82087941D01*
X142786166Y-82087941D01*
X143671465Y-82973240D01*
X144296205Y-82348499D01*
X145521598Y-82348499D01*
X146146338Y-82973239D01*
X146814288Y-82305289D01*
X147953262Y-82305289D01*
X148621212Y-82973239D01*
X149279570Y-82314882D01*
X150437729Y-82314882D01*
X151096086Y-82973239D01*
X151745538Y-82323787D01*
X152921507Y-82323787D01*
X153570960Y-82973240D01*
X154211508Y-82332691D01*
X155405285Y-82332691D01*
X156045833Y-82973239D01*
X156677476Y-82341596D01*
X157889064Y-82341596D01*
X158520707Y-82973239D01*
X159145913Y-82348033D01*
X160370374Y-82348033D01*
X160995581Y-82973240D01*
X161620321Y-82348500D01*
X162845715Y-82348500D01*
X163470455Y-82973240D01*
X164355752Y-82087942D01*
X165060031Y-82087942D01*
X165945329Y-82973240D01*
X166830627Y-82087942D01*
X167534905Y-82087942D01*
X168420203Y-82973240D01*
X169305501Y-82087942D01*
X170009778Y-82087942D01*
X170895076Y-82973240D01*
X171780375Y-82087942D01*
X172484652Y-82087942D01*
X173126000Y-82729290D01*
X173126000Y-81446594D01*
X172484652Y-82087942D01*
X171780375Y-82087942D01*
X170895076Y-81202643D01*
X170009778Y-82087942D01*
X169305501Y-82087942D01*
X168420203Y-81202644D01*
X167534905Y-82087942D01*
X166830627Y-82087942D01*
X165945329Y-81202644D01*
X165060031Y-82087942D01*
X164355752Y-82087942D01*
X164355753Y-82087941D01*
X164080992Y-81813180D01*
X164005019Y-81889155D01*
X164001512Y-81892527D01*
X163994310Y-81899185D01*
X163990676Y-81902414D01*
X163975801Y-81915121D01*
X163972034Y-81918213D01*
X163964315Y-81924299D01*
X163960426Y-81927243D01*
X163772618Y-82063692D01*
X163768618Y-82066480D01*
X163760453Y-82071935D01*
X163756358Y-82074556D01*
X163739679Y-82084777D01*
X163735476Y-82087241D01*
X163726910Y-82092038D01*
X163722618Y-82094332D01*
X163515780Y-82199721D01*
X163511404Y-82201843D01*
X163502479Y-82205958D01*
X163498001Y-82207917D01*
X163479928Y-82215401D01*
X163475400Y-82217173D01*
X163466196Y-82220568D01*
X163461602Y-82222161D01*
X163240834Y-82293894D01*
X163236170Y-82295309D01*
X163226723Y-82297973D01*
X163222021Y-82299199D01*
X163202998Y-82303767D01*
X163198235Y-82304813D01*
X163188602Y-82306729D01*
X163183810Y-82307584D01*
X162954534Y-82343898D01*
X162949706Y-82344566D01*
X162939961Y-82345719D01*
X162935127Y-82346195D01*
X162915625Y-82347731D01*
X162910761Y-82348018D01*
X162900944Y-82348404D01*
X162896072Y-82348500D01*
X162845715Y-82348500D01*
X161620321Y-82348500D01*
X161861964Y-82106857D01*
X161837383Y-82094332D01*
X161833090Y-82092038D01*
X161824524Y-82087241D01*
X161820321Y-82084777D01*
X161803642Y-82074556D01*
X161799547Y-82071935D01*
X161791382Y-82066480D01*
X161787382Y-82063692D01*
X161599574Y-81927243D01*
X161595685Y-81924299D01*
X161587966Y-81918213D01*
X161584199Y-81915121D01*
X161569324Y-81902414D01*
X161565690Y-81899185D01*
X161558488Y-81892527D01*
X161554982Y-81889155D01*
X161510000Y-81844173D01*
X161465018Y-81889155D01*
X161461512Y-81892527D01*
X161454310Y-81899185D01*
X161450676Y-81902414D01*
X161435801Y-81915121D01*
X161432034Y-81918213D01*
X161424315Y-81924299D01*
X161420426Y-81927243D01*
X161232618Y-82063692D01*
X161228618Y-82066480D01*
X161220453Y-82071935D01*
X161216358Y-82074556D01*
X161199679Y-82084777D01*
X161195476Y-82087241D01*
X161186910Y-82092038D01*
X161182618Y-82094332D01*
X160975780Y-82199721D01*
X160971404Y-82201843D01*
X160962479Y-82205958D01*
X160958001Y-82207917D01*
X160939928Y-82215401D01*
X160935400Y-82217173D01*
X160926196Y-82220568D01*
X160921602Y-82222161D01*
X160700834Y-82293894D01*
X160696170Y-82295309D01*
X160686723Y-82297973D01*
X160682021Y-82299199D01*
X160662998Y-82303767D01*
X160658235Y-82304813D01*
X160648602Y-82306729D01*
X160643810Y-82307584D01*
X160414534Y-82343898D01*
X160409706Y-82344566D01*
X160399961Y-82345719D01*
X160395127Y-82346195D01*
X160375625Y-82347731D01*
X160370761Y-82348018D01*
X160370374Y-82348033D01*
X159145913Y-82348033D01*
X159365107Y-82128839D01*
X159297382Y-82094332D01*
X159293090Y-82092038D01*
X159284524Y-82087241D01*
X159280321Y-82084777D01*
X159263642Y-82074556D01*
X159259547Y-82071935D01*
X159251382Y-82066480D01*
X159247382Y-82063692D01*
X159059574Y-81927243D01*
X159055685Y-81924299D01*
X159047966Y-81918213D01*
X159044199Y-81915121D01*
X159029324Y-81902414D01*
X159025690Y-81899185D01*
X159018488Y-81892527D01*
X159014982Y-81889155D01*
X158970000Y-81844173D01*
X158925018Y-81889155D01*
X158921512Y-81892527D01*
X158914310Y-81899185D01*
X158910676Y-81902414D01*
X158895801Y-81915121D01*
X158892034Y-81918213D01*
X158884315Y-81924299D01*
X158880426Y-81927243D01*
X158692618Y-82063692D01*
X158688618Y-82066480D01*
X158680453Y-82071935D01*
X158676358Y-82074556D01*
X158659679Y-82084777D01*
X158655476Y-82087241D01*
X158646910Y-82092038D01*
X158642618Y-82094332D01*
X158435780Y-82199721D01*
X158431404Y-82201843D01*
X158422479Y-82205958D01*
X158418001Y-82207917D01*
X158399928Y-82215401D01*
X158395400Y-82217173D01*
X158386196Y-82220568D01*
X158381602Y-82222161D01*
X158160834Y-82293894D01*
X158156170Y-82295309D01*
X158146723Y-82297973D01*
X158142021Y-82299199D01*
X158122998Y-82303767D01*
X158118235Y-82304813D01*
X158108602Y-82306729D01*
X158103810Y-82307584D01*
X157889064Y-82341596D01*
X156677476Y-82341596D01*
X156868250Y-82150822D01*
X156757382Y-82094332D01*
X156753090Y-82092038D01*
X156744524Y-82087241D01*
X156740321Y-82084777D01*
X156723642Y-82074556D01*
X156719547Y-82071935D01*
X156711382Y-82066480D01*
X156707382Y-82063692D01*
X156519574Y-81927243D01*
X156515685Y-81924299D01*
X156507966Y-81918213D01*
X156504199Y-81915121D01*
X156489324Y-81902414D01*
X156485690Y-81899185D01*
X156478488Y-81892527D01*
X156474982Y-81889155D01*
X156430000Y-81844173D01*
X156385018Y-81889155D01*
X156381512Y-81892527D01*
X156374310Y-81899185D01*
X156370676Y-81902414D01*
X156355801Y-81915121D01*
X156352034Y-81918213D01*
X156344315Y-81924299D01*
X156340426Y-81927243D01*
X156152618Y-82063692D01*
X156148618Y-82066480D01*
X156140453Y-82071935D01*
X156136358Y-82074556D01*
X156119679Y-82084777D01*
X156115476Y-82087241D01*
X156106910Y-82092038D01*
X156102618Y-82094332D01*
X155895780Y-82199721D01*
X155891404Y-82201843D01*
X155882479Y-82205958D01*
X155878001Y-82207917D01*
X155859928Y-82215401D01*
X155855400Y-82217173D01*
X155846196Y-82220568D01*
X155841602Y-82222161D01*
X155620834Y-82293894D01*
X155616170Y-82295309D01*
X155606723Y-82297973D01*
X155602021Y-82299199D01*
X155582998Y-82303767D01*
X155578235Y-82304813D01*
X155568602Y-82306729D01*
X155563810Y-82307584D01*
X155405285Y-82332691D01*
X154211508Y-82332691D01*
X154371394Y-82172805D01*
X154217382Y-82094332D01*
X154213090Y-82092038D01*
X154204524Y-82087241D01*
X154200321Y-82084777D01*
X154183642Y-82074556D01*
X154179547Y-82071935D01*
X154171382Y-82066480D01*
X154167382Y-82063692D01*
X153979574Y-81927243D01*
X153975685Y-81924299D01*
X153967966Y-81918213D01*
X153964199Y-81915121D01*
X153949324Y-81902414D01*
X153945690Y-81899185D01*
X153938488Y-81892527D01*
X153934982Y-81889155D01*
X153890000Y-81844173D01*
X153845018Y-81889155D01*
X153841512Y-81892527D01*
X153834310Y-81899185D01*
X153830676Y-81902414D01*
X153815801Y-81915121D01*
X153812034Y-81918213D01*
X153804315Y-81924299D01*
X153800426Y-81927243D01*
X153612618Y-82063692D01*
X153608618Y-82066480D01*
X153600453Y-82071935D01*
X153596358Y-82074556D01*
X153579679Y-82084777D01*
X153575476Y-82087241D01*
X153566910Y-82092038D01*
X153562618Y-82094332D01*
X153355780Y-82199721D01*
X153351404Y-82201843D01*
X153342479Y-82205958D01*
X153338001Y-82207917D01*
X153319928Y-82215401D01*
X153315400Y-82217173D01*
X153306196Y-82220568D01*
X153301602Y-82222161D01*
X153080834Y-82293894D01*
X153076170Y-82295309D01*
X153066723Y-82297973D01*
X153062021Y-82299199D01*
X153042998Y-82303767D01*
X153038235Y-82304813D01*
X153028602Y-82306729D01*
X153023810Y-82307584D01*
X152921507Y-82323787D01*
X151745538Y-82323787D01*
X151874538Y-82194787D01*
X151677382Y-82094332D01*
X151673090Y-82092038D01*
X151664524Y-82087241D01*
X151660321Y-82084777D01*
X151643642Y-82074556D01*
X151639547Y-82071935D01*
X151631382Y-82066480D01*
X151627382Y-82063692D01*
X151439574Y-81927243D01*
X151435685Y-81924299D01*
X151427966Y-81918213D01*
X151424199Y-81915121D01*
X151409324Y-81902414D01*
X151405690Y-81899185D01*
X151398488Y-81892527D01*
X151394982Y-81889155D01*
X151350000Y-81844173D01*
X151305018Y-81889155D01*
X151301512Y-81892527D01*
X151294310Y-81899185D01*
X151290676Y-81902414D01*
X151275801Y-81915121D01*
X151272034Y-81918213D01*
X151264315Y-81924299D01*
X151260426Y-81927243D01*
X151072618Y-82063692D01*
X151068618Y-82066480D01*
X151060453Y-82071935D01*
X151056358Y-82074556D01*
X151039679Y-82084777D01*
X151035476Y-82087241D01*
X151026910Y-82092038D01*
X151022618Y-82094332D01*
X150815780Y-82199721D01*
X150811404Y-82201843D01*
X150802479Y-82205958D01*
X150798001Y-82207917D01*
X150779928Y-82215401D01*
X150775400Y-82217173D01*
X150766196Y-82220568D01*
X150761602Y-82222161D01*
X150540834Y-82293894D01*
X150536170Y-82295309D01*
X150526723Y-82297973D01*
X150522021Y-82299199D01*
X150502998Y-82303767D01*
X150498235Y-82304813D01*
X150488602Y-82306729D01*
X150483810Y-82307584D01*
X150437729Y-82314882D01*
X149279570Y-82314882D01*
X149379350Y-82215102D01*
X149361999Y-82207917D01*
X149357521Y-82205958D01*
X149348596Y-82201843D01*
X149344220Y-82199721D01*
X149137382Y-82094332D01*
X149133090Y-82092038D01*
X149124524Y-82087241D01*
X149120321Y-82084777D01*
X149103642Y-82074556D01*
X149099547Y-82071935D01*
X149091382Y-82066480D01*
X149087382Y-82063692D01*
X148899574Y-81927243D01*
X148895685Y-81924299D01*
X148887966Y-81918213D01*
X148884199Y-81915121D01*
X148869324Y-81902414D01*
X148865690Y-81899185D01*
X148858488Y-81892527D01*
X148854982Y-81889155D01*
X148809646Y-81843819D01*
X148764692Y-81888773D01*
X148761186Y-81892145D01*
X148753984Y-81898803D01*
X148750350Y-81902032D01*
X148735475Y-81914739D01*
X148731708Y-81917831D01*
X148723989Y-81923917D01*
X148720100Y-81926861D01*
X148532356Y-82063264D01*
X148528356Y-82066052D01*
X148520191Y-82071507D01*
X148516096Y-82074128D01*
X148499417Y-82084349D01*
X148495220Y-82086810D01*
X148486655Y-82091607D01*
X148482357Y-82093904D01*
X148275594Y-82199256D01*
X148271209Y-82201383D01*
X148262295Y-82205492D01*
X148257840Y-82207440D01*
X148239766Y-82214927D01*
X148235234Y-82216701D01*
X148226019Y-82220101D01*
X148221414Y-82221698D01*
X148000708Y-82293409D01*
X147996040Y-82294825D01*
X147986581Y-82297492D01*
X147981868Y-82298721D01*
X147962846Y-82303286D01*
X147958103Y-82304327D01*
X147953262Y-82305289D01*
X146814288Y-82305289D01*
X146888243Y-82231334D01*
X146858586Y-82221698D01*
X146853981Y-82220101D01*
X146844766Y-82216701D01*
X146840234Y-82214927D01*
X146822160Y-82207440D01*
X146817705Y-82205492D01*
X146808791Y-82201383D01*
X146804406Y-82199256D01*
X146597643Y-82093904D01*
X146593345Y-82091607D01*
X146584780Y-82086810D01*
X146580583Y-82084349D01*
X146563904Y-82074128D01*
X146559809Y-82071507D01*
X146552647Y-82066722D01*
X146547101Y-82072269D01*
X146540621Y-82078303D01*
X146527126Y-82089996D01*
X146520237Y-82095547D01*
X146376528Y-82203129D01*
X146369252Y-82208181D01*
X146354229Y-82217835D01*
X146346621Y-82222348D01*
X146315379Y-82239408D01*
X146307463Y-82243371D01*
X146291218Y-82250790D01*
X146283039Y-82254178D01*
X146116927Y-82316134D01*
X146109587Y-82318613D01*
X146094636Y-82323148D01*
X146087160Y-82325163D01*
X146056856Y-82332324D01*
X146049265Y-82333870D01*
X146033863Y-82336507D01*
X146026190Y-82337575D01*
X145944466Y-82346360D01*
X145941151Y-82346671D01*
X145934472Y-82347208D01*
X145931165Y-82347430D01*
X145917851Y-82348143D01*
X145914540Y-82348276D01*
X145907856Y-82348455D01*
X145904536Y-82348499D01*
X145521598Y-82348499D01*
X144296205Y-82348499D01*
X144095455Y-82348500D01*
X144092125Y-82348455D01*
X144085424Y-82348275D01*
X144082115Y-82348142D01*
X144068798Y-82347428D01*
X144065479Y-82347205D01*
X144058814Y-82346668D01*
X144055517Y-82346359D01*
X143973805Y-82337574D01*
X143966134Y-82336506D01*
X143950738Y-82333870D01*
X143943149Y-82332325D01*
X143912848Y-82325165D01*
X143905372Y-82323150D01*
X143890417Y-82318614D01*
X143883075Y-82316134D01*
X143716961Y-82254178D01*
X143708782Y-82250790D01*
X143692537Y-82243371D01*
X143684621Y-82239408D01*
X143653379Y-82222348D01*
X143645771Y-82217835D01*
X143630748Y-82208181D01*
X143623472Y-82203129D01*
X143479763Y-82095547D01*
X143472874Y-82089996D01*
X143459379Y-82078303D01*
X143452899Y-82072269D01*
X143427731Y-82047101D01*
X143421697Y-82040621D01*
X143410004Y-82027126D01*
X143404453Y-82020237D01*
X143296871Y-81876528D01*
X143291819Y-81869252D01*
X143282165Y-81854229D01*
X143277652Y-81846621D01*
X143260592Y-81815379D01*
X143256629Y-81807463D01*
X143249210Y-81791218D01*
X143245822Y-81783039D01*
X143203782Y-81670325D01*
X142786166Y-82087941D01*
X142081889Y-82087941D01*
X141374000Y-81380052D01*
X141374000Y-82795832D01*
X140750500Y-82795832D01*
X140750500Y-80850505D01*
X141548730Y-80850505D01*
X142434028Y-81735802D01*
X143151500Y-81018331D01*
X143151500Y-80682678D01*
X142434028Y-79965206D01*
X141548730Y-80850505D01*
X140750500Y-80850505D01*
X140750500Y-80320958D01*
X141374000Y-80320958D01*
X142081890Y-79613068D01*
X142070957Y-79602135D01*
X143649500Y-79602135D01*
X143649500Y-81397870D01*
X143649501Y-81397876D01*
X143655908Y-81457483D01*
X143706202Y-81592328D01*
X143706206Y-81592335D01*
X143792452Y-81707544D01*
X143792455Y-81707547D01*
X143907664Y-81793793D01*
X143907671Y-81793797D01*
X144042517Y-81844091D01*
X144042516Y-81844091D01*
X144049444Y-81844835D01*
X144102127Y-81850500D01*
X145897872Y-81850499D01*
X145957483Y-81844091D01*
X146092331Y-81793796D01*
X146207546Y-81707546D01*
X146293796Y-81592331D01*
X146343002Y-81460401D01*
X146384872Y-81404468D01*
X146450337Y-81380050D01*
X146518610Y-81394901D01*
X146546865Y-81416053D01*
X146660535Y-81529723D01*
X146660540Y-81529727D01*
X146832442Y-81654620D01*
X147021782Y-81751095D01*
X147223871Y-81816757D01*
X147290000Y-81827231D01*
X147290000Y-80933012D01*
X147347007Y-80965925D01*
X147474174Y-81000000D01*
X147605826Y-81000000D01*
X147732993Y-80965925D01*
X147790000Y-80933012D01*
X147790000Y-81827230D01*
X147856126Y-81816757D01*
X147856129Y-81816757D01*
X148058217Y-81751095D01*
X148247557Y-81654620D01*
X148419459Y-81529727D01*
X148419464Y-81529723D01*
X148569723Y-81379464D01*
X148569727Y-81379459D01*
X148694620Y-81207558D01*
X148699232Y-81198507D01*
X148747205Y-81147709D01*
X148815025Y-81130912D01*
X148881161Y-81153447D01*
X148920204Y-81198504D01*
X148924949Y-81207817D01*
X149049890Y-81379786D01*
X149200213Y-81530109D01*
X149372179Y-81655048D01*
X149372181Y-81655049D01*
X149372184Y-81655051D01*
X149561588Y-81751557D01*
X149763757Y-81817246D01*
X149973713Y-81850500D01*
X149973714Y-81850500D01*
X150186286Y-81850500D01*
X150186287Y-81850500D01*
X150396243Y-81817246D01*
X150598412Y-81751557D01*
X150787816Y-81655051D01*
X150874138Y-81592335D01*
X150959786Y-81530109D01*
X150959788Y-81530106D01*
X150959792Y-81530104D01*
X151110104Y-81379792D01*
X151110106Y-81379788D01*
X151110109Y-81379786D01*
X151235048Y-81207820D01*
X151235050Y-81207817D01*
X151235051Y-81207816D01*
X151239514Y-81199054D01*
X151287488Y-81148259D01*
X151355308Y-81131463D01*
X151421444Y-81153999D01*
X151460486Y-81199056D01*
X151464951Y-81207820D01*
X151589890Y-81379786D01*
X151740213Y-81530109D01*
X151912179Y-81655048D01*
X151912181Y-81655049D01*
X151912184Y-81655051D01*
X152101588Y-81751557D01*
X152303757Y-81817246D01*
X152513713Y-81850500D01*
X152513714Y-81850500D01*
X152726286Y-81850500D01*
X152726287Y-81850500D01*
X152936243Y-81817246D01*
X153138412Y-81751557D01*
X153327816Y-81655051D01*
X153414138Y-81592335D01*
X153499786Y-81530109D01*
X153499788Y-81530106D01*
X153499792Y-81530104D01*
X153650104Y-81379792D01*
X153650106Y-81379788D01*
X153650109Y-81379786D01*
X153775048Y-81207820D01*
X153775050Y-81207817D01*
X153775051Y-81207816D01*
X153779514Y-81199054D01*
X153827488Y-81148259D01*
X153895308Y-81131463D01*
X153961444Y-81153999D01*
X154000486Y-81199056D01*
X154004951Y-81207820D01*
X154129890Y-81379786D01*
X154280213Y-81530109D01*
X154452179Y-81655048D01*
X154452181Y-81655049D01*
X154452184Y-81655051D01*
X154641588Y-81751557D01*
X154843757Y-81817246D01*
X155053713Y-81850500D01*
X155053714Y-81850500D01*
X155266286Y-81850500D01*
X155266287Y-81850500D01*
X155476243Y-81817246D01*
X155678412Y-81751557D01*
X155867816Y-81655051D01*
X155954138Y-81592335D01*
X156039786Y-81530109D01*
X156039788Y-81530106D01*
X156039792Y-81530104D01*
X156190104Y-81379792D01*
X156190106Y-81379788D01*
X156190109Y-81379786D01*
X156315048Y-81207820D01*
X156315050Y-81207817D01*
X156315051Y-81207816D01*
X156319514Y-81199054D01*
X156367488Y-81148259D01*
X156435308Y-81131463D01*
X156501444Y-81153999D01*
X156540486Y-81199056D01*
X156544951Y-81207820D01*
X156669890Y-81379786D01*
X156820213Y-81530109D01*
X156992179Y-81655048D01*
X156992181Y-81655049D01*
X156992184Y-81655051D01*
X157181588Y-81751557D01*
X157383757Y-81817246D01*
X157593713Y-81850500D01*
X157593714Y-81850500D01*
X157806286Y-81850500D01*
X157806287Y-81850500D01*
X158016243Y-81817246D01*
X158218412Y-81751557D01*
X158407816Y-81655051D01*
X158494138Y-81592335D01*
X158579786Y-81530109D01*
X158579788Y-81530106D01*
X158579792Y-81530104D01*
X158730104Y-81379792D01*
X158730106Y-81379788D01*
X158730109Y-81379786D01*
X158855048Y-81207820D01*
X158855050Y-81207817D01*
X158855051Y-81207816D01*
X158859514Y-81199054D01*
X158907488Y-81148259D01*
X158975308Y-81131463D01*
X159041444Y-81153999D01*
X159080486Y-81199056D01*
X159084951Y-81207820D01*
X159209890Y-81379786D01*
X159360213Y-81530109D01*
X159532179Y-81655048D01*
X159532181Y-81655049D01*
X159532184Y-81655051D01*
X159721588Y-81751557D01*
X159923757Y-81817246D01*
X160133713Y-81850500D01*
X160133714Y-81850500D01*
X160346286Y-81850500D01*
X160346287Y-81850500D01*
X160556243Y-81817246D01*
X160758412Y-81751557D01*
X160947816Y-81655051D01*
X161034138Y-81592335D01*
X161119786Y-81530109D01*
X161119788Y-81530106D01*
X161119792Y-81530104D01*
X161270104Y-81379792D01*
X161270106Y-81379788D01*
X161270109Y-81379786D01*
X161395048Y-81207820D01*
X161395050Y-81207817D01*
X161395051Y-81207816D01*
X161399514Y-81199054D01*
X161447488Y-81148259D01*
X161515308Y-81131463D01*
X161581444Y-81153999D01*
X161620486Y-81199056D01*
X161624951Y-81207820D01*
X161749890Y-81379786D01*
X161900213Y-81530109D01*
X162072179Y-81655048D01*
X162072181Y-81655049D01*
X162072184Y-81655051D01*
X162261588Y-81751557D01*
X162463757Y-81817246D01*
X162673713Y-81850500D01*
X162673714Y-81850500D01*
X162886286Y-81850500D01*
X162886287Y-81850500D01*
X163096243Y-81817246D01*
X163298412Y-81751557D01*
X163487816Y-81655051D01*
X163574138Y-81592335D01*
X163659786Y-81530109D01*
X163659788Y-81530106D01*
X163659792Y-81530104D01*
X163774025Y-81415871D01*
X164387960Y-81415871D01*
X164707892Y-81735803D01*
X165593190Y-80850505D01*
X166297468Y-80850505D01*
X167182766Y-81735803D01*
X168068064Y-80850505D01*
X168772342Y-80850505D01*
X169657640Y-81735803D01*
X170542938Y-80850505D01*
X171247215Y-80850505D01*
X172132513Y-81735803D01*
X173017811Y-80850505D01*
X172132513Y-79965206D01*
X171247215Y-80850505D01*
X170542938Y-80850505D01*
X169657640Y-79965207D01*
X168772342Y-80850505D01*
X168068064Y-80850505D01*
X167182766Y-79965207D01*
X166297468Y-80850505D01*
X165593190Y-80850505D01*
X164707891Y-79965206D01*
X164585894Y-80087203D01*
X164586729Y-80091398D01*
X164587584Y-80096190D01*
X164623898Y-80325466D01*
X164624566Y-80330294D01*
X164625719Y-80340039D01*
X164626195Y-80344873D01*
X164627731Y-80364375D01*
X164628018Y-80369239D01*
X164628404Y-80379056D01*
X164628500Y-80383928D01*
X164628500Y-80616072D01*
X164628404Y-80620944D01*
X164628018Y-80630761D01*
X164627731Y-80635625D01*
X164626195Y-80655127D01*
X164625719Y-80659961D01*
X164624566Y-80669706D01*
X164623898Y-80674534D01*
X164587584Y-80903810D01*
X164586729Y-80908602D01*
X164584813Y-80918235D01*
X164583767Y-80922998D01*
X164579199Y-80942021D01*
X164577973Y-80946723D01*
X164575309Y-80956170D01*
X164573894Y-80960834D01*
X164502161Y-81181602D01*
X164500568Y-81186196D01*
X164497173Y-81195400D01*
X164495401Y-81199928D01*
X164487917Y-81218001D01*
X164485958Y-81222479D01*
X164481843Y-81231404D01*
X164479721Y-81235780D01*
X164387960Y-81415871D01*
X163774025Y-81415871D01*
X163810104Y-81379792D01*
X163810106Y-81379788D01*
X163810109Y-81379786D01*
X163935048Y-81207820D01*
X163935050Y-81207817D01*
X163935051Y-81207816D01*
X164031557Y-81018412D01*
X164097246Y-80816243D01*
X164130500Y-80606287D01*
X164130500Y-80393713D01*
X164097246Y-80183757D01*
X164031557Y-79981588D01*
X163935051Y-79792184D01*
X163935049Y-79792181D01*
X163935048Y-79792179D01*
X163810109Y-79620213D01*
X163802964Y-79613068D01*
X165060030Y-79613068D01*
X165945329Y-80498366D01*
X166830627Y-79613068D01*
X167534904Y-79613068D01*
X168420203Y-80498366D01*
X169305501Y-79613068D01*
X170009778Y-79613068D01*
X170895076Y-80498366D01*
X171780375Y-79613068D01*
X172484652Y-79613068D01*
X173126000Y-80254416D01*
X173126000Y-79374000D01*
X172723720Y-79374000D01*
X172484652Y-79613068D01*
X171780375Y-79613068D01*
X171541307Y-79374000D01*
X170248846Y-79374000D01*
X170009778Y-79613068D01*
X169305501Y-79613068D01*
X169066433Y-79374000D01*
X167773973Y-79374000D01*
X167534904Y-79613068D01*
X166830627Y-79613068D01*
X166591559Y-79374000D01*
X165299099Y-79374000D01*
X165060030Y-79613068D01*
X163802964Y-79613068D01*
X163659786Y-79469890D01*
X163487820Y-79344951D01*
X163298414Y-79248444D01*
X163298413Y-79248443D01*
X163298412Y-79248443D01*
X163096243Y-79182754D01*
X163096241Y-79182753D01*
X163096240Y-79182753D01*
X162934957Y-79157208D01*
X162886287Y-79149500D01*
X162673713Y-79149500D01*
X162625042Y-79157208D01*
X162463760Y-79182753D01*
X162261585Y-79248444D01*
X162072179Y-79344951D01*
X161900213Y-79469890D01*
X161749890Y-79620213D01*
X161624949Y-79792182D01*
X161620484Y-79800946D01*
X161572509Y-79851742D01*
X161504688Y-79868536D01*
X161438553Y-79845998D01*
X161399516Y-79800946D01*
X161395050Y-79792182D01*
X161270109Y-79620213D01*
X161119786Y-79469890D01*
X160947820Y-79344951D01*
X160758414Y-79248444D01*
X160758413Y-79248443D01*
X160758412Y-79248443D01*
X160556243Y-79182754D01*
X160556241Y-79182753D01*
X160556240Y-79182753D01*
X160394957Y-79157208D01*
X160346287Y-79149500D01*
X160133713Y-79149500D01*
X160085042Y-79157208D01*
X159923760Y-79182753D01*
X159721585Y-79248444D01*
X159532179Y-79344951D01*
X159360213Y-79469890D01*
X159209890Y-79620213D01*
X159084949Y-79792182D01*
X159080484Y-79800946D01*
X159032509Y-79851742D01*
X158964688Y-79868536D01*
X158898553Y-79845998D01*
X158859516Y-79800946D01*
X158855050Y-79792182D01*
X158730109Y-79620213D01*
X158579786Y-79469890D01*
X158407820Y-79344951D01*
X158218414Y-79248444D01*
X158218413Y-79248443D01*
X158218412Y-79248443D01*
X158016243Y-79182754D01*
X158016241Y-79182753D01*
X158016240Y-79182753D01*
X157854957Y-79157208D01*
X157806287Y-79149500D01*
X157593713Y-79149500D01*
X157545042Y-79157208D01*
X157383760Y-79182753D01*
X157181585Y-79248444D01*
X156992179Y-79344951D01*
X156820213Y-79469890D01*
X156669890Y-79620213D01*
X156544949Y-79792182D01*
X156540484Y-79800946D01*
X156492509Y-79851742D01*
X156424688Y-79868536D01*
X156358553Y-79845998D01*
X156319516Y-79800946D01*
X156315050Y-79792182D01*
X156190109Y-79620213D01*
X156039786Y-79469890D01*
X155867820Y-79344951D01*
X155678414Y-79248444D01*
X155678413Y-79248443D01*
X155678412Y-79248443D01*
X155476243Y-79182754D01*
X155476241Y-79182753D01*
X155476240Y-79182753D01*
X155314957Y-79157208D01*
X155266287Y-79149500D01*
X155053713Y-79149500D01*
X155005042Y-79157208D01*
X154843760Y-79182753D01*
X154641585Y-79248444D01*
X154452179Y-79344951D01*
X154280213Y-79469890D01*
X154129890Y-79620213D01*
X154004949Y-79792182D01*
X154000484Y-79800946D01*
X153952509Y-79851742D01*
X153884688Y-79868536D01*
X153818553Y-79845998D01*
X153779516Y-79800946D01*
X153775050Y-79792182D01*
X153650109Y-79620213D01*
X153499786Y-79469890D01*
X153327820Y-79344951D01*
X153138414Y-79248444D01*
X153138413Y-79248443D01*
X153138412Y-79248443D01*
X152936243Y-79182754D01*
X152936241Y-79182753D01*
X152936240Y-79182753D01*
X152774957Y-79157208D01*
X152726287Y-79149500D01*
X152513713Y-79149500D01*
X152465042Y-79157208D01*
X152303760Y-79182753D01*
X152101585Y-79248444D01*
X151912179Y-79344951D01*
X151740213Y-79469890D01*
X151589890Y-79620213D01*
X151464949Y-79792182D01*
X151460484Y-79800946D01*
X151412509Y-79851742D01*
X151344688Y-79868536D01*
X151278553Y-79845998D01*
X151239516Y-79800946D01*
X151235050Y-79792182D01*
X151110109Y-79620213D01*
X150959786Y-79469890D01*
X150787820Y-79344951D01*
X150598414Y-79248444D01*
X150598413Y-79248443D01*
X150598412Y-79248443D01*
X150396243Y-79182754D01*
X150396241Y-79182753D01*
X150396240Y-79182753D01*
X150234957Y-79157208D01*
X150186287Y-79149500D01*
X149973713Y-79149500D01*
X149925042Y-79157208D01*
X149763760Y-79182753D01*
X149561585Y-79248444D01*
X149372179Y-79344951D01*
X149200213Y-79469890D01*
X149049890Y-79620213D01*
X148924949Y-79792182D01*
X148920202Y-79801499D01*
X148872227Y-79852293D01*
X148804405Y-79869087D01*
X148738271Y-79846548D01*
X148699234Y-79801495D01*
X148694622Y-79792444D01*
X148569727Y-79620540D01*
X148569723Y-79620535D01*
X148419464Y-79470276D01*
X148419459Y-79470272D01*
X148247557Y-79345379D01*
X148058215Y-79248903D01*
X147856124Y-79183241D01*
X147790000Y-79172768D01*
X147790000Y-80066988D01*
X147732993Y-80034075D01*
X147605826Y-80000000D01*
X147474174Y-80000000D01*
X147347007Y-80034075D01*
X147290000Y-80066988D01*
X147290000Y-79172768D01*
X147289999Y-79172768D01*
X147223875Y-79183241D01*
X147021784Y-79248903D01*
X146832442Y-79345379D01*
X146660541Y-79470271D01*
X146546865Y-79583947D01*
X146485542Y-79617431D01*
X146415850Y-79612447D01*
X146359917Y-79570575D01*
X146343002Y-79539598D01*
X146293797Y-79407671D01*
X146293793Y-79407664D01*
X146207547Y-79292455D01*
X146207544Y-79292452D01*
X146092335Y-79206206D01*
X146092328Y-79206202D01*
X145957482Y-79155908D01*
X145957483Y-79155908D01*
X145897883Y-79149501D01*
X145897881Y-79149500D01*
X145897873Y-79149500D01*
X145897864Y-79149500D01*
X144102129Y-79149500D01*
X144102123Y-79149501D01*
X144042516Y-79155908D01*
X143907671Y-79206202D01*
X143907664Y-79206206D01*
X143792455Y-79292452D01*
X143792452Y-79292455D01*
X143706206Y-79407664D01*
X143706202Y-79407671D01*
X143655908Y-79542517D01*
X143649501Y-79602116D01*
X143649500Y-79602135D01*
X142070957Y-79602135D01*
X141842822Y-79374000D01*
X141374000Y-79374000D01*
X141374000Y-80320958D01*
X140750500Y-80320958D01*
X140750500Y-78874500D01*
X140770185Y-78807461D01*
X140822989Y-78761706D01*
X140874500Y-78750500D01*
X173625500Y-78750500D01*
X173692539Y-78770185D01*
G37*
G04 #@! TD.AperFunction*
D14*
X140250000Y-78250000D02*
X174250000Y-78250000D01*
X174250000Y-103250000D01*
X140250000Y-103250000D01*
X140250000Y-78250000D01*
M02*
