G04 #@! TF.GenerationSoftware,KiCad,Pcbnew,9.0.9*
G04 #@! TF.CreationDate,2026-07-11T21:39:48-05:00*
G04 #@! TF.ProjectId,psycho_sao_2,70737963-686f-45f7-9361-6f5f322e6b69,1*
G04 #@! TF.SameCoordinates,Original*
G04 #@! TF.FileFunction,Soldermask,Bot*
G04 #@! TF.FilePolarity,Negative*
%FSLAX46Y46*%
G04 Gerber Fmt 4.6, Leading zero omitted, Abs format (unit mm)*
G04 Created by KiCad (PCBNEW 9.0.9) date 2026-07-11 21:39:48*
%MOMM*%
%LPD*%
G01*
G04 APERTURE LIST*
%ADD10C,0.100000*%
%ADD11R,1.800000X1.800000*%
%ADD12C,1.800000*%
%ADD13C,2.700000*%
%ADD14C,1.400000*%
%ADD15R,1.727200X1.727200*%
%ADD16C,1.727200*%
%ADD17O,1.727200X1.727200*%
%ADD18C,0.500000*%
G04 APERTURE END LIST*
D10*
G04 #@! TO.C,SB_F_MASK*
X113540000Y-69280000D02*
X113530000Y-73640000D01*
X110310000Y-73610000D01*
X104280000Y-73620000D01*
X101280000Y-73640000D01*
X98020000Y-73600000D01*
X97980000Y-69310000D01*
X100540000Y-69270000D01*
X104220000Y-69280000D01*
X107110000Y-69260000D01*
X110530000Y-69250000D01*
X113540000Y-69280000D01*
G36*
X113540000Y-69280000D02*
G01*
X113530000Y-73640000D01*
X110310000Y-73610000D01*
X104280000Y-73620000D01*
X101280000Y-73640000D01*
X98020000Y-73600000D01*
X97980000Y-69310000D01*
X100540000Y-69270000D01*
X104220000Y-69280000D01*
X107110000Y-69260000D01*
X110530000Y-69250000D01*
X113540000Y-69280000D01*
G37*
X101870000Y-119881556D02*
X101910000Y-124171556D01*
X99350000Y-124211556D01*
X95670000Y-124201556D01*
X92780000Y-124221556D01*
X89360000Y-124231556D01*
X86350000Y-124201556D01*
X86360000Y-119841556D01*
X89580000Y-119871556D01*
X95610000Y-119861556D01*
X98610000Y-119841556D01*
X101870000Y-119881556D01*
G36*
X101870000Y-119881556D02*
G01*
X101910000Y-124171556D01*
X99350000Y-124211556D01*
X95670000Y-124201556D01*
X92780000Y-124221556D01*
X89360000Y-124231556D01*
X86350000Y-124201556D01*
X86360000Y-119841556D01*
X89580000Y-119871556D01*
X95610000Y-119861556D01*
X98610000Y-119841556D01*
X101870000Y-119881556D01*
G37*
X154630000Y-69260000D02*
X154620000Y-73620000D01*
X151400000Y-73590000D01*
X145370000Y-73600000D01*
X142370000Y-73620000D01*
X139110000Y-73580000D01*
X139070000Y-69290000D01*
X141630000Y-69250000D01*
X145310000Y-69260000D01*
X148200000Y-69240000D01*
X151620000Y-69230000D01*
X154630000Y-69260000D01*
G36*
X154630000Y-69260000D02*
G01*
X154620000Y-73620000D01*
X151400000Y-73590000D01*
X145370000Y-73600000D01*
X142370000Y-73620000D01*
X139110000Y-73580000D01*
X139070000Y-69290000D01*
X141630000Y-69250000D01*
X145310000Y-69260000D01*
X148200000Y-69240000D01*
X151620000Y-69230000D01*
X154630000Y-69260000D01*
G37*
X142960000Y-119861556D02*
X143000000Y-124151556D01*
X140440000Y-124191556D01*
X136760000Y-124181556D01*
X133870000Y-124201556D01*
X130450000Y-124211556D01*
X127440000Y-124181556D01*
X127450000Y-119821556D01*
X130670000Y-119851556D01*
X136700000Y-119841556D01*
X139700000Y-119821556D01*
X142960000Y-119861556D01*
G36*
X142960000Y-119861556D02*
G01*
X143000000Y-124151556D01*
X140440000Y-124191556D01*
X136760000Y-124181556D01*
X133870000Y-124201556D01*
X130450000Y-124211556D01*
X127440000Y-124181556D01*
X127450000Y-119821556D01*
X130670000Y-119851556D01*
X136700000Y-119841556D01*
X139700000Y-119821556D01*
X142960000Y-119861556D01*
G37*
X92190000Y-62760000D02*
X92330000Y-63250000D01*
X92710000Y-63440000D01*
X93310000Y-63570000D01*
X93890000Y-64120000D01*
X94130000Y-64870000D01*
X94100000Y-65610000D01*
X93840000Y-66280000D01*
X93390000Y-66790000D01*
X92600000Y-67140000D01*
X91600000Y-67230000D01*
X90580000Y-67180000D01*
X89600000Y-66930000D01*
X89040000Y-66570000D01*
X88700000Y-65860000D01*
X88630000Y-65040000D01*
X88650000Y-64710000D01*
X88850000Y-64220000D01*
X89170000Y-63810000D01*
X89660000Y-63590000D01*
X90450000Y-63480000D01*
X90740000Y-63350000D01*
X91010000Y-62680000D01*
X91220000Y-62470000D01*
X92020000Y-62470000D01*
X92190000Y-62760000D01*
G36*
X92190000Y-62760000D02*
G01*
X92330000Y-63250000D01*
X92710000Y-63440000D01*
X93310000Y-63570000D01*
X93890000Y-64120000D01*
X94130000Y-64870000D01*
X94100000Y-65610000D01*
X93840000Y-66280000D01*
X93390000Y-66790000D01*
X92600000Y-67140000D01*
X91600000Y-67230000D01*
X90580000Y-67180000D01*
X89600000Y-66930000D01*
X89040000Y-66570000D01*
X88700000Y-65860000D01*
X88630000Y-65040000D01*
X88650000Y-64710000D01*
X88850000Y-64220000D01*
X89170000Y-63810000D01*
X89660000Y-63590000D01*
X90450000Y-63480000D01*
X90740000Y-63350000D01*
X91010000Y-62680000D01*
X91220000Y-62470000D01*
X92020000Y-62470000D01*
X92190000Y-62760000D01*
G37*
X109310000Y-126301556D02*
X110290000Y-126551556D01*
X110850000Y-126911556D01*
X111190000Y-127621556D01*
X111260000Y-128441556D01*
X111240000Y-128771556D01*
X111040000Y-129261556D01*
X110720000Y-129671556D01*
X110230000Y-129891556D01*
X109440000Y-130001556D01*
X109150000Y-130131556D01*
X108880000Y-130801556D01*
X108670000Y-131011556D01*
X107870000Y-131011556D01*
X107700000Y-130721556D01*
X107560000Y-130231556D01*
X107180000Y-130041556D01*
X106580000Y-129911556D01*
X106000000Y-129361556D01*
X105760000Y-128611556D01*
X105790000Y-127871556D01*
X106050000Y-127201556D01*
X106500000Y-126691556D01*
X107290000Y-126341556D01*
X108290000Y-126251556D01*
X109310000Y-126301556D01*
G36*
X109310000Y-126301556D02*
G01*
X110290000Y-126551556D01*
X110850000Y-126911556D01*
X111190000Y-127621556D01*
X111260000Y-128441556D01*
X111240000Y-128771556D01*
X111040000Y-129261556D01*
X110720000Y-129671556D01*
X110230000Y-129891556D01*
X109440000Y-130001556D01*
X109150000Y-130131556D01*
X108880000Y-130801556D01*
X108670000Y-131011556D01*
X107870000Y-131011556D01*
X107700000Y-130721556D01*
X107560000Y-130231556D01*
X107180000Y-130041556D01*
X106580000Y-129911556D01*
X106000000Y-129361556D01*
X105760000Y-128611556D01*
X105790000Y-127871556D01*
X106050000Y-127201556D01*
X106500000Y-126691556D01*
X107290000Y-126341556D01*
X108290000Y-126251556D01*
X109310000Y-126301556D01*
G37*
X133280000Y-62740000D02*
X133420000Y-63230000D01*
X133800000Y-63420000D01*
X134400000Y-63550000D01*
X134980000Y-64100000D01*
X135220000Y-64850000D01*
X135190000Y-65590000D01*
X134930000Y-66260000D01*
X134480000Y-66770000D01*
X133690000Y-67120000D01*
X132690000Y-67210000D01*
X131670000Y-67160000D01*
X130690000Y-66910000D01*
X130130000Y-66550000D01*
X129790000Y-65840000D01*
X129720000Y-65020000D01*
X129740000Y-64690000D01*
X129940000Y-64200000D01*
X130260000Y-63790000D01*
X130750000Y-63570000D01*
X131540000Y-63460000D01*
X131830000Y-63330000D01*
X132100000Y-62660000D01*
X132310000Y-62450000D01*
X133110000Y-62450000D01*
X133280000Y-62740000D01*
G36*
X133280000Y-62740000D02*
G01*
X133420000Y-63230000D01*
X133800000Y-63420000D01*
X134400000Y-63550000D01*
X134980000Y-64100000D01*
X135220000Y-64850000D01*
X135190000Y-65590000D01*
X134930000Y-66260000D01*
X134480000Y-66770000D01*
X133690000Y-67120000D01*
X132690000Y-67210000D01*
X131670000Y-67160000D01*
X130690000Y-66910000D01*
X130130000Y-66550000D01*
X129790000Y-65840000D01*
X129720000Y-65020000D01*
X129740000Y-64690000D01*
X129940000Y-64200000D01*
X130260000Y-63790000D01*
X130750000Y-63570000D01*
X131540000Y-63460000D01*
X131830000Y-63330000D01*
X132100000Y-62660000D01*
X132310000Y-62450000D01*
X133110000Y-62450000D01*
X133280000Y-62740000D01*
G37*
X150400000Y-126281556D02*
X151380000Y-126531556D01*
X151940000Y-126891556D01*
X152280000Y-127601556D01*
X152350000Y-128421556D01*
X152330000Y-128751556D01*
X152130000Y-129241556D01*
X151810000Y-129651556D01*
X151320000Y-129871556D01*
X150530000Y-129981556D01*
X150240000Y-130111556D01*
X149970000Y-130781556D01*
X149760000Y-130991556D01*
X148960000Y-130991556D01*
X148790000Y-130701556D01*
X148650000Y-130211556D01*
X148270000Y-130021556D01*
X147670000Y-129891556D01*
X147090000Y-129341556D01*
X146850000Y-128591556D01*
X146880000Y-127851556D01*
X147140000Y-127181556D01*
X147590000Y-126671556D01*
X148380000Y-126321556D01*
X149380000Y-126231556D01*
X150400000Y-126281556D01*
G36*
X150400000Y-126281556D02*
G01*
X151380000Y-126531556D01*
X151940000Y-126891556D01*
X152280000Y-127601556D01*
X152350000Y-128421556D01*
X152330000Y-128751556D01*
X152130000Y-129241556D01*
X151810000Y-129651556D01*
X151320000Y-129871556D01*
X150530000Y-129981556D01*
X150240000Y-130111556D01*
X149970000Y-130781556D01*
X149760000Y-130991556D01*
X148960000Y-130991556D01*
X148790000Y-130701556D01*
X148650000Y-130211556D01*
X148270000Y-130021556D01*
X147670000Y-129891556D01*
X147090000Y-129341556D01*
X146850000Y-128591556D01*
X146880000Y-127851556D01*
X147140000Y-127181556D01*
X147590000Y-126671556D01*
X148380000Y-126321556D01*
X149380000Y-126231556D01*
X150400000Y-126281556D01*
G37*
X115100000Y-51770000D02*
X115590000Y-52090000D01*
X115820000Y-52550000D01*
X115830000Y-53940000D01*
X115570000Y-56120000D01*
X115250000Y-57090000D01*
X114780000Y-57550000D01*
X114010000Y-57670000D01*
X110360000Y-57650000D01*
X104250000Y-57710000D01*
X100570000Y-57790000D01*
X97720000Y-57810000D01*
X97120000Y-57680000D01*
X96810000Y-57230000D01*
X96530000Y-56450000D01*
X96360000Y-55560000D01*
X96310000Y-54650000D01*
X96430000Y-53840000D01*
X96720000Y-52910000D01*
X97210000Y-52020000D01*
X97360000Y-51890000D01*
X97840000Y-51800000D01*
X99770000Y-51730000D01*
X102050000Y-51710000D01*
X108580000Y-51710000D01*
X114400000Y-51690000D01*
X115100000Y-51770000D01*
G36*
X115100000Y-51770000D02*
G01*
X115590000Y-52090000D01*
X115820000Y-52550000D01*
X115830000Y-53940000D01*
X115570000Y-56120000D01*
X115250000Y-57090000D01*
X114780000Y-57550000D01*
X114010000Y-57670000D01*
X110360000Y-57650000D01*
X104250000Y-57710000D01*
X100570000Y-57790000D01*
X97720000Y-57810000D01*
X97120000Y-57680000D01*
X96810000Y-57230000D01*
X96530000Y-56450000D01*
X96360000Y-55560000D01*
X96310000Y-54650000D01*
X96430000Y-53840000D01*
X96720000Y-52910000D01*
X97210000Y-52020000D01*
X97360000Y-51890000D01*
X97840000Y-51800000D01*
X99770000Y-51730000D01*
X102050000Y-51710000D01*
X108580000Y-51710000D01*
X114400000Y-51690000D01*
X115100000Y-51770000D01*
G37*
X102770000Y-135801556D02*
X103080000Y-136251556D01*
X103360000Y-137031556D01*
X103530000Y-137921556D01*
X103580000Y-138831556D01*
X103460000Y-139641556D01*
X103170000Y-140571556D01*
X102680000Y-141461556D01*
X102530000Y-141591556D01*
X102050000Y-141681556D01*
X100120000Y-141751556D01*
X97840000Y-141771556D01*
X91310000Y-141771556D01*
X85490000Y-141791556D01*
X84790000Y-141711556D01*
X84300000Y-141391556D01*
X84070000Y-140931556D01*
X84060000Y-139541556D01*
X84320000Y-137361556D01*
X84640000Y-136391556D01*
X85110000Y-135931556D01*
X85880000Y-135811556D01*
X89530000Y-135831556D01*
X95640000Y-135771556D01*
X99320000Y-135691556D01*
X102170000Y-135671556D01*
X102770000Y-135801556D01*
G36*
X102770000Y-135801556D02*
G01*
X103080000Y-136251556D01*
X103360000Y-137031556D01*
X103530000Y-137921556D01*
X103580000Y-138831556D01*
X103460000Y-139641556D01*
X103170000Y-140571556D01*
X102680000Y-141461556D01*
X102530000Y-141591556D01*
X102050000Y-141681556D01*
X100120000Y-141751556D01*
X97840000Y-141771556D01*
X91310000Y-141771556D01*
X85490000Y-141791556D01*
X84790000Y-141711556D01*
X84300000Y-141391556D01*
X84070000Y-140931556D01*
X84060000Y-139541556D01*
X84320000Y-137361556D01*
X84640000Y-136391556D01*
X85110000Y-135931556D01*
X85880000Y-135811556D01*
X89530000Y-135831556D01*
X95640000Y-135771556D01*
X99320000Y-135691556D01*
X102170000Y-135671556D01*
X102770000Y-135801556D01*
G37*
X156190000Y-51750000D02*
X156680000Y-52070000D01*
X156910000Y-52530000D01*
X156920000Y-53920000D01*
X156660000Y-56100000D01*
X156340000Y-57070000D01*
X155870000Y-57530000D01*
X155100000Y-57650000D01*
X151450000Y-57630000D01*
X145340000Y-57690000D01*
X141660000Y-57770000D01*
X138810000Y-57790000D01*
X138210000Y-57660000D01*
X137900000Y-57210000D01*
X137620000Y-56430000D01*
X137450000Y-55540000D01*
X137400000Y-54630000D01*
X137520000Y-53820000D01*
X137810000Y-52890000D01*
X138300000Y-52000000D01*
X138450000Y-51870000D01*
X138930000Y-51780000D01*
X140860000Y-51710000D01*
X143140000Y-51690000D01*
X149670000Y-51690000D01*
X155490000Y-51670000D01*
X156190000Y-51750000D01*
G36*
X156190000Y-51750000D02*
G01*
X156680000Y-52070000D01*
X156910000Y-52530000D01*
X156920000Y-53920000D01*
X156660000Y-56100000D01*
X156340000Y-57070000D01*
X155870000Y-57530000D01*
X155100000Y-57650000D01*
X151450000Y-57630000D01*
X145340000Y-57690000D01*
X141660000Y-57770000D01*
X138810000Y-57790000D01*
X138210000Y-57660000D01*
X137900000Y-57210000D01*
X137620000Y-56430000D01*
X137450000Y-55540000D01*
X137400000Y-54630000D01*
X137520000Y-53820000D01*
X137810000Y-52890000D01*
X138300000Y-52000000D01*
X138450000Y-51870000D01*
X138930000Y-51780000D01*
X140860000Y-51710000D01*
X143140000Y-51690000D01*
X149670000Y-51690000D01*
X155490000Y-51670000D01*
X156190000Y-51750000D01*
G37*
X143860000Y-135781556D02*
X144170000Y-136231556D01*
X144450000Y-137011556D01*
X144620000Y-137901556D01*
X144670000Y-138811556D01*
X144550000Y-139621556D01*
X144260000Y-140551556D01*
X143770000Y-141441556D01*
X143620000Y-141571556D01*
X143140000Y-141661556D01*
X141210000Y-141731556D01*
X138930000Y-141751556D01*
X132400000Y-141751556D01*
X126580000Y-141771556D01*
X125880000Y-141691556D01*
X125390000Y-141371556D01*
X125160000Y-140911556D01*
X125150000Y-139521556D01*
X125410000Y-137341556D01*
X125730000Y-136371556D01*
X126200000Y-135911556D01*
X126970000Y-135791556D01*
X130620000Y-135811556D01*
X136730000Y-135751556D01*
X140410000Y-135671556D01*
X143260000Y-135651556D01*
X143860000Y-135781556D01*
G36*
X143860000Y-135781556D02*
G01*
X144170000Y-136231556D01*
X144450000Y-137011556D01*
X144620000Y-137901556D01*
X144670000Y-138811556D01*
X144550000Y-139621556D01*
X144260000Y-140551556D01*
X143770000Y-141441556D01*
X143620000Y-141571556D01*
X143140000Y-141661556D01*
X141210000Y-141731556D01*
X138930000Y-141751556D01*
X132400000Y-141751556D01*
X126580000Y-141771556D01*
X125880000Y-141691556D01*
X125390000Y-141371556D01*
X125160000Y-140911556D01*
X125150000Y-139521556D01*
X125410000Y-137341556D01*
X125730000Y-136371556D01*
X126200000Y-135911556D01*
X126970000Y-135791556D01*
X130620000Y-135811556D01*
X136730000Y-135751556D01*
X140410000Y-135671556D01*
X143260000Y-135651556D01*
X143860000Y-135781556D01*
G37*
X91000000Y-124901556D02*
X91180000Y-126361556D01*
X91000000Y-126911556D01*
X91080000Y-129621556D01*
X91130000Y-130161556D01*
X91290000Y-130561556D01*
X91650000Y-130941556D01*
X92190000Y-131831556D01*
X92770000Y-133081556D01*
X93090000Y-134011556D01*
X93040000Y-134141556D01*
X92920000Y-134261556D01*
X92460000Y-134201556D01*
X92300000Y-134021556D01*
X91820000Y-133171556D01*
X91410000Y-132481556D01*
X91120000Y-132111556D01*
X90980000Y-132091556D01*
X90940000Y-132211556D01*
X90900000Y-133611556D01*
X90870000Y-134381556D01*
X90740000Y-134611556D01*
X90570000Y-134661556D01*
X89670000Y-134581556D01*
X89260000Y-134421556D01*
X89100000Y-134231556D01*
X89130000Y-133341556D01*
X89120000Y-132251556D01*
X89080000Y-132121556D01*
X88980000Y-132131556D01*
X88020000Y-133051556D01*
X86950000Y-134011556D01*
X86690000Y-134101556D01*
X86520000Y-134091556D01*
X86370000Y-133931556D01*
X86420000Y-133651556D01*
X86810000Y-133131556D01*
X88550000Y-131321556D01*
X89050000Y-130721556D01*
X89200000Y-130331556D01*
X89220000Y-128231556D01*
X89220000Y-127311556D01*
X89430000Y-126551556D01*
X90500000Y-124891556D01*
X91000000Y-124901556D01*
G36*
X91000000Y-124901556D02*
G01*
X91180000Y-126361556D01*
X91000000Y-126911556D01*
X91080000Y-129621556D01*
X91130000Y-130161556D01*
X91290000Y-130561556D01*
X91650000Y-130941556D01*
X92190000Y-131831556D01*
X92770000Y-133081556D01*
X93090000Y-134011556D01*
X93040000Y-134141556D01*
X92920000Y-134261556D01*
X92460000Y-134201556D01*
X92300000Y-134021556D01*
X91820000Y-133171556D01*
X91410000Y-132481556D01*
X91120000Y-132111556D01*
X90980000Y-132091556D01*
X90940000Y-132211556D01*
X90900000Y-133611556D01*
X90870000Y-134381556D01*
X90740000Y-134611556D01*
X90570000Y-134661556D01*
X89670000Y-134581556D01*
X89260000Y-134421556D01*
X89100000Y-134231556D01*
X89130000Y-133341556D01*
X89120000Y-132251556D01*
X89080000Y-132121556D01*
X88980000Y-132131556D01*
X88020000Y-133051556D01*
X86950000Y-134011556D01*
X86690000Y-134101556D01*
X86520000Y-134091556D01*
X86370000Y-133931556D01*
X86420000Y-133651556D01*
X86810000Y-133131556D01*
X88550000Y-131321556D01*
X89050000Y-130721556D01*
X89200000Y-130331556D01*
X89220000Y-128231556D01*
X89220000Y-127311556D01*
X89430000Y-126551556D01*
X90500000Y-124891556D01*
X91000000Y-124901556D01*
G37*
X110220000Y-58900000D02*
X110630000Y-59060000D01*
X110790000Y-59250000D01*
X110760000Y-60140000D01*
X110770000Y-61230000D01*
X110810000Y-61360000D01*
X110910000Y-61350000D01*
X111870000Y-60430000D01*
X112940000Y-59470000D01*
X113200000Y-59380000D01*
X113370000Y-59390000D01*
X113520000Y-59550000D01*
X113470000Y-59830000D01*
X113080000Y-60350000D01*
X111340000Y-62160000D01*
X110840000Y-62760000D01*
X110690000Y-63150000D01*
X110670000Y-65250000D01*
X110670000Y-66170000D01*
X110460000Y-66930000D01*
X109390000Y-68590000D01*
X108890000Y-68580000D01*
X108710000Y-67120000D01*
X108890000Y-66570000D01*
X108810000Y-63860000D01*
X108760000Y-63320000D01*
X108600000Y-62920000D01*
X108240000Y-62540000D01*
X107700000Y-61650000D01*
X107120000Y-60400000D01*
X106800000Y-59470000D01*
X106850000Y-59340000D01*
X106970000Y-59220000D01*
X107430000Y-59280000D01*
X107590000Y-59460000D01*
X108070000Y-60310000D01*
X108480000Y-61000000D01*
X108770000Y-61370000D01*
X108910000Y-61390000D01*
X108950000Y-61270000D01*
X108990000Y-59870000D01*
X109020000Y-59100000D01*
X109150000Y-58870000D01*
X109320000Y-58820000D01*
X110220000Y-58900000D01*
G36*
X110220000Y-58900000D02*
G01*
X110630000Y-59060000D01*
X110790000Y-59250000D01*
X110760000Y-60140000D01*
X110770000Y-61230000D01*
X110810000Y-61360000D01*
X110910000Y-61350000D01*
X111870000Y-60430000D01*
X112940000Y-59470000D01*
X113200000Y-59380000D01*
X113370000Y-59390000D01*
X113520000Y-59550000D01*
X113470000Y-59830000D01*
X113080000Y-60350000D01*
X111340000Y-62160000D01*
X110840000Y-62760000D01*
X110690000Y-63150000D01*
X110670000Y-65250000D01*
X110670000Y-66170000D01*
X110460000Y-66930000D01*
X109390000Y-68590000D01*
X108890000Y-68580000D01*
X108710000Y-67120000D01*
X108890000Y-66570000D01*
X108810000Y-63860000D01*
X108760000Y-63320000D01*
X108600000Y-62920000D01*
X108240000Y-62540000D01*
X107700000Y-61650000D01*
X107120000Y-60400000D01*
X106800000Y-59470000D01*
X106850000Y-59340000D01*
X106970000Y-59220000D01*
X107430000Y-59280000D01*
X107590000Y-59460000D01*
X108070000Y-60310000D01*
X108480000Y-61000000D01*
X108770000Y-61370000D01*
X108910000Y-61390000D01*
X108950000Y-61270000D01*
X108990000Y-59870000D01*
X109020000Y-59100000D01*
X109150000Y-58870000D01*
X109320000Y-58820000D01*
X110220000Y-58900000D01*
G37*
X132090000Y-124881556D02*
X132270000Y-126341556D01*
X132090000Y-126891556D01*
X132170000Y-129601556D01*
X132220000Y-130141556D01*
X132380000Y-130541556D01*
X132740000Y-130921556D01*
X133280000Y-131811556D01*
X133860000Y-133061556D01*
X134180000Y-133991556D01*
X134130000Y-134121556D01*
X134010000Y-134241556D01*
X133550000Y-134181556D01*
X133390000Y-134001556D01*
X132910000Y-133151556D01*
X132500000Y-132461556D01*
X132210000Y-132091556D01*
X132070000Y-132071556D01*
X132030000Y-132191556D01*
X131990000Y-133591556D01*
X131960000Y-134361556D01*
X131830000Y-134591556D01*
X131660000Y-134641556D01*
X130760000Y-134561556D01*
X130350000Y-134401556D01*
X130190000Y-134211556D01*
X130220000Y-133321556D01*
X130210000Y-132231556D01*
X130170000Y-132101556D01*
X130070000Y-132111556D01*
X129110000Y-133031556D01*
X128040000Y-133991556D01*
X127780000Y-134081556D01*
X127610000Y-134071556D01*
X127460000Y-133911556D01*
X127510000Y-133631556D01*
X127900000Y-133111556D01*
X129640000Y-131301556D01*
X130140000Y-130701556D01*
X130290000Y-130311556D01*
X130310000Y-128211556D01*
X130310000Y-127291556D01*
X130520000Y-126531556D01*
X131590000Y-124871556D01*
X132090000Y-124881556D01*
G36*
X132090000Y-124881556D02*
G01*
X132270000Y-126341556D01*
X132090000Y-126891556D01*
X132170000Y-129601556D01*
X132220000Y-130141556D01*
X132380000Y-130541556D01*
X132740000Y-130921556D01*
X133280000Y-131811556D01*
X133860000Y-133061556D01*
X134180000Y-133991556D01*
X134130000Y-134121556D01*
X134010000Y-134241556D01*
X133550000Y-134181556D01*
X133390000Y-134001556D01*
X132910000Y-133151556D01*
X132500000Y-132461556D01*
X132210000Y-132091556D01*
X132070000Y-132071556D01*
X132030000Y-132191556D01*
X131990000Y-133591556D01*
X131960000Y-134361556D01*
X131830000Y-134591556D01*
X131660000Y-134641556D01*
X130760000Y-134561556D01*
X130350000Y-134401556D01*
X130190000Y-134211556D01*
X130220000Y-133321556D01*
X130210000Y-132231556D01*
X130170000Y-132101556D01*
X130070000Y-132111556D01*
X129110000Y-133031556D01*
X128040000Y-133991556D01*
X127780000Y-134081556D01*
X127610000Y-134071556D01*
X127460000Y-133911556D01*
X127510000Y-133631556D01*
X127900000Y-133111556D01*
X129640000Y-131301556D01*
X130140000Y-130701556D01*
X130290000Y-130311556D01*
X130310000Y-128211556D01*
X130310000Y-127291556D01*
X130520000Y-126531556D01*
X131590000Y-124871556D01*
X132090000Y-124881556D01*
G37*
X151310000Y-58880000D02*
X151720000Y-59040000D01*
X151880000Y-59230000D01*
X151850000Y-60120000D01*
X151860000Y-61210000D01*
X151900000Y-61340000D01*
X152000000Y-61330000D01*
X152960000Y-60410000D01*
X154030000Y-59450000D01*
X154290000Y-59360000D01*
X154460000Y-59370000D01*
X154610000Y-59530000D01*
X154560000Y-59810000D01*
X154170000Y-60330000D01*
X152430000Y-62140000D01*
X151930000Y-62740000D01*
X151780000Y-63130000D01*
X151760000Y-65230000D01*
X151760000Y-66150000D01*
X151550000Y-66910000D01*
X150480000Y-68570000D01*
X149980000Y-68560000D01*
X149800000Y-67100000D01*
X149980000Y-66550000D01*
X149900000Y-63840000D01*
X149850000Y-63300000D01*
X149690000Y-62900000D01*
X149330000Y-62520000D01*
X148790000Y-61630000D01*
X148210000Y-60380000D01*
X147890000Y-59450000D01*
X147940000Y-59320000D01*
X148060000Y-59200000D01*
X148520000Y-59260000D01*
X148680000Y-59440000D01*
X149160000Y-60290000D01*
X149570000Y-60980000D01*
X149860000Y-61350000D01*
X150000000Y-61370000D01*
X150040000Y-61250000D01*
X150080000Y-59850000D01*
X150110000Y-59080000D01*
X150240000Y-58850000D01*
X150410000Y-58800000D01*
X151310000Y-58880000D01*
G36*
X151310000Y-58880000D02*
G01*
X151720000Y-59040000D01*
X151880000Y-59230000D01*
X151850000Y-60120000D01*
X151860000Y-61210000D01*
X151900000Y-61340000D01*
X152000000Y-61330000D01*
X152960000Y-60410000D01*
X154030000Y-59450000D01*
X154290000Y-59360000D01*
X154460000Y-59370000D01*
X154610000Y-59530000D01*
X154560000Y-59810000D01*
X154170000Y-60330000D01*
X152430000Y-62140000D01*
X151930000Y-62740000D01*
X151780000Y-63130000D01*
X151760000Y-65230000D01*
X151760000Y-66150000D01*
X151550000Y-66910000D01*
X150480000Y-68570000D01*
X149980000Y-68560000D01*
X149800000Y-67100000D01*
X149980000Y-66550000D01*
X149900000Y-63840000D01*
X149850000Y-63300000D01*
X149690000Y-62900000D01*
X149330000Y-62520000D01*
X148790000Y-61630000D01*
X148210000Y-60380000D01*
X147890000Y-59450000D01*
X147940000Y-59320000D01*
X148060000Y-59200000D01*
X148520000Y-59260000D01*
X148680000Y-59440000D01*
X149160000Y-60290000D01*
X149570000Y-60980000D01*
X149860000Y-61350000D01*
X150000000Y-61370000D01*
X150040000Y-61250000D01*
X150080000Y-59850000D01*
X150110000Y-59080000D01*
X150240000Y-58850000D01*
X150410000Y-58800000D01*
X151310000Y-58880000D01*
G37*
X96500000Y-42190000D02*
X102820000Y-42210000D01*
X104880000Y-42210000D01*
X107160000Y-42240000D01*
X109280000Y-42260000D01*
X109540000Y-42460000D01*
X109660000Y-42790000D01*
X109940000Y-42820000D01*
X110300000Y-42920000D01*
X110590000Y-43110000D01*
X110700000Y-43320000D01*
X110710000Y-44560000D01*
X110720000Y-45620000D01*
X110620000Y-45860000D01*
X110430000Y-45970000D01*
X108830000Y-45940000D01*
X107740000Y-45940000D01*
X107170000Y-46190000D01*
X106840000Y-46600000D01*
X106810000Y-47090000D01*
X107030000Y-47420000D01*
X107600000Y-47690000D01*
X108140000Y-48190000D01*
X108360000Y-49000000D01*
X108320000Y-49690000D01*
X108140000Y-50210000D01*
X107750000Y-50450000D01*
X96220000Y-50500000D01*
X95200000Y-50490000D01*
X93860000Y-50500000D01*
X93510000Y-50470000D01*
X93240000Y-50390000D01*
X92940000Y-50230000D01*
X92670000Y-50020000D01*
X92530000Y-49770000D01*
X92490000Y-49480000D01*
X92490000Y-48950000D01*
X92590000Y-48340000D01*
X92890000Y-47630000D01*
X93120000Y-47260000D01*
X93250000Y-47040000D01*
X93240000Y-46820000D01*
X93060000Y-46420000D01*
X92840000Y-46200000D01*
X92570000Y-46090000D01*
X92050000Y-46090000D01*
X91000000Y-46080000D01*
X90130000Y-45980000D01*
X89510000Y-45670000D01*
X89220000Y-45200000D01*
X89200000Y-44390000D01*
X89240000Y-43690000D01*
X89360000Y-43200000D01*
X89740000Y-42630000D01*
X90250000Y-42260000D01*
X90300000Y-42240000D01*
X90570000Y-42190000D01*
X91350000Y-42180000D01*
X93280000Y-42180000D01*
X96500000Y-42190000D01*
G36*
X96500000Y-42190000D02*
G01*
X102820000Y-42210000D01*
X104880000Y-42210000D01*
X107160000Y-42240000D01*
X109280000Y-42260000D01*
X109540000Y-42460000D01*
X109660000Y-42790000D01*
X109940000Y-42820000D01*
X110300000Y-42920000D01*
X110590000Y-43110000D01*
X110700000Y-43320000D01*
X110710000Y-44560000D01*
X110720000Y-45620000D01*
X110620000Y-45860000D01*
X110430000Y-45970000D01*
X108830000Y-45940000D01*
X107740000Y-45940000D01*
X107170000Y-46190000D01*
X106840000Y-46600000D01*
X106810000Y-47090000D01*
X107030000Y-47420000D01*
X107600000Y-47690000D01*
X108140000Y-48190000D01*
X108360000Y-49000000D01*
X108320000Y-49690000D01*
X108140000Y-50210000D01*
X107750000Y-50450000D01*
X96220000Y-50500000D01*
X95200000Y-50490000D01*
X93860000Y-50500000D01*
X93510000Y-50470000D01*
X93240000Y-50390000D01*
X92940000Y-50230000D01*
X92670000Y-50020000D01*
X92530000Y-49770000D01*
X92490000Y-49480000D01*
X92490000Y-48950000D01*
X92590000Y-48340000D01*
X92890000Y-47630000D01*
X93120000Y-47260000D01*
X93250000Y-47040000D01*
X93240000Y-46820000D01*
X93060000Y-46420000D01*
X92840000Y-46200000D01*
X92570000Y-46090000D01*
X92050000Y-46090000D01*
X91000000Y-46080000D01*
X90130000Y-45980000D01*
X89510000Y-45670000D01*
X89220000Y-45200000D01*
X89200000Y-44390000D01*
X89240000Y-43690000D01*
X89360000Y-43200000D01*
X89740000Y-42630000D01*
X90250000Y-42260000D01*
X90300000Y-42240000D01*
X90570000Y-42190000D01*
X91350000Y-42180000D01*
X93280000Y-42180000D01*
X96500000Y-42190000D01*
G37*
X106380000Y-143011556D02*
X106650000Y-143091556D01*
X106950000Y-143251556D01*
X107220000Y-143461556D01*
X107360000Y-143711556D01*
X107400000Y-144001556D01*
X107400000Y-144531556D01*
X107300000Y-145141556D01*
X107000000Y-145851556D01*
X106770000Y-146221556D01*
X106640000Y-146441556D01*
X106650000Y-146661556D01*
X106830000Y-147061556D01*
X107050000Y-147281556D01*
X107320000Y-147391556D01*
X107840000Y-147391556D01*
X108890000Y-147401556D01*
X109760000Y-147501556D01*
X110380000Y-147811556D01*
X110670000Y-148281556D01*
X110690000Y-149091556D01*
X110650000Y-149791556D01*
X110530000Y-150281556D01*
X110150000Y-150851556D01*
X109640000Y-151221556D01*
X109590000Y-151241556D01*
X109320000Y-151291556D01*
X108540000Y-151301556D01*
X106610000Y-151301556D01*
X103390000Y-151291556D01*
X97070000Y-151271556D01*
X95010000Y-151271556D01*
X92730000Y-151241556D01*
X90610000Y-151221556D01*
X90350000Y-151021556D01*
X90230000Y-150691556D01*
X89950000Y-150661556D01*
X89590000Y-150561556D01*
X89300000Y-150371556D01*
X89190000Y-150161556D01*
X89180000Y-148921556D01*
X89170000Y-147861556D01*
X89270000Y-147621556D01*
X89460000Y-147511556D01*
X91060000Y-147541556D01*
X92150000Y-147541556D01*
X92720000Y-147291556D01*
X93050000Y-146881556D01*
X93080000Y-146391556D01*
X92860000Y-146061556D01*
X92290000Y-145791556D01*
X91750000Y-145291556D01*
X91530000Y-144481556D01*
X91570000Y-143791556D01*
X91750000Y-143271556D01*
X92140000Y-143031556D01*
X103670000Y-142981556D01*
X104690000Y-142991556D01*
X106030000Y-142981556D01*
X106380000Y-143011556D01*
G36*
X106380000Y-143011556D02*
G01*
X106650000Y-143091556D01*
X106950000Y-143251556D01*
X107220000Y-143461556D01*
X107360000Y-143711556D01*
X107400000Y-144001556D01*
X107400000Y-144531556D01*
X107300000Y-145141556D01*
X107000000Y-145851556D01*
X106770000Y-146221556D01*
X106640000Y-146441556D01*
X106650000Y-146661556D01*
X106830000Y-147061556D01*
X107050000Y-147281556D01*
X107320000Y-147391556D01*
X107840000Y-147391556D01*
X108890000Y-147401556D01*
X109760000Y-147501556D01*
X110380000Y-147811556D01*
X110670000Y-148281556D01*
X110690000Y-149091556D01*
X110650000Y-149791556D01*
X110530000Y-150281556D01*
X110150000Y-150851556D01*
X109640000Y-151221556D01*
X109590000Y-151241556D01*
X109320000Y-151291556D01*
X108540000Y-151301556D01*
X106610000Y-151301556D01*
X103390000Y-151291556D01*
X97070000Y-151271556D01*
X95010000Y-151271556D01*
X92730000Y-151241556D01*
X90610000Y-151221556D01*
X90350000Y-151021556D01*
X90230000Y-150691556D01*
X89950000Y-150661556D01*
X89590000Y-150561556D01*
X89300000Y-150371556D01*
X89190000Y-150161556D01*
X89180000Y-148921556D01*
X89170000Y-147861556D01*
X89270000Y-147621556D01*
X89460000Y-147511556D01*
X91060000Y-147541556D01*
X92150000Y-147541556D01*
X92720000Y-147291556D01*
X93050000Y-146881556D01*
X93080000Y-146391556D01*
X92860000Y-146061556D01*
X92290000Y-145791556D01*
X91750000Y-145291556D01*
X91530000Y-144481556D01*
X91570000Y-143791556D01*
X91750000Y-143271556D01*
X92140000Y-143031556D01*
X103670000Y-142981556D01*
X104690000Y-142991556D01*
X106030000Y-142981556D01*
X106380000Y-143011556D01*
G37*
X137590000Y-42170000D02*
X143910000Y-42190000D01*
X145970000Y-42190000D01*
X148250000Y-42220000D01*
X150370000Y-42240000D01*
X150630000Y-42440000D01*
X150750000Y-42770000D01*
X151030000Y-42800000D01*
X151390000Y-42900000D01*
X151680000Y-43090000D01*
X151790000Y-43300000D01*
X151800000Y-44540000D01*
X151810000Y-45600000D01*
X151710000Y-45840000D01*
X151520000Y-45950000D01*
X149920000Y-45920000D01*
X148830000Y-45920000D01*
X148260000Y-46170000D01*
X147930000Y-46580000D01*
X147900000Y-47070000D01*
X148120000Y-47400000D01*
X148690000Y-47670000D01*
X149230000Y-48170000D01*
X149450000Y-48980000D01*
X149410000Y-49670000D01*
X149230000Y-50190000D01*
X148840000Y-50430000D01*
X137310000Y-50480000D01*
X136290000Y-50470000D01*
X134950000Y-50480000D01*
X134600000Y-50450000D01*
X134330000Y-50370000D01*
X134030000Y-50210000D01*
X133760000Y-50000000D01*
X133620000Y-49750000D01*
X133580000Y-49460000D01*
X133580000Y-48930000D01*
X133680000Y-48320000D01*
X133980000Y-47610000D01*
X134210000Y-47240000D01*
X134340000Y-47020000D01*
X134330000Y-46800000D01*
X134150000Y-46400000D01*
X133930000Y-46180000D01*
X133660000Y-46070000D01*
X133140000Y-46070000D01*
X132090000Y-46060000D01*
X131220000Y-45960000D01*
X130600000Y-45650000D01*
X130310000Y-45180000D01*
X130290000Y-44370000D01*
X130330000Y-43670000D01*
X130450000Y-43180000D01*
X130830000Y-42610000D01*
X131340000Y-42240000D01*
X131390000Y-42220000D01*
X131660000Y-42170000D01*
X132440000Y-42160000D01*
X134370000Y-42160000D01*
X137590000Y-42170000D01*
G36*
X137590000Y-42170000D02*
G01*
X143910000Y-42190000D01*
X145970000Y-42190000D01*
X148250000Y-42220000D01*
X150370000Y-42240000D01*
X150630000Y-42440000D01*
X150750000Y-42770000D01*
X151030000Y-42800000D01*
X151390000Y-42900000D01*
X151680000Y-43090000D01*
X151790000Y-43300000D01*
X151800000Y-44540000D01*
X151810000Y-45600000D01*
X151710000Y-45840000D01*
X151520000Y-45950000D01*
X149920000Y-45920000D01*
X148830000Y-45920000D01*
X148260000Y-46170000D01*
X147930000Y-46580000D01*
X147900000Y-47070000D01*
X148120000Y-47400000D01*
X148690000Y-47670000D01*
X149230000Y-48170000D01*
X149450000Y-48980000D01*
X149410000Y-49670000D01*
X149230000Y-50190000D01*
X148840000Y-50430000D01*
X137310000Y-50480000D01*
X136290000Y-50470000D01*
X134950000Y-50480000D01*
X134600000Y-50450000D01*
X134330000Y-50370000D01*
X134030000Y-50210000D01*
X133760000Y-50000000D01*
X133620000Y-49750000D01*
X133580000Y-49460000D01*
X133580000Y-48930000D01*
X133680000Y-48320000D01*
X133980000Y-47610000D01*
X134210000Y-47240000D01*
X134340000Y-47020000D01*
X134330000Y-46800000D01*
X134150000Y-46400000D01*
X133930000Y-46180000D01*
X133660000Y-46070000D01*
X133140000Y-46070000D01*
X132090000Y-46060000D01*
X131220000Y-45960000D01*
X130600000Y-45650000D01*
X130310000Y-45180000D01*
X130290000Y-44370000D01*
X130330000Y-43670000D01*
X130450000Y-43180000D01*
X130830000Y-42610000D01*
X131340000Y-42240000D01*
X131390000Y-42220000D01*
X131660000Y-42170000D01*
X132440000Y-42160000D01*
X134370000Y-42160000D01*
X137590000Y-42170000D01*
G37*
X147470000Y-142991556D02*
X147740000Y-143071556D01*
X148040000Y-143231556D01*
X148310000Y-143441556D01*
X148450000Y-143691556D01*
X148490000Y-143981556D01*
X148490000Y-144511556D01*
X148390000Y-145121556D01*
X148090000Y-145831556D01*
X147860000Y-146201556D01*
X147730000Y-146421556D01*
X147740000Y-146641556D01*
X147920000Y-147041556D01*
X148140000Y-147261556D01*
X148410000Y-147371556D01*
X148930000Y-147371556D01*
X149980000Y-147381556D01*
X150850000Y-147481556D01*
X151470000Y-147791556D01*
X151760000Y-148261556D01*
X151780000Y-149071556D01*
X151740000Y-149771556D01*
X151620000Y-150261556D01*
X151240000Y-150831556D01*
X150730000Y-151201556D01*
X150680000Y-151221556D01*
X150410000Y-151271556D01*
X149630000Y-151281556D01*
X147700000Y-151281556D01*
X144480000Y-151271556D01*
X138160000Y-151251556D01*
X136100000Y-151251556D01*
X133820000Y-151221556D01*
X131700000Y-151201556D01*
X131440000Y-151001556D01*
X131320000Y-150671556D01*
X131040000Y-150641556D01*
X130680000Y-150541556D01*
X130390000Y-150351556D01*
X130280000Y-150141556D01*
X130270000Y-148901556D01*
X130260000Y-147841556D01*
X130360000Y-147601556D01*
X130550000Y-147491556D01*
X132150000Y-147521556D01*
X133240000Y-147521556D01*
X133810000Y-147271556D01*
X134140000Y-146861556D01*
X134170000Y-146371556D01*
X133950000Y-146041556D01*
X133380000Y-145771556D01*
X132840000Y-145271556D01*
X132620000Y-144461556D01*
X132660000Y-143771556D01*
X132840000Y-143251556D01*
X133230000Y-143011556D01*
X144760000Y-142961556D01*
X145780000Y-142971556D01*
X147120000Y-142961556D01*
X147470000Y-142991556D01*
G36*
X147470000Y-142991556D02*
G01*
X147740000Y-143071556D01*
X148040000Y-143231556D01*
X148310000Y-143441556D01*
X148450000Y-143691556D01*
X148490000Y-143981556D01*
X148490000Y-144511556D01*
X148390000Y-145121556D01*
X148090000Y-145831556D01*
X147860000Y-146201556D01*
X147730000Y-146421556D01*
X147740000Y-146641556D01*
X147920000Y-147041556D01*
X148140000Y-147261556D01*
X148410000Y-147371556D01*
X148930000Y-147371556D01*
X149980000Y-147381556D01*
X150850000Y-147481556D01*
X151470000Y-147791556D01*
X151760000Y-148261556D01*
X151780000Y-149071556D01*
X151740000Y-149771556D01*
X151620000Y-150261556D01*
X151240000Y-150831556D01*
X150730000Y-151201556D01*
X150680000Y-151221556D01*
X150410000Y-151271556D01*
X149630000Y-151281556D01*
X147700000Y-151281556D01*
X144480000Y-151271556D01*
X138160000Y-151251556D01*
X136100000Y-151251556D01*
X133820000Y-151221556D01*
X131700000Y-151201556D01*
X131440000Y-151001556D01*
X131320000Y-150671556D01*
X131040000Y-150641556D01*
X130680000Y-150541556D01*
X130390000Y-150351556D01*
X130280000Y-150141556D01*
X130270000Y-148901556D01*
X130260000Y-147841556D01*
X130360000Y-147601556D01*
X130550000Y-147491556D01*
X132150000Y-147521556D01*
X133240000Y-147521556D01*
X133810000Y-147271556D01*
X134140000Y-146861556D01*
X134170000Y-146371556D01*
X133950000Y-146041556D01*
X133380000Y-145771556D01*
X132840000Y-145271556D01*
X132620000Y-144461556D01*
X132660000Y-143771556D01*
X132840000Y-143251556D01*
X133230000Y-143011556D01*
X144760000Y-142961556D01*
X145780000Y-142971556D01*
X147120000Y-142961556D01*
X147470000Y-142991556D01*
G37*
G04 #@! TD*
D11*
G04 #@! TO.C,D31*
X110890000Y-143160000D03*
D12*
X110890000Y-145700000D03*
G04 #@! TD*
D13*
G04 #@! TO.C,REF\u002A\u002A*
X84180000Y-92010000D03*
G04 #@! TD*
G04 #@! TO.C,REF\u002A\u002A*
X115780000Y-101490000D03*
G04 #@! TD*
D14*
G04 #@! TO.C,R31*
X115600000Y-106660000D03*
X107980000Y-106660000D03*
G04 #@! TD*
G04 #@! TO.C,R22*
X157180000Y-86800000D03*
X149560000Y-86800000D03*
G04 #@! TD*
D15*
G04 #@! TO.C,JSAO2*
X138575000Y-84275000D03*
D16*
X138575000Y-86815000D03*
D17*
X141115000Y-84275000D03*
X141115000Y-86815000D03*
D16*
X143655000Y-84275000D03*
X143655000Y-86815000D03*
G04 #@! TD*
D11*
G04 #@! TO.C,D11*
X89100000Y-50300000D03*
D12*
X89100000Y-47760000D03*
G04 #@! TD*
D14*
G04 #@! TO.C,R12*
X116100000Y-86800000D03*
X108480000Y-86800000D03*
G04 #@! TD*
D11*
G04 #@! TO.C,D42*
X124970000Y-126160000D03*
D12*
X124970000Y-128700000D03*
G04 #@! TD*
D11*
G04 #@! TO.C,D21*
X130180000Y-50300000D03*
D12*
X130180000Y-47760000D03*
G04 #@! TD*
D11*
G04 #@! TO.C,D22*
X157180000Y-67300000D03*
D12*
X157180000Y-64760000D03*
G04 #@! TD*
D14*
G04 #@! TO.C,R21*
X125470000Y-86800000D03*
X133090000Y-86800000D03*
G04 #@! TD*
G04 #@! TO.C,R42*
X124970000Y-106660000D03*
X132590000Y-106660000D03*
G04 #@! TD*
D15*
G04 #@! TO.C,JSAO4*
X143600000Y-109225000D03*
D16*
X143600000Y-106685000D03*
D17*
X141060000Y-109225000D03*
X141060000Y-106685000D03*
D16*
X138520000Y-109225000D03*
X138520000Y-106685000D03*
G04 #@! TD*
D11*
G04 #@! TO.C,D41*
X151970000Y-143160000D03*
D12*
X151970000Y-145700000D03*
G04 #@! TD*
D18*
G04 #@! TO.C,sao_edgecuts_02*
X86270000Y-96000000D03*
X86270000Y-97500000D03*
X87020000Y-96000000D03*
X87020000Y-97500000D03*
X87770000Y-96000000D03*
X87770000Y-97500000D03*
X112170000Y-96000000D03*
X112170000Y-97500000D03*
X112920000Y-96000000D03*
X112920000Y-97500000D03*
X113670000Y-96000000D03*
X113670000Y-97500000D03*
X119760000Y-88730000D03*
X119760000Y-89480000D03*
X119760000Y-90230000D03*
X119810000Y-103270000D03*
X119810000Y-104020000D03*
X119810000Y-104770000D03*
X121260000Y-88730000D03*
X121260000Y-89480000D03*
X121260000Y-90230000D03*
X121310000Y-103270000D03*
X121310000Y-104020000D03*
X121310000Y-104770000D03*
X127350000Y-96000000D03*
X127350000Y-97500000D03*
X128100000Y-96000000D03*
X128100000Y-97500000D03*
X128850000Y-96000000D03*
X128850000Y-97500000D03*
X153250000Y-96000000D03*
X153250000Y-97500000D03*
X154000000Y-96000000D03*
X154000000Y-97500000D03*
X154750000Y-96000000D03*
X154750000Y-97500000D03*
G04 #@! TD*
D14*
G04 #@! TO.C,R32*
X83890000Y-106660000D03*
X91510000Y-106660000D03*
G04 #@! TD*
D15*
G04 #@! TO.C,JSAO3*
X102500000Y-109225000D03*
D16*
X102500000Y-106685000D03*
D17*
X99960000Y-109225000D03*
X99960000Y-106685000D03*
D16*
X97420000Y-109225000D03*
X97420000Y-106685000D03*
G04 #@! TD*
D11*
G04 #@! TO.C,D32*
X83890000Y-126160000D03*
D12*
X83889999Y-128700002D03*
G04 #@! TD*
D14*
G04 #@! TO.C,R41*
X156680000Y-106660000D03*
X149060000Y-106660000D03*
G04 #@! TD*
G04 #@! TO.C,R11*
X84390000Y-86800000D03*
X92010000Y-86800000D03*
G04 #@! TD*
D13*
G04 #@! TO.C,REF\u002A\u002A*
X156890000Y-101490000D03*
G04 #@! TD*
D11*
G04 #@! TO.C,D12*
X116100000Y-67300000D03*
D12*
X116100001Y-64759999D03*
G04 #@! TD*
D15*
G04 #@! TO.C,JSAO1*
X97495000Y-84275000D03*
D16*
X97495000Y-86815000D03*
D17*
X100035000Y-84275000D03*
X100035000Y-86815000D03*
D16*
X102575000Y-84275000D03*
X102575000Y-86815000D03*
G04 #@! TD*
D13*
G04 #@! TO.C,REF\u002A\u002A*
X125290000Y-92010000D03*
G04 #@! TD*
M02*
